<?xml version="1.0" encoding="utf-8" standalone="no"?>
<!DOCTYPE svg PUBLIC "-//W3C//DTD SVG 1.1//EN"
  "http://www.w3.org/Graphics/SVG/1.1/DTD/svg11.dtd">
<svg height="265.995469pt" version="1.1" viewBox="0 0 601.645625 265.995469" width="601.645625pt" xmlns="http://www.w3.org/2000/svg" xmlns:xlink="http://www.w3.org/1999/xlink">
 <metadata>
  <rdf:RDF xmlns:cc="http://creativecommons.org/ns#" xmlns:dc="http://purl.org/dc/elements/1.1/" xmlns:rdf="http://www.w3.org/1999/02/22-rdf-syntax-ns#">
   <cc:Work>
    <dc:type rdf:resource="http://purl.org/dc/dcmitype/StillImage"/>
    <dc:date>2021-07-01T18:21:27.188246</dc:date>
    <dc:format>image/svg+xml</dc:format>
    <dc:creator>
     <cc:Agent>
      <dc:title>Matplotlib v3.4.1, https://matplotlib.org/</dc:title>
     </cc:Agent>
    </dc:creator>
   </cc:Work>
  </rdf:RDF>
 </metadata>
 <defs>
  <style type="text/css">*{stroke-linecap:butt;stroke-linejoin:round;}</style>
 </defs>
 <g id="figure_1">
  <g id="patch_1">
   <path d="M 0 265.995469 
L 601.645625 265.995469 
L 601.645625 0 
L 0 0 
z
" style="fill:none;"/>
  </g>
  <g id="axes_1">
   <g id="patch_2">
    <path d="M 46.965625 228.439219 
L 381.765625 228.439219 
L 381.765625 10.999219 
L 46.965625 10.999219 
z
" style="fill:#ffffff;"/>
   </g>
   <g id="matplotlib.axis_1">
    <g id="xtick_1">
     <g id="line2d_1">
      <path clip-path="url(#p267e97fe0f)" d="M 46.965625 228.439219 
L 46.965625 10.999219 
" style="fill:none;stroke:#b0b0b0;stroke-dasharray:2.96,1.28;stroke-dashoffset:0;stroke-opacity:0.5;stroke-width:0.8;"/>
     </g>
     <g id="line2d_2">
      <defs>
       <path d="M 0 0 
L 0 3.5 
" id="m2c22853163" style="stroke:#000000;stroke-width:0.8;"/>
      </defs>
      <g>
       <use style="stroke:#000000;stroke-width:0.8;" x="46.965625" xlink:href="#m2c22853163" y="228.439219"/>
      </g>
     </g>
     <g id="text_1">
      <!-- 0 -->
      <g transform="translate(43.784375 243.037656)scale(0.1 -0.1)">
       <defs>
        <path d="M 2034 4250 
Q 1547 4250 1301 3770 
Q 1056 3291 1056 2328 
Q 1056 1369 1301 889 
Q 1547 409 2034 409 
Q 2525 409 2770 889 
Q 3016 1369 3016 2328 
Q 3016 3291 2770 3770 
Q 2525 4250 2034 4250 
z
M 2034 4750 
Q 2819 4750 3233 4129 
Q 3647 3509 3647 2328 
Q 3647 1150 3233 529 
Q 2819 -91 2034 -91 
Q 1250 -91 836 529 
Q 422 1150 422 2328 
Q 422 3509 836 4129 
Q 1250 4750 2034 4750 
z
" id="DejaVuSans-30" transform="scale(0.015625)"/>
       </defs>
       <use xlink:href="#DejaVuSans-30"/>
      </g>
     </g>
    </g>
    <g id="xtick_2">
     <g id="line2d_3">
      <path clip-path="url(#p267e97fe0f)" d="M 102.765625 228.439219 
L 102.765625 10.999219 
" style="fill:none;stroke:#b0b0b0;stroke-dasharray:2.96,1.28;stroke-dashoffset:0;stroke-opacity:0.5;stroke-width:0.8;"/>
     </g>
     <g id="line2d_4">
      <g>
       <use style="stroke:#000000;stroke-width:0.8;" x="102.765625" xlink:href="#m2c22853163" y="228.439219"/>
      </g>
     </g>
     <g id="text_2">
      <!-- 100 -->
      <g transform="translate(93.221875 243.037656)scale(0.1 -0.1)">
       <defs>
        <path d="M 794 531 
L 1825 531 
L 1825 4091 
L 703 3866 
L 703 4441 
L 1819 4666 
L 2450 4666 
L 2450 531 
L 3481 531 
L 3481 0 
L 794 0 
L 794 531 
z
" id="DejaVuSans-31" transform="scale(0.015625)"/>
       </defs>
       <use xlink:href="#DejaVuSans-31"/>
       <use x="63.623047" xlink:href="#DejaVuSans-30"/>
       <use x="127.246094" xlink:href="#DejaVuSans-30"/>
      </g>
     </g>
    </g>
    <g id="xtick_3">
     <g id="line2d_5">
      <path clip-path="url(#p267e97fe0f)" d="M 158.565625 228.439219 
L 158.565625 10.999219 
" style="fill:none;stroke:#b0b0b0;stroke-dasharray:2.96,1.28;stroke-dashoffset:0;stroke-opacity:0.5;stroke-width:0.8;"/>
     </g>
     <g id="line2d_6">
      <g>
       <use style="stroke:#000000;stroke-width:0.8;" x="158.565625" xlink:href="#m2c22853163" y="228.439219"/>
      </g>
     </g>
     <g id="text_3">
      <!-- 200 -->
      <g transform="translate(149.021875 243.037656)scale(0.1 -0.1)">
       <defs>
        <path d="M 1228 531 
L 3431 531 
L 3431 0 
L 469 0 
L 469 531 
Q 828 903 1448 1529 
Q 2069 2156 2228 2338 
Q 2531 2678 2651 2914 
Q 2772 3150 2772 3378 
Q 2772 3750 2511 3984 
Q 2250 4219 1831 4219 
Q 1534 4219 1204 4116 
Q 875 4013 500 3803 
L 500 4441 
Q 881 4594 1212 4672 
Q 1544 4750 1819 4750 
Q 2544 4750 2975 4387 
Q 3406 4025 3406 3419 
Q 3406 3131 3298 2873 
Q 3191 2616 2906 2266 
Q 2828 2175 2409 1742 
Q 1991 1309 1228 531 
z
" id="DejaVuSans-32" transform="scale(0.015625)"/>
       </defs>
       <use xlink:href="#DejaVuSans-32"/>
       <use x="63.623047" xlink:href="#DejaVuSans-30"/>
       <use x="127.246094" xlink:href="#DejaVuSans-30"/>
      </g>
     </g>
    </g>
    <g id="xtick_4">
     <g id="line2d_7">
      <path clip-path="url(#p267e97fe0f)" d="M 214.365625 228.439219 
L 214.365625 10.999219 
" style="fill:none;stroke:#b0b0b0;stroke-dasharray:2.96,1.28;stroke-dashoffset:0;stroke-opacity:0.5;stroke-width:0.8;"/>
     </g>
     <g id="line2d_8">
      <g>
       <use style="stroke:#000000;stroke-width:0.8;" x="214.365625" xlink:href="#m2c22853163" y="228.439219"/>
      </g>
     </g>
     <g id="text_4">
      <!-- 300 -->
      <g transform="translate(204.821875 243.037656)scale(0.1 -0.1)">
       <defs>
        <path d="M 2597 2516 
Q 3050 2419 3304 2112 
Q 3559 1806 3559 1356 
Q 3559 666 3084 287 
Q 2609 -91 1734 -91 
Q 1441 -91 1130 -33 
Q 819 25 488 141 
L 488 750 
Q 750 597 1062 519 
Q 1375 441 1716 441 
Q 2309 441 2620 675 
Q 2931 909 2931 1356 
Q 2931 1769 2642 2001 
Q 2353 2234 1838 2234 
L 1294 2234 
L 1294 2753 
L 1863 2753 
Q 2328 2753 2575 2939 
Q 2822 3125 2822 3475 
Q 2822 3834 2567 4026 
Q 2313 4219 1838 4219 
Q 1578 4219 1281 4162 
Q 984 4106 628 3988 
L 628 4550 
Q 988 4650 1302 4700 
Q 1616 4750 1894 4750 
Q 2613 4750 3031 4423 
Q 3450 4097 3450 3541 
Q 3450 3153 3228 2886 
Q 3006 2619 2597 2516 
z
" id="DejaVuSans-33" transform="scale(0.015625)"/>
       </defs>
       <use xlink:href="#DejaVuSans-33"/>
       <use x="63.623047" xlink:href="#DejaVuSans-30"/>
       <use x="127.246094" xlink:href="#DejaVuSans-30"/>
      </g>
     </g>
    </g>
    <g id="xtick_5">
     <g id="line2d_9">
      <path clip-path="url(#p267e97fe0f)" d="M 270.165625 228.439219 
L 270.165625 10.999219 
" style="fill:none;stroke:#b0b0b0;stroke-dasharray:2.96,1.28;stroke-dashoffset:0;stroke-opacity:0.5;stroke-width:0.8;"/>
     </g>
     <g id="line2d_10">
      <g>
       <use style="stroke:#000000;stroke-width:0.8;" x="270.165625" xlink:href="#m2c22853163" y="228.439219"/>
      </g>
     </g>
     <g id="text_5">
      <!-- 400 -->
      <g transform="translate(260.621875 243.037656)scale(0.1 -0.1)">
       <defs>
        <path d="M 2419 4116 
L 825 1625 
L 2419 1625 
L 2419 4116 
z
M 2253 4666 
L 3047 4666 
L 3047 1625 
L 3713 1625 
L 3713 1100 
L 3047 1100 
L 3047 0 
L 2419 0 
L 2419 1100 
L 313 1100 
L 313 1709 
L 2253 4666 
z
" id="DejaVuSans-34" transform="scale(0.015625)"/>
       </defs>
       <use xlink:href="#DejaVuSans-34"/>
       <use x="63.623047" xlink:href="#DejaVuSans-30"/>
       <use x="127.246094" xlink:href="#DejaVuSans-30"/>
      </g>
     </g>
    </g>
    <g id="xtick_6">
     <g id="line2d_11">
      <path clip-path="url(#p267e97fe0f)" d="M 325.965625 228.439219 
L 325.965625 10.999219 
" style="fill:none;stroke:#b0b0b0;stroke-dasharray:2.96,1.28;stroke-dashoffset:0;stroke-opacity:0.5;stroke-width:0.8;"/>
     </g>
     <g id="line2d_12">
      <g>
       <use style="stroke:#000000;stroke-width:0.8;" x="325.965625" xlink:href="#m2c22853163" y="228.439219"/>
      </g>
     </g>
     <g id="text_6">
      <!-- 500 -->
      <g transform="translate(316.421875 243.037656)scale(0.1 -0.1)">
       <defs>
        <path d="M 691 4666 
L 3169 4666 
L 3169 4134 
L 1269 4134 
L 1269 2991 
Q 1406 3038 1543 3061 
Q 1681 3084 1819 3084 
Q 2600 3084 3056 2656 
Q 3513 2228 3513 1497 
Q 3513 744 3044 326 
Q 2575 -91 1722 -91 
Q 1428 -91 1123 -41 
Q 819 9 494 109 
L 494 744 
Q 775 591 1075 516 
Q 1375 441 1709 441 
Q 2250 441 2565 725 
Q 2881 1009 2881 1497 
Q 2881 1984 2565 2268 
Q 2250 2553 1709 2553 
Q 1456 2553 1204 2497 
Q 953 2441 691 2322 
L 691 4666 
z
" id="DejaVuSans-35" transform="scale(0.015625)"/>
       </defs>
       <use xlink:href="#DejaVuSans-35"/>
       <use x="63.623047" xlink:href="#DejaVuSans-30"/>
       <use x="127.246094" xlink:href="#DejaVuSans-30"/>
      </g>
     </g>
    </g>
    <g id="xtick_7">
     <g id="line2d_13">
      <path clip-path="url(#p267e97fe0f)" d="M 381.765625 228.439219 
L 381.765625 10.999219 
" style="fill:none;stroke:#b0b0b0;stroke-dasharray:2.96,1.28;stroke-dashoffset:0;stroke-opacity:0.5;stroke-width:0.8;"/>
     </g>
     <g id="line2d_14">
      <g>
       <use style="stroke:#000000;stroke-width:0.8;" x="381.765625" xlink:href="#m2c22853163" y="228.439219"/>
      </g>
     </g>
     <g id="text_7">
      <!-- 600 -->
      <g transform="translate(372.221875 243.037656)scale(0.1 -0.1)">
       <defs>
        <path d="M 2113 2584 
Q 1688 2584 1439 2293 
Q 1191 2003 1191 1497 
Q 1191 994 1439 701 
Q 1688 409 2113 409 
Q 2538 409 2786 701 
Q 3034 994 3034 1497 
Q 3034 2003 2786 2293 
Q 2538 2584 2113 2584 
z
M 3366 4563 
L 3366 3988 
Q 3128 4100 2886 4159 
Q 2644 4219 2406 4219 
Q 1781 4219 1451 3797 
Q 1122 3375 1075 2522 
Q 1259 2794 1537 2939 
Q 1816 3084 2150 3084 
Q 2853 3084 3261 2657 
Q 3669 2231 3669 1497 
Q 3669 778 3244 343 
Q 2819 -91 2113 -91 
Q 1303 -91 875 529 
Q 447 1150 447 2328 
Q 447 3434 972 4092 
Q 1497 4750 2381 4750 
Q 2619 4750 2861 4703 
Q 3103 4656 3366 4563 
z
" id="DejaVuSans-36" transform="scale(0.015625)"/>
       </defs>
       <use xlink:href="#DejaVuSans-36"/>
       <use x="63.623047" xlink:href="#DejaVuSans-30"/>
       <use x="127.246094" xlink:href="#DejaVuSans-30"/>
      </g>
     </g>
    </g>
    <g id="text_8">
     <!-- Time / s -->
     <g transform="translate(194.664844 256.715781)scale(0.1 -0.1)">
      <defs>
       <path d="M -19 4666 
L 3928 4666 
L 3928 4134 
L 2272 4134 
L 2272 0 
L 1638 0 
L 1638 4134 
L -19 4134 
L -19 4666 
z
" id="DejaVuSans-54" transform="scale(0.015625)"/>
       <path d="M 603 3500 
L 1178 3500 
L 1178 0 
L 603 0 
L 603 3500 
z
M 603 4863 
L 1178 4863 
L 1178 4134 
L 603 4134 
L 603 4863 
z
" id="DejaVuSans-69" transform="scale(0.015625)"/>
       <path d="M 3328 2828 
Q 3544 3216 3844 3400 
Q 4144 3584 4550 3584 
Q 5097 3584 5394 3201 
Q 5691 2819 5691 2113 
L 5691 0 
L 5113 0 
L 5113 2094 
Q 5113 2597 4934 2840 
Q 4756 3084 4391 3084 
Q 3944 3084 3684 2787 
Q 3425 2491 3425 1978 
L 3425 0 
L 2847 0 
L 2847 2094 
Q 2847 2600 2669 2842 
Q 2491 3084 2119 3084 
Q 1678 3084 1418 2786 
Q 1159 2488 1159 1978 
L 1159 0 
L 581 0 
L 581 3500 
L 1159 3500 
L 1159 2956 
Q 1356 3278 1631 3431 
Q 1906 3584 2284 3584 
Q 2666 3584 2933 3390 
Q 3200 3197 3328 2828 
z
" id="DejaVuSans-6d" transform="scale(0.015625)"/>
       <path d="M 3597 1894 
L 3597 1613 
L 953 1613 
Q 991 1019 1311 708 
Q 1631 397 2203 397 
Q 2534 397 2845 478 
Q 3156 559 3463 722 
L 3463 178 
Q 3153 47 2828 -22 
Q 2503 -91 2169 -91 
Q 1331 -91 842 396 
Q 353 884 353 1716 
Q 353 2575 817 3079 
Q 1281 3584 2069 3584 
Q 2775 3584 3186 3129 
Q 3597 2675 3597 1894 
z
M 3022 2063 
Q 3016 2534 2758 2815 
Q 2500 3097 2075 3097 
Q 1594 3097 1305 2825 
Q 1016 2553 972 2059 
L 3022 2063 
z
" id="DejaVuSans-65" transform="scale(0.015625)"/>
       <path id="DejaVuSans-20" transform="scale(0.015625)"/>
       <path d="M 1625 4666 
L 2156 4666 
L 531 -594 
L 0 -594 
L 1625 4666 
z
" id="DejaVuSans-2f" transform="scale(0.015625)"/>
       <path d="M 2834 3397 
L 2834 2853 
Q 2591 2978 2328 3040 
Q 2066 3103 1784 3103 
Q 1356 3103 1142 2972 
Q 928 2841 928 2578 
Q 928 2378 1081 2264 
Q 1234 2150 1697 2047 
L 1894 2003 
Q 2506 1872 2764 1633 
Q 3022 1394 3022 966 
Q 3022 478 2636 193 
Q 2250 -91 1575 -91 
Q 1294 -91 989 -36 
Q 684 19 347 128 
L 347 722 
Q 666 556 975 473 
Q 1284 391 1588 391 
Q 1994 391 2212 530 
Q 2431 669 2431 922 
Q 2431 1156 2273 1281 
Q 2116 1406 1581 1522 
L 1381 1569 
Q 847 1681 609 1914 
Q 372 2147 372 2553 
Q 372 3047 722 3315 
Q 1072 3584 1716 3584 
Q 2034 3584 2315 3537 
Q 2597 3491 2834 3397 
z
" id="DejaVuSans-73" transform="scale(0.015625)"/>
      </defs>
      <use xlink:href="#DejaVuSans-54"/>
      <use x="57.958984" xlink:href="#DejaVuSans-69"/>
      <use x="85.742188" xlink:href="#DejaVuSans-6d"/>
      <use x="183.154297" xlink:href="#DejaVuSans-65"/>
      <use x="244.677734" xlink:href="#DejaVuSans-20"/>
      <use x="276.464844" xlink:href="#DejaVuSans-2f"/>
      <use x="310.15625" xlink:href="#DejaVuSans-20"/>
      <use x="341.943359" xlink:href="#DejaVuSans-73"/>
     </g>
    </g>
   </g>
   <g id="matplotlib.axis_2">
    <g id="ytick_1">
     <g id="line2d_15">
      <path clip-path="url(#p267e97fe0f)" d="M 46.965625 228.439219 
L 381.765625 228.439219 
" style="fill:none;stroke:#b0b0b0;stroke-dasharray:2.96,1.28;stroke-dashoffset:0;stroke-opacity:0.5;stroke-width:0.8;"/>
     </g>
     <g id="line2d_16">
      <defs>
       <path d="M 0 0 
L -3.5 0 
" id="m5c58bedda8" style="stroke:#000000;stroke-width:0.8;"/>
      </defs>
      <g>
       <use style="stroke:#000000;stroke-width:0.8;" x="46.965625" xlink:href="#m5c58bedda8" y="228.439219"/>
      </g>
     </g>
     <g id="text_9">
      <!-- 0 -->
      <g transform="translate(33.603125 232.238437)scale(0.1 -0.1)">
       <use xlink:href="#DejaVuSans-30"/>
      </g>
     </g>
    </g>
    <g id="ytick_2">
     <g id="line2d_17">
      <path clip-path="url(#p267e97fe0f)" d="M 46.965625 174.079219 
L 381.765625 174.079219 
" style="fill:none;stroke:#b0b0b0;stroke-dasharray:2.96,1.28;stroke-dashoffset:0;stroke-opacity:0.5;stroke-width:0.8;"/>
     </g>
     <g id="line2d_18">
      <g>
       <use style="stroke:#000000;stroke-width:0.8;" x="46.965625" xlink:href="#m5c58bedda8" y="174.079219"/>
      </g>
     </g>
     <g id="text_10">
      <!-- 150 -->
      <g transform="translate(20.878125 177.878437)scale(0.1 -0.1)">
       <use xlink:href="#DejaVuSans-31"/>
       <use x="63.623047" xlink:href="#DejaVuSans-35"/>
       <use x="127.246094" xlink:href="#DejaVuSans-30"/>
      </g>
     </g>
    </g>
    <g id="ytick_3">
     <g id="line2d_19">
      <path clip-path="url(#p267e97fe0f)" d="M 46.965625 119.719219 
L 381.765625 119.719219 
" style="fill:none;stroke:#b0b0b0;stroke-dasharray:2.96,1.28;stroke-dashoffset:0;stroke-opacity:0.5;stroke-width:0.8;"/>
     </g>
     <g id="line2d_20">
      <g>
       <use style="stroke:#000000;stroke-width:0.8;" x="46.965625" xlink:href="#m5c58bedda8" y="119.719219"/>
      </g>
     </g>
     <g id="text_11">
      <!-- 300 -->
      <g transform="translate(20.878125 123.518437)scale(0.1 -0.1)">
       <use xlink:href="#DejaVuSans-33"/>
       <use x="63.623047" xlink:href="#DejaVuSans-30"/>
       <use x="127.246094" xlink:href="#DejaVuSans-30"/>
      </g>
     </g>
    </g>
    <g id="ytick_4">
     <g id="line2d_21">
      <path clip-path="url(#p267e97fe0f)" d="M 46.965625 65.359219 
L 381.765625 65.359219 
" style="fill:none;stroke:#b0b0b0;stroke-dasharray:2.96,1.28;stroke-dashoffset:0;stroke-opacity:0.5;stroke-width:0.8;"/>
     </g>
     <g id="line2d_22">
      <g>
       <use style="stroke:#000000;stroke-width:0.8;" x="46.965625" xlink:href="#m5c58bedda8" y="65.359219"/>
      </g>
     </g>
     <g id="text_12">
      <!-- 450 -->
      <g transform="translate(20.878125 69.158437)scale(0.1 -0.1)">
       <use xlink:href="#DejaVuSans-34"/>
       <use x="63.623047" xlink:href="#DejaVuSans-35"/>
       <use x="127.246094" xlink:href="#DejaVuSans-30"/>
      </g>
     </g>
    </g>
    <g id="ytick_5">
     <g id="line2d_23">
      <path clip-path="url(#p267e97fe0f)" d="M 46.965625 10.999219 
L 381.765625 10.999219 
" style="fill:none;stroke:#b0b0b0;stroke-dasharray:2.96,1.28;stroke-dashoffset:0;stroke-opacity:0.5;stroke-width:0.8;"/>
     </g>
     <g id="line2d_24">
      <g>
       <use style="stroke:#000000;stroke-width:0.8;" x="46.965625" xlink:href="#m5c58bedda8" y="10.999219"/>
      </g>
     </g>
     <g id="text_13">
      <!-- 600 -->
      <g transform="translate(20.878125 14.798437)scale(0.1 -0.1)">
       <use xlink:href="#DejaVuSans-36"/>
       <use x="63.623047" xlink:href="#DejaVuSans-30"/>
       <use x="127.246094" xlink:href="#DejaVuSans-30"/>
      </g>
     </g>
    </g>
    <g id="text_14">
     <!-- Temperature / $^\circ C$ -->
     <g transform="translate(14.778125 164.469219)rotate(-90)scale(0.1 -0.1)">
      <defs>
       <path d="M 1159 525 
L 1159 -1331 
L 581 -1331 
L 581 3500 
L 1159 3500 
L 1159 2969 
Q 1341 3281 1617 3432 
Q 1894 3584 2278 3584 
Q 2916 3584 3314 3078 
Q 3713 2572 3713 1747 
Q 3713 922 3314 415 
Q 2916 -91 2278 -91 
Q 1894 -91 1617 61 
Q 1341 213 1159 525 
z
M 3116 1747 
Q 3116 2381 2855 2742 
Q 2594 3103 2138 3103 
Q 1681 3103 1420 2742 
Q 1159 2381 1159 1747 
Q 1159 1113 1420 752 
Q 1681 391 2138 391 
Q 2594 391 2855 752 
Q 3116 1113 3116 1747 
z
" id="DejaVuSans-70" transform="scale(0.015625)"/>
       <path d="M 2631 2963 
Q 2534 3019 2420 3045 
Q 2306 3072 2169 3072 
Q 1681 3072 1420 2755 
Q 1159 2438 1159 1844 
L 1159 0 
L 581 0 
L 581 3500 
L 1159 3500 
L 1159 2956 
Q 1341 3275 1631 3429 
Q 1922 3584 2338 3584 
Q 2397 3584 2469 3576 
Q 2541 3569 2628 3553 
L 2631 2963 
z
" id="DejaVuSans-72" transform="scale(0.015625)"/>
       <path d="M 2194 1759 
Q 1497 1759 1228 1600 
Q 959 1441 959 1056 
Q 959 750 1161 570 
Q 1363 391 1709 391 
Q 2188 391 2477 730 
Q 2766 1069 2766 1631 
L 2766 1759 
L 2194 1759 
z
M 3341 1997 
L 3341 0 
L 2766 0 
L 2766 531 
Q 2569 213 2275 61 
Q 1981 -91 1556 -91 
Q 1019 -91 701 211 
Q 384 513 384 1019 
Q 384 1609 779 1909 
Q 1175 2209 1959 2209 
L 2766 2209 
L 2766 2266 
Q 2766 2663 2505 2880 
Q 2244 3097 1772 3097 
Q 1472 3097 1187 3025 
Q 903 2953 641 2809 
L 641 3341 
Q 956 3463 1253 3523 
Q 1550 3584 1831 3584 
Q 2591 3584 2966 3190 
Q 3341 2797 3341 1997 
z
" id="DejaVuSans-61" transform="scale(0.015625)"/>
       <path d="M 1172 4494 
L 1172 3500 
L 2356 3500 
L 2356 3053 
L 1172 3053 
L 1172 1153 
Q 1172 725 1289 603 
Q 1406 481 1766 481 
L 2356 481 
L 2356 0 
L 1766 0 
Q 1100 0 847 248 
Q 594 497 594 1153 
L 594 3053 
L 172 3053 
L 172 3500 
L 594 3500 
L 594 4494 
L 1172 4494 
z
" id="DejaVuSans-74" transform="scale(0.015625)"/>
       <path d="M 544 1381 
L 544 3500 
L 1119 3500 
L 1119 1403 
Q 1119 906 1312 657 
Q 1506 409 1894 409 
Q 2359 409 2629 706 
Q 2900 1003 2900 1516 
L 2900 3500 
L 3475 3500 
L 3475 0 
L 2900 0 
L 2900 538 
Q 2691 219 2414 64 
Q 2138 -91 1772 -91 
Q 1169 -91 856 284 
Q 544 659 544 1381 
z
M 1991 3584 
L 1991 3584 
z
" id="DejaVuSans-75" transform="scale(0.015625)"/>
       <path d="M 2000 2619 
Q 1750 2619 1578 2445 
Q 1406 2272 1406 2022 
Q 1406 1775 1578 1605 
Q 1750 1435 2000 1435 
Q 2250 1435 2422 1605 
Q 2594 1775 2594 2022 
Q 2594 2269 2420 2444 
Q 2247 2619 2000 2619 
z
M 2000 3022 
Q 2200 3022 2384 2945 
Q 2569 2869 2703 2725 
Q 2847 2585 2919 2406 
Q 2991 2228 2991 2022 
Q 2991 1610 2702 1324 
Q 2413 1038 1994 1038 
Q 1572 1038 1290 1319 
Q 1009 1600 1009 2022 
Q 1009 2441 1296 2731 
Q 1584 3022 2000 3022 
z
" id="DejaVuSans-2218" transform="scale(0.015625)"/>
       <path d="M 4447 4306 
L 4319 3641 
Q 4019 3944 3683 4091 
Q 3347 4238 2956 4238 
Q 2422 4238 2017 3981 
Q 1613 3725 1319 3200 
Q 1131 2863 1032 2486 
Q 934 2109 934 1728 
Q 934 1091 1264 756 
Q 1594 422 2222 422 
Q 2656 422 3056 561 
Q 3456 700 3834 978 
L 3688 231 
Q 3316 72 2936 -9 
Q 2556 -91 2175 -91 
Q 1278 -91 773 396 
Q 269 884 269 1753 
Q 269 2309 461 2846 
Q 653 3384 1013 3828 
Q 1394 4300 1883 4525 
Q 2372 4750 3022 4750 
Q 3422 4750 3780 4639 
Q 4138 4528 4447 4306 
z
" id="DejaVuSans-Oblique-43" transform="scale(0.015625)"/>
      </defs>
      <use transform="translate(0 0.78125)" xlink:href="#DejaVuSans-54"/>
      <use transform="translate(61.083984 0.78125)" xlink:href="#DejaVuSans-65"/>
      <use transform="translate(122.607422 0.78125)" xlink:href="#DejaVuSans-6d"/>
      <use transform="translate(220.019531 0.78125)" xlink:href="#DejaVuSans-70"/>
      <use transform="translate(283.496094 0.78125)" xlink:href="#DejaVuSans-65"/>
      <use transform="translate(345.019531 0.78125)" xlink:href="#DejaVuSans-72"/>
      <use transform="translate(386.132812 0.78125)" xlink:href="#DejaVuSans-61"/>
      <use transform="translate(447.412109 0.78125)" xlink:href="#DejaVuSans-74"/>
      <use transform="translate(486.621094 0.78125)" xlink:href="#DejaVuSans-75"/>
      <use transform="translate(550 0.78125)" xlink:href="#DejaVuSans-72"/>
      <use transform="translate(591.113281 0.78125)" xlink:href="#DejaVuSans-65"/>
      <use transform="translate(652.636719 0.78125)" xlink:href="#DejaVuSans-20"/>
      <use transform="translate(684.423828 0.78125)" xlink:href="#DejaVuSans-2f"/>
      <use transform="translate(718.115234 0.78125)" xlink:href="#DejaVuSans-20"/>
      <use transform="translate(764.49707 39.0625)scale(0.7)" xlink:href="#DejaVuSans-2218"/>
      <use transform="translate(824.6875 0.78125)" xlink:href="#DejaVuSans-Oblique-43"/>
     </g>
    </g>
   </g>
   <g id="line2d_25">
    <path clip-path="url(#p267e97fe0f)" d="M 46.965625 221.191219 
L 47.675843 221.133677 
L 48.325484 220.565739 
L 48.986065 219.35528 
L 49.994692 218.257458 
L 91.853505 180.265942 
L 97.868029 174.979506 
L 106.567192 167.412471 
L 107.94042 166.262248 
L 109.947721 164.532144 
L 112.933118 161.993929 
L 117.641039 158.061826 
L 124.317813 152.521545 
L 128.363935 149.269434 
L 129.999467 147.926885 
L 132.357795 146.05309 
L 146.402509 135.111586 
L 164.497355 121.834273 
L 169.530884 118.329241 
L 175.211481 114.445253 
L 195.639402 101.31136 
L 200.33891 98.499918 
L 202.652104 97.105594 
L 205.361625 95.540255 
L 213.696171 90.823028 
L 221.114891 86.841992 
L 224.07552 85.28403 
L 227.804454 83.380744 
L 236.136872 79.28637 
L 253.234868 71.575682 
L 258.230235 69.483908 
L 262.275122 67.868436 
L 265.594139 66.56114 
L 270.323925 64.769191 
L 281.999915 60.608237 
L 287.706882 58.71631 
L 294.726616 56.508997 
L 306.446523 53.101698 
L 323.22477 48.802157 
L 328.88346 47.479145 
L 343.601613 44.382698 
L 359.005498 41.568468 
L 364.062816 40.7392 
L 369.753129 39.846184 
L 381.765625 38.117683 
L 381.765625 38.117683 
" style="fill:none;stroke:#0000ff;stroke-linecap:square;"/>
   </g>
   <g id="line2d_26">
    <path clip-path="url(#p267e97fe0f)" d="M 46.965625 221.191219 
L 47.675843 221.163264 
L 48.325484 220.811672 
L 49.662759 219.092305 
L 52.019525 216.990873 
L 59.395334 210.38207 
L 61.048503 208.860571 
L 67.734007 202.704699 
L 70.430044 200.253155 
L 72.440697 198.404066 
L 78.447867 192.891921 
L 80.81333 190.765298 
L 86.489818 185.6162 
L 88.51565 183.817682 
L 92.180407 180.537521 
L 98.214833 175.223193 
L 100.871455 172.875777 
L 102.235425 171.716817 
L 104.910259 169.390022 
L 125.32425 152.247179 
L 132.357795 146.576373 
L 145.397409 136.390194 
L 150.452598 132.586785 
L 152.435782 131.097725 
L 158.464133 126.657772 
L 163.838493 122.808809 
L 172.185198 116.980725 
L 176.246637 114.246258 
L 178.878814 112.47541 
L 186.968264 107.221805 
L 187.93562 106.600489 
L 194.618116 102.39856 
L 197.99418 100.36789 
L 203.667702 96.980797 
L 209.047852 93.884427 
L 212.72415 91.823432 
L 216.049485 89.989501 
L 219.757865 88.00673 
L 223.752534 85.893357 
L 232.779812 81.336372 
L 236.828633 79.382455 
L 244.175508 75.966652 
L 257.560969 70.179455 
L 272.96385 64.185743 
L 293.738809 57.194967 
L 307.476375 53.191524 
L 317.513001 50.557521 
L 329.874639 47.614691 
L 346.637373 44.143048 
L 360.359425 41.686806 
L 368.724623 40.338954 
L 381.765625 38.449271 
L 381.765625 38.449271 
" style="fill:none;stroke:#ff0000;stroke-linecap:square;"/>
   </g>
   <g id="line2d_27">
    <path clip-path="url(#p267e97fe0f)" d="M 46.965625 221.191219 
L 48.325484 221.105258 
L 48.986065 220.758403 
L 51.008877 219.050611 
L 60.39583 210.701686 
L 63.068034 208.260165 
L 72.084629 199.978357 
L 74.784527 197.519627 
L 78.447867 194.159774 
L 80.81333 192.030906 
L 88.170944 185.378511 
L 110.244048 166.046432 
L 112.623168 164.051119 
L 114.603444 162.367051 
L 133.377931 146.978897 
L 141.40383 140.670242 
L 147.759756 135.784389 
L 170.185462 119.522768 
L 178.238599 114.07155 
L 180.222055 112.731661 
L 182.568131 111.200275 
L 196.305416 102.501757 
L 199.679146 100.484182 
L 201.328795 99.48328 
L 205.70324 96.920456 
L 208.361727 95.383641 
L 228.134745 84.741049 
L 231.817719 82.898702 
L 244.499924 76.887483 
L 249.879222 74.489016 
L 258.230235 70.94574 
L 262.275122 69.317174 
L 266.619205 67.60732 
L 279.661417 62.82222 
L 285.728423 60.768203 
L 290.06309 59.353784 
L 296.395201 57.381862 
L 312.797673 52.745724 
L 317.195516 51.621994 
L 323.536431 50.059752 
L 334.934767 47.474069 
L 341.924922 46.022478 
L 351.314505 44.219492 
L 364.062816 42.018593 
L 370.722443 40.968951 
L 377.107326 40.033267 
L 381.765625 39.38135 
L 381.765625 39.38135 
" style="fill:none;stroke:#008000;stroke-linecap:square;"/>
   </g>
   <g id="line2d_28">
    <path clip-path="url(#p267e97fe0f)" d="M 46.965625 221.191219 
L 48.655916 221.097693 
L 49.324917 220.785119 
L 50.66622 219.729924 
L 56.029219 215.053984 
L 65.044851 206.876459 
L 68.085826 204.103646 
L 75.766115 197.060436 
L 78.129973 194.912778 
L 81.480106 191.864266 
L 89.522687 184.636391 
L 91.853505 182.549827 
L 106.567192 169.681972 
L 108.59611 167.966185 
L 129.999467 150.193561 
L 132.357795 148.317183 
L 143.0631 139.930075 
L 146.081541 137.623756 
L 157.803552 128.91346 
L 173.859453 117.624437 
L 177.570848 115.137504 
L 181.249965 112.699267 
L 190.934138 106.494627 
L 205.996051 97.441661 
L 209.047852 95.712386 
L 212.049775 94.019819 
L 224.753232 87.217652 
L 228.779183 85.180335 
L 237.147906 81.088947 
L 242.513224 78.595755 
L 249.185094 75.60444 
L 253.234868 73.869259 
L 258.909906 71.502821 
L 265.281865 68.980354 
L 270.66273 66.942982 
L 279.661417 63.709673 
L 285.728423 61.668773 
L 289.737465 60.371574 
L 295.070888 58.711068 
L 306.446523 55.408569 
L 320.834913 51.681317 
L 340.941372 47.223592 
L 354.349584 44.696889 
L 361.345768 43.495399 
L 381.765625 40.437893 
L 381.765625 40.437893 
" style="fill:none;stroke:#ffff00;stroke-linecap:square;"/>
   </g>
   <g id="line2d_29">
    <path clip-path="url(#p267e97fe0f)" d="M 46.965625 221.191219 
L 47.675843 221.143385 
L 47.991496 220.952106 
L 48.325484 220.545207 
L 48.986065 219.350485 
L 49.994692 218.255564 
L 73.788174 196.46429 
L 75.766115 194.609641 
L 78.129973 192.421096 
L 83.13905 187.791278 
L 85.175819 185.930513 
L 87.842509 183.47799 
L 117.299113 156.951047 
L 137.711473 139.21436 
L 167.161793 114.763713 
L 170.520666 112.067025 
L 176.873433 107.017192 
L 179.236955 105.186335 
L 182.900252 102.326905 
L 190.286226 96.645449 
L 213.696171 79.438749 
L 218.095854 76.362739 
L 219.400328 75.448124 
L 233.457235 65.893562 
L 235.125837 64.798123 
L 237.507606 63.254737 
L 239.143546 62.168887 
L 241.832514 60.456522 
L 246.846919 57.263823 
L 249.555556 55.592977 
L 253.234868 53.320401 
L 260.904831 48.716578 
L 266.304615 45.5766 
L 269.630903 43.665064 
L 272.66777 41.973558 
L 274.635704 40.856365 
L 277.345465 39.390706 
L 281.009196 37.397418 
L 292.382533 31.464002 
L 296.740392 29.296725 
L 301.429751 27.002284 
L 316.522095 20.05088 
L 322.211284 17.569223 
L 335.913923 11.952532 
L 346.637373 7.888538 
L 361.345768 2.746966 
L 373.170642 -1 
L 373.170642 -1 
" style="fill:none;stroke:#0000ff;stroke-dasharray:3.7,1.6;stroke-dashoffset:0;"/>
   </g>
   <g id="line2d_30">
    <path clip-path="url(#p267e97fe0f)" d="M 46.965625 221.191219 
L 47.675843 221.167345 
L 47.991496 221.06142 
L 48.325484 220.811941 
L 49.662759 219.090129 
L 52.019525 216.988006 
L 58.702322 210.975523 
L 64.079993 206.044445 
L 66.058845 204.194105 
L 69.0857 201.391646 
L 72.084629 198.587926 
L 74.784527 196.088604 
L 78.447867 192.676915 
L 80.460031 190.825872 
L 86.177654 185.559058 
L 90.528532 181.572902 
L 97.521225 175.210038 
L 124.646426 151.026634 
L 135.355853 141.739409 
L 137.074077 140.286652 
L 138.741904 138.858629 
L 146.081541 132.620008 
L 165.830166 116.318821 
L 169.530884 113.344847 
L 175.211481 108.816661 
L 178.238599 106.443023 
L 180.222055 104.864955 
L 182.236001 103.309061 
L 190.286226 97.107319 
L 215.384408 78.670053 
L 218.095854 76.787946 
L 219.400328 75.869626 
L 236.136872 64.535248 
L 240.168033 61.916739 
L 245.849883 58.286093 
L 257.229095 51.260091 
L 275.63521 40.646941 
L 280.349125 38.073091 
L 290.376828 32.794978 
L 306.795955 24.757059 
L 313.812675 21.517467 
L 322.872887 17.54571 
L 338.576684 11.159406 
L 342.622763 9.617856 
L 345.617756 8.490908 
L 361.699797 2.84064 
L 373.750089 -1 
L 373.750089 -1 
" style="fill:none;stroke:#ff0000;stroke-dasharray:3.7,1.6;stroke-dashoffset:0;"/>
   </g>
   <g id="line2d_31">
    <path clip-path="url(#p267e97fe0f)" d="M 46.965625 221.191219 
L 48.325484 221.110508 
L 48.986065 220.757443 
L 51.008877 219.048626 
L 60.39583 210.672132 
L 62.738173 208.532686 
L 68.739207 202.952986 
L 71.083273 200.791899 
L 100.871455 173.38543 
L 102.565775 171.861233 
L 122.971456 153.68045 
L 125.32425 151.623723 
L 132.013327 145.79497 
L 137.074077 141.452955 
L 138.741904 140.023418 
L 146.081541 133.768069 
L 164.497355 118.503794 
L 169.86332 114.168288 
L 175.211481 109.896219 
L 178.238599 107.515436 
L 180.222055 105.932812 
L 182.236001 104.37234 
L 188.954036 99.165041 
L 200.651508 90.335312 
L 203.011156 88.60659 
L 212.375332 81.79436 
L 227.088836 71.492292 
L 228.779183 70.357016 
L 239.143546 63.451122 
L 241.832514 61.724878 
L 247.890768 57.861438 
L 257.560969 51.890299 
L 264.296391 47.897142 
L 266.954622 46.33459 
L 271.963373 43.468591 
L 281.009196 38.460176 
L 294.063497 31.614346 
L 300.429445 28.441112 
L 314.816047 21.67511 
L 319.20621 19.741721 
L 322.211284 18.419903 
L 335.252797 12.998656 
L 356.669214 5.013779 
L 368.078856 1.209287 
L 375.148583 -1 
L 375.148583 -1 
" style="fill:none;stroke:#008000;stroke-dasharray:3.7,1.6;stroke-dashoffset:0;"/>
   </g>
   <g id="line2d_32">
    <path clip-path="url(#p267e97fe0f)" d="M 46.965625 221.191219 
L 48.655916 221.10048 
L 49.324917 220.784851 
L 50.66622 219.727419 
L 55.687608 215.330862 
L 59.395334 212.007454 
L 61.364652 210.191358 
L 63.397896 208.325925 
L 71.773068 200.579075 
L 75.106008 197.463674 
L 80.81333 192.188538 
L 88.843122 184.772762 
L 93.864407 180.180076 
L 118.63083 157.918554 
L 142.387184 137.283005 
L 144.770868 135.274206 
L 146.751489 133.596956 
L 161.821865 121.060015 
L 182.568131 104.462055 
L 204.67126 87.714536 
L 220.085449 76.652942 
L 232.779812 67.961735 
L 236.50936 65.501445 
L 239.143546 63.747198 
L 241.832514 62.017857 
L 248.214435 57.943423 
L 261.249681 49.959552 
L 276.974679 40.910468 
L 280.349125 39.061286 
L 289.374887 34.255615 
L 309.452602 24.350133 
L 313.171166 22.646406 
L 315.813662 21.435604 
L 333.562892 13.854402 
L 337.959049 12.110352 
L 341.924922 10.572474 
L 350.97805 7.19017 
L 366.37727 1.902191 
L 375.600249 -1 
L 375.600249 -1 
" style="fill:none;stroke:#ffff00;stroke-dasharray:3.7,1.6;stroke-dashoffset:0;"/>
   </g>
   <g id="patch_3">
    <path d="M 46.965625 228.439219 
L 46.965625 10.999219 
" style="fill:none;stroke:#000000;stroke-linecap:square;stroke-linejoin:miter;stroke-width:0.8;"/>
   </g>
   <g id="patch_4">
    <path d="M 381.765625 228.439219 
L 381.765625 10.999219 
" style="fill:none;stroke:#000000;stroke-linecap:square;stroke-linejoin:miter;stroke-width:0.8;"/>
   </g>
   <g id="patch_5">
    <path d="M 46.965625 228.439219 
L 381.765625 228.439219 
" style="fill:none;stroke:#000000;stroke-linecap:square;stroke-linejoin:miter;stroke-width:0.8;"/>
   </g>
   <g id="patch_6">
    <path d="M 46.965625 10.999219 
L 381.765625 10.999219 
" style="fill:none;stroke:#000000;stroke-linecap:square;stroke-linejoin:miter;stroke-width:0.8;"/>
   </g>
   <g id="legend_1">
    <g id="patch_7">
     <path d="M 422.245625 151.102344 
L 592.445625 151.102344 
Q 594.445625 151.102344 594.445625 149.102344 
L 594.445625 17.999219 
Q 594.445625 15.999219 592.445625 15.999219 
L 422.245625 15.999219 
Q 420.245625 15.999219 420.245625 17.999219 
L 420.245625 149.102344 
Q 420.245625 151.102344 422.245625 151.102344 
z
" style="fill:#ffffff;opacity:0.8;stroke:#cccccc;stroke-linejoin:miter;"/>
    </g>
    <g id="line2d_33">
     <path d="M 424.245625 24.097656 
L 444.245625 24.097656 
" style="fill:none;stroke:#0000ff;stroke-linecap:square;"/>
    </g>
    <g id="line2d_34"/>
    <g id="text_15">
     <!-- Front, back. exposed -->
     <g transform="translate(452.245625 27.597656)scale(0.1 -0.1)">
      <defs>
       <path d="M 628 4666 
L 3309 4666 
L 3309 4134 
L 1259 4134 
L 1259 2759 
L 3109 2759 
L 3109 2228 
L 1259 2228 
L 1259 0 
L 628 0 
L 628 4666 
z
" id="DejaVuSans-46" transform="scale(0.015625)"/>
       <path d="M 1959 3097 
Q 1497 3097 1228 2736 
Q 959 2375 959 1747 
Q 959 1119 1226 758 
Q 1494 397 1959 397 
Q 2419 397 2687 759 
Q 2956 1122 2956 1747 
Q 2956 2369 2687 2733 
Q 2419 3097 1959 3097 
z
M 1959 3584 
Q 2709 3584 3137 3096 
Q 3566 2609 3566 1747 
Q 3566 888 3137 398 
Q 2709 -91 1959 -91 
Q 1206 -91 779 398 
Q 353 888 353 1747 
Q 353 2609 779 3096 
Q 1206 3584 1959 3584 
z
" id="DejaVuSans-6f" transform="scale(0.015625)"/>
       <path d="M 3513 2113 
L 3513 0 
L 2938 0 
L 2938 2094 
Q 2938 2591 2744 2837 
Q 2550 3084 2163 3084 
Q 1697 3084 1428 2787 
Q 1159 2491 1159 1978 
L 1159 0 
L 581 0 
L 581 3500 
L 1159 3500 
L 1159 2956 
Q 1366 3272 1645 3428 
Q 1925 3584 2291 3584 
Q 2894 3584 3203 3211 
Q 3513 2838 3513 2113 
z
" id="DejaVuSans-6e" transform="scale(0.015625)"/>
       <path d="M 750 794 
L 1409 794 
L 1409 256 
L 897 -744 
L 494 -744 
L 750 256 
L 750 794 
z
" id="DejaVuSans-2c" transform="scale(0.015625)"/>
       <path d="M 3116 1747 
Q 3116 2381 2855 2742 
Q 2594 3103 2138 3103 
Q 1681 3103 1420 2742 
Q 1159 2381 1159 1747 
Q 1159 1113 1420 752 
Q 1681 391 2138 391 
Q 2594 391 2855 752 
Q 3116 1113 3116 1747 
z
M 1159 2969 
Q 1341 3281 1617 3432 
Q 1894 3584 2278 3584 
Q 2916 3584 3314 3078 
Q 3713 2572 3713 1747 
Q 3713 922 3314 415 
Q 2916 -91 2278 -91 
Q 1894 -91 1617 61 
Q 1341 213 1159 525 
L 1159 0 
L 581 0 
L 581 4863 
L 1159 4863 
L 1159 2969 
z
" id="DejaVuSans-62" transform="scale(0.015625)"/>
       <path d="M 3122 3366 
L 3122 2828 
Q 2878 2963 2633 3030 
Q 2388 3097 2138 3097 
Q 1578 3097 1268 2742 
Q 959 2388 959 1747 
Q 959 1106 1268 751 
Q 1578 397 2138 397 
Q 2388 397 2633 464 
Q 2878 531 3122 666 
L 3122 134 
Q 2881 22 2623 -34 
Q 2366 -91 2075 -91 
Q 1284 -91 818 406 
Q 353 903 353 1747 
Q 353 2603 823 3093 
Q 1294 3584 2113 3584 
Q 2378 3584 2631 3529 
Q 2884 3475 3122 3366 
z
" id="DejaVuSans-63" transform="scale(0.015625)"/>
       <path d="M 581 4863 
L 1159 4863 
L 1159 1991 
L 2875 3500 
L 3609 3500 
L 1753 1863 
L 3688 0 
L 2938 0 
L 1159 1709 
L 1159 0 
L 581 0 
L 581 4863 
z
" id="DejaVuSans-6b" transform="scale(0.015625)"/>
       <path d="M 684 794 
L 1344 794 
L 1344 0 
L 684 0 
L 684 794 
z
" id="DejaVuSans-2e" transform="scale(0.015625)"/>
       <path d="M 3513 3500 
L 2247 1797 
L 3578 0 
L 2900 0 
L 1881 1375 
L 863 0 
L 184 0 
L 1544 1831 
L 300 3500 
L 978 3500 
L 1906 2253 
L 2834 3500 
L 3513 3500 
z
" id="DejaVuSans-78" transform="scale(0.015625)"/>
       <path d="M 2906 2969 
L 2906 4863 
L 3481 4863 
L 3481 0 
L 2906 0 
L 2906 525 
Q 2725 213 2448 61 
Q 2172 -91 1784 -91 
Q 1150 -91 751 415 
Q 353 922 353 1747 
Q 353 2572 751 3078 
Q 1150 3584 1784 3584 
Q 2172 3584 2448 3432 
Q 2725 3281 2906 2969 
z
M 947 1747 
Q 947 1113 1208 752 
Q 1469 391 1925 391 
Q 2381 391 2643 752 
Q 2906 1113 2906 1747 
Q 2906 2381 2643 2742 
Q 2381 3103 1925 3103 
Q 1469 3103 1208 2742 
Q 947 2381 947 1747 
z
" id="DejaVuSans-64" transform="scale(0.015625)"/>
      </defs>
      <use xlink:href="#DejaVuSans-46"/>
      <use x="50.269531" xlink:href="#DejaVuSans-72"/>
      <use x="89.132812" xlink:href="#DejaVuSans-6f"/>
      <use x="150.314453" xlink:href="#DejaVuSans-6e"/>
      <use x="213.693359" xlink:href="#DejaVuSans-74"/>
      <use x="252.902344" xlink:href="#DejaVuSans-2c"/>
      <use x="284.689453" xlink:href="#DejaVuSans-20"/>
      <use x="316.476562" xlink:href="#DejaVuSans-62"/>
      <use x="379.953125" xlink:href="#DejaVuSans-61"/>
      <use x="441.232422" xlink:href="#DejaVuSans-63"/>
      <use x="496.212891" xlink:href="#DejaVuSans-6b"/>
      <use x="554.123047" xlink:href="#DejaVuSans-2e"/>
      <use x="585.910156" xlink:href="#DejaVuSans-20"/>
      <use x="617.697266" xlink:href="#DejaVuSans-65"/>
      <use x="677.470703" xlink:href="#DejaVuSans-78"/>
      <use x="736.650391" xlink:href="#DejaVuSans-70"/>
      <use x="800.126953" xlink:href="#DejaVuSans-6f"/>
      <use x="861.308594" xlink:href="#DejaVuSans-73"/>
      <use x="913.408203" xlink:href="#DejaVuSans-65"/>
      <use x="974.931641" xlink:href="#DejaVuSans-64"/>
     </g>
    </g>
    <g id="line2d_35">
     <path d="M 424.245625 38.775781 
L 444.245625 38.775781 
" style="fill:none;stroke:#ff0000;stroke-linecap:square;"/>
    </g>
    <g id="line2d_36"/>
    <g id="text_16">
     <!-- d = 2.5 mm, back. exposed -->
     <g transform="translate(452.245625 42.275781)scale(0.1 -0.1)">
      <defs>
       <path d="M 678 2906 
L 4684 2906 
L 4684 2381 
L 678 2381 
L 678 2906 
z
M 678 1631 
L 4684 1631 
L 4684 1100 
L 678 1100 
L 678 1631 
z
" id="DejaVuSans-3d" transform="scale(0.015625)"/>
      </defs>
      <use xlink:href="#DejaVuSans-64"/>
      <use x="63.476562" xlink:href="#DejaVuSans-20"/>
      <use x="95.263672" xlink:href="#DejaVuSans-3d"/>
      <use x="179.052734" xlink:href="#DejaVuSans-20"/>
      <use x="210.839844" xlink:href="#DejaVuSans-32"/>
      <use x="274.462891" xlink:href="#DejaVuSans-2e"/>
      <use x="306.25" xlink:href="#DejaVuSans-35"/>
      <use x="369.873047" xlink:href="#DejaVuSans-20"/>
      <use x="401.660156" xlink:href="#DejaVuSans-6d"/>
      <use x="499.072266" xlink:href="#DejaVuSans-6d"/>
      <use x="596.484375" xlink:href="#DejaVuSans-2c"/>
      <use x="628.271484" xlink:href="#DejaVuSans-20"/>
      <use x="660.058594" xlink:href="#DejaVuSans-62"/>
      <use x="723.535156" xlink:href="#DejaVuSans-61"/>
      <use x="784.814453" xlink:href="#DejaVuSans-63"/>
      <use x="839.794922" xlink:href="#DejaVuSans-6b"/>
      <use x="897.705078" xlink:href="#DejaVuSans-2e"/>
      <use x="929.492188" xlink:href="#DejaVuSans-20"/>
      <use x="961.279297" xlink:href="#DejaVuSans-65"/>
      <use x="1021.052734" xlink:href="#DejaVuSans-78"/>
      <use x="1080.232422" xlink:href="#DejaVuSans-70"/>
      <use x="1143.708984" xlink:href="#DejaVuSans-6f"/>
      <use x="1204.890625" xlink:href="#DejaVuSans-73"/>
      <use x="1256.990234" xlink:href="#DejaVuSans-65"/>
      <use x="1318.513672" xlink:href="#DejaVuSans-64"/>
     </g>
    </g>
    <g id="line2d_37">
     <path d="M 424.245625 53.453906 
L 444.245625 53.453906 
" style="fill:none;stroke:#008000;stroke-linecap:square;"/>
    </g>
    <g id="line2d_38"/>
    <g id="text_17">
     <!-- d = 7.5 mm, back. exposed -->
     <g transform="translate(452.245625 56.953906)scale(0.1 -0.1)">
      <defs>
       <path d="M 525 4666 
L 3525 4666 
L 3525 4397 
L 1831 0 
L 1172 0 
L 2766 4134 
L 525 4134 
L 525 4666 
z
" id="DejaVuSans-37" transform="scale(0.015625)"/>
      </defs>
      <use xlink:href="#DejaVuSans-64"/>
      <use x="63.476562" xlink:href="#DejaVuSans-20"/>
      <use x="95.263672" xlink:href="#DejaVuSans-3d"/>
      <use x="179.052734" xlink:href="#DejaVuSans-20"/>
      <use x="210.839844" xlink:href="#DejaVuSans-37"/>
      <use x="274.462891" xlink:href="#DejaVuSans-2e"/>
      <use x="306.25" xlink:href="#DejaVuSans-35"/>
      <use x="369.873047" xlink:href="#DejaVuSans-20"/>
      <use x="401.660156" xlink:href="#DejaVuSans-6d"/>
      <use x="499.072266" xlink:href="#DejaVuSans-6d"/>
      <use x="596.484375" xlink:href="#DejaVuSans-2c"/>
      <use x="628.271484" xlink:href="#DejaVuSans-20"/>
      <use x="660.058594" xlink:href="#DejaVuSans-62"/>
      <use x="723.535156" xlink:href="#DejaVuSans-61"/>
      <use x="784.814453" xlink:href="#DejaVuSans-63"/>
      <use x="839.794922" xlink:href="#DejaVuSans-6b"/>
      <use x="897.705078" xlink:href="#DejaVuSans-2e"/>
      <use x="929.492188" xlink:href="#DejaVuSans-20"/>
      <use x="961.279297" xlink:href="#DejaVuSans-65"/>
      <use x="1021.052734" xlink:href="#DejaVuSans-78"/>
      <use x="1080.232422" xlink:href="#DejaVuSans-70"/>
      <use x="1143.708984" xlink:href="#DejaVuSans-6f"/>
      <use x="1204.890625" xlink:href="#DejaVuSans-73"/>
      <use x="1256.990234" xlink:href="#DejaVuSans-65"/>
      <use x="1318.513672" xlink:href="#DejaVuSans-64"/>
     </g>
    </g>
    <g id="line2d_39">
     <path d="M 424.245625 68.132031 
L 444.245625 68.132031 
" style="fill:none;stroke:#ffff00;stroke-linecap:square;"/>
    </g>
    <g id="line2d_40"/>
    <g id="text_18">
     <!-- Back, back. exposed -->
     <g transform="translate(452.245625 71.632031)scale(0.1 -0.1)">
      <defs>
       <path d="M 1259 2228 
L 1259 519 
L 2272 519 
Q 2781 519 3026 730 
Q 3272 941 3272 1375 
Q 3272 1813 3026 2020 
Q 2781 2228 2272 2228 
L 1259 2228 
z
M 1259 4147 
L 1259 2741 
L 2194 2741 
Q 2656 2741 2882 2914 
Q 3109 3088 3109 3444 
Q 3109 3797 2882 3972 
Q 2656 4147 2194 4147 
L 1259 4147 
z
M 628 4666 
L 2241 4666 
Q 2963 4666 3353 4366 
Q 3744 4066 3744 3513 
Q 3744 3084 3544 2831 
Q 3344 2578 2956 2516 
Q 3422 2416 3680 2098 
Q 3938 1781 3938 1306 
Q 3938 681 3513 340 
Q 3088 0 2303 0 
L 628 0 
L 628 4666 
z
" id="DejaVuSans-42" transform="scale(0.015625)"/>
      </defs>
      <use xlink:href="#DejaVuSans-42"/>
      <use x="68.603516" xlink:href="#DejaVuSans-61"/>
      <use x="129.882812" xlink:href="#DejaVuSans-63"/>
      <use x="184.863281" xlink:href="#DejaVuSans-6b"/>
      <use x="242.773438" xlink:href="#DejaVuSans-2c"/>
      <use x="274.560547" xlink:href="#DejaVuSans-20"/>
      <use x="306.347656" xlink:href="#DejaVuSans-62"/>
      <use x="369.824219" xlink:href="#DejaVuSans-61"/>
      <use x="431.103516" xlink:href="#DejaVuSans-63"/>
      <use x="486.083984" xlink:href="#DejaVuSans-6b"/>
      <use x="543.994141" xlink:href="#DejaVuSans-2e"/>
      <use x="575.78125" xlink:href="#DejaVuSans-20"/>
      <use x="607.568359" xlink:href="#DejaVuSans-65"/>
      <use x="667.341797" xlink:href="#DejaVuSans-78"/>
      <use x="726.521484" xlink:href="#DejaVuSans-70"/>
      <use x="789.998047" xlink:href="#DejaVuSans-6f"/>
      <use x="851.179688" xlink:href="#DejaVuSans-73"/>
      <use x="903.279297" xlink:href="#DejaVuSans-65"/>
      <use x="964.802734" xlink:href="#DejaVuSans-64"/>
     </g>
    </g>
    <g id="line2d_41">
     <path d="M 424.245625 82.810156 
L 444.245625 82.810156 
" style="fill:none;stroke:#0000ff;stroke-dasharray:3.7,1.6;stroke-dashoffset:0;"/>
    </g>
    <g id="line2d_42"/>
    <g id="text_19">
     <!-- Front, back. insulated -->
     <g transform="translate(452.245625 86.310156)scale(0.1 -0.1)">
      <defs>
       <path d="M 603 4863 
L 1178 4863 
L 1178 0 
L 603 0 
L 603 4863 
z
" id="DejaVuSans-6c" transform="scale(0.015625)"/>
      </defs>
      <use xlink:href="#DejaVuSans-46"/>
      <use x="50.269531" xlink:href="#DejaVuSans-72"/>
      <use x="89.132812" xlink:href="#DejaVuSans-6f"/>
      <use x="150.314453" xlink:href="#DejaVuSans-6e"/>
      <use x="213.693359" xlink:href="#DejaVuSans-74"/>
      <use x="252.902344" xlink:href="#DejaVuSans-2c"/>
      <use x="284.689453" xlink:href="#DejaVuSans-20"/>
      <use x="316.476562" xlink:href="#DejaVuSans-62"/>
      <use x="379.953125" xlink:href="#DejaVuSans-61"/>
      <use x="441.232422" xlink:href="#DejaVuSans-63"/>
      <use x="496.212891" xlink:href="#DejaVuSans-6b"/>
      <use x="554.123047" xlink:href="#DejaVuSans-2e"/>
      <use x="585.910156" xlink:href="#DejaVuSans-20"/>
      <use x="617.697266" xlink:href="#DejaVuSans-69"/>
      <use x="645.480469" xlink:href="#DejaVuSans-6e"/>
      <use x="708.859375" xlink:href="#DejaVuSans-73"/>
      <use x="760.958984" xlink:href="#DejaVuSans-75"/>
      <use x="824.337891" xlink:href="#DejaVuSans-6c"/>
      <use x="852.121094" xlink:href="#DejaVuSans-61"/>
      <use x="913.400391" xlink:href="#DejaVuSans-74"/>
      <use x="952.609375" xlink:href="#DejaVuSans-65"/>
      <use x="1014.132812" xlink:href="#DejaVuSans-64"/>
     </g>
    </g>
    <g id="line2d_43">
     <path d="M 424.245625 97.488281 
L 444.245625 97.488281 
" style="fill:none;stroke:#ff0000;stroke-dasharray:3.7,1.6;stroke-dashoffset:0;"/>
    </g>
    <g id="line2d_44"/>
    <g id="text_20">
     <!-- 2.5 mm, back. insulated -->
     <g transform="translate(452.245625 100.988281)scale(0.1 -0.1)">
      <use xlink:href="#DejaVuSans-32"/>
      <use x="63.623047" xlink:href="#DejaVuSans-2e"/>
      <use x="95.410156" xlink:href="#DejaVuSans-35"/>
      <use x="159.033203" xlink:href="#DejaVuSans-20"/>
      <use x="190.820312" xlink:href="#DejaVuSans-6d"/>
      <use x="288.232422" xlink:href="#DejaVuSans-6d"/>
      <use x="385.644531" xlink:href="#DejaVuSans-2c"/>
      <use x="417.431641" xlink:href="#DejaVuSans-20"/>
      <use x="449.21875" xlink:href="#DejaVuSans-62"/>
      <use x="512.695312" xlink:href="#DejaVuSans-61"/>
      <use x="573.974609" xlink:href="#DejaVuSans-63"/>
      <use x="628.955078" xlink:href="#DejaVuSans-6b"/>
      <use x="686.865234" xlink:href="#DejaVuSans-2e"/>
      <use x="718.652344" xlink:href="#DejaVuSans-20"/>
      <use x="750.439453" xlink:href="#DejaVuSans-69"/>
      <use x="778.222656" xlink:href="#DejaVuSans-6e"/>
      <use x="841.601562" xlink:href="#DejaVuSans-73"/>
      <use x="893.701172" xlink:href="#DejaVuSans-75"/>
      <use x="957.080078" xlink:href="#DejaVuSans-6c"/>
      <use x="984.863281" xlink:href="#DejaVuSans-61"/>
      <use x="1046.142578" xlink:href="#DejaVuSans-74"/>
      <use x="1085.351562" xlink:href="#DejaVuSans-65"/>
      <use x="1146.875" xlink:href="#DejaVuSans-64"/>
     </g>
    </g>
    <g id="line2d_45">
     <path d="M 424.245625 112.166406 
L 444.245625 112.166406 
" style="fill:none;stroke:#008000;stroke-dasharray:3.7,1.6;stroke-dashoffset:0;"/>
    </g>
    <g id="line2d_46"/>
    <g id="text_21">
     <!-- 7.5 mm, back. insulated -->
     <g transform="translate(452.245625 115.666406)scale(0.1 -0.1)">
      <use xlink:href="#DejaVuSans-37"/>
      <use x="63.623047" xlink:href="#DejaVuSans-2e"/>
      <use x="95.410156" xlink:href="#DejaVuSans-35"/>
      <use x="159.033203" xlink:href="#DejaVuSans-20"/>
      <use x="190.820312" xlink:href="#DejaVuSans-6d"/>
      <use x="288.232422" xlink:href="#DejaVuSans-6d"/>
      <use x="385.644531" xlink:href="#DejaVuSans-2c"/>
      <use x="417.431641" xlink:href="#DejaVuSans-20"/>
      <use x="449.21875" xlink:href="#DejaVuSans-62"/>
      <use x="512.695312" xlink:href="#DejaVuSans-61"/>
      <use x="573.974609" xlink:href="#DejaVuSans-63"/>
      <use x="628.955078" xlink:href="#DejaVuSans-6b"/>
      <use x="686.865234" xlink:href="#DejaVuSans-2e"/>
      <use x="718.652344" xlink:href="#DejaVuSans-20"/>
      <use x="750.439453" xlink:href="#DejaVuSans-69"/>
      <use x="778.222656" xlink:href="#DejaVuSans-6e"/>
      <use x="841.601562" xlink:href="#DejaVuSans-73"/>
      <use x="893.701172" xlink:href="#DejaVuSans-75"/>
      <use x="957.080078" xlink:href="#DejaVuSans-6c"/>
      <use x="984.863281" xlink:href="#DejaVuSans-61"/>
      <use x="1046.142578" xlink:href="#DejaVuSans-74"/>
      <use x="1085.351562" xlink:href="#DejaVuSans-65"/>
      <use x="1146.875" xlink:href="#DejaVuSans-64"/>
     </g>
    </g>
    <g id="line2d_47">
     <path d="M 424.245625 126.844531 
L 444.245625 126.844531 
" style="fill:none;stroke:#ffff00;stroke-dasharray:3.7,1.6;stroke-dashoffset:0;"/>
    </g>
    <g id="line2d_48"/>
    <g id="text_22">
     <!-- Back, back. insulated -->
     <g transform="translate(452.245625 130.344531)scale(0.1 -0.1)">
      <use xlink:href="#DejaVuSans-42"/>
      <use x="68.603516" xlink:href="#DejaVuSans-61"/>
      <use x="129.882812" xlink:href="#DejaVuSans-63"/>
      <use x="184.863281" xlink:href="#DejaVuSans-6b"/>
      <use x="242.773438" xlink:href="#DejaVuSans-2c"/>
      <use x="274.560547" xlink:href="#DejaVuSans-20"/>
      <use x="306.347656" xlink:href="#DejaVuSans-62"/>
      <use x="369.824219" xlink:href="#DejaVuSans-61"/>
      <use x="431.103516" xlink:href="#DejaVuSans-63"/>
      <use x="486.083984" xlink:href="#DejaVuSans-6b"/>
      <use x="543.994141" xlink:href="#DejaVuSans-2e"/>
      <use x="575.78125" xlink:href="#DejaVuSans-20"/>
      <use x="607.568359" xlink:href="#DejaVuSans-69"/>
      <use x="635.351562" xlink:href="#DejaVuSans-6e"/>
      <use x="698.730469" xlink:href="#DejaVuSans-73"/>
      <use x="750.830078" xlink:href="#DejaVuSans-75"/>
      <use x="814.208984" xlink:href="#DejaVuSans-6c"/>
      <use x="841.992188" xlink:href="#DejaVuSans-61"/>
      <use x="903.271484" xlink:href="#DejaVuSans-74"/>
      <use x="942.480469" xlink:href="#DejaVuSans-65"/>
      <use x="1004.003906" xlink:href="#DejaVuSans-64"/>
     </g>
    </g>
    <g id="line2d_49">
     <path d="M 424.245625 141.522656 
L 444.245625 141.522656 
" style="fill:none;stroke:#800080;stroke-linecap:square;"/>
    </g>
    <g id="line2d_50"/>
    <g id="text_23">
     <!-- rel. Error -->
     <g transform="translate(452.245625 145.022656)scale(0.1 -0.1)">
      <defs>
       <path d="M 628 4666 
L 3578 4666 
L 3578 4134 
L 1259 4134 
L 1259 2753 
L 3481 2753 
L 3481 2222 
L 1259 2222 
L 1259 531 
L 3634 531 
L 3634 0 
L 628 0 
L 628 4666 
z
" id="DejaVuSans-45" transform="scale(0.015625)"/>
      </defs>
      <use xlink:href="#DejaVuSans-72"/>
      <use x="38.863281" xlink:href="#DejaVuSans-65"/>
      <use x="100.386719" xlink:href="#DejaVuSans-6c"/>
      <use x="128.169922" xlink:href="#DejaVuSans-2e"/>
      <use x="159.957031" xlink:href="#DejaVuSans-20"/>
      <use x="191.744141" xlink:href="#DejaVuSans-45"/>
      <use x="254.927734" xlink:href="#DejaVuSans-72"/>
      <use x="294.291016" xlink:href="#DejaVuSans-72"/>
      <use x="333.154297" xlink:href="#DejaVuSans-6f"/>
      <use x="394.335938" xlink:href="#DejaVuSans-72"/>
     </g>
    </g>
   </g>
  </g>
  <g id="axes_2">
   <g id="matplotlib.axis_3">
    <g id="ytick_6">
     <g id="line2d_51">
      <path clip-path="url(#p267e97fe0f)" d="M 46.965625 228.439219 
L 381.765625 228.439219 
" style="fill:none;stroke:#b0b0b0;stroke-dasharray:2.96,1.28;stroke-dashoffset:0;stroke-opacity:0.5;stroke-width:0.8;"/>
     </g>
     <g id="line2d_52">
      <defs>
       <path d="M 0 0 
L 3.5 0 
" id="mb97f4d5637" style="stroke:#000000;stroke-width:0.8;"/>
      </defs>
      <g>
       <use style="stroke:#000000;stroke-width:0.8;" x="381.765625" xlink:href="#mb97f4d5637" y="228.439219"/>
      </g>
     </g>
     <g id="text_24">
      <!-- 0 -->
      <g transform="translate(388.765625 232.238437)scale(0.1 -0.1)">
       <use xlink:href="#DejaVuSans-30"/>
      </g>
     </g>
    </g>
    <g id="ytick_7">
     <g id="line2d_53">
      <path clip-path="url(#p267e97fe0f)" d="M 46.965625 174.079219 
L 381.765625 174.079219 
" style="fill:none;stroke:#b0b0b0;stroke-dasharray:2.96,1.28;stroke-dashoffset:0;stroke-opacity:0.5;stroke-width:0.8;"/>
     </g>
     <g id="line2d_54">
      <g>
       <use style="stroke:#000000;stroke-width:0.8;" x="381.765625" xlink:href="#mb97f4d5637" y="174.079219"/>
      </g>
     </g>
     <g id="text_25">
      <!-- 5 -->
      <g transform="translate(388.765625 177.878437)scale(0.1 -0.1)">
       <use xlink:href="#DejaVuSans-35"/>
      </g>
     </g>
    </g>
    <g id="ytick_8">
     <g id="line2d_55">
      <path clip-path="url(#p267e97fe0f)" d="M 46.965625 119.719219 
L 381.765625 119.719219 
" style="fill:none;stroke:#b0b0b0;stroke-dasharray:2.96,1.28;stroke-dashoffset:0;stroke-opacity:0.5;stroke-width:0.8;"/>
     </g>
     <g id="line2d_56">
      <g>
       <use style="stroke:#000000;stroke-width:0.8;" x="381.765625" xlink:href="#mb97f4d5637" y="119.719219"/>
      </g>
     </g>
     <g id="text_26">
      <!-- 10 -->
      <g transform="translate(388.765625 123.518437)scale(0.1 -0.1)">
       <use xlink:href="#DejaVuSans-31"/>
       <use x="63.623047" xlink:href="#DejaVuSans-30"/>
      </g>
     </g>
    </g>
    <g id="ytick_9">
     <g id="line2d_57">
      <path clip-path="url(#p267e97fe0f)" d="M 46.965625 65.359219 
L 381.765625 65.359219 
" style="fill:none;stroke:#b0b0b0;stroke-dasharray:2.96,1.28;stroke-dashoffset:0;stroke-opacity:0.5;stroke-width:0.8;"/>
     </g>
     <g id="line2d_58">
      <g>
       <use style="stroke:#000000;stroke-width:0.8;" x="381.765625" xlink:href="#mb97f4d5637" y="65.359219"/>
      </g>
     </g>
     <g id="text_27">
      <!-- 15 -->
      <g transform="translate(388.765625 69.158437)scale(0.1 -0.1)">
       <use xlink:href="#DejaVuSans-31"/>
       <use x="63.623047" xlink:href="#DejaVuSans-35"/>
      </g>
     </g>
    </g>
    <g id="ytick_10">
     <g id="line2d_59">
      <path clip-path="url(#p267e97fe0f)" d="M 46.965625 10.999219 
L 381.765625 10.999219 
" style="fill:none;stroke:#b0b0b0;stroke-dasharray:2.96,1.28;stroke-dashoffset:0;stroke-opacity:0.5;stroke-width:0.8;"/>
     </g>
     <g id="line2d_60">
      <g>
       <use style="stroke:#000000;stroke-width:0.8;" x="381.765625" xlink:href="#mb97f4d5637" y="10.999219"/>
      </g>
     </g>
     <g id="text_28">
      <!-- 20 -->
      <g transform="translate(388.765625 14.798437)scale(0.1 -0.1)">
       <use xlink:href="#DejaVuSans-32"/>
       <use x="63.623047" xlink:href="#DejaVuSans-30"/>
      </g>
     </g>
    </g>
    <g id="text_29">
     <!-- Rel. Error / % -->
     <g transform="translate(413.089063 152.410625)rotate(-90)scale(0.1 -0.1)">
      <defs>
       <path d="M 2841 2188 
Q 3044 2119 3236 1894 
Q 3428 1669 3622 1275 
L 4263 0 
L 3584 0 
L 2988 1197 
Q 2756 1666 2539 1819 
Q 2322 1972 1947 1972 
L 1259 1972 
L 1259 0 
L 628 0 
L 628 4666 
L 2053 4666 
Q 2853 4666 3247 4331 
Q 3641 3997 3641 3322 
Q 3641 2881 3436 2590 
Q 3231 2300 2841 2188 
z
M 1259 4147 
L 1259 2491 
L 2053 2491 
Q 2509 2491 2742 2702 
Q 2975 2913 2975 3322 
Q 2975 3731 2742 3939 
Q 2509 4147 2053 4147 
L 1259 4147 
z
" id="DejaVuSans-52" transform="scale(0.015625)"/>
       <path d="M 4653 2053 
Q 4381 2053 4226 1822 
Q 4072 1591 4072 1178 
Q 4072 772 4226 539 
Q 4381 306 4653 306 
Q 4919 306 5073 539 
Q 5228 772 5228 1178 
Q 5228 1588 5073 1820 
Q 4919 2053 4653 2053 
z
M 4653 2450 
Q 5147 2450 5437 2106 
Q 5728 1763 5728 1178 
Q 5728 594 5436 251 
Q 5144 -91 4653 -91 
Q 4153 -91 3862 251 
Q 3572 594 3572 1178 
Q 3572 1766 3864 2108 
Q 4156 2450 4653 2450 
z
M 1428 4353 
Q 1159 4353 1004 4120 
Q 850 3888 850 3481 
Q 850 3069 1003 2837 
Q 1156 2606 1428 2606 
Q 1700 2606 1854 2837 
Q 2009 3069 2009 3481 
Q 2009 3884 1853 4118 
Q 1697 4353 1428 4353 
z
M 4250 4750 
L 4750 4750 
L 1831 -91 
L 1331 -91 
L 4250 4750 
z
M 1428 4750 
Q 1922 4750 2215 4408 
Q 2509 4066 2509 3481 
Q 2509 2891 2217 2550 
Q 1925 2209 1428 2209 
Q 931 2209 642 2551 
Q 353 2894 353 3481 
Q 353 4063 643 4406 
Q 934 4750 1428 4750 
z
" id="DejaVuSans-25" transform="scale(0.015625)"/>
      </defs>
      <use xlink:href="#DejaVuSans-52"/>
      <use x="64.982422" xlink:href="#DejaVuSans-65"/>
      <use x="126.505859" xlink:href="#DejaVuSans-6c"/>
      <use x="154.289062" xlink:href="#DejaVuSans-2e"/>
      <use x="186.076172" xlink:href="#DejaVuSans-20"/>
      <use x="217.863281" xlink:href="#DejaVuSans-45"/>
      <use x="281.046875" xlink:href="#DejaVuSans-72"/>
      <use x="320.410156" xlink:href="#DejaVuSans-72"/>
      <use x="359.273438" xlink:href="#DejaVuSans-6f"/>
      <use x="420.455078" xlink:href="#DejaVuSans-72"/>
      <use x="461.568359" xlink:href="#DejaVuSans-20"/>
      <use x="493.355469" xlink:href="#DejaVuSans-2f"/>
      <use x="527.046875" xlink:href="#DejaVuSans-20"/>
      <use x="558.833984" xlink:href="#DejaVuSans-25"/>
     </g>
    </g>
   </g>
   <g id="line2d_61">
    <path clip-path="url(#p267e97fe0f)" d="M 46.965625 228.439219 
L 47.360191 228.564813 
L 47.675843 229.885802 
L 47.991496 232.750204 
L 48.325484 225.611538 
L 48.655916 227.296196 
L 48.986065 227.865719 
L 49.324917 228.109874 
L 49.994692 228.237022 
L 51.682395 228.275498 
L 52.019525 228.12098 
L 52.348499 228.194396 
L 52.677473 228.145745 
L 52.99736 227.891255 
L 53.363146 228.056659 
L 54.699126 227.577422 
L 55.373172 227.835698 
L 56.353749 227.642723 
L 56.682549 226.823006 
L 57.71592 227.537572 
L 58.702322 227.257367 
L 59.036184 226.88826 
L 59.395334 226.682436 
L 60.057377 227.137581 
L 60.69459 226.540791 
L 61.048503 226.43482 
L 61.745332 226.779936 
L 62.037482 226.956335 
L 62.378323 226.90418 
L 62.738173 226.693955 
L 63.068034 226.680587 
L 63.397896 226.519099 
L 63.722673 226.656156 
L 64.079993 226.519251 
L 64.380562 226.24305 
L 65.044851 225.431125 
L 65.409264 225.833188 
L 65.728124 225.967671 
L 66.058845 225.764126 
L 66.739369 225.743764 
L 67.094334 225.22446 
L 67.41417 225.175377 
L 68.085826 225.419524 
L 68.739207 224.936744 
L 69.0857 224.794317 
L 69.409229 224.953255 
L 70.072313 224.264026 
L 70.430044 224.240997 
L 70.740707 224.543463 
L 71.083273 224.533321 
L 71.421044 224.368706 
L 72.084629 223.926993 
L 72.440697 223.895255 
L 72.783415 223.460291 
L 73.423781 223.579361 
L 73.788174 223.533167 
L 74.106493 223.207147 
L 75.106008 222.882459 
L 75.766115 222.820264 
L 76.13339 223.058415 
L 76.438391 223.003462 
L 76.794225 222.747954 
L 77.433203 221.929923 
L 77.794652 221.822482 
L 78.447867 222.071728 
L 78.81408 222.006756 
L 79.462322 221.608706 
L 79.786487 221.434498 
L 80.138666 221.555022 
L 80.460031 221.216716 
L 81.155267 221.267635 
L 81.480106 220.858254 
L 81.809217 220.906331 
L 82.123695 221.118383 
L 82.829914 221.032613 
L 83.13905 221.073243 
L 83.801484 220.705049 
L 84.487864 220.402167 
L 85.175819 220.022117 
L 85.846576 220.242182 
L 86.489818 219.52779 
L 87.166164 219.436645 
L 87.842509 219.089745 
L 88.51565 219.151639 
L 88.843122 219.046504 
L 89.824684 218.423393 
L 90.18148 218.322828 
L 90.528532 218.423808 
L 90.85654 218.253075 
L 91.188862 218.21466 
L 91.521183 218.367122 
L 91.853505 218.208897 
L 92.533657 217.695125 
L 93.173693 217.960499 
L 94.191471 217.125908 
L 94.51736 217.027789 
L 95.21858 217.167573 
L 95.888456 216.579022 
L 96.189899 216.382783 
L 96.558331 216.38985 
L 97.189925 216.017883 
L 98.531293 215.683641 
L 98.865091 215.502388 
L 99.556797 214.908325 
L 100.232062 214.809578 
L 100.569696 214.877681 
L 100.871455 214.643649 
L 101.544715 214.010592 
L 101.874086 213.973749 
L 102.235425 214.136661 
L 104.221678 212.945016 
L 105.246369 212.705614 
L 105.558818 212.3493 
L 106.92297 211.80881 
L 107.573598 211.73528 
L 108.949173 211.055002 
L 111.281192 210.086867 
L 111.923237 209.617514 
L 112.623168 209.390674 
L 113.265197 209.237338 
L 113.612793 209.206626 
L 114.268883 208.732073 
L 114.938005 208.571608 
L 115.635807 208.080248 
L 116.319267 207.727902 
L 116.649396 207.517788 
L 117.299113 207.433746 
L 117.987468 206.853591 
L 118.63083 206.496634 
L 121.639522 205.223865 
L 121.980277 205.208089 
L 122.644068 204.792803 
L 123.339755 204.420048 
L 124.002712 204.142205 
L 124.317813 203.99823 
L 125.32425 203.272669 
L 125.998854 202.914417 
L 126.677452 202.477445 
L 127.339311 202.299229 
L 128.363935 201.618829 
L 128.678474 201.52448 
L 129.377413 201.170844 
L 129.999467 200.837393 
L 130.673339 200.490403 
L 131.373155 200.320616 
L 133.029394 199.218337 
L 134.032629 198.738427 
L 134.393436 198.685754 
L 138.059585 196.423616 
L 138.383192 196.185932 
L 139.075515 195.913729 
L 140.379232 195.075127 
L 140.72077 194.995275 
L 141.40383 194.548262 
L 141.74536 194.258438 
L 142.387184 193.943251 
L 144.418329 192.77931 
L 149.792792 189.634461 
L 150.096773 189.361582 
L 151.46789 188.705841 
L 154.113154 186.76449 
L 154.771641 186.468432 
L 159.830823 183.269224 
L 160.144817 183.007745 
L 160.511141 182.899686 
L 161.821865 182.168702 
L 162.478675 181.719903 
L 163.171509 181.15842 
L 164.172496 180.623237 
L 165.830166 179.43828 
L 167.542404 178.369459 
L 168.206161 177.934284 
L 168.51251 177.79215 
L 169.530884 176.976716 
L 173.195458 174.547671 
L 176.246637 172.441746 
L 177.242924 171.681321 
L 179.236955 170.399798 
L 180.222055 169.653842 
L 195.998029 158.511368 
L 196.988577 157.770363 
L 209.348035 148.63841 
L 210.715994 147.637419 
L 219.757865 140.766497 
L 220.752756 139.980265 
L 223.106581 138.192907 
L 225.116389 136.620485 
L 233.457235 130.251064 
L 234.490816 129.543228 
L 238.509138 126.393282 
L 240.486012 124.886575 
L 242.172869 123.536305 
L 248.214435 118.956202 
L 252.201747 115.870706 
L 255.551672 113.33577 
L 258.230235 111.343906 
L 260.578201 109.555252 
L 262.596694 108.060956 
L 279.344017 95.63246 
L 292.382533 86.206326 
L 293.044681 85.762612 
L 297.746522 82.486391 
L 299.415209 81.313876 
L 303.437209 78.607882 
L 304.795223 77.649671 
L 307.153304 76.061987 
L 309.452602 74.462845 
L 310.811041 73.596943 
L 324.537317 64.681512 
L 338.576684 56.156222 
L 340.285661 55.164438 
L 342.93187 53.557406 
L 344.274149 52.81186 
L 346.285319 51.637686 
L 357.006418 45.652475 
L 359.718665 44.176872 
L 362.683585 42.624917 
L 364.359765 41.726272 
L 369.753129 39.016795 
L 372.42311 37.69962 
L 374.430398 36.677571 
L 381.765625 33.133069 
L 381.765625 33.133069 
" style="fill:none;stroke:#800080;stroke-linecap:square;"/>
   </g>
   <g id="patch_8">
    <path d="M 46.965625 228.439219 
L 46.965625 10.999219 
" style="fill:none;stroke:#000000;stroke-linecap:square;stroke-linejoin:miter;stroke-width:0.8;"/>
   </g>
   <g id="patch_9">
    <path d="M 381.765625 228.439219 
L 381.765625 10.999219 
" style="fill:none;stroke:#000000;stroke-linecap:square;stroke-linejoin:miter;stroke-width:0.8;"/>
   </g>
   <g id="patch_10">
    <path d="M 46.965625 228.439219 
L 381.765625 228.439219 
" style="fill:none;stroke:#000000;stroke-linecap:square;stroke-linejoin:miter;stroke-width:0.8;"/>
   </g>
   <g id="patch_11">
    <path d="M 46.965625 10.999219 
L 381.765625 10.999219 
" style="fill:none;stroke:#000000;stroke-linecap:square;stroke-linejoin:miter;stroke-width:0.8;"/>
   </g>
  </g>
 </g>
 <defs>
  <clipPath id="p267e97fe0f">
   <rect height="217.44" width="334.8" x="46.965625" y="10.999219"/>
  </clipPath>
 </defs>
</svg>
