<?xml version="1.0" encoding="UTF-8" standalone="no"?>
<!DOCTYPE svg PUBLIC "-//W3C//DTD SVG 1.1//EN" "http://www.w3.org/Graphics/SVG/1.1/DTD/svg11.dtd">
<svg width="100%" height="100%" viewBox="0 0 890 541" version="1.1" xmlns="http://www.w3.org/2000/svg" xmlns:xlink="http://www.w3.org/1999/xlink" xml:space="preserve" xmlns:serif="http://www.serif.com/" style="fill-rule:evenodd;clip-rule:evenodd;stroke-miterlimit:10;">
    <g id="Layer-1" serif:id="Layer 1">
        <g transform="matrix(0.341927,-0.939726,-0.939726,-0.341927,690.918,320.616)">
            <path d="M-4.234,15.794L21.075,15.794L23.379,6.347L-0.218,-0.925L-4.234,15.794Z" style="fill:rgb(153,63,165);fill-rule:nonzero;"/>
        </g>
        <g transform="matrix(1,0,0,1,841.963,172.067)">
            <path d="M0,128.756L-7.826,178.55L-4.264,139.965L-2.248,127.397L7.56,21.47L5.646,32.66L9.522,-9.324L16.655,-49.794L12.941,-9.996L11.205,0.159L2.667,91.91L1.596,103.427L3.429,91.989L0,128.756Z" style="fill:rgb(49,49,49);fill-rule:nonzero;"/>
        </g>
        <g transform="matrix(1,0,0,1,849.523,296.806)">
            <path d="M0,-103.269L-9.808,2.657L-152.319,-12.793L-147.559,-105.926L-1.914,-92.08L0,-103.269Z" style="fill:rgb(95,95,95);fill-rule:nonzero;"/>
        </g>
        <g transform="matrix(1,0,0,1,837.7,334.667)">
            <path d="M0,-22.635L-3.563,15.95L-146.635,-0.597L-145.987,-13.529L-144.752,-38.191L-144.732,-38.585L0,-22.635Z" style="fill:rgb(95,95,95);fill-rule:nonzero;"/>
        </g>
        <g transform="matrix(-0.173578,0.98482,0.98482,0.173578,779.827,217.02)">
            <path d="M-106.987,61.15L-65.893,61.15L-52.927,-90.063L-94.012,-80.677L-106.987,61.15Z" style="fill:rgb(62,62,62);fill-rule:nonzero;"/>
        </g>
        <g transform="matrix(1,0,0,1,845.392,275.415)">
            <path d="M0,-11.359L-1.833,0.079L-0.762,-11.438L0,-11.359Z" style="fill:rgb(62,62,62);fill-rule:nonzero;"/>
        </g>
        <g transform="matrix(-0.158383,0.987378,0.987378,0.158383,753.298,370.242)">
            <path d="M-83.572,74.117L-70.844,74.117L-63.669,-71.314L-76.256,-69.043L-83.572,74.117Z" style="fill:rgb(62,62,62);fill-rule:nonzero;"/>
        </g>
        <g transform="matrix(1,0,0,1,851.486,191.247)">
            <path d="M0,-28.505L-3.877,13.479L-149.521,-0.368L-153.233,-0.721L-151.168,-41.984L0,-28.505Z" style="fill:rgb(95,95,95);fill-rule:nonzero;"/>
        </g>
        <g transform="matrix(-0.749875,0.661579,0.661579,0.749875,95.4583,184.775)">
            <path d="M-249.977,78.948L-197.664,78.948L-31.439,-96.312L-91.378,-86.377L-249.977,78.948Z" style="fill:rgb(89,89,89);fill-rule:nonzero;"/>
        </g>
        <g transform="matrix(0.749875,-0.661579,-0.661579,-0.749875,324.171,165.294)">
            <path d="M13.271,57.754L65.583,57.754L153.67,-34.069L105.902,-39.913L13.271,57.754Z" style="fill:rgb(159,81,9);fill-rule:nonzero;"/>
        </g>
        <g transform="matrix(1,0,0,1,55.315,152.506)">
            <path d="M0,-60.752L240.598,-39.3L243.014,0L19.336,-21.266L4.833,-22.645L0,-60.752Z" style="fill:rgb(134,134,134);fill-rule:nonzero;"/>
        </g>
        <g transform="matrix(1,0,0,1,85.2701,156.067)">
            <path d="M0,61.602L-10.619,-24.827L213.059,-3.562L223.791,-2.542L228.998,86.429L0,61.602Z" style="fill:rgb(134,134,134);fill-rule:nonzero;"/>
        </g>
        <g transform="matrix(1,0,0,1,464.082,168.931)">
            <path d="M0,55.703L0.556,90.925L-6.669,101.576L-21.766,123.827L-29.657,135.457L-30.57,98.557L-22.583,87.36L-24.846,-13.749L-33.104,-3.814L-34.092,-43.77L-2.138,-79.754L-1.539,-41.791L-9.075,-32.725L-7.505,54.927L-7.307,65.947L0,55.703Z" style="fill:rgb(126,64,7);fill-rule:nonzero;"/>
        </g>
        <g transform="matrix(1,0,0,1,456.577,234.878)">
            <path d="M0,-11.02L7.505,-10.244L0.198,0L0,-11.02Z" style="fill:rgb(159,81,9);fill-rule:nonzero;"/>
        </g>
        <g transform="matrix(-0.993583,-0.113102,-0.113102,0.993583,458.18,269.944)">
            <path d="M-12.75,24.461L13.183,24.461L0.699,0.645L-24.526,0.556L-12.75,24.461Z" style="fill:rgb(153,63,165);fill-rule:nonzero;"/>
        </g>
        <g transform="matrix(-0.1258,-0.992056,-0.992056,0.1258,208.179,369.839)">
            <path d="M122.434,116.666L158.062,116.666L103.518,-110.244L67.178,-107.889L122.434,116.666Z" style="fill:rgb(134,134,134);fill-rule:nonzero;"/>
        </g>
        <g transform="matrix(0.784804,-0.619744,-0.619744,-0.784804,93.7535,304.279)">
            <path d="M30.818,73.229L47.018,73.229L211.35,-88.175L197.025,-90.595L30.818,73.229Z" style="fill:rgb(89,89,89);fill-rule:nonzero;"/>
        </g>
        <g transform="matrix(1,0,0,1,429.99,153.161)">
            <path d="M0,-28.001L0.989,11.955L-120.929,0.364L-131.661,-0.656L-134.077,-39.956L0,-28.001Z" style="fill:rgb(241,123,14);fill-rule:nonzero;"/>
        </g>
        <g transform="matrix(-0.0613713,-0.998115,-0.998115,0.0613713,384.095,340.766)">
            <path d="M55.793,74.051L92.211,74.051L70.108,-53.82L33.22,-52.468L55.793,74.051Z" style="fill:rgb(241,123,14);fill-rule:nonzero;"/>
        </g>
        <g transform="matrix(1,0,0,1,314.268,167.319)">
            <path d="M0,75.177L-5.207,-13.794L116.711,-2.203L124.969,-12.138L127.232,88.971L0,75.177Z" style="fill:rgb(241,123,14);fill-rule:nonzero;"/>
        </g>
        <g transform="matrix(0.670625,-0.741797,-0.741797,-0.670625,325.808,304.644)">
            <path d="M23.833,50.238L38.361,50.238L113.454,-53.393L99.791,-54.977L23.833,50.238Z" style="fill:rgb(159,81,9);fill-rule:nonzero;"/>
        </g>
        <g transform="matrix(-0.132973,0.99112,0.99112,0.132973,398.48,774.55)">
            <path d="M-428.939,394.259L-359.609,394.259L-358.255,-377.026L-420.745,-326.647L-428.939,394.259Z" style="fill:rgb(114,0,14);fill-rule:nonzero;"/>
        </g>
        <g transform="matrix(0.341927,-0.939726,-0.939726,-0.341927,688.65,315.435)">
            <path d="M-8.328,11.892L16.982,11.892" style="fill:none;fill-rule:nonzero;stroke:black;stroke-width:0.5px;"/>
        </g>
        <g transform="matrix(0.993985,0.109517,0.109517,-0.993985,683.369,294.884)">
            <path d="M-0.029,-0.532L9.695,-0.533" style="fill:none;fill-rule:nonzero;stroke:black;stroke-width:0.5px;"/>
        </g>
        <g transform="matrix(-0.749875,0.661579,0.661579,0.749875,312.267,121.854)">
            <path d="M-45.77,-17.304L6.542,-17.305" style="fill:none;fill-rule:nonzero;stroke:black;stroke-width:0.5px;"/>
        </g>
        <g transform="matrix(0.996538,0.0831434,0.0831434,-0.996538,108.023,50.0912)">
            <path d="M-0.397,-9.524L228.702,-9.524" style="fill:none;fill-rule:nonzero;stroke:black;stroke-width:0.5px;"/>
        </g>
        <g transform="matrix(0.847966,-0.530051,-0.530051,-0.847966,67.7666,102.96)">
            <path d="M-4.619,16.102L56.14,16.103" style="fill:none;fill-rule:nonzero;stroke:black;stroke-width:0.5px;"/>
        </g>
        <g transform="matrix(-0.996049,-0.0888089,-0.0888089,0.996049,56.7426,81.1127)">
            <path d="M-241.075,10.726L0.477,10.726" style="fill:none;fill-rule:nonzero;stroke:black;stroke-width:0.5px;"/>
        </g>
        <g transform="matrix(0.0921986,-0.995741,-0.995741,-0.0921986,896.905,256.266)">
            <path d="M-48.286,52.963L58.094,52.963" style="fill:none;fill-rule:nonzero;stroke:black;stroke-width:0.5px;"/>
        </g>
        <g transform="matrix(-0.155262,0.987873,0.987873,0.155262,862.038,333.451)">
            <path d="M-29.116,-24.897L21.29,-24.897" style="fill:none;fill-rule:nonzero;stroke:black;stroke-width:0.5px;"/>
        </g>
        <g transform="matrix(-0.121947,-0.992537,-0.992537,0.121947,122.205,163.915)">
            <path d="M-48.849,43.215L38.23,43.215" style="fill:none;fill-rule:nonzero;stroke:black;stroke-width:0.5px;"/>
        </g>
        <g transform="matrix(-0.0157836,-0.999875,-0.999875,0.0157836,481.965,241.689)">
            <path d="M-17.891,17.611L17.335,17.611" style="fill:none;fill-rule:nonzero;stroke:black;stroke-width:0.5px;"/>
        </g>
        <g transform="matrix(-0.0157766,-0.999876,-0.999876,0.0157766,481.218,107.56)">
            <path d="M-19.283,18.982L18.684,18.982" style="fill:none;fill-rule:nonzero;stroke:black;stroke-width:0.5px;"/>
        </g>
        <g transform="matrix(0.994697,0.102849,0.102849,-0.994697,456.637,223.474)">
            <path d="M-0.02,-0.388L7.525,-0.388" style="fill:none;fill-rule:nonzero;stroke:black;stroke-width:0.5px;"/>
        </g>
        <g transform="matrix(-0.132973,0.99112,0.99112,0.132973,875.105,445.34)">
            <path d="M-39.274,-34.357L30.055,-34.357" style="fill:none;fill-rule:nonzero;stroke:black;stroke-width:0.5px;"/>
        </g>
        <g transform="matrix(-0.993583,-0.113102,-0.113102,0.993583,442.564,291.309)">
            <path d="M-25.849,1.466L0.083,1.466" style="fill:none;fill-rule:nonzero;stroke:black;stroke-width:0.5px;"/>
        </g>
        <g transform="matrix(0.0919504,-0.995764,-0.995764,-0.0919504,854.966,334.872)">
            <path d="M-17.593,19.293L21.156,19.293" style="fill:none;fill-rule:nonzero;stroke:black;stroke-width:0.5px;"/>
        </g>
        <g transform="matrix(-0.1258,-0.992056,-0.992056,0.1258,92.0474,240.935)">
            <path d="M-20.055,17.673L15.573,17.673" style="fill:none;fill-rule:nonzero;stroke:black;stroke-width:0.5px;"/>
        </g>
        <g transform="matrix(0.784804,-0.619744,-0.619744,-0.784804,77.0354,230.569)">
            <path d="M-1.743,5.02L14.457,5.02" style="fill:none;fill-rule:nonzero;stroke:black;stroke-width:0.5px;"/>
        </g>
        <g transform="matrix(-0.0247446,-0.999694,-0.999694,0.0247446,450.444,144.15)">
            <path d="M-20.479,19.978L19.49,19.978" style="fill:none;fill-rule:nonzero;stroke:black;stroke-width:0.5px;"/>
        </g>
        <g transform="matrix(-0.56143,0.827524,0.827524,0.56143,440.968,305.103)">
            <path d="M-10.973,-5.816L3.082,-5.815" style="fill:none;fill-rule:nonzero;stroke:black;stroke-width:0.5px;"/>
        </g>
        <g transform="matrix(-0.540539,0.841319,0.841319,0.540539,480.822,296.599)">
            <path d="M-20.526,-11.21L6.122,-11.21" style="fill:none;fill-rule:nonzero;stroke:black;stroke-width:0.5px;"/>
        </g>
        <g transform="matrix(-0.0613713,-0.998115,-0.998115,0.0613713,323.714,269.217)">
            <path d="M-19.326,18.174L17.091,18.174" style="fill:none;fill-rule:nonzero;stroke:black;stroke-width:0.5px;"/>
        </g>
        <g transform="matrix(-0.993379,-0.114887,-0.114887,0.993379,79.3246,249.946)">
            <path d="M-230.488,13.284L0.766,13.284" style="fill:none;fill-rule:nonzero;stroke:black;stroke-width:0.5px;"/>
        </g>
        <g transform="matrix(-0.0613853,-0.998114,-0.998114,0.0613853,316.659,130.443)">
            <path d="M-20.896,19.65L18.479,19.65" style="fill:none;fill-rule:nonzero;stroke:black;stroke-width:0.5px;"/>
        </g>
        <g transform="matrix(-0.0584247,-0.998292,-0.998292,0.0584247,355.922,192.813)">
            <path d="M-47.165,44.486L41.958,44.486" style="fill:none;fill-rule:nonzero;stroke:black;stroke-width:0.5px;"/>
        </g>
        <g transform="matrix(-0.670625,0.741797,0.741797,0.670625,310.126,255.112)">
            <path d="M-12.136,-5.388L2.393,-5.388" style="fill:none;fill-rule:nonzero;stroke:black;stroke-width:0.5px;"/>
        </g>
        <g transform="matrix(-0.993982,-0.109541,-0.109541,0.993982,74.6541,215.082)">
            <path d="M-232.671,12.782L0.702,12.782" style="fill:none;fill-rule:nonzero;stroke:black;stroke-width:0.5px;"/>
        </g>
        <g transform="matrix(-0.580715,0.814107,0.814107,0.580715,439.745,268.391)">
            <path d="M-10.87,-5.598L2.883,-5.598" style="fill:none;fill-rule:nonzero;stroke:black;stroke-width:0.5px;"/>
        </g>
        <g transform="matrix(-0.024735,-0.999694,-0.999694,0.024735,452.402,285.025)">
            <path d="M-18.912,18.45L17.999,18.45" style="fill:none;fill-rule:nonzero;stroke:black;stroke-width:0.5px;"/>
        </g>
        <g transform="matrix(-0.639217,0.769026,0.769026,0.639217,436.288,166.5)">
            <path d="M-10.588,-4.968L2.33,-4.968" style="fill:none;fill-rule:nonzero;stroke:black;stroke-width:0.5px;"/>
        </g>
        <g transform="matrix(-0.56146,0.827504,0.827504,0.56146,463.403,271.16)">
            <path d="M-10.048,-5.325L2.822,-5.325" style="fill:none;fill-rule:nonzero;stroke:black;stroke-width:0.5px;"/>
        </g>
        <g transform="matrix(-0.663995,0.747737,0.747737,0.663995,448.812,131.062)">
            <path d="M-40.039,-17.992L8.085,-17.992" style="fill:none;fill-rule:nonzero;stroke:black;stroke-width:0.5px;"/>
        </g>
        <g transform="matrix(-0.639233,0.769013,0.769013,0.639233,459.852,137.468)">
            <path d="M-9.663,-4.533L2.127,-4.533" style="fill:none;fill-rule:nonzero;stroke:black;stroke-width:0.5px;"/>
        </g>
        <g transform="matrix(0.725577,-0.688141,-0.688141,-0.725577,99.437,381.802)">
            <path d="M-11.014,27.618L69.255,27.618" style="fill:none;fill-rule:nonzero;stroke:black;stroke-width:0.5px;"/>
        </g>
        <g transform="matrix(-0.0223762,-0.99975,-0.99975,0.0223762,490.885,203.473)">
            <path d="M-51.699,50.554L49.436,50.554" style="fill:none;fill-rule:nonzero;stroke:black;stroke-width:0.5px;"/>
        </g>
        <g transform="matrix(-0.561453,0.827508,0.827508,0.561453,454.833,294.125)">
            <path d="M-20.993,-11.126L5.896,-11.126" style="fill:none;fill-rule:nonzero;stroke:black;stroke-width:0.5px;"/>
        </g>
        <g transform="matrix(0.0929175,-0.995674,-0.995674,-0.0929175,876.402,145.869)">
            <path d="M-18.128,19.899L21.842,19.899" style="fill:none;fill-rule:nonzero;stroke:black;stroke-width:0.5px;"/>
        </g>
        <g transform="matrix(-0.580704,0.814115,0.814115,0.580704,462.477,235.704)">
            <path d="M-9.945,-5.122L2.638,-5.122" style="fill:none;fill-rule:nonzero;stroke:black;stroke-width:0.5px;"/>
        </g>
        <g transform="matrix(-0.125819,-0.992053,-0.992053,0.125819,76.3291,106.013)">
            <path d="M-21.623,19.054L16.79,19.054" style="fill:none;fill-rule:nonzero;stroke:black;stroke-width:0.5px;"/>
        </g>
        <g transform="matrix(0.09286,-0.995679,-0.995679,-0.09286,861.823,285.853)">
            <path d="M-16.749,18.384L20.178,18.384" style="fill:none;fill-rule:nonzero;stroke:black;stroke-width:0.5px;"/>
        </g>
        <g transform="matrix(0.993378,0.114895,0.114895,-0.993378,308.031,282.337)">
            <path d="M-0.426,-7.383L128.092,-7.383" style="fill:none;fill-rule:nonzero;stroke:black;stroke-width:0.5px;"/>
        </g>
        <g transform="matrix(0.992567,0.1217,0.1217,-0.992567,138.68,270.888)">
            <path d="M-2.679,-43.87L718.273,-43.87" style="fill:none;fill-rule:nonzero;stroke:black;stroke-width:0.5px;"/>
        </g>
        <g transform="matrix(-0.991352,-0.131233,-0.131233,0.991352,82.3882,319.608)">
            <path d="M-767.952,50.609L3.335,50.609" style="fill:none;fill-rule:nonzero;stroke:black;stroke-width:0.5px;"/>
        </g>
        <g transform="matrix(0.993974,0.109613,0.109613,-0.993974,457.64,269.14)">
            <path d="M-0.076,-1.382L25.149,-1.383" style="fill:none;fill-rule:nonzero;stroke:black;stroke-width:0.5px;"/>
        </g>
        <g transform="matrix(-0.994174,-0.107784,-0.107784,0.994174,87.2747,205.401)">
            <path d="M-229.669,12.414L0.671,12.413" style="fill:none;fill-rule:nonzero;stroke:black;stroke-width:0.5px;"/>
        </g>
        <g transform="matrix(-0.173578,0.98482,0.98482,0.173578,874.361,149.532)">
            <path d="M-24.113,-20.235L16.98,-20.235" style="fill:none;fill-rule:nonzero;stroke:black;stroke-width:0.5px;"/>
        </g>
        <g transform="matrix(0.993983,0.109534,0.109534,-0.993983,305.692,246.252)">
            <path d="M-0.39,-7.107L129.377,-7.107" style="fill:none;fill-rule:nonzero;stroke:black;stroke-width:0.5px;"/>
        </g>
        <g transform="matrix(0.994174,0.107785,0.107785,-0.994174,315.382,235.68)">
            <path d="M-0.373,-6.897L127.605,-6.897" style="fill:none;fill-rule:nonzero;stroke:black;stroke-width:0.5px;"/>
        </g>
        <g transform="matrix(0.996048,0.0888128,0.0888128,-0.996048,296.708,107.276)">
            <path d="M-0.266,-5.978L134.343,-5.978" style="fill:none;fill-rule:nonzero;stroke:black;stroke-width:0.5px;"/>
        </g>
        <g transform="matrix(0.996537,0.0831469,0.0831469,-0.996537,335.8,73.3436)">
            <path d="M-0.22,-5.29L127.024,-5.29" style="fill:none;fill-rule:nonzero;stroke:black;stroke-width:0.5px;"/>
        </g>
        <g transform="matrix(-0.158236,0.987401,0.987401,0.158236,849.978,271.585)">
            <path d="M-6.708,-5.719L4.875,-5.719" style="fill:none;fill-rule:nonzero;stroke:black;stroke-width:0.5px;"/>
        </g>
        <g transform="matrix(-0.158383,0.987378,0.987378,0.158383,844.753,307.738)">
            <path d="M-7.372,-6.284L5.356,-6.284" style="fill:none;fill-rule:nonzero;stroke:black;stroke-width:0.5px;"/>
        </g>
        <g transform="matrix(-0.0919535,0.995763,0.995763,0.0919535,870.272,187.595)">
            <path d="M-23.02,-20.992L19.143,-20.992" style="fill:none;fill-rule:nonzero;stroke:black;stroke-width:0.5px;"/>
        </g>
        <g transform="matrix(0.168612,-0.985683,-0.985683,-0.168612,853.919,201.018)">
            <path d="M-4.719,5.595L6.633,5.595" style="fill:none;fill-rule:nonzero;stroke:black;stroke-width:0.5px;"/>
        </g>
        <g transform="matrix(0.168506,-0.985701,-0.985701,-0.168506,858.895,168.859)">
            <path d="M-4.283,5.078L6.019,5.078" style="fill:none;fill-rule:nonzero;stroke:black;stroke-width:0.5px;"/>
        </g>
        <g transform="matrix(-0.388546,0.921429,0.921429,0.388546,723.215,144.936)">
            <path d="M-29.26,-19.417L12.885,-19.417" style="fill:none;fill-rule:nonzero;stroke:black;stroke-width:0.5px;"/>
        </g>
        <g transform="matrix(-0.0499823,0.99875,0.99875,0.0499823,719.84,171.958)">
            <path d="M-21.69,-20.632L19.625,-20.632" style="fill:none;fill-rule:nonzero;stroke:black;stroke-width:0.5px;"/>
        </g>
        <g transform="matrix(0.0510538,-0.998696,-0.998696,-0.0510538,745.968,242.201)">
            <path d="M-44.247,46.567L49.008,46.567" style="fill:none;fill-rule:nonzero;stroke:black;stroke-width:0.5px;"/>
        </g>
        <g transform="matrix(-0.3312,0.943561,0.943561,0.3312,700.078,294.044)">
            <path d="M-8.513,-6.034L4.277,-6.034" style="fill:none;fill-rule:nonzero;stroke:black;stroke-width:0.5px;"/>
        </g>
        <g transform="matrix(-0.993595,-0.112997,-0.112997,0.993595,674.792,318.236)">
            <path d="M-17.14,0.971L0.055,0.972" style="fill:none;fill-rule:nonzero;stroke:black;stroke-width:0.5px;"/>
        </g>
        <g transform="matrix(0.996538,0.0831419,0.0831419,-0.996538,717.431,104.551)">
            <path d="M-0.247,-5.92L142.173,-5.92" style="fill:none;fill-rule:nonzero;stroke:black;stroke-width:0.5px;"/>
        </g>
        <g transform="matrix(0.993982,0.109541,0.109541,-0.993982,694.276,288.202)">
            <path d="M-0.438,-7.975L145.17,-7.975" style="fill:none;fill-rule:nonzero;stroke:black;stroke-width:0.5px;"/>
        </g>
        <g transform="matrix(0.993378,0.114889,0.114889,-0.993378,692.489,325.906)">
            <path d="M-0.477,-8.274L143.549,-8.274" style="fill:none;fill-rule:nonzero;stroke:black;stroke-width:0.5px;"/>
        </g>
        <g transform="matrix(0.996048,0.0888133,0.0888133,-0.996048,701.215,142.578)">
            <path d="M-0.3,-6.74L151.468,-6.739" style="fill:none;fill-rule:nonzero;stroke:black;stroke-width:0.5px;"/>
        </g>
        <g transform="matrix(0.994669,0.103122,0.103122,-0.994669,844.637,263.938)">
            <path d="M-0.002,-0.04L0.764,-0.04" style="fill:none;fill-rule:nonzero;stroke:black;stroke-width:0.5px;"/>
        </g>
        <g transform="matrix(0.994175,0.10778,0.10778,-0.994175,698.451,276.378)">
            <path d="M-0.418,-7.725L142.93,-7.725" style="fill:none;fill-rule:nonzero;stroke:black;stroke-width:0.5px;"/>
        </g>
        <g transform="matrix(-0.995511,-0.0946474,-0.0946474,0.995511,76.1596,120.702)">
            <path d="M-224.182,10.633L0.504,10.633" style="fill:none;fill-rule:nonzero;stroke:black;stroke-width:0.5px;"/>
        </g>
        <g transform="matrix(-0.995511,-0.0946504,-0.0946504,0.995511,60.2453,129.178)">
            <path d="M-14.537,0.689L0.033,0.69" style="fill:none;fill-rule:nonzero;stroke:black;stroke-width:0.5px;"/>
        </g>
        <g transform="matrix(-0.0179644,-0.999839,-0.999839,0.0179644,462.183,229.169)">
            <path d="M-5.61,5.51L5.412,5.51" style="fill:none;fill-rule:nonzero;stroke:black;stroke-width:0.5px;"/>
        </g>
        <g transform="matrix(-0.0179089,-0.99984,-0.99984,0.0179089,499.597,178.462)">
            <path d="M-44.618,43.826L43.048,43.826" style="fill:none;fill-rule:nonzero;stroke:black;stroke-width:0.5px;"/>
        </g>
        <g transform="matrix(0.0925935,-0.995704,-0.995704,-0.0925935,849.779,270.801)">
            <path d="M-5.248,5.759L6.319,5.759" style="fill:none;fill-rule:nonzero;stroke:black;stroke-width:0.5px;"/>
        </g>
        <g transform="matrix(0.0926559,-0.995698,-0.995698,-0.0926559,894.182,226.603)">
            <path d="M-41.805,45.876L50.343,45.876" style="fill:none;fill-rule:nonzero;stroke:black;stroke-width:0.5px;"/>
        </g>
        <g transform="matrix(0.995513,0.0946252,0.0946252,-0.995513,298.402,152)">
            <path d="M-0.024,-0.51L10.755,-0.51" style="fill:none;fill-rule:nonzero;stroke:black;stroke-width:0.5px;"/>
        </g>
        <g transform="matrix(0.995511,0.0946453,0.0946453,-0.995511,309.883,147.782)">
            <path d="M-0.275,-5.795L122.193,-5.796" style="fill:none;fill-rule:nonzero;stroke:black;stroke-width:0.5px;"/>
        </g>
        <g transform="matrix(0.0499684,-0.998751,-0.998751,-0.0499684,697.83,328.25)">
            <path d="M-6.151,6.466L6.798,6.466" style="fill:none;fill-rule:nonzero;stroke:black;stroke-width:0.5px;"/>
        </g>
        <g transform="matrix(0.995509,0.0946699,0.0946699,-0.995509,698.278,190.352)">
            <path d="M-0.008,-0.177L3.72,-0.177" style="fill:none;fill-rule:nonzero;stroke:black;stroke-width:0.5px;"/>
        </g>
        <g transform="matrix(0.995511,0.0946468,0.0946468,-0.995511,702.947,184.018)">
            <path d="M-0.328,-6.923L145.973,-6.924" style="fill:none;fill-rule:nonzero;stroke:black;stroke-width:0.5px;"/>
        </g>
        <g transform="matrix(0.0500144,-0.998748,-0.998748,-0.0500144,704.615,310.04)">
            <path d="M-11.729,12.331L12.964,12.331" style="fill:none;fill-rule:nonzero;stroke:black;stroke-width:0.5px;"/>
        </g>
        <g transform="matrix(0.0505681,-0.998721,-0.998721,-0.0505681,693.155,296.298)">
            <path d="M-0.188,0.198L0.208,0.198" style="fill:none;fill-rule:nonzero;stroke:black;stroke-width:0.5px;"/>
        </g>
        <g transform="matrix(-0.739216,0.673469,0.673469,0.739216,28.7989,393.896)">
            <path d="M-34.561,-13.383L5.182,-13.383" style="fill:none;fill-rule:nonzero;stroke:black;stroke-width:0.5px;"/>
        </g>
        <g transform="matrix(0.908931,0.416946,0.416946,-0.908931,43.493,359.42)">
            <path d="M-0.035,-0.989L1.977,-0.989L3.373,-2.437L3.386,2.328L-0.035,-0.989Z" style="fill-rule:nonzero;"/>
        </g>
        <g transform="matrix(0.990822,0.135176,0.135176,-0.990822,16.4908,384.893)">
            <path d="M-0.18,-2.648L38.999,-2.648" style="fill:none;fill-rule:nonzero;stroke:black;stroke-width:0.5px;"/>
        </g>
        <g transform="matrix(0.512008,-0.858981,-0.858981,-0.512008,55.8298,395.513)">
            <path d="M-0.454,2.87L1.558,2.87L2.954,4.32L2.967,-0.445L-0.454,2.87Z" style="fill-rule:nonzero;"/>
        </g>
        <g transform="matrix(-0.147993,-0.988988,-0.988988,0.147993,33.4494,359.748)">
            <path d="M-24.85,21.408L18.443,21.408" style="fill:none;fill-rule:nonzero;stroke:black;stroke-width:0.5px;"/>
        </g>
        <g transform="matrix(-0.968122,-0.250479,-0.250479,0.968122,8.42334,341.871)">
            <path d="M-4.044,3.002L-2.032,3.002L-0.636,4.451L-0.625,-0.313L-4.044,3.002Z" style="fill-rule:nonzero;"/>
        </g>
        <g transform="matrix(0.995659,0.0930796,0.0930796,-0.995659,440.124,148.877)">
            <path d="M-0.297,-6.36L136.361,-6.36" style="fill:none;fill-rule:nonzero;stroke:black;stroke-width:0.5px;"/>
        </g>
        <g transform="matrix(0.994174,0.107786,0.107786,-0.994174,442.657,249.207)">
            <path d="M-0.387,-7.167L132.598,-7.167" style="fill:none;fill-rule:nonzero;stroke:black;stroke-width:0.5px;"/>
        </g>
        <g transform="matrix(0.996537,0.0831467,0.0831467,-0.996537,594.316,95.0708)">
            <path d="M-0.214,-5.132L123.231,-5.132" style="fill:none;fill-rule:nonzero;stroke:black;stroke-width:0.5px;"/>
        </g>
        <g transform="matrix(0.993378,0.114892,0.114892,-0.993378,435.746,296.817)">
            <path d="M-0.442,-7.673L133.126,-7.673" style="fill:none;fill-rule:nonzero;stroke:black;stroke-width:0.5px;"/>
        </g>
        <g transform="matrix(0.994158,0.107935,0.107935,-0.994158,591.11,267.763)">
            <path d="M-0.313,-5.79L106.973,-5.79" style="fill:none;fill-rule:nonzero;stroke:black;stroke-width:0.5px;"/>
        </g>
        <g transform="matrix(0.996537,0.0831456,0.0831456,-0.996537,462.629,83.7192)">
            <path d="M-0.229,-5.496L131.961,-5.496" style="fill:none;fill-rule:nonzero;stroke:black;stroke-width:0.5px;"/>
        </g>
        <g transform="matrix(0.993982,0.109539,0.109539,-0.993982,568.759,275.445)">
            <path d="M-0.379,-6.906L125.721,-6.907" style="fill:none;fill-rule:nonzero;stroke:black;stroke-width:0.5px;"/>
        </g>
        <g transform="matrix(-0.516697,0.856168,0.856168,0.516697,574.994,178.417)">
            <path d="M-9.161,-5.172L2.919,-5.172" style="fill:none;fill-rule:nonzero;stroke:black;stroke-width:0.5px;"/>
        </g>
        <g transform="matrix(-0.446285,0.894891,0.894891,0.446285,594.188,317.249)">
            <path d="M-37.372,-23.124L14.308,-23.124" style="fill:none;fill-rule:nonzero;stroke:black;stroke-width:0.5px;"/>
        </g>
        <g transform="matrix(0.994157,0.107941,0.107941,-0.994157,465.741,253.12)">
            <path d="M-0.369,-6.815L125.904,-6.815" style="fill:none;fill-rule:nonzero;stroke:black;stroke-width:0.5px;"/>
        </g>
        <g transform="matrix(-0.46321,0.886249,0.886249,0.46321,591.542,247.987)">
            <path d="M-8.778,-5.317L3.22,-5.317" style="fill:none;fill-rule:nonzero;stroke:black;stroke-width:0.5px;"/>
        </g>
        <g transform="matrix(0.993982,0.109542,0.109542,-0.993982,434.725,260.187)">
            <path d="M-0.406,-7.39L134.519,-7.39" style="fill:none;fill-rule:nonzero;stroke:black;stroke-width:0.5px;"/>
        </g>
        <g transform="matrix(-0.516792,0.856111,0.856111,0.516792,592.617,148.324)">
            <path d="M-8.346,-4.711L2.659,-4.711" style="fill:none;fill-rule:nonzero;stroke:black;stroke-width:0.5px;"/>
        </g>
        <g transform="matrix(-0.540575,0.841296,0.841296,0.540575,590.894,139.13)">
            <path d="M-34.283,-18.722L10.224,-18.722" style="fill:none;fill-rule:nonzero;stroke:black;stroke-width:0.5px;"/>
        </g>
        <g transform="matrix(0.993378,0.114888,0.114888,-0.993378,568.343,312.661)">
            <path d="M-0.413,-7.168L124.369,-7.168" style="fill:none;fill-rule:nonzero;stroke:black;stroke-width:0.5px;"/>
        </g>
        <g transform="matrix(0.0186771,-0.999826,-0.999826,-0.0186771,636.354,200.144)">
            <path d="M-49.179,50.106L51.051,50.106" style="fill:none;fill-rule:nonzero;stroke:black;stroke-width:0.5px;"/>
        </g>
        <g transform="matrix(0.996061,0.0886685,0.0886685,-0.996061,463.314,121.384)">
            <path d="M-0.258,-5.802L130.612,-5.802" style="fill:none;fill-rule:nonzero;stroke:black;stroke-width:0.5px;"/>
        </g>
        <g transform="matrix(-0.463156,0.886277,0.886277,0.463156,574.419,281.839)">
            <path d="M-9.612,-5.822L3.527,-5.822" style="fill:none;fill-rule:nonzero;stroke:black;stroke-width:0.5px;"/>
        </g>
        <g transform="matrix(0.994531,0.10444,0.10444,-0.994531,457.832,228.201)">
            <path d="M-0.353,-6.751L128.916,-6.751" style="fill:none;fill-rule:nonzero;stroke:black;stroke-width:0.5px;"/>
        </g>
        <g transform="matrix(0.996048,0.0888137,0.0888137,-0.996048,570.394,131.829)">
            <path d="M-0.259,-5.827L130.959,-5.827" style="fill:none;fill-rule:nonzero;stroke:black;stroke-width:0.5px;"/>
        </g>
        <g transform="matrix(0.0201893,-0.999796,-0.999796,-0.0201893,612.563,120.235)">
            <path d="M-18.903,19.289L19.682,19.289" style="fill:none;fill-rule:nonzero;stroke:black;stroke-width:0.5px;"/>
        </g>
        <g transform="matrix(0.995659,0.0930787,0.0930787,-0.995659,576.106,162.178)">
            <path d="M-0.269,-5.773L123.776,-5.773" style="fill:none;fill-rule:nonzero;stroke:black;stroke-width:0.5px;"/>
        </g>
        <g transform="matrix(0.994698,0.102839,0.102839,-0.994698,465.093,218.148)">
            <path d="M-0.338,-6.555L127.152,-6.555" style="fill:none;fill-rule:nonzero;stroke:black;stroke-width:0.5px;"/>
        </g>
        <g transform="matrix(-0.992567,-0.1217,-0.1217,0.992567,138.681,270.888)">
            <path d="M-718.273,43.87L2.679,43.87" style="fill:none;fill-rule:nonzero;stroke:black;stroke-width:0.5px;"/>
        </g>
        <g transform="matrix(-0.131015,-0.99138,-0.99138,0.131015,198.882,179.805)">
            <path d="M-171.337,150.184L131.642,150.184" style="fill:none;fill-rule:nonzero;stroke:black;stroke-width:0.5px;"/>
        </g>
        <g transform="matrix(-0.112397,-0.993663,-0.993663,0.112397,150.399,286.278)">
            <path d="M-25.435,22.72L20.295,22.72" style="fill:none;fill-rule:nonzero;stroke:black;stroke-width:0.5px;"/>
        </g>
        <g transform="matrix(-0.112383,-0.993665,-0.993665,0.112383,116.11,42.8303)">
            <path d="M-17.921,16.008L14.3,16.008" style="fill:none;fill-rule:nonzero;stroke:black;stroke-width:0.5px;"/>
        </g>
        <g transform="matrix(0.0961599,-0.995366,-0.995366,-0.0961599,1015.57,337.387)">
            <path d="M-149.722,164.884L181.58,164.884" style="fill:none;fill-rule:nonzero;stroke:black;stroke-width:0.5px;"/>
        </g>
        <g transform="matrix(-0.725577,0.688141,0.688141,0.725577,99.4371,381.802)">
            <path d="M-69.255,-27.618L11.014,-27.618" style="fill:none;fill-rule:nonzero;stroke:black;stroke-width:0.5px;"/>
        </g>
        <g transform="matrix(0.991352,0.131233,0.131233,-0.991352,82.3885,319.608)">
            <path d="M-3.335,-50.609L767.952,-50.609" style="fill:none;fill-rule:nonzero;stroke:black;stroke-width:0.5px;"/>
        </g>
        <g transform="matrix(0.132973,-0.99112,-0.99112,-0.132973,875.106,445.34)">
            <path d="M-30.055,34.357L39.274,34.357" style="fill:none;fill-rule:nonzero;stroke:black;stroke-width:0.5px;"/>
        </g>
        <g transform="matrix(0.0969204,-0.995292,-0.995292,-0.0969204,1014.16,276.901)">
            <path d="M-140.628,154.987L170.813,154.987" style="fill:none;fill-rule:nonzero;stroke:black;stroke-width:0.5px;"/>
        </g>
        <g transform="matrix(0.152423,-0.988315,-0.988315,-0.152423,896.288,123.789)">
            <path d="M-20.978,24.461L28.523,24.461" style="fill:none;fill-rule:nonzero;stroke:black;stroke-width:0.5px;"/>
        </g>
        <g transform="matrix(0.996332,0.0855754,0.0855754,-0.996332,37.3518,33.328)">
            <path d="M-1.539,-35.91L837.709,-35.91" style="fill:none;fill-rule:nonzero;stroke:black;stroke-width:0.5px;"/>
        </g>
        <g transform="matrix(-0.862974,0.505248,0.505248,0.862974,46.9961,82.9684)">
            <path d="M-71.079,-19.277L5.228,-19.277" style="fill:none;fill-rule:nonzero;stroke:black;stroke-width:0.5px;"/>
        </g>
        <g transform="matrix(-0.996894,-0.0787542,-0.0787542,0.996894,102.223,-0.114737)">
            <path d="M-779.077,30.726L1.212,30.725" style="fill:none;fill-rule:nonzero;stroke:black;stroke-width:0.5px;"/>
        </g>
        <g transform="matrix(0.995511,0.0946414,0.0946414,-0.995511,431.91,158.612)">
            <path d="M-0.311,-6.563L138.391,-6.563" style="fill:none;fill-rule:nonzero;stroke:black;stroke-width:0.5px;"/>
        </g>
        <g transform="matrix(0.996048,0.0888131,0.0888131,-0.996048,430.819,118.985)">
            <path d="M-0.277,-6.225L139.905,-6.225" style="fill:none;fill-rule:nonzero;stroke:black;stroke-width:0.5px;"/>
        </g>
        <g transform="matrix(0.994698,0.102836,0.102836,-0.994698,591.757,232.216)">
            <path d="M-0.288,-5.588L108.39,-5.588" style="fill:none;fill-rule:nonzero;stroke:black;stroke-width:0.5px;"/>
        </g>
        <g transform="matrix(0.994532,0.104431,0.104431,-0.994532,586.268,242.506)">
            <path d="M-0.311,-5.937L113.391,-5.937" style="fill:none;fill-rule:nonzero;stroke:black;stroke-width:0.5px;"/>
        </g>
        <g transform="matrix(0.995933,0.0900965,0.0900965,-0.995933,587.899,143.112)">
            <path d="M-0.23,-5.095L112.882,-5.095" style="fill:none;fill-rule:nonzero;stroke:black;stroke-width:0.5px;"/>
        </g>
        <g transform="matrix(0.994174,0.107787,0.107787,-0.994174,574.792,264.008)">
            <path d="M-0.362,-6.695L123.855,-6.695" style="fill:none;fill-rule:nonzero;stroke:black;stroke-width:0.5px;"/>
        </g>
        <g transform="matrix(0.0154767,-0.99988,-0.99988,-0.0154767,625.849,220.853)">
            <path d="M-50.573,51.362L52.163,51.362" style="fill:none;fill-rule:nonzero;stroke:black;stroke-width:0.5px;"/>
        </g>
        <g transform="matrix(0.995511,0.0946473,0.0946473,-0.995511,569.929,172.158)">
            <path d="M-0.291,-6.142L129.485,-6.142" style="fill:none;fill-rule:nonzero;stroke:black;stroke-width:0.5px;"/>
        </g>
        <g transform="matrix(0.0137803,-0.999905,-0.999905,-0.0137803,589.649,158.487)">
            <path d="M-20.039,20.317L20.599,20.317" style="fill:none;fill-rule:nonzero;stroke:black;stroke-width:0.5px;"/>
        </g>
        <g transform="matrix(0.0202247,-0.999795,-0.999795,-0.0202247,608.395,256.338)">
            <path d="M-17.513,17.871L18.236,17.871" style="fill:none;fill-rule:nonzero;stroke:black;stroke-width:0.5px;"/>
        </g>
        <g transform="matrix(0.99606,0.0886763,0.0886763,-0.99606,593.535,133.983)">
            <path d="M-0.213,-4.799L108.023,-4.799" style="fill:none;fill-rule:nonzero;stroke:black;stroke-width:0.5px;"/>
        </g>
        <g transform="matrix(0.0137979,-0.999905,-0.999905,-0.0137979,586.095,301.518)">
            <path d="M-18.476,18.733L18.993,18.733" style="fill:none;fill-rule:nonzero;stroke:black;stroke-width:0.5px;"/>
        </g>
        <g transform="matrix(0.995933,0.090099,0.090099,-0.995933,455.815,130.275)">
            <path d="M-0.27,-5.98L132.473,-5.98" style="fill:none;fill-rule:nonzero;stroke:black;stroke-width:0.5px;"/>
        </g>
        <g transform="matrix(1,0,0,1,65.088,396.589)">
            <text x="0px" y="0px" style="font-family:'LucidaGrande', 'Lucida Grande', sans-serif;font-weight:500;font-size:18px;">x</text>
        </g>
        <g transform="matrix(1,0,0,1,12.528,341.725)">
            <text x="0px" y="0px" style="font-family:'LucidaGrande', 'Lucida Grande', sans-serif;font-weight:500;font-size:18px;">z</text>
        </g>
        <g transform="matrix(1,0,0,1,52.596,364.603)">
            <text x="0px" y="0px" style="font-family:'LucidaGrande', 'Lucida Grande', sans-serif;font-weight:500;font-size:18px;">y</text>
        </g>
        <g transform="matrix(1,0,0,1,202.525,28.534)">
            <text x="0px" y="0px" style="font-family:'LucidaGrande', 'Lucida Grande', sans-serif;font-weight:500;font-size:34.287px;">Steel</text>
        </g>
        <g transform="matrix(1,0,0,1,440.01,46.429)">
            <text x="0px" y="0px" style="font-family:'LucidaGrande', 'Lucida Grande', sans-serif;font-weight:500;font-size:34.287px;">Copper</text>
        </g>
        <g transform="matrix(1,0,0,1,641.051,62.441)">
            <text x="0px" y="0px" style="font-family:'LucidaGrande', 'Lucida Grande', sans-serif;font-weight:500;font-size:34.287px;">Concrete</text>
        </g>
        <g>
            <g>
                <g transform="matrix(1,0,0,1,94.112,457.868)">
                    <text x="0px" y="0px" style="font-family:'LucidaGrande', 'Lucida Grande', sans-serif;font-weight:500;font-size:25px;">h</text>
                </g>
                <g transform="matrix(1,0,0,1,107.865,457.868)">
                    <text x="0px" y="0px" style="font-family:'LucidaGrande', 'Lucida Grande', sans-serif;font-weight:500;font-size:25px;">eat source (solid phase only)</text>
                </g>
            </g>
            <g transform="matrix(1,0,0,1,94.112,492.018)">
                <text x="0px" y="0px" style="font-family:'LucidaGrande', 'Lucida Grande', sans-serif;font-weight:500;font-size:25px;">burner surface</text>
            </g>
            <g>
                <g transform="matrix(1,0,0,1,94.112,526.168)">
                    <text x="0px" y="0px" style="font-family:'LucidaGrande', 'Lucida Grande', sans-serif;font-weight:500;font-size:25px;">i</text>
                </g>
                <g transform="matrix(1,0,0,1,99.699,526.168)">
                    <text x="0px" y="0px" style="font-family:'LucidaGrande', 'Lucida Grande', sans-serif;font-weight:500;font-size:25px;">solation</text>
                </g>
            </g>
        </g>
        <g transform="matrix(-1,0,0,1,129.23,416.328)">
            <rect x="50.769" y="47.998" width="27.692" height="27.693" style="fill:rgb(114,0,14);"/>
        </g>
        <g transform="matrix(-1,0,0,1,129.23,348.026)">
            <rect x="50.769" y="82.149" width="27.692" height="27.693" style="fill:rgb(153,63,165);"/>
        </g>
        <g transform="matrix(1,0,0,1,75.0323,336.501)">
            <path d="M0,-85.138L230.737,-58.867L358.99,-44.266L366.972,-43.358L616.865,-14.907L760.655,1.464L768.446,-47.791L768.985,-53.573L783.081,-52.077L774.431,9.771L-18.211,-81.216L-1.239,-94.909L0,-85.138Z" style="fill-rule:nonzero;"/>
        </g>
        <g transform="matrix(1,0,0,1,464.573,273.441)">
            <path d="M0,-13.564L-0.184,-25.24L233.396,-0.281L232.838,10.622L232.468,11.676L0,-13.564Z" style="fill-rule:nonzero;"/>
        </g>
        <g transform="matrix(0.994425,0.105449,0.105449,-0.994425,466.562,230.413)">
            <path d="M-0.956,-12.42L234.314,-12.42L234.624,-18.107L-0.285,-17.918L-0.956,-12.42Z" style="fill-rule:nonzero;"/>
        </g>
        <g transform="matrix(-0.0961439,0.995367,0.995367,0.0961439,376.166,697.948)">
            <path d="M-395.552,437.294L-382.613,437.294L-398.349,-357.745L-409.91,-360.424L-395.552,437.294Z" style="fill-rule:nonzero;"/>
        </g>
        <g transform="matrix(0.994425,0.105449,0.105449,-0.994425,466.262,230.397)">
            <path d="M-0.656,-12.405L234.614,-12.405" style="fill:none;fill-rule:nonzero;stroke:black;stroke-width:0.5px;"/>
        </g>
        <g transform="matrix(-0.99327,-0.115822,-0.115822,0.99327,66.3679,221.619)">
            <path d="M-792.519,46.05L2.676,46.051" style="fill:none;fill-rule:nonzero;stroke:black;stroke-width:0.5px;"/>
        </g>
        <g transform="matrix(-0.993476,-0.114041,-0.114041,0.993476,64.5952,210.385)">
            <path d="M-795.245,45.494L2.603,45.494" style="fill:none;fill-rule:nonzero;stroke:black;stroke-width:0.5px;"/>
        </g>
        <g transform="matrix(-0.131021,-0.99138,-0.99138,0.131021,63.3295,259.626)">
            <path d="M-6.712,5.883L5.157,5.883" style="fill:none;fill-rule:nonzero;stroke:black;stroke-width:0.5px;"/>
        </g>
        <g transform="matrix(0.778281,-0.627916,-0.627916,-0.778281,63.0019,259.095)">
            <path d="M-2.418,6.847L19.39,6.847" style="fill:none;fill-rule:nonzero;stroke:black;stroke-width:0.5px;"/>
        </g>
        <g transform="matrix(-0.994157,-0.10794,-0.10794,0.994157,466.615,247.405)">
            <path d="M-233.151,12.62L0.683,12.62" style="fill:none;fill-rule:nonzero;stroke:black;stroke-width:0.5px;"/>
        </g>
        <g transform="matrix(-0.99434,-0.106249,-0.106249,0.99434,466.376,235.863)">
            <path d="M-234.245,12.48L0.665,12.48" style="fill:none;fill-rule:nonzero;stroke:black;stroke-width:0.5px;"/>
        </g>
        <g transform="matrix(0.994158,0.107938,0.107938,-0.994158,591.193,267.795)">
            <path d="M-0.314,-5.797L107.1,-5.797" style="fill:none;fill-rule:nonzero;stroke:black;stroke-width:0.5px;"/>
        </g>
        <g transform="matrix(0.994175,0.107782,0.107782,-0.994175,574.856,264.035)">
            <path d="M-0.362,-6.702L124,-6.702" style="fill:none;fill-rule:nonzero;stroke:black;stroke-width:0.5px;"/>
        </g>
        <g transform="matrix(-1,0,0,1,129.23,484.63)">
            <rect x="50.769" y="13.847" width="27.692" height="27.693"/>
        </g>
    </g>
</svg>
