<?xml version="1.0" encoding="utf-8" standalone="no"?>
<!DOCTYPE svg PUBLIC "-//W3C//DTD SVG 1.1//EN"
  "http://www.w3.org/Graphics/SVG/1.1/DTD/svg11.dtd">
<svg height="262.19625pt" version="1.1" viewBox="0 0 398.509375 262.19625" width="398.509375pt" xmlns="http://www.w3.org/2000/svg" xmlns:xlink="http://www.w3.org/1999/xlink">
 <metadata>
  <rdf:RDF xmlns:cc="http://creativecommons.org/ns#" xmlns:dc="http://purl.org/dc/elements/1.1/" xmlns:rdf="http://www.w3.org/1999/02/22-rdf-syntax-ns#">
   <cc:Work>
    <dc:type rdf:resource="http://purl.org/dc/dcmitype/StillImage"/>
    <dc:date>2021-07-01T18:30:18.811008</dc:date>
    <dc:format>image/svg+xml</dc:format>
    <dc:creator>
     <cc:Agent>
      <dc:title>Matplotlib v3.4.1, https://matplotlib.org/</dc:title>
     </cc:Agent>
    </dc:creator>
   </cc:Work>
  </rdf:RDF>
 </metadata>
 <defs>
  <style type="text/css">*{stroke-linecap:butt;stroke-linejoin:round;}</style>
 </defs>
 <g id="figure_1">
  <g id="patch_1">
   <path d="M 0 262.19625 
L 398.509375 262.19625 
L 398.509375 0 
L 0 0 
z
" style="fill:none;"/>
  </g>
  <g id="axes_1">
   <g id="patch_2">
    <path d="M 46.965625 224.64 
L 381.765625 224.64 
L 381.765625 7.2 
L 46.965625 7.2 
z
" style="fill:#ffffff;"/>
   </g>
   <g id="matplotlib.axis_1">
    <g id="xtick_1">
     <g id="line2d_1">
      <path clip-path="url(#p76dc7e23e0)" d="M 46.965625 224.64 
L 46.965625 7.2 
" style="fill:none;stroke:#b0b0b0;stroke-dasharray:2.96,1.28;stroke-dashoffset:0;stroke-opacity:0.5;stroke-width:0.8;"/>
     </g>
     <g id="line2d_2">
      <defs>
       <path d="M 0 0 
L 0 3.5 
" id="m3cc61efaf0" style="stroke:#000000;stroke-width:0.8;"/>
      </defs>
      <g>
       <use style="stroke:#000000;stroke-width:0.8;" x="46.965625" xlink:href="#m3cc61efaf0" y="224.64"/>
      </g>
     </g>
     <g id="text_1">
      <!-- 0 -->
      <g transform="translate(43.784375 239.238437)scale(0.1 -0.1)">
       <defs>
        <path d="M 2034 4250 
Q 1547 4250 1301 3770 
Q 1056 3291 1056 2328 
Q 1056 1369 1301 889 
Q 1547 409 2034 409 
Q 2525 409 2770 889 
Q 3016 1369 3016 2328 
Q 3016 3291 2770 3770 
Q 2525 4250 2034 4250 
z
M 2034 4750 
Q 2819 4750 3233 4129 
Q 3647 3509 3647 2328 
Q 3647 1150 3233 529 
Q 2819 -91 2034 -91 
Q 1250 -91 836 529 
Q 422 1150 422 2328 
Q 422 3509 836 4129 
Q 1250 4750 2034 4750 
z
" id="DejaVuSans-30" transform="scale(0.015625)"/>
       </defs>
       <use xlink:href="#DejaVuSans-30"/>
      </g>
     </g>
    </g>
    <g id="xtick_2">
     <g id="line2d_3">
      <path clip-path="url(#p76dc7e23e0)" d="M 113.925625 224.64 
L 113.925625 7.2 
" style="fill:none;stroke:#b0b0b0;stroke-dasharray:2.96,1.28;stroke-dashoffset:0;stroke-opacity:0.5;stroke-width:0.8;"/>
     </g>
     <g id="line2d_4">
      <g>
       <use style="stroke:#000000;stroke-width:0.8;" x="113.925625" xlink:href="#m3cc61efaf0" y="224.64"/>
      </g>
     </g>
     <g id="text_2">
      <!-- 20 -->
      <g transform="translate(107.563125 239.238437)scale(0.1 -0.1)">
       <defs>
        <path d="M 1228 531 
L 3431 531 
L 3431 0 
L 469 0 
L 469 531 
Q 828 903 1448 1529 
Q 2069 2156 2228 2338 
Q 2531 2678 2651 2914 
Q 2772 3150 2772 3378 
Q 2772 3750 2511 3984 
Q 2250 4219 1831 4219 
Q 1534 4219 1204 4116 
Q 875 4013 500 3803 
L 500 4441 
Q 881 4594 1212 4672 
Q 1544 4750 1819 4750 
Q 2544 4750 2975 4387 
Q 3406 4025 3406 3419 
Q 3406 3131 3298 2873 
Q 3191 2616 2906 2266 
Q 2828 2175 2409 1742 
Q 1991 1309 1228 531 
z
" id="DejaVuSans-32" transform="scale(0.015625)"/>
       </defs>
       <use xlink:href="#DejaVuSans-32"/>
       <use x="63.623047" xlink:href="#DejaVuSans-30"/>
      </g>
     </g>
    </g>
    <g id="xtick_3">
     <g id="line2d_5">
      <path clip-path="url(#p76dc7e23e0)" d="M 180.885625 224.64 
L 180.885625 7.2 
" style="fill:none;stroke:#b0b0b0;stroke-dasharray:2.96,1.28;stroke-dashoffset:0;stroke-opacity:0.5;stroke-width:0.8;"/>
     </g>
     <g id="line2d_6">
      <g>
       <use style="stroke:#000000;stroke-width:0.8;" x="180.885625" xlink:href="#m3cc61efaf0" y="224.64"/>
      </g>
     </g>
     <g id="text_3">
      <!-- 40 -->
      <g transform="translate(174.523125 239.238437)scale(0.1 -0.1)">
       <defs>
        <path d="M 2419 4116 
L 825 1625 
L 2419 1625 
L 2419 4116 
z
M 2253 4666 
L 3047 4666 
L 3047 1625 
L 3713 1625 
L 3713 1100 
L 3047 1100 
L 3047 0 
L 2419 0 
L 2419 1100 
L 313 1100 
L 313 1709 
L 2253 4666 
z
" id="DejaVuSans-34" transform="scale(0.015625)"/>
       </defs>
       <use xlink:href="#DejaVuSans-34"/>
       <use x="63.623047" xlink:href="#DejaVuSans-30"/>
      </g>
     </g>
    </g>
    <g id="xtick_4">
     <g id="line2d_7">
      <path clip-path="url(#p76dc7e23e0)" d="M 247.845625 224.64 
L 247.845625 7.2 
" style="fill:none;stroke:#b0b0b0;stroke-dasharray:2.96,1.28;stroke-dashoffset:0;stroke-opacity:0.5;stroke-width:0.8;"/>
     </g>
     <g id="line2d_8">
      <g>
       <use style="stroke:#000000;stroke-width:0.8;" x="247.845625" xlink:href="#m3cc61efaf0" y="224.64"/>
      </g>
     </g>
     <g id="text_4">
      <!-- 60 -->
      <g transform="translate(241.483125 239.238437)scale(0.1 -0.1)">
       <defs>
        <path d="M 2113 2584 
Q 1688 2584 1439 2293 
Q 1191 2003 1191 1497 
Q 1191 994 1439 701 
Q 1688 409 2113 409 
Q 2538 409 2786 701 
Q 3034 994 3034 1497 
Q 3034 2003 2786 2293 
Q 2538 2584 2113 2584 
z
M 3366 4563 
L 3366 3988 
Q 3128 4100 2886 4159 
Q 2644 4219 2406 4219 
Q 1781 4219 1451 3797 
Q 1122 3375 1075 2522 
Q 1259 2794 1537 2939 
Q 1816 3084 2150 3084 
Q 2853 3084 3261 2657 
Q 3669 2231 3669 1497 
Q 3669 778 3244 343 
Q 2819 -91 2113 -91 
Q 1303 -91 875 529 
Q 447 1150 447 2328 
Q 447 3434 972 4092 
Q 1497 4750 2381 4750 
Q 2619 4750 2861 4703 
Q 3103 4656 3366 4563 
z
" id="DejaVuSans-36" transform="scale(0.015625)"/>
       </defs>
       <use xlink:href="#DejaVuSans-36"/>
       <use x="63.623047" xlink:href="#DejaVuSans-30"/>
      </g>
     </g>
    </g>
    <g id="xtick_5">
     <g id="line2d_9">
      <path clip-path="url(#p76dc7e23e0)" d="M 314.805625 224.64 
L 314.805625 7.2 
" style="fill:none;stroke:#b0b0b0;stroke-dasharray:2.96,1.28;stroke-dashoffset:0;stroke-opacity:0.5;stroke-width:0.8;"/>
     </g>
     <g id="line2d_10">
      <g>
       <use style="stroke:#000000;stroke-width:0.8;" x="314.805625" xlink:href="#m3cc61efaf0" y="224.64"/>
      </g>
     </g>
     <g id="text_5">
      <!-- 80 -->
      <g transform="translate(308.443125 239.238437)scale(0.1 -0.1)">
       <defs>
        <path d="M 2034 2216 
Q 1584 2216 1326 1975 
Q 1069 1734 1069 1313 
Q 1069 891 1326 650 
Q 1584 409 2034 409 
Q 2484 409 2743 651 
Q 3003 894 3003 1313 
Q 3003 1734 2745 1975 
Q 2488 2216 2034 2216 
z
M 1403 2484 
Q 997 2584 770 2862 
Q 544 3141 544 3541 
Q 544 4100 942 4425 
Q 1341 4750 2034 4750 
Q 2731 4750 3128 4425 
Q 3525 4100 3525 3541 
Q 3525 3141 3298 2862 
Q 3072 2584 2669 2484 
Q 3125 2378 3379 2068 
Q 3634 1759 3634 1313 
Q 3634 634 3220 271 
Q 2806 -91 2034 -91 
Q 1263 -91 848 271 
Q 434 634 434 1313 
Q 434 1759 690 2068 
Q 947 2378 1403 2484 
z
M 1172 3481 
Q 1172 3119 1398 2916 
Q 1625 2713 2034 2713 
Q 2441 2713 2670 2916 
Q 2900 3119 2900 3481 
Q 2900 3844 2670 4047 
Q 2441 4250 2034 4250 
Q 1625 4250 1398 4047 
Q 1172 3844 1172 3481 
z
" id="DejaVuSans-38" transform="scale(0.015625)"/>
       </defs>
       <use xlink:href="#DejaVuSans-38"/>
       <use x="63.623047" xlink:href="#DejaVuSans-30"/>
      </g>
     </g>
    </g>
    <g id="xtick_6">
     <g id="line2d_11">
      <path clip-path="url(#p76dc7e23e0)" d="M 381.765625 224.64 
L 381.765625 7.2 
" style="fill:none;stroke:#b0b0b0;stroke-dasharray:2.96,1.28;stroke-dashoffset:0;stroke-opacity:0.5;stroke-width:0.8;"/>
     </g>
     <g id="line2d_12">
      <g>
       <use style="stroke:#000000;stroke-width:0.8;" x="381.765625" xlink:href="#m3cc61efaf0" y="224.64"/>
      </g>
     </g>
     <g id="text_6">
      <!-- 100 -->
      <g transform="translate(372.221875 239.238437)scale(0.1 -0.1)">
       <defs>
        <path d="M 794 531 
L 1825 531 
L 1825 4091 
L 703 3866 
L 703 4441 
L 1819 4666 
L 2450 4666 
L 2450 531 
L 3481 531 
L 3481 0 
L 794 0 
L 794 531 
z
" id="DejaVuSans-31" transform="scale(0.015625)"/>
       </defs>
       <use xlink:href="#DejaVuSans-31"/>
       <use x="63.623047" xlink:href="#DejaVuSans-30"/>
       <use x="127.246094" xlink:href="#DejaVuSans-30"/>
      </g>
     </g>
    </g>
    <g id="text_7">
     <!-- Time / s -->
     <g transform="translate(194.664844 252.916562)scale(0.1 -0.1)">
      <defs>
       <path d="M -19 4666 
L 3928 4666 
L 3928 4134 
L 2272 4134 
L 2272 0 
L 1638 0 
L 1638 4134 
L -19 4134 
L -19 4666 
z
" id="DejaVuSans-54" transform="scale(0.015625)"/>
       <path d="M 603 3500 
L 1178 3500 
L 1178 0 
L 603 0 
L 603 3500 
z
M 603 4863 
L 1178 4863 
L 1178 4134 
L 603 4134 
L 603 4863 
z
" id="DejaVuSans-69" transform="scale(0.015625)"/>
       <path d="M 3328 2828 
Q 3544 3216 3844 3400 
Q 4144 3584 4550 3584 
Q 5097 3584 5394 3201 
Q 5691 2819 5691 2113 
L 5691 0 
L 5113 0 
L 5113 2094 
Q 5113 2597 4934 2840 
Q 4756 3084 4391 3084 
Q 3944 3084 3684 2787 
Q 3425 2491 3425 1978 
L 3425 0 
L 2847 0 
L 2847 2094 
Q 2847 2600 2669 2842 
Q 2491 3084 2119 3084 
Q 1678 3084 1418 2786 
Q 1159 2488 1159 1978 
L 1159 0 
L 581 0 
L 581 3500 
L 1159 3500 
L 1159 2956 
Q 1356 3278 1631 3431 
Q 1906 3584 2284 3584 
Q 2666 3584 2933 3390 
Q 3200 3197 3328 2828 
z
" id="DejaVuSans-6d" transform="scale(0.015625)"/>
       <path d="M 3597 1894 
L 3597 1613 
L 953 1613 
Q 991 1019 1311 708 
Q 1631 397 2203 397 
Q 2534 397 2845 478 
Q 3156 559 3463 722 
L 3463 178 
Q 3153 47 2828 -22 
Q 2503 -91 2169 -91 
Q 1331 -91 842 396 
Q 353 884 353 1716 
Q 353 2575 817 3079 
Q 1281 3584 2069 3584 
Q 2775 3584 3186 3129 
Q 3597 2675 3597 1894 
z
M 3022 2063 
Q 3016 2534 2758 2815 
Q 2500 3097 2075 3097 
Q 1594 3097 1305 2825 
Q 1016 2553 972 2059 
L 3022 2063 
z
" id="DejaVuSans-65" transform="scale(0.015625)"/>
       <path id="DejaVuSans-20" transform="scale(0.015625)"/>
       <path d="M 1625 4666 
L 2156 4666 
L 531 -594 
L 0 -594 
L 1625 4666 
z
" id="DejaVuSans-2f" transform="scale(0.015625)"/>
       <path d="M 2834 3397 
L 2834 2853 
Q 2591 2978 2328 3040 
Q 2066 3103 1784 3103 
Q 1356 3103 1142 2972 
Q 928 2841 928 2578 
Q 928 2378 1081 2264 
Q 1234 2150 1697 2047 
L 1894 2003 
Q 2506 1872 2764 1633 
Q 3022 1394 3022 966 
Q 3022 478 2636 193 
Q 2250 -91 1575 -91 
Q 1294 -91 989 -36 
Q 684 19 347 128 
L 347 722 
Q 666 556 975 473 
Q 1284 391 1588 391 
Q 1994 391 2212 530 
Q 2431 669 2431 922 
Q 2431 1156 2273 1281 
Q 2116 1406 1581 1522 
L 1381 1569 
Q 847 1681 609 1914 
Q 372 2147 372 2553 
Q 372 3047 722 3315 
Q 1072 3584 1716 3584 
Q 2034 3584 2315 3537 
Q 2597 3491 2834 3397 
z
" id="DejaVuSans-73" transform="scale(0.015625)"/>
      </defs>
      <use xlink:href="#DejaVuSans-54"/>
      <use x="57.958984" xlink:href="#DejaVuSans-69"/>
      <use x="85.742188" xlink:href="#DejaVuSans-6d"/>
      <use x="183.154297" xlink:href="#DejaVuSans-65"/>
      <use x="244.677734" xlink:href="#DejaVuSans-20"/>
      <use x="276.464844" xlink:href="#DejaVuSans-2f"/>
      <use x="310.15625" xlink:href="#DejaVuSans-20"/>
      <use x="341.943359" xlink:href="#DejaVuSans-73"/>
     </g>
    </g>
   </g>
   <g id="matplotlib.axis_2">
    <g id="ytick_1">
     <g id="line2d_13">
      <path clip-path="url(#p76dc7e23e0)" d="M 46.965625 222.387926 
L 381.765625 222.387926 
" style="fill:none;stroke:#b0b0b0;stroke-dasharray:2.96,1.28;stroke-dashoffset:0;stroke-opacity:0.5;stroke-width:0.8;"/>
     </g>
     <g id="line2d_14">
      <defs>
       <path d="M 0 0 
L -3.5 0 
" id="m0d434b46fa" style="stroke:#000000;stroke-width:0.8;"/>
      </defs>
      <g>
       <use style="stroke:#000000;stroke-width:0.8;" x="46.965625" xlink:href="#m0d434b46fa" y="222.387926"/>
      </g>
     </g>
     <g id="text_8">
      <!-- 0 -->
      <g transform="translate(33.603125 226.187144)scale(0.1 -0.1)">
       <use xlink:href="#DejaVuSans-30"/>
      </g>
     </g>
    </g>
    <g id="ytick_2">
     <g id="line2d_15">
      <path clip-path="url(#p76dc7e23e0)" d="M 46.965625 184.230112 
L 381.765625 184.230112 
" style="fill:none;stroke:#b0b0b0;stroke-dasharray:2.96,1.28;stroke-dashoffset:0;stroke-opacity:0.5;stroke-width:0.8;"/>
     </g>
     <g id="line2d_16">
      <g>
       <use style="stroke:#000000;stroke-width:0.8;" x="46.965625" xlink:href="#m0d434b46fa" y="184.230112"/>
      </g>
     </g>
     <g id="text_9">
      <!-- 100 -->
      <g transform="translate(20.878125 188.029331)scale(0.1 -0.1)">
       <use xlink:href="#DejaVuSans-31"/>
       <use x="63.623047" xlink:href="#DejaVuSans-30"/>
       <use x="127.246094" xlink:href="#DejaVuSans-30"/>
      </g>
     </g>
    </g>
    <g id="ytick_3">
     <g id="line2d_17">
      <path clip-path="url(#p76dc7e23e0)" d="M 46.965625 146.072299 
L 381.765625 146.072299 
" style="fill:none;stroke:#b0b0b0;stroke-dasharray:2.96,1.28;stroke-dashoffset:0;stroke-opacity:0.5;stroke-width:0.8;"/>
     </g>
     <g id="line2d_18">
      <g>
       <use style="stroke:#000000;stroke-width:0.8;" x="46.965625" xlink:href="#m0d434b46fa" y="146.072299"/>
      </g>
     </g>
     <g id="text_10">
      <!-- 200 -->
      <g transform="translate(20.878125 149.871518)scale(0.1 -0.1)">
       <use xlink:href="#DejaVuSans-32"/>
       <use x="63.623047" xlink:href="#DejaVuSans-30"/>
       <use x="127.246094" xlink:href="#DejaVuSans-30"/>
      </g>
     </g>
    </g>
    <g id="ytick_4">
     <g id="line2d_19">
      <path clip-path="url(#p76dc7e23e0)" d="M 46.965625 107.914486 
L 381.765625 107.914486 
" style="fill:none;stroke:#b0b0b0;stroke-dasharray:2.96,1.28;stroke-dashoffset:0;stroke-opacity:0.5;stroke-width:0.8;"/>
     </g>
     <g id="line2d_20">
      <g>
       <use style="stroke:#000000;stroke-width:0.8;" x="46.965625" xlink:href="#m0d434b46fa" y="107.914486"/>
      </g>
     </g>
     <g id="text_11">
      <!-- 300 -->
      <g transform="translate(20.878125 111.713705)scale(0.1 -0.1)">
       <defs>
        <path d="M 2597 2516 
Q 3050 2419 3304 2112 
Q 3559 1806 3559 1356 
Q 3559 666 3084 287 
Q 2609 -91 1734 -91 
Q 1441 -91 1130 -33 
Q 819 25 488 141 
L 488 750 
Q 750 597 1062 519 
Q 1375 441 1716 441 
Q 2309 441 2620 675 
Q 2931 909 2931 1356 
Q 2931 1769 2642 2001 
Q 2353 2234 1838 2234 
L 1294 2234 
L 1294 2753 
L 1863 2753 
Q 2328 2753 2575 2939 
Q 2822 3125 2822 3475 
Q 2822 3834 2567 4026 
Q 2313 4219 1838 4219 
Q 1578 4219 1281 4162 
Q 984 4106 628 3988 
L 628 4550 
Q 988 4650 1302 4700 
Q 1616 4750 1894 4750 
Q 2613 4750 3031 4423 
Q 3450 4097 3450 3541 
Q 3450 3153 3228 2886 
Q 3006 2619 2597 2516 
z
" id="DejaVuSans-33" transform="scale(0.015625)"/>
       </defs>
       <use xlink:href="#DejaVuSans-33"/>
       <use x="63.623047" xlink:href="#DejaVuSans-30"/>
       <use x="127.246094" xlink:href="#DejaVuSans-30"/>
      </g>
     </g>
    </g>
    <g id="ytick_5">
     <g id="line2d_21">
      <path clip-path="url(#p76dc7e23e0)" d="M 46.965625 69.756673 
L 381.765625 69.756673 
" style="fill:none;stroke:#b0b0b0;stroke-dasharray:2.96,1.28;stroke-dashoffset:0;stroke-opacity:0.5;stroke-width:0.8;"/>
     </g>
     <g id="line2d_22">
      <g>
       <use style="stroke:#000000;stroke-width:0.8;" x="46.965625" xlink:href="#m0d434b46fa" y="69.756673"/>
      </g>
     </g>
     <g id="text_12">
      <!-- 400 -->
      <g transform="translate(20.878125 73.555892)scale(0.1 -0.1)">
       <use xlink:href="#DejaVuSans-34"/>
       <use x="63.623047" xlink:href="#DejaVuSans-30"/>
       <use x="127.246094" xlink:href="#DejaVuSans-30"/>
      </g>
     </g>
    </g>
    <g id="ytick_6">
     <g id="line2d_23">
      <path clip-path="url(#p76dc7e23e0)" d="M 46.965625 31.59886 
L 381.765625 31.59886 
" style="fill:none;stroke:#b0b0b0;stroke-dasharray:2.96,1.28;stroke-dashoffset:0;stroke-opacity:0.5;stroke-width:0.8;"/>
     </g>
     <g id="line2d_24">
      <g>
       <use style="stroke:#000000;stroke-width:0.8;" x="46.965625" xlink:href="#m0d434b46fa" y="31.59886"/>
      </g>
     </g>
     <g id="text_13">
      <!-- 500 -->
      <g transform="translate(20.878125 35.398079)scale(0.1 -0.1)">
       <defs>
        <path d="M 691 4666 
L 3169 4666 
L 3169 4134 
L 1269 4134 
L 1269 2991 
Q 1406 3038 1543 3061 
Q 1681 3084 1819 3084 
Q 2600 3084 3056 2656 
Q 3513 2228 3513 1497 
Q 3513 744 3044 326 
Q 2575 -91 1722 -91 
Q 1428 -91 1123 -41 
Q 819 9 494 109 
L 494 744 
Q 775 591 1075 516 
Q 1375 441 1709 441 
Q 2250 441 2565 725 
Q 2881 1009 2881 1497 
Q 2881 1984 2565 2268 
Q 2250 2553 1709 2553 
Q 1456 2553 1204 2497 
Q 953 2441 691 2322 
L 691 4666 
z
" id="DejaVuSans-35" transform="scale(0.015625)"/>
       </defs>
       <use xlink:href="#DejaVuSans-35"/>
       <use x="63.623047" xlink:href="#DejaVuSans-30"/>
       <use x="127.246094" xlink:href="#DejaVuSans-30"/>
      </g>
     </g>
    </g>
    <g id="text_14">
     <!-- Temperature / $\circ C$ -->
     <g transform="translate(14.778125 160.07)rotate(-90)scale(0.1 -0.1)">
      <defs>
       <path d="M 1159 525 
L 1159 -1331 
L 581 -1331 
L 581 3500 
L 1159 3500 
L 1159 2969 
Q 1341 3281 1617 3432 
Q 1894 3584 2278 3584 
Q 2916 3584 3314 3078 
Q 3713 2572 3713 1747 
Q 3713 922 3314 415 
Q 2916 -91 2278 -91 
Q 1894 -91 1617 61 
Q 1341 213 1159 525 
z
M 3116 1747 
Q 3116 2381 2855 2742 
Q 2594 3103 2138 3103 
Q 1681 3103 1420 2742 
Q 1159 2381 1159 1747 
Q 1159 1113 1420 752 
Q 1681 391 2138 391 
Q 2594 391 2855 752 
Q 3116 1113 3116 1747 
z
" id="DejaVuSans-70" transform="scale(0.015625)"/>
       <path d="M 2631 2963 
Q 2534 3019 2420 3045 
Q 2306 3072 2169 3072 
Q 1681 3072 1420 2755 
Q 1159 2438 1159 1844 
L 1159 0 
L 581 0 
L 581 3500 
L 1159 3500 
L 1159 2956 
Q 1341 3275 1631 3429 
Q 1922 3584 2338 3584 
Q 2397 3584 2469 3576 
Q 2541 3569 2628 3553 
L 2631 2963 
z
" id="DejaVuSans-72" transform="scale(0.015625)"/>
       <path d="M 2194 1759 
Q 1497 1759 1228 1600 
Q 959 1441 959 1056 
Q 959 750 1161 570 
Q 1363 391 1709 391 
Q 2188 391 2477 730 
Q 2766 1069 2766 1631 
L 2766 1759 
L 2194 1759 
z
M 3341 1997 
L 3341 0 
L 2766 0 
L 2766 531 
Q 2569 213 2275 61 
Q 1981 -91 1556 -91 
Q 1019 -91 701 211 
Q 384 513 384 1019 
Q 384 1609 779 1909 
Q 1175 2209 1959 2209 
L 2766 2209 
L 2766 2266 
Q 2766 2663 2505 2880 
Q 2244 3097 1772 3097 
Q 1472 3097 1187 3025 
Q 903 2953 641 2809 
L 641 3341 
Q 956 3463 1253 3523 
Q 1550 3584 1831 3584 
Q 2591 3584 2966 3190 
Q 3341 2797 3341 1997 
z
" id="DejaVuSans-61" transform="scale(0.015625)"/>
       <path d="M 1172 4494 
L 1172 3500 
L 2356 3500 
L 2356 3053 
L 1172 3053 
L 1172 1153 
Q 1172 725 1289 603 
Q 1406 481 1766 481 
L 2356 481 
L 2356 0 
L 1766 0 
Q 1100 0 847 248 
Q 594 497 594 1153 
L 594 3053 
L 172 3053 
L 172 3500 
L 594 3500 
L 594 4494 
L 1172 4494 
z
" id="DejaVuSans-74" transform="scale(0.015625)"/>
       <path d="M 544 1381 
L 544 3500 
L 1119 3500 
L 1119 1403 
Q 1119 906 1312 657 
Q 1506 409 1894 409 
Q 2359 409 2629 706 
Q 2900 1003 2900 1516 
L 2900 3500 
L 3475 3500 
L 3475 0 
L 2900 0 
L 2900 538 
Q 2691 219 2414 64 
Q 2138 -91 1772 -91 
Q 1169 -91 856 284 
Q 544 659 544 1381 
z
M 1991 3584 
L 1991 3584 
z
" id="DejaVuSans-75" transform="scale(0.015625)"/>
       <path d="M 2000 2619 
Q 1750 2619 1578 2445 
Q 1406 2272 1406 2022 
Q 1406 1775 1578 1605 
Q 1750 1435 2000 1435 
Q 2250 1435 2422 1605 
Q 2594 1775 2594 2022 
Q 2594 2269 2420 2444 
Q 2247 2619 2000 2619 
z
M 2000 3022 
Q 2200 3022 2384 2945 
Q 2569 2869 2703 2725 
Q 2847 2585 2919 2406 
Q 2991 2228 2991 2022 
Q 2991 1610 2702 1324 
Q 2413 1038 1994 1038 
Q 1572 1038 1290 1319 
Q 1009 1600 1009 2022 
Q 1009 2441 1296 2731 
Q 1584 3022 2000 3022 
z
" id="DejaVuSans-2218" transform="scale(0.015625)"/>
       <path d="M 4447 4306 
L 4319 3641 
Q 4019 3944 3683 4091 
Q 3347 4238 2956 4238 
Q 2422 4238 2017 3981 
Q 1613 3725 1319 3200 
Q 1131 2863 1032 2486 
Q 934 2109 934 1728 
Q 934 1091 1264 756 
Q 1594 422 2222 422 
Q 2656 422 3056 561 
Q 3456 700 3834 978 
L 3688 231 
Q 3316 72 2936 -9 
Q 2556 -91 2175 -91 
Q 1278 -91 773 396 
Q 269 884 269 1753 
Q 269 2309 461 2846 
Q 653 3384 1013 3828 
Q 1394 4300 1883 4525 
Q 2372 4750 3022 4750 
Q 3422 4750 3780 4639 
Q 4138 4528 4447 4306 
z
" id="DejaVuSans-Oblique-43" transform="scale(0.015625)"/>
      </defs>
      <use transform="translate(0 0.78125)" xlink:href="#DejaVuSans-54"/>
      <use transform="translate(61.083984 0.78125)" xlink:href="#DejaVuSans-65"/>
      <use transform="translate(122.607422 0.78125)" xlink:href="#DejaVuSans-6d"/>
      <use transform="translate(220.019531 0.78125)" xlink:href="#DejaVuSans-70"/>
      <use transform="translate(283.496094 0.78125)" xlink:href="#DejaVuSans-65"/>
      <use transform="translate(345.019531 0.78125)" xlink:href="#DejaVuSans-72"/>
      <use transform="translate(386.132812 0.78125)" xlink:href="#DejaVuSans-61"/>
      <use transform="translate(447.412109 0.78125)" xlink:href="#DejaVuSans-74"/>
      <use transform="translate(486.621094 0.78125)" xlink:href="#DejaVuSans-75"/>
      <use transform="translate(550 0.78125)" xlink:href="#DejaVuSans-72"/>
      <use transform="translate(591.113281 0.78125)" xlink:href="#DejaVuSans-65"/>
      <use transform="translate(652.636719 0.78125)" xlink:href="#DejaVuSans-20"/>
      <use transform="translate(684.423828 0.78125)" xlink:href="#DejaVuSans-2f"/>
      <use transform="translate(718.115234 0.78125)" xlink:href="#DejaVuSans-20"/>
      <use transform="translate(749.902344 0.78125)" xlink:href="#DejaVuSans-2218"/>
      <use transform="translate(812.5 0.78125)" xlink:href="#DejaVuSans-Oblique-43"/>
     </g>
    </g>
   </g>
   <g id="line2d_25">
    <path clip-path="url(#p76dc7e23e0)" d="M 46.965625 214.756364 
L 49.333018 214.732285 
L 51.226933 214.57966 
L 53.120848 214.089675 
L 55.124765 213.105549 
L 57.107357 211.169874 
L 59.088228 207.578001 
L 61.121295 203.009857 
L 67.14674 190.657619 
L 71.22484 182.344746 
L 73.226815 178.024388 
L 87.302298 150.512227 
L 95.400001 135.440234 
L 97.294892 131.523783 
L 107.446768 112.083095 
L 113.465413 102.365033 
L 123.332903 87.970124 
L 131.41846 77.855369 
L 135.532214 73.396384 
L 137.545338 70.905099 
L 141.609187 66.591163 
L 143.571582 64.316425 
L 147.431717 60.824999 
L 153.620493 56.182434 
L 155.474905 54.821932 
L 161.548148 50.075682 
L 165.627872 47.906714 
L 167.591238 46.953374 
L 169.554605 45.829659 
L 171.517971 44.479987 
L 173.732338 43.412271 
L 175.614745 42.636049 
L 177.547357 41.60144 
L 181.688653 39.795582 
L 185.829961 38.53214 
L 187.624525 37.573572 
L 191.876269 36.051055 
L 193.768625 35.2952 
L 197.73039 34.174314 
L 199.84413 33.682844 
L 201.828965 33.428649 
L 205.798661 32.11638 
L 207.783509 31.375698 
L 213.749446 29.920885 
L 217.821749 29.039767 
L 221.74944 28.140901 
L 228.006773 27.449454 
L 231.850159 26.784068 
L 236.07788 26.302647 
L 237.889762 25.895334 
L 243.974896 25.391764 
L 248.039779 24.7465 
L 249.893974 24.541481 
L 253.944718 24.676748 
L 260.172741 23.991332 
L 262.122161 23.785848 
L 264.071593 23.876212 
L 268.172914 23.780374 
L 270.034299 23.632881 
L 276.100122 23.667699 
L 278.208714 23.465358 
L 282.101781 23.382913 
L 284.048302 23.165993 
L 288.219457 22.973713 
L 296.101173 23.182179 
L 304.29352 22.889894 
L 308.329169 23.00215 
L 316.381233 22.975576 
L 318.209258 22.857009 
L 324.186702 22.863716 
L 332.285791 23.372269 
L 334.30539 23.100642 
L 336.351555 22.958319 
L 340.388711 22.996258 
L 342.474493 22.839192 
L 344.482036 22.804164 
L 348.497123 23.069899 
L 352.598264 23.338662 
L 358.456754 23.371105 
L 362.499682 23.140397 
L 368.638074 22.553218 
L 370.406405 22.574318 
L 372.469454 22.380036 
L 374.532477 22.412106 
L 378.521203 22.882371 
L 380.448004 22.742796 
L 382.452942 22.869119 
L 382.452942 22.869119 
" style="fill:none;stroke:#ff0000;stroke-linecap:square;"/>
   </g>
   <g id="line2d_26">
    <path clip-path="url(#p76dc7e23e0)" d="M 46.965625 214.756363 
L 49.333018 214.656251 
L 51.226933 214.07955 
L 53.120848 212.965265 
L 55.124765 211.2783 
L 57.107357 197.51307 
L 59.088228 161.302295 
L 61.121295 160.4115 
L 63.148304 160.811017 
L 65.139862 155.176451 
L 67.14674 150.774893 
L 69.168938 145.400258 
L 71.22484 136.180933 
L 73.226815 136.311617 
L 75.265864 132.550683 
L 77.266172 129.270483 
L 79.239973 127.395914 
L 81.21377 120.242378 
L 83.132994 119.730541 
L 85.327364 115.53282 
L 87.302298 114.29438 
L 89.229862 111.150797 
L 91.187395 105.375014 
L 93.203652 96.60185 
L 95.400001 96.024301 
L 97.294892 94.704742 
L 99.213469 85.422524 
L 101.297852 83.503302 
L 103.434338 77.507642 
L 105.440553 76.970594 
L 107.446768 75.011233 
L 109.452983 83.332915 
L 111.459198 71.177658 
L 113.465413 77.457651 
L 115.471628 72.625088 
L 117.477849 72.487458 
L 119.505572 67.562843 
L 121.533301 61.693693 
L 123.332903 63.994049 
L 125.563407 60.312603 
L 127.515093 69.209319 
L 129.466773 57.255005 
L 131.41846 59.9637 
L 133.370147 61.590927 
L 135.532214 51.431758 
L 137.545338 51.367351 
L 139.492089 56.221607 
L 141.609187 43.739084 
L 143.571582 48.189812 
L 145.603232 51.806734 
L 147.431717 54.290881 
L 149.443054 51.186728 
L 151.559833 53.076382 
L 153.620493 49.437416 
L 155.474905 46.997822 
L 157.561134 39.446178 
L 159.50828 39.485864 
L 161.548148 46.978643 
L 163.664506 48.129538 
L 165.627872 50.944888 
L 167.591238 47.864327 
L 169.554605 37.618381 
L 171.517971 35.707824 
L 173.732338 46.303021 
L 175.614745 43.235561 
L 177.547357 37.507021 
L 179.75604 39.094656 
L 181.688653 44.382054 
L 183.621265 45.742427 
L 187.624525 33.107659 
L 189.750397 40.340094 
L 191.876269 33.193807 
L 193.768625 38.340338 
L 195.630623 38.351726 
L 197.73039 36.389256 
L 199.84413 44.00511 
L 201.828965 41.259874 
L 203.813813 31.037066 
L 205.798661 30.062696 
L 207.783509 31.274563 
L 209.768358 32.170878 
L 211.874038 33.366302 
L 213.749446 35.599317 
L 215.758803 32.325452 
L 217.821749 31.298167 
L 219.746405 29.026329 
L 221.74944 33.423805 
L 223.752462 39.76902 
L 225.810568 34.414909 
L 228.006773 32.881155 
L 229.928466 31.375139 
L 231.850159 28.529268 
L 233.964025 38.347534 
L 236.07788 26.460085 
L 237.889762 29.64807 
L 240.036426 34.936073 
L 241.835486 33.092847 
L 243.974896 29.252832 
L 245.9806 27.179096 
L 248.039779 28.931307 
L 249.893974 32.858133 
L 251.919346 40.285271 
L 253.944718 31.994121 
L 255.995404 28.889385 
L 257.944837 30.836927 
L 260.172741 26.417675 
L 262.122161 33.584515 
L 264.071593 32.89733 
L 266.090325 34.534268 
L 268.172914 29.352861 
L 270.034299 32.558837 
L 274.129361 36.120447 
L 278.208714 28.736442 
L 280.231073 33.782885 
L 282.101781 28.622579 
L 284.048302 27.332866 
L 286.272937 29.851284 
L 288.219457 32.99404 
L 290.036499 33.346425 
L 292.14596 34.65492 
L 294.255395 34.684463 
L 296.101173 31.168211 
L 298.289716 30.756263 
L 300.127345 31.348333 
L 302.190777 29.483028 
L 306.114266 34.158198 
L 310.143478 30.87575 
L 312.314089 33.835531 
L 314.216445 31.278347 
L 316.381233 29.285403 
L 318.209258 29.559662 
L 320.194042 35.647946 
L 322.413671 31.582755 
L 324.186702 33.529144 
L 326.321706 36.816715 
L 328.362353 37.055539 
L 330.232372 36.467556 
L 332.285791 31.356927 
L 334.30539 25.112078 
L 336.351555 30.154399 
L 338.302954 34.372498 
L 340.388711 30.537806 
L 342.474493 28.151021 
L 346.288835 35.775014 
L 348.497123 37.993426 
L 350.389977 37.206887 
L 352.598264 33.393877 
L 354.40984 36.072342 
L 356.524461 33.270989 
L 358.456754 31.645125 
L 360.403019 31.346365 
L 362.499682 25.844469 
L 364.62991 28.84567 
L 366.65541 23.488275 
L 368.638074 34.164673 
L 370.406405 27.965623 
L 372.469454 26.71867 
L 374.532477 37.853735 
L 376.595525 38.724093 
L 378.521203 33.723473 
L 380.448004 28.388669 
L 382.452942 38.442079 
L 382.452942 38.442079 
" style="fill:none;stroke:#ff0000;stroke-linecap:square;stroke-opacity:0.5;"/>
   </g>
   <g id="line2d_27">
    <path clip-path="url(#p76dc7e23e0)" d="M 46.965625 214.756364 
L 51.226933 214.695764 
L 53.120848 214.512146 
L 55.124765 214.131225 
L 57.107357 213.414524 
L 59.088228 212.420435 
L 61.121295 211.233556 
L 63.148304 208.752484 
L 67.14674 203.178601 
L 73.226815 194.892018 
L 79.239973 187.18888 
L 91.187395 170.449591 
L 93.203652 167.527539 
L 95.400001 164.635642 
L 99.213469 158.644424 
L 105.440553 150.351563 
L 107.446768 147.890717 
L 109.452983 144.917382 
L 111.459198 141.5565 
L 113.465413 138.617814 
L 117.477849 133.49965 
L 119.505572 130.357593 
L 125.563407 123.017448 
L 131.41846 116.66308 
L 133.370147 114.335626 
L 137.545338 109.786103 
L 139.492089 107.881205 
L 141.609187 106.169297 
L 149.443054 100.63893 
L 151.559833 98.928943 
L 159.50828 91.528135 
L 167.591238 87.097552 
L 169.554605 85.432643 
L 171.517971 84.228217 
L 173.732338 83.259064 
L 175.614745 82.628426 
L 177.547357 81.857712 
L 181.688653 78.94734 
L 187.624525 76.946663 
L 189.750397 75.455553 
L 191.876269 74.616554 
L 193.768625 74.336065 
L 195.630623 73.592961 
L 199.84413 72.369286 
L 201.828965 71.536494 
L 203.813813 71.434206 
L 205.798661 70.935469 
L 207.783509 69.636429 
L 209.768358 68.654047 
L 213.749446 67.625341 
L 219.746405 66.823291 
L 223.752462 66.310604 
L 225.810568 65.79348 
L 228.006773 65.407034 
L 229.928466 64.589857 
L 231.850159 64.038509 
L 233.964025 63.906468 
L 236.07788 63.499691 
L 240.036426 62.178677 
L 241.835486 61.670426 
L 245.9806 61.852877 
L 248.039779 61.607113 
L 249.893974 61.151322 
L 251.919346 60.392696 
L 253.944718 60.150413 
L 260.172741 60.507211 
L 262.122161 60.387619 
L 268.172914 59.116072 
L 270.034299 58.881743 
L 274.129361 59.08236 
L 280.231073 58.458546 
L 282.101781 58.497487 
L 284.048302 58.808963 
L 286.272937 58.513731 
L 288.219457 57.804164 
L 290.036499 57.453946 
L 294.255395 57.329451 
L 296.101173 57.618813 
L 300.127345 56.767098 
L 306.114266 57.595803 
L 310.143478 57.725969 
L 312.314089 57.502155 
L 316.381233 57.592252 
L 318.209258 57.269853 
L 320.194042 56.647296 
L 322.413671 56.58283 
L 324.186702 56.789794 
L 328.362353 56.587768 
L 330.232372 56.726493 
L 332.285791 56.575354 
L 334.30539 56.899372 
L 338.302954 55.899627 
L 340.388711 55.717141 
L 342.474493 54.997117 
L 344.482036 54.989758 
L 350.389977 55.781409 
L 352.598264 55.907406 
L 354.40984 56.164652 
L 356.524461 56.630341 
L 360.403019 56.174096 
L 362.499682 56.216111 
L 364.62991 56.027255 
L 366.65541 56.174609 
L 368.638074 55.970626 
L 370.406405 55.379359 
L 372.469454 55.592378 
L 374.532477 55.954242 
L 376.595525 55.976891 
L 378.521203 56.248705 
L 380.448004 56.325305 
L 382.452942 56.002219 
L 382.452942 56.002219 
" style="fill:none;stroke:#008000;stroke-linecap:square;"/>
   </g>
   <g id="line2d_28">
    <path clip-path="url(#p76dc7e23e0)" d="M 46.965625 214.756363 
L 49.333018 214.663818 
L 51.226933 214.138267 
L 53.120848 213.218716 
L 55.124765 211.858287 
L 57.107357 209.358335 
L 59.088228 206.017725 
L 61.121295 193.109501 
L 63.148304 159.462404 
L 65.139862 160.23543 
L 67.14674 158.083178 
L 69.168938 150.857467 
L 73.226815 143.746714 
L 75.265864 138.896952 
L 77.266172 134.799354 
L 79.239973 134.132437 
L 83.132994 125.832163 
L 85.327364 125.135231 
L 87.302298 121.363776 
L 89.229862 119.405475 
L 91.187395 110.975892 
L 93.203652 114.32008 
L 95.400001 107.300279 
L 97.294892 95.972015 
L 99.213469 98.980669 
L 101.297852 100.559256 
L 103.434338 97.4233 
L 105.440553 100.269311 
L 107.446768 85.509382 
L 109.452983 77.80391 
L 111.459198 76.618244 
L 113.465413 84.468392 
L 115.471628 88.591597 
L 117.477849 76.11195 
L 119.505572 72.398189 
L 121.533301 89.561833 
L 123.332903 73.801788 
L 125.563407 75.994162 
L 127.515093 78.228807 
L 129.466773 71.044103 
L 131.41846 61.502566 
L 133.370147 68.900032 
L 135.532214 68.417039 
L 137.545338 71.087038 
L 139.492089 68.95198 
L 141.609187 74.380385 
L 143.571582 74.593136 
L 145.603232 64.644833 
L 147.431717 63.488896 
L 149.443054 59.273732 
L 151.559833 60.82812 
L 153.620493 51.117581 
L 155.474905 59.532433 
L 157.561134 49.634191 
L 159.50828 62.109239 
L 161.548148 71.154986 
L 163.664506 60.410559 
L 165.627872 56.569089 
L 167.591238 45.691015 
L 169.554605 59.15259 
L 171.517971 58.444712 
L 173.732338 69.160294 
L 175.614745 62.27017 
L 177.547357 48.422417 
L 179.75604 38.479505 
L 181.688653 57.816019 
L 183.621265 64.149904 
L 185.829961 56.349759 
L 187.624525 53.617739 
L 189.750397 36.031212 
L 191.876269 72.54404 
L 193.768625 56.501631 
L 195.630623 51.795182 
L 197.73039 51.716964 
L 199.84413 47.98874 
L 201.828965 51.075508 
L 203.813813 73.653677 
L 205.798661 38.763034 
L 207.783509 34.081051 
L 209.768358 48.972054 
L 211.874038 46.716995 
L 213.749446 50.029906 
L 215.758803 49.52268 
L 217.821749 45.801501 
L 219.746405 47.82846 
L 221.74944 57.547209 
L 223.752462 47.713258 
L 225.810568 45.230997 
L 228.006773 46.187539 
L 229.928466 34.520027 
L 231.850159 56.886516 
L 233.964025 51.000003 
L 236.07788 41.113976 
L 237.889762 40.176123 
L 240.036426 37.535621 
L 241.835486 50.809982 
L 243.974896 57.772817 
L 245.9806 55.763127 
L 248.039779 35.969565 
L 249.893974 34.476789 
L 251.919346 36.958165 
L 253.944718 55.306812 
L 255.995404 55.27565 
L 257.944837 54.433903 
L 260.172741 59.517027 
L 262.122161 38.201415 
L 264.071593 43.833733 
L 266.090325 37.904238 
L 268.172914 43.820306 
L 272.128383 56.07621 
L 276.100122 35.537902 
L 278.208714 43.649325 
L 280.231073 47.530003 
L 282.101781 54.825624 
L 284.048302 59.191344 
L 286.272937 31.269206 
L 288.219457 36.432761 
L 290.036499 43.694088 
L 292.14596 44.809338 
L 294.255395 50.29068 
L 296.101173 55.960914 
L 298.289716 31.84594 
L 300.127345 51.161039 
L 302.190777 57.823134 
L 304.29352 53.572476 
L 306.114266 51.440713 
L 308.329169 47.901311 
L 310.143478 39.359832 
L 312.314089 43.861541 
L 314.216445 49.811064 
L 316.381233 50.001271 
L 318.209258 30.249083 
L 320.194042 38.579115 
L 322.413671 50.118255 
L 324.186702 50.229207 
L 326.321706 42.830984 
L 328.362353 49.563449 
L 330.232372 48.124321 
L 332.285791 45.588238 
L 334.30539 57.587885 
L 336.351555 27.683294 
L 338.302954 43.858222 
L 340.388711 33.569726 
L 342.474493 29.57402 
L 344.482036 57.185393 
L 346.288835 43.903718 
L 348.497123 55.399505 
L 350.389977 50.270826 
L 352.598264 45.166625 
L 354.40984 62.519416 
L 356.524461 51.96699 
L 358.456754 37.70857 
L 360.403019 45.734264 
L 362.499682 45.248942 
L 364.62991 45.250165 
L 366.65541 49.306447 
L 368.638074 32.163099 
L 370.406405 34.669348 
L 372.469454 59.665022 
L 374.532477 49.036124 
L 376.595525 44.06373 
L 378.521203 56.049695 
L 380.448004 41.148945 
L 382.452942 37.79473 
L 382.452942 37.79473 
" style="fill:none;stroke:#008000;stroke-linecap:square;stroke-opacity:0.5;"/>
   </g>
   <g id="line2d_29">
    <path clip-path="url(#p76dc7e23e0)" d="M 46.965625 214.756364 
L 49.333018 214.731631 
L 51.226933 214.57964 
L 53.120848 214.056782 
L 55.124765 212.977738 
L 57.107357 211.027526 
L 61.121295 205.844075 
L 71.22484 192.052461 
L 75.265864 185.803787 
L 79.239973 179.513387 
L 83.132994 173.801151 
L 85.327364 170.84863 
L 95.400001 155.033947 
L 97.294892 151.688024 
L 101.297852 145.443612 
L 109.452983 133.000017 
L 121.533301 116.21147 
L 123.332903 113.815882 
L 125.563407 111.382448 
L 127.515093 108.935075 
L 133.370147 102.241632 
L 135.532214 99.989998 
L 139.492089 95.621704 
L 149.443054 85.950407 
L 153.620493 82.139529 
L 155.474905 80.42606 
L 157.561134 78.778665 
L 159.50828 77.080474 
L 167.591238 70.858881 
L 171.517971 68.113575 
L 177.547357 64.385514 
L 181.688653 61.595585 
L 183.621265 60.428911 
L 193.768625 55.505333 
L 195.630623 54.733548 
L 197.73039 54.017169 
L 199.84413 53.160016 
L 205.798661 51.200958 
L 213.749446 48.98888 
L 215.758803 48.491227 
L 223.752462 46.122177 
L 225.810568 45.581088 
L 231.850159 44.384592 
L 233.964025 44.238612 
L 236.07788 44.269297 
L 237.889762 43.983975 
L 241.835486 42.833278 
L 243.974896 42.571851 
L 245.9806 42.657092 
L 248.039779 42.328137 
L 249.893974 42.21581 
L 251.919346 42.302972 
L 253.944718 42.141621 
L 255.995404 41.83832 
L 262.122161 41.600264 
L 266.090325 41.077632 
L 268.172914 40.892095 
L 272.128383 40.87755 
L 290.036499 39.957235 
L 294.255395 40.260479 
L 298.289716 40.076048 
L 314.216445 39.361334 
L 316.381233 39.450603 
L 318.209258 39.378894 
L 322.413671 38.756187 
L 324.186702 38.609531 
L 338.302954 38.41816 
L 340.388711 38.172035 
L 342.474493 38.1468 
L 344.482036 38.616227 
L 346.288835 38.762533 
L 348.497123 38.432204 
L 350.389977 37.941968 
L 354.40984 37.543132 
L 356.524461 37.576459 
L 360.403019 37.455015 
L 364.62991 37.442742 
L 368.638074 37.748256 
L 372.469454 37.686934 
L 376.595525 37.420756 
L 378.521203 37.461164 
L 382.452942 37.930451 
L 382.452942 37.930451 
" style="fill:none;stroke:#0000ff;stroke-linecap:square;"/>
   </g>
   <g id="line2d_30">
    <path clip-path="url(#p76dc7e23e0)" d="M 46.965625 214.756363 
L 49.333018 214.655913 
L 51.226933 214.080937 
L 53.120848 212.962271 
L 55.124765 211.2145 
L 57.107357 208.441065 
L 59.088228 205.136994 
L 63.148304 199.063006 
L 65.139862 196.53587 
L 67.14674 195.244752 
L 69.168938 189.379796 
L 71.22484 172.84037 
L 73.226815 163.636334 
L 75.265864 161.338487 
L 77.266172 161.60725 
L 79.239973 161.331256 
L 81.21377 158.644011 
L 83.132994 155.593266 
L 85.327364 150.156384 
L 87.302298 144.837207 
L 89.229862 141.219958 
L 91.187395 135.035721 
L 93.203652 129.611281 
L 97.294892 123.642299 
L 99.213469 119.861056 
L 101.297852 117.130912 
L 103.434338 117.13734 
L 105.440553 116.087161 
L 107.446768 113.273896 
L 109.452983 110.753545 
L 111.459198 109.592287 
L 113.465413 107.277327 
L 115.471628 104.478746 
L 117.477849 105.132243 
L 119.505572 105.574898 
L 121.533301 103.656737 
L 123.332903 102.392177 
L 125.563407 102.930122 
L 127.515093 102.561702 
L 129.466773 99.825642 
L 131.41846 96.671137 
L 133.370147 94.404958 
L 135.532214 93.292328 
L 137.545338 91.753835 
L 139.492089 91.751017 
L 141.609187 92.710773 
L 143.571582 92.653725 
L 145.603232 91.177148 
L 147.431717 88.333792 
L 149.443054 87.635509 
L 151.559833 85.632305 
L 153.620493 81.077531 
L 155.474905 84.362599 
L 157.561134 81.841921 
L 159.50828 80.280348 
L 161.548148 81.470195 
L 163.664506 78.772598 
L 165.627872 79.212563 
L 167.591238 80.410771 
L 169.554605 78.78734 
L 171.517971 81.005659 
L 173.732338 82.558592 
L 175.614745 81.719907 
L 177.547357 66.697399 
L 179.75604 66.998686 
L 181.688653 71.582945 
L 183.621265 68.378751 
L 185.829961 73.454585 
L 187.624525 75.077143 
L 189.750397 73.047156 
L 191.876269 73.780955 
L 193.768625 72.29179 
L 195.630623 69.755893 
L 197.73039 70.343375 
L 199.84413 66.564333 
L 201.828965 74.405643 
L 203.813813 71.030758 
L 207.783509 72.816367 
L 209.768358 73.50219 
L 211.874038 70.933186 
L 213.749446 69.631014 
L 215.758803 72.148628 
L 217.821749 71.895446 
L 219.746405 74.137602 
L 221.74944 74.575448 
L 223.752462 75.795652 
L 225.810568 77.32094 
L 228.006773 77.205715 
L 229.928466 66.643786 
L 231.850159 66.46923 
L 233.964025 74.126434 
L 236.07788 74.897463 
L 237.889762 63.474748 
L 240.036426 59.481487 
L 241.835486 60.478786 
L 243.974896 70.47608 
L 245.9806 71.096587 
L 248.039779 63.290584 
L 249.893974 73.256041 
L 251.919346 72.91685 
L 253.944718 65.953096 
L 255.995404 66.405894 
L 257.944837 75.458418 
L 260.172741 73.633357 
L 262.122161 66.902115 
L 266.090325 69.606373 
L 268.172914 65.885707 
L 270.034299 70.287084 
L 272.128383 70.030537 
L 274.129361 70.838712 
L 276.100122 71.190654 
L 278.208714 72.46779 
L 280.231073 74.550295 
L 282.101781 68.900975 
L 284.048302 65.361375 
L 286.272937 65.875611 
L 288.219457 65.776187 
L 290.036499 68.626914 
L 292.14596 72.56818 
L 294.255395 72.710899 
L 296.101173 72.967307 
L 298.289716 76.002768 
L 300.127345 77.74586 
L 302.190777 73.590341 
L 304.29352 67.207012 
L 306.114266 62.501192 
L 308.329169 63.093181 
L 310.143478 67.952771 
L 312.314089 66.165171 
L 314.216445 67.534022 
L 316.381233 74.531687 
L 318.209258 64.87681 
L 320.194042 65.381008 
L 322.413671 72.233275 
L 324.186702 74.176041 
L 326.321706 73.527121 
L 328.362353 73.093747 
L 330.232372 73.379709 
L 332.285791 71.076022 
L 334.30539 71.278526 
L 336.351555 69.689389 
L 338.302954 63.080116 
L 340.388711 58.572235 
L 342.474493 67.880841 
L 344.482036 79.569675 
L 346.288835 72.899068 
L 348.497123 58.509306 
L 350.389977 60.693657 
L 352.598264 64.986306 
L 354.40984 68.990908 
L 358.456754 62.427504 
L 360.403019 67.900101 
L 362.499682 65.263092 
L 366.65541 81.685927 
L 368.638074 71.922811 
L 370.406405 70.488959 
L 372.469454 72.465484 
L 374.532477 74.870458 
L 376.595525 73.409706 
L 378.521203 72.79409 
L 380.448004 76.587362 
L 382.452942 73.627255 
L 382.452942 73.627255 
" style="fill:none;stroke:#0000ff;stroke-linecap:square;stroke-opacity:0.5;"/>
   </g>
   <g id="patch_3">
    <path d="M 46.965625 224.64 
L 46.965625 7.2 
" style="fill:none;stroke:#000000;stroke-linecap:square;stroke-linejoin:miter;stroke-width:0.8;"/>
   </g>
   <g id="patch_4">
    <path d="M 381.765625 224.64 
L 381.765625 7.2 
" style="fill:none;stroke:#000000;stroke-linecap:square;stroke-linejoin:miter;stroke-width:0.8;"/>
   </g>
   <g id="patch_5">
    <path d="M 46.965625 224.64 
L 381.765625 224.64 
" style="fill:none;stroke:#000000;stroke-linecap:square;stroke-linejoin:miter;stroke-width:0.8;"/>
   </g>
   <g id="patch_6">
    <path d="M 46.965625 7.2 
L 381.765625 7.2 
" style="fill:none;stroke:#000000;stroke-linecap:square;stroke-linejoin:miter;stroke-width:0.8;"/>
   </g>
   <g id="legend_1">
    <g id="patch_7">
     <path d="M 231.792188 219.64 
L 374.765625 219.64 
Q 376.765625 219.64 376.765625 217.64 
L 376.765625 130.57125 
Q 376.765625 128.57125 374.765625 128.57125 
L 231.792188 128.57125 
Q 229.792188 128.57125 229.792188 130.57125 
L 229.792188 217.64 
Q 229.792188 219.64 231.792188 219.64 
z
" style="fill:#ffffff;opacity:0.8;stroke:#cccccc;stroke-linejoin:miter;"/>
    </g>
    <g id="line2d_31">
     <path d="M 233.792188 136.669687 
L 253.792188 136.669687 
" style="fill:none;stroke:#ff0000;stroke-linecap:square;"/>
    </g>
    <g id="line2d_32"/>
    <g id="text_15">
     <!-- Thermocouple top -->
     <g transform="translate(261.792188 140.169687)scale(0.1 -0.1)">
      <defs>
       <path d="M 3513 2113 
L 3513 0 
L 2938 0 
L 2938 2094 
Q 2938 2591 2744 2837 
Q 2550 3084 2163 3084 
Q 1697 3084 1428 2787 
Q 1159 2491 1159 1978 
L 1159 0 
L 581 0 
L 581 4863 
L 1159 4863 
L 1159 2956 
Q 1366 3272 1645 3428 
Q 1925 3584 2291 3584 
Q 2894 3584 3203 3211 
Q 3513 2838 3513 2113 
z
" id="DejaVuSans-68" transform="scale(0.015625)"/>
       <path d="M 1959 3097 
Q 1497 3097 1228 2736 
Q 959 2375 959 1747 
Q 959 1119 1226 758 
Q 1494 397 1959 397 
Q 2419 397 2687 759 
Q 2956 1122 2956 1747 
Q 2956 2369 2687 2733 
Q 2419 3097 1959 3097 
z
M 1959 3584 
Q 2709 3584 3137 3096 
Q 3566 2609 3566 1747 
Q 3566 888 3137 398 
Q 2709 -91 1959 -91 
Q 1206 -91 779 398 
Q 353 888 353 1747 
Q 353 2609 779 3096 
Q 1206 3584 1959 3584 
z
" id="DejaVuSans-6f" transform="scale(0.015625)"/>
       <path d="M 3122 3366 
L 3122 2828 
Q 2878 2963 2633 3030 
Q 2388 3097 2138 3097 
Q 1578 3097 1268 2742 
Q 959 2388 959 1747 
Q 959 1106 1268 751 
Q 1578 397 2138 397 
Q 2388 397 2633 464 
Q 2878 531 3122 666 
L 3122 134 
Q 2881 22 2623 -34 
Q 2366 -91 2075 -91 
Q 1284 -91 818 406 
Q 353 903 353 1747 
Q 353 2603 823 3093 
Q 1294 3584 2113 3584 
Q 2378 3584 2631 3529 
Q 2884 3475 3122 3366 
z
" id="DejaVuSans-63" transform="scale(0.015625)"/>
       <path d="M 603 4863 
L 1178 4863 
L 1178 0 
L 603 0 
L 603 4863 
z
" id="DejaVuSans-6c" transform="scale(0.015625)"/>
      </defs>
      <use xlink:href="#DejaVuSans-54"/>
      <use x="61.083984" xlink:href="#DejaVuSans-68"/>
      <use x="124.462891" xlink:href="#DejaVuSans-65"/>
      <use x="185.986328" xlink:href="#DejaVuSans-72"/>
      <use x="225.349609" xlink:href="#DejaVuSans-6d"/>
      <use x="322.761719" xlink:href="#DejaVuSans-6f"/>
      <use x="383.943359" xlink:href="#DejaVuSans-63"/>
      <use x="438.923828" xlink:href="#DejaVuSans-6f"/>
      <use x="500.105469" xlink:href="#DejaVuSans-75"/>
      <use x="563.484375" xlink:href="#DejaVuSans-70"/>
      <use x="626.960938" xlink:href="#DejaVuSans-6c"/>
      <use x="654.744141" xlink:href="#DejaVuSans-65"/>
      <use x="716.267578" xlink:href="#DejaVuSans-20"/>
      <use x="748.054688" xlink:href="#DejaVuSans-74"/>
      <use x="787.263672" xlink:href="#DejaVuSans-6f"/>
      <use x="848.445312" xlink:href="#DejaVuSans-70"/>
     </g>
    </g>
    <g id="line2d_33">
     <path d="M 233.792188 151.347812 
L 253.792188 151.347812 
" style="fill:none;stroke:#ff0000;stroke-linecap:square;stroke-opacity:0.5;"/>
    </g>
    <g id="line2d_34"/>
    <g id="text_16">
     <!-- Temp Devc top -->
     <g transform="translate(261.792188 154.847812)scale(0.1 -0.1)">
      <defs>
       <path d="M 1259 4147 
L 1259 519 
L 2022 519 
Q 2988 519 3436 956 
Q 3884 1394 3884 2338 
Q 3884 3275 3436 3711 
Q 2988 4147 2022 4147 
L 1259 4147 
z
M 628 4666 
L 1925 4666 
Q 3281 4666 3915 4102 
Q 4550 3538 4550 2338 
Q 4550 1131 3912 565 
Q 3275 0 1925 0 
L 628 0 
L 628 4666 
z
" id="DejaVuSans-44" transform="scale(0.015625)"/>
       <path d="M 191 3500 
L 800 3500 
L 1894 563 
L 2988 3500 
L 3597 3500 
L 2284 0 
L 1503 0 
L 191 3500 
z
" id="DejaVuSans-76" transform="scale(0.015625)"/>
      </defs>
      <use xlink:href="#DejaVuSans-54"/>
      <use x="44.083984" xlink:href="#DejaVuSans-65"/>
      <use x="105.607422" xlink:href="#DejaVuSans-6d"/>
      <use x="203.019531" xlink:href="#DejaVuSans-70"/>
      <use x="266.496094" xlink:href="#DejaVuSans-20"/>
      <use x="298.283203" xlink:href="#DejaVuSans-44"/>
      <use x="375.285156" xlink:href="#DejaVuSans-65"/>
      <use x="436.808594" xlink:href="#DejaVuSans-76"/>
      <use x="495.988281" xlink:href="#DejaVuSans-63"/>
      <use x="550.96875" xlink:href="#DejaVuSans-20"/>
      <use x="582.755859" xlink:href="#DejaVuSans-74"/>
      <use x="621.964844" xlink:href="#DejaVuSans-6f"/>
      <use x="683.146484" xlink:href="#DejaVuSans-70"/>
     </g>
    </g>
    <g id="line2d_35">
     <path d="M 233.792188 166.025937 
L 253.792188 166.025937 
" style="fill:none;stroke:#008000;stroke-linecap:square;"/>
    </g>
    <g id="line2d_36"/>
    <g id="text_17">
     <!-- Thermocouple middle -->
     <g transform="translate(261.792188 169.525937)scale(0.1 -0.1)">
      <defs>
       <path d="M 2906 2969 
L 2906 4863 
L 3481 4863 
L 3481 0 
L 2906 0 
L 2906 525 
Q 2725 213 2448 61 
Q 2172 -91 1784 -91 
Q 1150 -91 751 415 
Q 353 922 353 1747 
Q 353 2572 751 3078 
Q 1150 3584 1784 3584 
Q 2172 3584 2448 3432 
Q 2725 3281 2906 2969 
z
M 947 1747 
Q 947 1113 1208 752 
Q 1469 391 1925 391 
Q 2381 391 2643 752 
Q 2906 1113 2906 1747 
Q 2906 2381 2643 2742 
Q 2381 3103 1925 3103 
Q 1469 3103 1208 2742 
Q 947 2381 947 1747 
z
" id="DejaVuSans-64" transform="scale(0.015625)"/>
      </defs>
      <use xlink:href="#DejaVuSans-54"/>
      <use x="61.083984" xlink:href="#DejaVuSans-68"/>
      <use x="124.462891" xlink:href="#DejaVuSans-65"/>
      <use x="185.986328" xlink:href="#DejaVuSans-72"/>
      <use x="225.349609" xlink:href="#DejaVuSans-6d"/>
      <use x="322.761719" xlink:href="#DejaVuSans-6f"/>
      <use x="383.943359" xlink:href="#DejaVuSans-63"/>
      <use x="438.923828" xlink:href="#DejaVuSans-6f"/>
      <use x="500.105469" xlink:href="#DejaVuSans-75"/>
      <use x="563.484375" xlink:href="#DejaVuSans-70"/>
      <use x="626.960938" xlink:href="#DejaVuSans-6c"/>
      <use x="654.744141" xlink:href="#DejaVuSans-65"/>
      <use x="716.267578" xlink:href="#DejaVuSans-20"/>
      <use x="748.054688" xlink:href="#DejaVuSans-6d"/>
      <use x="845.466797" xlink:href="#DejaVuSans-69"/>
      <use x="873.25" xlink:href="#DejaVuSans-64"/>
      <use x="936.726562" xlink:href="#DejaVuSans-64"/>
      <use x="1000.203125" xlink:href="#DejaVuSans-6c"/>
      <use x="1027.986328" xlink:href="#DejaVuSans-65"/>
     </g>
    </g>
    <g id="line2d_37">
     <path d="M 233.792188 180.704062 
L 253.792188 180.704062 
" style="fill:none;stroke:#008000;stroke-linecap:square;stroke-opacity:0.5;"/>
    </g>
    <g id="line2d_38"/>
    <g id="text_18">
     <!-- Temp Devc middle -->
     <g transform="translate(261.792188 184.204062)scale(0.1 -0.1)">
      <use xlink:href="#DejaVuSans-54"/>
      <use x="44.083984" xlink:href="#DejaVuSans-65"/>
      <use x="105.607422" xlink:href="#DejaVuSans-6d"/>
      <use x="203.019531" xlink:href="#DejaVuSans-70"/>
      <use x="266.496094" xlink:href="#DejaVuSans-20"/>
      <use x="298.283203" xlink:href="#DejaVuSans-44"/>
      <use x="375.285156" xlink:href="#DejaVuSans-65"/>
      <use x="436.808594" xlink:href="#DejaVuSans-76"/>
      <use x="495.988281" xlink:href="#DejaVuSans-63"/>
      <use x="550.96875" xlink:href="#DejaVuSans-20"/>
      <use x="582.755859" xlink:href="#DejaVuSans-6d"/>
      <use x="680.167969" xlink:href="#DejaVuSans-69"/>
      <use x="707.951172" xlink:href="#DejaVuSans-64"/>
      <use x="771.427734" xlink:href="#DejaVuSans-64"/>
      <use x="834.904297" xlink:href="#DejaVuSans-6c"/>
      <use x="862.6875" xlink:href="#DejaVuSans-65"/>
     </g>
    </g>
    <g id="line2d_39">
     <path d="M 233.792188 195.382187 
L 253.792188 195.382187 
" style="fill:none;stroke:#0000ff;stroke-linecap:square;"/>
    </g>
    <g id="line2d_40"/>
    <g id="text_19">
     <!-- Thermocouple bottom -->
     <g transform="translate(261.792188 198.882187)scale(0.1 -0.1)">
      <defs>
       <path d="M 3116 1747 
Q 3116 2381 2855 2742 
Q 2594 3103 2138 3103 
Q 1681 3103 1420 2742 
Q 1159 2381 1159 1747 
Q 1159 1113 1420 752 
Q 1681 391 2138 391 
Q 2594 391 2855 752 
Q 3116 1113 3116 1747 
z
M 1159 2969 
Q 1341 3281 1617 3432 
Q 1894 3584 2278 3584 
Q 2916 3584 3314 3078 
Q 3713 2572 3713 1747 
Q 3713 922 3314 415 
Q 2916 -91 2278 -91 
Q 1894 -91 1617 61 
Q 1341 213 1159 525 
L 1159 0 
L 581 0 
L 581 4863 
L 1159 4863 
L 1159 2969 
z
" id="DejaVuSans-62" transform="scale(0.015625)"/>
      </defs>
      <use xlink:href="#DejaVuSans-54"/>
      <use x="61.083984" xlink:href="#DejaVuSans-68"/>
      <use x="124.462891" xlink:href="#DejaVuSans-65"/>
      <use x="185.986328" xlink:href="#DejaVuSans-72"/>
      <use x="225.349609" xlink:href="#DejaVuSans-6d"/>
      <use x="322.761719" xlink:href="#DejaVuSans-6f"/>
      <use x="383.943359" xlink:href="#DejaVuSans-63"/>
      <use x="438.923828" xlink:href="#DejaVuSans-6f"/>
      <use x="500.105469" xlink:href="#DejaVuSans-75"/>
      <use x="563.484375" xlink:href="#DejaVuSans-70"/>
      <use x="626.960938" xlink:href="#DejaVuSans-6c"/>
      <use x="654.744141" xlink:href="#DejaVuSans-65"/>
      <use x="716.267578" xlink:href="#DejaVuSans-20"/>
      <use x="748.054688" xlink:href="#DejaVuSans-62"/>
      <use x="811.53125" xlink:href="#DejaVuSans-6f"/>
      <use x="872.712891" xlink:href="#DejaVuSans-74"/>
      <use x="911.921875" xlink:href="#DejaVuSans-74"/>
      <use x="951.130859" xlink:href="#DejaVuSans-6f"/>
      <use x="1012.3125" xlink:href="#DejaVuSans-6d"/>
     </g>
    </g>
    <g id="line2d_41">
     <path d="M 233.792188 210.060312 
L 253.792188 210.060312 
" style="fill:none;stroke:#0000ff;stroke-linecap:square;stroke-opacity:0.5;"/>
    </g>
    <g id="line2d_42"/>
    <g id="text_20">
     <!-- Temp Devc bottom -->
     <g transform="translate(261.792188 213.560312)scale(0.1 -0.1)">
      <use xlink:href="#DejaVuSans-54"/>
      <use x="44.083984" xlink:href="#DejaVuSans-65"/>
      <use x="105.607422" xlink:href="#DejaVuSans-6d"/>
      <use x="203.019531" xlink:href="#DejaVuSans-70"/>
      <use x="266.496094" xlink:href="#DejaVuSans-20"/>
      <use x="298.283203" xlink:href="#DejaVuSans-44"/>
      <use x="375.285156" xlink:href="#DejaVuSans-65"/>
      <use x="436.808594" xlink:href="#DejaVuSans-76"/>
      <use x="495.988281" xlink:href="#DejaVuSans-63"/>
      <use x="550.96875" xlink:href="#DejaVuSans-20"/>
      <use x="582.755859" xlink:href="#DejaVuSans-62"/>
      <use x="646.232422" xlink:href="#DejaVuSans-6f"/>
      <use x="707.414062" xlink:href="#DejaVuSans-74"/>
      <use x="746.623047" xlink:href="#DejaVuSans-74"/>
      <use x="785.832031" xlink:href="#DejaVuSans-6f"/>
      <use x="847.013672" xlink:href="#DejaVuSans-6d"/>
     </g>
    </g>
   </g>
  </g>
 </g>
 <defs>
  <clipPath id="p76dc7e23e0">
   <rect height="217.44" width="334.8" x="46.965625" y="7.2"/>
  </clipPath>
 </defs>
</svg>
