<?xml version="1.0" encoding="utf-8" standalone="no"?>
<!DOCTYPE svg PUBLIC "-//W3C//DTD SVG 1.1//EN"
  "http://www.w3.org/Graphics/SVG/1.1/DTD/svg11.dtd">
<!-- Created with matplotlib (https://matplotlib.org/) -->
<svg height="288pt" version="1.1" viewBox="0 0 432 288" width="432pt" xmlns="http://www.w3.org/2000/svg" xmlns:xlink="http://www.w3.org/1999/xlink">
 <defs>
  <style type="text/css">
*{stroke-linecap:butt;stroke-linejoin:round;}
  </style>
 </defs>
 <g id="figure_1">
  <g id="patch_1">
   <path d="M 0 288 
L 432 288 
L 432 0 
L 0 0 
z
" style="fill:#ffffff;"/>
  </g>
  <g id="axes_1">
   <g id="patch_2">
    <path d="M 50.8 246.2 
L 421.2 246.2 
L 421.2 10.8 
L 50.8 10.8 
z
" style="fill:#ffffff;"/>
   </g>
   <g id="matplotlib.axis_1">
    <g id="xtick_1">
     <g id="line2d_1">
      <path clip-path="url(#pd0c0f565ae)" d="M 67.636364 246.2 
L 67.636364 10.8 
" style="fill:none;stroke:#b0b0b0;stroke-linecap:square;stroke-width:0.8;"/>
     </g>
     <g id="line2d_2">
      <defs>
       <path d="M 0 0 
L 0 3.5 
" id="m17aa0db67d" style="stroke:#000000;stroke-width:0.8;"/>
      </defs>
      <g>
       <use style="stroke:#000000;stroke-width:0.8;" x="67.636364" xlink:href="#m17aa0db67d" y="246.2"/>
      </g>
     </g>
     <g id="text_1">
      <!-- 0 -->
      <defs>
       <path d="M 31.78125 66.40625 
Q 24.171875 66.40625 20.328125 58.90625 
Q 16.5 51.421875 16.5 36.375 
Q 16.5 21.390625 20.328125 13.890625 
Q 24.171875 6.390625 31.78125 6.390625 
Q 39.453125 6.390625 43.28125 13.890625 
Q 47.125 21.390625 47.125 36.375 
Q 47.125 51.421875 43.28125 58.90625 
Q 39.453125 66.40625 31.78125 66.40625 
z
M 31.78125 74.21875 
Q 44.046875 74.21875 50.515625 64.515625 
Q 56.984375 54.828125 56.984375 36.375 
Q 56.984375 17.96875 50.515625 8.265625 
Q 44.046875 -1.421875 31.78125 -1.421875 
Q 19.53125 -1.421875 13.0625 8.265625 
Q 6.59375 17.96875 6.59375 36.375 
Q 6.59375 54.828125 13.0625 64.515625 
Q 19.53125 74.21875 31.78125 74.21875 
z
" id="DejaVuSans-48"/>
      </defs>
      <g transform="translate(64.455114 260.798437)scale(0.1 -0.1)">
       <use xlink:href="#DejaVuSans-48"/>
      </g>
     </g>
    </g>
    <g id="xtick_2">
     <g id="line2d_3">
      <path clip-path="url(#pd0c0f565ae)" d="M 123.757576 246.2 
L 123.757576 10.8 
" style="fill:none;stroke:#b0b0b0;stroke-linecap:square;stroke-width:0.8;"/>
     </g>
     <g id="line2d_4">
      <g>
       <use style="stroke:#000000;stroke-width:0.8;" x="123.757576" xlink:href="#m17aa0db67d" y="246.2"/>
      </g>
     </g>
     <g id="text_2">
      <!-- 100 -->
      <defs>
       <path d="M 12.40625 8.296875 
L 28.515625 8.296875 
L 28.515625 63.921875 
L 10.984375 60.40625 
L 10.984375 69.390625 
L 28.421875 72.90625 
L 38.28125 72.90625 
L 38.28125 8.296875 
L 54.390625 8.296875 
L 54.390625 0 
L 12.40625 0 
z
" id="DejaVuSans-49"/>
      </defs>
      <g transform="translate(114.213826 260.798437)scale(0.1 -0.1)">
       <use xlink:href="#DejaVuSans-49"/>
       <use x="63.623047" xlink:href="#DejaVuSans-48"/>
       <use x="127.246094" xlink:href="#DejaVuSans-48"/>
      </g>
     </g>
    </g>
    <g id="xtick_3">
     <g id="line2d_5">
      <path clip-path="url(#pd0c0f565ae)" d="M 179.878788 246.2 
L 179.878788 10.8 
" style="fill:none;stroke:#b0b0b0;stroke-linecap:square;stroke-width:0.8;"/>
     </g>
     <g id="line2d_6">
      <g>
       <use style="stroke:#000000;stroke-width:0.8;" x="179.878788" xlink:href="#m17aa0db67d" y="246.2"/>
      </g>
     </g>
     <g id="text_3">
      <!-- 200 -->
      <defs>
       <path d="M 19.1875 8.296875 
L 53.609375 8.296875 
L 53.609375 0 
L 7.328125 0 
L 7.328125 8.296875 
Q 12.9375 14.109375 22.625 23.890625 
Q 32.328125 33.6875 34.8125 36.53125 
Q 39.546875 41.84375 41.421875 45.53125 
Q 43.3125 49.21875 43.3125 52.78125 
Q 43.3125 58.59375 39.234375 62.25 
Q 35.15625 65.921875 28.609375 65.921875 
Q 23.96875 65.921875 18.8125 64.3125 
Q 13.671875 62.703125 7.8125 59.421875 
L 7.8125 69.390625 
Q 13.765625 71.78125 18.9375 73 
Q 24.125 74.21875 28.421875 74.21875 
Q 39.75 74.21875 46.484375 68.546875 
Q 53.21875 62.890625 53.21875 53.421875 
Q 53.21875 48.921875 51.53125 44.890625 
Q 49.859375 40.875 45.40625 35.40625 
Q 44.1875 33.984375 37.640625 27.21875 
Q 31.109375 20.453125 19.1875 8.296875 
z
" id="DejaVuSans-50"/>
      </defs>
      <g transform="translate(170.335038 260.798437)scale(0.1 -0.1)">
       <use xlink:href="#DejaVuSans-50"/>
       <use x="63.623047" xlink:href="#DejaVuSans-48"/>
       <use x="127.246094" xlink:href="#DejaVuSans-48"/>
      </g>
     </g>
    </g>
    <g id="xtick_4">
     <g id="line2d_7">
      <path clip-path="url(#pd0c0f565ae)" d="M 236 246.2 
L 236 10.8 
" style="fill:none;stroke:#b0b0b0;stroke-linecap:square;stroke-width:0.8;"/>
     </g>
     <g id="line2d_8">
      <g>
       <use style="stroke:#000000;stroke-width:0.8;" x="236" xlink:href="#m17aa0db67d" y="246.2"/>
      </g>
     </g>
     <g id="text_4">
      <!-- 300 -->
      <defs>
       <path d="M 40.578125 39.3125 
Q 47.65625 37.796875 51.625 33 
Q 55.609375 28.21875 55.609375 21.1875 
Q 55.609375 10.40625 48.1875 4.484375 
Q 40.765625 -1.421875 27.09375 -1.421875 
Q 22.515625 -1.421875 17.65625 -0.515625 
Q 12.796875 0.390625 7.625 2.203125 
L 7.625 11.71875 
Q 11.71875 9.328125 16.59375 8.109375 
Q 21.484375 6.890625 26.8125 6.890625 
Q 36.078125 6.890625 40.9375 10.546875 
Q 45.796875 14.203125 45.796875 21.1875 
Q 45.796875 27.640625 41.28125 31.265625 
Q 36.765625 34.90625 28.71875 34.90625 
L 20.21875 34.90625 
L 20.21875 43.015625 
L 29.109375 43.015625 
Q 36.375 43.015625 40.234375 45.921875 
Q 44.09375 48.828125 44.09375 54.296875 
Q 44.09375 59.90625 40.109375 62.90625 
Q 36.140625 65.921875 28.71875 65.921875 
Q 24.65625 65.921875 20.015625 65.03125 
Q 15.375 64.15625 9.8125 62.3125 
L 9.8125 71.09375 
Q 15.4375 72.65625 20.34375 73.4375 
Q 25.25 74.21875 29.59375 74.21875 
Q 40.828125 74.21875 47.359375 69.109375 
Q 53.90625 64.015625 53.90625 55.328125 
Q 53.90625 49.265625 50.4375 45.09375 
Q 46.96875 40.921875 40.578125 39.3125 
z
" id="DejaVuSans-51"/>
      </defs>
      <g transform="translate(226.45625 260.798437)scale(0.1 -0.1)">
       <use xlink:href="#DejaVuSans-51"/>
       <use x="63.623047" xlink:href="#DejaVuSans-48"/>
       <use x="127.246094" xlink:href="#DejaVuSans-48"/>
      </g>
     </g>
    </g>
    <g id="xtick_5">
     <g id="line2d_9">
      <path clip-path="url(#pd0c0f565ae)" d="M 292.121212 246.2 
L 292.121212 10.8 
" style="fill:none;stroke:#b0b0b0;stroke-linecap:square;stroke-width:0.8;"/>
     </g>
     <g id="line2d_10">
      <g>
       <use style="stroke:#000000;stroke-width:0.8;" x="292.121212" xlink:href="#m17aa0db67d" y="246.2"/>
      </g>
     </g>
     <g id="text_5">
      <!-- 400 -->
      <defs>
       <path d="M 37.796875 64.3125 
L 12.890625 25.390625 
L 37.796875 25.390625 
z
M 35.203125 72.90625 
L 47.609375 72.90625 
L 47.609375 25.390625 
L 58.015625 25.390625 
L 58.015625 17.1875 
L 47.609375 17.1875 
L 47.609375 0 
L 37.796875 0 
L 37.796875 17.1875 
L 4.890625 17.1875 
L 4.890625 26.703125 
z
" id="DejaVuSans-52"/>
      </defs>
      <g transform="translate(282.577462 260.798437)scale(0.1 -0.1)">
       <use xlink:href="#DejaVuSans-52"/>
       <use x="63.623047" xlink:href="#DejaVuSans-48"/>
       <use x="127.246094" xlink:href="#DejaVuSans-48"/>
      </g>
     </g>
    </g>
    <g id="xtick_6">
     <g id="line2d_11">
      <path clip-path="url(#pd0c0f565ae)" d="M 348.242424 246.2 
L 348.242424 10.8 
" style="fill:none;stroke:#b0b0b0;stroke-linecap:square;stroke-width:0.8;"/>
     </g>
     <g id="line2d_12">
      <g>
       <use style="stroke:#000000;stroke-width:0.8;" x="348.242424" xlink:href="#m17aa0db67d" y="246.2"/>
      </g>
     </g>
     <g id="text_6">
      <!-- 500 -->
      <defs>
       <path d="M 10.796875 72.90625 
L 49.515625 72.90625 
L 49.515625 64.59375 
L 19.828125 64.59375 
L 19.828125 46.734375 
Q 21.96875 47.46875 24.109375 47.828125 
Q 26.265625 48.1875 28.421875 48.1875 
Q 40.625 48.1875 47.75 41.5 
Q 54.890625 34.8125 54.890625 23.390625 
Q 54.890625 11.625 47.5625 5.09375 
Q 40.234375 -1.421875 26.90625 -1.421875 
Q 22.3125 -1.421875 17.546875 -0.640625 
Q 12.796875 0.140625 7.71875 1.703125 
L 7.71875 11.625 
Q 12.109375 9.234375 16.796875 8.0625 
Q 21.484375 6.890625 26.703125 6.890625 
Q 35.15625 6.890625 40.078125 11.328125 
Q 45.015625 15.765625 45.015625 23.390625 
Q 45.015625 31 40.078125 35.4375 
Q 35.15625 39.890625 26.703125 39.890625 
Q 22.75 39.890625 18.8125 39.015625 
Q 14.890625 38.140625 10.796875 36.28125 
z
" id="DejaVuSans-53"/>
      </defs>
      <g transform="translate(338.698674 260.798437)scale(0.1 -0.1)">
       <use xlink:href="#DejaVuSans-53"/>
       <use x="63.623047" xlink:href="#DejaVuSans-48"/>
       <use x="127.246094" xlink:href="#DejaVuSans-48"/>
      </g>
     </g>
    </g>
    <g id="xtick_7">
     <g id="line2d_13">
      <path clip-path="url(#pd0c0f565ae)" d="M 404.363636 246.2 
L 404.363636 10.8 
" style="fill:none;stroke:#b0b0b0;stroke-linecap:square;stroke-width:0.8;"/>
     </g>
     <g id="line2d_14">
      <g>
       <use style="stroke:#000000;stroke-width:0.8;" x="404.363636" xlink:href="#m17aa0db67d" y="246.2"/>
      </g>
     </g>
     <g id="text_7">
      <!-- 600 -->
      <defs>
       <path d="M 33.015625 40.375 
Q 26.375 40.375 22.484375 35.828125 
Q 18.609375 31.296875 18.609375 23.390625 
Q 18.609375 15.53125 22.484375 10.953125 
Q 26.375 6.390625 33.015625 6.390625 
Q 39.65625 6.390625 43.53125 10.953125 
Q 47.40625 15.53125 47.40625 23.390625 
Q 47.40625 31.296875 43.53125 35.828125 
Q 39.65625 40.375 33.015625 40.375 
z
M 52.59375 71.296875 
L 52.59375 62.3125 
Q 48.875 64.0625 45.09375 64.984375 
Q 41.3125 65.921875 37.59375 65.921875 
Q 27.828125 65.921875 22.671875 59.328125 
Q 17.53125 52.734375 16.796875 39.40625 
Q 19.671875 43.65625 24.015625 45.921875 
Q 28.375 48.1875 33.59375 48.1875 
Q 44.578125 48.1875 50.953125 41.515625 
Q 57.328125 34.859375 57.328125 23.390625 
Q 57.328125 12.15625 50.6875 5.359375 
Q 44.046875 -1.421875 33.015625 -1.421875 
Q 20.359375 -1.421875 13.671875 8.265625 
Q 6.984375 17.96875 6.984375 36.375 
Q 6.984375 53.65625 15.1875 63.9375 
Q 23.390625 74.21875 37.203125 74.21875 
Q 40.921875 74.21875 44.703125 73.484375 
Q 48.484375 72.75 52.59375 71.296875 
z
" id="DejaVuSans-54"/>
      </defs>
      <g transform="translate(394.819886 260.798437)scale(0.1 -0.1)">
       <use xlink:href="#DejaVuSans-54"/>
       <use x="63.623047" xlink:href="#DejaVuSans-48"/>
       <use x="127.246094" xlink:href="#DejaVuSans-48"/>
      </g>
     </g>
    </g>
    <g id="text_8">
     <!-- Time / s -->
     <defs>
      <path d="M -0.296875 72.90625 
L 61.375 72.90625 
L 61.375 64.59375 
L 35.5 64.59375 
L 35.5 0 
L 25.59375 0 
L 25.59375 64.59375 
L -0.296875 64.59375 
z
" id="DejaVuSans-84"/>
      <path d="M 9.421875 54.6875 
L 18.40625 54.6875 
L 18.40625 0 
L 9.421875 0 
z
M 9.421875 75.984375 
L 18.40625 75.984375 
L 18.40625 64.59375 
L 9.421875 64.59375 
z
" id="DejaVuSans-105"/>
      <path d="M 52 44.1875 
Q 55.375 50.25 60.0625 53.125 
Q 64.75 56 71.09375 56 
Q 79.640625 56 84.28125 50.015625 
Q 88.921875 44.046875 88.921875 33.015625 
L 88.921875 0 
L 79.890625 0 
L 79.890625 32.71875 
Q 79.890625 40.578125 77.09375 44.375 
Q 74.3125 48.1875 68.609375 48.1875 
Q 61.625 48.1875 57.5625 43.546875 
Q 53.515625 38.921875 53.515625 30.90625 
L 53.515625 0 
L 44.484375 0 
L 44.484375 32.71875 
Q 44.484375 40.625 41.703125 44.40625 
Q 38.921875 48.1875 33.109375 48.1875 
Q 26.21875 48.1875 22.15625 43.53125 
Q 18.109375 38.875 18.109375 30.90625 
L 18.109375 0 
L 9.078125 0 
L 9.078125 54.6875 
L 18.109375 54.6875 
L 18.109375 46.1875 
Q 21.1875 51.21875 25.484375 53.609375 
Q 29.78125 56 35.6875 56 
Q 41.65625 56 45.828125 52.96875 
Q 50 49.953125 52 44.1875 
z
" id="DejaVuSans-109"/>
      <path d="M 56.203125 29.59375 
L 56.203125 25.203125 
L 14.890625 25.203125 
Q 15.484375 15.921875 20.484375 11.0625 
Q 25.484375 6.203125 34.421875 6.203125 
Q 39.59375 6.203125 44.453125 7.46875 
Q 49.3125 8.734375 54.109375 11.28125 
L 54.109375 2.78125 
Q 49.265625 0.734375 44.1875 -0.34375 
Q 39.109375 -1.421875 33.890625 -1.421875 
Q 20.796875 -1.421875 13.15625 6.1875 
Q 5.515625 13.8125 5.515625 26.8125 
Q 5.515625 40.234375 12.765625 48.109375 
Q 20.015625 56 32.328125 56 
Q 43.359375 56 49.78125 48.890625 
Q 56.203125 41.796875 56.203125 29.59375 
z
M 47.21875 32.234375 
Q 47.125 39.59375 43.09375 43.984375 
Q 39.0625 48.390625 32.421875 48.390625 
Q 24.90625 48.390625 20.390625 44.140625 
Q 15.875 39.890625 15.1875 32.171875 
z
" id="DejaVuSans-101"/>
      <path id="DejaVuSans-32"/>
      <path d="M 25.390625 72.90625 
L 33.6875 72.90625 
L 8.296875 -9.28125 
L 0 -9.28125 
z
" id="DejaVuSans-47"/>
      <path d="M 44.28125 53.078125 
L 44.28125 44.578125 
Q 40.484375 46.53125 36.375 47.5 
Q 32.28125 48.484375 27.875 48.484375 
Q 21.1875 48.484375 17.84375 46.4375 
Q 14.5 44.390625 14.5 40.28125 
Q 14.5 37.15625 16.890625 35.375 
Q 19.28125 33.59375 26.515625 31.984375 
L 29.59375 31.296875 
Q 39.15625 29.25 43.1875 25.515625 
Q 47.21875 21.78125 47.21875 15.09375 
Q 47.21875 7.46875 41.1875 3.015625 
Q 35.15625 -1.421875 24.609375 -1.421875 
Q 20.21875 -1.421875 15.453125 -0.5625 
Q 10.6875 0.296875 5.421875 2 
L 5.421875 11.28125 
Q 10.40625 8.6875 15.234375 7.390625 
Q 20.0625 6.109375 24.8125 6.109375 
Q 31.15625 6.109375 34.5625 8.28125 
Q 37.984375 10.453125 37.984375 14.40625 
Q 37.984375 18.0625 35.515625 20.015625 
Q 33.0625 21.96875 24.703125 23.78125 
L 21.578125 24.515625 
Q 13.234375 26.265625 9.515625 29.90625 
Q 5.8125 33.546875 5.8125 39.890625 
Q 5.8125 47.609375 11.28125 51.796875 
Q 16.75 56 26.8125 56 
Q 31.78125 56 36.171875 55.265625 
Q 40.578125 54.546875 44.28125 53.078125 
z
" id="DejaVuSans-115"/>
     </defs>
     <g transform="translate(216.145312 274.476562)scale(0.1 -0.1)">
      <use xlink:href="#DejaVuSans-84"/>
      <use x="61.037109" xlink:href="#DejaVuSans-105"/>
      <use x="88.820312" xlink:href="#DejaVuSans-109"/>
      <use x="186.232422" xlink:href="#DejaVuSans-101"/>
      <use x="247.755859" xlink:href="#DejaVuSans-32"/>
      <use x="279.542969" xlink:href="#DejaVuSans-47"/>
      <use x="313.234375" xlink:href="#DejaVuSans-32"/>
      <use x="345.021484" xlink:href="#DejaVuSans-115"/>
     </g>
    </g>
   </g>
   <g id="matplotlib.axis_2">
    <g id="ytick_1">
     <g id="line2d_15">
      <path clip-path="url(#pd0c0f565ae)" d="M 50.8 235.499997 
L 421.2 235.499997 
" style="fill:none;stroke:#b0b0b0;stroke-linecap:square;stroke-width:0.8;"/>
     </g>
     <g id="line2d_16">
      <defs>
       <path d="M 0 0 
L -3.5 0 
" id="ma0378cfe2a" style="stroke:#000000;stroke-width:0.8;"/>
      </defs>
      <g>
       <use style="stroke:#000000;stroke-width:0.8;" x="50.8" xlink:href="#ma0378cfe2a" y="235.499997"/>
      </g>
     </g>
     <g id="text_9">
      <!-- 20 -->
      <g transform="translate(31.075 239.299216)scale(0.1 -0.1)">
       <use xlink:href="#DejaVuSans-50"/>
       <use x="63.623047" xlink:href="#DejaVuSans-48"/>
      </g>
     </g>
    </g>
    <g id="ytick_2">
     <g id="line2d_17">
      <path clip-path="url(#pd0c0f565ae)" d="M 50.8 204.596799 
L 421.2 204.596799 
" style="fill:none;stroke:#b0b0b0;stroke-linecap:square;stroke-width:0.8;"/>
     </g>
     <g id="line2d_18">
      <g>
       <use style="stroke:#000000;stroke-width:0.8;" x="50.8" xlink:href="#ma0378cfe2a" y="204.596799"/>
      </g>
     </g>
     <g id="text_10">
      <!-- 40 -->
      <g transform="translate(31.075 208.396017)scale(0.1 -0.1)">
       <use xlink:href="#DejaVuSans-52"/>
       <use x="63.623047" xlink:href="#DejaVuSans-48"/>
      </g>
     </g>
    </g>
    <g id="ytick_3">
     <g id="line2d_19">
      <path clip-path="url(#pd0c0f565ae)" d="M 50.8 173.6936 
L 421.2 173.6936 
" style="fill:none;stroke:#b0b0b0;stroke-linecap:square;stroke-width:0.8;"/>
     </g>
     <g id="line2d_20">
      <g>
       <use style="stroke:#000000;stroke-width:0.8;" x="50.8" xlink:href="#ma0378cfe2a" y="173.6936"/>
      </g>
     </g>
     <g id="text_11">
      <!-- 60 -->
      <g transform="translate(31.075 177.492819)scale(0.1 -0.1)">
       <use xlink:href="#DejaVuSans-54"/>
       <use x="63.623047" xlink:href="#DejaVuSans-48"/>
      </g>
     </g>
    </g>
    <g id="ytick_4">
     <g id="line2d_21">
      <path clip-path="url(#pd0c0f565ae)" d="M 50.8 142.790402 
L 421.2 142.790402 
" style="fill:none;stroke:#b0b0b0;stroke-linecap:square;stroke-width:0.8;"/>
     </g>
     <g id="line2d_22">
      <g>
       <use style="stroke:#000000;stroke-width:0.8;" x="50.8" xlink:href="#ma0378cfe2a" y="142.790402"/>
      </g>
     </g>
     <g id="text_12">
      <!-- 80 -->
      <defs>
       <path d="M 31.78125 34.625 
Q 24.75 34.625 20.71875 30.859375 
Q 16.703125 27.09375 16.703125 20.515625 
Q 16.703125 13.921875 20.71875 10.15625 
Q 24.75 6.390625 31.78125 6.390625 
Q 38.8125 6.390625 42.859375 10.171875 
Q 46.921875 13.96875 46.921875 20.515625 
Q 46.921875 27.09375 42.890625 30.859375 
Q 38.875 34.625 31.78125 34.625 
z
M 21.921875 38.8125 
Q 15.578125 40.375 12.03125 44.71875 
Q 8.5 49.078125 8.5 55.328125 
Q 8.5 64.0625 14.71875 69.140625 
Q 20.953125 74.21875 31.78125 74.21875 
Q 42.671875 74.21875 48.875 69.140625 
Q 55.078125 64.0625 55.078125 55.328125 
Q 55.078125 49.078125 51.53125 44.71875 
Q 48 40.375 41.703125 38.8125 
Q 48.828125 37.15625 52.796875 32.3125 
Q 56.78125 27.484375 56.78125 20.515625 
Q 56.78125 9.90625 50.3125 4.234375 
Q 43.84375 -1.421875 31.78125 -1.421875 
Q 19.734375 -1.421875 13.25 4.234375 
Q 6.78125 9.90625 6.78125 20.515625 
Q 6.78125 27.484375 10.78125 32.3125 
Q 14.796875 37.15625 21.921875 38.8125 
z
M 18.3125 54.390625 
Q 18.3125 48.734375 21.84375 45.5625 
Q 25.390625 42.390625 31.78125 42.390625 
Q 38.140625 42.390625 41.71875 45.5625 
Q 45.3125 48.734375 45.3125 54.390625 
Q 45.3125 60.0625 41.71875 63.234375 
Q 38.140625 66.40625 31.78125 66.40625 
Q 25.390625 66.40625 21.84375 63.234375 
Q 18.3125 60.0625 18.3125 54.390625 
z
" id="DejaVuSans-56"/>
      </defs>
      <g transform="translate(31.075 146.589621)scale(0.1 -0.1)">
       <use xlink:href="#DejaVuSans-56"/>
       <use x="63.623047" xlink:href="#DejaVuSans-48"/>
      </g>
     </g>
    </g>
    <g id="ytick_5">
     <g id="line2d_23">
      <path clip-path="url(#pd0c0f565ae)" d="M 50.8 111.887204 
L 421.2 111.887204 
" style="fill:none;stroke:#b0b0b0;stroke-linecap:square;stroke-width:0.8;"/>
     </g>
     <g id="line2d_24">
      <g>
       <use style="stroke:#000000;stroke-width:0.8;" x="50.8" xlink:href="#ma0378cfe2a" y="111.887204"/>
      </g>
     </g>
     <g id="text_13">
      <!-- 100 -->
      <g transform="translate(24.7125 115.686423)scale(0.1 -0.1)">
       <use xlink:href="#DejaVuSans-49"/>
       <use x="63.623047" xlink:href="#DejaVuSans-48"/>
       <use x="127.246094" xlink:href="#DejaVuSans-48"/>
      </g>
     </g>
    </g>
    <g id="ytick_6">
     <g id="line2d_25">
      <path clip-path="url(#pd0c0f565ae)" d="M 50.8 80.984006 
L 421.2 80.984006 
" style="fill:none;stroke:#b0b0b0;stroke-linecap:square;stroke-width:0.8;"/>
     </g>
     <g id="line2d_26">
      <g>
       <use style="stroke:#000000;stroke-width:0.8;" x="50.8" xlink:href="#ma0378cfe2a" y="80.984006"/>
      </g>
     </g>
     <g id="text_14">
      <!-- 120 -->
      <g transform="translate(24.7125 84.783224)scale(0.1 -0.1)">
       <use xlink:href="#DejaVuSans-49"/>
       <use x="63.623047" xlink:href="#DejaVuSans-50"/>
       <use x="127.246094" xlink:href="#DejaVuSans-48"/>
      </g>
     </g>
    </g>
    <g id="ytick_7">
     <g id="line2d_27">
      <path clip-path="url(#pd0c0f565ae)" d="M 50.8 50.080807 
L 421.2 50.080807 
" style="fill:none;stroke:#b0b0b0;stroke-linecap:square;stroke-width:0.8;"/>
     </g>
     <g id="line2d_28">
      <g>
       <use style="stroke:#000000;stroke-width:0.8;" x="50.8" xlink:href="#ma0378cfe2a" y="50.080807"/>
      </g>
     </g>
     <g id="text_15">
      <!-- 140 -->
      <g transform="translate(24.7125 53.880026)scale(0.1 -0.1)">
       <use xlink:href="#DejaVuSans-49"/>
       <use x="63.623047" xlink:href="#DejaVuSans-52"/>
       <use x="127.246094" xlink:href="#DejaVuSans-48"/>
      </g>
     </g>
    </g>
    <g id="ytick_8">
     <g id="line2d_29">
      <path clip-path="url(#pd0c0f565ae)" d="M 50.8 19.177609 
L 421.2 19.177609 
" style="fill:none;stroke:#b0b0b0;stroke-linecap:square;stroke-width:0.8;"/>
     </g>
     <g id="line2d_30">
      <g>
       <use style="stroke:#000000;stroke-width:0.8;" x="50.8" xlink:href="#ma0378cfe2a" y="19.177609"/>
      </g>
     </g>
     <g id="text_16">
      <!-- 160 -->
      <g transform="translate(24.7125 22.976828)scale(0.1 -0.1)">
       <use xlink:href="#DejaVuSans-49"/>
       <use x="63.623047" xlink:href="#DejaVuSans-54"/>
       <use x="127.246094" xlink:href="#DejaVuSans-48"/>
      </g>
     </g>
    </g>
    <g id="text_17">
     <!-- Temperature / °C -->
     <defs>
      <path d="M 18.109375 8.203125 
L 18.109375 -20.796875 
L 9.078125 -20.796875 
L 9.078125 54.6875 
L 18.109375 54.6875 
L 18.109375 46.390625 
Q 20.953125 51.265625 25.265625 53.625 
Q 29.59375 56 35.59375 56 
Q 45.5625 56 51.78125 48.09375 
Q 58.015625 40.1875 58.015625 27.296875 
Q 58.015625 14.40625 51.78125 6.484375 
Q 45.5625 -1.421875 35.59375 -1.421875 
Q 29.59375 -1.421875 25.265625 0.953125 
Q 20.953125 3.328125 18.109375 8.203125 
z
M 48.6875 27.296875 
Q 48.6875 37.203125 44.609375 42.84375 
Q 40.53125 48.484375 33.40625 48.484375 
Q 26.265625 48.484375 22.1875 42.84375 
Q 18.109375 37.203125 18.109375 27.296875 
Q 18.109375 17.390625 22.1875 11.75 
Q 26.265625 6.109375 33.40625 6.109375 
Q 40.53125 6.109375 44.609375 11.75 
Q 48.6875 17.390625 48.6875 27.296875 
z
" id="DejaVuSans-112"/>
      <path d="M 41.109375 46.296875 
Q 39.59375 47.171875 37.8125 47.578125 
Q 36.03125 48 33.890625 48 
Q 26.265625 48 22.1875 43.046875 
Q 18.109375 38.09375 18.109375 28.8125 
L 18.109375 0 
L 9.078125 0 
L 9.078125 54.6875 
L 18.109375 54.6875 
L 18.109375 46.1875 
Q 20.953125 51.171875 25.484375 53.578125 
Q 30.03125 56 36.53125 56 
Q 37.453125 56 38.578125 55.875 
Q 39.703125 55.765625 41.0625 55.515625 
z
" id="DejaVuSans-114"/>
      <path d="M 34.28125 27.484375 
Q 23.390625 27.484375 19.1875 25 
Q 14.984375 22.515625 14.984375 16.5 
Q 14.984375 11.71875 18.140625 8.90625 
Q 21.296875 6.109375 26.703125 6.109375 
Q 34.1875 6.109375 38.703125 11.40625 
Q 43.21875 16.703125 43.21875 25.484375 
L 43.21875 27.484375 
z
M 52.203125 31.203125 
L 52.203125 0 
L 43.21875 0 
L 43.21875 8.296875 
Q 40.140625 3.328125 35.546875 0.953125 
Q 30.953125 -1.421875 24.3125 -1.421875 
Q 15.921875 -1.421875 10.953125 3.296875 
Q 6 8.015625 6 15.921875 
Q 6 25.140625 12.171875 29.828125 
Q 18.359375 34.515625 30.609375 34.515625 
L 43.21875 34.515625 
L 43.21875 35.40625 
Q 43.21875 41.609375 39.140625 45 
Q 35.0625 48.390625 27.6875 48.390625 
Q 23 48.390625 18.546875 47.265625 
Q 14.109375 46.140625 10.015625 43.890625 
L 10.015625 52.203125 
Q 14.9375 54.109375 19.578125 55.046875 
Q 24.21875 56 28.609375 56 
Q 40.484375 56 46.34375 49.84375 
Q 52.203125 43.703125 52.203125 31.203125 
z
" id="DejaVuSans-97"/>
      <path d="M 18.3125 70.21875 
L 18.3125 54.6875 
L 36.8125 54.6875 
L 36.8125 47.703125 
L 18.3125 47.703125 
L 18.3125 18.015625 
Q 18.3125 11.328125 20.140625 9.421875 
Q 21.96875 7.515625 27.59375 7.515625 
L 36.8125 7.515625 
L 36.8125 0 
L 27.59375 0 
Q 17.1875 0 13.234375 3.875 
Q 9.28125 7.765625 9.28125 18.015625 
L 9.28125 47.703125 
L 2.6875 47.703125 
L 2.6875 54.6875 
L 9.28125 54.6875 
L 9.28125 70.21875 
z
" id="DejaVuSans-116"/>
      <path d="M 8.5 21.578125 
L 8.5 54.6875 
L 17.484375 54.6875 
L 17.484375 21.921875 
Q 17.484375 14.15625 20.5 10.265625 
Q 23.53125 6.390625 29.59375 6.390625 
Q 36.859375 6.390625 41.078125 11.03125 
Q 45.3125 15.671875 45.3125 23.6875 
L 45.3125 54.6875 
L 54.296875 54.6875 
L 54.296875 0 
L 45.3125 0 
L 45.3125 8.40625 
Q 42.046875 3.421875 37.71875 1 
Q 33.40625 -1.421875 27.6875 -1.421875 
Q 18.265625 -1.421875 13.375 4.4375 
Q 8.5 10.296875 8.5 21.578125 
z
M 31.109375 56 
z
" id="DejaVuSans-117"/>
      <path d="M 25 67.921875 
Q 21.09375 67.921875 18.40625 65.203125 
Q 15.71875 62.5 15.71875 58.59375 
Q 15.71875 54.734375 18.40625 52.078125 
Q 21.09375 49.421875 25 49.421875 
Q 28.90625 49.421875 31.59375 52.078125 
Q 34.28125 54.734375 34.28125 58.59375 
Q 34.28125 62.453125 31.5625 65.1875 
Q 28.859375 67.921875 25 67.921875 
z
M 25 74.21875 
Q 28.125 74.21875 31 73.015625 
Q 33.890625 71.828125 35.984375 69.578125 
Q 38.234375 67.390625 39.359375 64.59375 
Q 40.484375 61.8125 40.484375 58.59375 
Q 40.484375 52.15625 35.96875 47.6875 
Q 31.453125 43.21875 24.90625 43.21875 
Q 18.3125 43.21875 13.90625 47.609375 
Q 9.515625 52 9.515625 58.59375 
Q 9.515625 65.140625 14 69.671875 
Q 18.5 74.21875 25 74.21875 
z
" id="DejaVuSans-176"/>
      <path d="M 64.40625 67.28125 
L 64.40625 56.890625 
Q 59.421875 61.53125 53.78125 63.8125 
Q 48.140625 66.109375 41.796875 66.109375 
Q 29.296875 66.109375 22.65625 58.46875 
Q 16.015625 50.828125 16.015625 36.375 
Q 16.015625 21.96875 22.65625 14.328125 
Q 29.296875 6.6875 41.796875 6.6875 
Q 48.140625 6.6875 53.78125 8.984375 
Q 59.421875 11.28125 64.40625 15.921875 
L 64.40625 5.609375 
Q 59.234375 2.09375 53.4375 0.328125 
Q 47.65625 -1.421875 41.21875 -1.421875 
Q 24.65625 -1.421875 15.125 8.703125 
Q 5.609375 18.84375 5.609375 36.375 
Q 5.609375 53.953125 15.125 64.078125 
Q 24.65625 74.21875 41.21875 74.21875 
Q 47.75 74.21875 53.53125 72.484375 
Q 59.328125 70.75 64.40625 67.28125 
z
" id="DejaVuSans-67"/>
     </defs>
     <g transform="translate(18.632812 171.971094)rotate(-90)scale(0.1 -0.1)">
      <use xlink:href="#DejaVuSans-84"/>
      <use x="60.818359" xlink:href="#DejaVuSans-101"/>
      <use x="122.341797" xlink:href="#DejaVuSans-109"/>
      <use x="219.753906" xlink:href="#DejaVuSans-112"/>
      <use x="283.230469" xlink:href="#DejaVuSans-101"/>
      <use x="344.753906" xlink:href="#DejaVuSans-114"/>
      <use x="385.867188" xlink:href="#DejaVuSans-97"/>
      <use x="447.146484" xlink:href="#DejaVuSans-116"/>
      <use x="486.355469" xlink:href="#DejaVuSans-117"/>
      <use x="549.734375" xlink:href="#DejaVuSans-114"/>
      <use x="590.816406" xlink:href="#DejaVuSans-101"/>
      <use x="652.339844" xlink:href="#DejaVuSans-32"/>
      <use x="684.126953" xlink:href="#DejaVuSans-47"/>
      <use x="717.818359" xlink:href="#DejaVuSans-32"/>
      <use x="749.605469" xlink:href="#DejaVuSans-176"/>
      <use x="799.605469" xlink:href="#DejaVuSans-67"/>
     </g>
    </g>
   </g>
   <g id="line2d_31">
    <path clip-path="url(#pd0c0f565ae)" d="M 67.636364 235.5 
L 68.209964 235.402692 
L 69.322126 234.688711 
L 72.689606 232.979565 
L 73.81213 232.735108 
L 75.501686 232.611506 
L 80.54596 233.0499 
L 81.666831 233.168794 
L 83.35296 233.097511 
L 85.044242 233.09346 
L 87.848537 233.037406 
L 91.212567 233.016143 
L 98.512975 232.851466 
L 136.676583 232.604803 
L 138.353238 232.570765 
L 142.845388 232.610948 
L 145.091634 232.543777 
L 160.799849 232.456018 
L 161.929754 232.458085 
L 163.049316 232.499406 
L 170.343805 232.482757 
L 172.590775 232.550914 
L 175.39857 232.528398 
L 177.638474 232.40345 
L 181.564091 232.401582 
L 183.254619 232.499599 
L 187.737705 232.335134 
L 197.83931 232.279607 
L 200.091724 232.250436 
L 217.491387 232.217889 
L 219.73188 232.109609 
L 222.539007 232.177739 
L 227.593065 232.326826 
L 230.949119 232.190852 
L 233.763609 232.149549 
L 234.887015 232.200058 
L 236.564804 232.150568 
L 245.546443 232.141114 
L 247.785909 232.119663 
L 252.283177 232.164683 
L 256.216157 232.138605 
L 261.821291 232.177019 
L 263.501319 232.1572 
L 265.755164 232.231835 
L 273.601801 232.227418 
L 275.847823 232.279244 
L 283.703648 232.181579 
L 285.949113 232.225628 
L 289.321993 232.22275 
L 292.12665 232.255228 
L 310.080011 232.152374 
L 311.768171 232.165292 
L 316.261426 232.175633 
L 319.631471 232.106115 
L 322.999103 232.087513 
L 333.095584 232.106231 
L 337.028362 232.074526 
L 349.935332 232.012189 
L 356.100528 232.020788 
L 360.590494 232.036703 
L 362.282818 231.985027 
L 365.645696 232.028304 
L 370.13999 232.004692 
L 372.938249 232.035306 
L 376.315663 232.04459 
L 387.529995 232.031794 
L 390.900253 232.147017 
L 399.874961 232.052302 
L 401.563586 232.09151 
L 403.812509 231.965986 
L 404.363636 231.982032 
L 404.363636 231.982032 
" style="fill:none;stroke:#1f77b4;stroke-linecap:square;stroke-width:1.5;"/>
   </g>
   <g id="line2d_32">
    <path clip-path="url(#pd0c0f565ae)" d="M 67.636364 235.5 
L 68.209964 235.441703 
L 69.888762 234.294783 
L 70.451041 233.61287 
L 71.011609 232.093533 
L 71.566954 231.22171 
L 72.128262 229.623598 
L 73.250868 223.88497 
L 73.81213 222.488434 
L 74.37404 223.157647 
L 74.932336 223.273944 
L 75.501686 221.790604 
L 76.05688 217.925133 
L 76.616872 216.599748 
L 77.17891 214.929699 
L 77.74697 210.538543 
L 78.308888 208.625905 
L 78.864359 208.822108 
L 79.425417 206.045551 
L 79.990361 201.734138 
L 81.106472 189.447637 
L 81.666831 185.739244 
L 82.796672 172.527294 
L 83.35296 173.644049 
L 83.917136 170.689578 
L 85.044242 158.469013 
L 85.601199 156.248472 
L 86.157393 158.530555 
L 86.719801 156.432721 
L 87.286891 155.599735 
L 87.848537 157.9762 
L 88.967229 148.971858 
L 89.53178 148.820543 
L 90.090516 149.299008 
L 90.652762 143.678191 
L 91.212567 139.408284 
L 92.337442 143.191232 
L 92.900899 143.440717 
L 93.45548 147.399344 
L 94.015981 153.035602 
L 94.585865 156.337946 
L 95.143746 149.717918 
L 95.704948 148.813462 
L 96.269715 149.455241 
L 96.824638 144.352883 
L 97.381464 147.818079 
L 97.942935 155.95029 
L 98.512975 156.280206 
L 99.067523 153.446738 
L 99.628133 148.359616 
L 100.197756 141.243411 
L 100.752421 136.148914 
L 101.314233 133.927853 
L 101.880167 134.962024 
L 102.437396 134.54171 
L 102.996056 133.753833 
L 103.56305 134.584487 
L 104.120972 136.703476 
L 105.240136 139.158016 
L 105.804522 137.509506 
L 106.362005 138.6093 
L 106.92686 142.398139 
L 107.492156 142.815692 
L 108.047829 147.755721 
L 108.610329 149.749455 
L 109.169326 152.997123 
L 109.730298 154.719451 
L 110.297185 153.169649 
L 111.420175 155.270677 
L 111.977672 152.33422 
L 112.535965 150.466556 
L 113.10097 152.892135 
L 113.664548 150.871732 
L 114.779686 154.481166 
L 115.349835 153.502715 
L 115.912237 155.13085 
L 116.466886 160.670297 
L 117.032096 161.281334 
L 117.587822 151.574423 
L 118.15402 149.979172 
L 119.26941 148.069846 
L 119.83907 150.576905 
L 120.394888 150.060934 
L 121.520173 154.643262 
L 122.64219 163.573705 
L 123.198139 158.798335 
L 123.758384 158.683619 
L 124.31904 167.247671 
L 124.883064 166.900614 
L 125.441504 162.433791 
L 126.012408 159.459064 
L 126.573025 158.456749 
L 127.129327 158.72805 
L 127.69357 156.45065 
L 128.252975 156.421376 
L 128.819675 156.027126 
L 129.370146 151.753036 
L 129.934231 144.724208 
L 130.503059 142.923491 
L 131.055769 146.753555 
L 132.7372 131.727609 
L 133.30156 130.727348 
L 133.865949 140.331614 
L 134.420701 140.128038 
L 134.989423 140.696945 
L 135.544085 143.708468 
L 136.107918 139.120847 
L 137.227986 133.666302 
L 137.797021 136.069593 
L 138.913575 138.692891 
L 140.033367 128.138348 
L 140.601095 127.091866 
L 141.157183 133.521354 
L 141.721516 135.887062 
L 142.28211 138.896893 
L 142.845388 143.871099 
L 143.406241 144.649557 
L 143.971151 144.822459 
L 144.529759 146.327814 
L 145.091634 141.983687 
L 145.649709 141.832573 
L 146.769405 135.202097 
L 147.331919 134.352446 
L 147.893496 132.986104 
L 148.454939 138.35071 
L 149.016981 136.514944 
L 149.583895 135.866547 
L 150.142004 137.054203 
L 151.266061 132.320467 
L 151.819119 131.223162 
L 152.385702 131.241271 
L 152.943794 134.794133 
L 153.502823 136.761618 
L 154.063328 139.878899 
L 154.629355 137.542233 
L 155.192178 139.762048 
L 155.748513 144.151197 
L 156.317885 145.479612 
L 156.870112 150.693907 
L 157.440719 149.345363 
L 157.992082 140.098018 
L 158.561942 136.636318 
L 159.124917 142.905194 
L 159.675875 142.399151 
L 160.239433 146.02078 
L 160.799849 151.499886 
L 161.3605 155.024005 
L 161.929754 159.907304 
L 162.486437 156.674111 
L 163.049316 151.462771 
L 163.605208 149.029829 
L 164.169136 145.143424 
L 164.730135 137.084335 
L 165.297958 131.207001 
L 165.854097 127.990318 
L 166.416415 127.825615 
L 166.972789 126.435237 
L 167.543334 133.982869 
L 168.099625 143.876833 
L 168.661639 149.827739 
L 169.218912 149.413776 
L 169.78096 141.738867 
L 170.343805 138.209244 
L 170.909249 138.885462 
L 171.471336 134.502039 
L 172.029091 131.465718 
L 172.590775 133.189234 
L 173.144489 130.142797 
L 173.71165 132.433531 
L 174.269405 129.257343 
L 174.827884 126.781506 
L 175.39857 130.367341 
L 175.957492 131.365184 
L 176.518609 132.75892 
L 177.074748 142.108835 
L 177.638474 142.078015 
L 178.20032 141.432647 
L 178.760068 144.45824 
L 179.321173 143.483451 
L 180.44463 152.146222 
L 181.564091 166.517665 
L 182.134529 166.175302 
L 182.686044 162.914434 
L 183.254619 163.074515 
L 183.81509 159.596475 
L 184.368608 157.549385 
L 184.93504 151.901608 
L 185.492615 158.672753 
L 186.057234 161.520814 
L 186.622997 160.696883 
L 187.181173 157.365404 
L 187.737705 152.641541 
L 188.301661 150.274562 
L 188.86454 144.670153 
L 189.424147 144.54704 
L 189.988654 142.859594 
L 190.55233 138.55042 
L 191.113115 140.771587 
L 191.665965 139.749994 
L 192.22628 139.140379 
L 192.790258 142.584114 
L 193.349989 140.903961 
L 193.912823 138.637582 
L 194.475842 140.852991 
L 195.045024 144.919534 
L 195.60403 147.383322 
L 196.162358 145.316941 
L 196.724389 141.342033 
L 197.83931 137.317015 
L 198.400965 143.697227 
L 198.960589 143.809369 
L 199.528396 139.753604 
L 200.091724 144.762715 
L 200.648401 145.011656 
L 201.2072 142.650738 
L 201.766279 141.39359 
L 202.335062 138.768082 
L 202.898918 142.714818 
L 203.450572 144.488867 
L 204.018345 144.758713 
L 204.577498 145.455097 
L 205.146881 142.035303 
L 205.702593 139.656391 
L 206.266028 135.038978 
L 206.826291 134.248409 
L 207.939804 146.849794 
L 208.507958 143.47171 
L 209.071875 138.403021 
L 209.62541 137.84713 
L 210.191808 140.813237 
L 210.749226 143.035213 
L 211.316864 142.13796 
L 211.877487 141.869748 
L 212.429574 143.311934 
L 212.996796 140.709389 
L 213.560102 139.508155 
L 214.112755 140.12037 
L 214.682582 139.332424 
L 215.245253 140.408169 
L 216.368609 129.678718 
L 216.922963 136.497343 
L 217.491387 140.715133 
L 218.612268 128.664379 
L 219.166448 126.910644 
L 220.291465 119.225414 
L 220.847694 122.053919 
L 221.416044 129.558544 
L 221.972756 141.43689 
L 222.539007 147.52906 
L 223.096313 139.05141 
L 223.654338 134.306692 
L 224.220006 132.136772 
L 224.783194 139.694977 
L 225.339175 143.575535 
L 225.90912 138.169203 
L 226.468486 136.968096 
L 227.028772 143.751445 
L 228.144613 150.392512 
L 228.710433 149.702463 
L 229.270062 144.03942 
L 229.833912 140.858064 
L 230.392144 135.489815 
L 230.949119 138.633423 
L 231.51555 140.268007 
L 232.074102 143.933872 
L 232.634938 146.034396 
L 233.199428 151.015571 
L 233.763609 160.410791 
L 234.318906 164.075145 
L 234.887015 155.187983 
L 235.44701 151.925397 
L 236.004304 158.188577 
L 236.564804 167.667531 
L 237.123367 173.766017 
L 237.691499 173.543015 
L 238.25128 166.793061 
L 238.806122 162.226623 
L 239.368822 160.444146 
L 239.929394 166.697589 
L 240.495792 170.007434 
L 241.056201 169.830348 
L 241.618693 166.595448 
L 242.178727 166.601809 
L 242.736021 171.305344 
L 243.301274 172.671938 
L 243.858766 169.05577 
L 244.420472 172.398647 
L 244.984422 167.109605 
L 245.546443 158.379079 
L 246.114872 156.173293 
L 246.674574 147.137339 
L 247.234176 140.599463 
L 247.785909 145.951824 
L 248.911313 153.206605 
L 249.4799 157.06586 
L 250.030595 155.449942 
L 251.161488 147.720144 
L 251.717267 142.780388 
L 252.283177 146.35339 
L 252.842329 152.870922 
L 253.401841 153.742264 
L 253.96206 153.505774 
L 254.520511 156.647491 
L 255.089153 154.376622 
L 255.653497 157.300769 
L 256.216157 155.029642 
L 257.332509 143.475453 
L 257.891499 144.624756 
L 258.453654 147.316261 
L 259.011353 145.852887 
L 259.579142 143.424514 
L 260.138727 148.139795 
L 260.700517 145.385699 
L 261.821291 130.802577 
L 262.379153 131.986273 
L 262.938215 140.161107 
L 263.501319 145.081989 
L 264.068839 146.681977 
L 265.184551 160.794228 
L 265.755164 158.142244 
L 266.315147 150.992332 
L 266.876398 149.107736 
L 267.437206 144.858098 
L 267.989714 143.480466 
L 268.558946 141.383398 
L 269.113575 135.607957 
L 269.673911 132.547148 
L 270.246236 134.112543 
L 270.80472 131.466773 
L 271.365236 133.042336 
L 271.91775 137.218722 
L 272.481033 135.531253 
L 273.043221 140.166171 
L 274.732846 158.689753 
L 275.286959 154.746856 
L 275.847823 145.731577 
L 276.407565 149.191918 
L 276.977358 145.034968 
L 277.535219 147.570398 
L 278.093423 146.920177 
L 278.658205 141.857994 
L 279.781314 145.698781 
L 280.345534 137.587836 
L 280.902773 133.522309 
L 281.465421 141.770283 
L 282.025101 147.065209 
L 282.582222 147.595537 
L 283.150865 145.990861 
L 283.703648 149.761006 
L 284.267037 154.509511 
L 285.391274 166.221168 
L 285.949113 166.625713 
L 286.519541 165.898575 
L 287.078732 162.007037 
L 287.63289 162.052193 
L 288.19853 168.775584 
L 288.761628 167.402235 
L 289.321993 158.838906 
L 289.886494 154.180212 
L 290.445713 153.65336 
L 291.001353 152.37955 
L 291.5622 158.132708 
L 292.12665 159.802818 
L 292.689058 156.193336 
L 293.245466 162.039847 
L 293.812565 165.802812 
L 294.367688 158.146237 
L 294.929546 154.841029 
L 295.49825 156.555005 
L 296.052352 153.583556 
L 296.617857 143.966036 
L 297.17995 136.861953 
L 297.74275 135.356384 
L 298.305304 136.254671 
L 298.85816 138.160556 
L 299.425977 132.728115 
L 299.980786 134.992476 
L 300.542857 138.828592 
L 301.104602 138.362201 
L 301.666426 134.055717 
L 302.226482 134.403423 
L 302.784517 134.554334 
L 303.351869 139.278631 
L 304.470651 151.024544 
L 305.033833 145.487232 
L 305.60132 141.759815 
L 306.163727 134.739696 
L 306.719013 134.561372 
L 307.276123 141.954206 
L 307.835853 139.029098 
L 308.398188 133.996415 
L 309.518962 136.041365 
L 310.080011 144.926144 
L 311.210882 156.383954 
L 311.768171 159.674032 
L 312.325988 155.511979 
L 312.895416 152.93394 
L 313.453238 156.703487 
L 314.013446 158.904648 
L 314.575511 153.263512 
L 315.137503 151.839557 
L 315.699176 154.059728 
L 316.261426 151.195457 
L 316.826314 149.725236 
L 317.940977 158.22059 
L 318.509429 164.936421 
L 319.060208 167.186464 
L 319.631471 156.57175 
L 320.191707 155.886997 
L 320.744428 153.920204 
L 321.305634 148.773363 
L 321.870809 146.201235 
L 322.435191 143.030722 
L 322.999103 145.68283 
L 323.560405 143.86124 
L 324.117206 145.679573 
L 324.675034 140.414317 
L 325.236448 137.61083 
L 325.801707 133.855036 
L 326.356117 131.218082 
L 326.925175 127.261693 
L 327.48793 129.106443 
L 328.605842 150.111116 
L 329.16779 148.748809 
L 329.731101 137.511685 
L 330.286824 130.612765 
L 330.847509 136.825295 
L 331.414294 139.607991 
L 331.973446 144.112427 
L 333.095584 160.43236 
L 333.651801 164.898578 
L 334.212722 170.488784 
L 334.781903 171.309009 
L 335.341774 163.136226 
L 335.896953 160.175083 
L 337.028362 147.563483 
L 338.145 158.508976 
L 338.704787 155.560307 
L 339.271813 147.598703 
L 339.828996 148.488634 
L 340.388294 147.848605 
L 340.946728 144.25789 
L 341.517307 147.23919 
L 342.070578 143.565462 
L 342.639681 142.297043 
L 343.193681 146.494376 
L 343.762481 154.223569 
L 344.321903 154.458274 
L 344.877166 151.186557 
L 345.437991 151.556507 
L 346.004849 155.422285 
L 346.559242 152.780189 
L 348.245264 140.319837 
L 348.803984 134.979141 
L 349.367441 135.356044 
L 349.935332 141.291575 
L 350.488648 141.800375 
L 351.055287 149.740828 
L 351.612172 154.710529 
L 352.179041 151.609883 
L 352.737896 150.847407 
L 353.293614 151.378742 
L 354.416757 143.858744 
L 354.98133 144.407849 
L 355.539456 145.146811 
L 356.100528 138.491906 
L 357.229041 131.849782 
L 357.787307 130.569734 
L 358.352661 128.072805 
L 358.907784 126.702101 
L 359.475074 130.704478 
L 360.032397 129.042802 
L 360.590494 131.586284 
L 361.155028 132.02569 
L 361.716314 138.183336 
L 362.282818 141.215965 
L 362.841527 141.460247 
L 363.397391 141.98449 
L 363.956453 142.772594 
L 364.521869 134.201889 
L 365.087666 128.791884 
L 365.645696 125.098769 
L 366.206168 125.043647 
L 366.767475 123.778022 
L 367.328917 125.104208 
L 367.887206 124.389822 
L 368.453025 131.386917 
L 369.011527 135.605135 
L 369.580702 134.906292 
L 370.13999 129.919931 
L 370.693844 128.139151 
L 371.259866 132.432478 
L 371.818193 131.503496 
L 372.384052 132.640241 
L 372.938249 140.98969 
L 373.505371 145.631956 
L 374.067762 138.056273 
L 374.629675 136.339251 
L 375.183564 137.465928 
L 375.748497 133.314162 
L 376.315663 132.651814 
L 376.865965 134.177628 
L 377.431667 139.765521 
L 377.993502 140.037051 
L 378.549619 136.132365 
L 379.113564 137.70737 
L 379.67362 138.689199 
L 380.232076 140.640176 
L 381.367195 146.590026 
L 381.924064 146.719328 
L 382.486667 140.410918 
L 383.039619 138.561435 
L 383.607633 140.651091 
L 384.169383 141.010386 
L 384.731522 137.773092 
L 385.286005 132.787165 
L 385.84784 138.840117 
L 386.407318 146.743839 
L 386.974019 145.625492 
L 387.529995 135.812508 
L 388.090825 130.549747 
L 388.651841 136.788562 
L 389.217464 136.820845 
L 389.780534 138.987079 
L 390.338553 137.435567 
L 390.900253 140.236105 
L 391.463104 144.687084 
L 392.027577 139.017956 
L 392.578732 138.009299 
L 393.151157 140.294995 
L 393.708025 137.461897 
L 394.268171 139.237951 
L 395.947385 164.333528 
L 396.511712 165.305198 
L 397.077885 157.027288 
L 397.63885 152.094683 
L 398.195298 161.454672 
L 398.757442 164.182727 
L 399.318536 159.837442 
L 399.874961 160.03172 
L 400.439821 162.70794 
L 401.00142 158.702927 
L 401.563586 159.286274 
L 402.680314 162.890397 
L 403.812509 146.385722 
L 404.363636 146.63383 
L 404.363636 146.63383 
" style="fill:none;stroke:#ff7f0e;stroke-linecap:square;stroke-width:1.5;"/>
   </g>
   <g id="line2d_33">
    <path clip-path="url(#pd0c0f565ae)" d="M 67.636364 235.499998 
L 68.209964 235.472199 
L 69.322126 235.041634 
L 69.888762 234.474035 
L 70.451041 231.727112 
L 71.011609 226.496546 
L 71.566954 219.649138 
L 74.932336 159.240515 
L 76.616872 135.569854 
L 78.308888 119.169229 
L 78.864359 115.004306 
L 79.425417 109.456667 
L 79.990361 102.718519 
L 80.54596 98.895268 
L 81.106472 97.638496 
L 81.666831 97.308157 
L 83.35296 93.120372 
L 84.475089 87.132923 
L 85.044242 85.567923 
L 85.601199 84.711488 
L 86.157393 84.777543 
L 87.286891 82.510546 
L 87.848537 82.452248 
L 88.410996 82.712298 
L 88.967229 82.205563 
L 89.53178 80.891095 
L 90.090516 76.993136 
L 90.652762 74.093952 
L 91.772732 71.145169 
L 92.337442 69.734175 
L 92.900899 68.733437 
L 93.45548 66.646884 
L 94.015981 62.823988 
L 94.585865 61.942289 
L 95.143746 61.470861 
L 95.704948 61.393665 
L 96.824638 59.826811 
L 97.381464 58.412773 
L 97.942935 57.933526 
L 98.512975 57.617572 
L 99.067523 56.553513 
L 99.628133 56.701694 
L 100.197756 55.782787 
L 100.752421 55.434725 
L 101.314233 55.305086 
L 101.880167 53.594362 
L 102.437396 52.894142 
L 102.996056 51.440981 
L 103.56305 51.94359 
L 104.120972 54.362523 
L 104.682861 55.680297 
L 105.240136 55.167567 
L 105.804522 52.7584 
L 106.362005 52.671716 
L 106.92686 54.061278 
L 107.492156 55.023836 
L 108.047829 54.284446 
L 108.610329 52.449352 
L 109.169326 51.332773 
L 109.730298 51.97284 
L 110.297185 51.753938 
L 111.420175 50.630514 
L 111.977672 51.073434 
L 112.535965 51.322374 
L 113.10097 49.849234 
L 113.664548 50.133127 
L 114.222333 51.898904 
L 114.779686 51.561086 
L 115.912237 47.186955 
L 116.466886 48.078651 
L 117.032096 48.640348 
L 117.587822 48.894418 
L 118.15402 48.307906 
L 118.711976 49.701393 
L 119.26941 50.016127 
L 119.83907 49.463408 
L 120.961738 50.754837 
L 121.520173 51.510606 
L 122.077988 51.176094 
L 122.64219 49.31294 
L 123.198139 48.689885 
L 123.758384 48.423902 
L 124.31904 48.977393 
L 124.883064 47.747678 
L 125.441504 47.638358 
L 126.012408 47.182814 
L 126.573025 47.101986 
L 127.129327 47.237188 
L 127.69357 47.047071 
L 128.252975 47.271243 
L 128.819675 45.623237 
L 129.370146 45.390614 
L 129.934231 45.593756 
L 130.503059 44.922724 
L 131.055769 45.196526 
L 131.614675 46.384414 
L 132.17775 47.247031 
L 132.7372 47.26548 
L 133.30156 46.031731 
L 133.865949 45.372427 
L 134.420701 46.355056 
L 134.989423 46.840916 
L 135.544085 47.641124 
L 136.107918 47.616046 
L 136.676583 48.173416 
L 137.227986 47.149361 
L 137.797021 46.490582 
L 138.353238 46.953697 
L 138.913575 47.203828 
L 139.478783 47.959226 
L 140.033367 48.199282 
L 140.601095 47.102713 
L 141.157183 46.672895 
L 141.721516 46.655358 
L 142.28211 45.95435 
L 142.845388 46.517082 
L 144.529759 44.526946 
L 145.091634 42.686012 
L 146.208502 41.171647 
L 147.331919 39.039574 
L 147.893496 39.645137 
L 148.454939 39.693918 
L 149.583895 40.725328 
L 150.142004 39.620708 
L 150.697677 39.170186 
L 151.266061 38.252516 
L 151.819119 39.534813 
L 152.385702 40.129777 
L 152.943794 38.978849 
L 153.502823 39.274531 
L 154.063328 39.958681 
L 154.629355 39.200147 
L 155.748513 41.000644 
L 156.317885 40.695645 
L 156.870112 41.968023 
L 157.440719 42.71999 
L 158.561942 39.684214 
L 159.124917 39.695726 
L 159.675875 40.696217 
L 160.239433 41.334801 
L 160.799849 41.499685 
L 161.3605 41.817926 
L 161.929754 41.904424 
L 162.486437 40.694718 
L 163.049316 40.23613 
L 163.605208 38.417894 
L 164.169136 37.820412 
L 164.730135 38.169602 
L 165.297958 39.771269 
L 166.416415 41.742429 
L 166.972789 42.395738 
L 167.543334 42.193214 
L 168.099625 41.839543 
L 168.661639 42.299058 
L 169.78096 42.33078 
L 170.343805 41.80541 
L 170.909249 42.54667 
L 171.471336 42.787884 
L 172.029091 43.604146 
L 172.590775 42.391365 
L 173.144489 42.999788 
L 173.71165 43.376374 
L 174.269405 42.388322 
L 174.827884 42.945753 
L 175.39857 41.755934 
L 175.957492 40.269845 
L 176.518609 39.383063 
L 177.074748 39.177958 
L 177.638474 38.209792 
L 178.20032 36.234676 
L 178.760068 35.538226 
L 179.321173 35.958092 
L 179.881807 34.139331 
L 180.44463 34.94901 
L 181.009602 34.91205 
L 181.564091 35.543727 
L 182.134529 36.640914 
L 183.254619 38.045155 
L 183.81509 38.233371 
L 184.368608 37.203012 
L 184.93504 36.642984 
L 185.492615 36.957332 
L 186.622997 38.694988 
L 187.181173 38.092931 
L 187.737705 38.66685 
L 188.301661 38.166744 
L 188.86454 37.828446 
L 189.424147 37.200154 
L 189.988654 35.732916 
L 190.55233 35.054112 
L 191.113115 33.951949 
L 191.665965 33.324166 
L 192.790258 33.577882 
L 193.349989 35.128542 
L 193.912823 35.294122 
L 195.045024 34.689562 
L 195.60403 34.658489 
L 196.162358 33.551305 
L 196.724389 33.080016 
L 197.28733 33.644818 
L 197.83931 34.998811 
L 198.960589 39.228284 
L 199.528396 39.51043 
L 200.648401 38.586363 
L 201.2072 37.545883 
L 201.766279 38.036626 
L 202.335062 37.703829 
L 203.450572 36.115359 
L 204.018345 35.365508 
L 204.577498 35.020041 
L 205.146881 34.882676 
L 205.702593 35.874484 
L 206.266028 35.879382 
L 206.826291 36.079264 
L 207.939804 37.428605 
L 209.071875 36.236623 
L 209.62541 36.864375 
L 210.749226 36.809352 
L 211.316864 37.681332 
L 211.877487 38.798869 
L 212.429574 38.915436 
L 212.996796 37.71772 
L 213.560102 37.544786 
L 214.112755 37.828385 
L 214.682582 36.605236 
L 215.245253 36.761853 
L 215.802329 35.937109 
L 216.368609 34.599696 
L 216.922963 34.856702 
L 217.491387 33.976286 
L 218.041543 34.670016 
L 218.612268 35.607913 
L 219.73188 35.48294 
L 220.291465 35.898387 
L 220.847694 35.885578 
L 221.416044 35.700839 
L 221.972756 34.811908 
L 222.539007 33.201172 
L 223.096313 32.82491 
L 223.654338 33.146658 
L 224.220006 33.686105 
L 224.783194 32.911578 
L 225.339175 33.185844 
L 225.90912 32.375237 
L 226.468486 31.058452 
L 227.028772 30.78981 
L 227.593065 30.29366 
L 228.144613 31.108407 
L 228.710433 31.635198 
L 229.270062 31.083623 
L 229.833912 30.915169 
L 230.392144 30.547143 
L 230.949119 30.624988 
L 231.51555 30.922385 
L 232.074102 30.54138 
L 232.634938 32.150818 
L 233.199428 33.194404 
L 233.763609 33.186879 
L 234.318906 31.840612 
L 234.887015 32.242091 
L 235.44701 32.930367 
L 236.004304 32.076774 
L 236.564804 29.32829 
L 237.123367 29.108476 
L 237.691499 30.032574 
L 238.806122 32.352755 
L 239.368822 32.201345 
L 239.929394 31.752074 
L 240.495792 32.609113 
L 241.056201 32.474606 
L 241.618693 31.408956 
L 242.178727 30.956487 
L 243.301274 32.461024 
L 243.858766 32.437801 
L 244.984422 31.291416 
L 245.546443 31.365506 
L 246.114872 31.096818 
L 246.674574 31.019854 
L 247.234176 29.607593 
L 247.785909 29.521852 
L 248.911313 31.007168 
L 249.4799 31.185897 
L 250.030595 31.205598 
L 250.597717 30.753128 
L 251.161488 30.791742 
L 252.283177 29.297603 
L 252.842329 29.797462 
L 253.401841 31.100017 
L 253.96206 30.708921 
L 254.520511 30.838761 
L 255.089153 31.293826 
L 255.653497 31.891602 
L 256.216157 31.996395 
L 256.773615 30.037364 
L 257.332509 28.811589 
L 257.891499 29.04225 
L 259.011353 30.92016 
L 259.579142 31.584625 
L 260.138727 32.526771 
L 260.700517 33.089503 
L 261.25926 33.298764 
L 261.821291 32.806028 
L 262.379153 31.506765 
L 262.938215 31.077318 
L 263.501319 29.890836 
L 264.068839 29.797818 
L 264.627789 28.18583 
L 265.184551 28.782261 
L 265.755164 28.264277 
L 266.315147 25.488243 
L 266.876398 23.844749 
L 267.989714 22.867621 
L 268.558946 21.541518 
L 269.113575 22.529262 
L 269.673911 22.994834 
L 270.246236 24.142641 
L 270.80472 25.567062 
L 271.365236 26.320235 
L 271.91775 27.366771 
L 272.481033 29.068317 
L 273.043221 29.954682 
L 273.601801 30.199158 
L 274.732846 28.177934 
L 275.286959 29.131514 
L 275.847823 29.44033 
L 276.407565 29.560512 
L 277.535219 30.571108 
L 278.093423 30.856793 
L 278.658205 30.696792 
L 279.220354 31.348123 
L 279.781314 31.613551 
L 280.345534 31.262907 
L 281.465421 32.464099 
L 282.025101 32.385111 
L 282.582222 31.274311 
L 283.150865 30.680784 
L 283.703648 30.574214 
L 284.83431 28.346434 
L 285.391274 27.713969 
L 285.949113 26.54572 
L 286.519541 27.515647 
L 287.078732 29.949908 
L 287.63289 31.175838 
L 288.19853 31.377558 
L 289.321993 31.002656 
L 289.886494 31.285328 
L 291.001353 32.89696 
L 291.5622 33.758603 
L 292.12665 33.490147 
L 292.689058 32.49219 
L 293.245466 31.116395 
L 294.367688 29.705216 
L 294.929546 29.191296 
L 295.49825 29.349026 
L 296.052352 29.701245 
L 296.617857 29.327548 
L 297.17995 29.462966 
L 297.74275 29.050872 
L 298.305304 29.438182 
L 298.85816 29.461313 
L 299.425977 29.022472 
L 299.980786 28.916721 
L 300.542857 27.99389 
L 301.104602 27.319907 
L 301.666426 27.173796 
L 302.784517 27.2901 
L 303.351869 27.443303 
L 303.910309 27.76482 
L 304.470651 28.451814 
L 305.033833 28.809951 
L 305.60132 27.540849 
L 306.719013 27.10618 
L 308.398188 29.282399 
L 308.967807 29.849534 
L 309.518962 29.642112 
L 310.080011 30.166539 
L 310.6461 30.518295 
L 311.210882 30.117419 
L 311.768171 30.141384 
L 312.325988 29.817673 
L 312.895416 28.595745 
L 313.453238 26.92963 
L 314.013446 27.176145 
L 314.575511 25.669537 
L 315.137503 25.16002 
L 315.699176 25.152943 
L 316.261426 23.589149 
L 316.826314 23.099472 
L 317.940977 25.281161 
L 319.060208 28.645731 
L 319.631471 29.993713 
L 320.744428 31.580608 
L 321.305634 30.934592 
L 322.435191 30.335039 
L 322.999103 29.91219 
L 323.560405 29.832615 
L 324.117206 30.187136 
L 324.675034 29.975573 
L 325.236448 30.256375 
L 325.801707 29.837667 
L 326.356117 28.614148 
L 326.925175 28.553748 
L 327.48793 29.859346 
L 328.050719 29.798544 
L 328.605842 29.990175 
L 329.16779 29.70313 
L 329.731101 28.419025 
L 330.286824 28.610826 
L 330.847509 28.347716 
L 331.414294 27.454799 
L 331.973446 27.40061 
L 333.095584 25.608256 
L 334.212722 26.360239 
L 335.341774 27.700016 
L 335.896953 28.210846 
L 336.465309 27.607584 
L 337.028362 26.395437 
L 337.590843 25.52542 
L 338.145 24.991088 
L 338.704787 25.020291 
L 339.271813 25.190444 
L 340.388294 26.615592 
L 340.946728 27.86782 
L 341.517307 28.490674 
L 342.070578 28.794221 
L 343.193681 28.905936 
L 343.762481 28.87596 
L 344.321903 27.879085 
L 344.877166 27.38074 
L 345.437991 26.46653 
L 346.559242 25.39541 
L 347.121987 25.644289 
L 347.685068 26.648117 
L 348.245264 26.226876 
L 348.803984 25.346336 
L 349.367441 25.728763 
L 350.488648 28.270273 
L 351.055287 28.747603 
L 351.612172 28.638021 
L 353.293614 28.820875 
L 353.85757 28.024778 
L 354.416757 25.682083 
L 354.98133 25.966192 
L 355.539456 27.00576 
L 356.100528 28.454147 
L 356.664344 27.979165 
L 357.229041 27.731985 
L 357.787307 27.712424 
L 358.352661 27.136651 
L 359.475074 26.49337 
L 360.032397 26.465356 
L 360.590494 27.602794 
L 361.155028 27.939392 
L 361.716314 29.061008 
L 362.282818 28.994814 
L 362.841527 27.553149 
L 363.397391 26.583746 
L 363.956453 27.015325 
L 364.521869 28.535623 
L 365.087666 29.151307 
L 365.645696 29.081188 
L 366.767475 29.296923 
L 367.887206 27.44644 
L 368.453025 27.14671 
L 369.011527 27.252769 
L 369.580702 28.787561 
L 370.13999 28.653364 
L 370.693844 27.997521 
L 371.259866 28.38497 
L 371.818193 28.614395 
L 373.505371 28.294825 
L 374.067762 29.431569 
L 374.629675 28.370291 
L 375.183564 26.617415 
L 375.748497 26.532138 
L 376.315663 26.318458 
L 376.865965 24.902566 
L 377.993502 24.175475 
L 378.549619 24.465857 
L 379.113564 25.192654 
L 379.67362 26.123922 
L 380.232076 25.814936 
L 380.795511 24.772154 
L 381.367195 22.97467 
L 381.924064 23.818713 
L 383.039619 26.577287 
L 383.607633 27.565031 
L 384.169383 27.265162 
L 384.731522 26.674277 
L 385.286005 26.836781 
L 386.407318 22.60258 
L 386.974019 22.746388 
L 387.529995 24.998041 
L 388.090825 26.782747 
L 388.651841 26.816725 
L 389.780534 29.337607 
L 390.338553 30.016319 
L 390.900253 29.646083 
L 392.027577 27.168156 
L 392.578732 26.814238 
L 393.151157 25.087753 
L 393.708025 22.521845 
L 394.268171 21.648134 
L 394.828794 21.843582 
L 395.387671 22.305446 
L 395.947385 21.5 
L 396.511712 21.836041 
L 397.077885 23.400948 
L 397.63885 24.616464 
L 398.757442 25.780124 
L 399.874961 25.175395 
L 400.439821 25.632932 
L 401.00142 26.333059 
L 402.120971 27.219904 
L 402.680314 26.770942 
L 403.250691 25.7143 
L 403.812509 26.516593 
L 404.363636 26.746312 
L 404.363636 26.746312 
" style="fill:none;stroke:#2ca02c;stroke-linecap:square;stroke-width:1.5;"/>
   </g>
   <g id="patch_3">
    <path d="M 50.8 246.2 
L 50.8 10.8 
" style="fill:none;stroke:#000000;stroke-linecap:square;stroke-linejoin:miter;stroke-width:0.8;"/>
   </g>
   <g id="patch_4">
    <path d="M 421.2 246.2 
L 421.2 10.8 
" style="fill:none;stroke:#000000;stroke-linecap:square;stroke-linejoin:miter;stroke-width:0.8;"/>
   </g>
   <g id="patch_5">
    <path d="M 50.8 246.2 
L 421.2 246.2 
" style="fill:none;stroke:#000000;stroke-linecap:square;stroke-linejoin:miter;stroke-width:0.8;"/>
   </g>
   <g id="patch_6">
    <path d="M 50.8 10.8 
L 421.2 10.8 
" style="fill:none;stroke:#000000;stroke-linecap:square;stroke-linejoin:miter;stroke-width:0.8;"/>
   </g>
   <g id="legend_1">
    <g id="patch_7">
     <path d="M 57.8 152.017188 
L 177.504688 152.017188 
Q 179.504688 152.017188 179.504688 150.017188 
L 179.504688 106.982812 
Q 179.504688 104.982812 177.504688 104.982812 
L 57.8 104.982812 
Q 55.8 104.982812 55.8 106.982812 
L 55.8 150.017188 
Q 55.8 152.017188 57.8 152.017188 
z
" style="fill:#ffffff;opacity:0.8;stroke:#cccccc;stroke-linejoin:miter;"/>
    </g>
    <g id="line2d_34">
     <path d="M 59.8 113.08125 
L 79.8 113.08125 
" style="fill:none;stroke:#1f77b4;stroke-linecap:square;stroke-width:1.5;"/>
    </g>
    <g id="line2d_35"/>
    <g id="text_18">
     <!-- Thermocouple 01 -->
     <defs>
      <path d="M 54.890625 33.015625 
L 54.890625 0 
L 45.90625 0 
L 45.90625 32.71875 
Q 45.90625 40.484375 42.875 44.328125 
Q 39.84375 48.1875 33.796875 48.1875 
Q 26.515625 48.1875 22.3125 43.546875 
Q 18.109375 38.921875 18.109375 30.90625 
L 18.109375 0 
L 9.078125 0 
L 9.078125 75.984375 
L 18.109375 75.984375 
L 18.109375 46.1875 
Q 21.34375 51.125 25.703125 53.5625 
Q 30.078125 56 35.796875 56 
Q 45.21875 56 50.046875 50.171875 
Q 54.890625 44.34375 54.890625 33.015625 
z
" id="DejaVuSans-104"/>
      <path d="M 30.609375 48.390625 
Q 23.390625 48.390625 19.1875 42.75 
Q 14.984375 37.109375 14.984375 27.296875 
Q 14.984375 17.484375 19.15625 11.84375 
Q 23.34375 6.203125 30.609375 6.203125 
Q 37.796875 6.203125 41.984375 11.859375 
Q 46.1875 17.53125 46.1875 27.296875 
Q 46.1875 37.015625 41.984375 42.703125 
Q 37.796875 48.390625 30.609375 48.390625 
z
M 30.609375 56 
Q 42.328125 56 49.015625 48.375 
Q 55.71875 40.765625 55.71875 27.296875 
Q 55.71875 13.875 49.015625 6.21875 
Q 42.328125 -1.421875 30.609375 -1.421875 
Q 18.84375 -1.421875 12.171875 6.21875 
Q 5.515625 13.875 5.515625 27.296875 
Q 5.515625 40.765625 12.171875 48.375 
Q 18.84375 56 30.609375 56 
z
" id="DejaVuSans-111"/>
      <path d="M 48.78125 52.59375 
L 48.78125 44.1875 
Q 44.96875 46.296875 41.140625 47.34375 
Q 37.3125 48.390625 33.40625 48.390625 
Q 24.65625 48.390625 19.8125 42.84375 
Q 14.984375 37.3125 14.984375 27.296875 
Q 14.984375 17.28125 19.8125 11.734375 
Q 24.65625 6.203125 33.40625 6.203125 
Q 37.3125 6.203125 41.140625 7.25 
Q 44.96875 8.296875 48.78125 10.40625 
L 48.78125 2.09375 
Q 45.015625 0.34375 40.984375 -0.53125 
Q 36.96875 -1.421875 32.421875 -1.421875 
Q 20.0625 -1.421875 12.78125 6.34375 
Q 5.515625 14.109375 5.515625 27.296875 
Q 5.515625 40.671875 12.859375 48.328125 
Q 20.21875 56 33.015625 56 
Q 37.15625 56 41.109375 55.140625 
Q 45.0625 54.296875 48.78125 52.59375 
z
" id="DejaVuSans-99"/>
      <path d="M 9.421875 75.984375 
L 18.40625 75.984375 
L 18.40625 0 
L 9.421875 0 
z
" id="DejaVuSans-108"/>
     </defs>
     <g transform="translate(87.8 116.58125)scale(0.1 -0.1)">
      <use xlink:href="#DejaVuSans-84"/>
      <use x="61.083984" xlink:href="#DejaVuSans-104"/>
      <use x="124.462891" xlink:href="#DejaVuSans-101"/>
      <use x="185.986328" xlink:href="#DejaVuSans-114"/>
      <use x="227.083984" xlink:href="#DejaVuSans-109"/>
      <use x="324.496094" xlink:href="#DejaVuSans-111"/>
      <use x="385.677734" xlink:href="#DejaVuSans-99"/>
      <use x="440.658203" xlink:href="#DejaVuSans-111"/>
      <use x="501.839844" xlink:href="#DejaVuSans-117"/>
      <use x="565.21875" xlink:href="#DejaVuSans-112"/>
      <use x="628.695312" xlink:href="#DejaVuSans-108"/>
      <use x="656.478516" xlink:href="#DejaVuSans-101"/>
      <use x="718.001953" xlink:href="#DejaVuSans-32"/>
      <use x="749.789062" xlink:href="#DejaVuSans-48"/>
      <use x="813.412109" xlink:href="#DejaVuSans-49"/>
     </g>
    </g>
    <g id="line2d_36">
     <path d="M 59.8 127.759375 
L 79.8 127.759375 
" style="fill:none;stroke:#ff7f0e;stroke-linecap:square;stroke-width:1.5;"/>
    </g>
    <g id="line2d_37"/>
    <g id="text_19">
     <!-- Thermocouple 11 -->
     <g transform="translate(87.8 131.259375)scale(0.1 -0.1)">
      <use xlink:href="#DejaVuSans-84"/>
      <use x="61.083984" xlink:href="#DejaVuSans-104"/>
      <use x="124.462891" xlink:href="#DejaVuSans-101"/>
      <use x="185.986328" xlink:href="#DejaVuSans-114"/>
      <use x="227.083984" xlink:href="#DejaVuSans-109"/>
      <use x="324.496094" xlink:href="#DejaVuSans-111"/>
      <use x="385.677734" xlink:href="#DejaVuSans-99"/>
      <use x="440.658203" xlink:href="#DejaVuSans-111"/>
      <use x="501.839844" xlink:href="#DejaVuSans-117"/>
      <use x="565.21875" xlink:href="#DejaVuSans-112"/>
      <use x="628.695312" xlink:href="#DejaVuSans-108"/>
      <use x="656.478516" xlink:href="#DejaVuSans-101"/>
      <use x="718.001953" xlink:href="#DejaVuSans-32"/>
      <use x="749.789062" xlink:href="#DejaVuSans-49"/>
      <use x="813.412109" xlink:href="#DejaVuSans-49"/>
     </g>
    </g>
    <g id="line2d_38">
     <path d="M 59.8 142.4375 
L 79.8 142.4375 
" style="fill:none;stroke:#2ca02c;stroke-linecap:square;stroke-width:1.5;"/>
    </g>
    <g id="line2d_39"/>
    <g id="text_20">
     <!-- Thermocouple 18 -->
     <g transform="translate(87.8 145.9375)scale(0.1 -0.1)">
      <use xlink:href="#DejaVuSans-84"/>
      <use x="61.083984" xlink:href="#DejaVuSans-104"/>
      <use x="124.462891" xlink:href="#DejaVuSans-101"/>
      <use x="185.986328" xlink:href="#DejaVuSans-114"/>
      <use x="227.083984" xlink:href="#DejaVuSans-109"/>
      <use x="324.496094" xlink:href="#DejaVuSans-111"/>
      <use x="385.677734" xlink:href="#DejaVuSans-99"/>
      <use x="440.658203" xlink:href="#DejaVuSans-111"/>
      <use x="501.839844" xlink:href="#DejaVuSans-117"/>
      <use x="565.21875" xlink:href="#DejaVuSans-112"/>
      <use x="628.695312" xlink:href="#DejaVuSans-108"/>
      <use x="656.478516" xlink:href="#DejaVuSans-101"/>
      <use x="718.001953" xlink:href="#DejaVuSans-32"/>
      <use x="749.789062" xlink:href="#DejaVuSans-49"/>
      <use x="813.412109" xlink:href="#DejaVuSans-56"/>
     </g>
    </g>
   </g>
  </g>
 </g>
 <defs>
  <clipPath id="pd0c0f565ae">
   <rect height="235.4" width="370.4" x="50.8" y="10.8"/>
  </clipPath>
 </defs>
</svg>
