<?xml version="1.0" encoding="utf-8" standalone="no"?>
<!DOCTYPE svg PUBLIC "-//W3C//DTD SVG 1.1//EN"
  "http://www.w3.org/Graphics/SVG/1.1/DTD/svg11.dtd">
<!-- Created with matplotlib (https://matplotlib.org/) -->
<svg height="288pt" version="1.1" viewBox="0 0 432 288" width="432pt" xmlns="http://www.w3.org/2000/svg" xmlns:xlink="http://www.w3.org/1999/xlink">
 <defs>
  <style type="text/css">
*{stroke-linecap:butt;stroke-linejoin:round;}
  </style>
 </defs>
 <g id="figure_1">
  <g id="patch_1">
   <path d="M 0 288 
L 432 288 
L 432 0 
L 0 0 
z
" style="fill:#ffffff;"/>
  </g>
  <g id="axes_1">
   <g id="patch_2">
    <path d="M 50.675 246.2 
L 421.2 246.2 
L 421.2 10.8 
L 50.675 10.8 
z
" style="fill:#ffffff;"/>
   </g>
   <g id="matplotlib.axis_1">
    <g id="xtick_1">
     <g id="line2d_1">
      <path clip-path="url(#pf502247928)" d="M 67.517045 246.2 
L 67.517045 10.8 
" style="fill:none;stroke:#b0b0b0;stroke-linecap:square;stroke-width:0.8;"/>
     </g>
     <g id="line2d_2">
      <defs>
       <path d="M 0 0 
L 0 3.5 
" id="mbe0ed1572e" style="stroke:#000000;stroke-width:0.8;"/>
      </defs>
      <g>
       <use style="stroke:#000000;stroke-width:0.8;" x="67.517045" xlink:href="#mbe0ed1572e" y="246.2"/>
      </g>
     </g>
     <g id="text_1">
      <!-- 0 -->
      <defs>
       <path d="M 31.78125 66.40625 
Q 24.171875 66.40625 20.328125 58.90625 
Q 16.5 51.421875 16.5 36.375 
Q 16.5 21.390625 20.328125 13.890625 
Q 24.171875 6.390625 31.78125 6.390625 
Q 39.453125 6.390625 43.28125 13.890625 
Q 47.125 21.390625 47.125 36.375 
Q 47.125 51.421875 43.28125 58.90625 
Q 39.453125 66.40625 31.78125 66.40625 
z
M 31.78125 74.21875 
Q 44.046875 74.21875 50.515625 64.515625 
Q 56.984375 54.828125 56.984375 36.375 
Q 56.984375 17.96875 50.515625 8.265625 
Q 44.046875 -1.421875 31.78125 -1.421875 
Q 19.53125 -1.421875 13.0625 8.265625 
Q 6.59375 17.96875 6.59375 36.375 
Q 6.59375 54.828125 13.0625 64.515625 
Q 19.53125 74.21875 31.78125 74.21875 
z
" id="DejaVuSans-48"/>
      </defs>
      <g transform="translate(64.335795 260.798437)scale(0.1 -0.1)">
       <use xlink:href="#DejaVuSans-48"/>
      </g>
     </g>
    </g>
    <g id="xtick_2">
     <g id="line2d_3">
      <path clip-path="url(#pf502247928)" d="M 123.657197 246.2 
L 123.657197 10.8 
" style="fill:none;stroke:#b0b0b0;stroke-linecap:square;stroke-width:0.8;"/>
     </g>
     <g id="line2d_4">
      <g>
       <use style="stroke:#000000;stroke-width:0.8;" x="123.657197" xlink:href="#mbe0ed1572e" y="246.2"/>
      </g>
     </g>
     <g id="text_2">
      <!-- 100 -->
      <defs>
       <path d="M 12.40625 8.296875 
L 28.515625 8.296875 
L 28.515625 63.921875 
L 10.984375 60.40625 
L 10.984375 69.390625 
L 28.421875 72.90625 
L 38.28125 72.90625 
L 38.28125 8.296875 
L 54.390625 8.296875 
L 54.390625 0 
L 12.40625 0 
z
" id="DejaVuSans-49"/>
      </defs>
      <g transform="translate(114.113447 260.798437)scale(0.1 -0.1)">
       <use xlink:href="#DejaVuSans-49"/>
       <use x="63.623047" xlink:href="#DejaVuSans-48"/>
       <use x="127.246094" xlink:href="#DejaVuSans-48"/>
      </g>
     </g>
    </g>
    <g id="xtick_3">
     <g id="line2d_5">
      <path clip-path="url(#pf502247928)" d="M 179.797348 246.2 
L 179.797348 10.8 
" style="fill:none;stroke:#b0b0b0;stroke-linecap:square;stroke-width:0.8;"/>
     </g>
     <g id="line2d_6">
      <g>
       <use style="stroke:#000000;stroke-width:0.8;" x="179.797348" xlink:href="#mbe0ed1572e" y="246.2"/>
      </g>
     </g>
     <g id="text_3">
      <!-- 200 -->
      <defs>
       <path d="M 19.1875 8.296875 
L 53.609375 8.296875 
L 53.609375 0 
L 7.328125 0 
L 7.328125 8.296875 
Q 12.9375 14.109375 22.625 23.890625 
Q 32.328125 33.6875 34.8125 36.53125 
Q 39.546875 41.84375 41.421875 45.53125 
Q 43.3125 49.21875 43.3125 52.78125 
Q 43.3125 58.59375 39.234375 62.25 
Q 35.15625 65.921875 28.609375 65.921875 
Q 23.96875 65.921875 18.8125 64.3125 
Q 13.671875 62.703125 7.8125 59.421875 
L 7.8125 69.390625 
Q 13.765625 71.78125 18.9375 73 
Q 24.125 74.21875 28.421875 74.21875 
Q 39.75 74.21875 46.484375 68.546875 
Q 53.21875 62.890625 53.21875 53.421875 
Q 53.21875 48.921875 51.53125 44.890625 
Q 49.859375 40.875 45.40625 35.40625 
Q 44.1875 33.984375 37.640625 27.21875 
Q 31.109375 20.453125 19.1875 8.296875 
z
" id="DejaVuSans-50"/>
      </defs>
      <g transform="translate(170.253598 260.798437)scale(0.1 -0.1)">
       <use xlink:href="#DejaVuSans-50"/>
       <use x="63.623047" xlink:href="#DejaVuSans-48"/>
       <use x="127.246094" xlink:href="#DejaVuSans-48"/>
      </g>
     </g>
    </g>
    <g id="xtick_4">
     <g id="line2d_7">
      <path clip-path="url(#pf502247928)" d="M 235.9375 246.2 
L 235.9375 10.8 
" style="fill:none;stroke:#b0b0b0;stroke-linecap:square;stroke-width:0.8;"/>
     </g>
     <g id="line2d_8">
      <g>
       <use style="stroke:#000000;stroke-width:0.8;" x="235.9375" xlink:href="#mbe0ed1572e" y="246.2"/>
      </g>
     </g>
     <g id="text_4">
      <!-- 300 -->
      <defs>
       <path d="M 40.578125 39.3125 
Q 47.65625 37.796875 51.625 33 
Q 55.609375 28.21875 55.609375 21.1875 
Q 55.609375 10.40625 48.1875 4.484375 
Q 40.765625 -1.421875 27.09375 -1.421875 
Q 22.515625 -1.421875 17.65625 -0.515625 
Q 12.796875 0.390625 7.625 2.203125 
L 7.625 11.71875 
Q 11.71875 9.328125 16.59375 8.109375 
Q 21.484375 6.890625 26.8125 6.890625 
Q 36.078125 6.890625 40.9375 10.546875 
Q 45.796875 14.203125 45.796875 21.1875 
Q 45.796875 27.640625 41.28125 31.265625 
Q 36.765625 34.90625 28.71875 34.90625 
L 20.21875 34.90625 
L 20.21875 43.015625 
L 29.109375 43.015625 
Q 36.375 43.015625 40.234375 45.921875 
Q 44.09375 48.828125 44.09375 54.296875 
Q 44.09375 59.90625 40.109375 62.90625 
Q 36.140625 65.921875 28.71875 65.921875 
Q 24.65625 65.921875 20.015625 65.03125 
Q 15.375 64.15625 9.8125 62.3125 
L 9.8125 71.09375 
Q 15.4375 72.65625 20.34375 73.4375 
Q 25.25 74.21875 29.59375 74.21875 
Q 40.828125 74.21875 47.359375 69.109375 
Q 53.90625 64.015625 53.90625 55.328125 
Q 53.90625 49.265625 50.4375 45.09375 
Q 46.96875 40.921875 40.578125 39.3125 
z
" id="DejaVuSans-51"/>
      </defs>
      <g transform="translate(226.39375 260.798437)scale(0.1 -0.1)">
       <use xlink:href="#DejaVuSans-51"/>
       <use x="63.623047" xlink:href="#DejaVuSans-48"/>
       <use x="127.246094" xlink:href="#DejaVuSans-48"/>
      </g>
     </g>
    </g>
    <g id="xtick_5">
     <g id="line2d_9">
      <path clip-path="url(#pf502247928)" d="M 292.077652 246.2 
L 292.077652 10.8 
" style="fill:none;stroke:#b0b0b0;stroke-linecap:square;stroke-width:0.8;"/>
     </g>
     <g id="line2d_10">
      <g>
       <use style="stroke:#000000;stroke-width:0.8;" x="292.077652" xlink:href="#mbe0ed1572e" y="246.2"/>
      </g>
     </g>
     <g id="text_5">
      <!-- 400 -->
      <defs>
       <path d="M 37.796875 64.3125 
L 12.890625 25.390625 
L 37.796875 25.390625 
z
M 35.203125 72.90625 
L 47.609375 72.90625 
L 47.609375 25.390625 
L 58.015625 25.390625 
L 58.015625 17.1875 
L 47.609375 17.1875 
L 47.609375 0 
L 37.796875 0 
L 37.796875 17.1875 
L 4.890625 17.1875 
L 4.890625 26.703125 
z
" id="DejaVuSans-52"/>
      </defs>
      <g transform="translate(282.533902 260.798437)scale(0.1 -0.1)">
       <use xlink:href="#DejaVuSans-52"/>
       <use x="63.623047" xlink:href="#DejaVuSans-48"/>
       <use x="127.246094" xlink:href="#DejaVuSans-48"/>
      </g>
     </g>
    </g>
    <g id="xtick_6">
     <g id="line2d_11">
      <path clip-path="url(#pf502247928)" d="M 348.217803 246.2 
L 348.217803 10.8 
" style="fill:none;stroke:#b0b0b0;stroke-linecap:square;stroke-width:0.8;"/>
     </g>
     <g id="line2d_12">
      <g>
       <use style="stroke:#000000;stroke-width:0.8;" x="348.217803" xlink:href="#mbe0ed1572e" y="246.2"/>
      </g>
     </g>
     <g id="text_6">
      <!-- 500 -->
      <defs>
       <path d="M 10.796875 72.90625 
L 49.515625 72.90625 
L 49.515625 64.59375 
L 19.828125 64.59375 
L 19.828125 46.734375 
Q 21.96875 47.46875 24.109375 47.828125 
Q 26.265625 48.1875 28.421875 48.1875 
Q 40.625 48.1875 47.75 41.5 
Q 54.890625 34.8125 54.890625 23.390625 
Q 54.890625 11.625 47.5625 5.09375 
Q 40.234375 -1.421875 26.90625 -1.421875 
Q 22.3125 -1.421875 17.546875 -0.640625 
Q 12.796875 0.140625 7.71875 1.703125 
L 7.71875 11.625 
Q 12.109375 9.234375 16.796875 8.0625 
Q 21.484375 6.890625 26.703125 6.890625 
Q 35.15625 6.890625 40.078125 11.328125 
Q 45.015625 15.765625 45.015625 23.390625 
Q 45.015625 31 40.078125 35.4375 
Q 35.15625 39.890625 26.703125 39.890625 
Q 22.75 39.890625 18.8125 39.015625 
Q 14.890625 38.140625 10.796875 36.28125 
z
" id="DejaVuSans-53"/>
      </defs>
      <g transform="translate(338.674053 260.798437)scale(0.1 -0.1)">
       <use xlink:href="#DejaVuSans-53"/>
       <use x="63.623047" xlink:href="#DejaVuSans-48"/>
       <use x="127.246094" xlink:href="#DejaVuSans-48"/>
      </g>
     </g>
    </g>
    <g id="xtick_7">
     <g id="line2d_13">
      <path clip-path="url(#pf502247928)" d="M 404.357955 246.2 
L 404.357955 10.8 
" style="fill:none;stroke:#b0b0b0;stroke-linecap:square;stroke-width:0.8;"/>
     </g>
     <g id="line2d_14">
      <g>
       <use style="stroke:#000000;stroke-width:0.8;" x="404.357955" xlink:href="#mbe0ed1572e" y="246.2"/>
      </g>
     </g>
     <g id="text_7">
      <!-- 600 -->
      <defs>
       <path d="M 33.015625 40.375 
Q 26.375 40.375 22.484375 35.828125 
Q 18.609375 31.296875 18.609375 23.390625 
Q 18.609375 15.53125 22.484375 10.953125 
Q 26.375 6.390625 33.015625 6.390625 
Q 39.65625 6.390625 43.53125 10.953125 
Q 47.40625 15.53125 47.40625 23.390625 
Q 47.40625 31.296875 43.53125 35.828125 
Q 39.65625 40.375 33.015625 40.375 
z
M 52.59375 71.296875 
L 52.59375 62.3125 
Q 48.875 64.0625 45.09375 64.984375 
Q 41.3125 65.921875 37.59375 65.921875 
Q 27.828125 65.921875 22.671875 59.328125 
Q 17.53125 52.734375 16.796875 39.40625 
Q 19.671875 43.65625 24.015625 45.921875 
Q 28.375 48.1875 33.59375 48.1875 
Q 44.578125 48.1875 50.953125 41.515625 
Q 57.328125 34.859375 57.328125 23.390625 
Q 57.328125 12.15625 50.6875 5.359375 
Q 44.046875 -1.421875 33.015625 -1.421875 
Q 20.359375 -1.421875 13.671875 8.265625 
Q 6.984375 17.96875 6.984375 36.375 
Q 6.984375 53.65625 15.1875 63.9375 
Q 23.390625 74.21875 37.203125 74.21875 
Q 40.921875 74.21875 44.703125 73.484375 
Q 48.484375 72.75 52.59375 71.296875 
z
" id="DejaVuSans-54"/>
      </defs>
      <g transform="translate(394.814205 260.798437)scale(0.1 -0.1)">
       <use xlink:href="#DejaVuSans-54"/>
       <use x="63.623047" xlink:href="#DejaVuSans-48"/>
       <use x="127.246094" xlink:href="#DejaVuSans-48"/>
      </g>
     </g>
    </g>
    <g id="text_8">
     <!-- Time / s -->
     <defs>
      <path d="M -0.296875 72.90625 
L 61.375 72.90625 
L 61.375 64.59375 
L 35.5 64.59375 
L 35.5 0 
L 25.59375 0 
L 25.59375 64.59375 
L -0.296875 64.59375 
z
" id="DejaVuSans-84"/>
      <path d="M 9.421875 54.6875 
L 18.40625 54.6875 
L 18.40625 0 
L 9.421875 0 
z
M 9.421875 75.984375 
L 18.40625 75.984375 
L 18.40625 64.59375 
L 9.421875 64.59375 
z
" id="DejaVuSans-105"/>
      <path d="M 52 44.1875 
Q 55.375 50.25 60.0625 53.125 
Q 64.75 56 71.09375 56 
Q 79.640625 56 84.28125 50.015625 
Q 88.921875 44.046875 88.921875 33.015625 
L 88.921875 0 
L 79.890625 0 
L 79.890625 32.71875 
Q 79.890625 40.578125 77.09375 44.375 
Q 74.3125 48.1875 68.609375 48.1875 
Q 61.625 48.1875 57.5625 43.546875 
Q 53.515625 38.921875 53.515625 30.90625 
L 53.515625 0 
L 44.484375 0 
L 44.484375 32.71875 
Q 44.484375 40.625 41.703125 44.40625 
Q 38.921875 48.1875 33.109375 48.1875 
Q 26.21875 48.1875 22.15625 43.53125 
Q 18.109375 38.875 18.109375 30.90625 
L 18.109375 0 
L 9.078125 0 
L 9.078125 54.6875 
L 18.109375 54.6875 
L 18.109375 46.1875 
Q 21.1875 51.21875 25.484375 53.609375 
Q 29.78125 56 35.6875 56 
Q 41.65625 56 45.828125 52.96875 
Q 50 49.953125 52 44.1875 
z
" id="DejaVuSans-109"/>
      <path d="M 56.203125 29.59375 
L 56.203125 25.203125 
L 14.890625 25.203125 
Q 15.484375 15.921875 20.484375 11.0625 
Q 25.484375 6.203125 34.421875 6.203125 
Q 39.59375 6.203125 44.453125 7.46875 
Q 49.3125 8.734375 54.109375 11.28125 
L 54.109375 2.78125 
Q 49.265625 0.734375 44.1875 -0.34375 
Q 39.109375 -1.421875 33.890625 -1.421875 
Q 20.796875 -1.421875 13.15625 6.1875 
Q 5.515625 13.8125 5.515625 26.8125 
Q 5.515625 40.234375 12.765625 48.109375 
Q 20.015625 56 32.328125 56 
Q 43.359375 56 49.78125 48.890625 
Q 56.203125 41.796875 56.203125 29.59375 
z
M 47.21875 32.234375 
Q 47.125 39.59375 43.09375 43.984375 
Q 39.0625 48.390625 32.421875 48.390625 
Q 24.90625 48.390625 20.390625 44.140625 
Q 15.875 39.890625 15.1875 32.171875 
z
" id="DejaVuSans-101"/>
      <path id="DejaVuSans-32"/>
      <path d="M 25.390625 72.90625 
L 33.6875 72.90625 
L 8.296875 -9.28125 
L 0 -9.28125 
z
" id="DejaVuSans-47"/>
      <path d="M 44.28125 53.078125 
L 44.28125 44.578125 
Q 40.484375 46.53125 36.375 47.5 
Q 32.28125 48.484375 27.875 48.484375 
Q 21.1875 48.484375 17.84375 46.4375 
Q 14.5 44.390625 14.5 40.28125 
Q 14.5 37.15625 16.890625 35.375 
Q 19.28125 33.59375 26.515625 31.984375 
L 29.59375 31.296875 
Q 39.15625 29.25 43.1875 25.515625 
Q 47.21875 21.78125 47.21875 15.09375 
Q 47.21875 7.46875 41.1875 3.015625 
Q 35.15625 -1.421875 24.609375 -1.421875 
Q 20.21875 -1.421875 15.453125 -0.5625 
Q 10.6875 0.296875 5.421875 2 
L 5.421875 11.28125 
Q 10.40625 8.6875 15.234375 7.390625 
Q 20.0625 6.109375 24.8125 6.109375 
Q 31.15625 6.109375 34.5625 8.28125 
Q 37.984375 10.453125 37.984375 14.40625 
Q 37.984375 18.0625 35.515625 20.015625 
Q 33.0625 21.96875 24.703125 23.78125 
L 21.578125 24.515625 
Q 13.234375 26.265625 9.515625 29.90625 
Q 5.8125 33.546875 5.8125 39.890625 
Q 5.8125 47.609375 11.28125 51.796875 
Q 16.75 56 26.8125 56 
Q 31.78125 56 36.171875 55.265625 
Q 40.578125 54.546875 44.28125 53.078125 
z
" id="DejaVuSans-115"/>
     </defs>
     <g transform="translate(216.082812 274.476562)scale(0.1 -0.1)">
      <use xlink:href="#DejaVuSans-84"/>
      <use x="61.037109" xlink:href="#DejaVuSans-105"/>
      <use x="88.820312" xlink:href="#DejaVuSans-109"/>
      <use x="186.232422" xlink:href="#DejaVuSans-101"/>
      <use x="247.755859" xlink:href="#DejaVuSans-32"/>
      <use x="279.542969" xlink:href="#DejaVuSans-47"/>
      <use x="313.234375" xlink:href="#DejaVuSans-32"/>
      <use x="345.021484" xlink:href="#DejaVuSans-115"/>
     </g>
    </g>
   </g>
   <g id="matplotlib.axis_2">
    <g id="ytick_1">
     <g id="line2d_15">
      <path clip-path="url(#pf502247928)" d="M 50.675 232.848321 
L 421.2 232.848321 
" style="fill:none;stroke:#b0b0b0;stroke-linecap:square;stroke-width:0.8;"/>
     </g>
     <g id="line2d_16">
      <defs>
       <path d="M 0 0 
L -3.5 0 
" id="m8337c3b870" style="stroke:#000000;stroke-width:0.8;"/>
      </defs>
      <g>
       <use style="stroke:#000000;stroke-width:0.8;" x="50.675" xlink:href="#m8337c3b870" y="232.848321"/>
      </g>
     </g>
     <g id="text_9">
      <!-- 0 -->
      <g transform="translate(37.3125 236.64754)scale(0.1 -0.1)">
       <use xlink:href="#DejaVuSans-48"/>
      </g>
     </g>
    </g>
    <g id="ytick_2">
     <g id="line2d_17">
      <path clip-path="url(#pf502247928)" d="M 50.675 190.263564 
L 421.2 190.263564 
" style="fill:none;stroke:#b0b0b0;stroke-linecap:square;stroke-width:0.8;"/>
     </g>
     <g id="line2d_18">
      <g>
       <use style="stroke:#000000;stroke-width:0.8;" x="50.675" xlink:href="#m8337c3b870" y="190.263564"/>
      </g>
     </g>
     <g id="text_10">
      <!-- 20 -->
      <g transform="translate(30.95 194.062782)scale(0.1 -0.1)">
       <use xlink:href="#DejaVuSans-50"/>
       <use x="63.623047" xlink:href="#DejaVuSans-48"/>
      </g>
     </g>
    </g>
    <g id="ytick_3">
     <g id="line2d_19">
      <path clip-path="url(#pf502247928)" d="M 50.675 147.678806 
L 421.2 147.678806 
" style="fill:none;stroke:#b0b0b0;stroke-linecap:square;stroke-width:0.8;"/>
     </g>
     <g id="line2d_20">
      <g>
       <use style="stroke:#000000;stroke-width:0.8;" x="50.675" xlink:href="#m8337c3b870" y="147.678806"/>
      </g>
     </g>
     <g id="text_11">
      <!-- 40 -->
      <g transform="translate(30.95 151.478025)scale(0.1 -0.1)">
       <use xlink:href="#DejaVuSans-52"/>
       <use x="63.623047" xlink:href="#DejaVuSans-48"/>
      </g>
     </g>
    </g>
    <g id="ytick_4">
     <g id="line2d_21">
      <path clip-path="url(#pf502247928)" d="M 50.675 105.094048 
L 421.2 105.094048 
" style="fill:none;stroke:#b0b0b0;stroke-linecap:square;stroke-width:0.8;"/>
     </g>
     <g id="line2d_22">
      <g>
       <use style="stroke:#000000;stroke-width:0.8;" x="50.675" xlink:href="#m8337c3b870" y="105.094048"/>
      </g>
     </g>
     <g id="text_12">
      <!-- 60 -->
      <g transform="translate(30.95 108.893267)scale(0.1 -0.1)">
       <use xlink:href="#DejaVuSans-54"/>
       <use x="63.623047" xlink:href="#DejaVuSans-48"/>
      </g>
     </g>
    </g>
    <g id="ytick_5">
     <g id="line2d_23">
      <path clip-path="url(#pf502247928)" d="M 50.675 62.509291 
L 421.2 62.509291 
" style="fill:none;stroke:#b0b0b0;stroke-linecap:square;stroke-width:0.8;"/>
     </g>
     <g id="line2d_24">
      <g>
       <use style="stroke:#000000;stroke-width:0.8;" x="50.675" xlink:href="#m8337c3b870" y="62.509291"/>
      </g>
     </g>
     <g id="text_13">
      <!-- 80 -->
      <defs>
       <path d="M 31.78125 34.625 
Q 24.75 34.625 20.71875 30.859375 
Q 16.703125 27.09375 16.703125 20.515625 
Q 16.703125 13.921875 20.71875 10.15625 
Q 24.75 6.390625 31.78125 6.390625 
Q 38.8125 6.390625 42.859375 10.171875 
Q 46.921875 13.96875 46.921875 20.515625 
Q 46.921875 27.09375 42.890625 30.859375 
Q 38.875 34.625 31.78125 34.625 
z
M 21.921875 38.8125 
Q 15.578125 40.375 12.03125 44.71875 
Q 8.5 49.078125 8.5 55.328125 
Q 8.5 64.0625 14.71875 69.140625 
Q 20.953125 74.21875 31.78125 74.21875 
Q 42.671875 74.21875 48.875 69.140625 
Q 55.078125 64.0625 55.078125 55.328125 
Q 55.078125 49.078125 51.53125 44.71875 
Q 48 40.375 41.703125 38.8125 
Q 48.828125 37.15625 52.796875 32.3125 
Q 56.78125 27.484375 56.78125 20.515625 
Q 56.78125 9.90625 50.3125 4.234375 
Q 43.84375 -1.421875 31.78125 -1.421875 
Q 19.734375 -1.421875 13.25 4.234375 
Q 6.78125 9.90625 6.78125 20.515625 
Q 6.78125 27.484375 10.78125 32.3125 
Q 14.796875 37.15625 21.921875 38.8125 
z
M 18.3125 54.390625 
Q 18.3125 48.734375 21.84375 45.5625 
Q 25.390625 42.390625 31.78125 42.390625 
Q 38.140625 42.390625 41.71875 45.5625 
Q 45.3125 48.734375 45.3125 54.390625 
Q 45.3125 60.0625 41.71875 63.234375 
Q 38.140625 66.40625 31.78125 66.40625 
Q 25.390625 66.40625 21.84375 63.234375 
Q 18.3125 60.0625 18.3125 54.390625 
z
" id="DejaVuSans-56"/>
      </defs>
      <g transform="translate(30.95 66.308509)scale(0.1 -0.1)">
       <use xlink:href="#DejaVuSans-56"/>
       <use x="63.623047" xlink:href="#DejaVuSans-48"/>
      </g>
     </g>
    </g>
    <g id="ytick_6">
     <g id="line2d_25">
      <path clip-path="url(#pf502247928)" d="M 50.675 19.924533 
L 421.2 19.924533 
" style="fill:none;stroke:#b0b0b0;stroke-linecap:square;stroke-width:0.8;"/>
     </g>
     <g id="line2d_26">
      <g>
       <use style="stroke:#000000;stroke-width:0.8;" x="50.675" xlink:href="#m8337c3b870" y="19.924533"/>
      </g>
     </g>
     <g id="text_14">
      <!-- 100 -->
      <g transform="translate(24.5875 23.723752)scale(0.1 -0.1)">
       <use xlink:href="#DejaVuSans-49"/>
       <use x="63.623047" xlink:href="#DejaVuSans-48"/>
       <use x="127.246094" xlink:href="#DejaVuSans-48"/>
      </g>
     </g>
    </g>
    <g id="text_15">
     <!-- Energy Release Rate / kW -->
     <defs>
      <path d="M 9.8125 72.90625 
L 55.90625 72.90625 
L 55.90625 64.59375 
L 19.671875 64.59375 
L 19.671875 43.015625 
L 54.390625 43.015625 
L 54.390625 34.71875 
L 19.671875 34.71875 
L 19.671875 8.296875 
L 56.78125 8.296875 
L 56.78125 0 
L 9.8125 0 
z
" id="DejaVuSans-69"/>
      <path d="M 54.890625 33.015625 
L 54.890625 0 
L 45.90625 0 
L 45.90625 32.71875 
Q 45.90625 40.484375 42.875 44.328125 
Q 39.84375 48.1875 33.796875 48.1875 
Q 26.515625 48.1875 22.3125 43.546875 
Q 18.109375 38.921875 18.109375 30.90625 
L 18.109375 0 
L 9.078125 0 
L 9.078125 54.6875 
L 18.109375 54.6875 
L 18.109375 46.1875 
Q 21.34375 51.125 25.703125 53.5625 
Q 30.078125 56 35.796875 56 
Q 45.21875 56 50.046875 50.171875 
Q 54.890625 44.34375 54.890625 33.015625 
z
" id="DejaVuSans-110"/>
      <path d="M 41.109375 46.296875 
Q 39.59375 47.171875 37.8125 47.578125 
Q 36.03125 48 33.890625 48 
Q 26.265625 48 22.1875 43.046875 
Q 18.109375 38.09375 18.109375 28.8125 
L 18.109375 0 
L 9.078125 0 
L 9.078125 54.6875 
L 18.109375 54.6875 
L 18.109375 46.1875 
Q 20.953125 51.171875 25.484375 53.578125 
Q 30.03125 56 36.53125 56 
Q 37.453125 56 38.578125 55.875 
Q 39.703125 55.765625 41.0625 55.515625 
z
" id="DejaVuSans-114"/>
      <path d="M 45.40625 27.984375 
Q 45.40625 37.75 41.375 43.109375 
Q 37.359375 48.484375 30.078125 48.484375 
Q 22.859375 48.484375 18.828125 43.109375 
Q 14.796875 37.75 14.796875 27.984375 
Q 14.796875 18.265625 18.828125 12.890625 
Q 22.859375 7.515625 30.078125 7.515625 
Q 37.359375 7.515625 41.375 12.890625 
Q 45.40625 18.265625 45.40625 27.984375 
z
M 54.390625 6.78125 
Q 54.390625 -7.171875 48.1875 -13.984375 
Q 42 -20.796875 29.203125 -20.796875 
Q 24.46875 -20.796875 20.265625 -20.09375 
Q 16.0625 -19.390625 12.109375 -17.921875 
L 12.109375 -9.1875 
Q 16.0625 -11.328125 19.921875 -12.34375 
Q 23.78125 -13.375 27.78125 -13.375 
Q 36.625 -13.375 41.015625 -8.765625 
Q 45.40625 -4.15625 45.40625 5.171875 
L 45.40625 9.625 
Q 42.625 4.78125 38.28125 2.390625 
Q 33.9375 0 27.875 0 
Q 17.828125 0 11.671875 7.65625 
Q 5.515625 15.328125 5.515625 27.984375 
Q 5.515625 40.671875 11.671875 48.328125 
Q 17.828125 56 27.875 56 
Q 33.9375 56 38.28125 53.609375 
Q 42.625 51.21875 45.40625 46.390625 
L 45.40625 54.6875 
L 54.390625 54.6875 
z
" id="DejaVuSans-103"/>
      <path d="M 32.171875 -5.078125 
Q 28.375 -14.84375 24.75 -17.8125 
Q 21.140625 -20.796875 15.09375 -20.796875 
L 7.90625 -20.796875 
L 7.90625 -13.28125 
L 13.1875 -13.28125 
Q 16.890625 -13.28125 18.9375 -11.515625 
Q 21 -9.765625 23.484375 -3.21875 
L 25.09375 0.875 
L 2.984375 54.6875 
L 12.5 54.6875 
L 29.59375 11.921875 
L 46.6875 54.6875 
L 56.203125 54.6875 
z
" id="DejaVuSans-121"/>
      <path d="M 44.390625 34.1875 
Q 47.5625 33.109375 50.5625 29.59375 
Q 53.5625 26.078125 56.59375 19.921875 
L 66.609375 0 
L 56 0 
L 46.6875 18.703125 
Q 43.0625 26.03125 39.671875 28.421875 
Q 36.28125 30.8125 30.421875 30.8125 
L 19.671875 30.8125 
L 19.671875 0 
L 9.8125 0 
L 9.8125 72.90625 
L 32.078125 72.90625 
Q 44.578125 72.90625 50.734375 67.671875 
Q 56.890625 62.453125 56.890625 51.90625 
Q 56.890625 45.015625 53.6875 40.46875 
Q 50.484375 35.9375 44.390625 34.1875 
z
M 19.671875 64.796875 
L 19.671875 38.921875 
L 32.078125 38.921875 
Q 39.203125 38.921875 42.84375 42.21875 
Q 46.484375 45.515625 46.484375 51.90625 
Q 46.484375 58.296875 42.84375 61.546875 
Q 39.203125 64.796875 32.078125 64.796875 
z
" id="DejaVuSans-82"/>
      <path d="M 9.421875 75.984375 
L 18.40625 75.984375 
L 18.40625 0 
L 9.421875 0 
z
" id="DejaVuSans-108"/>
      <path d="M 34.28125 27.484375 
Q 23.390625 27.484375 19.1875 25 
Q 14.984375 22.515625 14.984375 16.5 
Q 14.984375 11.71875 18.140625 8.90625 
Q 21.296875 6.109375 26.703125 6.109375 
Q 34.1875 6.109375 38.703125 11.40625 
Q 43.21875 16.703125 43.21875 25.484375 
L 43.21875 27.484375 
z
M 52.203125 31.203125 
L 52.203125 0 
L 43.21875 0 
L 43.21875 8.296875 
Q 40.140625 3.328125 35.546875 0.953125 
Q 30.953125 -1.421875 24.3125 -1.421875 
Q 15.921875 -1.421875 10.953125 3.296875 
Q 6 8.015625 6 15.921875 
Q 6 25.140625 12.171875 29.828125 
Q 18.359375 34.515625 30.609375 34.515625 
L 43.21875 34.515625 
L 43.21875 35.40625 
Q 43.21875 41.609375 39.140625 45 
Q 35.0625 48.390625 27.6875 48.390625 
Q 23 48.390625 18.546875 47.265625 
Q 14.109375 46.140625 10.015625 43.890625 
L 10.015625 52.203125 
Q 14.9375 54.109375 19.578125 55.046875 
Q 24.21875 56 28.609375 56 
Q 40.484375 56 46.34375 49.84375 
Q 52.203125 43.703125 52.203125 31.203125 
z
" id="DejaVuSans-97"/>
      <path d="M 18.3125 70.21875 
L 18.3125 54.6875 
L 36.8125 54.6875 
L 36.8125 47.703125 
L 18.3125 47.703125 
L 18.3125 18.015625 
Q 18.3125 11.328125 20.140625 9.421875 
Q 21.96875 7.515625 27.59375 7.515625 
L 36.8125 7.515625 
L 36.8125 0 
L 27.59375 0 
Q 17.1875 0 13.234375 3.875 
Q 9.28125 7.765625 9.28125 18.015625 
L 9.28125 47.703125 
L 2.6875 47.703125 
L 2.6875 54.6875 
L 9.28125 54.6875 
L 9.28125 70.21875 
z
" id="DejaVuSans-116"/>
      <path d="M 9.078125 75.984375 
L 18.109375 75.984375 
L 18.109375 31.109375 
L 44.921875 54.6875 
L 56.390625 54.6875 
L 27.390625 29.109375 
L 57.625 0 
L 45.90625 0 
L 18.109375 26.703125 
L 18.109375 0 
L 9.078125 0 
z
" id="DejaVuSans-107"/>
      <path d="M 3.328125 72.90625 
L 13.28125 72.90625 
L 28.609375 11.28125 
L 43.890625 72.90625 
L 54.984375 72.90625 
L 70.3125 11.28125 
L 85.59375 72.90625 
L 95.609375 72.90625 
L 77.296875 0 
L 64.890625 0 
L 49.515625 63.28125 
L 33.984375 0 
L 21.578125 0 
z
" id="DejaVuSans-87"/>
     </defs>
     <g transform="translate(18.507813 193.304688)rotate(-90)scale(0.1 -0.1)">
      <use xlink:href="#DejaVuSans-69"/>
      <use x="63.183594" xlink:href="#DejaVuSans-110"/>
      <use x="126.5625" xlink:href="#DejaVuSans-101"/>
      <use x="188.085938" xlink:href="#DejaVuSans-114"/>
      <use x="229.183594" xlink:href="#DejaVuSans-103"/>
      <use x="292.660156" xlink:href="#DejaVuSans-121"/>
      <use x="351.839844" xlink:href="#DejaVuSans-32"/>
      <use x="383.626953" xlink:href="#DejaVuSans-82"/>
      <use x="453.046875" xlink:href="#DejaVuSans-101"/>
      <use x="514.570312" xlink:href="#DejaVuSans-108"/>
      <use x="542.353516" xlink:href="#DejaVuSans-101"/>
      <use x="603.876953" xlink:href="#DejaVuSans-97"/>
      <use x="665.15625" xlink:href="#DejaVuSans-115"/>
      <use x="717.255859" xlink:href="#DejaVuSans-101"/>
      <use x="778.779297" xlink:href="#DejaVuSans-32"/>
      <use x="810.566406" xlink:href="#DejaVuSans-82"/>
      <use x="880.017578" xlink:href="#DejaVuSans-97"/>
      <use x="941.296875" xlink:href="#DejaVuSans-116"/>
      <use x="980.505859" xlink:href="#DejaVuSans-101"/>
      <use x="1042.029297" xlink:href="#DejaVuSans-32"/>
      <use x="1073.816406" xlink:href="#DejaVuSans-47"/>
      <use x="1107.507812" xlink:href="#DejaVuSans-32"/>
      <use x="1139.294922" xlink:href="#DejaVuSans-107"/>
      <use x="1197.205078" xlink:href="#DejaVuSans-87"/>
     </g>
    </g>
   </g>
   <g id="line2d_27">
    <path clip-path="url(#pf502247928)" d="M 67.517045 232.847933 
L 68.090839 205.153303 
L 68.64206 190.005564 
L 69.770204 181.562495 
L 70.332673 186.835118 
L 70.89343 178.552123 
L 71.448962 183.994559 
L 72.01046 183.305827 
L 72.571993 183.560708 
L 73.133445 178.47171 
L 74.256996 182.300587 
L 74.81548 178.41592 
L 75.385022 176.508783 
L 75.940404 179.885873 
L 76.500585 179.020632 
L 77.062813 177.552463 
L 77.631064 172.165299 
L 78.193172 182.306229 
L 78.74883 172.856405 
L 79.310078 177.898858 
L 79.875212 172.796197 
L 80.430999 175.411103 
L 80.9917 174.220795 
L 81.552247 173.897017 
L 82.118383 177.519057 
L 82.68247 172.697438 
L 83.238947 176.161877 
L 83.803312 171.785509 
L 84.361454 174.665695 
L 84.930798 174.973389 
L 85.487944 173.451363 
L 86.044326 171.563432 
L 86.606922 171.264485 
L 87.174205 177.954684 
L 87.736041 171.224719 
L 88.298688 172.183334 
L 88.855109 170.683267 
L 89.978775 177.600243 
L 90.541211 167.97962 
L 91.101205 173.461673 
L 91.661559 176.008239 
L 92.226461 168.817645 
L 92.790108 174.000474 
L 93.344875 173.496771 
L 93.905566 173.264214 
L 94.475643 167.165842 
L 95.03371 174.572075 
L 95.595103 177.049524 
L 96.16006 169.78232 
L 96.715171 165.830278 
L 97.272185 171.647043 
L 97.833845 173.654884 
L 98.404076 171.614325 
L 98.958811 171.49648 
L 99.519611 173.889641 
L 100.089427 173.461771 
L 100.644277 170.095058 
L 101.20628 175.397659 
L 101.772404 166.827502 
L 102.329822 172.80489 
L 102.888671 173.451163 
L 103.455857 172.80409 
L 104.013965 168.411349 
L 104.576043 173.794373 
L 105.133508 171.678956 
L 105.698084 172.860033 
L 106.255755 169.410123 
L 106.820801 169.732494 
L 107.386289 175.208585 
L 107.942148 169.404921 
L 108.504839 173.044894 
L 109.064025 172.189728 
L 109.625187 173.479331 
L 110.192264 173.085818 
L 110.74799 170.917406 
L 111.315632 173.164742 
L 111.873316 170.054345 
L 112.431801 174.388594 
L 112.996993 174.891414 
L 113.560763 171.580813 
L 114.118738 173.826854 
L 114.676276 169.171731 
L 115.246621 170.426451 
L 115.809213 175.543727 
L 116.364048 172.347255 
L 116.929446 172.885508 
L 117.485361 173.699982 
L 118.051748 171.35219 
L 118.609894 171.663872 
L 119.167518 175.091707 
L 119.73737 170.381613 
L 120.293375 174.88622 
L 120.860413 171.22941 
L 121.41904 176.696315 
L 121.977044 167.105202 
L 122.541436 178.760594 
L 123.097573 170.030072 
L 123.658 174.5884 
L 124.218851 171.571868 
L 124.783065 173.2193 
L 125.341699 174.089306 
L 125.91279 172.083762 
L 126.473591 173.425193 
L 127.030086 175.302031 
L 127.594514 170.549365 
L 128.154113 175.979914 
L 128.721005 172.711653 
L 129.271661 171.653164 
L 130.404957 175.20057 
L 130.957853 174.529433 
L 131.516947 171.55342 
L 132.080213 174.542987 
L 132.639851 172.198354 
L 133.768981 174.649845 
L 134.323921 173.101319 
L 134.892829 170.519833 
L 135.447684 174.759175 
L 136.011707 176.229099 
L 136.580564 174.463858 
L 137.132158 176.312422 
L 137.70138 166.609639 
L 138.257785 176.087979 
L 138.818311 174.667224 
L 139.938481 174.367945 
L 140.506406 169.76264 
L 141.062676 176.249437 
L 141.627205 174.459285 
L 142.187977 173.270127 
L 142.751451 170.907416 
L 143.312493 171.954899 
L 143.8776 176.190404 
L 144.436396 175.573875 
L 144.998455 172.676872 
L 145.556723 175.490841 
L 146.1157 170.360785 
L 146.676792 177.616649 
L 147.239496 168.251298 
L 147.801263 176.411153 
L 148.362889 171.565716 
L 148.925121 175.913248 
L 149.492238 172.45317 
L 150.050529 177.417175 
L 150.60639 174.694104 
L 151.174966 172.951997 
L 151.728205 172.253083 
L 152.29499 175.68329 
L 152.85327 173.579541 
L 153.412482 176.026842 
L 153.973176 170.02853 
L 154.539395 175.100745 
L 155.102407 175.289577 
L 155.658936 166.79372 
L 156.2285 174.203118 
L 156.780908 173.860243 
L 157.351713 172.65704 
L 157.903256 174.576259 
L 158.473309 178.080403 
L 159.036473 171.359293 
L 159.587613 176.406594 
L 160.151361 170.774194 
L 160.711965 177.799312 
L 161.272811 176.782128 
L 161.842257 175.362612 
L 162.399128 170.104653 
L 162.962197 173.400057 
L 163.518282 175.684007 
L 164.082395 171.954935 
L 164.643583 174.852406 
L 165.211598 173.864708 
L 166.886989 174.516646 
L 167.457726 177.010831 
L 168.014216 174.345858 
L 169.133875 176.317415 
L 169.696113 173.070408 
L 170.259154 173.2771 
L 170.824782 176.462551 
L 171.38706 171.866769 
L 171.944997 176.773138 
L 172.506871 174.532809 
L 173.060777 174.076092 
L 173.628135 174.407549 
L 174.186073 173.531335 
L 174.744746 179.573029 
L 175.315618 170.880604 
L 175.874735 172.17648 
L 176.43603 177.827965 
L 176.992362 174.093822 
L 177.556284 175.773252 
L 178.11832 173.243011 
L 178.678256 172.196058 
L 179.239546 173.102896 
L 180.363387 175.477337 
L 180.928544 174.335436 
L 181.483226 178.704082 
L 182.053851 172.139931 
L 182.605557 178.87556 
L 183.174313 171.132299 
L 183.734979 175.049942 
L 184.28869 169.527327 
L 184.855307 180.968222 
L 185.41307 173.105215 
L 185.97788 172.5286 
L 186.543828 176.381312 
L 187.102198 175.178716 
L 187.658912 174.951456 
L 188.223065 173.020388 
L 188.786128 175.978081 
L 189.345929 171.960415 
L 189.910626 177.64685 
L 190.474487 172.251953 
L 191.035467 172.541022 
L 191.588504 178.679053 
L 192.149001 174.554598 
L 192.713182 176.003317 
L 193.273101 173.341005 
L 193.83612 174.094346 
L 194.399329 176.1108 
L 194.968697 173.592283 
L 195.527898 178.555798 
L 196.086413 172.463063 
L 196.648635 175.509201 
L 197.21176 175.717322 
L 197.763926 174.090848 
L 198.325777 174.132851 
L 198.885589 175.828259 
L 199.453587 173.515538 
L 200.017105 173.355258 
L 200.573965 177.62333 
L 201.132953 173.701674 
L 201.692232 175.968533 
L 202.261196 174.226864 
L 202.825247 174.405898 
L 203.377088 178.057426 
L 203.945047 171.62825 
L 204.504393 178.429826 
L 205.073969 173.516716 
L 205.629869 173.826416 
L 206.193493 177.53667 
L 206.75394 172.857764 
L 207.308201 174.235099 
L 207.867834 177.091293 
L 208.436186 175.551635 
L 209.000282 175.313205 
L 209.554009 175.389336 
L 210.120592 174.702408 
L 210.678199 175.707895 
L 211.246028 175.345887 
L 211.806846 177.922744 
L 212.359114 172.551345 
L 212.926533 176.981148 
L 213.490023 173.603401 
L 214.042875 174.986599 
L 214.612894 174.412793 
L 215.733008 176.670469 
L 216.299479 177.405503 
L 216.854031 174.385111 
L 217.422641 170.234268 
L 217.972977 175.643252 
L 218.543906 177.862576 
L 219.098262 175.781175 
L 219.663896 169.688308 
L 220.223669 181.512832 
L 220.780086 173.186543 
L 221.348617 176.361633 
L 221.905511 175.527911 
L 222.471965 177.600011 
L 223.029464 173.820995 
L 223.587677 176.127656 
L 224.153536 172.546818 
L 224.716903 175.161269 
L 225.273083 178.636309 
L 225.84322 175.99201 
L 226.402769 177.439852 
L 226.96325 177.291542 
L 227.527733 173.102405 
L 228.079456 175.589895 
L 228.645467 175.167716 
L 229.205291 175.438046 
L 229.769331 174.706975 
L 230.327752 174.897084 
L 230.88492 176.966675 
L 231.451531 177.560271 
L 232.010277 176.275367 
L 232.571303 177.518693 
L 233.135977 170.723624 
L 233.70036 179.368158 
L 234.255833 177.091253 
L 234.82414 170.221458 
L 235.384323 179.003534 
L 235.9418 171.899875 
L 236.5025 177.348607 
L 237.061246 177.365511 
L 237.62957 170.360943 
L 238.189545 180.397165 
L 238.744575 169.97643 
L 239.86822 180.269504 
L 240.434809 171.589072 
L 240.995408 176.656147 
L 241.558095 176.368794 
L 242.118312 173.211119 
L 242.675789 177.326421 
L 243.241238 175.557156 
L 243.798918 174.939219 
L 244.360819 172.846896 
L 244.92496 176.616403 
L 245.48717 176.925564 
L 246.05578 176.653699 
L 246.615677 166.822907 
L 247.175467 177.413607 
L 247.727375 177.435736 
L 248.294997 177.970066 
L 248.853176 171.102575 
L 249.421949 178.678278 
L 249.97283 173.245566 
L 250.540143 173.116719 
L 251.10411 180.068739 
L 251.660066 173.366087 
L 252.226178 172.001165 
L 252.785508 180.355428 
L 253.345214 174.881747 
L 253.905621 172.299156 
L 254.464266 177.7494 
L 255.033101 177.035158 
L 255.597635 172.383976 
L 256.160479 177.924206 
L 256.718125 175.261367 
L 257.277197 177.00721 
L 257.836392 176.922008 
L 258.398737 172.398329 
L 258.956624 175.878407 
L 259.524605 176.952182 
L 260.084378 174.496736 
L 260.646364 176.040793 
L 261.205278 176.238355 
L 261.767505 176.775612 
L 262.325549 175.252379 
L 262.884806 176.702103 
L 263.448111 175.019919 
L 264.015817 174.45232 
L 264.574956 176.854711 
L 265.131906 173.231805 
L 265.702711 176.467705 
L 266.262877 180.933203 
L 266.824312 169.060728 
L 267.385321 181.166235 
L 267.938004 174.460792 
L 268.507439 174.578081 
L 269.062244 175.922222 
L 269.622775 177.60477 
L 270.195293 177.123383 
L 270.753971 171.363958 
L 271.314671 177.680858 
L 271.867371 174.149319 
L 272.430844 178.337442 
L 272.993222 173.619149 
L 273.551985 180.8325 
L 274.117188 173.161212 
L 274.683423 175.672999 
L 275.237711 174.828699 
L 275.79877 180.560311 
L 276.358701 172.79862 
L 276.928686 180.870742 
L 277.486731 171.78842 
L 278.045134 179.087258 
L 278.610095 176.851364 
L 279.17244 171.10015 
L 279.733583 178.757556 
L 280.298005 176.888266 
L 280.855432 177.110584 
L 281.41827 175.77391 
L 281.978128 174.898489 
L 282.535437 178.543595 
L 283.104271 173.850606 
L 283.657246 174.10575 
L 284.22082 182.001418 
L 284.788291 170.644708 
L 285.345442 176.494698 
L 285.90347 177.971162 
L 286.47409 175.493502 
L 287.033465 177.065078 
L 287.587809 176.144523 
L 288.153651 176.545731 
L 288.716934 176.705233 
L 289.277482 178.761904 
L 289.842173 173.488261 
L 290.401587 180.238341 
L 290.95742 175.512819 
L 291.518462 175.508961 
L 292.08308 176.434466 
L 292.645683 176.85482 
L 293.20229 179.158802 
L 293.769581 175.559224 
L 294.324886 174.747677 
L 294.886938 177.812134 
L 295.455829 175.226801 
L 296.010118 175.23984 
L 296.575819 178.051041 
L 297.138097 176.947067 
L 297.701087 174.458216 
L 298.26383 178.138542 
L 298.816867 180.326483 
L 299.384882 171.429665 
L 299.939878 175.570151 
L 300.502132 176.347542 
L 301.064067 179.92965 
L 302.186337 176.769323 
L 302.744555 175.496113 
L 303.312104 175.412936 
L 304.431258 176.209346 
L 304.99463 178.225508 
L 305.562303 174.689996 
L 306.124905 178.764885 
L 306.680379 171.569785 
L 307.237671 176.817658 
L 307.797596 179.521429 
L 308.360109 176.007428 
L 308.929926 174.436777 
L 309.481273 175.390326 
L 310.042517 177.621733 
L 310.608786 175.089922 
L 311.173769 173.20085 
L 311.731246 178.141154 
L 312.289251 179.139893 
L 312.858861 176.853781 
L 313.416871 173.460713 
L 313.977279 176.837614 
L 314.539523 175.923934 
L 315.10171 176.080527 
L 315.663572 176.047 
L 316.226001 179.210436 
L 316.791091 177.011379 
L 317.350106 173.243807 
L 317.90613 177.368861 
L 318.474779 177.825506 
L 319.597189 178.174575 
L 320.157614 176.031746 
L 320.710532 179.136565 
L 321.271917 177.185904 
L 321.837293 178.380063 
L 322.401867 175.273735 
L 322.965957 178.408099 
L 323.527443 178.517829 
L 324.084443 174.754244 
L 324.642454 177.001369 
L 325.204057 176.594416 
L 325.769501 172.618165 
L 326.324104 179.714495 
L 326.893371 177.587108 
L 327.456294 178.773547 
L 328.019289 173.750483 
L 328.574594 176.914963 
L 329.136731 176.621858 
L 329.700238 173.35243 
L 330.817011 178.904608 
L 331.383999 176.462472 
L 331.943346 177.205902 
L 332.504865 179.581822 
L 333.065857 170.676732 
L 333.622256 177.725947 
L 334.183366 175.067808 
L 334.752734 179.013171 
L 335.312799 174.847004 
L 335.868171 178.756802 
L 336.436714 171.46936 
L 336.999951 176.922994 
L 337.562621 180.548254 
L 338.11696 171.414398 
L 338.676941 179.054778 
L 339.24417 178.068115 
L 339.801541 176.450395 
L 340.361028 172.161505 
L 340.919651 176.221642 
L 341.490405 175.488759 
L 342.04388 180.58715 
L 342.613175 175.330132 
L 343.167368 173.965233 
L 344.295959 178.298816 
L 344.851415 173.993919 
L 345.412424 176.686764 
L 345.979478 175.511473 
L 346.534042 180.289462 
L 347.096987 172.355398 
L 347.660258 177.513323 
L 348.220649 173.892301 
L 348.779547 179.820135 
L 349.343211 173.678067 
L 349.911276 175.967912 
L 350.464779 179.201038 
L 351.031615 173.797567 
L 351.588699 179.211957 
L 352.155754 178.182875 
L 352.714786 171.36629 
L 353.270692 177.182759 
L 353.834833 175.324648 
L 354.958972 178.037676 
L 355.517291 173.99196 
L 356.642559 179.403652 
L 357.207458 175.756248 
L 357.765912 173.88764 
L 358.331457 181.583455 
L 358.886762 175.088641 
L 359.454226 174.212583 
L 360.01176 178.856417 
L 361.134765 172.888263 
L 361.696234 180.132496 
L 362.262952 172.960597 
L 362.821849 178.068858 
L 363.377873 173.898201 
L 363.937147 177.863025 
L 364.50273 178.905251 
L 365.068724 175.198812 
L 365.626937 174.936886 
L 366.18762 178.027964 
L 366.749089 174.049649 
L 367.310732 180.521593 
L 367.86922 176.035457 
L 368.435213 174.115698 
L 368.993909 176.238084 
L 369.563294 179.397381 
L 370.122741 174.461041 
L 370.676811 172.720415 
L 371.243007 180.468997 
L 371.801534 174.415995 
L 372.367595 176.644451 
L 372.921974 179.445592 
L 373.489264 173.024638 
L 374.051867 177.097747 
L 374.613954 176.955786 
L 375.168023 177.436756 
L 375.733158 174.105299 
L 376.300522 181.331798 
L 376.850993 172.957633 
L 377.416885 180.216718 
L 377.978938 172.637064 
L 378.535231 176.050948 
L 379.099378 175.703518 
L 379.659611 177.425222 
L 380.21824 174.513054 
L 380.781864 178.824035 
L 381.353753 179.252195 
L 381.910803 174.235921 
L 382.473608 176.546596 
L 383.026752 176.440432 
L 383.594941 177.799367 
L 384.156887 177.567755 
L 384.719214 179.374977 
L 385.273902 172.026345 
L 385.835921 179.573063 
L 386.395571 174.582276 
L 386.962457 179.277957 
L 387.518615 173.798765 
L 388.07964 178.781208 
L 388.640874 180.870429 
L 389.20666 168.877505 
L 389.769942 180.991116 
L 390.328126 172.539183 
L 390.890039 178.615583 
L 391.453052 174.539461 
L 392.017743 179.422428 
L 392.569073 176.132991 
L 393.14168 176.760829 
L 393.698759 175.762883 
L 394.259065 178.795139 
L 394.819883 172.846775 
L 395.378955 178.765345 
L 395.938852 176.749129 
L 396.503369 177.90107 
L 397.069739 172.200523 
L 397.630905 178.657778 
L 398.18754 174.880265 
L 398.749868 177.596987 
L 399.311168 174.287387 
L 399.86777 179.383126 
L 400.432804 175.412928 
L 400.994615 177.968616 
L 401.556976 171.814499 
L 402.114544 178.157967 
L 402.674059 176.358614 
L 403.244645 175.457444 
L 403.806625 178.28824 
L 404.357955 176.540464 
L 404.357955 176.540464 
" style="fill:none;stroke:#1f77b4;stroke-linecap:square;stroke-width:1.5;"/>
   </g>
   <g id="line2d_28">
    <path clip-path="url(#pf502247928)" d="M 67.517045 232.848329 
L 68.090839 234.338637 
L 69.770204 235.5 
L 70.332673 234.838345 
L 70.89343 235.359956 
L 71.448962 233.316341 
L 72.01046 226.380609 
L 72.571993 221.089091 
L 73.133445 219.207161 
L 73.694896 209.679305 
L 74.256996 203.882256 
L 74.81548 199.49032 
L 76.500585 182.740911 
L 77.062813 182.79701 
L 77.631064 177.794144 
L 78.193172 168.981884 
L 78.74883 174.29429 
L 79.310078 168.665763 
L 79.875212 157.48045 
L 80.430999 158.393169 
L 80.9917 162.15118 
L 81.552247 154.456632 
L 82.118383 157.164258 
L 82.68247 143.015664 
L 83.238947 150.742916 
L 83.803312 145.583591 
L 84.361454 136.54098 
L 84.930798 148.69616 
L 85.487944 139.610789 
L 86.044326 136.959068 
L 86.606922 132.156202 
L 87.736041 139.91516 
L 88.298688 136.868665 
L 88.855109 132.500691 
L 89.419851 130.976819 
L 89.978775 134.191789 
L 90.541211 128.830722 
L 91.101205 116.745877 
L 91.661559 140.417632 
L 92.226461 126.559538 
L 92.790108 124.391919 
L 93.344875 134.624442 
L 93.905566 121.557522 
L 94.475643 125.417275 
L 95.03371 139.521787 
L 95.595103 122.83561 
L 96.16006 135.600734 
L 96.715171 115.250943 
L 97.272185 114.612879 
L 97.833845 122.877939 
L 98.404076 126.92967 
L 98.958811 125.196075 
L 99.519611 122.530224 
L 100.089427 127.928568 
L 100.644277 116.154406 
L 101.20628 123.46371 
L 101.772404 116.384505 
L 102.329822 125.758276 
L 102.888671 130.798187 
L 103.455857 120.222965 
L 104.013965 115.499664 
L 104.576043 130.358833 
L 105.133508 121.005153 
L 105.698084 125.583668 
L 106.255755 112.23593 
L 106.820801 119.077737 
L 107.386289 121.072109 
L 108.504839 111.180388 
L 109.064025 114.595185 
L 109.625187 123.617247 
L 110.192264 118.946436 
L 110.74799 124.838929 
L 111.315632 110.706794 
L 111.873316 117.587973 
L 112.431801 117.443098 
L 112.996993 116.885274 
L 113.560763 119.978948 
L 114.118738 113.163421 
L 114.676276 122.897801 
L 115.246621 113.209345 
L 115.809213 117.747153 
L 116.364048 113.580714 
L 116.929446 119.586872 
L 117.485361 111.590274 
L 118.051748 115.093767 
L 118.609894 119.93404 
L 119.167518 117.565842 
L 119.73737 107.385276 
L 120.293375 120.717284 
L 120.860413 113.881385 
L 121.41904 117.806022 
L 121.977044 111.957074 
L 122.541436 117.811092 
L 123.097573 113.286059 
L 123.658 111.05587 
L 124.218851 110.808499 
L 124.783065 112.872178 
L 125.341699 113.829734 
L 125.91279 112.135576 
L 126.473591 116.077403 
L 127.030086 113.908107 
L 127.594514 131.811768 
L 128.154113 109.337168 
L 128.721005 109.38251 
L 129.271661 112.235672 
L 129.835937 116.447349 
L 130.957853 108.357199 
L 131.516947 123.589013 
L 132.080213 107.175687 
L 133.204402 115.94312 
L 133.768981 109.253832 
L 134.323921 122.596501 
L 134.892829 107.455963 
L 135.447684 118.496813 
L 136.011707 110.943508 
L 136.580564 110.713671 
L 137.132158 114.412243 
L 137.70138 108.887816 
L 138.257785 107.623025 
L 138.818311 111.215582 
L 139.383704 118.887437 
L 139.938481 112.484077 
L 140.506406 102.190901 
L 141.062676 114.859238 
L 141.627205 101.862197 
L 142.187977 118.581765 
L 142.751451 115.887868 
L 143.312493 107.701313 
L 143.8776 116.0738 
L 144.436396 116.669182 
L 144.998455 106.953699 
L 145.556723 107.409722 
L 146.1157 109.735506 
L 146.676792 111.002896 
L 147.239496 108.178854 
L 147.801263 108.224354 
L 148.362889 116.914745 
L 148.925121 109.902794 
L 149.492238 106.084048 
L 150.050529 108.554818 
L 150.60639 118.380746 
L 151.174966 108.343542 
L 151.728205 114.53059 
L 152.29499 100.788357 
L 152.85327 117.472954 
L 153.412482 109.373024 
L 153.973176 110.839088 
L 154.539395 100.179522 
L 155.102407 109.417602 
L 155.658936 113.756938 
L 156.2285 105.303395 
L 157.351713 111.921605 
L 157.903256 108.519768 
L 158.473309 101.688213 
L 159.036473 109.749026 
L 159.587613 113.707818 
L 160.151361 111.328042 
L 160.711965 106.383093 
L 161.272811 105.668659 
L 161.842257 106.81713 
L 162.399128 112.670303 
L 162.962197 109.934596 
L 163.518282 104.860369 
L 164.082395 108.592237 
L 164.643583 107.861674 
L 165.211598 108.369346 
L 165.767919 107.156492 
L 166.330438 104.154347 
L 166.886989 121.283238 
L 167.457726 95.771274 
L 168.014216 101.434455 
L 168.57642 111.931421 
L 169.133875 102.364908 
L 169.696113 115.530325 
L 170.259154 101.20732 
L 170.824782 111.749752 
L 171.38706 102.680208 
L 171.944997 101.662409 
L 172.506871 121.551492 
L 173.060777 104.494233 
L 173.628135 102.586926 
L 174.186073 111.216748 
L 174.744746 109.907755 
L 175.315618 99.488463 
L 175.874735 110.940663 
L 176.43603 106.637147 
L 176.992362 116.20106 
L 177.556284 112.647415 
L 178.11832 104.913023 
L 178.678256 103.836054 
L 179.239546 106.865702 
L 179.800374 107.004019 
L 180.363387 111.772601 
L 180.928544 101.266313 
L 181.483226 105.148084 
L 182.053851 104.118704 
L 182.605557 102.122182 
L 183.174313 106.741169 
L 183.734979 106.308074 
L 184.28869 111.960806 
L 184.855307 107.464052 
L 185.41307 104.791026 
L 185.97788 107.199307 
L 186.543828 110.713929 
L 187.102198 107.752836 
L 187.658912 110.134966 
L 188.223065 96.009325 
L 188.786128 120.816473 
L 189.345929 99.918506 
L 189.910626 113.927769 
L 190.474487 100.261877 
L 191.035467 102.704575 
L 191.588504 109.671897 
L 192.149001 109.093253 
L 192.713182 103.83697 
L 193.273101 104.269563 
L 194.399329 107.064158 
L 194.968697 106.168685 
L 195.527898 107.414094 
L 196.086413 98.251683 
L 196.648635 110.190771 
L 197.21176 100.007342 
L 197.763926 104.411082 
L 198.325777 110.151966 
L 198.885589 103.881797 
L 199.453587 104.370467 
L 200.017105 113.227869 
L 200.573965 109.579769 
L 201.132953 105.179331 
L 201.692232 107.117587 
L 202.261196 104.183535 
L 202.825247 104.876804 
L 203.377088 106.064693 
L 203.945047 106.441434 
L 204.504393 101.071458 
L 205.073969 107.806919 
L 205.629869 99.286282 
L 206.193493 101.22745 
L 206.75394 99.709557 
L 207.308201 108.945103 
L 207.867834 105.198098 
L 208.436186 105.383804 
L 209.000282 102.255365 
L 209.554009 105.594377 
L 210.120592 108.237683 
L 210.678199 102.537345 
L 211.246028 100.815345 
L 211.806846 110.602193 
L 212.359114 102.461376 
L 212.926533 103.63476 
L 213.490023 94.906854 
L 214.042875 103.433194 
L 214.612894 109.051552 
L 215.175755 102.411556 
L 215.733008 105.366983 
L 216.299479 99.249867 
L 217.422641 102.367583 
L 217.972977 97.283753 
L 218.543906 109.896193 
L 219.098262 110.081907 
L 219.663896 94.692845 
L 220.223669 99.024728 
L 220.780086 107.398293 
L 221.348617 103.370345 
L 221.905511 97.224253 
L 222.471965 112.15093 
L 223.029464 100.40051 
L 223.587677 103.015342 
L 224.153536 102.980871 
L 224.716903 96.525084 
L 225.273083 106.002177 
L 225.84322 103.457473 
L 226.402769 102.212297 
L 226.96325 102.251533 
L 227.527733 101.518543 
L 228.079456 101.253461 
L 228.645467 108.043251 
L 229.205291 95.942224 
L 229.769331 98.455593 
L 230.327752 105.640449 
L 230.88492 104.676098 
L 231.451531 100.443846 
L 232.010277 106.908212 
L 232.571303 102.468215 
L 233.135977 99.423711 
L 233.70036 101.833934 
L 234.255833 108.168557 
L 234.82414 106.423472 
L 235.384323 107.568372 
L 235.9418 97.107577 
L 236.5025 103.145044 
L 237.061246 115.466503 
L 237.62957 98.27341 
L 238.189545 92.970359 
L 238.744575 118.222312 
L 239.30747 88.579126 
L 239.86822 96.781227 
L 240.434809 118.21517 
L 240.995408 97.058332 
L 241.558095 100.354165 
L 242.118312 102.131016 
L 242.675789 100.840468 
L 243.241238 118.112545 
L 243.798918 96.805775 
L 244.360819 96.31871 
L 244.92496 109.012463 
L 245.48717 109.965755 
L 246.05578 99.939065 
L 246.615677 106.108064 
L 247.175467 87.408224 
L 247.727375 110.290992 
L 248.294997 106.837292 
L 248.853176 97.068218 
L 249.421949 97.730665 
L 249.97283 114.892707 
L 250.540143 98.319173 
L 251.10411 103.293954 
L 251.660066 106.030738 
L 252.226178 92.047326 
L 252.785508 114.74451 
L 253.345214 101.639149 
L 253.905621 99.03757 
L 254.464266 103.903766 
L 255.033101 98.779529 
L 255.597635 99.262249 
L 256.160479 106.011396 
L 256.718125 104.038123 
L 257.277197 92.884078 
L 257.836392 107.820778 
L 258.398737 100.702723 
L 258.956624 99.483949 
L 259.524605 102.212031 
L 260.084378 104.279911 
L 260.646364 103.654583 
L 261.205278 94.229714 
L 261.767505 101.284705 
L 262.325549 101.722121 
L 262.884806 105.812345 
L 263.448111 93.739723 
L 264.015817 105.815147 
L 264.574956 88.936582 
L 265.131906 106.628454 
L 265.702711 101.190453 
L 266.262877 99.992105 
L 266.824312 108.605734 
L 267.385321 104.436699 
L 267.938004 96.490362 
L 268.507439 105.495031 
L 269.062244 96.717341 
L 269.622775 104.097288 
L 270.195293 96.590962 
L 270.753971 105.143591 
L 271.314671 99.55234 
L 271.867371 98.619837 
L 272.430844 103.448484 
L 272.993222 103.035111 
L 273.551985 102.450022 
L 274.117188 94.054063 
L 274.683423 92.840095 
L 275.237711 109.123648 
L 275.79877 102.452045 
L 276.358701 90.229287 
L 276.928686 99.559908 
L 277.486731 101.602633 
L 278.045134 96.304612 
L 278.610095 102.462849 
L 279.17244 106.227014 
L 279.733583 93.271798 
L 280.298005 105.783153 
L 280.855432 94.891833 
L 281.41827 98.261367 
L 281.978128 104.963571 
L 282.535437 95.590455 
L 283.104271 104.729859 
L 283.657246 99.6005 
L 284.22082 106.406453 
L 284.788291 93.604338 
L 285.345442 100.587191 
L 285.90347 94.637178 
L 286.47409 97.259083 
L 287.033465 106.157477 
L 287.587809 99.593198 
L 288.153651 108.111572 
L 288.716934 106.938596 
L 289.277482 88.505995 
L 289.842173 103.778716 
L 290.401587 90.856705 
L 291.518462 105.277056 
L 292.08308 100.351544 
L 292.645683 104.180194 
L 293.20229 104.429009 
L 293.769581 95.02543 
L 294.324886 99.927881 
L 294.886938 96.994951 
L 295.455829 98.859595 
L 296.010118 102.175809 
L 296.575819 95.458974 
L 297.701087 100.262475 
L 298.26383 94.747517 
L 298.816867 110.389299 
L 299.384882 94.975891 
L 299.939878 96.839647 
L 300.502132 104.258882 
L 301.064067 106.019332 
L 301.626086 90.123042 
L 302.186337 98.63472 
L 302.744555 102.766404 
L 303.312104 93.965829 
L 303.870732 99.187525 
L 304.431258 101.9687 
L 304.99463 103.120181 
L 305.562303 107.97264 
L 306.124905 86.825106 
L 306.680379 108.581184 
L 307.237671 98.147022 
L 307.797596 105.916748 
L 308.360109 92.054495 
L 308.929926 102.339189 
L 309.481273 94.749142 
L 310.042517 100.988252 
L 310.608786 95.144124 
L 311.173769 101.762187 
L 311.731246 97.246887 
L 312.289251 102.946733 
L 312.858861 100.856192 
L 313.416871 93.760019 
L 313.977279 97.523609 
L 314.539523 106.23968 
L 315.10171 99.572191 
L 315.663572 97.70254 
L 316.226001 102.623958 
L 316.791091 101.134024 
L 317.350106 96.134039 
L 317.90613 87.430985 
L 318.474779 101.346047 
L 319.025727 97.488036 
L 319.597189 100.200321 
L 320.157614 93.68079 
L 320.710532 100.556178 
L 321.271917 105.846536 
L 321.837293 95.384826 
L 322.401867 94.798661 
L 322.965957 105.596091 
L 323.527443 96.247987 
L 324.084443 98.521855 
L 324.642454 99.342406 
L 325.204057 103.461551 
L 325.769501 103.824575 
L 326.324104 101.189784 
L 326.893371 96.480572 
L 327.456294 104.323019 
L 328.019289 93.296631 
L 328.574594 98.05789 
L 329.136731 97.146504 
L 329.700238 103.862073 
L 330.256143 92.385779 
L 330.817011 92.465253 
L 331.383999 94.836639 
L 331.943346 99.830713 
L 332.504865 103.619051 
L 333.065857 95.20845 
L 333.622256 93.531731 
L 334.183366 97.480339 
L 334.752734 105.36756 
L 335.312799 107.31541 
L 335.868171 94.206429 
L 336.436714 100.91458 
L 336.999951 103.02925 
L 337.562621 93.977272 
L 338.11696 99.518445 
L 338.676941 100.512224 
L 339.24417 92.461785 
L 339.801541 104.322415 
L 340.361028 99.955067 
L 340.919651 99.200358 
L 341.490405 97.733088 
L 342.04388 109.552308 
L 342.613175 98.070463 
L 343.167368 93.948048 
L 343.736359 100.849379 
L 344.295959 95.403951 
L 344.851415 114.556816 
L 345.412424 94.534951 
L 345.979478 96.693206 
L 346.534042 102.00485 
L 347.096987 93.120294 
L 347.660258 103.055782 
L 348.220649 95.772505 
L 348.779547 101.911579 
L 349.343211 95.418029 
L 349.911276 104.012391 
L 350.464779 96.762362 
L 351.031615 93.130574 
L 352.155754 112.072719 
L 352.714786 92.587576 
L 353.270692 89.496557 
L 353.834833 100.736948 
L 354.394213 101.300119 
L 354.958972 97.661886 
L 355.517291 102.924385 
L 356.078553 99.340434 
L 356.642559 98.414582 
L 357.207458 94.600608 
L 357.765912 97.215425 
L 358.331457 98.093736 
L 358.886762 100.104805 
L 359.454226 104.711032 
L 360.01176 99.856719 
L 360.57004 97.500569 
L 361.134765 97.070311 
L 361.696234 98.047069 
L 362.262952 109.95236 
L 362.821849 93.614984 
L 363.377873 97.422536 
L 363.937147 99.788298 
L 365.068724 96.83285 
L 365.626937 97.163904 
L 366.18762 98.607749 
L 366.749089 112.167059 
L 367.310732 91.908364 
L 367.86922 104.750391 
L 368.435213 97.199103 
L 368.993909 100.496653 
L 369.563294 104.721698 
L 370.122741 100.353769 
L 370.676811 86.907312 
L 371.243007 109.423187 
L 371.801534 91.295895 
L 372.367595 92.997776 
L 372.921974 105.953168 
L 373.489264 102.567607 
L 374.613954 90.240655 
L 375.168023 101.186539 
L 375.733158 95.24419 
L 376.300522 102.654055 
L 376.850993 96.952337 
L 377.416885 96.436633 
L 377.978938 103.572222 
L 378.535231 92.094913 
L 379.099378 104.481611 
L 379.659611 96.649998 
L 380.21824 99.503308 
L 380.781864 96.092122 
L 381.353753 102.16845 
L 381.910803 99.187193 
L 382.473608 105.435861 
L 383.026752 92.174248 
L 383.594941 101.177279 
L 384.156887 102.584218 
L 384.719214 103.120143 
L 385.273902 103.890884 
L 385.835921 88.315924 
L 386.395571 104.868174 
L 386.962457 96.517936 
L 387.518615 98.064463 
L 388.07964 92.3791 
L 388.640874 99.365787 
L 389.20666 89.643958 
L 389.769942 103.011498 
L 390.328126 98.819712 
L 390.890039 91.043261 
L 392.017743 108.743294 
L 392.569073 89.184006 
L 393.698759 104.191607 
L 394.259065 88.802336 
L 394.819883 104.177098 
L 395.378955 90.741354 
L 395.938852 101.830719 
L 396.503369 97.62093 
L 397.069739 103.170759 
L 397.630905 100.073599 
L 398.18754 95.198511 
L 398.749868 104.396721 
L 399.311168 96.723305 
L 399.86777 99.939845 
L 400.432804 101.469285 
L 400.994615 99.30926 
L 401.556976 105.660153 
L 402.114544 87.837406 
L 402.674059 102.913008 
L 403.244645 91.21185 
L 403.806625 97.962462 
L 404.357955 97.274094 
L 404.357955 97.274094 
" style="fill:none;stroke:#ff7f0e;stroke-linecap:square;stroke-width:1.5;"/>
   </g>
   <g id="line2d_29">
    <path clip-path="url(#pf502247928)" d="M 67.517045 232.848268 
L 68.090839 232.950891 
L 68.64206 232.311107 
L 69.203377 227.018502 
L 69.770204 224.494451 
L 70.89343 222.092503 
L 71.448962 221.344152 
L 72.01046 220.937125 
L 73.133445 219.108314 
L 73.694896 216.913253 
L 74.256996 216.065918 
L 74.81548 216.89546 
L 75.940404 214.283736 
L 76.500585 213.559542 
L 77.062813 213.858237 
L 77.631064 213.398523 
L 78.193172 213.581242 
L 78.74883 214.697174 
L 79.875212 213.167662 
L 80.430999 212.761421 
L 80.9917 211.270207 
L 81.552247 211.297689 
L 82.118383 212.71618 
L 82.68247 212.812349 
L 83.238947 212.723523 
L 83.803312 212.968274 
L 84.930798 214.377582 
L 85.487944 213.478965 
L 86.044326 213.304956 
L 87.174205 212.373798 
L 87.736041 212.951388 
L 89.419851 210.308733 
L 89.978775 212.082777 
L 90.541211 212.676565 
L 91.101205 211.121007 
L 91.661559 212.118257 
L 92.226461 211.974374 
L 92.790108 212.428419 
L 93.344875 211.866199 
L 93.905566 211.516447 
L 94.475643 211.656694 
L 95.03371 212.021549 
L 95.595103 211.438653 
L 96.16006 212.191414 
L 96.715171 213.456766 
L 97.272185 213.478145 
L 97.833845 212.719597 
L 98.404076 212.686055 
L 98.958811 213.172469 
L 99.519611 213.293502 
L 100.089427 214.076366 
L 100.644277 213.709259 
L 101.20628 213.168183 
L 101.772404 213.534449 
L 102.329822 213.493775 
L 102.888671 212.765742 
L 104.013965 212.668492 
L 104.576043 214.227657 
L 105.133508 213.556215 
L 105.698084 213.302004 
L 106.255755 213.468614 
L 106.820801 215.082323 
L 107.386289 215.587766 
L 107.942148 215.689313 
L 108.504839 215.28421 
L 109.064025 215.88266 
L 109.625187 216.204854 
L 110.192264 215.91307 
L 110.74799 214.859415 
L 111.315632 215.383183 
L 111.873316 215.423972 
L 112.431801 215.192243 
L 112.996993 215.5867 
L 113.560763 215.218622 
L 114.676276 216.326709 
L 115.809213 215.072182 
L 116.364048 215.697521 
L 116.929446 217.570167 
L 117.485361 217.926523 
L 118.051748 217.478661 
L 118.609894 217.234849 
L 119.167518 217.194097 
L 119.73737 216.638652 
L 120.293375 216.510565 
L 120.860413 216.856255 
L 121.41904 217.763129 
L 121.977044 218.239997 
L 122.541436 217.585937 
L 123.097573 217.44658 
L 123.658 218.156554 
L 124.218851 217.864471 
L 124.783065 217.96463 
L 125.341699 217.031284 
L 125.91279 217.868262 
L 126.473591 218.297516 
L 127.030086 217.971919 
L 127.594514 217.202055 
L 128.154113 217.079302 
L 128.721005 217.937532 
L 129.271661 218.495459 
L 129.835937 217.29075 
L 130.404957 216.676563 
L 131.516947 219.047003 
L 132.639851 218.348949 
L 133.204402 219.091522 
L 133.768981 219.319961 
L 134.323921 218.638165 
L 134.892829 217.576193 
L 135.447684 218.43132 
L 136.011707 219.910191 
L 136.580564 220.462087 
L 137.132158 220.551702 
L 138.257785 219.497393 
L 138.818311 220.246835 
L 139.383704 220.556915 
L 139.938481 220.346856 
L 140.506406 219.947389 
L 141.062676 219.308933 
L 141.627205 219.514557 
L 143.312493 219.470814 
L 143.8776 218.752527 
L 144.436396 219.585065 
L 144.998455 220.122837 
L 145.556723 219.86664 
L 146.1157 220.230793 
L 146.676792 220.981395 
L 147.239496 221.130847 
L 147.801263 221.493152 
L 148.362889 220.907445 
L 148.925121 220.939305 
L 149.492238 221.593577 
L 150.050529 220.175002 
L 150.60639 219.917925 
L 151.174966 220.572356 
L 151.728205 220.564198 
L 152.29499 219.79474 
L 152.85327 219.809877 
L 153.973176 221.613421 
L 154.539395 220.583403 
L 155.102407 220.394454 
L 155.658936 220.897928 
L 156.2285 221.232239 
L 156.780908 221.209554 
L 157.351713 220.893926 
L 158.473309 222.123283 
L 159.036473 222.562571 
L 160.711965 221.994191 
L 161.272811 221.884356 
L 161.842257 221.302763 
L 162.399128 221.150746 
L 162.962197 221.243211 
L 163.518282 222.297487 
L 164.643583 223.283896 
L 165.211598 222.318048 
L 165.767919 222.200949 
L 166.330438 222.650477 
L 166.886989 223.580246 
L 167.457726 223.651129 
L 168.57642 222.546692 
L 169.133875 222.774795 
L 170.259154 223.003796 
L 170.824782 222.319461 
L 171.38706 222.579762 
L 171.944997 221.851399 
L 172.506871 221.896943 
L 173.060777 222.105276 
L 174.186073 223.002171 
L 174.744746 222.868557 
L 175.315618 222.455408 
L 175.874735 222.928184 
L 176.43603 222.476129 
L 176.992362 222.40302 
L 177.556284 222.07595 
L 178.11832 222.530235 
L 178.678256 222.513394 
L 179.239546 222.024627 
L 179.800374 222.121506 
L 180.363387 222.722609 
L 180.928544 223.990609 
L 181.483226 224.296127 
L 183.734979 222.937737 
L 184.28869 223.714334 
L 184.855307 223.486927 
L 185.41307 223.743509 
L 185.97788 223.696431 
L 186.543828 223.113027 
L 187.658912 223.711851 
L 188.223065 223.291411 
L 188.786128 223.46232 
L 189.345929 222.472835 
L 189.910626 222.774298 
L 191.035467 224.36751 
L 191.588504 223.954574 
L 192.149001 223.740591 
L 192.713182 224.063687 
L 193.273101 223.659147 
L 193.83612 222.739113 
L 194.399329 223.288696 
L 194.968697 224.550851 
L 196.086413 224.578187 
L 196.648635 224.411287 
L 197.21176 224.043274 
L 198.885589 223.745372 
L 199.453587 224.025103 
L 200.017105 224.760845 
L 200.573965 223.630016 
L 201.132953 223.858482 
L 201.692232 223.804328 
L 202.261196 224.349701 
L 202.825247 224.224242 
L 203.377088 224.68255 
L 203.945047 224.224443 
L 204.504393 224.050494 
L 205.073969 225.328673 
L 205.629869 225.883941 
L 206.193493 225.439192 
L 206.75394 225.251015 
L 207.867834 225.21147 
L 208.436186 224.349365 
L 209.000282 224.534447 
L 209.554009 224.534498 
L 210.120592 225.313775 
L 210.678199 224.918215 
L 211.246028 224.993161 
L 211.806846 225.232086 
L 212.359114 224.55959 
L 212.926533 224.743001 
L 213.490023 224.645913 
L 214.042875 223.741364 
L 214.612894 224.508931 
L 215.175755 224.37686 
L 215.733008 225.018906 
L 216.299479 225.8565 
L 216.854031 225.997377 
L 217.422641 225.464337 
L 217.972977 225.152166 
L 218.543906 225.661349 
L 219.098262 225.883792 
L 219.663896 225.539461 
L 220.223669 225.032777 
L 220.780086 225.275419 
L 221.348617 225.832818 
L 221.905511 226.2108 
L 222.471965 225.483248 
L 223.587677 225.42962 
L 224.153536 224.676134 
L 224.716903 224.557855 
L 225.273083 224.756965 
L 226.402769 226.175331 
L 226.96325 226.571161 
L 227.527733 226.139544 
L 228.645467 226.184571 
L 229.205291 226.327428 
L 229.769331 225.404795 
L 230.327752 225.138861 
L 230.88492 225.401416 
L 231.451531 226.039735 
L 232.571303 226.368899 
L 233.135977 226.801449 
L 233.70036 225.800959 
L 234.255833 225.164735 
L 234.82414 225.705664 
L 235.384323 225.802053 
L 235.9418 225.485572 
L 236.5025 224.584446 
L 237.061246 225.55992 
L 237.62957 225.795409 
L 238.744575 225.351718 
L 239.30747 225.310309 
L 240.434809 226.868986 
L 240.995408 226.961166 
L 241.558095 225.944885 
L 242.118312 225.967556 
L 242.675789 226.190234 
L 243.241238 225.369428 
L 243.798918 224.85729 
L 244.360819 224.732868 
L 244.92496 225.924038 
L 245.48717 225.583433 
L 246.05578 226.781257 
L 246.615677 225.992982 
L 247.175467 225.451477 
L 248.294997 226.96278 
L 248.853176 227.194796 
L 249.421949 226.572459 
L 250.540143 225.994785 
L 251.10411 226.528999 
L 251.660066 226.192417 
L 252.785508 226.199078 
L 253.345214 226.508793 
L 253.905621 226.436967 
L 254.464266 226.496538 
L 255.033101 226.760044 
L 255.597635 226.795809 
L 256.160479 225.981973 
L 257.277197 227.006057 
L 257.836392 227.314321 
L 259.524605 226.771295 
L 260.084378 227.195065 
L 261.205278 227.012875 
L 261.767505 226.125233 
L 262.325549 226.490323 
L 263.448111 227.591458 
L 264.015817 226.888144 
L 264.574956 225.855304 
L 265.131906 225.929229 
L 265.702711 226.714116 
L 266.824312 227.308712 
L 267.385321 226.574514 
L 267.938004 226.72179 
L 268.507439 227.072837 
L 269.062244 226.71164 
L 269.622775 226.827236 
L 270.195293 226.619289 
L 270.753971 226.611278 
L 271.314671 225.55657 
L 272.430844 227.756325 
L 272.993222 228.08012 
L 273.551985 227.590643 
L 274.117188 226.736426 
L 274.683423 226.652808 
L 275.237711 226.843817 
L 275.79877 226.728176 
L 276.358701 227.799817 
L 276.928686 228.25417 
L 277.486731 228.300859 
L 278.045134 227.642416 
L 278.610095 227.212493 
L 279.17244 227.383768 
L 279.733583 227.683 
L 280.298005 227.070232 
L 280.855432 227.334943 
L 281.41827 227.841317 
L 281.978128 226.973293 
L 282.535437 227.319681 
L 283.104271 227.87654 
L 283.657246 227.636251 
L 284.22082 227.016703 
L 284.788291 227.664438 
L 285.345442 227.617323 
L 285.90347 226.756445 
L 287.033465 229.065733 
L 287.587809 228.07211 
L 288.153651 228.022633 
L 288.716934 228.721146 
L 289.277482 228.607588 
L 289.842173 228.243956 
L 290.401587 228.464778 
L 290.95742 228.069613 
L 291.518462 226.803044 
L 292.08308 226.511049 
L 292.645683 227.120791 
L 293.20229 227.992585 
L 293.769581 228.288337 
L 294.324886 227.297419 
L 294.886938 227.082744 
L 296.010118 228.490127 
L 297.138097 228.43463 
L 297.701087 227.739861 
L 298.26383 227.490813 
L 299.384882 228.128278 
L 299.939878 226.888572 
L 300.502132 227.04971 
L 301.064067 228.108126 
L 301.626086 228.519302 
L 302.186337 228.198007 
L 302.744555 227.505544 
L 304.431258 227.34111 
L 304.99463 227.428054 
L 305.562303 227.996139 
L 306.124905 228.010426 
L 306.680379 228.187155 
L 307.237671 227.895413 
L 307.797596 228.099877 
L 308.929926 227.617031 
L 310.042517 228.049084 
L 310.608786 227.754833 
L 311.173769 227.000301 
L 311.731246 227.196417 
L 312.289251 227.784217 
L 313.416871 227.615428 
L 313.977279 227.685568 
L 314.539523 227.512803 
L 315.10171 227.553942 
L 315.663572 228.117717 
L 316.226001 227.611732 
L 316.791091 228.361837 
L 317.350106 229.353141 
L 318.474779 229.507249 
L 319.025727 228.928873 
L 319.597189 229.401857 
L 320.157614 229.157471 
L 320.710532 228.713667 
L 321.271917 228.847792 
L 321.837293 228.863897 
L 322.401867 228.008806 
L 322.965957 228.148879 
L 323.527443 228.60691 
L 324.084443 228.127773 
L 324.642454 227.434062 
L 325.204057 228.157249 
L 325.769501 229.166648 
L 326.324104 228.770379 
L 326.893371 228.619278 
L 327.456294 228.307026 
L 328.019289 228.489369 
L 328.574594 227.947258 
L 329.136731 227.949919 
L 330.256143 227.228622 
L 331.383999 227.979045 
L 331.943346 228.442729 
L 333.622256 227.663722 
L 334.183366 228.480848 
L 334.752734 228.455343 
L 335.868171 227.742276 
L 336.436714 228.361803 
L 336.999951 228.668115 
L 337.562621 228.477344 
L 338.11696 228.765986 
L 338.676941 228.134732 
L 339.24417 228.527197 
L 339.801541 228.114277 
L 340.361028 228.736269 
L 340.919651 228.451208 
L 341.490405 227.417704 
L 342.04388 227.052991 
L 342.613175 227.835332 
L 343.167368 228.123089 
L 343.736359 228.249629 
L 344.295959 228.009484 
L 344.851415 228.300036 
L 345.412424 227.700903 
L 346.534042 228.74171 
L 347.096987 228.668291 
L 347.660258 227.995068 
L 348.220649 227.768989 
L 348.779547 228.062062 
L 349.343211 227.852734 
L 350.464779 229.04205 
L 351.031615 229.112705 
L 351.588699 228.159829 
L 352.155754 227.63767 
L 352.714786 228.142908 
L 353.270692 228.462564 
L 353.834833 227.931614 
L 355.517291 228.925455 
L 356.078553 228.661792 
L 357.207458 229.212933 
L 357.765912 229.500624 
L 358.886762 228.17611 
L 359.454226 227.949747 
L 360.01176 227.931287 
L 360.57004 226.796154 
L 361.134765 227.370678 
L 361.696234 228.294747 
L 362.262952 228.843051 
L 362.821849 228.771601 
L 363.377873 228.437743 
L 363.937147 229.163127 
L 364.50273 229.193442 
L 365.626937 228.226172 
L 366.749089 229.117083 
L 367.310732 228.672384 
L 367.86922 227.61117 
L 368.435213 227.788422 
L 368.993909 229.559075 
L 369.563294 229.406051 
L 370.122741 229.130264 
L 370.676811 227.95181 
L 371.243007 228.107658 
L 371.801534 227.903816 
L 372.367595 229.260738 
L 373.489264 228.62647 
L 374.051867 228.69295 
L 374.613954 228.17274 
L 375.168023 228.560488 
L 375.733158 228.41151 
L 376.300522 227.965011 
L 376.850993 228.751933 
L 377.416885 228.874045 
L 377.978938 229.15413 
L 378.535231 228.584651 
L 379.099378 228.561016 
L 379.659611 228.022519 
L 380.781864 229.271371 
L 381.353753 229.508315 
L 381.910803 229.330028 
L 382.473608 228.599828 
L 383.026752 228.477709 
L 384.156887 227.82439 
L 384.719214 228.563801 
L 385.273902 228.922987 
L 385.835921 228.078192 
L 386.395571 227.957003 
L 386.962457 228.375211 
L 387.518615 229.028652 
L 388.640874 228.320589 
L 389.769942 228.965367 
L 390.328126 228.911117 
L 390.890039 227.49555 
L 392.017743 227.41422 
L 392.569073 228.350799 
L 393.14168 229.06916 
L 393.698759 229.226781 
L 394.259065 229.554232 
L 394.819883 229.338338 
L 395.378955 228.894585 
L 395.938852 228.21984 
L 396.503369 228.832325 
L 397.069739 229.193188 
L 397.630905 227.81973 
L 398.18754 227.575452 
L 398.749868 227.839469 
L 399.311168 228.365347 
L 399.86777 227.845617 
L 400.432804 227.944141 
L 400.994615 227.927414 
L 401.556976 228.412784 
L 402.674059 229.887119 
L 403.244645 230.116964 
L 403.806625 229.55264 
L 404.357955 229.323767 
L 404.357955 229.323767 
" style="fill:none;stroke:#2ca02c;stroke-linecap:square;stroke-width:1.5;"/>
   </g>
   <g id="line2d_30">
    <path clip-path="url(#pf502247928)" d="M 67.517045 232.847889 
L 68.090839 206.746189 
L 68.64206 191.32252 
L 69.203377 182.440844 
L 69.770204 175.860303 
L 70.332673 179.127736 
L 70.89343 170.30794 
L 71.448962 172.958409 
L 72.01046 164.926919 
L 72.571993 159.055048 
L 73.133445 151.090542 
L 73.694896 141.191875 
L 74.256996 136.552118 
L 74.81548 129.105057 
L 75.385022 119.820634 
L 76.500585 109.624442 
L 77.062813 108.511067 
L 77.631064 97.661323 
L 78.193172 99.172712 
L 78.74883 96.151227 
L 79.310078 94.723115 
L 79.875212 77.747667 
L 80.430999 80.869051 
L 80.9917 81.94554 
L 81.552247 73.954696 
L 82.118383 81.702853 
L 82.68247 62.828809 
L 83.238947 73.931672 
L 83.803312 64.640732 
L 84.361454 59.225742 
L 84.930798 72.350489 
L 85.487944 60.844475 
L 86.606922 50.610972 
L 87.174205 60.959327 
L 88.298688 55.380022 
L 88.855109 48.467397 
L 89.419851 49.667144 
L 89.978775 58.178167 
L 90.541211 43.790264 
L 91.101205 35.631914 
L 91.661559 62.847486 
L 92.226461 41.654915 
L 92.790108 45.12417 
L 93.344875 54.29077 
L 93.905566 40.641541 
L 94.475643 38.543168 
L 95.03371 60.418769 
L 95.595103 45.627145 
L 96.16006 51.877825 
L 96.715171 28.841344 
L 97.272185 34.041424 
L 97.833845 43.555778 
L 98.404076 45.533407 
L 98.958811 44.168381 
L 99.519611 44.016725 
L 100.089427 49.770063 
L 100.644277 34.262081 
L 101.20628 46.33291 
L 101.772404 31.049814 
L 102.329822 46.360299 
L 102.888671 51.318449 
L 104.013965 30.882862 
L 104.576043 52.684221 
L 105.133508 40.543681 
L 105.698084 46.049063 
L 106.255755 29.418024 
L 107.386289 46.171818 
L 107.942148 35.849487 
L 108.504839 33.812849 
L 109.064025 36.97093 
L 109.625187 47.604789 
L 110.192264 42.24868 
L 110.74799 44.919108 
L 111.315632 33.558076 
L 112.431801 41.327292 
L 112.996993 41.666744 
L 113.560763 41.08174 
L 114.118738 37.143561 
L 114.676276 42.699599 
L 115.246621 33.553879 
L 115.809213 42.66642 
L 116.364048 35.928848 
L 116.929446 44.345904 
L 117.485361 37.520136 
L 118.051748 38.227976 
L 118.609894 43.136119 
L 119.167518 44.155003 
L 119.73737 28.7089 
L 120.293375 46.417428 
L 120.860413 36.270408 
L 121.41904 46.568824 
L 121.977044 31.60563 
L 122.541436 48.46098 
L 123.097573 35.066068 
L 123.658 38.10418 
L 124.218851 34.548196 
L 124.783065 38.359465 
L 125.341699 39.253682 
L 125.91279 36.390958 
L 126.473591 42.103469 
L 127.030086 41.485415 
L 127.594514 53.866546 
L 128.154113 36.699742 
L 128.721005 34.335053 
L 129.271661 36.687653 
L 129.835937 41.33097 
L 130.404957 38.606525 
L 130.957853 35.162612 
L 131.516947 48.492793 
L 132.080213 34.778942 
L 132.639851 36.100197 
L 133.204402 42.648726 
L 133.768981 37.526995 
L 134.323921 48.639342 
L 134.892829 29.855346 
L 135.447684 45.990666 
L 136.011707 41.386155 
L 136.580564 39.942974 
L 137.132158 45.579724 
L 137.70138 29.85551 
L 138.257785 37.511755 
L 138.818311 40.432998 
L 139.383704 48.275372 
L 139.938481 41.502235 
L 140.506406 26.204286 
L 141.062676 44.720965 
L 141.627205 30.139397 
L 142.187977 45.67155 
L 142.751451 40.681601 
L 143.312493 33.430383 
L 143.8776 45.320089 
L 144.436396 46.131479 
L 144.998455 34.056765 
L 145.556723 37.07056 
L 146.1157 34.630442 
L 146.676792 43.904298 
L 147.239496 31.864356 
L 147.801263 40.432016 
L 148.362889 43.691263 
L 148.925121 41.058704 
L 149.492238 34.434152 
L 150.60639 47.296132 
L 151.174966 36.171253 
L 151.728205 41.651229 
L 152.29499 30.569744 
L 152.85327 45.16573 
L 153.412482 40.479054 
L 153.973176 36.784396 
L 154.539395 30.167029 
L 155.102407 39.404991 
L 155.658936 35.751943 
L 156.2285 35.04211 
L 156.780908 38.097428 
L 157.351713 39.775928 
L 157.903256 38.940508 
L 158.473309 36.195257 
L 159.036473 37.974248 
L 159.587613 46.757825 
L 160.151361 38.420177 
L 160.711965 40.479953 
L 161.272811 38.638501 
L 161.842257 37.785862 
L 162.399128 38.229059 
L 162.962197 38.881222 
L 163.518282 37.145221 
L 164.082395 37.623587 
L 164.643583 40.301334 
L 165.767919 37.740515 
L 166.330438 35.519444 
L 166.886989 53.683488 
L 167.457726 30.736592 
L 168.014216 33.140725 
L 168.57642 44.219174 
L 169.133875 35.760476 
L 169.696113 45.748059 
L 170.259154 31.791574 
L 170.824782 44.835121 
L 171.38706 31.430096 
L 171.944997 34.590303 
L 172.506871 52.284603 
L 173.060777 34.978959 
L 173.628135 33.872821 
L 174.186073 42.053612 
L 174.744746 46.652698 
L 175.315618 27.127834 
L 175.874735 40.348685 
L 176.43603 41.244598 
L 176.992362 47.00126 
L 177.556284 44.799975 
L 178.11832 34.989626 
L 178.678256 32.848863 
L 179.239546 36.296583 
L 179.800374 37.740481 
L 180.363387 44.275905 
L 180.928544 33.895715 
L 181.483226 42.451651 
L 182.053851 34.526385 
L 182.605557 38.863974 
L 183.174313 35.530152 
L 183.734979 38.59911 
L 184.28869 39.505824 
L 184.855307 46.222558 
L 185.41307 35.943108 
L 185.97788 37.727695 
L 186.543828 44.511625 
L 187.102198 40.667301 
L 187.658912 43.10163 
L 188.223065 26.624482 
L 188.786128 54.560231 
L 189.345929 28.655114 
L 189.910626 48.652274 
L 190.474487 30.388818 
L 191.035467 33.916465 
L 191.588504 46.608882 
L 192.149001 41.6918 
L 192.713182 38.20733 
L 193.273101 35.573072 
L 193.83612 36.936699 
L 194.399329 40.767012 
L 194.968697 38.615176 
L 195.527898 44.862777 
L 196.086413 29.596289 
L 196.648635 44.414617 
L 197.21176 34.071294 
L 197.763926 36.757253 
L 198.325777 42.532239 
L 198.885589 37.758785 
L 199.453587 36.214467 
L 200.017105 45.64733 
L 200.573965 45.136473 
L 201.132953 37.042844 
L 201.692232 41.193806 
L 202.261196 37.063457 
L 202.825247 37.810302 
L 203.377088 43.108027 
L 203.945047 36.597485 
L 204.504393 37.855135 
L 205.073969 40.955665 
L 205.629869 33.299996 
L 206.193493 38.50667 
L 206.75394 32.121693 
L 207.308201 42.700609 
L 207.867834 41.804219 
L 208.436186 39.588161 
L 209.000282 36.406375 
L 209.554009 39.821568 
L 210.120592 42.557223 
L 210.678199 37.466813 
L 211.246028 35.45775 
L 211.806846 48.06038 
L 212.359114 33.875668 
L 212.926533 39.662267 
L 213.490023 27.459526 
L 214.042875 36.464514 
L 214.612894 42.276634 
L 215.175755 36.77156 
L 215.733008 41.359714 
L 216.299479 36.815228 
L 216.854031 35.419134 
L 217.422641 32.369545 
L 217.972977 32.382527 
L 218.543906 47.723475 
L 219.098262 46.050232 
L 219.663896 24.223971 
L 220.223669 39.873695 
L 220.780086 40.163613 
L 221.348617 39.868154 
L 221.905511 33.266322 
L 222.471965 49.537546 
L 223.029464 33.96395 
L 223.587677 38.875974 
L 224.716903 30.547566 
L 225.273083 43.698808 
L 225.84322 39.28493 
L 226.402769 40.130838 
L 226.96325 40.417593 
L 227.527733 35.063849 
L 228.079456 37.271602 
L 228.645467 43.698896 
L 229.205291 32.011056 
L 229.769331 32.870721 
L 230.327752 39.979751 
L 230.88492 41.347547 
L 231.451531 38.347209 
L 232.010277 43.732944 
L 232.571303 40.659164 
L 233.135977 31.252142 
L 233.70036 41.306408 
L 234.255833 44.727902 
L 234.82414 36.653952 
L 235.384323 46.677317 
L 235.9418 28.796381 
L 236.5025 39.381454 
L 237.061246 52.695292 
L 237.62957 28.733119 
L 238.189545 33.197332 
L 238.744575 47.853817 
L 239.30747 23.605694 
L 240.434809 50.976585 
L 240.995408 34.979003 
L 241.558095 36.971201 
L 242.118312 35.613048 
L 242.675789 38.66048 
L 243.241238 53.342487 
L 243.798918 30.905641 
L 244.360819 28.201831 
L 244.92496 45.856262 
L 245.48717 46.77811 
L 246.05578 37.677379 
L 246.615677 33.227311 
L 247.175467 24.576665 
L 247.727375 48.274826 
L 248.294997 46.073495 
L 248.853176 29.668948 
L 249.421949 37.284759 
L 249.97283 48.696143 
L 250.540143 31.734035 
L 251.10411 44.195049 
L 251.660066 39.8926 
L 252.226178 24.554387 
L 252.785508 55.602374 
L 253.345214 37.333047 
L 253.905621 32.07705 
L 254.464266 42.453062 
L 255.033101 36.878089 
L 255.597635 32.745392 
L 256.160479 44.220933 
L 256.718125 40.111544 
L 257.277197 31.200702 
L 257.836392 46.360465 
L 258.398737 34.523002 
L 258.956624 36.609764 
L 259.524605 40.238865 
L 260.084378 40.275069 
L 260.646364 41.140827 
L 261.205278 31.784301 
L 261.767505 38.488909 
L 262.325549 37.768181 
L 262.884806 43.910981 
L 263.448111 30.654458 
L 264.015817 41.458968 
L 264.574956 25.949955 
L 265.131906 40.092845 
L 265.702711 38.675631 
L 266.262877 42.225176 
L 266.824312 39.278532 
L 267.385321 46.480806 
L 267.938004 31.976302 
L 268.507439 41.449306 
L 269.062244 33.654561 
L 269.622775 42.832651 
L 270.195293 34.636992 
L 270.753971 37.422185 
L 271.314671 37.093126 
L 271.867371 33.755818 
L 272.430844 43.845609 
L 272.993222 39.037739 
L 273.551985 45.176523 
L 274.117188 28.255058 
L 274.683423 29.469259 
L 275.237711 45.099522 
L 275.79877 44.04389 
L 276.358701 25.131081 
L 276.928686 42.988177 
L 277.486731 35.995269 
L 278.045134 37.337644 
L 278.610095 40.830064 
L 279.17244 39.01429 
L 279.733583 34.015712 
L 280.298005 44.045008 
L 280.855432 33.640717 
L 281.41827 36.179951 
L 281.978128 41.13871 
L 282.535437 35.757089 
L 283.104271 40.760363 
L 283.657246 35.645858 
L 284.22082 49.727932 
L 284.788291 26.216841 
L 285.345442 39.002569 
L 285.90347 33.668143 
L 286.47409 34.894725 
L 287.033465 46.591646 
L 287.587809 38.113189 
L 288.153651 46.983295 
L 288.716934 46.668332 
L 289.277482 30.178845 
L 289.842173 39.81429 
L 290.401587 33.863182 
L 290.95742 35.893257 
L 291.518462 41.892419 
L 292.08308 37.600416 
L 292.645683 42.459163 
L 293.20229 45.883753 
L 293.769581 33.176347 
L 294.324886 36.276335 
L 295.455829 36.169339 
L 296.010118 40.209133 
L 296.575819 36.264254 
L 297.138097 37.800933 
L 297.701087 36.76391 
L 298.26383 34.680229 
L 298.816867 52.767637 
L 299.384882 28.837191 
L 299.939878 33.601727 
L 300.502132 41.959492 
L 301.064067 48.360466 
L 301.626086 31.161546 
L 302.186337 37.905407 
L 302.744555 40.071418 
L 303.312104 31.11142 
L 303.870732 36.663238 
L 304.99463 43.077101 
L 305.562303 44.962132 
L 306.124905 27.903774 
L 306.680379 42.641482 
L 307.237671 37.163452 
L 307.797596 47.84141 
L 308.360109 30.202304 
L 308.929926 38.696354 
L 309.481273 32.297156 
L 310.042517 40.962427 
L 310.608786 32.292237 
L 311.173769 36.266695 
L 311.731246 36.887815 
L 312.289251 44.1742 
L 312.858861 39.661979 
L 313.416871 29.139518 
L 314.539523 43.979775 
L 315.10171 37.510018 
L 315.663572 36.170614 
L 316.226001 43.749483 
L 316.791091 40.810597 
L 317.350106 33.034344 
L 317.90613 28.588423 
L 318.474779 42.982159 
L 319.025727 38.731397 
L 319.597189 42.08011 
L 320.157614 33.173365 
L 320.710532 42.709768 
L 321.271917 46.183589 
L 321.837293 36.932144 
L 322.401867 32.38456 
L 322.965957 46.456426 
L 323.527443 37.676084 
L 324.084443 35.707229 
L 324.642454 38.081195 
L 325.204057 42.516574 
L 325.769501 39.912746 
L 326.324104 43.978016 
L 326.893371 36.990315 
L 327.456294 45.706949 
L 328.019289 29.83984 
L 328.574594 37.223468 
L 329.136731 36.021639 
L 329.700238 39.153187 
L 330.256143 30.006149 
L 330.817011 33.260736 
L 331.383999 33.581512 
L 332.504865 45.700239 
L 333.065857 28.218646 
L 333.622256 33.224757 
L 334.183366 35.332353 
L 334.752734 47.139431 
L 335.312799 44.578927 
L 335.868171 35.008865 
L 336.436714 35.0491 
L 336.999951 42.923717 
L 337.562621 37.306227 
L 338.11696 34.002187 
L 338.676941 42.005092 
L 339.24417 33.360454 
L 339.801541 43.190444 
L 340.361028 35.156198 
L 340.919651 38.176566 
L 341.490405 34.942908 
L 342.04388 51.495807 
L 342.613175 35.539285 
L 343.167368 30.339728 
L 343.736359 39.62276 
L 344.295959 36.015608 
L 344.851415 51.154128 
L 345.412424 33.225975 
L 345.979478 34.790729 
L 346.534042 45.339379 
L 347.096987 28.447341 
L 347.660258 42.867531 
L 348.220649 31.737152 
L 348.779547 44.097133 
L 349.343211 31.252188 
L 349.911276 42.764155 
L 350.464779 39.308807 
L 351.031615 30.344203 
L 351.588699 44.032991 
L 352.155754 52.196621 
L 352.714786 26.400131 
L 353.270692 29.445238 
L 353.834833 38.296568 
L 354.394213 40.4725 
L 354.958972 38.642185 
L 355.517291 40.145157 
L 356.078553 39.145809 
L 356.642559 41.113434 
L 357.207458 33.873147 
L 357.765912 34.907046 
L 358.331457 42.841447 
L 358.886762 37.672913 
L 359.454226 41.176719 
L 360.01176 40.947781 
L 360.57004 34.24102 
L 361.134765 31.63261 
L 361.696234 40.777671 
L 362.262952 46.059366 
L 362.821849 34.7588 
L 363.377873 34.061837 
L 363.937147 41.117808 
L 364.50273 40.826294 
L 365.068724 35.002916 
L 365.626937 34.63032 
L 366.18762 39.61305 
L 366.749089 49.637149 
L 367.310732 35.405698 
L 367.86922 42.700377 
L 368.435213 33.40658 
L 369.563294 47.828487 
L 370.122741 38.248431 
L 370.676811 21.882894 
L 371.243007 52.303199 
L 371.801534 27.919064 
L 372.367595 33.206322 
L 372.921974 48.624619 
L 373.489264 38.522073 
L 374.051867 36.230674 
L 374.613954 29.672539 
L 375.168023 41.487141 
L 375.733158 32.064356 
L 376.300522 46.254221 
L 376.850993 32.965261 
L 377.416885 39.830754 
L 377.978938 39.666774 
L 378.535231 31.033869 
L 379.099378 43.049503 
L 379.659611 36.401096 
L 380.21824 36.932548 
L 380.781864 38.490886 
L 381.353753 45.232317 
L 381.910803 37.0565 
L 382.473608 44.885643 
L 383.026752 31.395747 
L 383.594941 41.478115 
L 384.156887 42.27972 
L 384.719214 45.362278 
L 385.273902 39.143574 
L 385.835921 30.270536 
L 386.395571 41.710811 
L 387.518615 35.195238 
L 388.07964 34.136075 
L 388.640874 42.860162 
L 389.20666 21.5 
L 389.769942 47.271338 
L 390.328126 34.57337 
L 390.890039 31.457751 
L 391.453052 36.646826 
L 392.017743 49.883299 
L 392.569073 27.971154 
L 393.14168 37.101942 
L 393.698759 43.484628 
L 394.259065 31.455065 
L 394.819883 40.665569 
L 395.378955 32.704641 
L 395.938852 41.103045 
L 396.503369 38.657683 
L 397.069739 38.867827 
L 397.630905 40.854464 
L 398.18754 31.957586 
L 398.749868 44.136535 
L 399.311168 33.679397 
L 399.86777 41.471946 
L 400.432804 39.129711 
L 400.994615 39.508647 
L 401.556976 40.190794 
L 402.114544 29.487493 
L 402.674059 43.462098 
L 403.244645 31.089615 
L 403.806625 40.1067 
L 404.357955 37.441682 
L 404.357955 37.441682 
" style="fill:none;stroke:#d62728;stroke-linecap:square;stroke-width:1.5;"/>
   </g>
   <g id="line2d_31">
    <path clip-path="url(#pf502247928)" d="M 67.517045 36.958436 
L 404.357955 36.958436 
" style="fill:none;stroke:#000000;stroke-dasharray:5.55,2.4;stroke-dashoffset:0;stroke-width:1.5;"/>
   </g>
   <g id="line2d_32">
    <path clip-path="url(#pf502247928)" d="M 67.517045 174.081356 
L 404.357955 174.081356 
" style="fill:none;stroke:#0000ff;stroke-dasharray:5.55,2.4;stroke-dashoffset:0;stroke-width:1.5;"/>
   </g>
   <g id="patch_3">
    <path d="M 50.675 246.2 
L 50.675 10.8 
" style="fill:none;stroke:#000000;stroke-linecap:square;stroke-linejoin:miter;stroke-width:0.8;"/>
   </g>
   <g id="patch_4">
    <path d="M 421.2 246.2 
L 421.2 10.8 
" style="fill:none;stroke:#000000;stroke-linecap:square;stroke-linejoin:miter;stroke-width:0.8;"/>
   </g>
   <g id="patch_5">
    <path d="M 50.675 246.2 
L 421.2 246.2 
" style="fill:none;stroke:#000000;stroke-linecap:square;stroke-linejoin:miter;stroke-width:0.8;"/>
   </g>
   <g id="patch_6">
    <path d="M 50.675 10.8 
L 421.2 10.8 
" style="fill:none;stroke:#000000;stroke-linecap:square;stroke-linejoin:miter;stroke-width:0.8;"/>
   </g>
   <g id="legend_1">
    <g id="patch_7">
     <path d="M 57.675 106.86875 
L 179.58125 106.86875 
Q 181.58125 106.86875 181.58125 104.86875 
L 181.58125 17.8 
Q 181.58125 15.8 179.58125 15.8 
L 57.675 15.8 
Q 55.675 15.8 55.675 17.8 
L 55.675 104.86875 
Q 55.675 106.86875 57.675 106.86875 
z
" style="fill:#ffffff;opacity:0.8;stroke:#cccccc;stroke-linejoin:miter;"/>
    </g>
    <g id="line2d_33">
     <path d="M 59.675 23.898438 
L 79.675 23.898438 
" style="fill:none;stroke:#1f77b4;stroke-linecap:square;stroke-width:1.5;"/>
    </g>
    <g id="line2d_34"/>
    <g id="text_16">
     <!-- Radiation -->
     <defs>
      <path d="M 45.40625 46.390625 
L 45.40625 75.984375 
L 54.390625 75.984375 
L 54.390625 0 
L 45.40625 0 
L 45.40625 8.203125 
Q 42.578125 3.328125 38.25 0.953125 
Q 33.9375 -1.421875 27.875 -1.421875 
Q 17.96875 -1.421875 11.734375 6.484375 
Q 5.515625 14.40625 5.515625 27.296875 
Q 5.515625 40.1875 11.734375 48.09375 
Q 17.96875 56 27.875 56 
Q 33.9375 56 38.25 53.625 
Q 42.578125 51.265625 45.40625 46.390625 
z
M 14.796875 27.296875 
Q 14.796875 17.390625 18.875 11.75 
Q 22.953125 6.109375 30.078125 6.109375 
Q 37.203125 6.109375 41.296875 11.75 
Q 45.40625 17.390625 45.40625 27.296875 
Q 45.40625 37.203125 41.296875 42.84375 
Q 37.203125 48.484375 30.078125 48.484375 
Q 22.953125 48.484375 18.875 42.84375 
Q 14.796875 37.203125 14.796875 27.296875 
z
" id="DejaVuSans-100"/>
      <path d="M 30.609375 48.390625 
Q 23.390625 48.390625 19.1875 42.75 
Q 14.984375 37.109375 14.984375 27.296875 
Q 14.984375 17.484375 19.15625 11.84375 
Q 23.34375 6.203125 30.609375 6.203125 
Q 37.796875 6.203125 41.984375 11.859375 
Q 46.1875 17.53125 46.1875 27.296875 
Q 46.1875 37.015625 41.984375 42.703125 
Q 37.796875 48.390625 30.609375 48.390625 
z
M 30.609375 56 
Q 42.328125 56 49.015625 48.375 
Q 55.71875 40.765625 55.71875 27.296875 
Q 55.71875 13.875 49.015625 6.21875 
Q 42.328125 -1.421875 30.609375 -1.421875 
Q 18.84375 -1.421875 12.171875 6.21875 
Q 5.515625 13.875 5.515625 27.296875 
Q 5.515625 40.765625 12.171875 48.375 
Q 18.84375 56 30.609375 56 
z
" id="DejaVuSans-111"/>
     </defs>
     <g transform="translate(87.675 27.398438)scale(0.1 -0.1)">
      <use xlink:href="#DejaVuSans-82"/>
      <use x="69.451172" xlink:href="#DejaVuSans-97"/>
      <use x="130.730469" xlink:href="#DejaVuSans-100"/>
      <use x="194.207031" xlink:href="#DejaVuSans-105"/>
      <use x="221.990234" xlink:href="#DejaVuSans-97"/>
      <use x="283.269531" xlink:href="#DejaVuSans-116"/>
      <use x="322.478516" xlink:href="#DejaVuSans-105"/>
      <use x="350.261719" xlink:href="#DejaVuSans-111"/>
      <use x="411.443359" xlink:href="#DejaVuSans-110"/>
     </g>
    </g>
    <g id="line2d_35">
     <path d="M 59.675 38.576562 
L 79.675 38.576562 
" style="fill:none;stroke:#ff7f0e;stroke-linecap:square;stroke-width:1.5;"/>
    </g>
    <g id="line2d_36"/>
    <g id="text_17">
     <!-- Convection -->
     <defs>
      <path d="M 64.40625 67.28125 
L 64.40625 56.890625 
Q 59.421875 61.53125 53.78125 63.8125 
Q 48.140625 66.109375 41.796875 66.109375 
Q 29.296875 66.109375 22.65625 58.46875 
Q 16.015625 50.828125 16.015625 36.375 
Q 16.015625 21.96875 22.65625 14.328125 
Q 29.296875 6.6875 41.796875 6.6875 
Q 48.140625 6.6875 53.78125 8.984375 
Q 59.421875 11.28125 64.40625 15.921875 
L 64.40625 5.609375 
Q 59.234375 2.09375 53.4375 0.328125 
Q 47.65625 -1.421875 41.21875 -1.421875 
Q 24.65625 -1.421875 15.125 8.703125 
Q 5.609375 18.84375 5.609375 36.375 
Q 5.609375 53.953125 15.125 64.078125 
Q 24.65625 74.21875 41.21875 74.21875 
Q 47.75 74.21875 53.53125 72.484375 
Q 59.328125 70.75 64.40625 67.28125 
z
" id="DejaVuSans-67"/>
      <path d="M 2.984375 54.6875 
L 12.5 54.6875 
L 29.59375 8.796875 
L 46.6875 54.6875 
L 56.203125 54.6875 
L 35.6875 0 
L 23.484375 0 
z
" id="DejaVuSans-118"/>
      <path d="M 48.78125 52.59375 
L 48.78125 44.1875 
Q 44.96875 46.296875 41.140625 47.34375 
Q 37.3125 48.390625 33.40625 48.390625 
Q 24.65625 48.390625 19.8125 42.84375 
Q 14.984375 37.3125 14.984375 27.296875 
Q 14.984375 17.28125 19.8125 11.734375 
Q 24.65625 6.203125 33.40625 6.203125 
Q 37.3125 6.203125 41.140625 7.25 
Q 44.96875 8.296875 48.78125 10.40625 
L 48.78125 2.09375 
Q 45.015625 0.34375 40.984375 -0.53125 
Q 36.96875 -1.421875 32.421875 -1.421875 
Q 20.0625 -1.421875 12.78125 6.34375 
Q 5.515625 14.109375 5.515625 27.296875 
Q 5.515625 40.671875 12.859375 48.328125 
Q 20.21875 56 33.015625 56 
Q 37.15625 56 41.109375 55.140625 
Q 45.0625 54.296875 48.78125 52.59375 
z
" id="DejaVuSans-99"/>
     </defs>
     <g transform="translate(87.675 42.076562)scale(0.1 -0.1)">
      <use xlink:href="#DejaVuSans-67"/>
      <use x="69.824219" xlink:href="#DejaVuSans-111"/>
      <use x="131.005859" xlink:href="#DejaVuSans-110"/>
      <use x="194.384766" xlink:href="#DejaVuSans-118"/>
      <use x="253.564453" xlink:href="#DejaVuSans-101"/>
      <use x="315.087891" xlink:href="#DejaVuSans-99"/>
      <use x="370.068359" xlink:href="#DejaVuSans-116"/>
      <use x="409.277344" xlink:href="#DejaVuSans-105"/>
      <use x="437.060547" xlink:href="#DejaVuSans-111"/>
      <use x="498.242188" xlink:href="#DejaVuSans-110"/>
     </g>
    </g>
    <g id="line2d_37">
     <path d="M 59.675 53.254687 
L 79.675 53.254687 
" style="fill:none;stroke:#2ca02c;stroke-linecap:square;stroke-width:1.5;"/>
    </g>
    <g id="line2d_38"/>
    <g id="text_18">
     <!-- Conduction -->
     <defs>
      <path d="M 8.5 21.578125 
L 8.5 54.6875 
L 17.484375 54.6875 
L 17.484375 21.921875 
Q 17.484375 14.15625 20.5 10.265625 
Q 23.53125 6.390625 29.59375 6.390625 
Q 36.859375 6.390625 41.078125 11.03125 
Q 45.3125 15.671875 45.3125 23.6875 
L 45.3125 54.6875 
L 54.296875 54.6875 
L 54.296875 0 
L 45.3125 0 
L 45.3125 8.40625 
Q 42.046875 3.421875 37.71875 1 
Q 33.40625 -1.421875 27.6875 -1.421875 
Q 18.265625 -1.421875 13.375 4.4375 
Q 8.5 10.296875 8.5 21.578125 
z
M 31.109375 56 
z
" id="DejaVuSans-117"/>
     </defs>
     <g transform="translate(87.675 56.754687)scale(0.1 -0.1)">
      <use xlink:href="#DejaVuSans-67"/>
      <use x="69.824219" xlink:href="#DejaVuSans-111"/>
      <use x="131.005859" xlink:href="#DejaVuSans-110"/>
      <use x="194.384766" xlink:href="#DejaVuSans-100"/>
      <use x="257.861328" xlink:href="#DejaVuSans-117"/>
      <use x="321.240234" xlink:href="#DejaVuSans-99"/>
      <use x="376.220703" xlink:href="#DejaVuSans-116"/>
      <use x="415.429688" xlink:href="#DejaVuSans-105"/>
      <use x="443.212891" xlink:href="#DejaVuSans-111"/>
      <use x="504.394531" xlink:href="#DejaVuSans-110"/>
     </g>
    </g>
    <g id="line2d_39">
     <path d="M 59.675 67.932813 
L 79.675 67.932813 
" style="fill:none;stroke:#d62728;stroke-linecap:square;stroke-width:1.5;"/>
    </g>
    <g id="line2d_40"/>
    <g id="text_19">
     <!-- Combined -->
     <defs>
      <path d="M 48.6875 27.296875 
Q 48.6875 37.203125 44.609375 42.84375 
Q 40.53125 48.484375 33.40625 48.484375 
Q 26.265625 48.484375 22.1875 42.84375 
Q 18.109375 37.203125 18.109375 27.296875 
Q 18.109375 17.390625 22.1875 11.75 
Q 26.265625 6.109375 33.40625 6.109375 
Q 40.53125 6.109375 44.609375 11.75 
Q 48.6875 17.390625 48.6875 27.296875 
z
M 18.109375 46.390625 
Q 20.953125 51.265625 25.265625 53.625 
Q 29.59375 56 35.59375 56 
Q 45.5625 56 51.78125 48.09375 
Q 58.015625 40.1875 58.015625 27.296875 
Q 58.015625 14.40625 51.78125 6.484375 
Q 45.5625 -1.421875 35.59375 -1.421875 
Q 29.59375 -1.421875 25.265625 0.953125 
Q 20.953125 3.328125 18.109375 8.203125 
L 18.109375 0 
L 9.078125 0 
L 9.078125 75.984375 
L 18.109375 75.984375 
z
" id="DejaVuSans-98"/>
     </defs>
     <g transform="translate(87.675 71.432813)scale(0.1 -0.1)">
      <use xlink:href="#DejaVuSans-67"/>
      <use x="69.824219" xlink:href="#DejaVuSans-111"/>
      <use x="131.005859" xlink:href="#DejaVuSans-109"/>
      <use x="228.417969" xlink:href="#DejaVuSans-98"/>
      <use x="291.894531" xlink:href="#DejaVuSans-105"/>
      <use x="319.677734" xlink:href="#DejaVuSans-110"/>
      <use x="383.056641" xlink:href="#DejaVuSans-101"/>
      <use x="444.580078" xlink:href="#DejaVuSans-100"/>
     </g>
    </g>
    <g id="line2d_41">
     <path d="M 59.675 82.610938 
L 79.675 82.610938 
" style="fill:none;stroke:#000000;stroke-dasharray:5.55,2.4;stroke-dashoffset:0;stroke-width:1.5;"/>
    </g>
    <g id="line2d_42"/>
    <g id="text_20">
     <!-- Target, Combined -->
     <defs>
      <path d="M 11.71875 12.40625 
L 22.015625 12.40625 
L 22.015625 4 
L 14.015625 -11.625 
L 7.71875 -11.625 
L 11.71875 4 
z
" id="DejaVuSans-44"/>
     </defs>
     <g transform="translate(87.675 86.110938)scale(0.1 -0.1)">
      <use xlink:href="#DejaVuSans-84"/>
      <use x="60.833984" xlink:href="#DejaVuSans-97"/>
      <use x="122.113281" xlink:href="#DejaVuSans-114"/>
      <use x="163.210938" xlink:href="#DejaVuSans-103"/>
      <use x="226.6875" xlink:href="#DejaVuSans-101"/>
      <use x="288.210938" xlink:href="#DejaVuSans-116"/>
      <use x="327.419922" xlink:href="#DejaVuSans-44"/>
      <use x="359.207031" xlink:href="#DejaVuSans-32"/>
      <use x="390.994141" xlink:href="#DejaVuSans-67"/>
      <use x="460.818359" xlink:href="#DejaVuSans-111"/>
      <use x="522" xlink:href="#DejaVuSans-109"/>
      <use x="619.412109" xlink:href="#DejaVuSans-98"/>
      <use x="682.888672" xlink:href="#DejaVuSans-105"/>
      <use x="710.671875" xlink:href="#DejaVuSans-110"/>
      <use x="774.050781" xlink:href="#DejaVuSans-101"/>
      <use x="835.574219" xlink:href="#DejaVuSans-100"/>
     </g>
    </g>
    <g id="line2d_43">
     <path d="M 59.675 97.289062 
L 79.675 97.289062 
" style="fill:none;stroke:#0000ff;stroke-dasharray:5.55,2.4;stroke-dashoffset:0;stroke-width:1.5;"/>
    </g>
    <g id="line2d_44"/>
    <g id="text_21">
     <!-- Target, Radiation -->
     <g transform="translate(87.675 100.789062)scale(0.1 -0.1)">
      <use xlink:href="#DejaVuSans-84"/>
      <use x="60.833984" xlink:href="#DejaVuSans-97"/>
      <use x="122.113281" xlink:href="#DejaVuSans-114"/>
      <use x="163.210938" xlink:href="#DejaVuSans-103"/>
      <use x="226.6875" xlink:href="#DejaVuSans-101"/>
      <use x="288.210938" xlink:href="#DejaVuSans-116"/>
      <use x="327.419922" xlink:href="#DejaVuSans-44"/>
      <use x="359.207031" xlink:href="#DejaVuSans-32"/>
      <use x="390.994141" xlink:href="#DejaVuSans-82"/>
      <use x="460.445312" xlink:href="#DejaVuSans-97"/>
      <use x="521.724609" xlink:href="#DejaVuSans-100"/>
      <use x="585.201172" xlink:href="#DejaVuSans-105"/>
      <use x="612.984375" xlink:href="#DejaVuSans-97"/>
      <use x="674.263672" xlink:href="#DejaVuSans-116"/>
      <use x="713.472656" xlink:href="#DejaVuSans-105"/>
      <use x="741.255859" xlink:href="#DejaVuSans-111"/>
      <use x="802.4375" xlink:href="#DejaVuSans-110"/>
     </g>
    </g>
   </g>
  </g>
 </g>
 <defs>
  <clipPath id="pf502247928">
   <rect height="235.4" width="370.525" x="50.675" y="10.8"/>
  </clipPath>
 </defs>
</svg>
