<?xml version="1.0" encoding="utf-8" standalone="no"?>
<!DOCTYPE svg PUBLIC "-//W3C//DTD SVG 1.1//EN"
  "http://www.w3.org/Graphics/SVG/1.1/DTD/svg11.dtd">
<!-- Created with matplotlib (https://matplotlib.org/) -->
<svg height="288pt" version="1.1" viewBox="0 0 432 288" width="432pt" xmlns="http://www.w3.org/2000/svg" xmlns:xlink="http://www.w3.org/1999/xlink">
 <defs>
  <style type="text/css">
*{stroke-linecap:butt;stroke-linejoin:round;}
  </style>
 </defs>
 <g id="figure_1">
  <g id="patch_1">
   <path d="M 0 288 
L 432 288 
L 432 0 
L 0 0 
z
" style="fill:#ffffff;"/>
  </g>
  <g id="axes_1">
   <g id="patch_2">
    <path d="M 50.675 246.2 
L 421.2 246.2 
L 421.2 10.8 
L 50.675 10.8 
z
" style="fill:#ffffff;"/>
   </g>
   <g id="matplotlib.axis_1">
    <g id="xtick_1">
     <g id="line2d_1">
      <path clip-path="url(#p51f6f99e10)" d="M 67.517045 246.2 
L 67.517045 10.8 
" style="fill:none;stroke:#b0b0b0;stroke-linecap:square;stroke-width:0.8;"/>
     </g>
     <g id="line2d_2">
      <defs>
       <path d="M 0 0 
L 0 3.5 
" id="ma26fcefd29" style="stroke:#000000;stroke-width:0.8;"/>
      </defs>
      <g>
       <use style="stroke:#000000;stroke-width:0.8;" x="67.517045" xlink:href="#ma26fcefd29" y="246.2"/>
      </g>
     </g>
     <g id="text_1">
      <!-- 0 -->
      <defs>
       <path d="M 31.78125 66.40625 
Q 24.171875 66.40625 20.328125 58.90625 
Q 16.5 51.421875 16.5 36.375 
Q 16.5 21.390625 20.328125 13.890625 
Q 24.171875 6.390625 31.78125 6.390625 
Q 39.453125 6.390625 43.28125 13.890625 
Q 47.125 21.390625 47.125 36.375 
Q 47.125 51.421875 43.28125 58.90625 
Q 39.453125 66.40625 31.78125 66.40625 
z
M 31.78125 74.21875 
Q 44.046875 74.21875 50.515625 64.515625 
Q 56.984375 54.828125 56.984375 36.375 
Q 56.984375 17.96875 50.515625 8.265625 
Q 44.046875 -1.421875 31.78125 -1.421875 
Q 19.53125 -1.421875 13.0625 8.265625 
Q 6.59375 17.96875 6.59375 36.375 
Q 6.59375 54.828125 13.0625 64.515625 
Q 19.53125 74.21875 31.78125 74.21875 
z
" id="DejaVuSans-48"/>
      </defs>
      <g transform="translate(64.335795 260.798437)scale(0.1 -0.1)">
       <use xlink:href="#DejaVuSans-48"/>
      </g>
     </g>
    </g>
    <g id="xtick_2">
     <g id="line2d_3">
      <path clip-path="url(#p51f6f99e10)" d="M 123.657197 246.2 
L 123.657197 10.8 
" style="fill:none;stroke:#b0b0b0;stroke-linecap:square;stroke-width:0.8;"/>
     </g>
     <g id="line2d_4">
      <g>
       <use style="stroke:#000000;stroke-width:0.8;" x="123.657197" xlink:href="#ma26fcefd29" y="246.2"/>
      </g>
     </g>
     <g id="text_2">
      <!-- 100 -->
      <defs>
       <path d="M 12.40625 8.296875 
L 28.515625 8.296875 
L 28.515625 63.921875 
L 10.984375 60.40625 
L 10.984375 69.390625 
L 28.421875 72.90625 
L 38.28125 72.90625 
L 38.28125 8.296875 
L 54.390625 8.296875 
L 54.390625 0 
L 12.40625 0 
z
" id="DejaVuSans-49"/>
      </defs>
      <g transform="translate(114.113447 260.798437)scale(0.1 -0.1)">
       <use xlink:href="#DejaVuSans-49"/>
       <use x="63.623047" xlink:href="#DejaVuSans-48"/>
       <use x="127.246094" xlink:href="#DejaVuSans-48"/>
      </g>
     </g>
    </g>
    <g id="xtick_3">
     <g id="line2d_5">
      <path clip-path="url(#p51f6f99e10)" d="M 179.797348 246.2 
L 179.797348 10.8 
" style="fill:none;stroke:#b0b0b0;stroke-linecap:square;stroke-width:0.8;"/>
     </g>
     <g id="line2d_6">
      <g>
       <use style="stroke:#000000;stroke-width:0.8;" x="179.797348" xlink:href="#ma26fcefd29" y="246.2"/>
      </g>
     </g>
     <g id="text_3">
      <!-- 200 -->
      <defs>
       <path d="M 19.1875 8.296875 
L 53.609375 8.296875 
L 53.609375 0 
L 7.328125 0 
L 7.328125 8.296875 
Q 12.9375 14.109375 22.625 23.890625 
Q 32.328125 33.6875 34.8125 36.53125 
Q 39.546875 41.84375 41.421875 45.53125 
Q 43.3125 49.21875 43.3125 52.78125 
Q 43.3125 58.59375 39.234375 62.25 
Q 35.15625 65.921875 28.609375 65.921875 
Q 23.96875 65.921875 18.8125 64.3125 
Q 13.671875 62.703125 7.8125 59.421875 
L 7.8125 69.390625 
Q 13.765625 71.78125 18.9375 73 
Q 24.125 74.21875 28.421875 74.21875 
Q 39.75 74.21875 46.484375 68.546875 
Q 53.21875 62.890625 53.21875 53.421875 
Q 53.21875 48.921875 51.53125 44.890625 
Q 49.859375 40.875 45.40625 35.40625 
Q 44.1875 33.984375 37.640625 27.21875 
Q 31.109375 20.453125 19.1875 8.296875 
z
" id="DejaVuSans-50"/>
      </defs>
      <g transform="translate(170.253598 260.798437)scale(0.1 -0.1)">
       <use xlink:href="#DejaVuSans-50"/>
       <use x="63.623047" xlink:href="#DejaVuSans-48"/>
       <use x="127.246094" xlink:href="#DejaVuSans-48"/>
      </g>
     </g>
    </g>
    <g id="xtick_4">
     <g id="line2d_7">
      <path clip-path="url(#p51f6f99e10)" d="M 235.9375 246.2 
L 235.9375 10.8 
" style="fill:none;stroke:#b0b0b0;stroke-linecap:square;stroke-width:0.8;"/>
     </g>
     <g id="line2d_8">
      <g>
       <use style="stroke:#000000;stroke-width:0.8;" x="235.9375" xlink:href="#ma26fcefd29" y="246.2"/>
      </g>
     </g>
     <g id="text_4">
      <!-- 300 -->
      <defs>
       <path d="M 40.578125 39.3125 
Q 47.65625 37.796875 51.625 33 
Q 55.609375 28.21875 55.609375 21.1875 
Q 55.609375 10.40625 48.1875 4.484375 
Q 40.765625 -1.421875 27.09375 -1.421875 
Q 22.515625 -1.421875 17.65625 -0.515625 
Q 12.796875 0.390625 7.625 2.203125 
L 7.625 11.71875 
Q 11.71875 9.328125 16.59375 8.109375 
Q 21.484375 6.890625 26.8125 6.890625 
Q 36.078125 6.890625 40.9375 10.546875 
Q 45.796875 14.203125 45.796875 21.1875 
Q 45.796875 27.640625 41.28125 31.265625 
Q 36.765625 34.90625 28.71875 34.90625 
L 20.21875 34.90625 
L 20.21875 43.015625 
L 29.109375 43.015625 
Q 36.375 43.015625 40.234375 45.921875 
Q 44.09375 48.828125 44.09375 54.296875 
Q 44.09375 59.90625 40.109375 62.90625 
Q 36.140625 65.921875 28.71875 65.921875 
Q 24.65625 65.921875 20.015625 65.03125 
Q 15.375 64.15625 9.8125 62.3125 
L 9.8125 71.09375 
Q 15.4375 72.65625 20.34375 73.4375 
Q 25.25 74.21875 29.59375 74.21875 
Q 40.828125 74.21875 47.359375 69.109375 
Q 53.90625 64.015625 53.90625 55.328125 
Q 53.90625 49.265625 50.4375 45.09375 
Q 46.96875 40.921875 40.578125 39.3125 
z
" id="DejaVuSans-51"/>
      </defs>
      <g transform="translate(226.39375 260.798437)scale(0.1 -0.1)">
       <use xlink:href="#DejaVuSans-51"/>
       <use x="63.623047" xlink:href="#DejaVuSans-48"/>
       <use x="127.246094" xlink:href="#DejaVuSans-48"/>
      </g>
     </g>
    </g>
    <g id="xtick_5">
     <g id="line2d_9">
      <path clip-path="url(#p51f6f99e10)" d="M 292.077652 246.2 
L 292.077652 10.8 
" style="fill:none;stroke:#b0b0b0;stroke-linecap:square;stroke-width:0.8;"/>
     </g>
     <g id="line2d_10">
      <g>
       <use style="stroke:#000000;stroke-width:0.8;" x="292.077652" xlink:href="#ma26fcefd29" y="246.2"/>
      </g>
     </g>
     <g id="text_5">
      <!-- 400 -->
      <defs>
       <path d="M 37.796875 64.3125 
L 12.890625 25.390625 
L 37.796875 25.390625 
z
M 35.203125 72.90625 
L 47.609375 72.90625 
L 47.609375 25.390625 
L 58.015625 25.390625 
L 58.015625 17.1875 
L 47.609375 17.1875 
L 47.609375 0 
L 37.796875 0 
L 37.796875 17.1875 
L 4.890625 17.1875 
L 4.890625 26.703125 
z
" id="DejaVuSans-52"/>
      </defs>
      <g transform="translate(282.533902 260.798437)scale(0.1 -0.1)">
       <use xlink:href="#DejaVuSans-52"/>
       <use x="63.623047" xlink:href="#DejaVuSans-48"/>
       <use x="127.246094" xlink:href="#DejaVuSans-48"/>
      </g>
     </g>
    </g>
    <g id="xtick_6">
     <g id="line2d_11">
      <path clip-path="url(#p51f6f99e10)" d="M 348.217803 246.2 
L 348.217803 10.8 
" style="fill:none;stroke:#b0b0b0;stroke-linecap:square;stroke-width:0.8;"/>
     </g>
     <g id="line2d_12">
      <g>
       <use style="stroke:#000000;stroke-width:0.8;" x="348.217803" xlink:href="#ma26fcefd29" y="246.2"/>
      </g>
     </g>
     <g id="text_6">
      <!-- 500 -->
      <defs>
       <path d="M 10.796875 72.90625 
L 49.515625 72.90625 
L 49.515625 64.59375 
L 19.828125 64.59375 
L 19.828125 46.734375 
Q 21.96875 47.46875 24.109375 47.828125 
Q 26.265625 48.1875 28.421875 48.1875 
Q 40.625 48.1875 47.75 41.5 
Q 54.890625 34.8125 54.890625 23.390625 
Q 54.890625 11.625 47.5625 5.09375 
Q 40.234375 -1.421875 26.90625 -1.421875 
Q 22.3125 -1.421875 17.546875 -0.640625 
Q 12.796875 0.140625 7.71875 1.703125 
L 7.71875 11.625 
Q 12.109375 9.234375 16.796875 8.0625 
Q 21.484375 6.890625 26.703125 6.890625 
Q 35.15625 6.890625 40.078125 11.328125 
Q 45.015625 15.765625 45.015625 23.390625 
Q 45.015625 31 40.078125 35.4375 
Q 35.15625 39.890625 26.703125 39.890625 
Q 22.75 39.890625 18.8125 39.015625 
Q 14.890625 38.140625 10.796875 36.28125 
z
" id="DejaVuSans-53"/>
      </defs>
      <g transform="translate(338.674053 260.798437)scale(0.1 -0.1)">
       <use xlink:href="#DejaVuSans-53"/>
       <use x="63.623047" xlink:href="#DejaVuSans-48"/>
       <use x="127.246094" xlink:href="#DejaVuSans-48"/>
      </g>
     </g>
    </g>
    <g id="xtick_7">
     <g id="line2d_13">
      <path clip-path="url(#p51f6f99e10)" d="M 404.357955 246.2 
L 404.357955 10.8 
" style="fill:none;stroke:#b0b0b0;stroke-linecap:square;stroke-width:0.8;"/>
     </g>
     <g id="line2d_14">
      <g>
       <use style="stroke:#000000;stroke-width:0.8;" x="404.357955" xlink:href="#ma26fcefd29" y="246.2"/>
      </g>
     </g>
     <g id="text_7">
      <!-- 600 -->
      <defs>
       <path d="M 33.015625 40.375 
Q 26.375 40.375 22.484375 35.828125 
Q 18.609375 31.296875 18.609375 23.390625 
Q 18.609375 15.53125 22.484375 10.953125 
Q 26.375 6.390625 33.015625 6.390625 
Q 39.65625 6.390625 43.53125 10.953125 
Q 47.40625 15.53125 47.40625 23.390625 
Q 47.40625 31.296875 43.53125 35.828125 
Q 39.65625 40.375 33.015625 40.375 
z
M 52.59375 71.296875 
L 52.59375 62.3125 
Q 48.875 64.0625 45.09375 64.984375 
Q 41.3125 65.921875 37.59375 65.921875 
Q 27.828125 65.921875 22.671875 59.328125 
Q 17.53125 52.734375 16.796875 39.40625 
Q 19.671875 43.65625 24.015625 45.921875 
Q 28.375 48.1875 33.59375 48.1875 
Q 44.578125 48.1875 50.953125 41.515625 
Q 57.328125 34.859375 57.328125 23.390625 
Q 57.328125 12.15625 50.6875 5.359375 
Q 44.046875 -1.421875 33.015625 -1.421875 
Q 20.359375 -1.421875 13.671875 8.265625 
Q 6.984375 17.96875 6.984375 36.375 
Q 6.984375 53.65625 15.1875 63.9375 
Q 23.390625 74.21875 37.203125 74.21875 
Q 40.921875 74.21875 44.703125 73.484375 
Q 48.484375 72.75 52.59375 71.296875 
z
" id="DejaVuSans-54"/>
      </defs>
      <g transform="translate(394.814205 260.798437)scale(0.1 -0.1)">
       <use xlink:href="#DejaVuSans-54"/>
       <use x="63.623047" xlink:href="#DejaVuSans-48"/>
       <use x="127.246094" xlink:href="#DejaVuSans-48"/>
      </g>
     </g>
    </g>
    <g id="text_8">
     <!-- Time / s -->
     <defs>
      <path d="M -0.296875 72.90625 
L 61.375 72.90625 
L 61.375 64.59375 
L 35.5 64.59375 
L 35.5 0 
L 25.59375 0 
L 25.59375 64.59375 
L -0.296875 64.59375 
z
" id="DejaVuSans-84"/>
      <path d="M 9.421875 54.6875 
L 18.40625 54.6875 
L 18.40625 0 
L 9.421875 0 
z
M 9.421875 75.984375 
L 18.40625 75.984375 
L 18.40625 64.59375 
L 9.421875 64.59375 
z
" id="DejaVuSans-105"/>
      <path d="M 52 44.1875 
Q 55.375 50.25 60.0625 53.125 
Q 64.75 56 71.09375 56 
Q 79.640625 56 84.28125 50.015625 
Q 88.921875 44.046875 88.921875 33.015625 
L 88.921875 0 
L 79.890625 0 
L 79.890625 32.71875 
Q 79.890625 40.578125 77.09375 44.375 
Q 74.3125 48.1875 68.609375 48.1875 
Q 61.625 48.1875 57.5625 43.546875 
Q 53.515625 38.921875 53.515625 30.90625 
L 53.515625 0 
L 44.484375 0 
L 44.484375 32.71875 
Q 44.484375 40.625 41.703125 44.40625 
Q 38.921875 48.1875 33.109375 48.1875 
Q 26.21875 48.1875 22.15625 43.53125 
Q 18.109375 38.875 18.109375 30.90625 
L 18.109375 0 
L 9.078125 0 
L 9.078125 54.6875 
L 18.109375 54.6875 
L 18.109375 46.1875 
Q 21.1875 51.21875 25.484375 53.609375 
Q 29.78125 56 35.6875 56 
Q 41.65625 56 45.828125 52.96875 
Q 50 49.953125 52 44.1875 
z
" id="DejaVuSans-109"/>
      <path d="M 56.203125 29.59375 
L 56.203125 25.203125 
L 14.890625 25.203125 
Q 15.484375 15.921875 20.484375 11.0625 
Q 25.484375 6.203125 34.421875 6.203125 
Q 39.59375 6.203125 44.453125 7.46875 
Q 49.3125 8.734375 54.109375 11.28125 
L 54.109375 2.78125 
Q 49.265625 0.734375 44.1875 -0.34375 
Q 39.109375 -1.421875 33.890625 -1.421875 
Q 20.796875 -1.421875 13.15625 6.1875 
Q 5.515625 13.8125 5.515625 26.8125 
Q 5.515625 40.234375 12.765625 48.109375 
Q 20.015625 56 32.328125 56 
Q 43.359375 56 49.78125 48.890625 
Q 56.203125 41.796875 56.203125 29.59375 
z
M 47.21875 32.234375 
Q 47.125 39.59375 43.09375 43.984375 
Q 39.0625 48.390625 32.421875 48.390625 
Q 24.90625 48.390625 20.390625 44.140625 
Q 15.875 39.890625 15.1875 32.171875 
z
" id="DejaVuSans-101"/>
      <path id="DejaVuSans-32"/>
      <path d="M 25.390625 72.90625 
L 33.6875 72.90625 
L 8.296875 -9.28125 
L 0 -9.28125 
z
" id="DejaVuSans-47"/>
      <path d="M 44.28125 53.078125 
L 44.28125 44.578125 
Q 40.484375 46.53125 36.375 47.5 
Q 32.28125 48.484375 27.875 48.484375 
Q 21.1875 48.484375 17.84375 46.4375 
Q 14.5 44.390625 14.5 40.28125 
Q 14.5 37.15625 16.890625 35.375 
Q 19.28125 33.59375 26.515625 31.984375 
L 29.59375 31.296875 
Q 39.15625 29.25 43.1875 25.515625 
Q 47.21875 21.78125 47.21875 15.09375 
Q 47.21875 7.46875 41.1875 3.015625 
Q 35.15625 -1.421875 24.609375 -1.421875 
Q 20.21875 -1.421875 15.453125 -0.5625 
Q 10.6875 0.296875 5.421875 2 
L 5.421875 11.28125 
Q 10.40625 8.6875 15.234375 7.390625 
Q 20.0625 6.109375 24.8125 6.109375 
Q 31.15625 6.109375 34.5625 8.28125 
Q 37.984375 10.453125 37.984375 14.40625 
Q 37.984375 18.0625 35.515625 20.015625 
Q 33.0625 21.96875 24.703125 23.78125 
L 21.578125 24.515625 
Q 13.234375 26.265625 9.515625 29.90625 
Q 5.8125 33.546875 5.8125 39.890625 
Q 5.8125 47.609375 11.28125 51.796875 
Q 16.75 56 26.8125 56 
Q 31.78125 56 36.171875 55.265625 
Q 40.578125 54.546875 44.28125 53.078125 
z
" id="DejaVuSans-115"/>
     </defs>
     <g transform="translate(216.082812 274.476562)scale(0.1 -0.1)">
      <use xlink:href="#DejaVuSans-84"/>
      <use x="61.037109" xlink:href="#DejaVuSans-105"/>
      <use x="88.820312" xlink:href="#DejaVuSans-109"/>
      <use x="186.232422" xlink:href="#DejaVuSans-101"/>
      <use x="247.755859" xlink:href="#DejaVuSans-32"/>
      <use x="279.542969" xlink:href="#DejaVuSans-47"/>
      <use x="313.234375" xlink:href="#DejaVuSans-32"/>
      <use x="345.021484" xlink:href="#DejaVuSans-115"/>
     </g>
    </g>
   </g>
   <g id="matplotlib.axis_2">
    <g id="ytick_1">
     <g id="line2d_15">
      <path clip-path="url(#p51f6f99e10)" d="M 50.675 235.5 
L 421.2 235.5 
" style="fill:none;stroke:#b0b0b0;stroke-linecap:square;stroke-width:0.8;"/>
     </g>
     <g id="line2d_16">
      <defs>
       <path d="M 0 0 
L -3.5 0 
" id="m599eb76ea4" style="stroke:#000000;stroke-width:0.8;"/>
      </defs>
      <g>
       <use style="stroke:#000000;stroke-width:0.8;" x="50.675" xlink:href="#m599eb76ea4" y="235.5"/>
      </g>
     </g>
     <g id="text_9">
      <!-- 0 -->
      <g transform="translate(37.3125 239.299219)scale(0.1 -0.1)">
       <use xlink:href="#DejaVuSans-48"/>
      </g>
     </g>
    </g>
    <g id="ytick_2">
     <g id="line2d_17">
      <path clip-path="url(#p51f6f99e10)" d="M 50.675 193.746791 
L 421.2 193.746791 
" style="fill:none;stroke:#b0b0b0;stroke-linecap:square;stroke-width:0.8;"/>
     </g>
     <g id="line2d_18">
      <g>
       <use style="stroke:#000000;stroke-width:0.8;" x="50.675" xlink:href="#m599eb76ea4" y="193.746791"/>
      </g>
     </g>
     <g id="text_10">
      <!-- 20 -->
      <g transform="translate(30.95 197.546009)scale(0.1 -0.1)">
       <use xlink:href="#DejaVuSans-50"/>
       <use x="63.623047" xlink:href="#DejaVuSans-48"/>
      </g>
     </g>
    </g>
    <g id="ytick_3">
     <g id="line2d_19">
      <path clip-path="url(#p51f6f99e10)" d="M 50.675 151.993581 
L 421.2 151.993581 
" style="fill:none;stroke:#b0b0b0;stroke-linecap:square;stroke-width:0.8;"/>
     </g>
     <g id="line2d_20">
      <g>
       <use style="stroke:#000000;stroke-width:0.8;" x="50.675" xlink:href="#m599eb76ea4" y="151.993581"/>
      </g>
     </g>
     <g id="text_11">
      <!-- 40 -->
      <g transform="translate(30.95 155.7928)scale(0.1 -0.1)">
       <use xlink:href="#DejaVuSans-52"/>
       <use x="63.623047" xlink:href="#DejaVuSans-48"/>
      </g>
     </g>
    </g>
    <g id="ytick_4">
     <g id="line2d_21">
      <path clip-path="url(#p51f6f99e10)" d="M 50.675 110.240372 
L 421.2 110.240372 
" style="fill:none;stroke:#b0b0b0;stroke-linecap:square;stroke-width:0.8;"/>
     </g>
     <g id="line2d_22">
      <g>
       <use style="stroke:#000000;stroke-width:0.8;" x="50.675" xlink:href="#m599eb76ea4" y="110.240372"/>
      </g>
     </g>
     <g id="text_12">
      <!-- 60 -->
      <g transform="translate(30.95 114.03959)scale(0.1 -0.1)">
       <use xlink:href="#DejaVuSans-54"/>
       <use x="63.623047" xlink:href="#DejaVuSans-48"/>
      </g>
     </g>
    </g>
    <g id="ytick_5">
     <g id="line2d_23">
      <path clip-path="url(#p51f6f99e10)" d="M 50.675 68.487162 
L 421.2 68.487162 
" style="fill:none;stroke:#b0b0b0;stroke-linecap:square;stroke-width:0.8;"/>
     </g>
     <g id="line2d_24">
      <g>
       <use style="stroke:#000000;stroke-width:0.8;" x="50.675" xlink:href="#m599eb76ea4" y="68.487162"/>
      </g>
     </g>
     <g id="text_13">
      <!-- 80 -->
      <defs>
       <path d="M 31.78125 34.625 
Q 24.75 34.625 20.71875 30.859375 
Q 16.703125 27.09375 16.703125 20.515625 
Q 16.703125 13.921875 20.71875 10.15625 
Q 24.75 6.390625 31.78125 6.390625 
Q 38.8125 6.390625 42.859375 10.171875 
Q 46.921875 13.96875 46.921875 20.515625 
Q 46.921875 27.09375 42.890625 30.859375 
Q 38.875 34.625 31.78125 34.625 
z
M 21.921875 38.8125 
Q 15.578125 40.375 12.03125 44.71875 
Q 8.5 49.078125 8.5 55.328125 
Q 8.5 64.0625 14.71875 69.140625 
Q 20.953125 74.21875 31.78125 74.21875 
Q 42.671875 74.21875 48.875 69.140625 
Q 55.078125 64.0625 55.078125 55.328125 
Q 55.078125 49.078125 51.53125 44.71875 
Q 48 40.375 41.703125 38.8125 
Q 48.828125 37.15625 52.796875 32.3125 
Q 56.78125 27.484375 56.78125 20.515625 
Q 56.78125 9.90625 50.3125 4.234375 
Q 43.84375 -1.421875 31.78125 -1.421875 
Q 19.734375 -1.421875 13.25 4.234375 
Q 6.78125 9.90625 6.78125 20.515625 
Q 6.78125 27.484375 10.78125 32.3125 
Q 14.796875 37.15625 21.921875 38.8125 
z
M 18.3125 54.390625 
Q 18.3125 48.734375 21.84375 45.5625 
Q 25.390625 42.390625 31.78125 42.390625 
Q 38.140625 42.390625 41.71875 45.5625 
Q 45.3125 48.734375 45.3125 54.390625 
Q 45.3125 60.0625 41.71875 63.234375 
Q 38.140625 66.40625 31.78125 66.40625 
Q 25.390625 66.40625 21.84375 63.234375 
Q 18.3125 60.0625 18.3125 54.390625 
z
" id="DejaVuSans-56"/>
      </defs>
      <g transform="translate(30.95 72.286381)scale(0.1 -0.1)">
       <use xlink:href="#DejaVuSans-56"/>
       <use x="63.623047" xlink:href="#DejaVuSans-48"/>
      </g>
     </g>
    </g>
    <g id="ytick_6">
     <g id="line2d_25">
      <path clip-path="url(#p51f6f99e10)" d="M 50.675 26.733953 
L 421.2 26.733953 
" style="fill:none;stroke:#b0b0b0;stroke-linecap:square;stroke-width:0.8;"/>
     </g>
     <g id="line2d_26">
      <g>
       <use style="stroke:#000000;stroke-width:0.8;" x="50.675" xlink:href="#m599eb76ea4" y="26.733953"/>
      </g>
     </g>
     <g id="text_14">
      <!-- 100 -->
      <g transform="translate(24.5875 30.533171)scale(0.1 -0.1)">
       <use xlink:href="#DejaVuSans-49"/>
       <use x="63.623047" xlink:href="#DejaVuSans-48"/>
       <use x="127.246094" xlink:href="#DejaVuSans-48"/>
      </g>
     </g>
    </g>
    <g id="text_15">
     <!-- Energy Release Rate / kW -->
     <defs>
      <path d="M 9.8125 72.90625 
L 55.90625 72.90625 
L 55.90625 64.59375 
L 19.671875 64.59375 
L 19.671875 43.015625 
L 54.390625 43.015625 
L 54.390625 34.71875 
L 19.671875 34.71875 
L 19.671875 8.296875 
L 56.78125 8.296875 
L 56.78125 0 
L 9.8125 0 
z
" id="DejaVuSans-69"/>
      <path d="M 54.890625 33.015625 
L 54.890625 0 
L 45.90625 0 
L 45.90625 32.71875 
Q 45.90625 40.484375 42.875 44.328125 
Q 39.84375 48.1875 33.796875 48.1875 
Q 26.515625 48.1875 22.3125 43.546875 
Q 18.109375 38.921875 18.109375 30.90625 
L 18.109375 0 
L 9.078125 0 
L 9.078125 54.6875 
L 18.109375 54.6875 
L 18.109375 46.1875 
Q 21.34375 51.125 25.703125 53.5625 
Q 30.078125 56 35.796875 56 
Q 45.21875 56 50.046875 50.171875 
Q 54.890625 44.34375 54.890625 33.015625 
z
" id="DejaVuSans-110"/>
      <path d="M 41.109375 46.296875 
Q 39.59375 47.171875 37.8125 47.578125 
Q 36.03125 48 33.890625 48 
Q 26.265625 48 22.1875 43.046875 
Q 18.109375 38.09375 18.109375 28.8125 
L 18.109375 0 
L 9.078125 0 
L 9.078125 54.6875 
L 18.109375 54.6875 
L 18.109375 46.1875 
Q 20.953125 51.171875 25.484375 53.578125 
Q 30.03125 56 36.53125 56 
Q 37.453125 56 38.578125 55.875 
Q 39.703125 55.765625 41.0625 55.515625 
z
" id="DejaVuSans-114"/>
      <path d="M 45.40625 27.984375 
Q 45.40625 37.75 41.375 43.109375 
Q 37.359375 48.484375 30.078125 48.484375 
Q 22.859375 48.484375 18.828125 43.109375 
Q 14.796875 37.75 14.796875 27.984375 
Q 14.796875 18.265625 18.828125 12.890625 
Q 22.859375 7.515625 30.078125 7.515625 
Q 37.359375 7.515625 41.375 12.890625 
Q 45.40625 18.265625 45.40625 27.984375 
z
M 54.390625 6.78125 
Q 54.390625 -7.171875 48.1875 -13.984375 
Q 42 -20.796875 29.203125 -20.796875 
Q 24.46875 -20.796875 20.265625 -20.09375 
Q 16.0625 -19.390625 12.109375 -17.921875 
L 12.109375 -9.1875 
Q 16.0625 -11.328125 19.921875 -12.34375 
Q 23.78125 -13.375 27.78125 -13.375 
Q 36.625 -13.375 41.015625 -8.765625 
Q 45.40625 -4.15625 45.40625 5.171875 
L 45.40625 9.625 
Q 42.625 4.78125 38.28125 2.390625 
Q 33.9375 0 27.875 0 
Q 17.828125 0 11.671875 7.65625 
Q 5.515625 15.328125 5.515625 27.984375 
Q 5.515625 40.671875 11.671875 48.328125 
Q 17.828125 56 27.875 56 
Q 33.9375 56 38.28125 53.609375 
Q 42.625 51.21875 45.40625 46.390625 
L 45.40625 54.6875 
L 54.390625 54.6875 
z
" id="DejaVuSans-103"/>
      <path d="M 32.171875 -5.078125 
Q 28.375 -14.84375 24.75 -17.8125 
Q 21.140625 -20.796875 15.09375 -20.796875 
L 7.90625 -20.796875 
L 7.90625 -13.28125 
L 13.1875 -13.28125 
Q 16.890625 -13.28125 18.9375 -11.515625 
Q 21 -9.765625 23.484375 -3.21875 
L 25.09375 0.875 
L 2.984375 54.6875 
L 12.5 54.6875 
L 29.59375 11.921875 
L 46.6875 54.6875 
L 56.203125 54.6875 
z
" id="DejaVuSans-121"/>
      <path d="M 44.390625 34.1875 
Q 47.5625 33.109375 50.5625 29.59375 
Q 53.5625 26.078125 56.59375 19.921875 
L 66.609375 0 
L 56 0 
L 46.6875 18.703125 
Q 43.0625 26.03125 39.671875 28.421875 
Q 36.28125 30.8125 30.421875 30.8125 
L 19.671875 30.8125 
L 19.671875 0 
L 9.8125 0 
L 9.8125 72.90625 
L 32.078125 72.90625 
Q 44.578125 72.90625 50.734375 67.671875 
Q 56.890625 62.453125 56.890625 51.90625 
Q 56.890625 45.015625 53.6875 40.46875 
Q 50.484375 35.9375 44.390625 34.1875 
z
M 19.671875 64.796875 
L 19.671875 38.921875 
L 32.078125 38.921875 
Q 39.203125 38.921875 42.84375 42.21875 
Q 46.484375 45.515625 46.484375 51.90625 
Q 46.484375 58.296875 42.84375 61.546875 
Q 39.203125 64.796875 32.078125 64.796875 
z
" id="DejaVuSans-82"/>
      <path d="M 9.421875 75.984375 
L 18.40625 75.984375 
L 18.40625 0 
L 9.421875 0 
z
" id="DejaVuSans-108"/>
      <path d="M 34.28125 27.484375 
Q 23.390625 27.484375 19.1875 25 
Q 14.984375 22.515625 14.984375 16.5 
Q 14.984375 11.71875 18.140625 8.90625 
Q 21.296875 6.109375 26.703125 6.109375 
Q 34.1875 6.109375 38.703125 11.40625 
Q 43.21875 16.703125 43.21875 25.484375 
L 43.21875 27.484375 
z
M 52.203125 31.203125 
L 52.203125 0 
L 43.21875 0 
L 43.21875 8.296875 
Q 40.140625 3.328125 35.546875 0.953125 
Q 30.953125 -1.421875 24.3125 -1.421875 
Q 15.921875 -1.421875 10.953125 3.296875 
Q 6 8.015625 6 15.921875 
Q 6 25.140625 12.171875 29.828125 
Q 18.359375 34.515625 30.609375 34.515625 
L 43.21875 34.515625 
L 43.21875 35.40625 
Q 43.21875 41.609375 39.140625 45 
Q 35.0625 48.390625 27.6875 48.390625 
Q 23 48.390625 18.546875 47.265625 
Q 14.109375 46.140625 10.015625 43.890625 
L 10.015625 52.203125 
Q 14.9375 54.109375 19.578125 55.046875 
Q 24.21875 56 28.609375 56 
Q 40.484375 56 46.34375 49.84375 
Q 52.203125 43.703125 52.203125 31.203125 
z
" id="DejaVuSans-97"/>
      <path d="M 18.3125 70.21875 
L 18.3125 54.6875 
L 36.8125 54.6875 
L 36.8125 47.703125 
L 18.3125 47.703125 
L 18.3125 18.015625 
Q 18.3125 11.328125 20.140625 9.421875 
Q 21.96875 7.515625 27.59375 7.515625 
L 36.8125 7.515625 
L 36.8125 0 
L 27.59375 0 
Q 17.1875 0 13.234375 3.875 
Q 9.28125 7.765625 9.28125 18.015625 
L 9.28125 47.703125 
L 2.6875 47.703125 
L 2.6875 54.6875 
L 9.28125 54.6875 
L 9.28125 70.21875 
z
" id="DejaVuSans-116"/>
      <path d="M 9.078125 75.984375 
L 18.109375 75.984375 
L 18.109375 31.109375 
L 44.921875 54.6875 
L 56.390625 54.6875 
L 27.390625 29.109375 
L 57.625 0 
L 45.90625 0 
L 18.109375 26.703125 
L 18.109375 0 
L 9.078125 0 
z
" id="DejaVuSans-107"/>
      <path d="M 3.328125 72.90625 
L 13.28125 72.90625 
L 28.609375 11.28125 
L 43.890625 72.90625 
L 54.984375 72.90625 
L 70.3125 11.28125 
L 85.59375 72.90625 
L 95.609375 72.90625 
L 77.296875 0 
L 64.890625 0 
L 49.515625 63.28125 
L 33.984375 0 
L 21.578125 0 
z
" id="DejaVuSans-87"/>
     </defs>
     <g transform="translate(18.507813 193.304688)rotate(-90)scale(0.1 -0.1)">
      <use xlink:href="#DejaVuSans-69"/>
      <use x="63.183594" xlink:href="#DejaVuSans-110"/>
      <use x="126.5625" xlink:href="#DejaVuSans-101"/>
      <use x="188.085938" xlink:href="#DejaVuSans-114"/>
      <use x="229.183594" xlink:href="#DejaVuSans-103"/>
      <use x="292.660156" xlink:href="#DejaVuSans-121"/>
      <use x="351.839844" xlink:href="#DejaVuSans-32"/>
      <use x="383.626953" xlink:href="#DejaVuSans-82"/>
      <use x="453.046875" xlink:href="#DejaVuSans-101"/>
      <use x="514.570312" xlink:href="#DejaVuSans-108"/>
      <use x="542.353516" xlink:href="#DejaVuSans-101"/>
      <use x="603.876953" xlink:href="#DejaVuSans-97"/>
      <use x="665.15625" xlink:href="#DejaVuSans-115"/>
      <use x="717.255859" xlink:href="#DejaVuSans-101"/>
      <use x="778.779297" xlink:href="#DejaVuSans-32"/>
      <use x="810.566406" xlink:href="#DejaVuSans-82"/>
      <use x="880.017578" xlink:href="#DejaVuSans-97"/>
      <use x="941.296875" xlink:href="#DejaVuSans-116"/>
      <use x="980.505859" xlink:href="#DejaVuSans-101"/>
      <use x="1042.029297" xlink:href="#DejaVuSans-32"/>
      <use x="1073.816406" xlink:href="#DejaVuSans-47"/>
      <use x="1107.507812" xlink:href="#DejaVuSans-32"/>
      <use x="1139.294922" xlink:href="#DejaVuSans-107"/>
      <use x="1197.205078" xlink:href="#DejaVuSans-87"/>
     </g>
    </g>
   </g>
   <g id="line2d_27">
    <path clip-path="url(#p51f6f99e10)" d="M 67.517045 235.5 
L 68.090839 127.791707 
L 68.64206 79.903009 
L 69.203377 50.659312 
L 69.770204 41.016949 
L 70.332673 57.349398 
L 70.89343 29.909458 
L 71.448962 50.370474 
L 72.01046 49.02901 
L 72.571993 48.234338 
L 73.133445 33.404479 
L 74.256996 50.38615 
L 74.81548 39.94637 
L 75.385022 34.263879 
L 75.940404 47.366804 
L 76.500585 48.673669 
L 77.062813 43.666462 
L 77.631064 27.098515 
L 78.193172 61.455233 
L 78.74883 35.195483 
L 79.310078 46.308392 
L 79.875212 36.067096 
L 80.430999 44.225376 
L 81.552247 39.922303 
L 82.118383 50.785584 
L 82.68247 41.005223 
L 83.238947 51.282917 
L 83.803312 37.908878 
L 84.361454 47.053398 
L 84.930798 48.289673 
L 86.044326 35.792572 
L 86.606922 40.105282 
L 87.174205 56.957782 
L 87.736041 37.380785 
L 88.298688 45.041683 
L 88.855109 30.987457 
L 89.419851 52.084637 
L 89.978775 61.00968 
L 90.541211 24.905267 
L 91.101205 46.751097 
L 91.661559 56.009195 
L 92.226461 31.623036 
L 92.790108 53.019763 
L 93.344875 43.839669 
L 93.905566 50.227139 
L 94.475643 24.158469 
L 95.03371 55.910486 
L 95.595103 61.599091 
L 96.16006 37.065306 
L 96.715171 29.835408 
L 97.272185 45.217209 
L 97.833845 47.417973 
L 98.404076 42.737593 
L 98.958811 41.912372 
L 99.519611 49.42848 
L 100.089427 46.484563 
L 100.644277 39.189685 
L 101.20628 56.248952 
L 101.772404 31.621306 
L 102.329822 44.525532 
L 102.888671 49.450634 
L 103.455857 45.170208 
L 104.013965 33.00059 
L 104.576043 53.260247 
L 105.133508 47.207269 
L 106.255755 37.49565 
L 106.820801 39.562123 
L 107.386289 56.273609 
L 107.942148 33.991871 
L 108.504839 49.501723 
L 109.064025 44.703891 
L 109.625187 46.941491 
L 110.192264 44.043948 
L 110.74799 40.434811 
L 111.315632 48.165865 
L 111.873316 32.610615 
L 112.431801 50.607043 
L 112.996993 53.041088 
L 113.560763 39.562161 
L 114.118738 51.114554 
L 114.676276 36.429008 
L 116.364048 51.106986 
L 116.929446 43.417283 
L 117.485361 49.378605 
L 118.051748 39.556489 
L 118.609894 42.299317 
L 119.167518 47.940688 
L 119.73737 40.870516 
L 120.293375 48.290179 
L 120.860413 37.020946 
L 121.41904 56.373974 
L 121.977044 26.254334 
L 122.541436 65.043157 
L 123.097573 34.789063 
L 123.658 45.610247 
L 124.218851 43.722465 
L 124.783065 41.206838 
L 125.341699 48.673676 
L 125.91279 43.027226 
L 126.473591 46.251017 
L 127.030086 48.322475 
L 127.594514 36.150978 
L 128.154113 52.650383 
L 128.721005 44.516298 
L 129.271661 40.962371 
L 129.835937 44.341087 
L 130.404957 51.002647 
L 130.957853 50.269201 
L 131.516947 37.296032 
L 132.080213 44.597863 
L 132.639851 42.649888 
L 133.204402 43.403953 
L 133.768981 47.754685 
L 134.323921 43.513883 
L 134.892829 36.874502 
L 135.447684 46.545458 
L 136.011707 54.410731 
L 136.580564 44.80104 
L 137.132158 53.834548 
L 137.70138 23.672002 
L 138.257785 50.621296 
L 138.818311 51.818932 
L 139.383704 49.117099 
L 139.938481 43.187343 
L 140.506406 32.130841 
L 141.062676 52.883731 
L 141.627205 44.65194 
L 142.187977 44.776201 
L 143.312493 34.954567 
L 143.8776 54.701724 
L 144.436396 50.63397 
L 144.998455 40.959198 
L 145.556723 46.801159 
L 146.1157 37.338708 
L 146.676792 53.832157 
L 147.239496 32.191356 
L 147.801263 50.500224 
L 148.362889 39.622607 
L 148.925121 48.763217 
L 149.492238 39.410864 
L 150.050529 54.624593 
L 151.174966 40.922808 
L 151.728205 38.922871 
L 152.29499 47.071818 
L 152.85327 45.34854 
L 153.412482 54.239604 
L 153.973176 32.214955 
L 154.539395 45.58789 
L 155.102407 47.745015 
L 155.658936 28.458185 
L 156.2285 45.574888 
L 156.780908 47.460874 
L 157.351713 39.428024 
L 158.473309 55.347037 
L 159.036473 37.36951 
L 159.587613 53.124785 
L 160.151361 34.534901 
L 160.711965 51.861326 
L 161.272811 52.544033 
L 161.842257 48.836056 
L 162.399128 29.28399 
L 163.518282 49.045937 
L 164.082395 43.087169 
L 164.643583 44.5103 
L 165.211598 43.265395 
L 165.767919 42.553983 
L 166.330438 43.266073 
L 166.886989 41.798135 
L 167.457726 54.85175 
L 168.014216 42.701852 
L 168.57642 46.606092 
L 169.133875 47.049605 
L 169.696113 38.622461 
L 170.259154 43.397727 
L 170.824782 49.202035 
L 171.38706 40.146495 
L 171.944997 51.975883 
L 172.506871 40.713946 
L 173.060777 43.961438 
L 173.628135 38.792234 
L 174.186073 42.806515 
L 174.744746 61.49333 
L 175.315618 32.505703 
L 175.874735 35.273906 
L 176.43603 59.218835 
L 176.992362 40.920374 
L 177.556284 48.84753 
L 178.11832 47.14393 
L 178.678256 35.183462 
L 179.239546 43.391671 
L 179.800374 41.879785 
L 180.363387 50.078285 
L 180.928544 40.463001 
L 181.483226 62.04497 
L 182.053851 35.39232 
L 182.605557 58.166796 
L 183.174313 35.182406 
L 183.734979 44.271319 
L 184.28869 31.136144 
L 184.855307 61.772945 
L 185.41307 43.529824 
L 185.97788 33.729622 
L 186.543828 50.830874 
L 187.102198 44.395055 
L 187.658912 43.268775 
L 188.223065 45.389679 
L 188.786128 46.869187 
L 189.345929 39.485913 
L 189.910626 53.789128 
L 190.474487 37.475216 
L 191.035467 33.550991 
L 191.588504 56.905373 
L 192.149001 46.363491 
L 192.713182 43.19121 
L 193.273101 41.926267 
L 193.83612 41.846769 
L 194.399329 49.710969 
L 194.968697 40.876882 
L 195.527898 54.355135 
L 196.086413 35.960955 
L 196.648635 47.409286 
L 197.21176 47.342861 
L 197.763926 44.477023 
L 198.325777 34.667025 
L 198.885589 49.007077 
L 199.453587 44.495056 
L 200.017105 34.65686 
L 200.573965 52.212696 
L 201.132953 41.014671 
L 201.692232 44.607082 
L 202.261196 44.113908 
L 202.825247 43.873271 
L 203.377088 51.039189 
L 203.945047 34.403898 
L 204.504393 57.02096 
L 205.073969 38.015891 
L 205.629869 39.560881 
L 206.193493 48.645822 
L 206.75394 40.25016 
L 207.308201 43.794924 
L 207.867834 50.697992 
L 208.436186 42.755294 
L 209.554009 44.448842 
L 210.120592 41.312917 
L 211.246028 45.825746 
L 211.806846 51.708163 
L 212.359114 40.952998 
L 212.926533 50.429513 
L 213.490023 38.184464 
L 214.042875 42.574386 
L 214.612894 42.104979 
L 215.175755 45.856317 
L 215.733008 48.584332 
L 216.299479 50.151654 
L 216.854031 40.87108 
L 217.422641 23.745947 
L 217.972977 49.419467 
L 218.543906 53.486025 
L 219.098262 43.585479 
L 219.663896 29.432676 
L 220.223669 63.238907 
L 220.780086 37.664006 
L 221.348617 47.081252 
L 221.905511 41.133286 
L 222.471965 48.041428 
L 223.029464 41.870495 
L 223.587677 46.97738 
L 224.153536 39.964781 
L 224.716903 39.658945 
L 225.273083 53.714701 
L 225.84322 48.79996 
L 226.402769 46.663824 
L 226.96325 49.051951 
L 227.527733 33.268641 
L 228.079456 44.138882 
L 228.645467 40.386808 
L 229.205291 47.345548 
L 229.769331 44.534736 
L 230.327752 33.931619 
L 230.88492 49.084517 
L 231.451531 51.036949 
L 232.010277 47.574443 
L 232.571303 49.482487 
L 233.135977 25.789286 
L 233.70036 54.86981 
L 234.255833 50.910422 
L 234.82414 26.208217 
L 235.384323 53.777945 
L 235.9418 37.897807 
L 236.5025 50.253659 
L 237.061246 53.90866 
L 237.62957 30.27141 
L 238.189545 58.342706 
L 238.744575 29.955847 
L 239.30747 44.81233 
L 239.86822 63.686178 
L 240.434809 37.30869 
L 241.558095 49.716905 
L 242.118312 44.279779 
L 242.675789 41.671827 
L 243.241238 45.113365 
L 243.798918 43.109317 
L 244.360819 38.33956 
L 244.92496 49.175716 
L 245.48717 49.765948 
L 246.05578 45.471925 
L 246.615677 21.5 
L 247.175467 54.61818 
L 247.727375 48.492469 
L 248.294997 50.857667 
L 248.853176 31.663547 
L 249.421949 58.585773 
L 249.97283 36.548452 
L 250.540143 35.053582 
L 251.10411 55.662727 
L 252.226178 30.89951 
L 252.785508 57.674999 
L 253.345214 39.040006 
L 253.905621 36.007055 
L 254.464266 49.11837 
L 255.033101 49.091596 
L 255.597635 33.310693 
L 256.160479 50.382388 
L 256.718125 43.584751 
L 257.277197 48.774581 
L 257.836392 45.760272 
L 258.398737 34.587164 
L 258.956624 45.287457 
L 259.524605 43.217719 
L 260.084378 41.798008 
L 260.646364 46.78528 
L 261.205278 42.492562 
L 261.767505 48.979681 
L 262.325549 44.416598 
L 262.884806 48.153838 
L 263.448111 42.027924 
L 264.015817 37.819831 
L 264.574956 50.518255 
L 265.131906 36.095106 
L 265.702711 46.860133 
L 266.262877 59.623586 
L 266.824312 26.585624 
L 267.385321 60.31046 
L 267.938004 38.099679 
L 268.507439 42.876338 
L 269.062244 39.250456 
L 269.622775 54.205832 
L 270.195293 50.672961 
L 270.753971 27.126287 
L 271.314671 50.582014 
L 271.867371 39.475529 
L 272.430844 52.014335 
L 272.993222 36.003393 
L 273.551985 57.539458 
L 274.117188 37.22595 
L 274.683423 49.812864 
L 275.237711 33.54317 
L 275.79877 59.764524 
L 276.358701 31.765697 
L 276.928686 56.668545 
L 277.486731 31.942083 
L 278.045134 50.280433 
L 278.610095 49.306368 
L 279.17244 22.461389 
L 279.733583 56.766848 
L 280.298005 45.181345 
L 280.855432 51.046554 
L 281.41827 40.502904 
L 281.978128 42.205095 
L 282.535437 53.422535 
L 283.104271 35.927097 
L 283.657246 40.490756 
L 284.22082 62.62097 
L 284.788291 29.711057 
L 285.345442 42.223435 
L 285.90347 48.789841 
L 286.47409 46.550951 
L 287.033465 41.730658 
L 287.587809 39.370211 
L 288.153651 48.303725 
L 288.716934 43.325488 
L 289.277482 52.222341 
L 289.842173 33.965895 
L 290.401587 55.920104 
L 290.95742 43.898653 
L 291.518462 41.062145 
L 292.08308 44.709079 
L 292.645683 47.443856 
L 293.20229 51.381722 
L 293.769581 40.325322 
L 294.324886 37.305214 
L 294.886938 48.798188 
L 295.455829 41.151163 
L 296.010118 41.466443 
L 296.575819 45.632009 
L 297.138097 45.595735 
L 297.701087 38.354963 
L 298.816867 57.854043 
L 299.384882 27.814275 
L 299.939878 46.755583 
L 300.502132 41.315284 
L 301.064067 53.900893 
L 301.626086 48.802879 
L 302.186337 46.862438 
L 302.744555 39.943558 
L 303.312104 39.726046 
L 303.870732 41.589396 
L 304.431258 47.739493 
L 304.99463 46.931026 
L 305.562303 38.24502 
L 306.124905 52.474658 
L 306.680379 35.017752 
L 307.237671 47.137045 
L 307.797596 52.12967 
L 308.360109 40.369165 
L 308.929926 41.639272 
L 309.481273 41.0628 
L 310.042517 49.20695 
L 310.608786 41.503441 
L 311.173769 36.405489 
L 311.731246 46.830378 
L 312.289251 53.396225 
L 312.858861 47.230578 
L 313.416871 34.763823 
L 313.977279 47.460492 
L 314.539523 43.156978 
L 315.10171 45.122667 
L 315.663572 43.662627 
L 316.226001 49.677913 
L 316.791091 48.562025 
L 317.350106 26.179658 
L 317.90613 50.478813 
L 318.474779 45.81685 
L 319.025727 44.363786 
L 319.597189 45.858025 
L 320.157614 44.789416 
L 320.710532 53.649967 
L 321.271917 40.627828 
L 321.837293 50.388634 
L 322.401867 37.654214 
L 322.965957 48.400129 
L 323.527443 50.823511 
L 324.084443 37.537007 
L 324.642454 45.048691 
L 325.204057 43.963206 
L 325.769501 32.625604 
L 326.324104 51.714426 
L 326.893371 46.465023 
L 327.456294 51.781365 
L 328.019289 38.750426 
L 328.574594 44.096779 
L 329.136731 44.443476 
L 329.700238 36.805979 
L 330.256143 42.673019 
L 330.817011 51.879502 
L 331.383999 42.954288 
L 331.943346 45.818464 
L 332.504865 50.061903 
L 333.065857 27.88517 
L 333.622256 48.531894 
L 334.183366 43.93372 
L 334.752734 53.358966 
L 335.312799 37.469317 
L 335.868171 47.931178 
L 336.436714 37.506139 
L 336.999951 43.034502 
L 337.562621 62.241302 
L 338.11696 26.050014 
L 338.676941 54.649295 
L 339.24417 48.646045 
L 339.801541 41.180972 
L 340.361028 35.76513 
L 340.919651 48.121702 
L 341.490405 34.768675 
L 342.04388 63.870712 
L 342.613175 36.917423 
L 343.167368 42.616124 
L 343.736359 43.496766 
L 344.295959 53.556864 
L 344.851415 29.975952 
L 345.412424 49.916416 
L 345.979478 42.687695 
L 346.534042 53.975454 
L 347.096987 31.070556 
L 347.660258 49.818419 
L 348.220649 37.780741 
L 348.779547 50.269579 
L 349.343211 41.999678 
L 349.911276 41.54547 
L 350.464779 50.594584 
L 351.031615 33.475718 
L 351.588699 56.636537 
L 352.155754 47.15109 
L 352.714786 27.024125 
L 353.270692 45.303565 
L 353.834833 42.669627 
L 354.958972 48.357614 
L 355.517291 35.976656 
L 356.078553 42.448324 
L 356.642559 53.475487 
L 357.207458 43.735684 
L 357.765912 36.79571 
L 358.331457 57.169232 
L 358.886762 41.110059 
L 359.454226 37.575769 
L 360.01176 58.475258 
L 360.57004 35.121043 
L 361.134765 36.142251 
L 361.696234 56.965379 
L 362.262952 36.757017 
L 362.821849 50.348315 
L 363.377873 40.95744 
L 363.937147 45.921809 
L 364.50273 55.250979 
L 365.068724 38.033878 
L 365.626937 38.467987 
L 366.18762 47.610808 
L 366.749089 38.382263 
L 367.310732 54.51921 
L 367.86922 42.67357 
L 368.435213 39.204156 
L 368.993909 43.510503 
L 369.563294 55.297338 
L 370.122741 31.688382 
L 371.243007 53.0455 
L 371.801534 39.355201 
L 372.921974 52.66456 
L 373.489264 37.192441 
L 374.613954 47.214933 
L 375.168023 52.547079 
L 375.733158 33.751694 
L 376.300522 58.817634 
L 376.850993 35.096807 
L 377.416885 54.73401 
L 377.978938 34.260315 
L 378.535231 41.372077 
L 379.099378 41.080044 
L 379.659611 46.950857 
L 380.21824 47.509529 
L 380.781864 49.753384 
L 381.353753 48.233112 
L 381.910803 38.026799 
L 382.473608 38.653884 
L 383.026752 46.232353 
L 383.594941 46.75812 
L 384.156887 46.606913 
L 384.719214 51.908407 
L 385.273902 29.754785 
L 385.835921 51.196012 
L 386.395571 39.073556 
L 386.962457 51.695128 
L 387.518615 37.620914 
L 388.07964 46.409288 
L 388.640874 57.610044 
L 389.20666 25.005766 
L 389.769942 56.046762 
L 390.328126 32.01155 
L 390.890039 53.123121 
L 391.453052 36.83887 
L 392.017743 55.86572 
L 392.569073 45.199535 
L 393.14168 41.107823 
L 393.698759 42.543361 
L 394.259065 51.931925 
L 394.819883 33.873916 
L 395.378955 49.842486 
L 395.938852 46.889805 
L 396.503369 53.360486 
L 397.069739 30.291291 
L 397.630905 50.706119 
L 398.18754 39.631513 
L 398.749868 48.852035 
L 399.311168 38.758255 
L 399.86777 51.600319 
L 400.432804 40.919923 
L 400.994615 47.954145 
L 401.556976 26.680801 
L 402.114544 55.653603 
L 402.674059 42.912027 
L 403.244645 38.315502 
L 403.806625 50.471644 
L 404.357955 39.216087 
L 404.357955 39.216087 
" style="fill:none;stroke:#1f77b4;stroke-linecap:square;stroke-width:1.5;"/>
   </g>
   <g id="line2d_28">
    <path clip-path="url(#p51f6f99e10)" d="M 67.517045 43.435236 
L 404.357955 43.435236 
" style="fill:none;stroke:#000000;stroke-dasharray:5.55,2.4;stroke-dashoffset:0;stroke-width:1.5;"/>
   </g>
   <g id="patch_3">
    <path d="M 50.675 246.2 
L 50.675 10.8 
" style="fill:none;stroke:#000000;stroke-linecap:square;stroke-linejoin:miter;stroke-width:0.8;"/>
   </g>
   <g id="patch_4">
    <path d="M 421.2 246.2 
L 421.2 10.8 
" style="fill:none;stroke:#000000;stroke-linecap:square;stroke-linejoin:miter;stroke-width:0.8;"/>
   </g>
   <g id="patch_5">
    <path d="M 50.675 246.2 
L 421.2 246.2 
" style="fill:none;stroke:#000000;stroke-linecap:square;stroke-linejoin:miter;stroke-width:0.8;"/>
   </g>
   <g id="patch_6">
    <path d="M 50.675 10.8 
L 421.2 10.8 
" style="fill:none;stroke:#000000;stroke-linecap:square;stroke-linejoin:miter;stroke-width:0.8;"/>
   </g>
   <g id="legend_1">
    <g id="patch_7">
     <path d="M 328.934375 241.2 
L 414.2 241.2 
Q 416.2 241.2 416.2 239.2 
L 416.2 210.84375 
Q 416.2 208.84375 414.2 208.84375 
L 328.934375 208.84375 
Q 326.934375 208.84375 326.934375 210.84375 
L 326.934375 239.2 
Q 326.934375 241.2 328.934375 241.2 
z
" style="fill:#ffffff;opacity:0.8;stroke:#cccccc;stroke-linejoin:miter;"/>
    </g>
    <g id="line2d_29">
     <path d="M 330.934375 216.942187 
L 350.934375 216.942187 
" style="fill:none;stroke:#1f77b4;stroke-linecap:square;stroke-width:1.5;"/>
    </g>
    <g id="line2d_30"/>
    <g id="text_16">
     <!-- Simulation -->
     <defs>
      <path d="M 53.515625 70.515625 
L 53.515625 60.890625 
Q 47.90625 63.578125 42.921875 64.890625 
Q 37.9375 66.21875 33.296875 66.21875 
Q 25.25 66.21875 20.875 63.09375 
Q 16.5 59.96875 16.5 54.203125 
Q 16.5 49.359375 19.40625 46.890625 
Q 22.3125 44.4375 30.421875 42.921875 
L 36.375 41.703125 
Q 47.40625 39.59375 52.65625 34.296875 
Q 57.90625 29 57.90625 20.125 
Q 57.90625 9.515625 50.796875 4.046875 
Q 43.703125 -1.421875 29.984375 -1.421875 
Q 24.8125 -1.421875 18.96875 -0.25 
Q 13.140625 0.921875 6.890625 3.21875 
L 6.890625 13.375 
Q 12.890625 10.015625 18.65625 8.296875 
Q 24.421875 6.59375 29.984375 6.59375 
Q 38.421875 6.59375 43.015625 9.90625 
Q 47.609375 13.234375 47.609375 19.390625 
Q 47.609375 24.75 44.3125 27.78125 
Q 41.015625 30.8125 33.5 32.328125 
L 27.484375 33.5 
Q 16.453125 35.6875 11.515625 40.375 
Q 6.59375 45.0625 6.59375 53.421875 
Q 6.59375 63.09375 13.40625 68.65625 
Q 20.21875 74.21875 32.171875 74.21875 
Q 37.3125 74.21875 42.625 73.28125 
Q 47.953125 72.359375 53.515625 70.515625 
z
" id="DejaVuSans-83"/>
      <path d="M 8.5 21.578125 
L 8.5 54.6875 
L 17.484375 54.6875 
L 17.484375 21.921875 
Q 17.484375 14.15625 20.5 10.265625 
Q 23.53125 6.390625 29.59375 6.390625 
Q 36.859375 6.390625 41.078125 11.03125 
Q 45.3125 15.671875 45.3125 23.6875 
L 45.3125 54.6875 
L 54.296875 54.6875 
L 54.296875 0 
L 45.3125 0 
L 45.3125 8.40625 
Q 42.046875 3.421875 37.71875 1 
Q 33.40625 -1.421875 27.6875 -1.421875 
Q 18.265625 -1.421875 13.375 4.4375 
Q 8.5 10.296875 8.5 21.578125 
z
M 31.109375 56 
z
" id="DejaVuSans-117"/>
      <path d="M 30.609375 48.390625 
Q 23.390625 48.390625 19.1875 42.75 
Q 14.984375 37.109375 14.984375 27.296875 
Q 14.984375 17.484375 19.15625 11.84375 
Q 23.34375 6.203125 30.609375 6.203125 
Q 37.796875 6.203125 41.984375 11.859375 
Q 46.1875 17.53125 46.1875 27.296875 
Q 46.1875 37.015625 41.984375 42.703125 
Q 37.796875 48.390625 30.609375 48.390625 
z
M 30.609375 56 
Q 42.328125 56 49.015625 48.375 
Q 55.71875 40.765625 55.71875 27.296875 
Q 55.71875 13.875 49.015625 6.21875 
Q 42.328125 -1.421875 30.609375 -1.421875 
Q 18.84375 -1.421875 12.171875 6.21875 
Q 5.515625 13.875 5.515625 27.296875 
Q 5.515625 40.765625 12.171875 48.375 
Q 18.84375 56 30.609375 56 
z
" id="DejaVuSans-111"/>
     </defs>
     <g transform="translate(358.934375 220.442187)scale(0.1 -0.1)">
      <use xlink:href="#DejaVuSans-83"/>
      <use x="63.476562" xlink:href="#DejaVuSans-105"/>
      <use x="91.259766" xlink:href="#DejaVuSans-109"/>
      <use x="188.671875" xlink:href="#DejaVuSans-117"/>
      <use x="252.050781" xlink:href="#DejaVuSans-108"/>
      <use x="279.833984" xlink:href="#DejaVuSans-97"/>
      <use x="341.113281" xlink:href="#DejaVuSans-116"/>
      <use x="380.322266" xlink:href="#DejaVuSans-105"/>
      <use x="408.105469" xlink:href="#DejaVuSans-111"/>
      <use x="469.287109" xlink:href="#DejaVuSans-110"/>
     </g>
    </g>
    <g id="line2d_31">
     <path d="M 330.934375 231.620312 
L 350.934375 231.620312 
" style="fill:none;stroke:#000000;stroke-dasharray:5.55,2.4;stroke-dashoffset:0;stroke-width:1.5;"/>
    </g>
    <g id="line2d_32"/>
    <g id="text_17">
     <!-- Target -->
     <g transform="translate(358.934375 235.120312)scale(0.1 -0.1)">
      <use xlink:href="#DejaVuSans-84"/>
      <use x="60.833984" xlink:href="#DejaVuSans-97"/>
      <use x="122.113281" xlink:href="#DejaVuSans-114"/>
      <use x="163.210938" xlink:href="#DejaVuSans-103"/>
      <use x="226.6875" xlink:href="#DejaVuSans-101"/>
      <use x="288.210938" xlink:href="#DejaVuSans-116"/>
     </g>
    </g>
   </g>
  </g>
 </g>
 <defs>
  <clipPath id="p51f6f99e10">
   <rect height="235.4" width="370.525" x="50.675" y="10.8"/>
  </clipPath>
 </defs>
</svg>
