<?xml version="1.0" encoding="utf-8" standalone="no"?>
<!DOCTYPE svg PUBLIC "-//W3C//DTD SVG 1.1//EN"
  "http://www.w3.org/Graphics/SVG/1.1/DTD/svg11.dtd">
<!-- Created with matplotlib (https://matplotlib.org/) -->
<svg height="288pt" version="1.1" viewBox="0 0 432 288" width="432pt" xmlns="http://www.w3.org/2000/svg" xmlns:xlink="http://www.w3.org/1999/xlink">
 <defs>
  <style type="text/css">
*{stroke-linecap:butt;stroke-linejoin:round;}
  </style>
 </defs>
 <g id="figure_1">
  <g id="patch_1">
   <path d="M 0 288 
L 432 288 
L 432 0 
L 0 0 
z
" style="fill:#ffffff;"/>
  </g>
  <g id="axes_1">
   <g id="patch_2">
    <path d="M 47.675 246.2 
L 421.2 246.2 
L 421.2 10.8 
L 47.675 10.8 
z
" style="fill:#ffffff;"/>
   </g>
   <g id="matplotlib.axis_1">
    <g id="xtick_1">
     <g id="line2d_1">
      <path clip-path="url(#peefa46490d)" d="M 64.653409 246.2 
L 64.653409 10.8 
" style="fill:none;stroke:#b0b0b0;stroke-linecap:square;stroke-width:0.8;"/>
     </g>
     <g id="line2d_2">
      <defs>
       <path d="M 0 0 
L 0 3.5 
" id="ma6d7fc9d2d" style="stroke:#000000;stroke-width:0.8;"/>
      </defs>
      <g>
       <use style="stroke:#000000;stroke-width:0.8;" x="64.653409" xlink:href="#ma6d7fc9d2d" y="246.2"/>
      </g>
     </g>
     <g id="text_1">
      <!-- 0 -->
      <defs>
       <path d="M 31.78125 66.40625 
Q 24.171875 66.40625 20.328125 58.90625 
Q 16.5 51.421875 16.5 36.375 
Q 16.5 21.390625 20.328125 13.890625 
Q 24.171875 6.390625 31.78125 6.390625 
Q 39.453125 6.390625 43.28125 13.890625 
Q 47.125 21.390625 47.125 36.375 
Q 47.125 51.421875 43.28125 58.90625 
Q 39.453125 66.40625 31.78125 66.40625 
z
M 31.78125 74.21875 
Q 44.046875 74.21875 50.515625 64.515625 
Q 56.984375 54.828125 56.984375 36.375 
Q 56.984375 17.96875 50.515625 8.265625 
Q 44.046875 -1.421875 31.78125 -1.421875 
Q 19.53125 -1.421875 13.0625 8.265625 
Q 6.59375 17.96875 6.59375 36.375 
Q 6.59375 54.828125 13.0625 64.515625 
Q 19.53125 74.21875 31.78125 74.21875 
z
" id="DejaVuSans-48"/>
      </defs>
      <g transform="translate(61.472159 260.798437)scale(0.1 -0.1)">
       <use xlink:href="#DejaVuSans-48"/>
      </g>
     </g>
    </g>
    <g id="xtick_2">
     <g id="line2d_3">
      <path clip-path="url(#peefa46490d)" d="M 121.248106 246.2 
L 121.248106 10.8 
" style="fill:none;stroke:#b0b0b0;stroke-linecap:square;stroke-width:0.8;"/>
     </g>
     <g id="line2d_4">
      <g>
       <use style="stroke:#000000;stroke-width:0.8;" x="121.248106" xlink:href="#ma6d7fc9d2d" y="246.2"/>
      </g>
     </g>
     <g id="text_2">
      <!-- 100 -->
      <defs>
       <path d="M 12.40625 8.296875 
L 28.515625 8.296875 
L 28.515625 63.921875 
L 10.984375 60.40625 
L 10.984375 69.390625 
L 28.421875 72.90625 
L 38.28125 72.90625 
L 38.28125 8.296875 
L 54.390625 8.296875 
L 54.390625 0 
L 12.40625 0 
z
" id="DejaVuSans-49"/>
      </defs>
      <g transform="translate(111.704356 260.798437)scale(0.1 -0.1)">
       <use xlink:href="#DejaVuSans-49"/>
       <use x="63.623047" xlink:href="#DejaVuSans-48"/>
       <use x="127.246094" xlink:href="#DejaVuSans-48"/>
      </g>
     </g>
    </g>
    <g id="xtick_3">
     <g id="line2d_5">
      <path clip-path="url(#peefa46490d)" d="M 177.842803 246.2 
L 177.842803 10.8 
" style="fill:none;stroke:#b0b0b0;stroke-linecap:square;stroke-width:0.8;"/>
     </g>
     <g id="line2d_6">
      <g>
       <use style="stroke:#000000;stroke-width:0.8;" x="177.842803" xlink:href="#ma6d7fc9d2d" y="246.2"/>
      </g>
     </g>
     <g id="text_3">
      <!-- 200 -->
      <defs>
       <path d="M 19.1875 8.296875 
L 53.609375 8.296875 
L 53.609375 0 
L 7.328125 0 
L 7.328125 8.296875 
Q 12.9375 14.109375 22.625 23.890625 
Q 32.328125 33.6875 34.8125 36.53125 
Q 39.546875 41.84375 41.421875 45.53125 
Q 43.3125 49.21875 43.3125 52.78125 
Q 43.3125 58.59375 39.234375 62.25 
Q 35.15625 65.921875 28.609375 65.921875 
Q 23.96875 65.921875 18.8125 64.3125 
Q 13.671875 62.703125 7.8125 59.421875 
L 7.8125 69.390625 
Q 13.765625 71.78125 18.9375 73 
Q 24.125 74.21875 28.421875 74.21875 
Q 39.75 74.21875 46.484375 68.546875 
Q 53.21875 62.890625 53.21875 53.421875 
Q 53.21875 48.921875 51.53125 44.890625 
Q 49.859375 40.875 45.40625 35.40625 
Q 44.1875 33.984375 37.640625 27.21875 
Q 31.109375 20.453125 19.1875 8.296875 
z
" id="DejaVuSans-50"/>
      </defs>
      <g transform="translate(168.299053 260.798437)scale(0.1 -0.1)">
       <use xlink:href="#DejaVuSans-50"/>
       <use x="63.623047" xlink:href="#DejaVuSans-48"/>
       <use x="127.246094" xlink:href="#DejaVuSans-48"/>
      </g>
     </g>
    </g>
    <g id="xtick_4">
     <g id="line2d_7">
      <path clip-path="url(#peefa46490d)" d="M 234.4375 246.2 
L 234.4375 10.8 
" style="fill:none;stroke:#b0b0b0;stroke-linecap:square;stroke-width:0.8;"/>
     </g>
     <g id="line2d_8">
      <g>
       <use style="stroke:#000000;stroke-width:0.8;" x="234.4375" xlink:href="#ma6d7fc9d2d" y="246.2"/>
      </g>
     </g>
     <g id="text_4">
      <!-- 300 -->
      <defs>
       <path d="M 40.578125 39.3125 
Q 47.65625 37.796875 51.625 33 
Q 55.609375 28.21875 55.609375 21.1875 
Q 55.609375 10.40625 48.1875 4.484375 
Q 40.765625 -1.421875 27.09375 -1.421875 
Q 22.515625 -1.421875 17.65625 -0.515625 
Q 12.796875 0.390625 7.625 2.203125 
L 7.625 11.71875 
Q 11.71875 9.328125 16.59375 8.109375 
Q 21.484375 6.890625 26.8125 6.890625 
Q 36.078125 6.890625 40.9375 10.546875 
Q 45.796875 14.203125 45.796875 21.1875 
Q 45.796875 27.640625 41.28125 31.265625 
Q 36.765625 34.90625 28.71875 34.90625 
L 20.21875 34.90625 
L 20.21875 43.015625 
L 29.109375 43.015625 
Q 36.375 43.015625 40.234375 45.921875 
Q 44.09375 48.828125 44.09375 54.296875 
Q 44.09375 59.90625 40.109375 62.90625 
Q 36.140625 65.921875 28.71875 65.921875 
Q 24.65625 65.921875 20.015625 65.03125 
Q 15.375 64.15625 9.8125 62.3125 
L 9.8125 71.09375 
Q 15.4375 72.65625 20.34375 73.4375 
Q 25.25 74.21875 29.59375 74.21875 
Q 40.828125 74.21875 47.359375 69.109375 
Q 53.90625 64.015625 53.90625 55.328125 
Q 53.90625 49.265625 50.4375 45.09375 
Q 46.96875 40.921875 40.578125 39.3125 
z
" id="DejaVuSans-51"/>
      </defs>
      <g transform="translate(224.89375 260.798437)scale(0.1 -0.1)">
       <use xlink:href="#DejaVuSans-51"/>
       <use x="63.623047" xlink:href="#DejaVuSans-48"/>
       <use x="127.246094" xlink:href="#DejaVuSans-48"/>
      </g>
     </g>
    </g>
    <g id="xtick_5">
     <g id="line2d_9">
      <path clip-path="url(#peefa46490d)" d="M 291.032197 246.2 
L 291.032197 10.8 
" style="fill:none;stroke:#b0b0b0;stroke-linecap:square;stroke-width:0.8;"/>
     </g>
     <g id="line2d_10">
      <g>
       <use style="stroke:#000000;stroke-width:0.8;" x="291.032197" xlink:href="#ma6d7fc9d2d" y="246.2"/>
      </g>
     </g>
     <g id="text_5">
      <!-- 400 -->
      <defs>
       <path d="M 37.796875 64.3125 
L 12.890625 25.390625 
L 37.796875 25.390625 
z
M 35.203125 72.90625 
L 47.609375 72.90625 
L 47.609375 25.390625 
L 58.015625 25.390625 
L 58.015625 17.1875 
L 47.609375 17.1875 
L 47.609375 0 
L 37.796875 0 
L 37.796875 17.1875 
L 4.890625 17.1875 
L 4.890625 26.703125 
z
" id="DejaVuSans-52"/>
      </defs>
      <g transform="translate(281.488447 260.798437)scale(0.1 -0.1)">
       <use xlink:href="#DejaVuSans-52"/>
       <use x="63.623047" xlink:href="#DejaVuSans-48"/>
       <use x="127.246094" xlink:href="#DejaVuSans-48"/>
      </g>
     </g>
    </g>
    <g id="xtick_6">
     <g id="line2d_11">
      <path clip-path="url(#peefa46490d)" d="M 347.626894 246.2 
L 347.626894 10.8 
" style="fill:none;stroke:#b0b0b0;stroke-linecap:square;stroke-width:0.8;"/>
     </g>
     <g id="line2d_12">
      <g>
       <use style="stroke:#000000;stroke-width:0.8;" x="347.626894" xlink:href="#ma6d7fc9d2d" y="246.2"/>
      </g>
     </g>
     <g id="text_6">
      <!-- 500 -->
      <defs>
       <path d="M 10.796875 72.90625 
L 49.515625 72.90625 
L 49.515625 64.59375 
L 19.828125 64.59375 
L 19.828125 46.734375 
Q 21.96875 47.46875 24.109375 47.828125 
Q 26.265625 48.1875 28.421875 48.1875 
Q 40.625 48.1875 47.75 41.5 
Q 54.890625 34.8125 54.890625 23.390625 
Q 54.890625 11.625 47.5625 5.09375 
Q 40.234375 -1.421875 26.90625 -1.421875 
Q 22.3125 -1.421875 17.546875 -0.640625 
Q 12.796875 0.140625 7.71875 1.703125 
L 7.71875 11.625 
Q 12.109375 9.234375 16.796875 8.0625 
Q 21.484375 6.890625 26.703125 6.890625 
Q 35.15625 6.890625 40.078125 11.328125 
Q 45.015625 15.765625 45.015625 23.390625 
Q 45.015625 31 40.078125 35.4375 
Q 35.15625 39.890625 26.703125 39.890625 
Q 22.75 39.890625 18.8125 39.015625 
Q 14.890625 38.140625 10.796875 36.28125 
z
" id="DejaVuSans-53"/>
      </defs>
      <g transform="translate(338.083144 260.798437)scale(0.1 -0.1)">
       <use xlink:href="#DejaVuSans-53"/>
       <use x="63.623047" xlink:href="#DejaVuSans-48"/>
       <use x="127.246094" xlink:href="#DejaVuSans-48"/>
      </g>
     </g>
    </g>
    <g id="xtick_7">
     <g id="line2d_13">
      <path clip-path="url(#peefa46490d)" d="M 404.221591 246.2 
L 404.221591 10.8 
" style="fill:none;stroke:#b0b0b0;stroke-linecap:square;stroke-width:0.8;"/>
     </g>
     <g id="line2d_14">
      <g>
       <use style="stroke:#000000;stroke-width:0.8;" x="404.221591" xlink:href="#ma6d7fc9d2d" y="246.2"/>
      </g>
     </g>
     <g id="text_7">
      <!-- 600 -->
      <defs>
       <path d="M 33.015625 40.375 
Q 26.375 40.375 22.484375 35.828125 
Q 18.609375 31.296875 18.609375 23.390625 
Q 18.609375 15.53125 22.484375 10.953125 
Q 26.375 6.390625 33.015625 6.390625 
Q 39.65625 6.390625 43.53125 10.953125 
Q 47.40625 15.53125 47.40625 23.390625 
Q 47.40625 31.296875 43.53125 35.828125 
Q 39.65625 40.375 33.015625 40.375 
z
M 52.59375 71.296875 
L 52.59375 62.3125 
Q 48.875 64.0625 45.09375 64.984375 
Q 41.3125 65.921875 37.59375 65.921875 
Q 27.828125 65.921875 22.671875 59.328125 
Q 17.53125 52.734375 16.796875 39.40625 
Q 19.671875 43.65625 24.015625 45.921875 
Q 28.375 48.1875 33.59375 48.1875 
Q 44.578125 48.1875 50.953125 41.515625 
Q 57.328125 34.859375 57.328125 23.390625 
Q 57.328125 12.15625 50.6875 5.359375 
Q 44.046875 -1.421875 33.015625 -1.421875 
Q 20.359375 -1.421875 13.671875 8.265625 
Q 6.984375 17.96875 6.984375 36.375 
Q 6.984375 53.65625 15.1875 63.9375 
Q 23.390625 74.21875 37.203125 74.21875 
Q 40.921875 74.21875 44.703125 73.484375 
Q 48.484375 72.75 52.59375 71.296875 
z
" id="DejaVuSans-54"/>
      </defs>
      <g transform="translate(394.677841 260.798437)scale(0.1 -0.1)">
       <use xlink:href="#DejaVuSans-54"/>
       <use x="63.623047" xlink:href="#DejaVuSans-48"/>
       <use x="127.246094" xlink:href="#DejaVuSans-48"/>
      </g>
     </g>
    </g>
    <g id="text_8">
     <!-- Time / s -->
     <defs>
      <path d="M -0.296875 72.90625 
L 61.375 72.90625 
L 61.375 64.59375 
L 35.5 64.59375 
L 35.5 0 
L 25.59375 0 
L 25.59375 64.59375 
L -0.296875 64.59375 
z
" id="DejaVuSans-84"/>
      <path d="M 9.421875 54.6875 
L 18.40625 54.6875 
L 18.40625 0 
L 9.421875 0 
z
M 9.421875 75.984375 
L 18.40625 75.984375 
L 18.40625 64.59375 
L 9.421875 64.59375 
z
" id="DejaVuSans-105"/>
      <path d="M 52 44.1875 
Q 55.375 50.25 60.0625 53.125 
Q 64.75 56 71.09375 56 
Q 79.640625 56 84.28125 50.015625 
Q 88.921875 44.046875 88.921875 33.015625 
L 88.921875 0 
L 79.890625 0 
L 79.890625 32.71875 
Q 79.890625 40.578125 77.09375 44.375 
Q 74.3125 48.1875 68.609375 48.1875 
Q 61.625 48.1875 57.5625 43.546875 
Q 53.515625 38.921875 53.515625 30.90625 
L 53.515625 0 
L 44.484375 0 
L 44.484375 32.71875 
Q 44.484375 40.625 41.703125 44.40625 
Q 38.921875 48.1875 33.109375 48.1875 
Q 26.21875 48.1875 22.15625 43.53125 
Q 18.109375 38.875 18.109375 30.90625 
L 18.109375 0 
L 9.078125 0 
L 9.078125 54.6875 
L 18.109375 54.6875 
L 18.109375 46.1875 
Q 21.1875 51.21875 25.484375 53.609375 
Q 29.78125 56 35.6875 56 
Q 41.65625 56 45.828125 52.96875 
Q 50 49.953125 52 44.1875 
z
" id="DejaVuSans-109"/>
      <path d="M 56.203125 29.59375 
L 56.203125 25.203125 
L 14.890625 25.203125 
Q 15.484375 15.921875 20.484375 11.0625 
Q 25.484375 6.203125 34.421875 6.203125 
Q 39.59375 6.203125 44.453125 7.46875 
Q 49.3125 8.734375 54.109375 11.28125 
L 54.109375 2.78125 
Q 49.265625 0.734375 44.1875 -0.34375 
Q 39.109375 -1.421875 33.890625 -1.421875 
Q 20.796875 -1.421875 13.15625 6.1875 
Q 5.515625 13.8125 5.515625 26.8125 
Q 5.515625 40.234375 12.765625 48.109375 
Q 20.015625 56 32.328125 56 
Q 43.359375 56 49.78125 48.890625 
Q 56.203125 41.796875 56.203125 29.59375 
z
M 47.21875 32.234375 
Q 47.125 39.59375 43.09375 43.984375 
Q 39.0625 48.390625 32.421875 48.390625 
Q 24.90625 48.390625 20.390625 44.140625 
Q 15.875 39.890625 15.1875 32.171875 
z
" id="DejaVuSans-101"/>
      <path id="DejaVuSans-32"/>
      <path d="M 25.390625 72.90625 
L 33.6875 72.90625 
L 8.296875 -9.28125 
L 0 -9.28125 
z
" id="DejaVuSans-47"/>
      <path d="M 44.28125 53.078125 
L 44.28125 44.578125 
Q 40.484375 46.53125 36.375 47.5 
Q 32.28125 48.484375 27.875 48.484375 
Q 21.1875 48.484375 17.84375 46.4375 
Q 14.5 44.390625 14.5 40.28125 
Q 14.5 37.15625 16.890625 35.375 
Q 19.28125 33.59375 26.515625 31.984375 
L 29.59375 31.296875 
Q 39.15625 29.25 43.1875 25.515625 
Q 47.21875 21.78125 47.21875 15.09375 
Q 47.21875 7.46875 41.1875 3.015625 
Q 35.15625 -1.421875 24.609375 -1.421875 
Q 20.21875 -1.421875 15.453125 -0.5625 
Q 10.6875 0.296875 5.421875 2 
L 5.421875 11.28125 
Q 10.40625 8.6875 15.234375 7.390625 
Q 20.0625 6.109375 24.8125 6.109375 
Q 31.15625 6.109375 34.5625 8.28125 
Q 37.984375 10.453125 37.984375 14.40625 
Q 37.984375 18.0625 35.515625 20.015625 
Q 33.0625 21.96875 24.703125 23.78125 
L 21.578125 24.515625 
Q 13.234375 26.265625 9.515625 29.90625 
Q 5.8125 33.546875 5.8125 39.890625 
Q 5.8125 47.609375 11.28125 51.796875 
Q 16.75 56 26.8125 56 
Q 31.78125 56 36.171875 55.265625 
Q 40.578125 54.546875 44.28125 53.078125 
z
" id="DejaVuSans-115"/>
     </defs>
     <g transform="translate(214.582812 274.476562)scale(0.1 -0.1)">
      <use xlink:href="#DejaVuSans-84"/>
      <use x="61.037109" xlink:href="#DejaVuSans-105"/>
      <use x="88.820312" xlink:href="#DejaVuSans-109"/>
      <use x="186.232422" xlink:href="#DejaVuSans-101"/>
      <use x="247.755859" xlink:href="#DejaVuSans-32"/>
      <use x="279.542969" xlink:href="#DejaVuSans-47"/>
      <use x="313.234375" xlink:href="#DejaVuSans-32"/>
      <use x="345.021484" xlink:href="#DejaVuSans-115"/>
     </g>
    </g>
   </g>
   <g id="matplotlib.axis_2">
    <g id="ytick_1">
     <g id="line2d_15">
      <path clip-path="url(#peefa46490d)" d="M 47.675 235.574494 
L 421.2 235.574494 
" style="fill:none;stroke:#b0b0b0;stroke-linecap:square;stroke-width:0.8;"/>
     </g>
     <g id="line2d_16">
      <defs>
       <path d="M 0 0 
L -3.5 0 
" id="m54de04c4e7" style="stroke:#000000;stroke-width:0.8;"/>
      </defs>
      <g>
       <use style="stroke:#000000;stroke-width:0.8;" x="47.675" xlink:href="#m54de04c4e7" y="235.574494"/>
      </g>
     </g>
     <g id="text_9">
      <!-- 0.0 -->
      <defs>
       <path d="M 10.6875 12.40625 
L 21 12.40625 
L 21 0 
L 10.6875 0 
z
" id="DejaVuSans-46"/>
      </defs>
      <g transform="translate(24.771875 239.373712)scale(0.1 -0.1)">
       <use xlink:href="#DejaVuSans-48"/>
       <use x="63.623047" xlink:href="#DejaVuSans-46"/>
       <use x="95.410156" xlink:href="#DejaVuSans-48"/>
      </g>
     </g>
    </g>
    <g id="ytick_2">
     <g id="line2d_17">
      <path clip-path="url(#peefa46490d)" d="M 47.675 193.457775 
L 421.2 193.457775 
" style="fill:none;stroke:#b0b0b0;stroke-linecap:square;stroke-width:0.8;"/>
     </g>
     <g id="line2d_18">
      <g>
       <use style="stroke:#000000;stroke-width:0.8;" x="47.675" xlink:href="#m54de04c4e7" y="193.457775"/>
      </g>
     </g>
     <g id="text_10">
      <!-- 0.1 -->
      <g transform="translate(24.771875 197.256994)scale(0.1 -0.1)">
       <use xlink:href="#DejaVuSans-48"/>
       <use x="63.623047" xlink:href="#DejaVuSans-46"/>
       <use x="95.410156" xlink:href="#DejaVuSans-49"/>
      </g>
     </g>
    </g>
    <g id="ytick_3">
     <g id="line2d_19">
      <path clip-path="url(#peefa46490d)" d="M 47.675 151.341056 
L 421.2 151.341056 
" style="fill:none;stroke:#b0b0b0;stroke-linecap:square;stroke-width:0.8;"/>
     </g>
     <g id="line2d_20">
      <g>
       <use style="stroke:#000000;stroke-width:0.8;" x="47.675" xlink:href="#m54de04c4e7" y="151.341056"/>
      </g>
     </g>
     <g id="text_11">
      <!-- 0.2 -->
      <g transform="translate(24.771875 155.140275)scale(0.1 -0.1)">
       <use xlink:href="#DejaVuSans-48"/>
       <use x="63.623047" xlink:href="#DejaVuSans-46"/>
       <use x="95.410156" xlink:href="#DejaVuSans-50"/>
      </g>
     </g>
    </g>
    <g id="ytick_4">
     <g id="line2d_21">
      <path clip-path="url(#peefa46490d)" d="M 47.675 109.224337 
L 421.2 109.224337 
" style="fill:none;stroke:#b0b0b0;stroke-linecap:square;stroke-width:0.8;"/>
     </g>
     <g id="line2d_22">
      <g>
       <use style="stroke:#000000;stroke-width:0.8;" x="47.675" xlink:href="#m54de04c4e7" y="109.224337"/>
      </g>
     </g>
     <g id="text_12">
      <!-- 0.3 -->
      <g transform="translate(24.771875 113.023556)scale(0.1 -0.1)">
       <use xlink:href="#DejaVuSans-48"/>
       <use x="63.623047" xlink:href="#DejaVuSans-46"/>
       <use x="95.410156" xlink:href="#DejaVuSans-51"/>
      </g>
     </g>
    </g>
    <g id="ytick_5">
     <g id="line2d_23">
      <path clip-path="url(#peefa46490d)" d="M 47.675 67.107618 
L 421.2 67.107618 
" style="fill:none;stroke:#b0b0b0;stroke-linecap:square;stroke-width:0.8;"/>
     </g>
     <g id="line2d_24">
      <g>
       <use style="stroke:#000000;stroke-width:0.8;" x="47.675" xlink:href="#m54de04c4e7" y="67.107618"/>
      </g>
     </g>
     <g id="text_13">
      <!-- 0.4 -->
      <g transform="translate(24.771875 70.906837)scale(0.1 -0.1)">
       <use xlink:href="#DejaVuSans-48"/>
       <use x="63.623047" xlink:href="#DejaVuSans-46"/>
       <use x="95.410156" xlink:href="#DejaVuSans-52"/>
      </g>
     </g>
    </g>
    <g id="ytick_6">
     <g id="line2d_25">
      <path clip-path="url(#peefa46490d)" d="M 47.675 24.990899 
L 421.2 24.990899 
" style="fill:none;stroke:#b0b0b0;stroke-linecap:square;stroke-width:0.8;"/>
     </g>
     <g id="line2d_26">
      <g>
       <use style="stroke:#000000;stroke-width:0.8;" x="47.675" xlink:href="#m54de04c4e7" y="24.990899"/>
      </g>
     </g>
     <g id="text_14">
      <!-- 0.5 -->
      <g transform="translate(24.771875 28.790118)scale(0.1 -0.1)">
       <use xlink:href="#DejaVuSans-48"/>
       <use x="63.623047" xlink:href="#DejaVuSans-46"/>
       <use x="95.410156" xlink:href="#DejaVuSans-53"/>
      </g>
     </g>
    </g>
    <g id="text_15">
     <!-- Mass Loss Rate / kg/s -->
     <defs>
      <path d="M 9.8125 72.90625 
L 24.515625 72.90625 
L 43.109375 23.296875 
L 61.8125 72.90625 
L 76.515625 72.90625 
L 76.515625 0 
L 66.890625 0 
L 66.890625 64.015625 
L 48.09375 14.015625 
L 38.1875 14.015625 
L 19.390625 64.015625 
L 19.390625 0 
L 9.8125 0 
z
" id="DejaVuSans-77"/>
      <path d="M 34.28125 27.484375 
Q 23.390625 27.484375 19.1875 25 
Q 14.984375 22.515625 14.984375 16.5 
Q 14.984375 11.71875 18.140625 8.90625 
Q 21.296875 6.109375 26.703125 6.109375 
Q 34.1875 6.109375 38.703125 11.40625 
Q 43.21875 16.703125 43.21875 25.484375 
L 43.21875 27.484375 
z
M 52.203125 31.203125 
L 52.203125 0 
L 43.21875 0 
L 43.21875 8.296875 
Q 40.140625 3.328125 35.546875 0.953125 
Q 30.953125 -1.421875 24.3125 -1.421875 
Q 15.921875 -1.421875 10.953125 3.296875 
Q 6 8.015625 6 15.921875 
Q 6 25.140625 12.171875 29.828125 
Q 18.359375 34.515625 30.609375 34.515625 
L 43.21875 34.515625 
L 43.21875 35.40625 
Q 43.21875 41.609375 39.140625 45 
Q 35.0625 48.390625 27.6875 48.390625 
Q 23 48.390625 18.546875 47.265625 
Q 14.109375 46.140625 10.015625 43.890625 
L 10.015625 52.203125 
Q 14.9375 54.109375 19.578125 55.046875 
Q 24.21875 56 28.609375 56 
Q 40.484375 56 46.34375 49.84375 
Q 52.203125 43.703125 52.203125 31.203125 
z
" id="DejaVuSans-97"/>
      <path d="M 9.8125 72.90625 
L 19.671875 72.90625 
L 19.671875 8.296875 
L 55.171875 8.296875 
L 55.171875 0 
L 9.8125 0 
z
" id="DejaVuSans-76"/>
      <path d="M 30.609375 48.390625 
Q 23.390625 48.390625 19.1875 42.75 
Q 14.984375 37.109375 14.984375 27.296875 
Q 14.984375 17.484375 19.15625 11.84375 
Q 23.34375 6.203125 30.609375 6.203125 
Q 37.796875 6.203125 41.984375 11.859375 
Q 46.1875 17.53125 46.1875 27.296875 
Q 46.1875 37.015625 41.984375 42.703125 
Q 37.796875 48.390625 30.609375 48.390625 
z
M 30.609375 56 
Q 42.328125 56 49.015625 48.375 
Q 55.71875 40.765625 55.71875 27.296875 
Q 55.71875 13.875 49.015625 6.21875 
Q 42.328125 -1.421875 30.609375 -1.421875 
Q 18.84375 -1.421875 12.171875 6.21875 
Q 5.515625 13.875 5.515625 27.296875 
Q 5.515625 40.765625 12.171875 48.375 
Q 18.84375 56 30.609375 56 
z
" id="DejaVuSans-111"/>
      <path d="M 44.390625 34.1875 
Q 47.5625 33.109375 50.5625 29.59375 
Q 53.5625 26.078125 56.59375 19.921875 
L 66.609375 0 
L 56 0 
L 46.6875 18.703125 
Q 43.0625 26.03125 39.671875 28.421875 
Q 36.28125 30.8125 30.421875 30.8125 
L 19.671875 30.8125 
L 19.671875 0 
L 9.8125 0 
L 9.8125 72.90625 
L 32.078125 72.90625 
Q 44.578125 72.90625 50.734375 67.671875 
Q 56.890625 62.453125 56.890625 51.90625 
Q 56.890625 45.015625 53.6875 40.46875 
Q 50.484375 35.9375 44.390625 34.1875 
z
M 19.671875 64.796875 
L 19.671875 38.921875 
L 32.078125 38.921875 
Q 39.203125 38.921875 42.84375 42.21875 
Q 46.484375 45.515625 46.484375 51.90625 
Q 46.484375 58.296875 42.84375 61.546875 
Q 39.203125 64.796875 32.078125 64.796875 
z
" id="DejaVuSans-82"/>
      <path d="M 18.3125 70.21875 
L 18.3125 54.6875 
L 36.8125 54.6875 
L 36.8125 47.703125 
L 18.3125 47.703125 
L 18.3125 18.015625 
Q 18.3125 11.328125 20.140625 9.421875 
Q 21.96875 7.515625 27.59375 7.515625 
L 36.8125 7.515625 
L 36.8125 0 
L 27.59375 0 
Q 17.1875 0 13.234375 3.875 
Q 9.28125 7.765625 9.28125 18.015625 
L 9.28125 47.703125 
L 2.6875 47.703125 
L 2.6875 54.6875 
L 9.28125 54.6875 
L 9.28125 70.21875 
z
" id="DejaVuSans-116"/>
      <path d="M 9.078125 75.984375 
L 18.109375 75.984375 
L 18.109375 31.109375 
L 44.921875 54.6875 
L 56.390625 54.6875 
L 27.390625 29.109375 
L 57.625 0 
L 45.90625 0 
L 18.109375 26.703125 
L 18.109375 0 
L 9.078125 0 
z
" id="DejaVuSans-107"/>
      <path d="M 45.40625 27.984375 
Q 45.40625 37.75 41.375 43.109375 
Q 37.359375 48.484375 30.078125 48.484375 
Q 22.859375 48.484375 18.828125 43.109375 
Q 14.796875 37.75 14.796875 27.984375 
Q 14.796875 18.265625 18.828125 12.890625 
Q 22.859375 7.515625 30.078125 7.515625 
Q 37.359375 7.515625 41.375 12.890625 
Q 45.40625 18.265625 45.40625 27.984375 
z
M 54.390625 6.78125 
Q 54.390625 -7.171875 48.1875 -13.984375 
Q 42 -20.796875 29.203125 -20.796875 
Q 24.46875 -20.796875 20.265625 -20.09375 
Q 16.0625 -19.390625 12.109375 -17.921875 
L 12.109375 -9.1875 
Q 16.0625 -11.328125 19.921875 -12.34375 
Q 23.78125 -13.375 27.78125 -13.375 
Q 36.625 -13.375 41.015625 -8.765625 
Q 45.40625 -4.15625 45.40625 5.171875 
L 45.40625 9.625 
Q 42.625 4.78125 38.28125 2.390625 
Q 33.9375 0 27.875 0 
Q 17.828125 0 11.671875 7.65625 
Q 5.515625 15.328125 5.515625 27.984375 
Q 5.515625 40.671875 11.671875 48.328125 
Q 17.828125 56 27.875 56 
Q 33.9375 56 38.28125 53.609375 
Q 42.625 51.21875 45.40625 46.390625 
L 45.40625 54.6875 
L 54.390625 54.6875 
z
" id="DejaVuSans-103"/>
     </defs>
     <g transform="translate(18.692188 182.114062)rotate(-90)scale(0.1 -0.1)">
      <use xlink:href="#DejaVuSans-77"/>
      <use x="86.279297" xlink:href="#DejaVuSans-97"/>
      <use x="147.558594" xlink:href="#DejaVuSans-115"/>
      <use x="199.658203" xlink:href="#DejaVuSans-115"/>
      <use x="251.757812" xlink:href="#DejaVuSans-32"/>
      <use x="283.544922" xlink:href="#DejaVuSans-76"/>
      <use x="339.242188" xlink:href="#DejaVuSans-111"/>
      <use x="400.423828" xlink:href="#DejaVuSans-115"/>
      <use x="452.523438" xlink:href="#DejaVuSans-115"/>
      <use x="504.623047" xlink:href="#DejaVuSans-32"/>
      <use x="536.410156" xlink:href="#DejaVuSans-82"/>
      <use x="605.861328" xlink:href="#DejaVuSans-97"/>
      <use x="667.140625" xlink:href="#DejaVuSans-116"/>
      <use x="706.349609" xlink:href="#DejaVuSans-101"/>
      <use x="767.873047" xlink:href="#DejaVuSans-32"/>
      <use x="799.660156" xlink:href="#DejaVuSans-47"/>
      <use x="833.351562" xlink:href="#DejaVuSans-32"/>
      <use x="865.138672" xlink:href="#DejaVuSans-107"/>
      <use x="923.048828" xlink:href="#DejaVuSans-103"/>
      <use x="986.525391" xlink:href="#DejaVuSans-47"/>
      <use x="1020.216797" xlink:href="#DejaVuSans-115"/>
     </g>
    </g>
   </g>
   <g id="line2d_27">
    <path clip-path="url(#peefa46490d)" d="M 64.653409 234.194921 
L 65.231849 235.183507 
L 65.787533 235.390752 
L 66.353394 235.321272 
L 66.924811 230.835965 
L 67.491834 232.454622 
L 68.057131 235.095524 
L 68.617161 235.5 
L 69.183205 221.147916 
L 69.749285 220.804166 
L 70.315282 209.157852 
L 71.44793 162.880734 
L 72.58509 141.084696 
L 73.144968 126.702935 
L 73.709684 121.81334 
L 74.276464 118.62454 
L 74.849317 112.703591 
L 75.415976 110.804952 
L 75.976134 102.325324 
L 77.111635 88.846129 
L 77.671922 85.98311 
L 78.237162 80.19797 
L 78.802249 81.418711 
L 79.372968 76.774614 
L 79.941622 64.572933 
L 80.502604 63.662508 
L 81.07154 68.311807 
L 81.6342 61.603447 
L 82.208154 60.265172 
L 82.76981 59.761169 
L 83.330698 54.250988 
L 83.89785 50.005265 
L 84.469724 47.765452 
L 85.036109 58.488019 
L 85.603313 36.807528 
L 86.164239 43.795382 
L 86.733553 42.738594 
L 87.297003 34.101651 
L 87.863993 43.371254 
L 88.42852 38.334192 
L 88.993412 55.342767 
L 89.562886 42.280111 
L 90.131097 42.873435 
L 90.690356 55.598959 
L 91.255586 39.778066 
L 91.830279 66.027114 
L 92.392866 43.408351 
L 92.958803 47.966639 
L 93.528335 51.208653 
L 94.08794 33.55979 
L 94.649463 39.491946 
L 95.215672 55.135671 
L 96.349747 38.416344 
L 96.915088 54.664692 
L 97.489516 42.782016 
L 98.048861 36.236156 
L 98.615413 42.708266 
L 99.186121 38.237559 
L 99.748052 46.395289 
L 100.311425 42.727833 
L 100.883202 50.640036 
L 101.445832 46.016871 
L 102.012461 57.477083 
L 102.574438 37.473039 
L 103.143586 50.539933 
L 103.705772 41.332304 
L 104.275392 53.168311 
L 104.845458 36.724183 
L 105.405819 44.243112 
L 105.973064 33.817721 
L 106.536778 40.894294 
L 107.102482 53.118828 
L 107.674152 40.662892 
L 108.23438 46.278491 
L 108.806617 37.628063 
L 109.368817 42.987782 
L 109.931821 41.412389 
L 110.501592 39.120608 
L 111.069926 46.011989 
L 111.632416 41.411054 
L 112.194471 42.376874 
L 112.769431 40.381182 
L 113.336578 49.624151 
L 113.895907 41.915246 
L 114.465885 43.114157 
L 115.026299 35.971364 
L 115.597274 39.597327 
L 116.159937 36.357334 
L 116.722075 43.974947 
L 117.29654 37.143931 
L 117.857048 43.331231 
L 118.42868 45.538812 
L 118.991827 35.071148 
L 119.554348 38.104605 
L 120.12331 39.207385 
L 120.68395 37.07822 
L 121.248921 37.761918 
L 121.814308 34.860308 
L 122.38309 38.149278 
L 122.946241 42.829663 
L 123.521962 43.887382 
L 124.087309 44.340069 
L 124.648304 47.400388 
L 125.217307 49.338166 
L 125.781432 39.309463 
L 126.352914 38.858035 
L 126.908029 35.998188 
L 127.476873 38.55645 
L 128.0505 37.354641 
L 128.607873 39.544647 
L 129.171494 35.447941 
L 129.73932 37.170262 
L 130.30349 37.046262 
L 130.872612 36.383573 
L 131.441762 45.193822 
L 132.001195 36.481262 
L 132.574714 38.463326 
L 133.134056 48.697718 
L 133.702646 37.324233 
L 134.276109 34.872227 
L 134.832163 30.917147 
L 135.406 49.046465 
L 135.96691 28.901281 
L 136.531974 44.287036 
L 137.10195 39.489339 
L 137.661213 28.308922 
L 138.794511 40.221168 
L 139.363604 37.481442 
L 139.928929 36.944812 
L 140.496959 34.422079 
L 141.062543 36.960913 
L 141.63222 41.345596 
L 142.195541 38.270486 
L 142.762156 32.572953 
L 143.324939 36.447826 
L 143.888447 32.472206 
L 144.454082 43.097719 
L 145.021342 38.678087 
L 145.587657 31.20322 
L 146.153836 39.495232 
L 146.720621 40.072584 
L 147.292318 33.21728 
L 147.855135 36.807081 
L 148.415496 45.468098 
L 148.988676 27.930018 
L 149.5464 40.011351 
L 150.117763 39.128728 
L 150.680563 45.107305 
L 151.244308 29.627091 
L 151.809542 39.893626 
L 152.380345 29.816607 
L 152.947916 33.809744 
L 153.508945 44.891975 
L 154.083121 32.425932 
L 154.640007 34.423498 
L 155.215428 46.204446 
L 155.771443 33.849094 
L 156.346111 36.914584 
L 156.913835 42.842976 
L 157.469442 34.219081 
L 158.037755 43.696526 
L 158.602898 33.353915 
L 159.168279 33.699074 
L 159.742336 43.561104 
L 160.871344 37.376171 
L 161.431926 34.341392 
L 162.000612 28.308492 
L 162.566344 35.898712 
L 163.138957 34.570861 
L 163.699788 43.918898 
L 164.26685 33.802782 
L 164.827919 46.316405 
L 165.403277 25.7849 
L 165.964261 32.171538 
L 166.531017 29.39002 
L 167.092991 38.27864 
L 167.659781 38.474478 
L 168.227375 28.726184 
L 168.79759 32.066702 
L 169.364419 29.445803 
L 169.92688 24.568089 
L 170.493302 44.575885 
L 171.051688 31.650361 
L 171.623634 33.995437 
L 172.186095 36.884425 
L 172.749286 32.58539 
L 173.324786 41.881881 
L 173.888424 43.45769 
L 174.454275 27.796715 
L 175.015106 53.928909 
L 175.583588 37.938825 
L 176.150174 33.543162 
L 176.714644 42.224037 
L 177.280484 39.391759 
L 177.845848 51.318911 
L 178.413419 33.656544 
L 178.983158 34.942688 
L 179.542325 30.081206 
L 180.673743 28.263368 
L 181.247116 41.993574 
L 181.812315 34.727097 
L 182.370503 43.71491 
L 182.941714 33.48788 
L 183.503993 36.965377 
L 184.073375 42.129439 
L 184.643912 36.759073 
L 185.206797 39.928891 
L 185.768024 36.854838 
L 186.336739 32.481425 
L 186.904367 45.004069 
L 187.468695 48.248796 
L 188.037964 38.148975 
L 188.606396 44.974541 
L 189.729427 32.622057 
L 190.294468 38.592325 
L 190.863205 43.019816 
L 191.427658 35.353524 
L 191.995241 37.901813 
L 192.56301 34.617821 
L 193.136994 41.266614 
L 193.700716 33.563176 
L 194.263754 38.19556 
L 194.830528 33.095436 
L 195.398218 34.429972 
L 195.954855 30.89162 
L 196.521249 39.785871 
L 197.085594 45.31334 
L 197.658191 33.182058 
L 198.226272 46.120794 
L 198.787646 52.951346 
L 199.351159 41.124264 
L 199.914956 40.288525 
L 200.488537 35.636889 
L 201.613459 46.578535 
L 202.186022 38.605828 
L 202.749891 28.579606 
L 203.324079 37.059483 
L 203.884479 33.569523 
L 204.452667 35.615907 
L 205.017658 36.675943 
L 205.576395 38.471319 
L 206.140565 35.687206 
L 206.713512 43.664564 
L 207.282187 39.459571 
L 207.840392 38.908074 
L 208.411568 34.669776 
L 208.97369 38.124168 
L 209.546117 33.762493 
L 210.111469 40.790691 
L 210.668214 32.965582 
L 211.240222 30.089153 
L 211.80828 37.029167 
L 212.365596 37.918988 
L 212.940231 41.619527 
L 213.507649 35.598643 
L 214.069425 34.172314 
L 214.640483 35.247103 
L 215.199514 34.166355 
L 215.772733 44.064196 
L 216.327531 35.435976 
L 216.903071 39.079826 
L 217.461926 41.542382 
L 218.032129 29.117495 
L 218.596435 24.316598 
L 219.157356 49.328104 
L 219.730502 36.21634 
L 220.29191 33.086545 
L 220.862939 38.505548 
L 221.424947 39.885397 
L 221.98768 41.596515 
L 222.55812 27.412425 
L 223.126059 33.703302 
L 223.686732 41.811786 
L 224.261485 28.001103 
L 224.82557 26.595512 
L 225.390583 33.93887 
L 225.959637 35.907001 
L 226.515838 42.166506 
L 227.086432 39.178358 
L 227.650783 24.312218 
L 228.782331 44.915969 
L 229.344006 38.402568 
L 229.915216 34.112744 
L 230.47848 45.8863 
L 231.044048 31.140656 
L 231.6133 40.139293 
L 232.182241 33.956432 
L 232.742223 45.349666 
L 233.315125 47.262077 
L 233.879844 41.65055 
L 234.441841 33.634437 
L 235.007069 43.825647 
L 235.570345 41.901271 
L 236.14327 36.58465 
L 236.707774 23.541616 
L 237.267297 44.622197 
L 237.834744 23.764608 
L 238.400046 28.354037 
L 238.971222 55.076573 
L 239.53636 35.859468 
L 240.103597 36.831724 
L 240.668355 34.833105 
L 241.230352 48.235403 
L 241.800374 42.199955 
L 242.362569 38.18381 
L 242.929014 36.602011 
L 244.064484 44.544466 
L 244.637709 41.733744 
L 245.202134 31.110475 
L 245.766457 29.213344 
L 246.322845 48.171722 
L 246.895045 45.998992 
L 247.457744 30.208327 
L 248.586469 42.950883 
L 249.158375 39.905461 
L 249.726903 36.055677 
L 250.287371 36.984178 
L 250.858055 50.74852 
L 251.421925 47.469451 
L 251.986157 46.870235 
L 252.551103 40.408031 
L 253.114265 43.806859 
L 253.687705 30.57534 
L 254.25681 38.464277 
L 254.824217 43.487012 
L 255.386378 45.166231 
L 255.949988 31.231363 
L 256.513693 46.020531 
L 257.080591 39.167483 
L 257.642995 35.066343 
L 258.215575 38.774817 
L 258.779881 45.408339 
L 259.346411 23.236346 
L 260.476641 36.563921 
L 261.039209 47.852903 
L 261.602989 28.49787 
L 262.170843 37.867248 
L 262.743151 36.690991 
L 263.306817 23.706272 
L 263.868276 40.086698 
L 264.443703 40.818248 
L 265.00841 31.197568 
L 265.574397 50.056525 
L 266.139936 36.904986 
L 266.697105 34.840496 
L 267.27114 38.994451 
L 267.830448 45.256066 
L 268.395512 35.730671 
L 268.972665 32.861865 
L 269.535862 41.728626 
L 270.101107 36.878094 
L 270.658282 38.942159 
L 271.226317 39.03586 
L 271.793249 35.332929 
L 272.356541 38.855432 
L 272.926308 27.703283 
L 273.497128 26.56096 
L 274.055916 50.323769 
L 274.621512 34.147095 
L 275.185976 38.828343 
L 275.760576 25.438288 
L 276.323145 38.143483 
L 276.886058 36.779137 
L 277.455605 41.836041 
L 278.022497 38.006498 
L 278.588189 27.675372 
L 279.157169 41.1097 
L 279.719109 30.076699 
L 280.286505 38.558172 
L 280.850907 29.115006 
L 281.412728 41.591044 
L 281.986169 40.900266 
L 282.543615 36.08563 
L 283.111758 40.273536 
L 283.683817 31.050038 
L 284.24548 24.254193 
L 284.808025 31.377205 
L 285.383265 42.633626 
L 285.947175 37.16969 
L 286.506008 42.486833 
L 287.07642 44.250491 
L 287.644269 37.367474 
L 288.209361 33.599645 
L 288.778624 38.07899 
L 289.342562 27.681702 
L 289.902889 23.714695 
L 290.468469 41.467701 
L 291.037681 46.753383 
L 291.604833 34.63743 
L 292.165936 35.313602 
L 292.73782 41.044735 
L 293.297626 23.399519 
L 293.864224 38.26309 
L 294.437726 34.126769 
L 294.996503 34.907862 
L 295.566779 30.103595 
L 296.701163 37.942658 
L 297.268463 31.276444 
L 297.825983 35.150441 
L 298.398591 30.557348 
L 298.958081 39.36934 
L 299.524893 38.965108 
L 300.091378 35.260033 
L 300.657942 33.10506 
L 301.222723 24.471869 
L 301.785467 34.399542 
L 302.357605 40.930885 
L 302.920756 38.229729 
L 303.485826 37.272374 
L 304.05376 39.985146 
L 304.626034 38.819208 
L 305.193186 31.278449 
L 305.753157 37.657123 
L 306.314967 38.205007 
L 306.87942 37.386974 
L 307.446498 38.856902 
L 308.576728 28.882897 
L 309.142511 43.937514 
L 309.713376 24.511573 
L 310.282923 40.983388 
L 310.844914 37.778407 
L 311.407437 31.737248 
L 311.981669 45.144478 
L 312.544198 39.706434 
L 313.109132 30.315286 
L 313.675939 39.139762 
L 314.242673 33.062387 
L 314.809084 40.997211 
L 315.376078 31.119181 
L 315.945732 34.302956 
L 316.509273 30.574064 
L 317.069798 23.574665 
L 317.643046 33.965959 
L 318.198472 40.689295 
L 319.339517 31.286009 
L 319.896902 38.722857 
L 320.462843 42.296065 
L 321.60193 31.691324 
L 322.170599 31.545473 
L 322.736637 27.937785 
L 323.298135 37.370948 
L 323.86067 36.961435 
L 324.42682 42.23866 
L 324.996848 33.698029 
L 325.555936 28.865603 
L 326.129794 42.718849 
L 326.697298 29.923757 
L 327.264835 33.055779 
L 327.824642 37.053944 
L 328.959393 27.862105 
L 329.519805 28.642444 
L 330.08522 25.573874 
L 330.656787 34.169198 
L 331.220657 37.19918 
L 331.786734 39.110457 
L 332.352263 38.753708 
L 332.913173 24.915535 
L 333.478825 43.353986 
L 334.052809 39.863833 
L 334.617403 38.880429 
L 335.177266 33.868787 
L 335.750418 38.604206 
L 336.318221 38.33038 
L 336.885447 25.966592 
L 337.44428 44.989299 
L 338.008789 28.549795 
L 338.580599 36.920114 
L 339.142483 41.9897 
L 339.7065 37.02854 
L 340.269646 26.84553 
L 340.845038 43.569797 
L 341.402977 40.664661 
L 341.976881 42.588844 
L 342.535556 24.432692 
L 343.109154 37.475099 
L 343.673296 46.491796 
L 344.233244 47.964744 
L 344.7988 32.667084 
L 345.370441 35.714818 
L 345.929511 37.259916 
L 346.497003 36.110601 
L 347.064835 35.47728 
L 347.629758 33.241804 
L 348.193192 43.312906 
L 348.761403 32.91147 
L 349.334084 46.055997 
L 349.892068 33.349568 
L 350.463488 31.304574 
L 351.025072 38.619136 
L 351.596723 42.777939 
L 352.160293 25.304049 
L 352.7207 32.426922 
L 353.289414 34.106557 
L 353.853318 40.646025 
L 354.422655 37.292089 
L 354.985489 45.989773 
L 355.551295 36.56932 
L 356.119868 33.077697 
L 356.689329 34.384844 
L 357.252305 26.941489 
L 357.822429 42.537331 
L 358.382235 38.824312 
L 358.954311 41.883612 
L 359.516336 26.028246 
L 360.079142 44.75991 
L 360.64844 41.442502 
L 361.21446 35.296852 
L 361.785744 39.561603 
L 362.349167 35.407593 
L 362.90972 35.434279 
L 363.4735 37.113236 
L 364.043686 31.651224 
L 364.614256 39.443954 
L 365.176994 40.465007 
L 365.742194 40.128734 
L 366.308237 45.314654 
L 366.874416 39.226809 
L 367.437415 45.264295 
L 368.008008 34.701262 
L 368.571222 49.579275 
L 369.145199 27.210522 
L 369.709205 43.417856 
L 370.267733 26.916526 
L 370.83853 41.28085 
L 371.401568 28.988938 
L 371.972201 49.479985 
L 372.531073 36.872409 
L 373.10298 30.226858 
L 373.670115 31.420404 
L 374.23677 27.585959 
L 374.795331 37.897942 
L 375.36503 41.333681 
L 375.936982 34.605224 
L 376.491927 36.496664 
L 377.062401 30.165768 
L 377.628977 40.854073 
L 378.189785 36.908671 
L 378.758488 39.613457 
L 379.323269 33.908103 
L 379.886437 36.747271 
L 380.454625 33.690427 
L 381.031133 45.178003 
L 381.592699 37.274168 
L 382.16005 42.432578 
L 382.717666 33.094552 
L 383.290472 35.727015 
L 383.856963 46.536039 
L 384.423843 31.177479 
L 384.983005 42.183929 
L 385.54958 28.978219 
L 386.113778 45.83464 
L 386.68526 30.702259 
L 387.245927 29.924772 
L 387.811489 27.253312 
L 388.377238 39.13964 
L 388.947633 32.471409 
L 389.515453 41.637452 
L 390.07818 24.454349 
L 390.644619 26.451385 
L 391.212219 39.302425 
L 391.781454 39.280996 
L 392.337259 36.357633 
L 392.914514 37.670028 
L 393.47608 41.801547 
L 394.040952 27.549102 
L 394.606305 35.123381 
L 395.169897 35.643982 
L 395.734333 38.047958 
L 396.303421 34.892552 
L 396.874371 38.586336 
L 397.440069 38.875362 
L 398.001211 45.846327 
L 398.568098 45.48679 
L 399.133926 30.327121 
L 399.695045 39.059345 
L 400.264671 44.86914 
L 400.831008 34.301945 
L 401.397917 37.500095 
L 401.960005 26.999361 
L 402.524067 38.717795 
L 403.099256 33.1162 
L 403.665814 40.114945 
L 404.221591 42.279753 
L 404.221591 42.279753 
" style="fill:none;stroke:#1f77b4;stroke-linecap:square;stroke-width:1.5;"/>
   </g>
   <g id="line2d_28">
    <path clip-path="url(#peefa46490d)" d="M 64.653409 234.254911 
L 65.231849 189.675904 
L 65.787533 160.139007 
L 66.353394 147.810306 
L 66.924811 130.78287 
L 67.491834 153.02775 
L 68.057131 139.789884 
L 68.617161 158.662723 
L 69.183205 155.278169 
L 70.315282 131.20154 
L 70.88128 113.963803 
L 72.010936 92.647946 
L 72.58509 85.806262 
L 73.144968 80.835112 
L 73.709684 77.884764 
L 74.276464 76.401662 
L 74.849317 69.085853 
L 75.415976 74.824728 
L 75.976134 64.236041 
L 76.541925 58.272057 
L 77.111635 59.707096 
L 77.671922 58.478197 
L 78.237162 52.211869 
L 78.802249 52.725483 
L 79.372968 42.612231 
L 79.941622 48.42406 
L 80.502604 50.793037 
L 81.07154 39.902496 
L 81.6342 51.417569 
L 82.208154 44.07962 
L 82.76981 33.571212 
L 83.330698 40.03187 
L 83.89785 42.157653 
L 84.469724 39.873368 
L 85.036109 28.186054 
L 85.603313 40.256997 
L 86.164239 28.45831 
L 86.733553 34.885392 
L 87.297003 31.843799 
L 87.863993 23.069042 
L 88.42852 44.742187 
L 88.993412 36.401636 
L 89.562886 34.251949 
L 90.131097 47.70819 
L 90.690356 32.586102 
L 91.255586 48.670527 
L 91.830279 43.618201 
L 92.392866 44.304498 
L 92.958803 44.42982 
L 93.528335 31.145946 
L 94.08794 39.307324 
L 94.649463 41.541717 
L 95.215672 39.449552 
L 95.790521 43.291283 
L 96.349747 40.920899 
L 96.915088 40.024584 
L 97.489516 36.158737 
L 98.048861 40.407694 
L 98.615413 37.191603 
L 99.748052 39.17907 
L 100.311425 37.570304 
L 100.883202 41.715886 
L 101.445832 49.433678 
L 102.012461 46.849341 
L 102.574438 42.412505 
L 103.143586 33.529087 
L 103.705772 49.106654 
L 104.275392 37.0829 
L 104.845458 38.396187 
L 105.405819 31.102932 
L 105.973064 43.734077 
L 106.536778 44.866579 
L 107.102482 34.192716 
L 107.674152 34.185446 
L 108.23438 42.273347 
L 108.806617 41.895724 
L 109.368817 32.911352 
L 109.931821 39.709665 
L 110.501592 38.744316 
L 111.069926 36.807351 
L 111.632416 44.505592 
L 112.194471 36.252194 
L 112.769431 41.496113 
L 113.336578 40.55643 
L 113.895907 45.061453 
L 114.465885 35.320029 
L 115.026299 38.016307 
L 115.597274 38.293764 
L 116.159937 35.119389 
L 116.722075 36.117201 
L 117.29654 39.541792 
L 117.857048 39.148013 
L 118.42868 35.237914 
L 118.991827 38.154711 
L 119.554348 31.549803 
L 120.12331 40.245819 
L 120.68395 31.032753 
L 121.248921 35.163144 
L 121.814308 38.221609 
L 122.38309 35.286306 
L 122.946241 38.201334 
L 123.521962 41.940116 
L 124.087309 42.900958 
L 124.648304 41.248807 
L 125.217307 33.346641 
L 125.781432 36.896529 
L 126.352914 46.2809 
L 126.908029 34.203624 
L 127.476873 33.413181 
L 128.0505 38.086667 
L 128.607873 40.835432 
L 129.171494 29.869194 
L 129.73932 30.148727 
L 130.30349 38.285071 
L 130.872612 35.696169 
L 131.441762 36.917364 
L 132.001195 37.714204 
L 132.574714 37.255304 
L 133.134056 27.353087 
L 133.702646 36.103627 
L 134.276109 34.803058 
L 134.832163 34.481994 
L 135.406 27.752151 
L 135.96691 39.152692 
L 136.531974 36.202753 
L 137.10195 33.842355 
L 137.661213 30.040487 
L 138.233731 32.537246 
L 138.794511 34.298121 
L 139.363604 31.713734 
L 139.928929 35.377884 
L 140.496959 33.012083 
L 141.062543 35.855787 
L 141.63222 34.701667 
L 142.195541 31.215245 
L 142.762156 31.564468 
L 143.324939 31.008696 
L 143.888447 39.466622 
L 144.454082 29.078748 
L 145.021342 30.424288 
L 145.587657 36.772306 
L 146.153836 32.678771 
L 146.720621 29.746386 
L 147.292318 36.168226 
L 147.855135 39.572549 
L 148.415496 33.55976 
L 148.988676 33.884126 
L 149.5464 30.604262 
L 150.117763 40.426748 
L 151.244308 35.222175 
L 151.809542 30.19482 
L 152.380345 38.251327 
L 152.947916 36.373216 
L 153.508945 23.478694 
L 154.083121 38.431982 
L 154.640007 36.447379 
L 155.215428 32.349347 
L 155.771443 37.571222 
L 156.346111 38.758387 
L 156.913835 37.274299 
L 157.469442 43.681174 
L 158.037755 31.997811 
L 158.602898 36.384967 
L 159.168279 32.61039 
L 159.742336 39.074738 
L 160.303716 35.5872 
L 160.871344 34.478903 
L 161.431926 29.188171 
L 162.000612 34.725399 
L 162.566344 29.775417 
L 163.138957 35.036882 
L 163.699788 34.076587 
L 164.26685 39.659546 
L 164.827919 27.195183 
L 165.403277 33.507923 
L 165.964261 28.915027 
L 166.531017 31.471596 
L 167.092991 35.34067 
L 167.659781 28.656667 
L 168.227375 34.188382 
L 168.79759 33.033845 
L 169.364419 26.352625 
L 169.92688 34.378758 
L 170.493302 27.501245 
L 171.051688 35.692825 
L 171.623634 27.287953 
L 172.186095 33.025863 
L 172.749286 35.581957 
L 173.324786 35.421989 
L 173.888424 33.059751 
L 174.454275 36.530712 
L 175.015106 36.333955 
L 175.583588 39.788238 
L 176.150174 36.233961 
L 176.714644 37.036891 
L 177.280484 42.928271 
L 177.845848 37.936673 
L 178.413419 36.622332 
L 178.983158 27.518525 
L 179.542325 35.489001 
L 180.117576 27.979068 
L 180.673743 32.029348 
L 181.247116 34.817323 
L 181.812315 43.067016 
L 182.370503 27.861629 
L 182.941714 36.676414 
L 183.503993 36.503698 
L 184.073375 33.21159 
L 184.643912 36.919226 
L 185.206797 32.913631 
L 185.768024 33.18947 
L 186.336739 44.82167 
L 186.904367 32.284803 
L 187.468695 41.330409 
L 188.037964 40.560814 
L 188.606396 34.255385 
L 189.171912 33.937556 
L 189.729427 36.019815 
L 190.294468 36.503807 
L 190.863205 35.641105 
L 191.427658 39.165963 
L 191.995241 31.492651 
L 192.56301 35.005391 
L 193.136994 35.930569 
L 193.700716 38.662121 
L 194.263754 36.86356 
L 194.830528 30.873409 
L 195.398218 32.18804 
L 195.954855 35.334816 
L 196.521249 29.656058 
L 197.658191 44.458893 
L 198.226272 33.238528 
L 198.787646 39.013463 
L 199.351159 40.284419 
L 199.914956 34.32636 
L 200.488537 39.242224 
L 201.05715 37.737351 
L 201.613459 37.114256 
L 202.186022 37.295265 
L 202.749891 39.71161 
L 203.324079 27.289705 
L 203.884479 30.964772 
L 204.452667 36.196326 
L 205.017658 33.365417 
L 205.576395 34.132931 
L 206.140565 38.386349 
L 206.713512 35.439299 
L 207.282187 37.915522 
L 207.840392 36.702607 
L 208.411568 32.85217 
L 208.97369 32.357627 
L 209.546117 34.336296 
L 210.111469 35.121844 
L 210.668214 33.792148 
L 211.240222 35.002249 
L 211.80828 35.453534 
L 212.365596 39.502674 
L 212.940231 33.095183 
L 213.507649 32.323129 
L 214.069425 33.441383 
L 214.640483 33.226571 
L 215.199514 36.147361 
L 215.772733 34.370566 
L 216.327531 40.165587 
L 216.903071 37.527016 
L 217.461926 26.367311 
L 218.032129 31.768818 
L 218.596435 45.937026 
L 219.157356 32.859014 
L 219.730502 32.992764 
L 220.862939 36.62707 
L 221.424947 34.912996 
L 221.98768 35.234624 
L 222.55812 36.031999 
L 223.126059 35.265243 
L 223.686732 28.612878 
L 224.261485 34.466841 
L 224.82557 28.742694 
L 225.390583 30.560966 
L 225.959637 34.44689 
L 226.515838 35.638911 
L 227.086432 28.829876 
L 228.21939 37.95245 
L 228.782331 32.605223 
L 229.344006 31.626443 
L 229.915216 40.201457 
L 230.47848 37.624062 
L 231.044048 35.796916 
L 231.6133 32.391038 
L 232.182241 36.425479 
L 232.742223 38.159988 
L 233.315125 36.894642 
L 233.879844 36.835127 
L 234.441841 37.139804 
L 235.007069 40.315636 
L 235.570345 31.15992 
L 236.707774 40.055165 
L 237.267297 22.558705 
L 238.400046 52.931421 
L 238.971222 31.355919 
L 239.53636 37.958018 
L 240.103597 36.460688 
L 240.668355 42.269426 
L 241.230352 37.946212 
L 241.800374 32.118231 
L 242.362569 37.977282 
L 242.929014 40.008184 
L 243.497722 34.037558 
L 244.064484 37.037759 
L 244.637709 35.530469 
L 245.202134 32.040084 
L 245.766457 41.775283 
L 246.322845 38.048986 
L 246.895045 35.360583 
L 247.457744 39.350851 
L 248.031127 44.816574 
L 248.586469 33.338614 
L 249.158375 36.177655 
L 249.726903 39.737672 
L 250.287371 31.346379 
L 250.858055 43.777668 
L 251.421925 39.818183 
L 251.986157 39.469524 
L 252.551103 42.697442 
L 253.114265 32.536029 
L 254.25681 36.041046 
L 254.824217 39.794336 
L 255.386378 38.574413 
L 255.949988 42.833142 
L 256.513693 31.515074 
L 257.080591 38.702696 
L 257.642995 41.444048 
L 258.215575 33.474175 
L 258.779881 30.448493 
L 259.346411 31.291653 
L 259.909868 30.537557 
L 260.476641 37.424833 
L 261.602989 34.252652 
L 262.170843 34.985293 
L 262.743151 29.279998 
L 263.306817 40.019559 
L 263.868276 32.925735 
L 264.443703 36.148768 
L 265.00841 38.051824 
L 265.574397 30.592503 
L 266.139936 37.172596 
L 266.697105 36.833114 
L 267.27114 33.983985 
L 267.830448 36.204707 
L 268.395512 37.32777 
L 268.972665 38.885478 
L 269.535862 31.393605 
L 270.101107 35.278544 
L 270.658282 35.694282 
L 271.226317 34.159608 
L 271.793249 31.041458 
L 272.356541 35.675734 
L 272.926308 31.015822 
L 273.497128 44.74901 
L 274.055916 33.098228 
L 274.621512 34.507774 
L 275.185976 38.279937 
L 275.760576 36.086389 
L 276.323145 28.917698 
L 276.886058 34.760895 
L 277.455605 37.067001 
L 278.022497 34.353808 
L 278.588189 35.679651 
L 279.157169 24.253536 
L 279.719109 34.474076 
L 280.286505 30.971048 
L 280.850907 35.992658 
L 281.412728 36.206556 
L 281.986169 31.76571 
L 282.543615 38.821137 
L 283.111758 36.268552 
L 283.683817 28.691695 
L 284.24548 29.261947 
L 284.808025 37.223018 
L 285.947175 27.98042 
L 286.506008 34.752392 
L 287.07642 43.935623 
L 287.644269 30.634245 
L 288.209361 38.685778 
L 288.778624 27.734235 
L 289.342562 33.663987 
L 289.902889 32.599836 
L 290.468469 31.204261 
L 291.037681 39.740789 
L 291.604833 37.225069 
L 292.165936 27.129662 
L 292.73782 33.443548 
L 293.297626 32.001294 
L 293.864224 31.285529 
L 294.437726 29.897358 
L 294.996503 28.103139 
L 295.566779 31.43939 
L 296.133615 32.577733 
L 296.701163 32.142229 
L 297.268463 33.966363 
L 297.825983 29.059783 
L 298.398591 34.087466 
L 298.958081 40.033252 
L 299.524893 29.767596 
L 300.091378 32.161199 
L 300.657942 33.975132 
L 301.222723 29.907845 
L 301.785467 31.753012 
L 302.357605 34.122654 
L 302.920756 35.08308 
L 303.485826 39.583533 
L 304.05376 35.377518 
L 304.626034 26.658662 
L 305.193186 36.523392 
L 305.753157 32.44173 
L 306.314967 37.526869 
L 306.87942 34.065106 
L 307.446498 34.221443 
L 308.020923 35.587331 
L 308.576728 32.219846 
L 309.142511 29.767575 
L 309.713376 41.340234 
L 310.282923 33.651175 
L 310.844914 35.138345 
L 311.407437 32.867324 
L 311.981669 35.237817 
L 312.544198 38.973452 
L 313.109132 35.611796 
L 313.675939 28.934784 
L 314.242673 35.280814 
L 314.809084 36.709274 
L 315.376078 31.86185 
L 315.945732 25.907468 
L 316.509273 21.5 
L 317.069798 37.346618 
L 317.643046 31.219701 
L 318.198472 33.619111 
L 318.774555 31.510424 
L 319.339517 34.323042 
L 319.896902 39.541328 
L 320.462843 28.550554 
L 321.032785 36.043497 
L 321.60193 33.928096 
L 322.170599 27.645849 
L 322.736637 28.940415 
L 323.298135 34.833256 
L 323.86067 36.744968 
L 324.42682 29.085912 
L 324.996848 31.137544 
L 325.555936 33.919087 
L 326.129794 29.35062 
L 326.697298 32.592065 
L 327.264835 32.266179 
L 328.39133 33.727865 
L 328.959393 26.43645 
L 329.519805 29.615614 
L 330.08522 30.334997 
L 330.656787 32.739255 
L 331.220657 32.897715 
L 331.786734 31.165286 
L 332.352263 33.779774 
L 332.913173 38.7725 
L 333.478825 30.334058 
L 334.052809 38.424115 
L 334.617403 29.001826 
L 335.177266 34.798249 
L 335.750418 34.355712 
L 336.318221 31.242877 
L 336.885447 40.248363 
L 337.44428 31.066071 
L 338.008789 36.091064 
L 338.580599 35.284495 
L 339.142483 32.318025 
L 339.7065 32.332546 
L 340.269646 36.825259 
L 340.845038 33.301046 
L 341.402977 36.831888 
L 341.976881 31.23055 
L 342.535556 32.993573 
L 343.109154 35.199259 
L 343.673296 40.60649 
L 344.233244 34.342099 
L 344.7988 38.908272 
L 345.370441 35.475174 
L 345.929511 34.144281 
L 346.497003 31.088216 
L 347.064835 37.506754 
L 347.629758 33.697827 
L 348.193192 32.152081 
L 348.761403 38.818146 
L 349.334084 29.028342 
L 350.463488 36.776858 
L 351.025072 40.324956 
L 351.596723 29.11958 
L 352.160293 30.49646 
L 352.7207 36.016007 
L 353.289414 33.421205 
L 353.853318 34.354503 
L 354.422655 37.512263 
L 354.985489 34.678629 
L 355.551295 32.888824 
L 356.119868 35.97801 
L 356.689329 31.829555 
L 357.252305 30.123007 
L 357.822429 39.827722 
L 358.382235 37.67496 
L 358.954311 33.197914 
L 359.516336 39.181386 
L 360.079142 30.442074 
L 360.64844 38.690878 
L 361.21446 38.889126 
L 361.785744 32.656517 
L 362.349167 38.05767 
L 362.90972 38.92741 
L 363.4735 31.807035 
L 364.043686 32.641266 
L 364.614256 36.811302 
L 365.176994 39.418044 
L 365.742194 38.466577 
L 366.308237 29.735124 
L 366.874416 41.620627 
L 367.437415 38.453668 
L 368.008008 40.887766 
L 368.571222 31.912453 
L 369.145199 35.775967 
L 369.709205 30.499058 
L 370.267733 41.85859 
L 370.83853 35.020115 
L 371.401568 36.628957 
L 371.972201 40.098431 
L 372.531073 36.412696 
L 373.10298 28.031292 
L 373.670115 26.982569 
L 374.23677 35.750832 
L 374.795331 35.900325 
L 375.36503 33.387962 
L 375.936982 37.192715 
L 376.491927 34.180118 
L 377.062401 35.745694 
L 377.628977 28.528754 
L 378.189785 37.175657 
L 378.758488 34.374512 
L 379.323269 35.538564 
L 379.886437 32.418865 
L 380.454625 33.788471 
L 381.031133 35.860837 
L 381.592699 38.522938 
L 382.16005 33.777445 
L 383.290472 36.59948 
L 384.423843 35.361518 
L 384.983005 27.074497 
L 385.54958 38.749286 
L 386.113778 33.864011 
L 386.68526 31.877614 
L 387.245927 24.521934 
L 387.811489 33.82387 
L 388.377238 35.572055 
L 388.947633 30.33744 
L 389.515453 33.023707 
L 390.07818 26.701019 
L 390.644619 40.032927 
L 391.212219 32.432287 
L 391.781454 27.369116 
L 392.337259 32.276809 
L 392.914514 34.922177 
L 393.47608 34.006623 
L 394.040952 36.379336 
L 394.606305 27.970189 
L 395.169897 35.728662 
L 395.734333 33.952023 
L 396.303421 38.133194 
L 396.874371 33.860259 
L 397.440069 40.498203 
L 398.001211 39.22926 
L 398.568098 40.748351 
L 399.133926 34.447787 
L 399.695045 34.510175 
L 400.264671 36.94589 
L 400.831008 35.276059 
L 401.397917 27.195537 
L 401.960005 38.176418 
L 402.524067 29.396586 
L 403.665814 35.872415 
L 404.221591 33.799447 
L 404.221591 33.799447 
" style="fill:none;stroke:#ff7f0e;stroke-linecap:square;stroke-width:1.5;"/>
   </g>
   <g id="patch_3">
    <path d="M 47.675 246.2 
L 47.675 10.8 
" style="fill:none;stroke:#000000;stroke-linecap:square;stroke-linejoin:miter;stroke-width:0.8;"/>
   </g>
   <g id="patch_4">
    <path d="M 421.2 246.2 
L 421.2 10.8 
" style="fill:none;stroke:#000000;stroke-linecap:square;stroke-linejoin:miter;stroke-width:0.8;"/>
   </g>
   <g id="patch_5">
    <path d="M 47.675 246.2 
L 421.2 246.2 
" style="fill:none;stroke:#000000;stroke-linecap:square;stroke-linejoin:miter;stroke-width:0.8;"/>
   </g>
   <g id="patch_6">
    <path d="M 47.675 10.8 
L 421.2 10.8 
" style="fill:none;stroke:#000000;stroke-linecap:square;stroke-linejoin:miter;stroke-width:0.8;"/>
   </g>
   <g id="legend_1">
    <g id="patch_7">
     <path d="M 307.626562 241.2 
L 414.2 241.2 
Q 416.2 241.2 416.2 239.2 
L 416.2 210.84375 
Q 416.2 208.84375 414.2 208.84375 
L 307.626562 208.84375 
Q 305.626562 208.84375 305.626562 210.84375 
L 305.626562 239.2 
Q 305.626562 241.2 307.626562 241.2 
z
" style="fill:#ffffff;opacity:0.8;stroke:#cccccc;stroke-linejoin:miter;"/>
    </g>
    <g id="line2d_29">
     <path d="M 309.626562 216.942187 
L 329.626562 216.942187 
" style="fill:none;stroke:#1f77b4;stroke-linecap:square;stroke-width:1.5;"/>
    </g>
    <g id="line2d_30"/>
    <g id="text_16">
     <!-- Simulation In -->
     <defs>
      <path d="M 53.515625 70.515625 
L 53.515625 60.890625 
Q 47.90625 63.578125 42.921875 64.890625 
Q 37.9375 66.21875 33.296875 66.21875 
Q 25.25 66.21875 20.875 63.09375 
Q 16.5 59.96875 16.5 54.203125 
Q 16.5 49.359375 19.40625 46.890625 
Q 22.3125 44.4375 30.421875 42.921875 
L 36.375 41.703125 
Q 47.40625 39.59375 52.65625 34.296875 
Q 57.90625 29 57.90625 20.125 
Q 57.90625 9.515625 50.796875 4.046875 
Q 43.703125 -1.421875 29.984375 -1.421875 
Q 24.8125 -1.421875 18.96875 -0.25 
Q 13.140625 0.921875 6.890625 3.21875 
L 6.890625 13.375 
Q 12.890625 10.015625 18.65625 8.296875 
Q 24.421875 6.59375 29.984375 6.59375 
Q 38.421875 6.59375 43.015625 9.90625 
Q 47.609375 13.234375 47.609375 19.390625 
Q 47.609375 24.75 44.3125 27.78125 
Q 41.015625 30.8125 33.5 32.328125 
L 27.484375 33.5 
Q 16.453125 35.6875 11.515625 40.375 
Q 6.59375 45.0625 6.59375 53.421875 
Q 6.59375 63.09375 13.40625 68.65625 
Q 20.21875 74.21875 32.171875 74.21875 
Q 37.3125 74.21875 42.625 73.28125 
Q 47.953125 72.359375 53.515625 70.515625 
z
" id="DejaVuSans-83"/>
      <path d="M 8.5 21.578125 
L 8.5 54.6875 
L 17.484375 54.6875 
L 17.484375 21.921875 
Q 17.484375 14.15625 20.5 10.265625 
Q 23.53125 6.390625 29.59375 6.390625 
Q 36.859375 6.390625 41.078125 11.03125 
Q 45.3125 15.671875 45.3125 23.6875 
L 45.3125 54.6875 
L 54.296875 54.6875 
L 54.296875 0 
L 45.3125 0 
L 45.3125 8.40625 
Q 42.046875 3.421875 37.71875 1 
Q 33.40625 -1.421875 27.6875 -1.421875 
Q 18.265625 -1.421875 13.375 4.4375 
Q 8.5 10.296875 8.5 21.578125 
z
M 31.109375 56 
z
" id="DejaVuSans-117"/>
      <path d="M 9.421875 75.984375 
L 18.40625 75.984375 
L 18.40625 0 
L 9.421875 0 
z
" id="DejaVuSans-108"/>
      <path d="M 54.890625 33.015625 
L 54.890625 0 
L 45.90625 0 
L 45.90625 32.71875 
Q 45.90625 40.484375 42.875 44.328125 
Q 39.84375 48.1875 33.796875 48.1875 
Q 26.515625 48.1875 22.3125 43.546875 
Q 18.109375 38.921875 18.109375 30.90625 
L 18.109375 0 
L 9.078125 0 
L 9.078125 54.6875 
L 18.109375 54.6875 
L 18.109375 46.1875 
Q 21.34375 51.125 25.703125 53.5625 
Q 30.078125 56 35.796875 56 
Q 45.21875 56 50.046875 50.171875 
Q 54.890625 44.34375 54.890625 33.015625 
z
" id="DejaVuSans-110"/>
      <path d="M 9.8125 72.90625 
L 19.671875 72.90625 
L 19.671875 0 
L 9.8125 0 
z
" id="DejaVuSans-73"/>
     </defs>
     <g transform="translate(337.626562 220.442187)scale(0.1 -0.1)">
      <use xlink:href="#DejaVuSans-83"/>
      <use x="63.476562" xlink:href="#DejaVuSans-105"/>
      <use x="91.259766" xlink:href="#DejaVuSans-109"/>
      <use x="188.671875" xlink:href="#DejaVuSans-117"/>
      <use x="252.050781" xlink:href="#DejaVuSans-108"/>
      <use x="279.833984" xlink:href="#DejaVuSans-97"/>
      <use x="341.113281" xlink:href="#DejaVuSans-116"/>
      <use x="380.322266" xlink:href="#DejaVuSans-105"/>
      <use x="408.105469" xlink:href="#DejaVuSans-111"/>
      <use x="469.287109" xlink:href="#DejaVuSans-110"/>
      <use x="532.666016" xlink:href="#DejaVuSans-32"/>
      <use x="564.453125" xlink:href="#DejaVuSans-73"/>
      <use x="593.945312" xlink:href="#DejaVuSans-110"/>
     </g>
    </g>
    <g id="line2d_31">
     <path d="M 309.626562 231.620312 
L 329.626562 231.620312 
" style="fill:none;stroke:#ff7f0e;stroke-linecap:square;stroke-width:1.5;"/>
    </g>
    <g id="line2d_32"/>
    <g id="text_17">
     <!-- Simulation Out -->
     <defs>
      <path d="M 39.40625 66.21875 
Q 28.65625 66.21875 22.328125 58.203125 
Q 16.015625 50.203125 16.015625 36.375 
Q 16.015625 22.609375 22.328125 14.59375 
Q 28.65625 6.59375 39.40625 6.59375 
Q 50.140625 6.59375 56.421875 14.59375 
Q 62.703125 22.609375 62.703125 36.375 
Q 62.703125 50.203125 56.421875 58.203125 
Q 50.140625 66.21875 39.40625 66.21875 
z
M 39.40625 74.21875 
Q 54.734375 74.21875 63.90625 63.9375 
Q 73.09375 53.65625 73.09375 36.375 
Q 73.09375 19.140625 63.90625 8.859375 
Q 54.734375 -1.421875 39.40625 -1.421875 
Q 24.03125 -1.421875 14.8125 8.828125 
Q 5.609375 19.09375 5.609375 36.375 
Q 5.609375 53.65625 14.8125 63.9375 
Q 24.03125 74.21875 39.40625 74.21875 
z
" id="DejaVuSans-79"/>
     </defs>
     <g transform="translate(337.626562 235.120312)scale(0.1 -0.1)">
      <use xlink:href="#DejaVuSans-83"/>
      <use x="63.476562" xlink:href="#DejaVuSans-105"/>
      <use x="91.259766" xlink:href="#DejaVuSans-109"/>
      <use x="188.671875" xlink:href="#DejaVuSans-117"/>
      <use x="252.050781" xlink:href="#DejaVuSans-108"/>
      <use x="279.833984" xlink:href="#DejaVuSans-97"/>
      <use x="341.113281" xlink:href="#DejaVuSans-116"/>
      <use x="380.322266" xlink:href="#DejaVuSans-105"/>
      <use x="408.105469" xlink:href="#DejaVuSans-111"/>
      <use x="469.287109" xlink:href="#DejaVuSans-110"/>
      <use x="532.666016" xlink:href="#DejaVuSans-32"/>
      <use x="564.453125" xlink:href="#DejaVuSans-79"/>
      <use x="643.164062" xlink:href="#DejaVuSans-117"/>
      <use x="706.542969" xlink:href="#DejaVuSans-116"/>
     </g>
    </g>
   </g>
  </g>
 </g>
 <defs>
  <clipPath id="peefa46490d">
   <rect height="235.4" width="373.525" x="47.675" y="10.8"/>
  </clipPath>
 </defs>
</svg>
