<?xml version="1.0" encoding="UTF-8" standalone="no"?>
<!DOCTYPE svg PUBLIC "-//W3C//DTD SVG 1.1//EN" "http://www.w3.org/Graphics/SVG/1.1/DTD/svg11.dtd">
<svg width="100%" height="100%" viewBox="0 0 396 337" version="1.1" xmlns="http://www.w3.org/2000/svg" xmlns:xlink="http://www.w3.org/1999/xlink" xml:space="preserve" xmlns:serif="http://www.serif.com/" style="fill-rule:evenodd;clip-rule:evenodd;stroke-linecap:round;stroke-linejoin:round;stroke-miterlimit:1.5;">
    <g transform="matrix(1,0,0,1,-93.3994,-633.724)">
        <path d="M147.489,970C137.83,963.093 118.511,949.28 110,937.614C102.144,926.845 99.068,911.269 96.421,900C94.127,890.236 93.517,880 94.114,870C94.711,860 96.622,849.614 100,840C103.513,830 109.792,817.66 115.195,810C119.706,803.604 125.851,798.301 132.415,794.038C139.007,789.757 152.234,783.852 154.747,784.314C157.259,784.776 149.91,792.646 147.489,796.811C145,801.092 141.481,805.885 139.815,810C138.347,813.626 137.49,819.021 137.49,821.503C137.49,822.872 138.518,824.451 139.815,824.891C141.481,825.455 145.216,826.065 147.489,824.891C150.778,823.191 156.286,818.543 159.549,814.691C162.768,810.891 165.143,806.373 167.067,801.779C169.488,795.995 172.674,787.489 174.078,779.989C175.687,771.392 177.869,760.098 176.721,750.193C175.553,740.109 170.729,726.8 167.067,719.486C164.375,714.11 158.01,708.992 154.747,706.312C152.733,704.659 145.436,704.474 147.489,703.41C149.542,702.345 160.938,698.983 167.067,699.924C173.196,700.864 179.512,705.792 184.263,709.053C188.49,711.955 192.335,715.505 195.568,719.486C199.146,723.892 203.05,731.227 205.732,735.489C207.73,738.663 210.095,742.019 211.658,745.055C213.078,747.815 214.069,750.779 215.106,753.704C217.17,759.527 221.509,771.977 224.043,779.989C226.323,787.195 228.515,795.936 230.312,801.779C231.684,806.243 233.186,811.192 234.824,815.044C236.283,818.476 238.242,823.249 240.139,824.891C241.668,826.214 244.675,825.455 246.206,824.891C247.646,824.359 248.897,822.977 249.326,821.503C250.269,818.263 251.59,810.86 251.862,805.45C252.284,797.038 252.284,779.179 251.862,771.036C251.608,766.155 250.502,761.337 249.326,756.593C247.994,751.219 245.399,743.903 243.868,738.789C242.586,734.507 238.427,725.908 240.139,725.908C241.851,725.908 250.325,734.393 254.14,738.789C257.671,742.857 260.527,747.525 263.031,752.281C265.535,757.037 267.658,762.707 269.165,767.325C270.509,771.443 271.192,775.749 272.074,779.989C273.015,784.514 274.168,790.23 274.814,794.473C275.367,798.11 275.373,802.443 275.949,805.45C276.414,807.882 276.112,813.731 278.267,812.51C280.808,811.07 286.678,801.865 291.196,796.811C296.945,790.382 305.082,781.068 312.758,773.935C321.119,766.166 334.572,756.425 341.36,750.193C345.843,746.078 350.314,741.739 353.486,736.545C359.606,726.522 372.585,702.939 378.081,690.055C382.257,680.265 384.297,668.512 386.462,659.243C388.375,651.054 388.266,636.301 391.073,634.44C393.879,632.58 399.615,643.211 403.299,648.08C407.875,654.127 414.323,663.107 418.528,670.724C422.577,678.058 426.064,685.774 428.531,693.78C432.027,705.124 437.305,727.216 439.503,738.789C441.028,746.823 441.329,755.053 441.713,763.221C442.327,776.292 441.75,807.501 443.186,817.214C443.593,819.962 448.566,821.865 450.331,821.503C452.096,821.141 453.062,817.377 453.777,815.044C455.18,810.466 457.199,801.065 458.746,794.038C460.397,786.538 463.218,776.764 463.682,770.042C464.061,764.562 460.088,754.157 461.532,753.704C462.977,753.251 469.622,762.21 472.351,767.325C476.184,774.51 482.04,789.28 484.53,796.811C486.198,801.856 486.944,807.208 487.291,812.51C487.857,821.162 489.476,836.751 487.93,848.725C486.353,860.936 483.737,874.419 477.833,885.776C467.844,904.989 433.473,957.074 428,964C422.527,970.926 440.156,939.906 444.995,927.334C450.515,912.992 458.426,890.999 461.12,877.947C463.068,868.504 463.204,852.475 461.155,849.021C459.106,845.567 453.704,856.478 448.824,857.223C443.925,857.97 435.971,856.853 431.762,853.504C427.554,850.156 424.941,843.08 423.572,837.134C421.629,828.69 420.683,814.313 420.103,802.838C419.387,788.636 420.341,765.529 419.272,751.924C418.457,741.55 416.419,730.794 413.692,721.207C411.058,711.946 406.483,693.173 402.914,694.408C399.345,695.644 395.862,719.134 392.279,728.622C389.315,736.471 385.879,744.224 381.419,751.331C376.762,758.754 370.765,766.522 364.337,773.157C357.109,780.617 345.677,789.169 338.055,796.092C331.414,802.123 324.374,809.016 318.603,814.691C313.456,819.753 307.607,825.327 303.431,830.145C299.787,834.349 296.432,838.839 293.547,843.597C289.746,849.866 283.419,861.847 280.623,867.757C278.921,871.354 278.21,876.866 276.77,879.056C275.829,880.486 272.419,882.552 271.979,880.899C270.912,876.899 271.149,861.717 270.371,855.06C269.813,850.283 268.447,845.634 267.311,840.96C266.173,836.28 265.396,826.461 263.543,826.976C261.689,827.49 257.958,839.835 256.191,844.048C255.054,846.761 254.594,849.892 252.943,852.253C251.292,854.614 248.978,857.21 246.284,858.214C243.589,859.218 239.738,859.399 236.775,858.275C233.7,857.109 229.811,854.459 227.833,851.217C224.843,846.316 221.376,835.622 218.833,828.871C216.577,822.88 214.276,815.857 212.58,810.714C211.192,806.505 210.32,802.119 208.656,798.012C206.871,793.608 204.64,788.578 201.872,784.292C199.065,779.946 193.556,771.931 191.813,771.932C190.069,771.934 191.168,780.183 191.412,784.301C191.714,789.398 193.311,798.24 193.622,802.513C193.801,804.984 193.491,807.469 193.277,809.937C192.929,813.944 192.836,821.377 191.537,826.553C190.267,831.614 187.703,836.598 185.485,840.989C183.39,845.138 181.392,849.49 178.23,852.897C174.872,856.515 169.83,860.019 165.337,862.7C160.927,865.331 155.785,868.228 151.27,868.982C146.95,869.703 142.059,868.409 138.248,867.222C134.681,866.112 130.988,864.221 128.405,861.864C125.833,859.517 123.706,856.429 122.748,853.081C121.69,849.38 124.057,838.178 122.053,839.654C120.05,841.131 113.549,854.737 110.726,861.938C108.09,868.661 106.293,876.19 105.116,882.861C104.006,889.149 103.495,896.215 103.661,901.961C103.81,907.15 104.512,912.401 106.11,917.34C108.005,923.198 110.564,931.426 115.032,937.111C121.243,945.016 138.207,960.915 145.468,968C146.269,968.781 146.952,969.456 147.489,970" style="fill:rgb(153,0,0);stroke:black;stroke-width:1px;"/>
        <path d="M428.531,962.58C432.466,954.865 440.335,939.435 444.995,927.334C450.427,913.229 458.426,890.999 461.12,877.947C463.068,868.504 463.204,852.475 461.155,849.021C459.106,845.567 453.704,856.478 448.824,857.223C443.925,857.97 435.971,856.853 431.762,853.504C427.554,850.156 424.941,843.08 423.572,837.134C421.629,828.69 420.683,814.313 420.103,802.838C419.387,788.636 420.341,765.529 419.272,751.924C418.457,741.55 416.419,730.794 413.692,721.207C411.058,711.946 406.483,693.173 402.914,694.408C399.345,695.644 395.862,719.134 392.279,728.622C389.315,736.471 385.879,744.224 381.419,751.331C376.762,758.754 370.765,766.522 364.337,773.157C357.109,780.617 345.677,789.169 338.055,796.092C331.414,802.123 324.374,809.016 318.603,814.691C313.456,819.753 307.607,825.327 303.431,830.145C299.787,834.349 296.432,838.839 293.547,843.597C289.746,849.866 283.419,861.847 280.623,867.757C278.921,871.354 278.21,876.866 276.77,879.056C275.829,880.486 272.419,882.552 271.979,880.899C270.912,876.899 271.149,861.717 270.371,855.06C269.813,850.283 268.447,845.634 267.311,840.96C266.173,836.28 265.396,826.461 263.543,826.976C261.689,827.49 257.958,839.835 256.191,844.048C255.054,846.761 254.594,849.892 252.943,852.253C251.292,854.614 248.978,857.21 246.284,858.214C243.589,859.218 239.738,859.399 236.775,858.275C233.7,857.109 229.811,854.459 227.833,851.217C224.843,846.316 221.376,835.622 218.833,828.871C216.577,822.88 214.276,815.857 212.58,810.714C211.192,806.505 210.32,802.119 208.656,798.012C206.871,793.608 204.64,788.578 201.872,784.292C199.065,779.946 193.556,771.931 191.813,771.932C190.069,771.934 191.168,780.183 191.412,784.301C191.714,789.398 193.311,798.24 193.622,802.513C193.801,804.984 193.491,807.469 193.277,809.937C192.929,813.944 192.836,821.377 191.537,826.553C190.267,831.614 187.703,836.598 185.485,840.989C183.39,845.138 181.392,849.49 178.23,852.897C174.872,856.515 169.83,860.019 165.337,862.7C160.927,865.331 155.785,868.228 151.27,868.982C146.95,869.703 142.059,868.409 138.248,867.222C134.681,866.112 130.988,864.221 128.405,861.864C125.833,859.517 123.706,856.429 122.748,853.081C121.69,849.38 124.057,838.178 122.053,839.654C120.05,841.131 113.549,854.737 110.726,861.938C108.09,868.661 106.293,876.19 105.116,882.861C104.006,889.149 103.495,896.215 103.661,901.961C103.81,907.15 104.512,912.401 106.11,917.34C108.005,923.198 110.564,931.426 115.032,937.111C121.928,945.887 142.079,964.518 147.489,970C147.489,970 147.795,970.035 147.746,969.964C143.488,963.919 126.861,944.117 121.941,933.727C118.179,925.786 118.841,914.687 118.222,907.629C117.748,902.234 117.073,892.029 118.222,891.38C119.37,890.731 122.714,900.235 125.114,903.736C127.272,906.884 129.272,910.942 132.622,912.383C135.972,913.824 141.688,914.662 145.212,912.383C148.888,910.006 151.93,903.124 154.673,898.122C158.014,892.033 163.042,875.588 165.257,875.846C167.471,876.103 166.374,895.293 167.963,899.669C168.787,901.939 172.647,903.221 174.787,902.102C177.43,900.72 181.684,895.538 183.817,891.38C186.712,885.736 189.609,874.771 192.157,868.236C194.277,862.8 197.948,855.998 199.107,852.171C199.773,849.97 198.007,843.253 199.107,845.273C200.23,847.338 202.547,858.603 205.849,864.559C209.454,871.062 216.275,879.615 220.737,884.289C224.076,887.787 230.216,889.077 232.624,892.605C235.031,896.133 234.534,901.139 235.182,905.459C235.969,910.701 236.985,919.522 237.345,924.057C237.573,926.919 235.967,933.753 237.345,932.67C238.723,931.586 243.001,922.091 245.614,917.556C247.974,913.459 251.14,904.636 253.019,905.459C254.898,906.283 255.508,917.784 256.889,922.495C258.021,926.356 259.679,930.637 261.305,933.727C262.709,936.397 265.016,942.037 266.641,941.037C268.266,940.037 270.414,932.357 271.056,927.727C271.792,922.422 271.056,914.138 271.056,909.204C271.056,905.51 269.407,898.385 271.056,898.122C272.706,897.86 277.91,906.966 280.953,907.629C283.997,908.292 287.313,904.775 289.318,902.102C291.986,898.544 294.117,891.401 296.962,886.282C300.279,880.311 304.497,872.507 309.226,866.277C314.117,859.832 320.274,853.504 326.31,847.613C333.84,840.266 345.272,830.915 354.405,822.191C364.267,812.771 378.597,798.944 385.485,791.091C389.664,786.325 394.022,773.257 395.73,775.071C397.437,776.885 396.028,793.012 395.73,801.975C395.422,811.244 392.978,821.139 393.881,830.687C394.818,840.595 398.495,853.509 401.354,861.42C403.544,867.48 407.23,874.629 411.033,878.153C414.422,881.294 419.636,881.686 424.172,882.567C429.435,883.59 437.755,885.025 442.617,884.289C446.69,883.673 452.6,875.185 453.344,878.153C454.088,881.122 449.395,894.182 447.081,902.102C444.018,912.582 438.231,930.847 434.967,941.037C432.585,948.473 429.192,958.316 427.496,963.238" style="fill:rgb(250,98,0);stroke:black;stroke-width:1px;"/>
        <path d="M427.496,963.238C429.192,958.316 432.585,948.473 434.967,941.037C438.231,930.847 444.018,912.582 447.081,902.102C449.395,894.182 454.088,881.122 453.344,878.153C452.6,875.185 446.69,883.673 442.617,884.289C437.755,885.025 429.435,883.59 424.172,882.567C419.636,881.686 414.422,881.294 411.033,878.153C407.23,874.629 403.544,867.48 401.354,861.42C398.495,853.509 394.818,840.595 393.881,830.687C392.978,821.139 395.422,811.244 395.73,801.975C396.028,793.012 397.437,776.885 395.73,775.071C394.022,773.257 389.664,786.325 385.485,791.091C378.597,798.944 364.267,812.771 354.405,822.191C345.272,830.915 333.84,840.266 326.31,847.613C320.274,853.504 314.117,859.832 309.226,866.277C304.497,872.507 300.279,880.311 296.962,886.282C294.117,891.401 291.986,898.544 289.318,902.102C287.313,904.775 283.997,908.292 280.953,907.629C277.91,906.966 272.706,897.86 271.056,898.122C269.407,898.385 271.056,905.51 271.056,909.204C271.056,914.138 271.792,922.422 271.056,927.727C270.414,932.357 268.266,940.037 266.641,941.037C265.016,942.037 262.709,936.397 261.305,933.727C259.679,930.637 258.021,926.356 256.889,922.495C255.508,917.784 254.898,906.283 253.019,905.459C251.14,904.636 247.974,913.459 245.614,917.556C243.001,922.091 238.723,931.586 237.345,932.67C235.967,933.753 237.573,926.919 237.345,924.057C236.985,919.522 235.969,910.701 235.182,905.459C234.534,901.139 235.031,896.133 232.624,892.605C230.216,889.077 224.076,887.787 220.737,884.289C216.275,879.615 209.454,871.062 205.849,864.559C202.547,858.603 200.23,847.338 199.107,845.273C198.007,843.253 199.773,849.97 199.107,852.171C197.948,855.998 194.277,862.8 192.157,868.236C189.609,874.771 186.712,885.736 183.817,891.38C181.684,895.538 177.43,900.72 174.787,902.102C172.647,903.221 168.787,901.939 167.963,899.669C166.374,895.293 167.471,876.103 165.257,875.846C163.042,875.588 158.014,892.033 154.673,898.122C151.93,903.124 148.888,910.006 145.212,912.383C141.688,914.662 135.972,913.824 132.622,912.383C129.272,910.942 127.272,906.884 125.114,903.736C122.714,900.235 119.37,890.731 118.222,891.38C117.073,892.029 117.748,902.234 118.222,907.629C118.841,914.687 118.257,925.749 121.941,933.727C126.737,944.117 143.302,967.594 147,969.964C150.698,972.334 144.228,954.384 144.131,947.945C144.046,942.357 144.991,935.234 146.416,931.334C147.471,928.443 150.353,924.029 152.676,924.547C154.999,925.065 157.744,931.692 160.353,934.442C162.729,936.945 165.093,940.193 168.33,941.044C171.567,941.895 176.518,941.596 179.775,939.548C183.779,937.03 189.559,930.035 192.354,925.936C194.561,922.7 196.062,918.844 196.543,914.956C197.241,909.313 194.05,893.929 196.543,892.078C199.036,890.228 208.057,898.524 211.498,903.855C214.991,909.267 216.259,918.806 217.5,924.547C218.474,929.053 219.073,934.403 218.943,938.303C218.833,941.599 215.726,945.993 216.719,947.945C217.712,949.897 222.41,950.268 224.902,950.016C227.394,949.763 230.069,945.699 231.671,946.429C233.272,947.16 233.436,952.419 234.511,954.401C235.357,955.962 236.536,959.05 238.12,958.319C239.705,957.589 242.554,953.079 244.018,950.016C246.033,945.8 247.854,933.027 250.208,933.027C252.562,933.027 255.627,946.114 258.141,950.016C259.876,952.708 262.309,955.268 265.292,956.435C268.428,957.661 274.172,958.444 276.957,957.374C279.732,956.307 281.478,952.943 281.998,950.016C282.838,945.281 282.177,933.961 281.998,928.968C281.89,925.977 279.502,920.792 280.923,920.055C282.345,919.318 287.751,922.361 290.529,924.547C294.392,927.588 301.171,935.553 304.106,938.303C305.291,939.414 307.639,942.59 308.137,941.044C308.938,938.557 308.35,929.248 308.911,923.382C309.627,915.902 309.782,904.616 312.43,896.164C315.076,887.718 322.739,872.903 324.801,872.669C326.863,872.434 323.331,887.708 324.801,894.756C326.27,901.804 330.43,909.76 333.618,914.956C336.242,919.236 341.76,925.936 343.925,925.936C346.089,925.936 347.514,918.613 346.606,914.956C345.527,910.616 338.828,905.392 337.454,899.892C336.08,894.392 337.779,887.915 338.359,881.958C339.013,875.25 338.678,865.677 341.373,859.644C343.973,853.822 350.992,848.864 354.527,845.756C356.87,843.696 359.711,839.781 362.585,840.995C365.577,842.259 369.747,848.832 372.482,853.343C376.323,859.678 382.073,872.353 385.635,879.005C388.223,883.839 390.637,891.755 393.853,893.255C397.068,894.754 401.775,885.675 404.928,888.002C408.082,890.329 411.926,900.349 412.772,907.215C413.779,915.383 410.61,930.883 410.968,937.011C411.124,939.678 413.201,943.982 414.923,943.982C416.645,943.982 419.963,939.862 421.301,937.011C423.092,933.198 423.714,922.949 425.667,921.103C427.62,919.258 431.488,924.787 433.02,925.936C433.757,926.489 434.992,927.088 434.859,927.999C433.952,934.193 429.702,953.465 427.578,963.102" style="fill:rgb(243,181,0);stroke:black;stroke-width:1px;"/>
    </g>
</svg>
