<?xml version="1.0" encoding="utf-8" standalone="no"?>
<!DOCTYPE svg PUBLIC "-//W3C//DTD SVG 1.1//EN"
  "http://www.w3.org/Graphics/SVG/1.1/DTD/svg11.dtd">
<svg height="265.995469pt" version="1.1" viewBox="0 0 385.78125 265.995469" width="385.78125pt" xmlns="http://www.w3.org/2000/svg" xmlns:xlink="http://www.w3.org/1999/xlink">
 <metadata>
  <rdf:RDF xmlns:cc="http://creativecommons.org/ns#" xmlns:dc="http://purl.org/dc/elements/1.1/" xmlns:rdf="http://www.w3.org/1999/02/22-rdf-syntax-ns#">
   <cc:Work>
    <dc:type rdf:resource="http://purl.org/dc/dcmitype/StillImage"/>
    <dc:date>2021-05-13T20:21:18.886271</dc:date>
    <dc:format>image/svg+xml</dc:format>
    <dc:creator>
     <cc:Agent>
      <dc:title>Matplotlib v3.4.1, https://matplotlib.org/</dc:title>
     </cc:Agent>
    </dc:creator>
   </cc:Work>
  </rdf:RDF>
 </metadata>
 <defs>
  <style type="text/css">*{stroke-linecap:butt;stroke-linejoin:round;}</style>
 </defs>
 <g id="figure_1">
  <g id="patch_1">
   <path d="M 0 265.995469 
L 385.78125 265.995469 
L 385.78125 0 
L 0 0 
z
" style="fill:none;"/>
  </g>
  <g id="axes_1">
   <g id="patch_2">
    <path d="M 43.78125 228.439219 
L 378.58125 228.439219 
L 378.58125 10.999219 
L 43.78125 10.999219 
z
" style="fill:#ffffff;"/>
   </g>
   <g id="matplotlib.axis_1">
    <g id="xtick_1">
     <g id="line2d_1">
      <path clip-path="url(#p262d8a2f9f)" d="M 58.999432 228.439219 
L 58.999432 10.999219 
" style="fill:none;stroke:#b0b0b0;stroke-linecap:square;stroke-width:0.8;"/>
     </g>
     <g id="line2d_2">
      <defs>
       <path d="M 0 0 
L 0 3.5 
" id="m70be25caf2" style="stroke:#000000;stroke-width:0.8;"/>
      </defs>
      <g>
       <use style="stroke:#000000;stroke-width:0.8;" x="58.999432" xlink:href="#m70be25caf2" y="228.439219"/>
      </g>
     </g>
     <g id="text_1">
      <!-- −1 -->
      <g transform="translate(51.628338 243.037656)scale(0.1 -0.1)">
       <defs>
        <path d="M 678 2272 
L 4684 2272 
L 4684 1741 
L 678 1741 
L 678 2272 
z
" id="DejaVuSans-2212" transform="scale(0.015625)"/>
        <path d="M 794 531 
L 1825 531 
L 1825 4091 
L 703 3866 
L 703 4441 
L 1819 4666 
L 2450 4666 
L 2450 531 
L 3481 531 
L 3481 0 
L 794 0 
L 794 531 
z
" id="DejaVuSans-31" transform="scale(0.015625)"/>
       </defs>
       <use xlink:href="#DejaVuSans-2212"/>
       <use x="83.789062" xlink:href="#DejaVuSans-31"/>
      </g>
     </g>
    </g>
    <g id="xtick_2">
     <g id="line2d_3">
      <path clip-path="url(#p262d8a2f9f)" d="M 109.726705 228.439219 
L 109.726705 10.999219 
" style="fill:none;stroke:#b0b0b0;stroke-linecap:square;stroke-width:0.8;"/>
     </g>
     <g id="line2d_4">
      <g>
       <use style="stroke:#000000;stroke-width:0.8;" x="109.726705" xlink:href="#m70be25caf2" y="228.439219"/>
      </g>
     </g>
     <g id="text_2">
      <!-- 0 -->
      <g transform="translate(106.545455 243.037656)scale(0.1 -0.1)">
       <defs>
        <path d="M 2034 4250 
Q 1547 4250 1301 3770 
Q 1056 3291 1056 2328 
Q 1056 1369 1301 889 
Q 1547 409 2034 409 
Q 2525 409 2770 889 
Q 3016 1369 3016 2328 
Q 3016 3291 2770 3770 
Q 2525 4250 2034 4250 
z
M 2034 4750 
Q 2819 4750 3233 4129 
Q 3647 3509 3647 2328 
Q 3647 1150 3233 529 
Q 2819 -91 2034 -91 
Q 1250 -91 836 529 
Q 422 1150 422 2328 
Q 422 3509 836 4129 
Q 1250 4750 2034 4750 
z
" id="DejaVuSans-30" transform="scale(0.015625)"/>
       </defs>
       <use xlink:href="#DejaVuSans-30"/>
      </g>
     </g>
    </g>
    <g id="xtick_3">
     <g id="line2d_5">
      <path clip-path="url(#p262d8a2f9f)" d="M 160.453977 228.439219 
L 160.453977 10.999219 
" style="fill:none;stroke:#b0b0b0;stroke-linecap:square;stroke-width:0.8;"/>
     </g>
     <g id="line2d_6">
      <g>
       <use style="stroke:#000000;stroke-width:0.8;" x="160.453977" xlink:href="#m70be25caf2" y="228.439219"/>
      </g>
     </g>
     <g id="text_3">
      <!-- 1 -->
      <g transform="translate(157.272727 243.037656)scale(0.1 -0.1)">
       <use xlink:href="#DejaVuSans-31"/>
      </g>
     </g>
    </g>
    <g id="xtick_4">
     <g id="line2d_7">
      <path clip-path="url(#p262d8a2f9f)" d="M 211.18125 228.439219 
L 211.18125 10.999219 
" style="fill:none;stroke:#b0b0b0;stroke-linecap:square;stroke-width:0.8;"/>
     </g>
     <g id="line2d_8">
      <g>
       <use style="stroke:#000000;stroke-width:0.8;" x="211.18125" xlink:href="#m70be25caf2" y="228.439219"/>
      </g>
     </g>
     <g id="text_4">
      <!-- 2 -->
      <g transform="translate(208 243.037656)scale(0.1 -0.1)">
       <defs>
        <path d="M 1228 531 
L 3431 531 
L 3431 0 
L 469 0 
L 469 531 
Q 828 903 1448 1529 
Q 2069 2156 2228 2338 
Q 2531 2678 2651 2914 
Q 2772 3150 2772 3378 
Q 2772 3750 2511 3984 
Q 2250 4219 1831 4219 
Q 1534 4219 1204 4116 
Q 875 4013 500 3803 
L 500 4441 
Q 881 4594 1212 4672 
Q 1544 4750 1819 4750 
Q 2544 4750 2975 4387 
Q 3406 4025 3406 3419 
Q 3406 3131 3298 2873 
Q 3191 2616 2906 2266 
Q 2828 2175 2409 1742 
Q 1991 1309 1228 531 
z
" id="DejaVuSans-32" transform="scale(0.015625)"/>
       </defs>
       <use xlink:href="#DejaVuSans-32"/>
      </g>
     </g>
    </g>
    <g id="xtick_5">
     <g id="line2d_9">
      <path clip-path="url(#p262d8a2f9f)" d="M 261.908523 228.439219 
L 261.908523 10.999219 
" style="fill:none;stroke:#b0b0b0;stroke-linecap:square;stroke-width:0.8;"/>
     </g>
     <g id="line2d_10">
      <g>
       <use style="stroke:#000000;stroke-width:0.8;" x="261.908523" xlink:href="#m70be25caf2" y="228.439219"/>
      </g>
     </g>
     <g id="text_5">
      <!-- 3 -->
      <g transform="translate(258.727273 243.037656)scale(0.1 -0.1)">
       <defs>
        <path d="M 2597 2516 
Q 3050 2419 3304 2112 
Q 3559 1806 3559 1356 
Q 3559 666 3084 287 
Q 2609 -91 1734 -91 
Q 1441 -91 1130 -33 
Q 819 25 488 141 
L 488 750 
Q 750 597 1062 519 
Q 1375 441 1716 441 
Q 2309 441 2620 675 
Q 2931 909 2931 1356 
Q 2931 1769 2642 2001 
Q 2353 2234 1838 2234 
L 1294 2234 
L 1294 2753 
L 1863 2753 
Q 2328 2753 2575 2939 
Q 2822 3125 2822 3475 
Q 2822 3834 2567 4026 
Q 2313 4219 1838 4219 
Q 1578 4219 1281 4162 
Q 984 4106 628 3988 
L 628 4550 
Q 988 4650 1302 4700 
Q 1616 4750 1894 4750 
Q 2613 4750 3031 4423 
Q 3450 4097 3450 3541 
Q 3450 3153 3228 2886 
Q 3006 2619 2597 2516 
z
" id="DejaVuSans-33" transform="scale(0.015625)"/>
       </defs>
       <use xlink:href="#DejaVuSans-33"/>
      </g>
     </g>
    </g>
    <g id="xtick_6">
     <g id="line2d_11">
      <path clip-path="url(#p262d8a2f9f)" d="M 312.635795 228.439219 
L 312.635795 10.999219 
" style="fill:none;stroke:#b0b0b0;stroke-linecap:square;stroke-width:0.8;"/>
     </g>
     <g id="line2d_12">
      <g>
       <use style="stroke:#000000;stroke-width:0.8;" x="312.635795" xlink:href="#m70be25caf2" y="228.439219"/>
      </g>
     </g>
     <g id="text_6">
      <!-- 4 -->
      <g transform="translate(309.454545 243.037656)scale(0.1 -0.1)">
       <defs>
        <path d="M 2419 4116 
L 825 1625 
L 2419 1625 
L 2419 4116 
z
M 2253 4666 
L 3047 4666 
L 3047 1625 
L 3713 1625 
L 3713 1100 
L 3047 1100 
L 3047 0 
L 2419 0 
L 2419 1100 
L 313 1100 
L 313 1709 
L 2253 4666 
z
" id="DejaVuSans-34" transform="scale(0.015625)"/>
       </defs>
       <use xlink:href="#DejaVuSans-34"/>
      </g>
     </g>
    </g>
    <g id="xtick_7">
     <g id="line2d_13">
      <path clip-path="url(#p262d8a2f9f)" d="M 363.363068 228.439219 
L 363.363068 10.999219 
" style="fill:none;stroke:#b0b0b0;stroke-linecap:square;stroke-width:0.8;"/>
     </g>
     <g id="line2d_14">
      <g>
       <use style="stroke:#000000;stroke-width:0.8;" x="363.363068" xlink:href="#m70be25caf2" y="228.439219"/>
      </g>
     </g>
     <g id="text_7">
      <!-- 5 -->
      <g transform="translate(360.181818 243.037656)scale(0.1 -0.1)">
       <defs>
        <path d="M 691 4666 
L 3169 4666 
L 3169 4134 
L 1269 4134 
L 1269 2991 
Q 1406 3038 1543 3061 
Q 1681 3084 1819 3084 
Q 2600 3084 3056 2656 
Q 3513 2228 3513 1497 
Q 3513 744 3044 326 
Q 2575 -91 1722 -91 
Q 1428 -91 1123 -41 
Q 819 9 494 109 
L 494 744 
Q 775 591 1075 516 
Q 1375 441 1709 441 
Q 2250 441 2565 725 
Q 2881 1009 2881 1497 
Q 2881 1984 2565 2268 
Q 2250 2553 1709 2553 
Q 1456 2553 1204 2497 
Q 953 2441 691 2322 
L 691 4666 
z
" id="DejaVuSans-35" transform="scale(0.015625)"/>
       </defs>
       <use xlink:href="#DejaVuSans-35"/>
      </g>
     </g>
    </g>
    <g id="text_8">
     <!-- x -->
     <g transform="translate(208.221875 256.715781)scale(0.1 -0.1)">
      <defs>
       <path d="M 3513 3500 
L 2247 1797 
L 3578 0 
L 2900 0 
L 1881 1375 
L 863 0 
L 184 0 
L 1544 1831 
L 300 3500 
L 978 3500 
L 1906 2253 
L 2834 3500 
L 3513 3500 
z
" id="DejaVuSans-78" transform="scale(0.015625)"/>
      </defs>
      <use xlink:href="#DejaVuSans-78"/>
     </g>
    </g>
   </g>
   <g id="matplotlib.axis_2">
    <g id="ytick_1">
     <g id="line2d_15">
      <path clip-path="url(#p262d8a2f9f)" d="M 43.78125 228.439219 
L 378.58125 228.439219 
" style="fill:none;stroke:#b0b0b0;stroke-linecap:square;stroke-width:0.8;"/>
     </g>
     <g id="line2d_16">
      <defs>
       <path d="M 0 0 
L -3.5 0 
" id="m308550ef52" style="stroke:#000000;stroke-width:0.8;"/>
      </defs>
      <g>
       <use style="stroke:#000000;stroke-width:0.8;" x="43.78125" xlink:href="#m308550ef52" y="228.439219"/>
      </g>
     </g>
     <g id="text_9">
      <!-- 0.3 -->
      <g transform="translate(20.878125 232.238437)scale(0.1 -0.1)">
       <defs>
        <path d="M 684 794 
L 1344 794 
L 1344 0 
L 684 0 
L 684 794 
z
" id="DejaVuSans-2e" transform="scale(0.015625)"/>
       </defs>
       <use xlink:href="#DejaVuSans-30"/>
       <use x="63.623047" xlink:href="#DejaVuSans-2e"/>
       <use x="95.410156" xlink:href="#DejaVuSans-33"/>
      </g>
     </g>
    </g>
    <g id="ytick_2">
     <g id="line2d_17">
      <path clip-path="url(#p262d8a2f9f)" d="M 43.78125 201.259219 
L 378.58125 201.259219 
" style="fill:none;stroke:#b0b0b0;stroke-linecap:square;stroke-width:0.8;"/>
     </g>
     <g id="line2d_18">
      <g>
       <use style="stroke:#000000;stroke-width:0.8;" x="43.78125" xlink:href="#m308550ef52" y="201.259219"/>
      </g>
     </g>
     <g id="text_10">
      <!-- 0.4 -->
      <g transform="translate(20.878125 205.058437)scale(0.1 -0.1)">
       <use xlink:href="#DejaVuSans-30"/>
       <use x="63.623047" xlink:href="#DejaVuSans-2e"/>
       <use x="95.410156" xlink:href="#DejaVuSans-34"/>
      </g>
     </g>
    </g>
    <g id="ytick_3">
     <g id="line2d_19">
      <path clip-path="url(#p262d8a2f9f)" d="M 43.78125 174.079219 
L 378.58125 174.079219 
" style="fill:none;stroke:#b0b0b0;stroke-linecap:square;stroke-width:0.8;"/>
     </g>
     <g id="line2d_20">
      <g>
       <use style="stroke:#000000;stroke-width:0.8;" x="43.78125" xlink:href="#m308550ef52" y="174.079219"/>
      </g>
     </g>
     <g id="text_11">
      <!-- 0.5 -->
      <g transform="translate(20.878125 177.878437)scale(0.1 -0.1)">
       <use xlink:href="#DejaVuSans-30"/>
       <use x="63.623047" xlink:href="#DejaVuSans-2e"/>
       <use x="95.410156" xlink:href="#DejaVuSans-35"/>
      </g>
     </g>
    </g>
    <g id="ytick_4">
     <g id="line2d_21">
      <path clip-path="url(#p262d8a2f9f)" d="M 43.78125 146.899219 
L 378.58125 146.899219 
" style="fill:none;stroke:#b0b0b0;stroke-linecap:square;stroke-width:0.8;"/>
     </g>
     <g id="line2d_22">
      <g>
       <use style="stroke:#000000;stroke-width:0.8;" x="43.78125" xlink:href="#m308550ef52" y="146.899219"/>
      </g>
     </g>
     <g id="text_12">
      <!-- 0.6 -->
      <g transform="translate(20.878125 150.698437)scale(0.1 -0.1)">
       <defs>
        <path d="M 2113 2584 
Q 1688 2584 1439 2293 
Q 1191 2003 1191 1497 
Q 1191 994 1439 701 
Q 1688 409 2113 409 
Q 2538 409 2786 701 
Q 3034 994 3034 1497 
Q 3034 2003 2786 2293 
Q 2538 2584 2113 2584 
z
M 3366 4563 
L 3366 3988 
Q 3128 4100 2886 4159 
Q 2644 4219 2406 4219 
Q 1781 4219 1451 3797 
Q 1122 3375 1075 2522 
Q 1259 2794 1537 2939 
Q 1816 3084 2150 3084 
Q 2853 3084 3261 2657 
Q 3669 2231 3669 1497 
Q 3669 778 3244 343 
Q 2819 -91 2113 -91 
Q 1303 -91 875 529 
Q 447 1150 447 2328 
Q 447 3434 972 4092 
Q 1497 4750 2381 4750 
Q 2619 4750 2861 4703 
Q 3103 4656 3366 4563 
z
" id="DejaVuSans-36" transform="scale(0.015625)"/>
       </defs>
       <use xlink:href="#DejaVuSans-30"/>
       <use x="63.623047" xlink:href="#DejaVuSans-2e"/>
       <use x="95.410156" xlink:href="#DejaVuSans-36"/>
      </g>
     </g>
    </g>
    <g id="ytick_5">
     <g id="line2d_23">
      <path clip-path="url(#p262d8a2f9f)" d="M 43.78125 119.719219 
L 378.58125 119.719219 
" style="fill:none;stroke:#b0b0b0;stroke-linecap:square;stroke-width:0.8;"/>
     </g>
     <g id="line2d_24">
      <g>
       <use style="stroke:#000000;stroke-width:0.8;" x="43.78125" xlink:href="#m308550ef52" y="119.719219"/>
      </g>
     </g>
     <g id="text_13">
      <!-- 0.7 -->
      <g transform="translate(20.878125 123.518437)scale(0.1 -0.1)">
       <defs>
        <path d="M 525 4666 
L 3525 4666 
L 3525 4397 
L 1831 0 
L 1172 0 
L 2766 4134 
L 525 4134 
L 525 4666 
z
" id="DejaVuSans-37" transform="scale(0.015625)"/>
       </defs>
       <use xlink:href="#DejaVuSans-30"/>
       <use x="63.623047" xlink:href="#DejaVuSans-2e"/>
       <use x="95.410156" xlink:href="#DejaVuSans-37"/>
      </g>
     </g>
    </g>
    <g id="ytick_6">
     <g id="line2d_25">
      <path clip-path="url(#p262d8a2f9f)" d="M 43.78125 92.539219 
L 378.58125 92.539219 
" style="fill:none;stroke:#b0b0b0;stroke-linecap:square;stroke-width:0.8;"/>
     </g>
     <g id="line2d_26">
      <g>
       <use style="stroke:#000000;stroke-width:0.8;" x="43.78125" xlink:href="#m308550ef52" y="92.539219"/>
      </g>
     </g>
     <g id="text_14">
      <!-- 0.8 -->
      <g transform="translate(20.878125 96.338437)scale(0.1 -0.1)">
       <defs>
        <path d="M 2034 2216 
Q 1584 2216 1326 1975 
Q 1069 1734 1069 1313 
Q 1069 891 1326 650 
Q 1584 409 2034 409 
Q 2484 409 2743 651 
Q 3003 894 3003 1313 
Q 3003 1734 2745 1975 
Q 2488 2216 2034 2216 
z
M 1403 2484 
Q 997 2584 770 2862 
Q 544 3141 544 3541 
Q 544 4100 942 4425 
Q 1341 4750 2034 4750 
Q 2731 4750 3128 4425 
Q 3525 4100 3525 3541 
Q 3525 3141 3298 2862 
Q 3072 2584 2669 2484 
Q 3125 2378 3379 2068 
Q 3634 1759 3634 1313 
Q 3634 634 3220 271 
Q 2806 -91 2034 -91 
Q 1263 -91 848 271 
Q 434 634 434 1313 
Q 434 1759 690 2068 
Q 947 2378 1403 2484 
z
M 1172 3481 
Q 1172 3119 1398 2916 
Q 1625 2713 2034 2713 
Q 2441 2713 2670 2916 
Q 2900 3119 2900 3481 
Q 2900 3844 2670 4047 
Q 2441 4250 2034 4250 
Q 1625 4250 1398 4047 
Q 1172 3844 1172 3481 
z
" id="DejaVuSans-38" transform="scale(0.015625)"/>
       </defs>
       <use xlink:href="#DejaVuSans-30"/>
       <use x="63.623047" xlink:href="#DejaVuSans-2e"/>
       <use x="95.410156" xlink:href="#DejaVuSans-38"/>
      </g>
     </g>
    </g>
    <g id="ytick_7">
     <g id="line2d_27">
      <path clip-path="url(#p262d8a2f9f)" d="M 43.78125 65.359219 
L 378.58125 65.359219 
" style="fill:none;stroke:#b0b0b0;stroke-linecap:square;stroke-width:0.8;"/>
     </g>
     <g id="line2d_28">
      <g>
       <use style="stroke:#000000;stroke-width:0.8;" x="43.78125" xlink:href="#m308550ef52" y="65.359219"/>
      </g>
     </g>
     <g id="text_15">
      <!-- 0.9 -->
      <g transform="translate(20.878125 69.158437)scale(0.1 -0.1)">
       <defs>
        <path d="M 703 97 
L 703 672 
Q 941 559 1184 500 
Q 1428 441 1663 441 
Q 2288 441 2617 861 
Q 2947 1281 2994 2138 
Q 2813 1869 2534 1725 
Q 2256 1581 1919 1581 
Q 1219 1581 811 2004 
Q 403 2428 403 3163 
Q 403 3881 828 4315 
Q 1253 4750 1959 4750 
Q 2769 4750 3195 4129 
Q 3622 3509 3622 2328 
Q 3622 1225 3098 567 
Q 2575 -91 1691 -91 
Q 1453 -91 1209 -44 
Q 966 3 703 97 
z
M 1959 2075 
Q 2384 2075 2632 2365 
Q 2881 2656 2881 3163 
Q 2881 3666 2632 3958 
Q 2384 4250 1959 4250 
Q 1534 4250 1286 3958 
Q 1038 3666 1038 3163 
Q 1038 2656 1286 2365 
Q 1534 2075 1959 2075 
z
" id="DejaVuSans-39" transform="scale(0.015625)"/>
       </defs>
       <use xlink:href="#DejaVuSans-30"/>
       <use x="63.623047" xlink:href="#DejaVuSans-2e"/>
       <use x="95.410156" xlink:href="#DejaVuSans-39"/>
      </g>
     </g>
    </g>
    <g id="ytick_8">
     <g id="line2d_29">
      <path clip-path="url(#p262d8a2f9f)" d="M 43.78125 38.179219 
L 378.58125 38.179219 
" style="fill:none;stroke:#b0b0b0;stroke-linecap:square;stroke-width:0.8;"/>
     </g>
     <g id="line2d_30">
      <g>
       <use style="stroke:#000000;stroke-width:0.8;" x="43.78125" xlink:href="#m308550ef52" y="38.179219"/>
      </g>
     </g>
     <g id="text_16">
      <!-- 1.0 -->
      <g transform="translate(20.878125 41.978437)scale(0.1 -0.1)">
       <use xlink:href="#DejaVuSans-31"/>
       <use x="63.623047" xlink:href="#DejaVuSans-2e"/>
       <use x="95.410156" xlink:href="#DejaVuSans-30"/>
      </g>
     </g>
    </g>
    <g id="ytick_9">
     <g id="line2d_31">
      <path clip-path="url(#p262d8a2f9f)" d="M 43.78125 10.999219 
L 378.58125 10.999219 
" style="fill:none;stroke:#b0b0b0;stroke-linecap:square;stroke-width:0.8;"/>
     </g>
     <g id="line2d_32">
      <g>
       <use style="stroke:#000000;stroke-width:0.8;" x="43.78125" xlink:href="#m308550ef52" y="10.999219"/>
      </g>
     </g>
     <g id="text_17">
      <!-- 1.1 -->
      <g transform="translate(20.878125 14.798437)scale(0.1 -0.1)">
       <use xlink:href="#DejaVuSans-31"/>
       <use x="63.623047" xlink:href="#DejaVuSans-2e"/>
       <use x="95.410156" xlink:href="#DejaVuSans-31"/>
      </g>
     </g>
    </g>
    <g id="text_18">
     <!-- f(x) -->
     <g transform="translate(14.798438 128.340312)rotate(-90)scale(0.1 -0.1)">
      <defs>
       <path d="M 2375 4863 
L 2375 4384 
L 1825 4384 
Q 1516 4384 1395 4259 
Q 1275 4134 1275 3809 
L 1275 3500 
L 2222 3500 
L 2222 3053 
L 1275 3053 
L 1275 0 
L 697 0 
L 697 3053 
L 147 3053 
L 147 3500 
L 697 3500 
L 697 3744 
Q 697 4328 969 4595 
Q 1241 4863 1831 4863 
L 2375 4863 
z
" id="DejaVuSans-66" transform="scale(0.015625)"/>
       <path d="M 1984 4856 
Q 1566 4138 1362 3434 
Q 1159 2731 1159 2009 
Q 1159 1288 1364 580 
Q 1569 -128 1984 -844 
L 1484 -844 
Q 1016 -109 783 600 
Q 550 1309 550 2009 
Q 550 2706 781 3412 
Q 1013 4119 1484 4856 
L 1984 4856 
z
" id="DejaVuSans-28" transform="scale(0.015625)"/>
       <path d="M 513 4856 
L 1013 4856 
Q 1481 4119 1714 3412 
Q 1947 2706 1947 2009 
Q 1947 1309 1714 600 
Q 1481 -109 1013 -844 
L 513 -844 
Q 928 -128 1133 580 
Q 1338 1288 1338 2009 
Q 1338 2731 1133 3434 
Q 928 4138 513 4856 
z
" id="DejaVuSans-29" transform="scale(0.015625)"/>
      </defs>
      <use xlink:href="#DejaVuSans-66"/>
      <use x="35.205078" xlink:href="#DejaVuSans-28"/>
      <use x="74.21875" xlink:href="#DejaVuSans-78"/>
      <use x="133.398438" xlink:href="#DejaVuSans-29"/>
     </g>
    </g>
   </g>
   <g id="line2d_33">
    <path clip-path="url(#p262d8a2f9f)" d="M 58.999432 201.259219 
L 62.073812 191.126483 
L 65.148192 180.501875 
L 68.222572 169.406509 
L 71.296952 157.880396 
L 74.371333 145.987008 
L 77.445713 133.817935 
L 80.520093 121.497137 
L 83.594473 109.184085 
L 86.668853 97.07486 
L 89.743233 85.400164 
L 92.817614 74.419219 
L 95.891994 64.408869 
L 98.966374 55.647837 
L 102.040754 48.397042 
L 105.115134 42.877997 
L 108.189514 39.252213 
L 111.263895 37.60494 
L 114.338275 37.936179 
L 117.412655 40.160678 
L 120.487035 44.116928 
L 123.561415 49.583415 
L 126.635795 56.299219 
L 129.710176 63.985619 
L 132.784556 72.365769 
L 135.858936 81.180448 
L 138.933316 90.198955 
L 142.007696 99.225208 
L 145.082076 108.099736 
L 148.156457 116.698578 
L 151.230837 124.930146 
L 154.305217 132.730966 
L 157.379597 140.061028 
L 160.453977 146.899219 
L 163.528357 153.239154 
L 166.602738 159.085552 
L 169.677118 164.451194 
L 172.751498 169.35446 
L 175.825878 173.817382 
L 178.900258 177.864137 
L 181.974638 181.519917 
L 185.049019 184.810091 
L 188.123399 187.759618 
L 191.197779 190.392628 
L 194.272159 192.73216 
L 197.346539 194.799996 
L 200.420919 196.616577 
L 203.4953 198.200976 
L 206.56968 199.570911 
L 209.64406 200.74278 
L 212.71844 201.731724 
L 215.79282 202.551694 
L 218.8672 203.215523 
L 221.941581 203.735004 
L 225.015961 204.120969 
L 228.090341 204.383357 
L 231.164721 204.531291 
L 234.239101 204.573144 
L 237.313481 204.516598 
L 240.387862 204.368709 
L 243.462242 204.135953 
L 246.536622 203.824284 
L 249.611002 203.439174 
L 252.685382 202.985658 
L 255.759762 202.46837 
L 258.834143 201.891578 
L 261.908523 201.259219 
L 264.982903 200.574922 
L 268.057283 199.84204 
L 271.131663 199.063671 
L 274.206043 198.242678 
L 277.280424 197.381714 
L 280.354804 196.483233 
L 283.429184 195.549513 
L 286.503564 194.582666 
L 289.577944 193.584653 
L 292.652324 192.557298 
L 295.726705 191.502296 
L 298.801085 190.421225 
L 301.875465 189.315555 
L 304.949845 188.186658 
L 308.024225 187.035813 
L 311.098605 185.864214 
L 314.172986 184.672977 
L 317.247366 183.463147 
L 320.321746 182.235699 
L 323.396126 180.99155 
L 326.470506 179.731556 
L 329.544886 178.456522 
L 332.619267 177.167203 
L 335.693647 175.864309 
L 338.768027 174.548504 
L 341.842407 173.220417 
L 344.916787 171.880636 
L 347.991167 170.529718 
L 351.065548 169.168185 
L 354.139928 167.796532 
L 357.214308 166.415223 
L 360.288688 165.024698 
L 363.363068 163.625373 
" style="fill:none;stroke:#808080;stroke-linecap:square;stroke-opacity:0.5;stroke-width:3;"/>
   </g>
   <g id="line2d_34">
    <path clip-path="url(#p262d8a2f9f)" d="M 58.999432 152.335219 
L 62.073812 153.323582 
L 65.148192 154.311946 
L 68.222572 155.30031 
L 71.296952 156.288673 
L 74.371333 157.277037 
L 77.445713 158.265401 
L 80.520093 159.253764 
L 83.594473 160.242128 
L 86.668853 161.230491 
L 89.743233 162.218855 
L 92.817614 163.207219 
L 95.891994 164.195582 
L 98.966374 165.183946 
L 102.040754 166.17231 
L 105.115134 167.160673 
L 108.189514 168.149037 
L 111.263895 169.137401 
L 114.338275 170.125764 
L 117.412655 171.114128 
L 120.487035 172.102491 
L 123.561415 173.090855 
L 126.635795 174.079219 
L 129.710176 175.067582 
L 132.784556 176.055946 
L 135.858936 177.04431 
L 138.933316 178.032673 
L 142.007696 179.021037 
L 145.082076 180.009401 
L 148.156457 180.997764 
L 151.230837 181.986128 
L 154.305217 182.974491 
L 157.379597 183.962855 
L 160.453977 184.951219 
L 163.528357 185.939582 
L 166.602738 186.927946 
L 169.677118 187.91631 
L 172.751498 188.904673 
L 175.825878 189.893037 
L 178.900258 190.881401 
L 181.974638 191.869764 
L 185.049019 192.858128 
L 188.123399 193.846491 
L 191.197779 194.834855 
L 194.272159 195.823219 
L 197.346539 196.811582 
L 200.420919 197.799946 
L 203.4953 198.78831 
L 206.56968 199.776673 
L 209.64406 200.765037 
L 212.71844 201.753401 
L 215.79282 202.741764 
L 218.8672 203.730128 
L 221.941581 204.718491 
L 225.015961 205.706855 
L 228.090341 206.695219 
L 231.164721 207.683582 
L 234.239101 208.671946 
L 237.313481 209.66031 
L 240.387862 210.648673 
L 243.462242 211.637037 
L 246.536622 212.625401 
L 249.611002 213.613764 
L 252.685382 214.602128 
L 255.759762 215.590491 
L 258.834143 216.578855 
L 261.908523 217.567219 
L 264.982903 218.555582 
L 268.057283 219.543946 
L 271.131663 220.53231 
L 274.206043 221.520673 
L 277.280424 222.509037 
L 280.354804 223.497401 
L 283.429184 224.485764 
L 286.503564 225.474128 
L 289.577944 226.462491 
L 292.652324 227.450855 
L 295.726705 228.439219 
L 298.801085 229.427582 
L 301.875465 230.415946 
L 304.949845 231.40431 
L 308.024225 232.392673 
L 311.098605 233.381037 
L 314.172986 234.369401 
L 317.247366 235.357764 
L 320.321746 236.346128 
L 323.396126 237.334491 
L 326.470506 238.322855 
L 329.544886 239.311219 
L 332.619267 240.299582 
L 335.693647 241.287946 
L 338.768027 242.27631 
L 341.842407 243.264673 
L 344.916787 244.253037 
L 347.991167 245.241401 
L 351.065548 246.229764 
L 354.139928 247.218128 
L 357.214308 248.206491 
L 360.288688 249.194855 
L 363.363068 250.183219 
" style="fill:none;stroke:#1f77b4;stroke-linecap:square;stroke-width:1.5;"/>
   </g>
   <g id="line2d_35">
    <path clip-path="url(#p262d8a2f9f)" d="M 58.999432 38.179219 
L 62.073812 41.473764 
L 65.148192 44.76831 
L 68.222572 48.062855 
L 71.296952 51.357401 
L 74.371333 54.651946 
L 77.445713 57.946491 
L 80.520093 61.241037 
L 83.594473 64.535582 
L 86.668853 67.830128 
L 89.743233 71.124673 
L 92.817614 74.419219 
L 95.891994 77.713764 
L 98.966374 81.00831 
L 102.040754 84.302855 
L 105.115134 87.597401 
L 108.189514 90.891946 
L 111.263895 94.186491 
L 114.338275 97.481037 
L 117.412655 100.775582 
L 120.487035 104.070128 
L 123.561415 107.364673 
L 126.635795 110.659219 
L 129.710176 113.953764 
L 132.784556 117.24831 
L 135.858936 120.542855 
L 138.933316 123.837401 
L 142.007696 127.131946 
L 145.082076 130.426491 
L 148.156457 133.721037 
L 151.230837 137.015582 
L 154.305217 140.310128 
L 157.379597 143.604673 
L 160.453977 146.899219 
L 163.528357 150.193764 
L 166.602738 153.48831 
L 169.677118 156.782855 
L 172.751498 160.077401 
L 175.825878 163.371946 
L 178.900258 166.666491 
L 181.974638 169.961037 
L 185.049019 173.255582 
L 188.123399 176.550128 
L 191.197779 179.844673 
L 194.272159 183.139219 
L 197.346539 186.433764 
L 200.420919 189.72831 
L 203.4953 193.022855 
L 206.56968 196.317401 
L 209.64406 199.611946 
L 212.71844 202.906491 
L 215.79282 206.201037 
L 218.8672 209.495582 
L 221.941581 212.790128 
L 225.015961 216.084673 
L 228.090341 219.379219 
L 231.164721 222.673764 
L 234.239101 225.96831 
L 237.313481 229.262855 
L 240.387862 232.557401 
L 243.462242 235.851946 
L 246.536622 239.146491 
L 249.611002 242.441037 
L 252.685382 245.735582 
L 255.759762 249.030128 
L 258.834143 252.324673 
L 261.908523 255.619219 
L 264.982903 258.913764 
L 268.057283 262.20831 
L 271.131663 265.502855 
L 272.52453 266.995469 
" style="fill:none;stroke:#2ca02c;stroke-linecap:square;stroke-width:1.5;"/>
   </g>
   <g id="patch_3">
    <path d="M 43.78125 228.439219 
L 43.78125 10.999219 
" style="fill:none;stroke:#000000;stroke-linecap:square;stroke-linejoin:miter;stroke-width:0.8;"/>
   </g>
   <g id="patch_4">
    <path d="M 378.58125 228.439219 
L 378.58125 10.999219 
" style="fill:none;stroke:#000000;stroke-linecap:square;stroke-linejoin:miter;stroke-width:0.8;"/>
   </g>
   <g id="patch_5">
    <path d="M 43.78125 228.439219 
L 378.58125 228.439219 
" style="fill:none;stroke:#000000;stroke-linecap:square;stroke-linejoin:miter;stroke-width:0.8;"/>
   </g>
   <g id="patch_6">
    <path d="M 43.78125 10.999219 
L 378.58125 10.999219 
" style="fill:none;stroke:#000000;stroke-linecap:square;stroke-linejoin:miter;stroke-width:0.8;"/>
   </g>
   <g id="PathCollection_1">
    <defs>
     <path d="M 0 3 
C 0.795609 3 1.55874 2.683901 2.12132 2.12132 
C 2.683901 1.55874 3 0.795609 3 0 
C 3 -0.795609 2.683901 -1.55874 2.12132 -2.12132 
C 1.55874 -2.683901 0.795609 -3 0 -3 
C -0.795609 -3 -1.55874 -2.683901 -2.12132 -2.12132 
C -2.683901 -1.55874 -3 -0.795609 -3 0 
C -3 0.795609 -2.683901 1.55874 -2.12132 2.12132 
C -1.55874 2.683901 -0.795609 3 0 3 
z
" id="mb3d47003d7" style="stroke:#808080;"/>
    </defs>
    <g clip-path="url(#p262d8a2f9f)">
     <use style="fill:#808080;stroke:#808080;" x="211.18125" xlink:href="#mb3d47003d7" y="201.259219"/>
     <use style="fill:#808080;stroke:#808080;" x="160.453977" xlink:href="#mb3d47003d7" y="146.899219"/>
    </g>
   </g>
   <g id="PathCollection_2">
    <defs>
     <path d="M 0 3 
C 0.795609 3 1.55874 2.683901 2.12132 2.12132 
C 2.683901 1.55874 3 0.795609 3 0 
C 3 -0.795609 2.683901 -1.55874 2.12132 -2.12132 
C 1.55874 -2.683901 0.795609 -3 0 -3 
C -0.795609 -3 -1.55874 -2.683901 -2.12132 -2.12132 
C -2.683901 -1.55874 -3 -0.795609 -3 0 
C -3 0.795609 -2.683901 1.55874 -2.12132 2.12132 
C -1.55874 2.683901 -0.795609 3 0 3 
z
" id="meaa14ae845" style="stroke:#b22222;"/>
    </defs>
    <g clip-path="url(#p262d8a2f9f)">
     <use style="fill:#b22222;stroke:#b22222;" x="211.18125" xlink:href="#meaa14ae845" y="201.259219"/>
    </g>
   </g>
   <g id="legend_1">
    <g id="patch_7">
     <path d="M 209.68125 63.033594 
L 371.58125 63.033594 
Q 373.58125 63.033594 373.58125 61.033594 
L 373.58125 17.999219 
Q 373.58125 15.999219 371.58125 15.999219 
L 209.68125 15.999219 
Q 207.68125 15.999219 207.68125 17.999219 
L 207.68125 61.033594 
Q 207.68125 63.033594 209.68125 63.033594 
z
" style="fill:#ffffff;opacity:0.8;stroke:#cccccc;stroke-linejoin:miter;"/>
    </g>
    <g id="line2d_36">
     <path d="M 211.68125 24.097656 
L 231.68125 24.097656 
" style="fill:none;stroke:#808080;stroke-linecap:square;stroke-opacity:0.5;stroke-width:3;"/>
    </g>
    <g id="line2d_37"/>
    <g id="text_19">
     <!-- $\sf f(x)$ -->
     <g transform="translate(239.68125 27.597656)scale(0.1 -0.1)">
      <use transform="translate(0 0.015625)" xlink:href="#DejaVuSans-66"/>
      <use transform="translate(35.205078 0.015625)" xlink:href="#DejaVuSans-28"/>
      <use transform="translate(74.21875 0.015625)" xlink:href="#DejaVuSans-78"/>
      <use transform="translate(133.398438 0.015625)" xlink:href="#DejaVuSans-29"/>
     </g>
    </g>
    <g id="line2d_38">
     <path d="M 211.68125 38.775781 
L 231.68125 38.775781 
" style="fill:none;stroke:#1f77b4;stroke-linecap:square;stroke-width:1.5;"/>
    </g>
    <g id="line2d_39"/>
    <g id="text_20">
     <!-- exact $\sf f'(x_0)$ -->
     <g transform="translate(239.68125 42.275781)scale(0.1 -0.1)">
      <defs>
       <path d="M 3597 1894 
L 3597 1613 
L 953 1613 
Q 991 1019 1311 708 
Q 1631 397 2203 397 
Q 2534 397 2845 478 
Q 3156 559 3463 722 
L 3463 178 
Q 3153 47 2828 -22 
Q 2503 -91 2169 -91 
Q 1331 -91 842 396 
Q 353 884 353 1716 
Q 353 2575 817 3079 
Q 1281 3584 2069 3584 
Q 2775 3584 3186 3129 
Q 3597 2675 3597 1894 
z
M 3022 2063 
Q 3016 2534 2758 2815 
Q 2500 3097 2075 3097 
Q 1594 3097 1305 2825 
Q 1016 2553 972 2059 
L 3022 2063 
z
" id="DejaVuSans-65" transform="scale(0.015625)"/>
       <path d="M 2194 1759 
Q 1497 1759 1228 1600 
Q 959 1441 959 1056 
Q 959 750 1161 570 
Q 1363 391 1709 391 
Q 2188 391 2477 730 
Q 2766 1069 2766 1631 
L 2766 1759 
L 2194 1759 
z
M 3341 1997 
L 3341 0 
L 2766 0 
L 2766 531 
Q 2569 213 2275 61 
Q 1981 -91 1556 -91 
Q 1019 -91 701 211 
Q 384 513 384 1019 
Q 384 1609 779 1909 
Q 1175 2209 1959 2209 
L 2766 2209 
L 2766 2266 
Q 2766 2663 2505 2880 
Q 2244 3097 1772 3097 
Q 1472 3097 1187 3025 
Q 903 2953 641 2809 
L 641 3341 
Q 956 3463 1253 3523 
Q 1550 3584 1831 3584 
Q 2591 3584 2966 3190 
Q 3341 2797 3341 1997 
z
" id="DejaVuSans-61" transform="scale(0.015625)"/>
       <path d="M 3122 3366 
L 3122 2828 
Q 2878 2963 2633 3030 
Q 2388 3097 2138 3097 
Q 1578 3097 1268 2742 
Q 959 2388 959 1747 
Q 959 1106 1268 751 
Q 1578 397 2138 397 
Q 2388 397 2633 464 
Q 2878 531 3122 666 
L 3122 134 
Q 2881 22 2623 -34 
Q 2366 -91 2075 -91 
Q 1284 -91 818 406 
Q 353 903 353 1747 
Q 353 2603 823 3093 
Q 1294 3584 2113 3584 
Q 2378 3584 2631 3529 
Q 2884 3475 3122 3366 
z
" id="DejaVuSans-63" transform="scale(0.015625)"/>
       <path d="M 1172 4494 
L 1172 3500 
L 2356 3500 
L 2356 3053 
L 1172 3053 
L 1172 1153 
Q 1172 725 1289 603 
Q 1406 481 1766 481 
L 2356 481 
L 2356 0 
L 1766 0 
Q 1100 0 847 248 
Q 594 497 594 1153 
L 594 3053 
L 172 3053 
L 172 3500 
L 594 3500 
L 594 4494 
L 1172 4494 
z
" id="DejaVuSans-74" transform="scale(0.015625)"/>
       <path id="DejaVuSans-20" transform="scale(0.015625)"/>
       <path d="M 225 347 
Q 184 359 184 409 
L 966 3316 
Q 1003 3434 1093 3506 
Q 1184 3578 1300 3578 
Q 1450 3578 1564 3479 
Q 1678 3381 1678 3231 
Q 1678 3166 1644 3084 
L 488 319 
Q 466 275 428 275 
Q 394 275 320 306 
Q 247 338 225 347 
z
" id="Cmsy10-30" transform="scale(0.015625)"/>
      </defs>
      <use transform="translate(0 0.584375)" xlink:href="#DejaVuSans-65"/>
      <use transform="translate(61.523438 0.584375)" xlink:href="#DejaVuSans-78"/>
      <use transform="translate(120.703125 0.584375)" xlink:href="#DejaVuSans-61"/>
      <use transform="translate(181.982422 0.584375)" xlink:href="#DejaVuSans-63"/>
      <use transform="translate(236.962891 0.584375)" xlink:href="#DejaVuSans-74"/>
      <use transform="translate(276.171875 0.584375)" xlink:href="#DejaVuSans-20"/>
      <use transform="translate(307.958984 0.584375)" xlink:href="#DejaVuSans-66"/>
      <use transform="translate(344.121094 38.865625)scale(0.7)" xlink:href="#Cmsy10-30"/>
      <use transform="translate(366.098633 0.584375)" xlink:href="#DejaVuSans-28"/>
      <use transform="translate(405.112305 0.584375)" xlink:href="#DejaVuSans-78"/>
      <use transform="translate(465.249023 -15.821875)scale(0.7)" xlink:href="#DejaVuSans-30"/>
      <use transform="translate(512.519531 0.584375)" xlink:href="#DejaVuSans-29"/>
     </g>
    </g>
    <g id="line2d_40">
     <path d="M 211.68125 53.453906 
L 231.68125 53.453906 
" style="fill:none;stroke:#2ca02c;stroke-linecap:square;stroke-width:1.5;"/>
    </g>
    <g id="line2d_41"/>
    <g id="text_21">
     <!-- backward difference $\sf f'(x_0)$ -->
     <g transform="translate(239.68125 56.953906)scale(0.1 -0.1)">
      <defs>
       <path d="M 3116 1747 
Q 3116 2381 2855 2742 
Q 2594 3103 2138 3103 
Q 1681 3103 1420 2742 
Q 1159 2381 1159 1747 
Q 1159 1113 1420 752 
Q 1681 391 2138 391 
Q 2594 391 2855 752 
Q 3116 1113 3116 1747 
z
M 1159 2969 
Q 1341 3281 1617 3432 
Q 1894 3584 2278 3584 
Q 2916 3584 3314 3078 
Q 3713 2572 3713 1747 
Q 3713 922 3314 415 
Q 2916 -91 2278 -91 
Q 1894 -91 1617 61 
Q 1341 213 1159 525 
L 1159 0 
L 581 0 
L 581 4863 
L 1159 4863 
L 1159 2969 
z
" id="DejaVuSans-62" transform="scale(0.015625)"/>
       <path d="M 581 4863 
L 1159 4863 
L 1159 1991 
L 2875 3500 
L 3609 3500 
L 1753 1863 
L 3688 0 
L 2938 0 
L 1159 1709 
L 1159 0 
L 581 0 
L 581 4863 
z
" id="DejaVuSans-6b" transform="scale(0.015625)"/>
       <path d="M 269 3500 
L 844 3500 
L 1563 769 
L 2278 3500 
L 2956 3500 
L 3675 769 
L 4391 3500 
L 4966 3500 
L 4050 0 
L 3372 0 
L 2619 2869 
L 1863 0 
L 1184 0 
L 269 3500 
z
" id="DejaVuSans-77" transform="scale(0.015625)"/>
       <path d="M 2631 2963 
Q 2534 3019 2420 3045 
Q 2306 3072 2169 3072 
Q 1681 3072 1420 2755 
Q 1159 2438 1159 1844 
L 1159 0 
L 581 0 
L 581 3500 
L 1159 3500 
L 1159 2956 
Q 1341 3275 1631 3429 
Q 1922 3584 2338 3584 
Q 2397 3584 2469 3576 
Q 2541 3569 2628 3553 
L 2631 2963 
z
" id="DejaVuSans-72" transform="scale(0.015625)"/>
       <path d="M 2906 2969 
L 2906 4863 
L 3481 4863 
L 3481 0 
L 2906 0 
L 2906 525 
Q 2725 213 2448 61 
Q 2172 -91 1784 -91 
Q 1150 -91 751 415 
Q 353 922 353 1747 
Q 353 2572 751 3078 
Q 1150 3584 1784 3584 
Q 2172 3584 2448 3432 
Q 2725 3281 2906 2969 
z
M 947 1747 
Q 947 1113 1208 752 
Q 1469 391 1925 391 
Q 2381 391 2643 752 
Q 2906 1113 2906 1747 
Q 2906 2381 2643 2742 
Q 2381 3103 1925 3103 
Q 1469 3103 1208 2742 
Q 947 2381 947 1747 
z
" id="DejaVuSans-64" transform="scale(0.015625)"/>
       <path d="M 603 3500 
L 1178 3500 
L 1178 0 
L 603 0 
L 603 3500 
z
M 603 4863 
L 1178 4863 
L 1178 4134 
L 603 4134 
L 603 4863 
z
" id="DejaVuSans-69" transform="scale(0.015625)"/>
       <path d="M 3513 2113 
L 3513 0 
L 2938 0 
L 2938 2094 
Q 2938 2591 2744 2837 
Q 2550 3084 2163 3084 
Q 1697 3084 1428 2787 
Q 1159 2491 1159 1978 
L 1159 0 
L 581 0 
L 581 3500 
L 1159 3500 
L 1159 2956 
Q 1366 3272 1645 3428 
Q 1925 3584 2291 3584 
Q 2894 3584 3203 3211 
Q 3513 2838 3513 2113 
z
" id="DejaVuSans-6e" transform="scale(0.015625)"/>
      </defs>
      <use transform="translate(0 0.584375)" xlink:href="#DejaVuSans-62"/>
      <use transform="translate(63.476562 0.584375)" xlink:href="#DejaVuSans-61"/>
      <use transform="translate(124.755859 0.584375)" xlink:href="#DejaVuSans-63"/>
      <use transform="translate(179.736328 0.584375)" xlink:href="#DejaVuSans-6b"/>
      <use transform="translate(237.646484 0.584375)" xlink:href="#DejaVuSans-77"/>
      <use transform="translate(319.433594 0.584375)" xlink:href="#DejaVuSans-61"/>
      <use transform="translate(380.712891 0.584375)" xlink:href="#DejaVuSans-72"/>
      <use transform="translate(421.826172 0.584375)" xlink:href="#DejaVuSans-64"/>
      <use transform="translate(485.302734 0.584375)" xlink:href="#DejaVuSans-20"/>
      <use transform="translate(517.089844 0.584375)" xlink:href="#DejaVuSans-64"/>
      <use transform="translate(580.566406 0.584375)" xlink:href="#DejaVuSans-69"/>
      <use transform="translate(608.349609 0.584375)" xlink:href="#DejaVuSans-66"/>
      <use transform="translate(643.554688 0.584375)" xlink:href="#DejaVuSans-66"/>
      <use transform="translate(678.759766 0.584375)" xlink:href="#DejaVuSans-65"/>
      <use transform="translate(740.283203 0.584375)" xlink:href="#DejaVuSans-72"/>
      <use transform="translate(781.396484 0.584375)" xlink:href="#DejaVuSans-65"/>
      <use transform="translate(842.919922 0.584375)" xlink:href="#DejaVuSans-6e"/>
      <use transform="translate(906.298828 0.584375)" xlink:href="#DejaVuSans-63"/>
      <use transform="translate(961.279297 0.584375)" xlink:href="#DejaVuSans-65"/>
      <use transform="translate(1022.802734 0.584375)" xlink:href="#DejaVuSans-20"/>
      <use transform="translate(1054.589844 0.584375)" xlink:href="#DejaVuSans-66"/>
      <use transform="translate(1090.751953 38.865625)scale(0.7)" xlink:href="#Cmsy10-30"/>
      <use transform="translate(1112.729492 0.584375)" xlink:href="#DejaVuSans-28"/>
      <use transform="translate(1151.743164 0.584375)" xlink:href="#DejaVuSans-78"/>
      <use transform="translate(1211.879883 -15.821875)scale(0.7)" xlink:href="#DejaVuSans-30"/>
      <use transform="translate(1259.150391 0.584375)" xlink:href="#DejaVuSans-29"/>
     </g>
    </g>
   </g>
  </g>
 </g>
 <defs>
  <clipPath id="p262d8a2f9f">
   <rect height="217.44" width="334.8" x="43.78125" y="10.999219"/>
  </clipPath>
 </defs>
</svg>
