<?xml version="1.0" encoding="utf-8" standalone="no"?>
<!DOCTYPE svg PUBLIC "-//W3C//DTD SVG 1.1//EN"
  "http://www.w3.org/Graphics/SVG/1.1/DTD/svg11.dtd">
<svg height="262.19625pt" version="1.1" viewBox="0 0 394.160937 262.19625" width="394.160937pt" xmlns="http://www.w3.org/2000/svg" xmlns:xlink="http://www.w3.org/1999/xlink">
 <metadata>
  <rdf:RDF xmlns:cc="http://creativecommons.org/ns#" xmlns:dc="http://purl.org/dc/elements/1.1/" xmlns:rdf="http://www.w3.org/1999/02/22-rdf-syntax-ns#">
   <cc:Work>
    <dc:type rdf:resource="http://purl.org/dc/dcmitype/StillImage"/>
    <dc:date>2021-05-13T20:21:20.099781</dc:date>
    <dc:format>image/svg+xml</dc:format>
    <dc:creator>
     <cc:Agent>
      <dc:title>Matplotlib v3.4.1, https://matplotlib.org/</dc:title>
     </cc:Agent>
    </dc:creator>
   </cc:Work>
  </rdf:RDF>
 </metadata>
 <defs>
  <style type="text/css">*{stroke-linecap:butt;stroke-linejoin:round;}</style>
 </defs>
 <g id="figure_1">
  <g id="patch_1">
   <path d="M 0 262.19625 
L 394.160937 262.19625 
L 394.160937 0 
L 0 0 
z
" style="fill:none;"/>
  </g>
  <g id="axes_1">
   <g id="patch_2">
    <path d="M 52.160938 224.64 
L 386.960938 224.64 
L 386.960938 7.2 
L 52.160938 7.2 
z
" style="fill:#ffffff;"/>
   </g>
   <g id="matplotlib.axis_1">
    <g id="xtick_1">
     <g id="line2d_1">
      <path clip-path="url(#p1126917c9e)" d="M 67.379119 224.64 
L 67.379119 7.2 
" style="fill:none;stroke:#b0b0b0;stroke-linecap:square;stroke-width:0.8;"/>
     </g>
     <g id="line2d_2">
      <defs>
       <path d="M 0 0 
L 0 3.5 
" id="me45b75a300" style="stroke:#000000;stroke-width:0.8;"/>
      </defs>
      <g>
       <use style="stroke:#000000;stroke-width:0.8;" x="67.379119" xlink:href="#me45b75a300" y="224.64"/>
      </g>
     </g>
     <g id="text_1">
      <!-- −1 -->
      <g transform="translate(60.008026 239.238437)scale(0.1 -0.1)">
       <defs>
        <path d="M 678 2272 
L 4684 2272 
L 4684 1741 
L 678 1741 
L 678 2272 
z
" id="DejaVuSans-2212" transform="scale(0.015625)"/>
        <path d="M 794 531 
L 1825 531 
L 1825 4091 
L 703 3866 
L 703 4441 
L 1819 4666 
L 2450 4666 
L 2450 531 
L 3481 531 
L 3481 0 
L 794 0 
L 794 531 
z
" id="DejaVuSans-31" transform="scale(0.015625)"/>
       </defs>
       <use xlink:href="#DejaVuSans-2212"/>
       <use x="83.789062" xlink:href="#DejaVuSans-31"/>
      </g>
     </g>
    </g>
    <g id="xtick_2">
     <g id="line2d_3">
      <path clip-path="url(#p1126917c9e)" d="M 118.106392 224.64 
L 118.106392 7.2 
" style="fill:none;stroke:#b0b0b0;stroke-linecap:square;stroke-width:0.8;"/>
     </g>
     <g id="line2d_4">
      <g>
       <use style="stroke:#000000;stroke-width:0.8;" x="118.106392" xlink:href="#me45b75a300" y="224.64"/>
      </g>
     </g>
     <g id="text_2">
      <!-- 0 -->
      <g transform="translate(114.925142 239.238437)scale(0.1 -0.1)">
       <defs>
        <path d="M 2034 4250 
Q 1547 4250 1301 3770 
Q 1056 3291 1056 2328 
Q 1056 1369 1301 889 
Q 1547 409 2034 409 
Q 2525 409 2770 889 
Q 3016 1369 3016 2328 
Q 3016 3291 2770 3770 
Q 2525 4250 2034 4250 
z
M 2034 4750 
Q 2819 4750 3233 4129 
Q 3647 3509 3647 2328 
Q 3647 1150 3233 529 
Q 2819 -91 2034 -91 
Q 1250 -91 836 529 
Q 422 1150 422 2328 
Q 422 3509 836 4129 
Q 1250 4750 2034 4750 
z
" id="DejaVuSans-30" transform="scale(0.015625)"/>
       </defs>
       <use xlink:href="#DejaVuSans-30"/>
      </g>
     </g>
    </g>
    <g id="xtick_3">
     <g id="line2d_5">
      <path clip-path="url(#p1126917c9e)" d="M 168.833665 224.64 
L 168.833665 7.2 
" style="fill:none;stroke:#b0b0b0;stroke-linecap:square;stroke-width:0.8;"/>
     </g>
     <g id="line2d_6">
      <g>
       <use style="stroke:#000000;stroke-width:0.8;" x="168.833665" xlink:href="#me45b75a300" y="224.64"/>
      </g>
     </g>
     <g id="text_3">
      <!-- 1 -->
      <g transform="translate(165.652415 239.238437)scale(0.1 -0.1)">
       <use xlink:href="#DejaVuSans-31"/>
      </g>
     </g>
    </g>
    <g id="xtick_4">
     <g id="line2d_7">
      <path clip-path="url(#p1126917c9e)" d="M 219.560938 224.64 
L 219.560938 7.2 
" style="fill:none;stroke:#b0b0b0;stroke-linecap:square;stroke-width:0.8;"/>
     </g>
     <g id="line2d_8">
      <g>
       <use style="stroke:#000000;stroke-width:0.8;" x="219.560938" xlink:href="#me45b75a300" y="224.64"/>
      </g>
     </g>
     <g id="text_4">
      <!-- 2 -->
      <g transform="translate(216.379688 239.238437)scale(0.1 -0.1)">
       <defs>
        <path d="M 1228 531 
L 3431 531 
L 3431 0 
L 469 0 
L 469 531 
Q 828 903 1448 1529 
Q 2069 2156 2228 2338 
Q 2531 2678 2651 2914 
Q 2772 3150 2772 3378 
Q 2772 3750 2511 3984 
Q 2250 4219 1831 4219 
Q 1534 4219 1204 4116 
Q 875 4013 500 3803 
L 500 4441 
Q 881 4594 1212 4672 
Q 1544 4750 1819 4750 
Q 2544 4750 2975 4387 
Q 3406 4025 3406 3419 
Q 3406 3131 3298 2873 
Q 3191 2616 2906 2266 
Q 2828 2175 2409 1742 
Q 1991 1309 1228 531 
z
" id="DejaVuSans-32" transform="scale(0.015625)"/>
       </defs>
       <use xlink:href="#DejaVuSans-32"/>
      </g>
     </g>
    </g>
    <g id="xtick_5">
     <g id="line2d_9">
      <path clip-path="url(#p1126917c9e)" d="M 270.28821 224.64 
L 270.28821 7.2 
" style="fill:none;stroke:#b0b0b0;stroke-linecap:square;stroke-width:0.8;"/>
     </g>
     <g id="line2d_10">
      <g>
       <use style="stroke:#000000;stroke-width:0.8;" x="270.28821" xlink:href="#me45b75a300" y="224.64"/>
      </g>
     </g>
     <g id="text_5">
      <!-- 3 -->
      <g transform="translate(267.10696 239.238437)scale(0.1 -0.1)">
       <defs>
        <path d="M 2597 2516 
Q 3050 2419 3304 2112 
Q 3559 1806 3559 1356 
Q 3559 666 3084 287 
Q 2609 -91 1734 -91 
Q 1441 -91 1130 -33 
Q 819 25 488 141 
L 488 750 
Q 750 597 1062 519 
Q 1375 441 1716 441 
Q 2309 441 2620 675 
Q 2931 909 2931 1356 
Q 2931 1769 2642 2001 
Q 2353 2234 1838 2234 
L 1294 2234 
L 1294 2753 
L 1863 2753 
Q 2328 2753 2575 2939 
Q 2822 3125 2822 3475 
Q 2822 3834 2567 4026 
Q 2313 4219 1838 4219 
Q 1578 4219 1281 4162 
Q 984 4106 628 3988 
L 628 4550 
Q 988 4650 1302 4700 
Q 1616 4750 1894 4750 
Q 2613 4750 3031 4423 
Q 3450 4097 3450 3541 
Q 3450 3153 3228 2886 
Q 3006 2619 2597 2516 
z
" id="DejaVuSans-33" transform="scale(0.015625)"/>
       </defs>
       <use xlink:href="#DejaVuSans-33"/>
      </g>
     </g>
    </g>
    <g id="xtick_6">
     <g id="line2d_11">
      <path clip-path="url(#p1126917c9e)" d="M 321.015483 224.64 
L 321.015483 7.2 
" style="fill:none;stroke:#b0b0b0;stroke-linecap:square;stroke-width:0.8;"/>
     </g>
     <g id="line2d_12">
      <g>
       <use style="stroke:#000000;stroke-width:0.8;" x="321.015483" xlink:href="#me45b75a300" y="224.64"/>
      </g>
     </g>
     <g id="text_6">
      <!-- 4 -->
      <g transform="translate(317.834233 239.238437)scale(0.1 -0.1)">
       <defs>
        <path d="M 2419 4116 
L 825 1625 
L 2419 1625 
L 2419 4116 
z
M 2253 4666 
L 3047 4666 
L 3047 1625 
L 3713 1625 
L 3713 1100 
L 3047 1100 
L 3047 0 
L 2419 0 
L 2419 1100 
L 313 1100 
L 313 1709 
L 2253 4666 
z
" id="DejaVuSans-34" transform="scale(0.015625)"/>
       </defs>
       <use xlink:href="#DejaVuSans-34"/>
      </g>
     </g>
    </g>
    <g id="xtick_7">
     <g id="line2d_13">
      <path clip-path="url(#p1126917c9e)" d="M 371.742756 224.64 
L 371.742756 7.2 
" style="fill:none;stroke:#b0b0b0;stroke-linecap:square;stroke-width:0.8;"/>
     </g>
     <g id="line2d_14">
      <g>
       <use style="stroke:#000000;stroke-width:0.8;" x="371.742756" xlink:href="#me45b75a300" y="224.64"/>
      </g>
     </g>
     <g id="text_7">
      <!-- 5 -->
      <g transform="translate(368.561506 239.238437)scale(0.1 -0.1)">
       <defs>
        <path d="M 691 4666 
L 3169 4666 
L 3169 4134 
L 1269 4134 
L 1269 2991 
Q 1406 3038 1543 3061 
Q 1681 3084 1819 3084 
Q 2600 3084 3056 2656 
Q 3513 2228 3513 1497 
Q 3513 744 3044 326 
Q 2575 -91 1722 -91 
Q 1428 -91 1123 -41 
Q 819 9 494 109 
L 494 744 
Q 775 591 1075 516 
Q 1375 441 1709 441 
Q 2250 441 2565 725 
Q 2881 1009 2881 1497 
Q 2881 1984 2565 2268 
Q 2250 2553 1709 2553 
Q 1456 2553 1204 2497 
Q 953 2441 691 2322 
L 691 4666 
z
" id="DejaVuSans-35" transform="scale(0.015625)"/>
       </defs>
       <use xlink:href="#DejaVuSans-35"/>
      </g>
     </g>
    </g>
    <g id="text_8">
     <!-- x -->
     <g transform="translate(216.601563 252.916562)scale(0.1 -0.1)">
      <defs>
       <path d="M 3513 3500 
L 2247 1797 
L 3578 0 
L 2900 0 
L 1881 1375 
L 863 0 
L 184 0 
L 1544 1831 
L 300 3500 
L 978 3500 
L 1906 2253 
L 2834 3500 
L 3513 3500 
z
" id="DejaVuSans-78" transform="scale(0.015625)"/>
      </defs>
      <use xlink:href="#DejaVuSans-78"/>
     </g>
    </g>
   </g>
   <g id="matplotlib.axis_2">
    <g id="ytick_1">
     <g id="line2d_15">
      <path clip-path="url(#p1126917c9e)" d="M 52.160938 221.187956 
L 386.960938 221.187956 
" style="fill:none;stroke:#b0b0b0;stroke-linecap:square;stroke-width:0.8;"/>
     </g>
     <g id="line2d_16">
      <defs>
       <path d="M 0 0 
L -3.5 0 
" id="m808f5b2228" style="stroke:#000000;stroke-width:0.8;"/>
      </defs>
      <g>
       <use style="stroke:#000000;stroke-width:0.8;" x="52.160938" xlink:href="#m808f5b2228" y="221.187956"/>
      </g>
     </g>
     <g id="text_9">
      <!-- −0.6 -->
      <g transform="translate(20.878125 224.987175)scale(0.1 -0.1)">
       <defs>
        <path d="M 684 794 
L 1344 794 
L 1344 0 
L 684 0 
L 684 794 
z
" id="DejaVuSans-2e" transform="scale(0.015625)"/>
        <path d="M 2113 2584 
Q 1688 2584 1439 2293 
Q 1191 2003 1191 1497 
Q 1191 994 1439 701 
Q 1688 409 2113 409 
Q 2538 409 2786 701 
Q 3034 994 3034 1497 
Q 3034 2003 2786 2293 
Q 2538 2584 2113 2584 
z
M 3366 4563 
L 3366 3988 
Q 3128 4100 2886 4159 
Q 2644 4219 2406 4219 
Q 1781 4219 1451 3797 
Q 1122 3375 1075 2522 
Q 1259 2794 1537 2939 
Q 1816 3084 2150 3084 
Q 2853 3084 3261 2657 
Q 3669 2231 3669 1497 
Q 3669 778 3244 343 
Q 2819 -91 2113 -91 
Q 1303 -91 875 529 
Q 447 1150 447 2328 
Q 447 3434 972 4092 
Q 1497 4750 2381 4750 
Q 2619 4750 2861 4703 
Q 3103 4656 3366 4563 
z
" id="DejaVuSans-36" transform="scale(0.015625)"/>
       </defs>
       <use xlink:href="#DejaVuSans-2212"/>
       <use x="83.789062" xlink:href="#DejaVuSans-30"/>
       <use x="147.412109" xlink:href="#DejaVuSans-2e"/>
       <use x="179.199219" xlink:href="#DejaVuSans-36"/>
      </g>
     </g>
    </g>
    <g id="ytick_2">
     <g id="line2d_17">
      <path clip-path="url(#p1126917c9e)" d="M 52.160938 195.708563 
L 386.960938 195.708563 
" style="fill:none;stroke:#b0b0b0;stroke-linecap:square;stroke-width:0.8;"/>
     </g>
     <g id="line2d_18">
      <g>
       <use style="stroke:#000000;stroke-width:0.8;" x="52.160938" xlink:href="#m808f5b2228" y="195.708563"/>
      </g>
     </g>
     <g id="text_10">
      <!-- −0.4 -->
      <g transform="translate(20.878125 199.507782)scale(0.1 -0.1)">
       <use xlink:href="#DejaVuSans-2212"/>
       <use x="83.789062" xlink:href="#DejaVuSans-30"/>
       <use x="147.412109" xlink:href="#DejaVuSans-2e"/>
       <use x="179.199219" xlink:href="#DejaVuSans-34"/>
      </g>
     </g>
    </g>
    <g id="ytick_3">
     <g id="line2d_19">
      <path clip-path="url(#p1126917c9e)" d="M 52.160938 170.22917 
L 386.960938 170.22917 
" style="fill:none;stroke:#b0b0b0;stroke-linecap:square;stroke-width:0.8;"/>
     </g>
     <g id="line2d_20">
      <g>
       <use style="stroke:#000000;stroke-width:0.8;" x="52.160938" xlink:href="#m808f5b2228" y="170.22917"/>
      </g>
     </g>
     <g id="text_11">
      <!-- −0.2 -->
      <g transform="translate(20.878125 174.028388)scale(0.1 -0.1)">
       <use xlink:href="#DejaVuSans-2212"/>
       <use x="83.789062" xlink:href="#DejaVuSans-30"/>
       <use x="147.412109" xlink:href="#DejaVuSans-2e"/>
       <use x="179.199219" xlink:href="#DejaVuSans-32"/>
      </g>
     </g>
    </g>
    <g id="ytick_4">
     <g id="line2d_21">
      <path clip-path="url(#p1126917c9e)" d="M 52.160938 144.749776 
L 386.960938 144.749776 
" style="fill:none;stroke:#b0b0b0;stroke-linecap:square;stroke-width:0.8;"/>
     </g>
     <g id="line2d_22">
      <g>
       <use style="stroke:#000000;stroke-width:0.8;" x="52.160938" xlink:href="#m808f5b2228" y="144.749776"/>
      </g>
     </g>
     <g id="text_12">
      <!-- 0.0 -->
      <g transform="translate(29.257812 148.548995)scale(0.1 -0.1)">
       <use xlink:href="#DejaVuSans-30"/>
       <use x="63.623047" xlink:href="#DejaVuSans-2e"/>
       <use x="95.410156" xlink:href="#DejaVuSans-30"/>
      </g>
     </g>
    </g>
    <g id="ytick_5">
     <g id="line2d_23">
      <path clip-path="url(#p1126917c9e)" d="M 52.160938 119.270383 
L 386.960938 119.270383 
" style="fill:none;stroke:#b0b0b0;stroke-linecap:square;stroke-width:0.8;"/>
     </g>
     <g id="line2d_24">
      <g>
       <use style="stroke:#000000;stroke-width:0.8;" x="52.160938" xlink:href="#m808f5b2228" y="119.270383"/>
      </g>
     </g>
     <g id="text_13">
      <!-- 0.2 -->
      <g transform="translate(29.257812 123.069602)scale(0.1 -0.1)">
       <use xlink:href="#DejaVuSans-30"/>
       <use x="63.623047" xlink:href="#DejaVuSans-2e"/>
       <use x="95.410156" xlink:href="#DejaVuSans-32"/>
      </g>
     </g>
    </g>
    <g id="ytick_6">
     <g id="line2d_25">
      <path clip-path="url(#p1126917c9e)" d="M 52.160938 93.79099 
L 386.960938 93.79099 
" style="fill:none;stroke:#b0b0b0;stroke-linecap:square;stroke-width:0.8;"/>
     </g>
     <g id="line2d_26">
      <g>
       <use style="stroke:#000000;stroke-width:0.8;" x="52.160938" xlink:href="#m808f5b2228" y="93.79099"/>
      </g>
     </g>
     <g id="text_14">
      <!-- 0.4 -->
      <g transform="translate(29.257812 97.590209)scale(0.1 -0.1)">
       <use xlink:href="#DejaVuSans-30"/>
       <use x="63.623047" xlink:href="#DejaVuSans-2e"/>
       <use x="95.410156" xlink:href="#DejaVuSans-34"/>
      </g>
     </g>
    </g>
    <g id="ytick_7">
     <g id="line2d_27">
      <path clip-path="url(#p1126917c9e)" d="M 52.160938 68.311596 
L 386.960938 68.311596 
" style="fill:none;stroke:#b0b0b0;stroke-linecap:square;stroke-width:0.8;"/>
     </g>
     <g id="line2d_28">
      <g>
       <use style="stroke:#000000;stroke-width:0.8;" x="52.160938" xlink:href="#m808f5b2228" y="68.311596"/>
      </g>
     </g>
     <g id="text_15">
      <!-- 0.6 -->
      <g transform="translate(29.257812 72.110815)scale(0.1 -0.1)">
       <use xlink:href="#DejaVuSans-30"/>
       <use x="63.623047" xlink:href="#DejaVuSans-2e"/>
       <use x="95.410156" xlink:href="#DejaVuSans-36"/>
      </g>
     </g>
    </g>
    <g id="ytick_8">
     <g id="line2d_29">
      <path clip-path="url(#p1126917c9e)" d="M 52.160938 42.832203 
L 386.960938 42.832203 
" style="fill:none;stroke:#b0b0b0;stroke-linecap:square;stroke-width:0.8;"/>
     </g>
     <g id="line2d_30">
      <g>
       <use style="stroke:#000000;stroke-width:0.8;" x="52.160938" xlink:href="#m808f5b2228" y="42.832203"/>
      </g>
     </g>
     <g id="text_16">
      <!-- 0.8 -->
      <g transform="translate(29.257812 46.631422)scale(0.1 -0.1)">
       <defs>
        <path d="M 2034 2216 
Q 1584 2216 1326 1975 
Q 1069 1734 1069 1313 
Q 1069 891 1326 650 
Q 1584 409 2034 409 
Q 2484 409 2743 651 
Q 3003 894 3003 1313 
Q 3003 1734 2745 1975 
Q 2488 2216 2034 2216 
z
M 1403 2484 
Q 997 2584 770 2862 
Q 544 3141 544 3541 
Q 544 4100 942 4425 
Q 1341 4750 2034 4750 
Q 2731 4750 3128 4425 
Q 3525 4100 3525 3541 
Q 3525 3141 3298 2862 
Q 3072 2584 2669 2484 
Q 3125 2378 3379 2068 
Q 3634 1759 3634 1313 
Q 3634 634 3220 271 
Q 2806 -91 2034 -91 
Q 1263 -91 848 271 
Q 434 634 434 1313 
Q 434 1759 690 2068 
Q 947 2378 1403 2484 
z
M 1172 3481 
Q 1172 3119 1398 2916 
Q 1625 2713 2034 2713 
Q 2441 2713 2670 2916 
Q 2900 3119 2900 3481 
Q 2900 3844 2670 4047 
Q 2441 4250 2034 4250 
Q 1625 4250 1398 4047 
Q 1172 3844 1172 3481 
z
" id="DejaVuSans-38" transform="scale(0.015625)"/>
       </defs>
       <use xlink:href="#DejaVuSans-30"/>
       <use x="63.623047" xlink:href="#DejaVuSans-2e"/>
       <use x="95.410156" xlink:href="#DejaVuSans-38"/>
      </g>
     </g>
    </g>
    <g id="ytick_9">
     <g id="line2d_31">
      <path clip-path="url(#p1126917c9e)" d="M 52.160938 17.35281 
L 386.960938 17.35281 
" style="fill:none;stroke:#b0b0b0;stroke-linecap:square;stroke-width:0.8;"/>
     </g>
     <g id="line2d_32">
      <g>
       <use style="stroke:#000000;stroke-width:0.8;" x="52.160938" xlink:href="#m808f5b2228" y="17.35281"/>
      </g>
     </g>
     <g id="text_17">
      <!-- 1.0 -->
      <g transform="translate(29.257812 21.152029)scale(0.1 -0.1)">
       <use xlink:href="#DejaVuSans-31"/>
       <use x="63.623047" xlink:href="#DejaVuSans-2e"/>
       <use x="95.410156" xlink:href="#DejaVuSans-30"/>
      </g>
     </g>
    </g>
    <g id="text_18">
     <!-- f(x) -->
     <g transform="translate(14.798438 124.541094)rotate(-90)scale(0.1 -0.1)">
      <defs>
       <path d="M 2375 4863 
L 2375 4384 
L 1825 4384 
Q 1516 4384 1395 4259 
Q 1275 4134 1275 3809 
L 1275 3500 
L 2222 3500 
L 2222 3053 
L 1275 3053 
L 1275 0 
L 697 0 
L 697 3053 
L 147 3053 
L 147 3500 
L 697 3500 
L 697 3744 
Q 697 4328 969 4595 
Q 1241 4863 1831 4863 
L 2375 4863 
z
" id="DejaVuSans-66" transform="scale(0.015625)"/>
       <path d="M 1984 4856 
Q 1566 4138 1362 3434 
Q 1159 2731 1159 2009 
Q 1159 1288 1364 580 
Q 1569 -128 1984 -844 
L 1484 -844 
Q 1016 -109 783 600 
Q 550 1309 550 2009 
Q 550 2706 781 3412 
Q 1013 4119 1484 4856 
L 1984 4856 
z
" id="DejaVuSans-28" transform="scale(0.015625)"/>
       <path d="M 513 4856 
L 1013 4856 
Q 1481 4119 1714 3412 
Q 1947 2706 1947 2009 
Q 1947 1309 1714 600 
Q 1481 -109 1013 -844 
L 513 -844 
Q 928 -128 1133 580 
Q 1338 1288 1338 2009 
Q 1338 2731 1133 3434 
Q 928 4138 513 4856 
z
" id="DejaVuSans-29" transform="scale(0.015625)"/>
      </defs>
      <use xlink:href="#DejaVuSans-66"/>
      <use x="35.205078" xlink:href="#DejaVuSans-28"/>
      <use x="74.21875" xlink:href="#DejaVuSans-78"/>
      <use x="133.398438" xlink:href="#DejaVuSans-29"/>
     </g>
    </g>
   </g>
   <g id="line2d_33">
    <path clip-path="url(#p1126917c9e)" d="M 67.379119 93.79099 
L 70.453499 89.041616 
L 73.52788 84.061694 
L 76.60226 78.86112 
L 79.67664 73.458648 
L 82.75102 67.884029 
L 85.8254 62.180192 
L 88.89978 56.405238 
L 91.974161 50.633916 
L 95.048541 44.95813 
L 98.122921 39.486015 
L 101.197301 34.339072 
L 104.271681 29.647063 
L 107.346061 25.540628 
L 110.420442 22.142065 
L 113.494822 19.555201 
L 116.569202 17.855739 
L 119.643582 17.083636 
L 122.717962 17.238893 
L 125.792342 18.281551 
L 128.866723 20.135908 
L 131.941103 22.698137 
L 135.015483 25.845941 
L 138.089863 29.448678 
L 141.164243 33.376588 
L 144.238623 37.508168 
L 147.313004 41.735285 
L 150.387384 45.966032 
L 153.461764 50.125664 
L 156.536144 54.156078 
L 159.610524 58.014344 
L 162.684904 61.670712 
L 165.759285 65.106428 
L 168.833665 68.311596 
L 171.908045 71.283225 
L 174.982425 74.023524 
L 178.056805 76.538485 
L 181.131185 78.836724 
L 184.205566 80.928566 
L 187.279946 82.825344 
L 190.354326 84.538866 
L 193.428706 86.081023 
L 196.503086 87.463513 
L 199.577466 88.697646 
L 202.651847 89.794222 
L 205.726227 90.76345 
L 208.800607 91.61491 
L 211.874987 92.357543 
L 214.949367 92.999653 
L 218.023747 93.548927 
L 221.098128 94.012461 
L 224.172508 94.396794 
L 227.246888 94.707941 
L 230.321268 94.95143 
L 233.395648 95.132337 
L 236.470028 95.255323 
L 239.544409 95.324662 
L 242.618789 95.344279 
L 245.693169 95.317775 
L 248.767549 95.248457 
L 251.841929 95.139361 
L 254.916309 94.993276 
L 257.99069 94.812769 
L 261.06507 94.600199 
L 264.13945 94.357738 
L 267.21383 94.087387 
L 270.28821 93.79099 
L 273.36259 93.470249 
L 276.436971 93.126736 
L 279.511351 92.761902 
L 282.585731 92.37709 
L 285.660111 91.973542 
L 288.734491 91.55241 
L 291.808871 91.11476 
L 294.883252 90.661584 
L 297.957632 90.193799 
L 301.032012 89.712262 
L 304.106392 89.217765 
L 307.180772 88.71105 
L 310.255152 88.192805 
L 313.329533 87.663674 
L 316.403913 87.124254 
L 319.478293 86.575107 
L 322.552673 86.016756 
L 325.627053 85.449689 
L 328.701433 84.874365 
L 331.775814 84.291212 
L 334.850194 83.700633 
L 337.924574 83.103005 
L 340.998954 82.49868 
L 344.073334 81.887993 
L 347.147714 81.271255 
L 350.222095 80.648759 
L 353.296475 80.020783 
L 356.370855 79.387586 
L 359.445235 78.749414 
L 362.519615 78.106498 
L 365.593995 77.459057 
L 368.668376 76.807296 
L 371.742756 76.15141 
" style="fill:none;stroke:#1f77b4;stroke-linecap:square;stroke-opacity:0.3;stroke-width:2;"/>
   </g>
   <g id="line2d_34">
    <path clip-path="url(#p1126917c9e)" d="M 67.379119 68.311596 
L 70.453499 64.466376 
L 73.52788 60.722432 
L 76.60226 57.209165 
L 79.67664 54.09002 
L 82.75102 51.564589 
L 85.8254 49.86769 
L 88.89978 49.263796 
L 91.974161 50.035087 
L 95.048541 52.461683 
L 98.122921 56.793605 
L 101.197301 63.215718 
L 104.271681 71.809359 
L 107.346061 82.517007 
L 110.420442 95.118222 
L 113.494822 109.225161 
L 116.569202 124.303212 
L 119.643582 139.716947 
L 122.717962 154.794998 
L 125.792342 168.901937 
L 128.866723 181.503153 
L 131.941103 192.2108 
L 135.015483 200.804442 
L 138.089863 207.226554 
L 141.164243 211.558476 
L 144.238623 213.985073 
L 147.313004 214.756364 
L 150.387384 214.15247 
L 153.461764 212.45557 
L 156.536144 209.930139 
L 159.610524 206.810994 
L 162.684904 203.297727 
L 165.759285 199.553784 
L 168.833665 195.708563 
L 171.908045 191.861194 
L 174.982425 188.085026 
L 178.056805 184.432189 
L 181.131185 180.937827 
L 184.205566 177.623829 
L 187.279946 174.501985 
L 190.354326 171.576564 
L 193.428706 168.846391 
L 196.503086 166.306465 
L 199.577466 163.949211 
L 202.651847 161.765427 
L 205.726227 159.744983 
L 208.800607 157.877345 
L 211.874987 156.151932 
L 214.949367 154.55838 
L 218.023747 153.086709 
L 221.098128 151.727436 
L 224.172508 150.471634 
L 227.246888 149.310964 
L 230.321268 148.237681 
L 233.395648 147.244625 
L 236.470028 146.325197 
L 239.544409 145.473334 
L 242.618789 144.683477 
L 245.693169 143.950536 
L 248.767549 143.269857 
L 251.841929 142.637185 
L 254.916309 142.048638 
L 257.99069 141.500668 
L 261.06507 140.990038 
L 264.13945 140.513793 
L 267.21383 140.069235 
L 270.28821 139.653898 
L 273.36259 139.26553 
L 276.436971 138.902074 
L 279.511351 138.561645 
L 282.585731 138.24252 
L 285.660111 137.943122 
L 288.734491 137.662004 
L 291.808871 137.39784 
L 294.883252 137.149412 
L 297.957632 136.915604 
L 301.032012 136.695388 
L 304.106392 136.487819 
L 307.180772 136.292028 
L 310.255152 136.107213 
L 313.329533 135.932636 
L 316.403913 135.767616 
L 319.478293 135.611522 
L 322.552673 135.463774 
L 325.627053 135.323833 
L 328.701433 135.191203 
L 331.775814 135.065421 
L 334.850194 134.94606 
L 337.924574 134.832724 
L 340.998954 134.725045 
L 344.073334 134.622681 
L 347.147714 134.525313 
L 350.222095 134.432645 
L 353.296475 134.344403 
L 356.370855 134.26033 
L 359.445235 134.180186 
L 362.519615 134.103747 
L 365.593995 134.030807 
L 368.668376 133.961168 
L 371.742756 133.89465 
" style="fill:none;stroke:#ff7f0e;stroke-linecap:square;stroke-opacity:0.3;stroke-width:2;"/>
   </g>
   <g id="patch_3">
    <path d="M 52.160938 224.64 
L 52.160938 7.2 
" style="fill:none;stroke:#000000;stroke-linecap:square;stroke-linejoin:miter;stroke-width:0.8;"/>
   </g>
   <g id="patch_4">
    <path d="M 386.960938 224.64 
L 386.960938 7.2 
" style="fill:none;stroke:#000000;stroke-linecap:square;stroke-linejoin:miter;stroke-width:0.8;"/>
   </g>
   <g id="patch_5">
    <path d="M 52.160938 224.64 
L 386.960938 224.64 
" style="fill:none;stroke:#000000;stroke-linecap:square;stroke-linejoin:miter;stroke-width:0.8;"/>
   </g>
   <g id="patch_6">
    <path d="M 52.160938 7.2 
L 386.960938 7.2 
" style="fill:none;stroke:#000000;stroke-linecap:square;stroke-linejoin:miter;stroke-width:0.8;"/>
   </g>
   <g id="PathCollection_1">
    <defs>
     <path d="M 0 3 
C 0.795609 3 1.55874 2.683901 2.12132 2.12132 
C 2.683901 1.55874 3 0.795609 3 0 
C 3 -0.795609 2.683901 -1.55874 2.12132 -2.12132 
C 1.55874 -2.683901 0.795609 -3 0 -3 
C -0.795609 -3 -1.55874 -2.683901 -2.12132 -2.12132 
C -2.683901 -1.55874 -3 -0.795609 -3 0 
C -3 0.795609 -2.683901 1.55874 -2.12132 2.12132 
C -1.55874 2.683901 -0.795609 3 0 3 
z
" id="m87fa0440db" style="stroke:#1f77b4;"/>
    </defs>
    <g clip-path="url(#p1126917c9e)">
     <use style="fill:#1f77b4;stroke:#1f77b4;" x="67.379119" xlink:href="#m87fa0440db" y="93.79099"/>
     <use style="fill:#1f77b4;stroke:#1f77b4;" x="83.398258" xlink:href="#m87fa0440db" y="66.692251"/>
     <use style="fill:#1f77b4;stroke:#1f77b4;" x="99.417397" xlink:href="#m87fa0440db" y="37.271873"/>
     <use style="fill:#1f77b4;stroke:#1f77b4;" x="115.436536" xlink:href="#m87fa0440db" y="18.375245"/>
     <use style="fill:#1f77b4;stroke:#1f77b4;" x="131.455674" xlink:href="#m87fa0440db" y="22.251357"/>
     <use style="fill:#1f77b4;stroke:#1f77b4;" x="147.474813" xlink:href="#m87fa0440db" y="41.958592"/>
     <use style="fill:#1f77b4;stroke:#1f77b4;" x="163.493952" xlink:href="#m87fa0440db" y="62.596785"/>
     <use style="fill:#1f77b4;stroke:#1f77b4;" x="179.513091" xlink:href="#m87fa0440db" y="77.653538"/>
     <use style="fill:#1f77b4;stroke:#1f77b4;" x="195.532229" xlink:href="#m87fa0440db" y="87.043491"/>
     <use style="fill:#1f77b4;stroke:#1f77b4;" x="211.551368" xlink:href="#m87fa0440db" y="92.284244"/>
     <use style="fill:#1f77b4;stroke:#1f77b4;" x="227.570507" xlink:href="#m87fa0440db" y="94.736665"/>
     <use style="fill:#1f77b4;stroke:#1f77b4;" x="243.589646" xlink:href="#m87fa0440db" y="95.34073"/>
     <use style="fill:#1f77b4;stroke:#1f77b4;" x="259.608784" xlink:href="#m87fa0440db" y="94.704745"/>
     <use style="fill:#1f77b4;stroke:#1f77b4;" x="275.627923" xlink:href="#m87fa0440db" y="93.219258"/>
     <use style="fill:#1f77b4;stroke:#1f77b4;" x="291.647062" xlink:href="#m87fa0440db" y="91.13819"/>
     <use style="fill:#1f77b4;stroke:#1f77b4;" x="307.666201" xlink:href="#m87fa0440db" y="88.629972"/>
     <use style="fill:#1f77b4;stroke:#1f77b4;" x="323.685339" xlink:href="#m87fa0440db" y="85.808825"/>
     <use style="fill:#1f77b4;stroke:#1f77b4;" x="339.704478" xlink:href="#m87fa0440db" y="82.753927"/>
     <use style="fill:#1f77b4;stroke:#1f77b4;" x="355.723617" xlink:href="#m87fa0440db" y="79.521312"/>
     <use style="fill:#1f77b4;stroke:#1f77b4;" x="371.742756" xlink:href="#m87fa0440db" y="76.15141"/>
    </g>
   </g>
   <g id="PathCollection_2">
    <defs>
     <path d="M 0 3 
C 0.795609 3 1.55874 2.683901 2.12132 2.12132 
C 2.683901 1.55874 3 0.795609 3 0 
C 3 -0.795609 2.683901 -1.55874 2.12132 -2.12132 
C 1.55874 -2.683901 0.795609 -3 0 -3 
C -0.795609 -3 -1.55874 -2.683901 -2.12132 -2.12132 
C -2.683901 -1.55874 -3 -0.795609 -3 0 
C -3 0.795609 -2.683901 1.55874 -2.12132 2.12132 
C -1.55874 2.683901 -0.795609 3 0 3 
z
" id="mbc600a925f" style="stroke:#ff7f0e;"/>
    </defs>
    <g clip-path="url(#p1126917c9e)">
     <use style="fill:#ff7f0e;stroke:#ff7f0e;" x="67.379119" xlink:href="#mbc600a925f" y="62.61303"/>
     <use style="fill:#ff7f0e;stroke:#ff7f0e;" x="83.398258" xlink:href="#mbc600a925f" y="55.261175"/>
     <use style="fill:#ff7f0e;stroke:#ff7f0e;" x="99.417397" xlink:href="#mbc600a925f" y="68.247851"/>
     <use style="fill:#ff7f0e;stroke:#ff7f0e;" x="115.436536" xlink:href="#mbc600a925f" y="120.967292"/>
     <use style="fill:#ff7f0e;stroke:#ff7f0e;" x="131.455674" xlink:href="#mbc600a925f" y="182.090075"/>
     <use style="fill:#ff7f0e;stroke:#ff7f0e;" x="147.474813" xlink:href="#mbc600a925f" y="208.630038"/>
     <use style="fill:#ff7f0e;stroke:#ff7f0e;" x="163.493952" xlink:href="#mbc600a925f" y="201.266775"/>
     <use style="fill:#ff7f0e;stroke:#ff7f0e;" x="179.513091" xlink:href="#mbc600a925f" y="183.457061"/>
     <use style="fill:#ff7f0e;stroke:#ff7f0e;" x="195.532229" xlink:href="#mbc600a925f" y="167.91506"/>
     <use style="fill:#ff7f0e;stroke:#ff7f0e;" x="211.551368" xlink:href="#mbc600a925f" y="156.930636"/>
     <use style="fill:#ff7f0e;stroke:#ff7f0e;" x="227.570507" xlink:href="#mbc600a925f" y="149.589212"/>
     <use style="fill:#ff7f0e;stroke:#ff7f0e;" x="243.589646" xlink:href="#mbc600a925f" y="144.699236"/>
     <use style="fill:#ff7f0e;stroke:#ff7f0e;" x="259.608784" xlink:href="#mbc600a925f" y="141.39078"/>
     <use style="fill:#ff7f0e;stroke:#ff7f0e;" x="275.627923" xlink:href="#mbc600a925f" y="139.102731"/>
     <use style="fill:#ff7f0e;stroke:#ff7f0e;" x="291.647062" xlink:href="#mbc600a925f" y="137.483406"/>
     <use style="fill:#ff7f0e;stroke:#ff7f0e;" x="307.666201" xlink:href="#mbc600a925f" y="136.311615"/>
     <use style="fill:#ff7f0e;stroke:#ff7f0e;" x="323.685339" xlink:href="#mbc600a925f" y="135.446039"/>
     <use style="fill:#ff7f0e;stroke:#ff7f0e;" x="339.704478" xlink:href="#mbc600a925f" y="134.794547"/>
     <use style="fill:#ff7f0e;stroke:#ff7f0e;" x="355.723617" xlink:href="#mbc600a925f" y="134.295791"/>
     <use style="fill:#ff7f0e;stroke:#ff7f0e;" x="371.742756" xlink:href="#mbc600a925f" y="133.861049"/>
    </g>
   </g>
   <g id="legend_1">
    <g id="patch_7">
     <path d="M 250.060938 74.134375 
L 379.960938 74.134375 
Q 381.960938 74.134375 381.960938 72.134375 
L 381.960938 14.2 
Q 381.960938 12.2 379.960938 12.2 
L 250.060938 12.2 
Q 248.060938 12.2 248.060938 14.2 
L 248.060938 72.134375 
Q 248.060938 74.134375 250.060938 74.134375 
z
" style="fill:#ffffff;opacity:0.8;stroke:#cccccc;stroke-linejoin:miter;"/>
    </g>
    <g id="line2d_35">
     <path d="M 252.060938 20.298437 
L 272.060938 20.298437 
" style="fill:none;stroke:#1f77b4;stroke-linecap:square;stroke-opacity:0.3;stroke-width:2;"/>
    </g>
    <g id="line2d_36"/>
    <g id="text_19">
     <!-- exact $\sf f(x)$ -->
     <g transform="translate(280.060938 23.798437)scale(0.1 -0.1)">
      <defs>
       <path d="M 3597 1894 
L 3597 1613 
L 953 1613 
Q 991 1019 1311 708 
Q 1631 397 2203 397 
Q 2534 397 2845 478 
Q 3156 559 3463 722 
L 3463 178 
Q 3153 47 2828 -22 
Q 2503 -91 2169 -91 
Q 1331 -91 842 396 
Q 353 884 353 1716 
Q 353 2575 817 3079 
Q 1281 3584 2069 3584 
Q 2775 3584 3186 3129 
Q 3597 2675 3597 1894 
z
M 3022 2063 
Q 3016 2534 2758 2815 
Q 2500 3097 2075 3097 
Q 1594 3097 1305 2825 
Q 1016 2553 972 2059 
L 3022 2063 
z
" id="DejaVuSans-65" transform="scale(0.015625)"/>
       <path d="M 2194 1759 
Q 1497 1759 1228 1600 
Q 959 1441 959 1056 
Q 959 750 1161 570 
Q 1363 391 1709 391 
Q 2188 391 2477 730 
Q 2766 1069 2766 1631 
L 2766 1759 
L 2194 1759 
z
M 3341 1997 
L 3341 0 
L 2766 0 
L 2766 531 
Q 2569 213 2275 61 
Q 1981 -91 1556 -91 
Q 1019 -91 701 211 
Q 384 513 384 1019 
Q 384 1609 779 1909 
Q 1175 2209 1959 2209 
L 2766 2209 
L 2766 2266 
Q 2766 2663 2505 2880 
Q 2244 3097 1772 3097 
Q 1472 3097 1187 3025 
Q 903 2953 641 2809 
L 641 3341 
Q 956 3463 1253 3523 
Q 1550 3584 1831 3584 
Q 2591 3584 2966 3190 
Q 3341 2797 3341 1997 
z
" id="DejaVuSans-61" transform="scale(0.015625)"/>
       <path d="M 3122 3366 
L 3122 2828 
Q 2878 2963 2633 3030 
Q 2388 3097 2138 3097 
Q 1578 3097 1268 2742 
Q 959 2388 959 1747 
Q 959 1106 1268 751 
Q 1578 397 2138 397 
Q 2388 397 2633 464 
Q 2878 531 3122 666 
L 3122 134 
Q 2881 22 2623 -34 
Q 2366 -91 2075 -91 
Q 1284 -91 818 406 
Q 353 903 353 1747 
Q 353 2603 823 3093 
Q 1294 3584 2113 3584 
Q 2378 3584 2631 3529 
Q 2884 3475 3122 3366 
z
" id="DejaVuSans-63" transform="scale(0.015625)"/>
       <path d="M 1172 4494 
L 1172 3500 
L 2356 3500 
L 2356 3053 
L 1172 3053 
L 1172 1153 
Q 1172 725 1289 603 
Q 1406 481 1766 481 
L 2356 481 
L 2356 0 
L 1766 0 
Q 1100 0 847 248 
Q 594 497 594 1153 
L 594 3053 
L 172 3053 
L 172 3500 
L 594 3500 
L 594 4494 
L 1172 4494 
z
" id="DejaVuSans-74" transform="scale(0.015625)"/>
       <path id="DejaVuSans-20" transform="scale(0.015625)"/>
      </defs>
      <use transform="translate(0 0.015625)" xlink:href="#DejaVuSans-65"/>
      <use transform="translate(61.523438 0.015625)" xlink:href="#DejaVuSans-78"/>
      <use transform="translate(120.703125 0.015625)" xlink:href="#DejaVuSans-61"/>
      <use transform="translate(181.982422 0.015625)" xlink:href="#DejaVuSans-63"/>
      <use transform="translate(236.962891 0.015625)" xlink:href="#DejaVuSans-74"/>
      <use transform="translate(276.171875 0.015625)" xlink:href="#DejaVuSans-20"/>
      <use transform="translate(307.958984 0.015625)" xlink:href="#DejaVuSans-66"/>
      <use transform="translate(343.164062 0.015625)" xlink:href="#DejaVuSans-28"/>
      <use transform="translate(382.177734 0.015625)" xlink:href="#DejaVuSans-78"/>
      <use transform="translate(441.357422 0.015625)" xlink:href="#DejaVuSans-29"/>
     </g>
    </g>
    <g id="line2d_37">
     <path d="M 252.060938 34.976562 
L 272.060938 34.976562 
" style="fill:none;stroke:#ff7f0e;stroke-linecap:square;stroke-opacity:0.3;stroke-width:2;"/>
    </g>
    <g id="line2d_38"/>
    <g id="text_20">
     <!-- exact $\sf f'(x)$ -->
     <g transform="translate(280.060938 38.476562)scale(0.1 -0.1)">
      <defs>
       <path d="M 225 347 
Q 184 359 184 409 
L 966 3316 
Q 1003 3434 1093 3506 
Q 1184 3578 1300 3578 
Q 1450 3578 1564 3479 
Q 1678 3381 1678 3231 
Q 1678 3166 1644 3084 
L 488 319 
Q 466 275 428 275 
Q 394 275 320 306 
Q 247 338 225 347 
z
" id="Cmsy10-30" transform="scale(0.015625)"/>
      </defs>
      <use transform="translate(0 0.584375)" xlink:href="#DejaVuSans-65"/>
      <use transform="translate(61.523438 0.584375)" xlink:href="#DejaVuSans-78"/>
      <use transform="translate(120.703125 0.584375)" xlink:href="#DejaVuSans-61"/>
      <use transform="translate(181.982422 0.584375)" xlink:href="#DejaVuSans-63"/>
      <use transform="translate(236.962891 0.584375)" xlink:href="#DejaVuSans-74"/>
      <use transform="translate(276.171875 0.584375)" xlink:href="#DejaVuSans-20"/>
      <use transform="translate(307.958984 0.584375)" xlink:href="#DejaVuSans-66"/>
      <use transform="translate(344.121094 38.865625)scale(0.7)" xlink:href="#Cmsy10-30"/>
      <use transform="translate(366.098633 0.584375)" xlink:href="#DejaVuSans-28"/>
      <use transform="translate(405.112305 0.584375)" xlink:href="#DejaVuSans-78"/>
      <use transform="translate(464.291992 0.584375)" xlink:href="#DejaVuSans-29"/>
     </g>
    </g>
    <g id="PathCollection_3">
     <g>
      <use style="fill:#1f77b4;stroke:#1f77b4;" x="262.060938" xlink:href="#m87fa0440db" y="50.529687"/>
     </g>
    </g>
    <g id="text_21">
     <!-- discretised $\sf f(x_i)$ -->
     <g transform="translate(280.060938 53.154687)scale(0.1 -0.1)">
      <defs>
       <path d="M 2906 2969 
L 2906 4863 
L 3481 4863 
L 3481 0 
L 2906 0 
L 2906 525 
Q 2725 213 2448 61 
Q 2172 -91 1784 -91 
Q 1150 -91 751 415 
Q 353 922 353 1747 
Q 353 2572 751 3078 
Q 1150 3584 1784 3584 
Q 2172 3584 2448 3432 
Q 2725 3281 2906 2969 
z
M 947 1747 
Q 947 1113 1208 752 
Q 1469 391 1925 391 
Q 2381 391 2643 752 
Q 2906 1113 2906 1747 
Q 2906 2381 2643 2742 
Q 2381 3103 1925 3103 
Q 1469 3103 1208 2742 
Q 947 2381 947 1747 
z
" id="DejaVuSans-64" transform="scale(0.015625)"/>
       <path d="M 603 3500 
L 1178 3500 
L 1178 0 
L 603 0 
L 603 3500 
z
M 603 4863 
L 1178 4863 
L 1178 4134 
L 603 4134 
L 603 4863 
z
" id="DejaVuSans-69" transform="scale(0.015625)"/>
       <path d="M 2834 3397 
L 2834 2853 
Q 2591 2978 2328 3040 
Q 2066 3103 1784 3103 
Q 1356 3103 1142 2972 
Q 928 2841 928 2578 
Q 928 2378 1081 2264 
Q 1234 2150 1697 2047 
L 1894 2003 
Q 2506 1872 2764 1633 
Q 3022 1394 3022 966 
Q 3022 478 2636 193 
Q 2250 -91 1575 -91 
Q 1294 -91 989 -36 
Q 684 19 347 128 
L 347 722 
Q 666 556 975 473 
Q 1284 391 1588 391 
Q 1994 391 2212 530 
Q 2431 669 2431 922 
Q 2431 1156 2273 1281 
Q 2116 1406 1581 1522 
L 1381 1569 
Q 847 1681 609 1914 
Q 372 2147 372 2553 
Q 372 3047 722 3315 
Q 1072 3584 1716 3584 
Q 2034 3584 2315 3537 
Q 2597 3491 2834 3397 
z
" id="DejaVuSans-73" transform="scale(0.015625)"/>
       <path d="M 2631 2963 
Q 2534 3019 2420 3045 
Q 2306 3072 2169 3072 
Q 1681 3072 1420 2755 
Q 1159 2438 1159 1844 
L 1159 0 
L 581 0 
L 581 3500 
L 1159 3500 
L 1159 2956 
Q 1341 3275 1631 3429 
Q 1922 3584 2338 3584 
Q 2397 3584 2469 3576 
Q 2541 3569 2628 3553 
L 2631 2963 
z
" id="DejaVuSans-72" transform="scale(0.015625)"/>
      </defs>
      <use transform="translate(0 0.015625)" xlink:href="#DejaVuSans-64"/>
      <use transform="translate(63.476562 0.015625)" xlink:href="#DejaVuSans-69"/>
      <use transform="translate(91.259766 0.015625)" xlink:href="#DejaVuSans-73"/>
      <use transform="translate(143.359375 0.015625)" xlink:href="#DejaVuSans-63"/>
      <use transform="translate(198.339844 0.015625)" xlink:href="#DejaVuSans-72"/>
      <use transform="translate(239.453125 0.015625)" xlink:href="#DejaVuSans-65"/>
      <use transform="translate(300.976562 0.015625)" xlink:href="#DejaVuSans-74"/>
      <use transform="translate(340.185547 0.015625)" xlink:href="#DejaVuSans-69"/>
      <use transform="translate(367.96875 0.015625)" xlink:href="#DejaVuSans-73"/>
      <use transform="translate(420.068359 0.015625)" xlink:href="#DejaVuSans-65"/>
      <use transform="translate(481.591797 0.015625)" xlink:href="#DejaVuSans-64"/>
      <use transform="translate(545.068359 0.015625)" xlink:href="#DejaVuSans-20"/>
      <use transform="translate(576.855469 0.015625)" xlink:href="#DejaVuSans-66"/>
      <use transform="translate(612.060547 0.015625)" xlink:href="#DejaVuSans-28"/>
      <use transform="translate(651.074219 0.015625)" xlink:href="#DejaVuSans-78"/>
      <use transform="translate(711.210938 -16.390625)scale(0.7)" xlink:href="#DejaVuSans-69"/>
      <use transform="translate(733.393555 0.015625)" xlink:href="#DejaVuSans-29"/>
     </g>
    </g>
    <g id="PathCollection_4">
     <g>
      <use style="fill:#ff7f0e;stroke:#ff7f0e;" x="262.060938" xlink:href="#mbc600a925f" y="65.409375"/>
     </g>
    </g>
    <g id="text_22">
     <!-- approximation $\sf f'(x_i)$ -->
     <g transform="translate(280.060938 68.034375)scale(0.1 -0.1)">
      <defs>
       <path d="M 1159 525 
L 1159 -1331 
L 581 -1331 
L 581 3500 
L 1159 3500 
L 1159 2969 
Q 1341 3281 1617 3432 
Q 1894 3584 2278 3584 
Q 2916 3584 3314 3078 
Q 3713 2572 3713 1747 
Q 3713 922 3314 415 
Q 2916 -91 2278 -91 
Q 1894 -91 1617 61 
Q 1341 213 1159 525 
z
M 3116 1747 
Q 3116 2381 2855 2742 
Q 2594 3103 2138 3103 
Q 1681 3103 1420 2742 
Q 1159 2381 1159 1747 
Q 1159 1113 1420 752 
Q 1681 391 2138 391 
Q 2594 391 2855 752 
Q 3116 1113 3116 1747 
z
" id="DejaVuSans-70" transform="scale(0.015625)"/>
       <path d="M 1959 3097 
Q 1497 3097 1228 2736 
Q 959 2375 959 1747 
Q 959 1119 1226 758 
Q 1494 397 1959 397 
Q 2419 397 2687 759 
Q 2956 1122 2956 1747 
Q 2956 2369 2687 2733 
Q 2419 3097 1959 3097 
z
M 1959 3584 
Q 2709 3584 3137 3096 
Q 3566 2609 3566 1747 
Q 3566 888 3137 398 
Q 2709 -91 1959 -91 
Q 1206 -91 779 398 
Q 353 888 353 1747 
Q 353 2609 779 3096 
Q 1206 3584 1959 3584 
z
" id="DejaVuSans-6f" transform="scale(0.015625)"/>
       <path d="M 3328 2828 
Q 3544 3216 3844 3400 
Q 4144 3584 4550 3584 
Q 5097 3584 5394 3201 
Q 5691 2819 5691 2113 
L 5691 0 
L 5113 0 
L 5113 2094 
Q 5113 2597 4934 2840 
Q 4756 3084 4391 3084 
Q 3944 3084 3684 2787 
Q 3425 2491 3425 1978 
L 3425 0 
L 2847 0 
L 2847 2094 
Q 2847 2600 2669 2842 
Q 2491 3084 2119 3084 
Q 1678 3084 1418 2786 
Q 1159 2488 1159 1978 
L 1159 0 
L 581 0 
L 581 3500 
L 1159 3500 
L 1159 2956 
Q 1356 3278 1631 3431 
Q 1906 3584 2284 3584 
Q 2666 3584 2933 3390 
Q 3200 3197 3328 2828 
z
" id="DejaVuSans-6d" transform="scale(0.015625)"/>
       <path d="M 3513 2113 
L 3513 0 
L 2938 0 
L 2938 2094 
Q 2938 2591 2744 2837 
Q 2550 3084 2163 3084 
Q 1697 3084 1428 2787 
Q 1159 2491 1159 1978 
L 1159 0 
L 581 0 
L 581 3500 
L 1159 3500 
L 1159 2956 
Q 1366 3272 1645 3428 
Q 1925 3584 2291 3584 
Q 2894 3584 3203 3211 
Q 3513 2838 3513 2113 
z
" id="DejaVuSans-6e" transform="scale(0.015625)"/>
      </defs>
      <use transform="translate(0 0.584375)" xlink:href="#DejaVuSans-61"/>
      <use transform="translate(61.279297 0.584375)" xlink:href="#DejaVuSans-70"/>
      <use transform="translate(124.755859 0.584375)" xlink:href="#DejaVuSans-70"/>
      <use transform="translate(188.232422 0.584375)" xlink:href="#DejaVuSans-72"/>
      <use transform="translate(229.345703 0.584375)" xlink:href="#DejaVuSans-6f"/>
      <use transform="translate(290.527344 0.584375)" xlink:href="#DejaVuSans-78"/>
      <use transform="translate(349.707031 0.584375)" xlink:href="#DejaVuSans-69"/>
      <use transform="translate(377.490234 0.584375)" xlink:href="#DejaVuSans-6d"/>
      <use transform="translate(474.902344 0.584375)" xlink:href="#DejaVuSans-61"/>
      <use transform="translate(536.181641 0.584375)" xlink:href="#DejaVuSans-74"/>
      <use transform="translate(575.390625 0.584375)" xlink:href="#DejaVuSans-69"/>
      <use transform="translate(603.173828 0.584375)" xlink:href="#DejaVuSans-6f"/>
      <use transform="translate(664.355469 0.584375)" xlink:href="#DejaVuSans-6e"/>
      <use transform="translate(727.734375 0.584375)" xlink:href="#DejaVuSans-20"/>
      <use transform="translate(759.521484 0.584375)" xlink:href="#DejaVuSans-66"/>
      <use transform="translate(795.683594 38.865625)scale(0.7)" xlink:href="#Cmsy10-30"/>
      <use transform="translate(817.661133 0.584375)" xlink:href="#DejaVuSans-28"/>
      <use transform="translate(856.674805 0.584375)" xlink:href="#DejaVuSans-78"/>
      <use transform="translate(916.811523 -15.821875)scale(0.7)" xlink:href="#DejaVuSans-69"/>
      <use transform="translate(938.994141 0.584375)" xlink:href="#DejaVuSans-29"/>
     </g>
    </g>
   </g>
  </g>
 </g>
 <defs>
  <clipPath id="p1126917c9e">
   <rect height="217.44" width="334.8" x="52.160938" y="7.2"/>
  </clipPath>
 </defs>
</svg>