<?xml version="1.0" encoding="utf-8" standalone="no"?>
<!DOCTYPE svg PUBLIC "-//W3C//DTD SVG 1.1//EN"
  "http://www.w3.org/Graphics/SVG/1.1/DTD/svg11.dtd">
<svg xmlns:xlink="http://www.w3.org/1999/xlink" width="385.78125pt" height="266.51625pt" viewBox="0 0 385.78125 266.51625" xmlns="http://www.w3.org/2000/svg" version="1.1">
 <metadata>
  <rdf:RDF xmlns:dc="http://purl.org/dc/elements/1.1/" xmlns:cc="http://creativecommons.org/ns#" xmlns:rdf="http://www.w3.org/1999/02/22-rdf-syntax-ns#">
   <cc:Work>
    <dc:type rdf:resource="http://purl.org/dc/dcmitype/StillImage"/>
    <dc:date>2022-11-23T18:11:43.508242</dc:date>
    <dc:format>image/svg+xml</dc:format>
    <dc:creator>
     <cc:Agent>
      <dc:title>Matplotlib v3.6.0, https://matplotlib.org/</dc:title>
     </cc:Agent>
    </dc:creator>
   </cc:Work>
  </rdf:RDF>
 </metadata>
 <defs>
  <style type="text/css">*{stroke-linejoin: round; stroke-linecap: butt}</style>
 </defs>
 <g id="figure_1">
  <g id="patch_1">
   <path d="M 0 266.51625 
L 385.78125 266.51625 
L 385.78125 0 
L 0 0 
z
" style="fill: #ffffff"/>
  </g>
  <g id="axes_1">
   <g id="patch_2">
    <path d="M 43.78125 228.96 
L 378.58125 228.96 
L 378.58125 7.2 
L 43.78125 7.2 
z
" style="fill: #ffffff"/>
   </g>
   <g id="PolyCollection_1">
    <defs>
     <path id="mb17d142382" d="M 58.999432 -218.692755 
L 58.999432 -218.692755 
L 59.323885 -218.692755 
L 59.63366 -158.317498 
L 59.920166 -148.90339 
L 60.229719 -150.092138 
L 60.523157 -160.340848 
L 60.826554 -165.079409 
L 61.139355 -170.405801 
L 61.437215 -163.711889 
L 61.740212 -164.153046 
L 62.043859 -164.722679 
L 62.354726 -162.179412 
L 62.655567 -156.356732 
L 62.956407 -155.703196 
L 63.267275 -161.025058 
L 63.568115 -156.537046 
L 63.8783 -153.082435 
L 64.178753 -154.024361 
L 64.482156 -150.156263 
L 64.789247 -150.761837 
L 65.091835 -154.552345 
L 65.392155 -155.227847 
L 65.7027 -153.500396 
L 66.007699 -146.338841 
L 66.304992 -147.699703 
L 66.613502 -148.01774 
L 66.912989 -150.619925 
L 67.225163 -153.062943 
L 67.525146 -155.987644 
L 67.834737 -152.507157 
L 68.131413 -150.761543 
L 68.439894 -155.768408 
L 68.746479 -147.331823 
L 69.045327 -144.815065 
L 69.352178 -146.122383 
L 69.655162 -143.77878 
L 69.957872 -143.286837 
L 70.265239 -152.192961 
L 70.567695 -149.638364 
L 70.876442 -144.215664 
L 71.176666 -144.147178 
L 71.478676 -140.12039 
L 71.788751 -143.007689 
L 72.095732 -140.112799 
L 72.394891 -136.523199 
L 72.705758 -144.705263 
L 73.000737 -141.683979 
L 73.305892 -143.98853 
L 73.609708 -147.842828 
L 73.913493 -151.416995 
L 74.224807 -149.061863 
L 74.529272 -142.632089 
L 74.834051 -142.439909 
L 75.139693 -146.352617 
L 75.442271 -144.923199 
L 75.740659 -140.978108 
L 76.049781 -140.496122 
L 76.357777 -135.741866 
L 76.656216 -136.349264 
L 76.962 -136.943489 
L 77.262528 -139.59668 
L 77.565837 -141.318987 
L 77.879291 -137.485474 
L 78.185613 -137.952835 
L 78.480135 -138.821405 
L 78.791925 -139.305611 
L 79.088355 -135.150267 
L 79.392009 -135.629342 
L 79.707086 -134.03557 
L 80.003891 -132.182804 
L 80.312942 -129.048892 
L 80.614211 -131.577172 
L 80.918656 -131.525436 
L 81.218018 -131.094027 
L 81.530244 -135.526698 
L 81.828693 -133.629031 
L 82.139469 -130.92576 
L 82.438161 -129.747732 
L 82.741936 -130.414985 
L 83.044382 -127.418031 
L 83.357228 -130.040456 
L 83.660627 -132.308272 
L 83.965884 -131.426987 
L 84.27046 -133.205924 
L 84.570401 -131.705148 
L 84.871112 -132.893796 
L 85.181989 -130.127901 
L 85.482355 -131.170478 
L 85.788931 -132.928833 
L 86.091499 -127.949439 
L 86.401787 -129.761298 
L 86.701464 -130.615477 
L 87.009713 -129.030886 
L 87.305859 -130.316934 
L 87.617213 -129.065499 
L 87.922114 -126.817082 
L 88.221314 -128.944494 
L 88.533022 -130.048444 
L 88.828255 -131.901924 
L 89.134658 -129.048892 
L 89.443942 -126.923692 
L 89.744917 -130.092284 
L 90.049484 -129.296237 
L 90.355187 -133.766989 
L 90.659946 -135.993581 
L 90.962869 -127.321528 
L 91.270997 -124.876403 
L 91.572682 -124.55504 
L 91.871892 -126.378188 
L 92.182627 -123.819114 
L 92.484373 -121.336075 
L 92.783887 -122.888925 
L 93.089985 -123.099468 
L 93.396581 -123.70715 
L 93.70619 -121.762663 
L 94.010716 -122.841509 
L 94.310473 -119.633039 
L 94.614391 -117.324509 
L 94.922041 -116.135532 
L 95.219638 -116.150649 
L 95.534086 -114.385788 
L 95.836126 -114.411706 
L 96.140835 -112.292456 
L 96.445868 -109.695487 
L 96.740959 -109.495476 
L 97.045982 -111.732567 
L 97.35412 -116.502988 
L 97.659762 -115.708128 
L 97.965576 -113.529103 
L 98.270934 -112.020231 
L 98.568896 -109.947313 
L 98.879256 -111.254542 
L 99.179064 -110.487754 
L 99.491331 -108.979323 
L 99.786604 -107.396626 
L 100.095939 -104.565846 
L 100.402129 -103.320552 
L 100.706959 -105.282732 
L 101.006859 -103.434863 
L 101.312562 -106.408528 
L 101.618082 -108.308968 
L 101.921634 -104.785002 
L 102.221625 -103.409795 
L 102.529925 -98.84548 
L 102.830312 -102.318299 
L 103.136065 -104.620884 
L 103.438704 -105.241224 
L 103.751143 -103.584492 
L 104.050485 -104.605237 
L 104.350233 -102.081904 
L 104.663108 -101.276969 
L 104.966508 -100.482792 
L 105.267463 -99.807267 
L 105.568823 -98.599671 
L 105.876342 -98.453159 
L 106.186864 -98.884437 
L 106.489696 -97.853935 
L 106.788835 -99.356112 
L 107.093269 -102.788895 
L 107.402675 -99.912187 
L 107.701104 -99.977747 
L 108.012731 -94.704482 
L 108.311363 -97.222824 
L 108.618608 -98.040155 
L 108.915535 -98.899554 
L 109.219442 -96.013286 
L 109.528767 -95.675165 
L 109.838467 -94.600369 
L 110.139594 -93.038011 
L 110.438489 -94.655606 
L 110.744385 -92.887496 
L 111.050656 -94.026864 
L 111.360102 -94.085988 
L 111.656877 -95.952369 
L 111.962884 -94.091314 
L 112.27159 -94.032384 
L 112.567614 -92.330952 
L 112.872526 -92.115525 
L 113.185341 -88.463277 
L 113.486742 -89.253087 
L 113.789097 -90.743136 
L 114.098036 -90.314946 
L 114.394527 -88.492497 
L 114.699124 -87.715156 
L 115.005608 -89.605325 
L 115.312772 -89.755999 
L 115.611738 -89.157807 
L 115.920738 -92.201209 
L 116.224493 -91.61473 
L 116.526756 -89.73925 
L 116.832479 -89.259253 
L 117.133181 -90.830546 
L 117.439847 -90.323604 
L 117.750958 -88.650269 
L 118.050959 -87.055088 
L 118.358376 -89.850468 
L 118.660437 -87.630057 
L 118.970482 -89.354789 
L 119.27101 -89.663295 
L 119.575465 -88.75966 
L 119.879413 -87.923434 
L 120.184091 -89.309537 
L 120.49088 -88.623147 
L 120.795111 -86.248985 
L 121.089735 -87.580987 
L 121.399953 -85.77811 
L 121.70389 -86.952845 
L 122.011602 -86.895284 
L 122.315398 -88.963965 
L 122.620482 -87.389131 
L 122.920138 -88.238532 
L 123.221813 -87.437875 
L 123.533826 -87.331906 
L 123.833016 -89.909191 
L 124.136263 -89.244698 
L 124.43944 -90.211949 
L 124.74495 -88.801206 
L 125.048928 -87.616257 
L 125.354124 -85.287916 
L 125.662383 -86.475965 
L 125.961573 -87.064145 
L 126.267093 -83.788346 
L 126.568656 -83.492732 
L 126.876611 -84.347866 
L 127.18618 -85.681533 
L 127.491324 -85.868173 
L 127.795242 -85.111437 
L 128.09508 -86.866534 
L 128.394402 -87.652199 
L 128.704853 -85.295234 
L 129.008344 -84.29131 
L 129.315203 -83.272932 
L 129.620592 -82.819378 
L 129.92596 -82.501536 
L 130.225585 -82.445054 
L 130.531917 -82.687387 
L 130.840593 -82.596051 
L 131.136759 -82.341862 
L 131.438474 -83.166595 
L 131.752902 -81.157478 
L 132.05337 -83.222903 
L 132.358535 -84.417475 
L 132.662229 -83.897571 
L 132.966674 -84.234527 
L 133.270977 -85.296813 
L 133.577633 -86.837805 
L 133.876569 -85.657601 
L 134.180456 -85.238299 
L 134.492003 -85.039648 
L 134.788331 -83.729964 
L 135.097605 -82.152944 
L 135.404109 -81.157478 
L 135.709102 -82.184231 
L 136.003503 -83.734555 
L 136.315658 -85.211275 
L 136.613843 -84.727657 
L 136.922884 -85.224659 
L 137.227227 -86.734679 
L 137.533346 -85.85598 
L 137.844111 -85.366628 
L 138.139851 -84.558982 
L 138.445088 -84.587343 
L 138.747909 -84.600616 
L 139.051289 -85.409343 
L 139.353491 -84.672541 
L 139.664044 -83.38518 
L 139.962746 -83.269673 
L 140.265142 -83.458828 
L 140.577368 -86.500315 
L 140.88025 -85.681533 
L 141.182362 -83.939947 
L 141.486614 -85.211996 
L 141.791566 -84.038735 
L 142.094651 -84.068592 
L 142.405985 -85.453283 
L 142.702577 -84.028746 
L 143.003866 -84.068592 
L 143.309793 -84.125213 
L 143.612604 -83.402382 
L 143.924729 -84.113904 
L 144.223675 -84.313299 
L 144.532421 -82.202388 
L 144.837759 -81.581567 
L 145.138379 -82.232628 
L 145.444863 -80.727487 
L 145.751672 -81.414127 
L 146.055954 -80.379998 
L 146.360916 -78.760487 
L 146.660562 -80.024115 
L 146.96451 -81.224825 
L 147.273591 -82.501297 
L 147.571868 -81.134639 
L 147.885616 -79.408814 
L 148.178616 -82.805252 
L 148.495682 -82.600099 
L 148.788947 -80.806732 
L 149.092996 -79.952802 
L 149.402757 -77.812036 
L 149.702951 -79.903864 
L 150.013107 -79.321275 
L 150.310998 -80.608703 
L 150.624117 -81.637192 
L 150.927791 -81.470539 
L 151.223227 -81.259938 
L 151.535098 -81.804512 
L 151.836022 -81.657296 
L 152.138753 -80.394575 
L 152.443715 -80.607047 
L 152.753385 -80.212985 
L 153.049571 -79.475572 
L 153.362294 -79.924936 
L 153.659343 -80.687941 
L 153.964092 -79.392441 
L 154.267502 -78.613688 
L 154.580652 -79.727747 
L 154.876635 -79.872311 
L 155.178818 -80.583357 
L 155.483232 -81.988008 
L 155.788793 -79.152085 
L 156.095257 -80.656352 
L 156.399133 -82.156224 
L 156.700484 -80.174089 
L 157.012406 -77.906199 
L 157.313411 -76.888905 
L 157.616253 -77.730118 
L 157.918182 -78.335015 
L 158.234598 -77.293461 
L 158.53884 -76.751874 
L 158.835899 -77.70265 
L 159.142282 -77.403079 
L 159.446615 -78.888549 
L 159.751273 -75.700913 
L 160.054926 -76.587141 
L 160.359432 -79.139333 
L 160.666829 -77.429431 
L 160.964091 -77.784689 
L 161.270686 -77.6752 
L 161.57992 -75.754693 
L 161.874442 -74.63933 
L 162.187835 -77.872153 
L 162.483373 -77.130686 
L 162.791084 -77.265402 
L 163.100419 -77.894183 
L 163.399609 -77.785108 
L 163.710668 -77.867728 
L 164.010669 -79.026721 
L 164.311989 -79.305291 
L 164.617976 -78.639124 
L 164.91889 -76.507049 
L 165.229443 -76.614155 
L 165.528734 -79.196506 
L 165.842127 -76.804671 
L 166.145273 -78.19786 
L 166.450753 -77.135533 
L 166.75187 -76.112757 
L 167.059175 -77.033209 
L 167.363438 -78.031449 
L 167.664352 -80.722826 
L 167.964657 -82.54335 
L 168.27521 -81.916434 
L 168.578965 -78.89244 
L 168.880285 -79.996557 
L 169.179677 -80.750776 
L 169.485055 -79.056333 
L 169.795607 -77.403079 
L 170.097333 -75.772688 
L 170.406871 -74.262298 
L 170.70393 -74.633729 
L 171.007279 -74.074404 
L 171.314686 -74.627786 
L 171.624224 -75.876498 
L 171.924225 -76.317593 
L 172.225038 -77.103343 
L 172.529402 -77.07507 
L 172.839853 -78.224588 
L 173.139143 -80.458804 
L 173.448783 -78.196759 
L 173.74574 -78.417241 
L 174.051626 -77.761311 
L 174.356598 -74.752666 
L 174.661672 -75.283306 
L 174.97334 -75.840596 
L 175.274965 -75.821884 
L 175.581154 -76.888497 
L 175.885721 -77.67635 
L 176.185113 -78.19786 
L 176.495057 -78.389589 
L 176.791913 -78.362052 
L 177.093233 -80.265058 
L 177.397089 -82.509048 
L 177.710077 -82.338857 
L 178.010078 -80.472117 
L 178.321137 -80.969891 
L 178.618906 -77.623169 
L 178.919719 -76.381913 
L 179.236257 -75.293447 
L 179.536766 -76.46919 
L 179.838593 -74.698959 
L 180.142551 -73.55115 
L 180.443363 -75.211894 
L 180.747118 -77.546281 
L 181.053511 -76.241756 
L 181.356759 -77.592955 
L 181.66305 -77.6752 
L 181.965892 -76.831908 
L 182.273299 -77.048712 
L 182.575025 -76.750249 
L 182.882432 -76.915875 
L 183.182332 -74.698959 
L 183.496029 -74.762798 
L 183.799074 -74.249064 
L 184.104148 -73.851882 
L 184.399888 -72.877837 
L 184.701715 -74.118548 
L 185.007905 -76.85805 
L 185.318457 -77.81302 
L 185.616632 -76.103779 
L 185.927286 -74.118548 
L 186.232867 -72.666623 
L 186.538347 -72.784802 
L 186.838043 -75.457021 
L 187.141798 -73.463982 
L 187.447177 -74.505084 
L 187.753975 -76.030927 
L 188.061788 -75.184745 
L 188.356919 -75.115832 
L 188.658645 -74.376862 
L 188.972444 -73.886594 
L 189.268691 -74.276133 
L 189.578635 -72.507781 
L 189.880259 -73.303341 
L 190.188681 -74.892291 
L 190.495074 -76.54657 
L 190.799235 -76.812682 
L 191.100961 -77.270092 
L 191.406846 -75.80854 
L 191.714253 -77.210908 
L 192.008979 -77.953232 
L 192.314458 -77.158319 
L 192.616184 -77.129297 
L 192.923389 -76.912438 
L 193.233535 -76.588502 
L 193.528971 -77.653571 
L 193.834653 -77.166903 
L 194.144191 -75.95346 
L 194.441656 -75.89892 
L 194.757382 -75.817241 
L 195.052209 -75.179589 
L 195.35779 -74.25198 
L 195.660125 -75.97646 
L 195.97088 -76.645029 
L 196.268243 -76.645029 
L 196.58255 -75.810577 
L 196.88529 -75.252609 
L 197.190059 -75.651107 
L 197.487626 -75.864663 
L 197.795743 -74.118548 
L 198.104368 -74.171872 
L 198.401528 -74.053401 
L 198.70295 -72.461326 
L 199.019082 -72.678643 
L 199.317663 -75.000593 
L 199.626287 -76.217892 
L 199.921622 -75.817241 
L 200.224362 -75.229273 
L 200.530146 -75.685654 
L 200.837147 -75.576982 
L 201.140598 -75.685654 
L 201.447599 -73.017046 
L 201.75034 -72.891219 
L 202.051558 -73.376568 
L 202.362009 -73.163598 
L 202.664445 -74.096122 
L 202.970229 -75.718035 
L 203.268709 -75.882207 
L 203.574391 -72.997897 
L 203.878349 -74.539509 
L 204.186771 -74.087004 
L 204.492656 -74.087004 
L 204.798643 -73.959602 
L 205.103717 -72.216508 
L 205.40595 -73.104837 
L 205.711328 -74.858215 
L 206.014576 -73.274989 
L 206.316809 -74.52053 
L 206.622593 -74.438909 
L 206.930507 -73.579933 
L 207.233755 -74.466099 
L 207.535684 -73.959602 
L 207.835989 -72.971203 
L 208.140454 -73.905708 
L 208.449688 -72.891219 
L 208.748066 -73.925551 
L 209.052632 -74.865258 
L 209.359126 -76.54657 
L 209.666331 -75.876498 
L 209.973738 -74.968163 
L 210.272826 -75.472957 
L 210.578306 -74.68786 
L 210.882162 -74.68786 
L 211.185004 -73.557025 
L 211.48673 -74.295769 
L 211.798398 -74.559223 
L 212.105602 -73.276625 
L 212.405096 -73.583747 
L 212.703575 -75.049253 
L 213.014331 -73.860659 
L 213.314636 -74.118548 
L 213.616666 -74.198558 
L 213.932089 -75.931182 
L 214.235336 -75.022206 
L 214.531482 -75.576982 
L 214.833715 -75.20665 
L 215.147615 -74.444805 
L 215.446805 -72.428151 
L 215.758676 -71.914807 
L 216.053605 -73.043686 
L 216.35949 -73.330073 
L 216.669637 -75.027712 
L 216.966493 -72.632801 
L 217.280596 -72.990423 
L 217.58222 -73.051334 
L 217.878062 -72.065449 
L 218.19115 -72.242908 
L 218.49176 -73.356822 
L 218.795414 -72.983825 
L 219.106879 -75.450973 
L 219.400489 -74.892291 
L 219.713476 -74.181672 
L 220.015405 -75.082 
L 220.314695 -73.090071 
L 220.618247 -73.330073 
L 220.922611 -74.757337 
L 221.228902 -75.327156 
L 221.530527 -75.484345 
L 221.837224 -73.664014 
L 222.145341 -74.735762 
L 222.443618 -75.076317 
L 222.755185 -73.919337 
L 223.055693 -76.734437 
L 223.36797 -76.81711 
L 223.667058 -74.542176 
L 223.972436 -76.918897 
L 224.275481 -75.064511 
L 224.584613 -73.541991 
L 224.878324 -74.412641 
L 225.187354 -74.053401 
L 225.495776 -74.850665 
L 225.791516 -73.383587 
L 226.10288 -74.735762 
L 226.400142 -76.233212 
L 226.711202 -77.215071 
L 227.016986 -76.941031 
L 227.318914 -75.810577 
L 227.621959 -72.910651 
L 227.929975 -71.484939 
L 228.238093 -72.901636 
L 228.537181 -72.466333 
L 228.836269 -73.355936 
L 229.148241 -73.510205 
L 229.44875 -73.34989 
L 229.756969 -74.451013 
L 230.059607 -73.717607 
L 230.356362 -74.525671 
L 230.66661 -75.163562 
L 230.971379 -73.679101 
L 231.271685 -73.526009 
L 231.576353 -73.167295 
L 231.88163 -72.118382 
L 232.186906 -72.091732 
L 232.491879 -71.713252 
L 232.799083 -72.198432 
L 233.105374 -71.703136 
L 233.4001 -71.246911 
L 233.707406 -72.498872 
L 234.01603 -71.729633 
L 234.322119 -72.45544 
L 234.626584 -72.686362 
L 234.933484 -70.405007 
L 235.236123 -70.536582 
L 235.533993 -70.008367 
L 235.836531 -68.843697 
L 236.142315 -70.139564 
L 236.444243 -71.162384 
L 236.751752 -69.773185 
L 237.063826 -71.082994 
L 237.359465 -73.285142 
L 237.661901 -72.713213 
L 237.973772 -71.862355 
L 238.271744 -73.113549 
L 238.575398 -71.685564 
L 238.88108 -70.089518 
L 239.18798 -71.632963 
L 239.491025 -71.88116 
L 239.795287 -73.724883 
L 240.106042 -72.934945 
L 240.408377 -70.935622 
L 240.716291 -69.431209 
L 241.015887 -70.567119 
L 241.317917 -70.551484 
L 241.62431 -73.445248 
L 241.928978 -72.997897 
L 242.232631 -73.169925 
L 242.542169 -73.52453 
L 242.838315 -74.060053 
L 243.140041 -71.564569 
L 243.454854 -70.894491 
L 243.752623 -71.873 
L 244.054755 -70.924642 
L 244.361959 -71.729633 
L 244.665511 -71.941187 
L 244.967846 -73.94069 
L 245.278804 -74.86028 
L 245.57495 -75.65846 
L 245.886314 -77.053028 
L 246.189257 -76.350748 
L 246.488649 -76.381913 
L 246.800419 -77.439443 
L 247.107218 -77.00558 
L 247.405088 -74.714952 
L 247.708539 -73.510205 
L 248.016149 -74.566677 
L 248.319701 -73.017046 
L 248.623456 -73.671113 
L 248.934718 -73.771267 
L 249.235531 -74.053401 
L 249.534416 -73.84505 
L 249.836142 -73.583747 
L 250.148318 -72.566638 
L 250.457145 -73.717607 
L 250.755016 -73.583747 
L 251.059582 -73.583747 
L 251.362931 -73.625221 
L 251.662324 -72.34844 
L 251.976123 -71.310197 
L 252.281805 -69.208905 
L 252.585763 -69.7585 
L 252.883837 -70.694993 
L 253.188505 -71.141533 
L 253.490535 -72.703233 
L 253.794695 -73.52453 
L 254.100784 -74.9368 
L 254.401799 -74.668624 
L 254.711743 -76.511321 
L 255.010121 -76.456757 
L 255.325036 -72.705159 
L 255.619558 -71.852606 
L 255.931633 -71.158671 
L 256.229706 -72.622998 
L 256.540461 -73.25739 
L 256.83752 -73.563775 
L 257.145739 -74.811242 
L 257.446349 -74.811242 
L 257.757104 -72.62566 
L 258.060961 -72.454678 
L 258.359338 -74.033119 
L 258.673239 -73.356822 
L 258.971414 -72.979474 
L 259.273748 -73.932102 
L 259.578822 -72.632711 
L 259.882374 -71.389754 
L 260.192318 -70.443212 
L 260.492319 -70.364146 
L 260.801451 -70.935622 
L 261.099727 -72.182544 
L 261.402163 -70.935622 
L 261.714947 -74.157471 
L 262.012108 -72.108648 
L 262.316066 -71.660132 
L 262.62327 -71.299695 
L 262.927126 -72.596286 
L 263.232809 -74.621064 
L 263.53839 -73.274989 
L 263.844073 -72.810443 
L 264.149654 -72.579126 
L 264.449147 -72.891025 
L 264.751279 -70.735848 
L 265.05544 -70.642126 
L 265.359499 -71.53801 
L 265.671675 -72.418766 
L 265.972995 -73.905708 
L 266.281619 -73.610486 
L 266.580302 -74.187882 
L 266.884767 -74.708742 
L 267.184463 -74.925375 
L 267.488726 -75.800042 
L 267.8008 -76.337213 
L 268.103033 -76.272496 
L 268.408715 -76.409312 
L 268.71247 -76.095658 
L 269.015921 -76.150626 
L 269.318255 -72.944526 
L 269.625257 -70.967101 
L 269.934389 -71.942182 
L 270.231143 -72.418766 
L 270.544029 -72.783615 
L 270.847784 -72.198432 
L 271.148495 -70.777315 
L 271.457729 -70.263311 
L 271.753875 -69.301296 
L 272.06321 -70.540914 
L 272.360979 -72.60591 
L 272.662806 -73.033054 
L 272.973155 -74.249064 
L 273.278432 -74.627786 
L 273.578738 -72.851379 
L 273.887768 -73.356822 
L 274.188682 -71.923047 
L 274.492539 -72.864591 
L 274.796699 -73.418361 
L 275.098425 -71.985292 
L 275.403093 -71.257238 
L 275.710805 -71.363219 
L 276.02014 -70.232682 
L 276.325214 -71.098745 
L 276.628969 -71.474718 
L 276.932318 -71.713252 
L 277.23871 -72.145049 
L 277.539827 -72.535863 
L 277.839321 -73.778719 
L 278.145004 -71.879111 
L 278.450889 -72.356613 
L 278.758702 -73.177128 
L 279.054848 -73.010363 
L 279.366415 -74.026555 
L 279.666315 -75.054848 
L 279.967939 -75.745353 
L 280.273114 -74.262298 
L 280.577174 -74.403927 
L 280.881639 -72.258993 
L 281.196046 -72.783615 
L 281.492497 -72.073327 
L 281.804469 -72.348666 
L 282.104876 -71.125121 
L 282.406602 -71.591145 
L 282.71269 -70.993399 
L 283.018271 -73.690802 
L 283.318374 -73.925551 
L 283.62497 -73.684495 
L 283.933797 -74.735762 
L 284.235726 -75.054848 
L 284.53735 -72.837978 
L 284.840598 -73.99474 
L 285.146991 -73.633926 
L 285.455615 -71.299695 
L 285.755312 -71.230783 
L 286.063835 -69.457237 
L 286.369112 -68.67722 
L 286.670331 -68.843697 
L 286.969419 -69.364994 
L 287.280377 -69.680171 
L 287.5889 -71.141533 
L 287.893162 -71.036405 
L 288.186975 -72.108648 
L 288.494382 -71.28371 
L 288.804427 -72.179326 
L 289.102501 -70.950995 
L 289.409502 -69.836968 
L 289.707778 -70.429577 
L 290.013359 -70.310718 
L 290.316506 -68.611761 
L 290.625942 -69.511129 
L 290.931827 -69.105291 
L 291.23051 -70.947297 
L 291.539439 -71.697609 
L 291.845121 -71.670969 
L 292.144311 -72.225148 
L 292.458617 -72.525607 
L 292.754966 -73.337801 
L 293.061561 -73.104837 
L 293.363287 -71.676656 
L 293.664911 -71.773186 
L 293.97658 -70.038661 
L 294.27861 -69.770762 
L 294.587032 -69.117103 
L 294.889975 -69.981017 
L 295.191701 -70.0608 
L 295.493731 -71.660132 
L 295.795863 -73.454223 
L 296.105806 -72.837287 
L 296.403778 -71.968823 
L 296.715751 -72.82776 
L 297.015854 -72.011878 
L 297.317782 -73.086701 
L 297.625291 -73.798122 
L 297.932191 -72.500194 
L 298.230366 -71.83576 
L 298.541121 -71.333854 
L 298.848833 -71.746745 
L 299.142544 -70.871985 
L 299.452589 -71.511466 
L 299.75888 -71.846335 
L 300.057461 -73.204075 
L 300.363245 -72.88132 
L 300.669739 -74.606689 
L 300.971465 -73.590584 
L 301.277858 -73.31098 
L 301.584352 -72.952709 
L 301.892469 -72.525607 
L 302.194804 -71.888948 
L 302.495109 -71.474718 
L 302.800082 -71.958723 
L 303.108301 -71.923047 
L 303.404446 -73.25739 
L 303.718347 -73.791466 
L 304.016522 -74.417883 
L 304.319465 -76.785196 
L 304.623524 -76.80647 
L 304.931642 -76.491613 
L 305.232556 -74.376862 
L 305.540572 -73.751793 
L 305.842703 -73.010363 
L 306.154778 -72.277013 
L 306.45275 -71.782673 
L 306.757012 -71.019712 
L 307.061274 -72.209333 
L 307.361985 -72.955623 
L 307.668987 -73.895299 
L 307.973249 -72.534356 
L 308.278424 -74.295769 
L 308.580454 -74.61343 
L 308.891108 -74.214828 
L 309.190805 -74.606689 
L 309.49111 -75.103398 
L 309.799634 -75.445812 
L 310.099736 -74.520079 
L 310.408361 -72.952709 
L 310.718507 -71.985292 
L 311.020233 -69.666008 
L 311.322771 -68.989164 
L 311.632714 -68.006286 
L 311.935658 -68.627069 
L 312.231601 -69.443732 
L 312.548443 -69.941808 
L 312.839618 -71.421886 
L 313.144996 -72.64082 
L 313.456664 -73.391491 
L 313.757984 -72.542912 
L 314.067826 -73.096222 
L 314.369857 -70.020601 
L 314.669858 -70.046897 
L 314.969757 -70.443212 
L 315.280005 -69.013104 
L 315.589036 -69.744551 
L 315.888124 -71.121036 
L 316.196647 -69.443243 
L 316.495532 -70.868011 
L 316.803244 -72.332176 
L 317.100607 -71.348188 
L 317.409739 -70.034576 
L 317.718973 -69.52163 
L 318.023742 -71.121036 
L 318.317351 -72.756805 
L 318.630947 -69.851441 
L 318.932065 -69.89269 
L 319.240486 -72.481222 
L 319.535922 -72.462972 
L 319.844953 -72.649727 
L 320.14678 -70.950995 
L 320.454694 -71.979825 
L 320.754087 -71.06798 
L 321.05774 -70.073208 
L 321.371945 -70.962061 
L 321.666873 -72.225148 
L 321.97357 -72.899227 
L 322.28392 -71.650192 
L 322.587167 -71.835778 
L 322.893865 -72.535863 
L 323.193561 -73.328937 
L 323.498331 -71.554086 
L 323.804115 -71.826116 
L 324.109696 -72.649727 
L 324.412639 -72.45544 
L 324.71264 -71.686684 
L 325.016598 -73.79631 
L 325.326947 -72.179326 
L 325.623398 -71.879111 
L 325.930805 -72.073327 
L 326.233038 -71.870162 
L 326.544808 -73.563775 
L 326.842983 -73.373345 
L 327.145317 -74.003807 
L 327.456478 -72.988637 
L 327.756581 -72.472153 
L 328.057292 -71.412726 
L 328.363583 -71.421886 
L 328.66886 -71.442873 
L 328.971803 -70.378739 
L 329.286414 -72.466333 
L 329.588241 -70.232682 
L 329.893924 -69.666008 
L 330.198693 -69.090974 
L 330.492607 -70.258944 
L 330.80042 -71.766436 
L 331.100827 -71.686684 
L 331.405901 -71.782673 
L 331.710975 -71.395494 
L 332.026803 -71.3367 
L 332.322137 -68.170372 
L 332.631066 -68.765673 
L 332.928937 -68.340007 
L 333.232996 -69.548918 
L 333.546287 -69.482373 
L 333.847405 -68.778418 
L 334.146087 -71.230783 
L 334.460089 -71.580573 
L 334.759278 -70.924642 
L 335.063946 -70.777315 
L 335.362222 -73.238882 
L 335.67592 -73.006256 
L 335.981095 -71.817341 
L 336.279473 -73.131613 
L 336.584141 -71.720319 
L 336.884142 -72.145049 
L 337.198245 -72.864148 
L 337.504942 -72.022155 
L 337.801291 -70.974028 
L 338.106365 -69.954681 
L 338.41499 -70.205 
L 338.714179 -70.535512 
L 339.015296 -70.033738 
L 339.328182 -69.274293 
L 339.625545 -69.942052 
L 339.932648 -71.041476 
L 340.242896 -71.014989 
L 340.542491 -70.774412 
L 340.841985 -69.54779 
L 341.153045 -70.962061 
L 341.459742 -70.935622 
L 341.756192 -71.484939 
L 342.060657 -71.53801 
L 342.362687 -70.231406 
L 342.67324 -69.863155 
L 342.979633 -71.819686 
L 343.284402 -70.462393 
L 343.586432 -71.870162 
L 343.893332 -73.249926 
L 344.193638 -72.338806 
L 344.499726 -73.096222 
L 344.798408 -70.472705 
L 345.110077 -70.709463 
L 345.414034 -70.924642 
L 345.711905 -71.564569 
L 346.018703 -72.94483 
L 346.325705 -71.597311 
L 346.62875 -72.048846 
L 346.939505 -72.002494 
L 347.235651 -73.31098 
L 347.537072 -72.703233 
L 347.850161 -72.401907 
L 348.151379 -71.915557 
L 348.460917 -71.295021 
L 348.762745 -71.617737 
L 349.068021 -72.278629 
L 349.364877 -71.660132 
L 349.668125 -71.739836 
L 349.978677 -71.299695 
L 350.27878 -70.750986 
L 350.588723 -70.551484 
L 350.891058 -68.884346 
L 351.193595 -69.760046 
L 351.497452 -69.394705 
L 351.801511 -70.233435 
L 352.104962 -68.653257 
L 352.408311 -69.365006 
L 352.710747 -69.783925 
L 353.025053 -69.770762 
L 353.326271 -72.241703 
L 353.628809 -72.312186 
L 353.933071 -71.04604 
L 354.242913 -70.668551 
L 354.541088 -70.974028 
L 354.847988 -70.548855 
L 355.151845 -69.195628 
L 355.45215 -68.768593 
L 355.764731 -68.989164 
L 356.06037 -69.575254 
L 356.366864 -70.962061 
L 356.670822 -70.698374 
L 356.9762 -72.82776 
L 357.276404 -71.17792 
L 357.592841 -71.905632 
L 357.884929 -71.607077 
L 358.19193 -70.656741 
L 358.501772 -69.391232 
L 358.799947 -69.405712 
L 359.109485 -70.218758 
L 359.417298 -69.652583 
L 359.714053 -69.718354 
L 360.023793 -70.125878 
L 360.325722 -70.112937 
L 360.626738 -69.534821 
L 360.929377 -69.377663 
L 361.236479 -70.483905 
L 361.541756 -69.626362 
L 361.850787 -69.915658 
L 362.152817 -70.087039 
L 362.451398 -70.868011 
L 362.760733 -69.28642 
L 363.065603 -70.363673 
L 363.363068 -70.575305 
L 363.363068 -158.449314 
L 363.363068 -158.449314 
L 363.065603 -158.12185 
L 362.760733 -158.12091 
L 362.451398 -158.695706 
L 362.152817 -158.668032 
L 361.850787 -158.030768 
L 361.541756 -158.320064 
L 361.236479 -158.810263 
L 360.929377 -158.299215 
L 360.626738 -158.142057 
L 360.325722 -158.103038 
L 360.023793 -158.359645 
L 359.714053 -158.49762 
L 359.417298 -158.293843 
L 359.109485 -157.997217 
L 358.799947 -157.732069 
L 358.501772 -158.016097 
L 358.19193 -158.906976 
L 357.884929 -159.304381 
L 357.592841 -159.544923 
L 357.276404 -159.194441 
L 356.9762 -159.700988 
L 356.670822 -159.13489 
L 356.366864 -158.871203 
L 356.06037 -157.832075 
L 355.764731 -157.60952 
L 355.45215 -157.560543 
L 355.151845 -157.942153 
L 354.847988 -158.475765 
L 354.541088 -158.589688 
L 354.242913 -158.625617 
L 353.933071 -159.326321 
L 353.628809 -159.677466 
L 353.326271 -159.4784 
L 353.025053 -158.445212 
L 352.710747 -158.162501 
L 352.408311 -158.042323 
L 352.104962 -157.40633 
L 351.801511 -157.712991 
L 351.497452 -157.473528 
L 351.193595 -157.647283 
L 350.891058 -157.714338 
L 350.588723 -159.012233 
L 350.27878 -159.082279 
L 349.978677 -159.342215 
L 349.668125 -159.171622 
L 349.364877 -159.251326 
L 349.068021 -159.171926 
L 348.762745 -159.024173 
L 348.460917 -158.807792 
L 348.151379 -159.26545 
L 347.850161 -159.318196 
L 347.537072 -159.555967 
L 347.235651 -160.026413 
L 346.939505 -159.717609 
L 346.62875 -159.132161 
L 346.325705 -159.583696 
L 346.018703 -159.31437 
L 345.711905 -159.077341 
L 345.414034 -159.178171 
L 345.110077 -158.854253 
L 344.798408 -159.091011 
L 344.499726 -159.432527 
L 344.193638 -159.650845 
L 343.893332 -160.357016 
L 343.586432 -159.849941 
L 343.284402 -159.370871 
L 342.979633 -159.091773 
L 342.67324 -158.622368 
L 342.362687 -158.254117 
L 342.060657 -159.1039 
L 341.756192 -159.156971 
L 341.459742 -158.897643 
L 341.153045 -158.871203 
L 340.841985 -158.398636 
L 340.542491 -158.519756 
L 340.242896 -158.818276 
L 339.932648 -158.791788 
L 339.625545 -158.004375 
L 339.328182 -157.863488 
L 339.015296 -158.182237 
L 338.714179 -158.219559 
L 338.41499 -158.280523 
L 338.106365 -158.261294 
L 337.801291 -158.589688 
L 337.504942 -159.158851 
L 337.198245 -159.395052 
L 336.884142 -159.305506 
L 336.584141 -159.730236 
L 336.279473 -159.936233 
L 335.981095 -159.902762 
L 335.67592 -159.792041 
L 335.362222 -159.828963 
L 335.063946 -159.05595 
L 334.759278 -159.178171 
L 334.460089 -159.330885 
L 334.146087 -159.141578 
L 333.847405 -158.359363 
L 333.546287 -158.194505 
L 333.232996 -157.858411 
L 332.928937 -157.71958 
L 332.631066 -158.102559 
L 332.322137 -158.158764 
L 332.026803 -159.035661 
L 331.710975 -159.515964 
L 331.405901 -159.398333 
L 331.100827 -159.224774 
L 330.80042 -159.145022 
L 330.492607 -158.765676 
L 330.198693 -158.585904 
L 329.893924 -158.549966 
L 329.588241 -158.791937 
L 329.286414 -158.984222 
L 328.971803 -158.915429 
L 328.66886 -158.929488 
L 328.363583 -159.489572 
L 328.057292 -159.768281 
L 327.756581 -159.517498 
L 327.456478 -159.540111 
L 327.145317 -159.603135 
L 326.842983 -159.694501 
L 326.544808 -160.312716 
L 326.233038 -159.849941 
L 325.930805 -159.916325 
L 325.623398 -159.571444 
L 325.326947 -159.810326 
L 325.016598 -159.541083 
L 324.71264 -159.224774 
L 324.412639 -159.264663 
L 324.109696 -159.609473 
L 323.804115 -159.624439 
L 323.498331 -159.357373 
L 323.193561 -159.46936 
L 322.893865 -159.18424 
L 322.587167 -159.345228 
L 322.28392 -159.530815 
L 321.97357 -159.89907 
L 321.666873 -159.225407 
L 321.371945 -158.871203 
L 321.05774 -158.412315 
L 320.754087 -158.765285 
L 320.454694 -158.931634 
L 320.14678 -159.151818 
L 319.844953 -159.609473 
L 319.535922 -159.796228 
L 319.240486 -160.047527 
L 318.932065 -159.131929 
L 318.630947 -158.90363 
L 318.317351 -159.502395 
L 318.023742 -158.712229 
L 317.718973 -158.424796 
L 317.409739 -158.720496 
L 317.100607 -158.754625 
L 316.803244 -159.118379 
L 316.495532 -158.695706 
L 316.196647 -158.503183 
L 315.888124 -158.712229 
L 315.589036 -158.471424 
L 315.280005 -158.663774 
L 314.969757 -158.581408 
L 314.669858 -158.438626 
L 314.369857 -158.464922 
L 314.067826 -159.432527 
L 313.757984 -159.716288 
L 313.456664 -159.945903 
L 313.144996 -159.887928 
L 312.839618 -159.489572 
L 312.548443 -158.543715 
L 312.231601 -157.963597 
L 311.935658 -157.432519 
L 311.632714 -157.514205 
L 311.322771 -157.60952 
L 311.020233 -158.549966 
L 310.718507 -159.465263 
L 310.408361 -159.845588 
L 310.099736 -160.973701 
L 309.799634 -161.126162 
L 309.49111 -160.929479 
L 309.190805 -160.617543 
L 308.891108 -160.470307 
L 308.580454 -160.341254 
L 308.278424 -160.389367 
L 307.973249 -159.994392 
L 307.668987 -159.711643 
L 307.361985 -159.034029 
L 307.061274 -158.971674 
L 306.757012 -159.35265 
L 306.45275 -159.398333 
L 306.154778 -159.982187 
L 305.842703 -160.596579 
L 305.540572 -160.124698 
L 305.232556 -160.308274 
L 304.931642 -161.158554 
L 304.623524 -161.921891 
L 304.319465 -161.404068 
L 304.016522 -160.806349 
L 303.718347 -160.624121 
L 303.404446 -160.080004 
L 303.108301 -159.797056 
L 302.800082 -159.491832 
L 302.495109 -159.43674 
L 302.194804 -159.292059 
L 301.892469 -159.464045 
L 301.584352 -159.845588 
L 301.277858 -160.026413 
L 300.971465 -160.285906 
L 300.669739 -160.617543 
L 300.363245 -159.647429 
L 300.057461 -159.324674 
L 299.75888 -159.065124 
L 299.452589 -159.130444 
L 299.142544 -159.230829 
L 298.848833 -159.70381 
L 298.541121 -159.847153 
L 298.230366 -160.153892 
L 297.932191 -160.298103 
L 297.625291 -160.347917 
L 297.317782 -159.711596 
L 297.015854 -159.438677 
L 296.715751 -159.700988 
L 296.403778 -159.212183 
L 296.105806 -159.421913 
L 295.795863 -159.613622 
L 295.493731 -159.251326 
L 295.191701 -158.694272 
L 294.889975 -158.234957 
L 294.587032 -158.020678 
L 294.27861 -158.445212 
L 293.97658 -159.255507 
L 293.664911 -159.677369 
L 293.363287 -159.504351 
L 293.061561 -159.963009 
L 292.754966 -159.999593 
L 292.458617 -159.464045 
L 292.144311 -159.225407 
L 291.845121 -158.970941 
L 291.539439 -158.9443 
L 291.23051 -158.077323 
L 290.931827 -157.762942 
L 290.625942 -157.626652 
L 290.316506 -157.717375 
L 290.013359 -158.174805 
L 289.707778 -158.325494 
L 289.409502 -158.648555 
L 289.102501 -159.151818 
L 288.804427 -159.810326 
L 288.494382 -159.088652 
L 288.186975 -159.611456 
L 287.893162 -159.605505 
L 287.5889 -159.500377 
L 287.280377 -158.805352 
L 286.969419 -158.581432 
L 286.670331 -158.563632 
L 286.369112 -158.999658 
L 286.063835 -158.758738 
L 285.755312 -159.141578 
L 285.455615 -159.342215 
L 285.146991 -159.703468 
L 284.840598 -159.881751 
L 284.53735 -160.229867 
L 284.235726 -160.708481 
L 283.933797 -160.758019 
L 283.62497 -160.731092 
L 283.318374 -160.490036 
L 283.018271 -160.455236 
L 282.71269 -159.378963 
L 282.406602 -159.050765 
L 282.104876 -159.24724 
L 281.804469 -160.180083 
L 281.492497 -159.916325 
L 281.196046 -159.475585 
L 280.881639 -159.730658 
L 280.577174 -160.281209 
L 280.273114 -160.692385 
L 279.967939 -160.826621 
L 279.666315 -160.708481 
L 279.366415 -160.65858 
L 279.054848 -160.596579 
L 278.758702 -160.160266 
L 278.450889 -159.902587 
L 278.145004 -159.571444 
L 277.839321 -160.097771 
L 277.539827 -159.18424 
L 277.23871 -159.305506 
L 276.932318 -159.198206 
L 276.628969 -159.43674 
L 276.325214 -159.273616 
L 276.02014 -158.791937 
L 275.710805 -159.009142 
L 275.403093 -159.115123 
L 275.098425 -159.465263 
L 274.796699 -159.919033 
L 274.492539 -160.203254 
L 274.188682 -159.797056 
L 273.887768 -160.25012 
L 273.578738 -160.755562 
L 273.278432 -160.865995 
L 272.973155 -160.166523 
L 272.662806 -159.765243 
L 272.360979 -159.383742 
L 272.06321 -159.29235 
L 271.753875 -158.914678 
L 271.457729 -159.300405 
L 271.148495 -159.05595 
L 270.847784 -159.252123 
L 270.544029 -159.475585 
L 270.231143 -159.570886 
L 269.934389 -159.238825 
L 269.625257 -159.40526 
L 269.318255 -160.12332 
L 269.015921 -160.690896 
L 268.71247 -160.745864 
L 268.408715 -161.240856 
L 268.103033 -161.377672 
L 267.8008 -160.773858 
L 267.488726 -160.771932 
L 267.184463 -160.568405 
L 266.884767 -160.785038 
L 266.580302 -160.497253 
L 266.281619 -160.535552 
L 265.972995 -160.24033 
L 265.671675 -159.570886 
L 265.359499 -159.1039 
L 265.05544 -158.652042 
L 264.751279 -158.827868 
L 264.449147 -159.368175 
L 264.149654 -159.410526 
L 263.844073 -159.448757 
L 263.53839 -159.523308 
L 263.232809 -160.064071 
L 262.927126 -159.662914 
L 262.62327 -159.342215 
L 262.316066 -159.251326 
L 262.012108 -159.611456 
L 261.714947 -159.719019 
L 261.402163 -158.897643 
L 261.099727 -158.998463 
L 260.801451 -158.897643 
L 260.492319 -158.660474 
L 260.192318 -158.581408 
L 259.882374 -158.982607 
L 259.578822 -159.356941 
L 259.273748 -159.405291 
L 258.971414 -159.818823 
L 258.673239 -160.25012 
L 258.359338 -160.382468 
L 258.060961 -160.07407 
L 257.757104 -160.442186 
L 257.446349 -160.952087 
L 257.145739 -160.952087 
L 256.83752 -160.312716 
L 256.540461 -160.080004 
L 256.229706 -159.636202 
L 255.931633 -159.752787 
L 255.619558 -159.597949 
L 255.325036 -160.362687 
L 255.010121 -161.732507 
L 254.711743 -161.677943 
L 254.401799 -161.633802 
L 254.100784 -161.365626 
L 253.794695 -160.891057 
L 253.490535 -159.555967 
L 253.188505 -159.500377 
L 252.883837 -158.599175 
L 252.585763 -158.727022 
L 252.281805 -158.737521 
L 251.976123 -159.062165 
L 251.662324 -159.371663 
L 251.362931 -159.981721 
L 251.059582 -160.562291 
L 250.755016 -160.562291 
L 250.457145 -160.428431 
L 250.148318 -160.770756 
L 249.836142 -160.562291 
L 249.534416 -160.570537 
L 249.235531 -160.631734 
L 248.934718 -160.374772 
L 248.623456 -160.205377 
L 248.319701 -160.320347 
L 248.016149 -160.118459 
L 247.708539 -160.366286 
L 247.405088 -160.509281 
L 247.107218 -161.183684 
L 246.800419 -161.288918 
L 246.488649 -161.268254 
L 246.189257 -161.568968 
L 245.886314 -161.675333 
L 245.57495 -161.183062 
L 245.278804 -161.172597 
L 244.967846 -161.013993 
L 244.665511 -160.048464 
L 244.361959 -159.451374 
L 244.054755 -159.178171 
L 243.752623 -159.038458 
L 243.454854 -158.669225 
L 243.140041 -159.077341 
L 242.838315 -160.355534 
L 242.542169 -160.891057 
L 242.232631 -160.437017 
L 241.928978 -160.069948 
L 241.62431 -159.892146 
L 241.317917 -159.012233 
L 241.015887 -159.266146 
L 240.716291 -158.784766 
L 240.408377 -158.897643 
L 240.106042 -159.593803 
L 239.795287 -160.151607 
L 239.491025 -160.37804 
L 239.18798 -160.087141 
L 238.88108 -160.013295 
L 238.575398 -160.03454 
L 238.271744 -159.684748 
L 237.973772 -159.318652 
L 237.661901 -159.276439 
L 237.359465 -159.243606 
L 237.063826 -159.019819 
L 236.751752 -158.981887 
L 236.444243 -158.940429 
L 236.142315 -158.615507 
L 235.836531 -158.563632 
L 235.533993 -158.746704 
L 235.236123 -158.757586 
L 234.933484 -158.889161 
L 234.626584 -159.303289 
L 234.322119 -159.264663 
L 234.01603 -159.451374 
L 233.707406 -159.49078 
L 233.4001 -159.394998 
L 233.105374 -159.47787 
L 232.799083 -159.252123 
L 232.491879 -159.198206 
L 232.186906 -159.358823 
L 231.88163 -159.332173 
L 231.576353 -159.631001 
L 231.271685 -159.811385 
L 230.971379 -159.927841 
L 230.66661 -160.599766 
L 230.356362 -160.698561 
L 230.059607 -160.428431 
L 229.756969 -160.503671 
L 229.44875 -160.5266 
L 229.148241 -160.366286 
L 228.836269 -159.44236 
L 228.537181 -158.984222 
L 228.238093 -159.088015 
L 227.929975 -159.156971 
L 227.621959 -160.426743 
L 227.318914 -161.83959 
L 227.016986 -162.056878 
L 226.711202 -161.782838 
L 226.400142 -160.60831 
L 226.10288 -160.758019 
L 225.791516 -160.223355 
L 225.495776 -160.373567 
L 225.187354 -160.631734 
L 224.878324 -161.08114 
L 224.584613 -161.412693 
L 224.275481 -161.777011 
L 223.972436 -161.539915 
L 223.667058 -161.221153 
L 223.36797 -161.102606 
L 223.055693 -161.185279 
L 222.755185 -160.765798 
L 222.443618 -160.95656 
L 222.145341 -160.758019 
L 221.837224 -160.482025 
L 221.530527 -160.548532 
L 221.228902 -160.436173 
L 220.922611 -159.927798 
L 220.618247 -160.276869 
L 220.314695 -160.516871 
L 220.015405 -160.681328 
L 219.713476 -160.773011 
L 219.400489 -160.871038 
L 219.106879 -160.851452 
L 218.795414 -160.623116 
L 218.49176 -160.25012 
L 218.19115 -160.28584 
L 217.878062 -160.193751 
L 217.58222 -160.016511 
L 217.280596 -160.34697 
L 216.966493 -160.165496 
L 216.669637 -160.735617 
L 216.35949 -160.276869 
L 216.053605 -160.293708 
L 215.758676 -160.074845 
L 215.446805 -160.100597 
L 215.147615 -160.779427 
L 214.833715 -161.095776 
L 214.531482 -161.26454 
L 214.235336 -161.010671 
L 213.932089 -160.91034 
L 213.616666 -161.295222 
L 213.314636 -161.375232 
L 213.014331 -161.094025 
L 212.703575 -160.983624 
L 212.405096 -160.562291 
L 212.105602 -160.330317 
L 211.798398 -160.395461 
L 211.48673 -160.389367 
L 211.185004 -160.589014 
L 210.882162 -160.536372 
L 210.578306 -160.536372 
L 210.272826 -161.099017 
L 209.973738 -161.064714 
L 209.666331 -160.965025 
L 209.359126 -161.103597 
L 209.052632 -160.898071 
L 208.748066 -160.490036 
L 208.449688 -160.176626 
L 208.140454 -160.24033 
L 207.835989 -160.096642 
L 207.535684 -160.186436 
L 207.233755 -159.949488 
L 206.930507 -159.75746 
L 206.622593 -159.976678 
L 206.316809 -159.895057 
L 206.014576 -159.523308 
L 205.711328 -160.096468 
L 205.40595 -159.963009 
L 205.103717 -160.31224 
L 204.798643 -160.186436 
L 204.492656 -160.328583 
L 204.186771 -160.328583 
L 203.878349 -160.145627 
L 203.574391 -160.069948 
L 203.268709 -160.689767 
L 202.970229 -160.853939 
L 202.664445 -161.128111 
L 202.362009 -160.712892 
L 202.051558 -160.499922 
L 201.75034 -160.176626 
L 201.447599 -160.320347 
L 201.140598 -161.155868 
L 200.837147 -161.26454 
L 200.530146 -161.155868 
L 200.224362 -161.342701 
L 199.921622 -161.29383 
L 199.626287 -161.432275 
L 199.317663 -160.762735 
L 199.019082 -160.389202 
L 198.70295 -160.876068 
L 198.401528 -160.631734 
L 198.104368 -161.321908 
L 197.795743 -161.375232 
L 197.487626 -161.785505 
L 197.190059 -161.729512 
L 196.88529 -161.588914 
L 196.58255 -161.83959 
L 196.268243 -161.813784 
L 195.97088 -161.813784 
L 195.660125 -161.404159 
L 195.35779 -161.2418 
L 195.052209 -161.122837 
L 194.757382 -161.29383 
L 194.441656 -161.212151 
L 194.144191 -161.157611 
L 193.834653 -161.291909 
L 193.528971 -161.613886 
L 193.233535 -162.139859 
L 192.923389 -162.35502 
L 192.616184 -162.677258 
L 192.314458 -163.187332 
L 192.008979 -163.470612 
L 191.714253 -162.595646 
L 191.406846 -162.111176 
L 191.100961 -161.727817 
L 190.799235 -161.376583 
L 190.495074 -161.103597 
L 190.188681 -160.871038 
L 189.880259 -160.303601 
L 189.578635 -160.020967 
L 189.268691 -160.139454 
L 188.972444 -159.989896 
L 188.658645 -160.308274 
L 188.356919 -160.377948 
L 188.061788 -160.848133 
L 187.753975 -161.349692 
L 187.447177 -160.4496 
L 187.141798 -160.14296 
L 186.838043 -160.575856 
L 186.538347 -160.283043 
L 186.232867 -160.940319 
L 185.927286 -161.375232 
L 185.616632 -162.085485 
L 185.318457 -163.071728 
L 185.007905 -162.409408 
L 184.701715 -161.375232 
L 184.399888 -160.729105 
L 184.104148 -160.294157 
L 183.799074 -160.166523 
L 183.496029 -160.730982 
L 183.182332 -161.333918 
L 182.882432 -161.812486 
L 182.575025 -162.247661 
L 182.273299 -162.218746 
L 181.965892 -162.166001 
L 181.66305 -162.400903 
L 181.356759 -162.483148 
L 181.053511 -161.67796 
L 180.747118 -161.451628 
L 180.443363 -160.820983 
L 180.142551 -160.864437 
L 179.838593 -161.333918 
L 179.536766 -160.911429 
L 179.236257 -160.73943 
L 178.919719 -161.268254 
L 178.618906 -161.913837 
L 178.321137 -163.149438 
L 178.010078 -164.186308 
L 177.710077 -164.475955 
L 177.397089 -164.305765 
L 177.093233 -163.584722 
L 176.791913 -162.792244 
L 176.495057 -162.495159 
L 176.185113 -162.147791 
L 175.885721 -162.130204 
L 175.581154 -161.839864 
L 175.274965 -161.019639 
L 174.97334 -161.540023 
L 174.661672 -161.288668 
L 174.356598 -161.280212 
L 174.051626 -161.775695 
L 173.74574 -162.467506 
L 173.448783 -162.41844 
L 173.139143 -163.121428 
L 172.839853 -162.929708 
L 172.529402 -162.461936 
L 172.225038 -162.164114 
L 171.924225 -162.410768 
L 171.624224 -160.965025 
L 171.314686 -160.865995 
L 171.007279 -160.88028 
L 170.70393 -160.590503 
L 170.406871 -160.692385 
L 170.097333 -160.799286 
L 169.795607 -162.133927 
L 169.485055 -163.176157 
L 169.179677 -163.907649 
L 168.880285 -164.39232 
L 168.578965 -164.95734 
L 168.27521 -164.898378 
L 167.964657 -164.54101 
L 167.664352 -163.935599 
L 167.363438 -162.58375 
L 167.059175 -161.156055 
L 166.75187 -161.267862 
L 166.450753 -161.592828 
L 166.145273 -162.147791 
L 165.842127 -162.193238 
L 165.528734 -163.305532 
L 165.229443 -162.653303 
L 164.91889 -162.221312 
L 164.617976 -162.245624 
L 164.311989 -162.65765 
L 164.010669 -162.666672 
L 163.710668 -162.208375 
L 163.399609 -162.290994 
L 163.100419 -162.721017 
L 162.791084 -162.541152 
L 162.483373 -162.136772 
L 162.187835 -161.664853 
L 161.874442 -161.932644 
L 161.57992 -162.165023 
L 161.270686 -162.400903 
L 160.964091 -162.830511 
L 160.666829 -162.91622 
L 160.359432 -163.093157 
L 160.054926 -162.680317 
L 159.751273 -162.218802 
L 159.446615 -162.265747 
L 159.142282 -162.133927 
L 158.835899 -162.373453 
L 158.53884 -161.976487 
L 158.234598 -162.243545 
L 157.918182 -162.280185 
L 157.616253 -162.345984 
L 157.313411 -163.456746 
L 157.012406 -164.056743 
L 156.700484 -164.753884 
L 156.399133 -165.197685 
L 156.095257 -164.810718 
L 155.788793 -164.158598 
L 155.483232 -164.287707 
L 155.178818 -164.075068 
L 154.876635 -163.707921 
L 154.580652 -163.313388 
L 154.267502 -163.349253 
L 153.964092 -163.379146 
L 153.659343 -163.431388 
L 153.362294 -163.385748 
L 153.049571 -163.296014 
L 152.753385 -163.906343 
L 152.443715 -163.78183 
L 152.138753 -164.533398 
L 151.836022 -164.887967 
L 151.535098 -165.0103 
L 151.223227 -165.015778 
L 150.927791 -165.344273 
L 150.624117 -165.17762 
L 150.310998 -165.127915 
L 150.013107 -164.258956 
L 149.702951 -163.945916 
L 149.402757 -162.803163 
L 149.092996 -163.357881 
L 148.788947 -163.851693 
L 148.495682 -164.484262 
L 148.178616 -164.548657 
L 147.885616 -164.440966 
L 147.571868 -164.60198 
L 147.273591 -165.12216 
L 146.96451 -164.781342 
L 146.660562 -164.364762 
L 146.360916 -164.011099 
L 146.055954 -163.73933 
L 145.751672 -164.322491 
L 145.444863 -164.200486 
L 145.138379 -164.851732 
L 144.837759 -165.233245 
L 144.532421 -165.690617 
L 144.223675 -165.736094 
L 143.924729 -165.935488 
L 143.612604 -165.838365 
L 143.309793 -166.193728 
L 143.003866 -166.250349 
L 142.702577 -166.020646 
L 142.405985 -166.482948 
L 142.094651 -166.250349 
L 141.791566 -167.358399 
L 141.486614 -167.53288 
L 141.182362 -167.187639 
L 140.88025 -167.332891 
L 140.577368 -166.783658 
L 140.265142 -165.781919 
L 139.962746 -165.431978 
L 139.664044 -166.125115 
L 139.353491 -166.455045 
L 139.051289 -166.796437 
L 138.747909 -166.796518 
L 138.445088 -166.540243 
L 138.139851 -166.568604 
L 137.844111 -167.108699 
L 137.533346 -167.697541 
L 137.227227 -167.627488 
L 136.922884 -167.250669 
L 136.613843 -166.939026 
L 136.315658 -166.455408 
L 136.003503 -166.045289 
L 135.709102 -165.169678 
L 135.404109 -165.387786 
L 135.097605 -166.548707 
L 134.788331 -167.128073 
L 134.492003 -167.166131 
L 134.180456 -166.967481 
L 133.876569 -167.895921 
L 133.577633 -167.79391 
L 133.270977 -167.448063 
L 132.966674 -167.162607 
L 132.662229 -166.960466 
L 132.358535 -166.710111 
L 132.05337 -165.748296 
L 131.752902 -165.387786 
L 131.438474 -165.804604 
L 131.136759 -165.551143 
L 130.840593 -166.105599 
L 130.531917 -165.475167 
L 130.225585 -165.178403 
L 129.92596 -165.930567 
L 129.620592 -165.882273 
L 129.315203 -166.237364 
L 129.008344 -166.566728 
L 128.704853 -166.910546 
L 128.394402 -167.518613 
L 128.09508 -167.765181 
L 127.795242 -167.363891 
L 127.491324 -167.4158 
L 127.18618 -167.332891 
L 126.876611 -166.510171 
L 126.568656 -167.095757 
L 126.267093 -167.608788 
L 125.961573 -168.376215 
L 125.662383 -168.694846 
L 125.354124 -169.343799 
L 125.048928 -169.441393 
L 124.74495 -169.065089 
L 124.43944 -169.541184 
L 124.136263 -169.430242 
L 123.833016 -169.035298 
L 123.533826 -168.647551 
L 123.221813 -168.81113 
L 122.920138 -169.088666 
L 122.620482 -168.590326 
L 122.315398 -168.363234 
L 122.011602 -167.736431 
L 121.70389 -167.67887 
L 121.399953 -168.314508 
L 121.089735 -168.668018 
L 120.795111 -168.113182 
L 120.49088 -168.434503 
L 120.184091 -169.095855 
L 119.879413 -169.403765 
L 119.575465 -169.645732 
L 119.27101 -169.820291 
L 118.970482 -169.5897 
L 118.660437 -168.888497 
L 118.358376 -169.094021 
L 118.050959 -168.65482 
L 117.750958 -169.485574 
L 117.439847 -169.699078 
L 117.133181 -170.539878 
L 116.832479 -170.224333 
L 116.526756 -170.55298 
L 116.224493 -170.564339 
L 115.920738 -170.516957 
L 115.611738 -169.517134 
L 115.312772 -169.458038 
L 115.005608 -169.87826 
L 114.699124 -170.151139 
L 114.394527 -170.72154 
L 114.098036 -170.246833 
L 113.789097 -170.627288 
L 113.486742 -171.039144 
L 113.185341 -171.559405 
L 112.872526 -172.219931 
L 112.567614 -172.813149 
L 112.27159 -172.998556 
L 111.962884 -172.939626 
L 111.656877 -172.965409 
L 111.360102 -172.675403 
L 111.050656 -172.734527 
L 110.744385 -172.526154 
L 110.438489 -172.375334 
L 110.139594 -172.645187 
L 109.838467 -172.700119 
L 109.528767 -172.973065 
L 109.219442 -173.982686 
L 108.915535 -175.67874 
L 108.618608 -175.729494 
L 108.311363 -176.277276 
L 108.012731 -176.90878 
L 107.701104 -176.756934 
L 107.402675 -177.900688 
L 107.093269 -177.719463 
L 106.788835 -177.109021 
L 106.489696 -176.724359 
L 106.186864 -175.424309 
L 105.876342 -174.507845 
L 105.568823 -174.90043 
L 105.267463 -176.657866 
L 104.966508 -177.330082 
L 104.663108 -177.344551 
L 104.350233 -178.426454 
L 104.050485 -178.329057 
L 103.751143 -178.810705 
L 103.438704 -179.579908 
L 103.136065 -180.200248 
L 102.830312 -181.155092 
L 102.529925 -181.932427 
L 102.221625 -181.411337 
L 101.921634 -181.114324 
L 101.618082 -181.364035 
L 101.312562 -180.83854 
L 101.006859 -181.116721 
L 100.706959 -181.155691 
L 100.402129 -182.578774 
L 100.095939 -183.759415 
L 99.786604 -183.085022 
L 99.491331 -184.197809 
L 99.179064 -185.384862 
L 98.879256 -185.696267 
L 98.568896 -186.4644 
L 98.270934 -188.704255 
L 97.965576 -189.35177 
L 97.659762 -189.868229 
L 97.35412 -189.342918 
L 97.045982 -190.070113 
L 96.740959 -190.150817 
L 96.445868 -191.029 
L 96.140835 -192.205707 
L 95.836126 -193.05149 
L 95.534086 -193.616504 
L 95.219638 -192.929836 
L 94.922041 -192.675405 
L 94.614391 -195.799202 
L 94.310473 -198.612091 
L 94.010716 -198.099105 
L 93.70619 -200.525693 
L 93.396581 -201.27669 
L 93.089985 -202.15392 
L 92.783887 -201.28627 
L 92.484373 -201.760926 
L 92.182627 -202.512467 
L 91.871892 -205.344361 
L 91.572682 -206.358863 
L 91.270997 -208.193887 
L 90.962869 -210.600633 
L 90.659946 -209.745483 
L 90.355187 -210.354784 
L 90.049484 -213.477795 
L 89.744917 -213.490393 
L 89.443942 -212.076663 
L 89.134658 -212.10785 
L 88.828255 -209.524367 
L 88.533022 -210.299653 
L 88.221314 -208.977667 
L 87.922114 -210.565982 
L 87.617213 -211.552146 
L 87.305859 -211.918001 
L 87.009713 -212.934501 
L 86.701464 -213.775845 
L 86.401787 -213.55183 
L 86.091499 -215.902787 
L 85.788931 -215.505715 
L 85.482355 -214.568587 
L 85.181989 -212.91568 
L 84.871112 -213.923462 
L 84.570401 -213.764367 
L 84.27046 -212.263592 
L 83.965884 -210.5384 
L 83.660627 -211.004857 
L 83.357228 -211.116286 
L 83.044382 -211.582324 
L 82.741936 -210.741757 
L 82.438161 -209.252622 
L 82.139469 -210.50053 
L 81.828693 -211.570936 
L 81.530244 -210.751463 
L 81.218018 -211.949553 
L 80.918656 -212.596338 
L 80.614211 -212.81415 
L 80.312942 -212.10785 
L 80.003891 -214.095357 
L 79.707086 -216.285816 
L 79.392009 -216.848431 
L 79.088355 -218.136151 
L 78.791925 -220.449968 
L 78.480135 -220.934174 
L 78.185613 -221.802744 
L 77.879291 -223.887395 
L 77.565837 -222.749367 
L 77.262528 -225.01077 
L 76.962 -223.890284 
L 76.656216 -223.675864 
L 76.357777 -227.517842 
L 76.049781 -228.69365 
L 75.740659 -229.828954 
L 75.442271 -230.735734 
L 75.139693 -231.193154 
L 74.834051 -234.02767 
L 74.529272 -235.722328 
L 74.224807 -236.839908 
L 73.913493 -237.449809 
L 73.609708 -234.015718 
L 73.305892 -230.861758 
L 73.000737 -232.357664 
L 72.705758 -232.031864 
L 72.394891 -233.475218 
L 72.095732 -236.354779 
L 71.788751 -233.729438 
L 71.478676 -232.303963 
L 71.176666 -232.320401 
L 70.876442 -236.29514 
L 70.567695 -239.767536 
L 70.265239 -241.256164 
L 69.957872 -238.30216 
L 69.655162 -237.810218 
L 69.352178 -238.970744 
L 69.045327 -239.738964 
L 68.746479 -240.456787 
L 68.439894 -238.219814 
L 68.131413 -237.566163 
L 67.834737 -239.594227 
L 67.525146 -238.270127 
L 67.225163 -240.116634 
L 66.912989 -240.942362 
L 66.613502 -242.735902 
L 66.304992 -243.053939 
L 66.007699 -242.527962 
L 65.7027 -241.56602 
L 65.392155 -241.186311 
L 65.091835 -241.592264 
L 64.789247 -242.956837 
L 64.482156 -244.101508 
L 64.178753 -243.198442 
L 63.8783 -244.949013 
L 63.568115 -246.615821 
L 63.267275 -244.553744 
L 62.956407 -246.910574 
L 62.655567 -246.796135 
L 62.354726 -246.364422 
L 62.043859 -245.977542 
L 61.740212 -245.73853 
L 61.437215 -246.718784 
L 61.139355 -245.415839 
L 60.826554 -243.733974 
L 60.523157 -245.777052 
L 60.229719 -247.93931 
L 59.920166 -250.206252 
L 59.63366 -249.687239 
L 59.323885 -218.692755 
L 58.999432 -218.692755 
z
" style="stroke: #1f77b4; stroke-opacity: 0.3"/>
    </defs>
    <g clip-path="url(#pcfbeb83056)">
     <use xlink:href="#mb17d142382" x="0" y="266.51625" style="fill: #1f77b4; fill-opacity: 0.3; stroke: #1f77b4; stroke-opacity: 0.3"/>
    </g>
   </g>
   <g id="matplotlib.axis_1">
    <g id="xtick_1">
     <g id="line2d_1">
      <path d="M 58.999432 228.96 
L 58.999432 7.2 
" clip-path="url(#pcfbeb83056)" style="fill: none; stroke: #b0b0b0; stroke-width: 0.8; stroke-linecap: square"/>
     </g>
     <g id="line2d_2">
      <defs>
       <path id="m63a5c41fb0" d="M 0 0 
L 0 3.5 
" style="stroke: #000000; stroke-width: 0.8"/>
      </defs>
      <g>
       <use xlink:href="#m63a5c41fb0" x="58.999432" y="228.96" style="stroke: #000000; stroke-width: 0.8"/>
      </g>
     </g>
     <g id="text_1">
      <!-- 0 -->
      <g transform="translate(55.818182 243.558438) scale(0.1 -0.1)">
       <defs>
        <path id="DejaVuSans-30" d="M 2034 4250 
Q 1547 4250 1301 3770 
Q 1056 3291 1056 2328 
Q 1056 1369 1301 889 
Q 1547 409 2034 409 
Q 2525 409 2770 889 
Q 3016 1369 3016 2328 
Q 3016 3291 2770 3770 
Q 2525 4250 2034 4250 
z
M 2034 4750 
Q 2819 4750 3233 4129 
Q 3647 3509 3647 2328 
Q 3647 1150 3233 529 
Q 2819 -91 2034 -91 
Q 1250 -91 836 529 
Q 422 1150 422 2328 
Q 422 3509 836 4129 
Q 1250 4750 2034 4750 
z
" transform="scale(0.015625)"/>
       </defs>
       <use xlink:href="#DejaVuSans-30"/>
      </g>
     </g>
    </g>
    <g id="xtick_2">
     <g id="line2d_3">
      <path d="M 109.726705 228.96 
L 109.726705 7.2 
" clip-path="url(#pcfbeb83056)" style="fill: none; stroke: #b0b0b0; stroke-width: 0.8; stroke-linecap: square"/>
     </g>
     <g id="line2d_4">
      <g>
       <use xlink:href="#m63a5c41fb0" x="109.726705" y="228.96" style="stroke: #000000; stroke-width: 0.8"/>
      </g>
     </g>
     <g id="text_2">
      <!-- 50 -->
      <g transform="translate(103.364205 243.558438) scale(0.1 -0.1)">
       <defs>
        <path id="DejaVuSans-35" d="M 691 4666 
L 3169 4666 
L 3169 4134 
L 1269 4134 
L 1269 2991 
Q 1406 3038 1543 3061 
Q 1681 3084 1819 3084 
Q 2600 3084 3056 2656 
Q 3513 2228 3513 1497 
Q 3513 744 3044 326 
Q 2575 -91 1722 -91 
Q 1428 -91 1123 -41 
Q 819 9 494 109 
L 494 744 
Q 775 591 1075 516 
Q 1375 441 1709 441 
Q 2250 441 2565 725 
Q 2881 1009 2881 1497 
Q 2881 1984 2565 2268 
Q 2250 2553 1709 2553 
Q 1456 2553 1204 2497 
Q 953 2441 691 2322 
L 691 4666 
z
" transform="scale(0.015625)"/>
       </defs>
       <use xlink:href="#DejaVuSans-35"/>
       <use xlink:href="#DejaVuSans-30" x="63.623047"/>
      </g>
     </g>
    </g>
    <g id="xtick_3">
     <g id="line2d_5">
      <path d="M 160.453977 228.96 
L 160.453977 7.2 
" clip-path="url(#pcfbeb83056)" style="fill: none; stroke: #b0b0b0; stroke-width: 0.8; stroke-linecap: square"/>
     </g>
     <g id="line2d_6">
      <g>
       <use xlink:href="#m63a5c41fb0" x="160.453977" y="228.96" style="stroke: #000000; stroke-width: 0.8"/>
      </g>
     </g>
     <g id="text_3">
      <!-- 100 -->
      <g transform="translate(150.910227 243.558438) scale(0.1 -0.1)">
       <defs>
        <path id="DejaVuSans-31" d="M 794 531 
L 1825 531 
L 1825 4091 
L 703 3866 
L 703 4441 
L 1819 4666 
L 2450 4666 
L 2450 531 
L 3481 531 
L 3481 0 
L 794 0 
L 794 531 
z
" transform="scale(0.015625)"/>
       </defs>
       <use xlink:href="#DejaVuSans-31"/>
       <use xlink:href="#DejaVuSans-30" x="63.623047"/>
       <use xlink:href="#DejaVuSans-30" x="127.246094"/>
      </g>
     </g>
    </g>
    <g id="xtick_4">
     <g id="line2d_7">
      <path d="M 211.18125 228.96 
L 211.18125 7.2 
" clip-path="url(#pcfbeb83056)" style="fill: none; stroke: #b0b0b0; stroke-width: 0.8; stroke-linecap: square"/>
     </g>
     <g id="line2d_8">
      <g>
       <use xlink:href="#m63a5c41fb0" x="211.18125" y="228.96" style="stroke: #000000; stroke-width: 0.8"/>
      </g>
     </g>
     <g id="text_4">
      <!-- 150 -->
      <g transform="translate(201.6375 243.558438) scale(0.1 -0.1)">
       <use xlink:href="#DejaVuSans-31"/>
       <use xlink:href="#DejaVuSans-35" x="63.623047"/>
       <use xlink:href="#DejaVuSans-30" x="127.246094"/>
      </g>
     </g>
    </g>
    <g id="xtick_5">
     <g id="line2d_9">
      <path d="M 261.908523 228.96 
L 261.908523 7.2 
" clip-path="url(#pcfbeb83056)" style="fill: none; stroke: #b0b0b0; stroke-width: 0.8; stroke-linecap: square"/>
     </g>
     <g id="line2d_10">
      <g>
       <use xlink:href="#m63a5c41fb0" x="261.908523" y="228.96" style="stroke: #000000; stroke-width: 0.8"/>
      </g>
     </g>
     <g id="text_5">
      <!-- 200 -->
      <g transform="translate(252.364773 243.558438) scale(0.1 -0.1)">
       <defs>
        <path id="DejaVuSans-32" d="M 1228 531 
L 3431 531 
L 3431 0 
L 469 0 
L 469 531 
Q 828 903 1448 1529 
Q 2069 2156 2228 2338 
Q 2531 2678 2651 2914 
Q 2772 3150 2772 3378 
Q 2772 3750 2511 3984 
Q 2250 4219 1831 4219 
Q 1534 4219 1204 4116 
Q 875 4013 500 3803 
L 500 4441 
Q 881 4594 1212 4672 
Q 1544 4750 1819 4750 
Q 2544 4750 2975 4387 
Q 3406 4025 3406 3419 
Q 3406 3131 3298 2873 
Q 3191 2616 2906 2266 
Q 2828 2175 2409 1742 
Q 1991 1309 1228 531 
z
" transform="scale(0.015625)"/>
       </defs>
       <use xlink:href="#DejaVuSans-32"/>
       <use xlink:href="#DejaVuSans-30" x="63.623047"/>
       <use xlink:href="#DejaVuSans-30" x="127.246094"/>
      </g>
     </g>
    </g>
    <g id="xtick_6">
     <g id="line2d_11">
      <path d="M 312.635795 228.96 
L 312.635795 7.2 
" clip-path="url(#pcfbeb83056)" style="fill: none; stroke: #b0b0b0; stroke-width: 0.8; stroke-linecap: square"/>
     </g>
     <g id="line2d_12">
      <g>
       <use xlink:href="#m63a5c41fb0" x="312.635795" y="228.96" style="stroke: #000000; stroke-width: 0.8"/>
      </g>
     </g>
     <g id="text_6">
      <!-- 250 -->
      <g transform="translate(303.092045 243.558438) scale(0.1 -0.1)">
       <use xlink:href="#DejaVuSans-32"/>
       <use xlink:href="#DejaVuSans-35" x="63.623047"/>
       <use xlink:href="#DejaVuSans-30" x="127.246094"/>
      </g>
     </g>
    </g>
    <g id="xtick_7">
     <g id="line2d_13">
      <path d="M 363.363068 228.96 
L 363.363068 7.2 
" clip-path="url(#pcfbeb83056)" style="fill: none; stroke: #b0b0b0; stroke-width: 0.8; stroke-linecap: square"/>
     </g>
     <g id="line2d_14">
      <g>
       <use xlink:href="#m63a5c41fb0" x="363.363068" y="228.96" style="stroke: #000000; stroke-width: 0.8"/>
      </g>
     </g>
     <g id="text_7">
      <!-- 300 -->
      <g transform="translate(353.819318 243.558438) scale(0.1 -0.1)">
       <defs>
        <path id="DejaVuSans-33" d="M 2597 2516 
Q 3050 2419 3304 2112 
Q 3559 1806 3559 1356 
Q 3559 666 3084 287 
Q 2609 -91 1734 -91 
Q 1441 -91 1130 -33 
Q 819 25 488 141 
L 488 750 
Q 750 597 1062 519 
Q 1375 441 1716 441 
Q 2309 441 2620 675 
Q 2931 909 2931 1356 
Q 2931 1769 2642 2001 
Q 2353 2234 1838 2234 
L 1294 2234 
L 1294 2753 
L 1863 2753 
Q 2328 2753 2575 2939 
Q 2822 3125 2822 3475 
Q 2822 3834 2567 4026 
Q 2313 4219 1838 4219 
Q 1578 4219 1281 4162 
Q 984 4106 628 3988 
L 628 4550 
Q 988 4650 1302 4700 
Q 1616 4750 1894 4750 
Q 2613 4750 3031 4423 
Q 3450 4097 3450 3541 
Q 3450 3153 3228 2886 
Q 3006 2619 2597 2516 
z
" transform="scale(0.015625)"/>
       </defs>
       <use xlink:href="#DejaVuSans-33"/>
       <use xlink:href="#DejaVuSans-30" x="63.623047"/>
       <use xlink:href="#DejaVuSans-30" x="127.246094"/>
      </g>
     </g>
    </g>
    <g id="text_8">
     <!-- Time / s -->
     <g transform="translate(191.480469 257.236562) scale(0.1 -0.1)">
      <defs>
       <path id="DejaVuSans-54" d="M -19 4666 
L 3928 4666 
L 3928 4134 
L 2272 4134 
L 2272 0 
L 1638 0 
L 1638 4134 
L -19 4134 
L -19 4666 
z
" transform="scale(0.015625)"/>
       <path id="DejaVuSans-69" d="M 603 3500 
L 1178 3500 
L 1178 0 
L 603 0 
L 603 3500 
z
M 603 4863 
L 1178 4863 
L 1178 4134 
L 603 4134 
L 603 4863 
z
" transform="scale(0.015625)"/>
       <path id="DejaVuSans-6d" d="M 3328 2828 
Q 3544 3216 3844 3400 
Q 4144 3584 4550 3584 
Q 5097 3584 5394 3201 
Q 5691 2819 5691 2113 
L 5691 0 
L 5113 0 
L 5113 2094 
Q 5113 2597 4934 2840 
Q 4756 3084 4391 3084 
Q 3944 3084 3684 2787 
Q 3425 2491 3425 1978 
L 3425 0 
L 2847 0 
L 2847 2094 
Q 2847 2600 2669 2842 
Q 2491 3084 2119 3084 
Q 1678 3084 1418 2786 
Q 1159 2488 1159 1978 
L 1159 0 
L 581 0 
L 581 3500 
L 1159 3500 
L 1159 2956 
Q 1356 3278 1631 3431 
Q 1906 3584 2284 3584 
Q 2666 3584 2933 3390 
Q 3200 3197 3328 2828 
z
" transform="scale(0.015625)"/>
       <path id="DejaVuSans-65" d="M 3597 1894 
L 3597 1613 
L 953 1613 
Q 991 1019 1311 708 
Q 1631 397 2203 397 
Q 2534 397 2845 478 
Q 3156 559 3463 722 
L 3463 178 
Q 3153 47 2828 -22 
Q 2503 -91 2169 -91 
Q 1331 -91 842 396 
Q 353 884 353 1716 
Q 353 2575 817 3079 
Q 1281 3584 2069 3584 
Q 2775 3584 3186 3129 
Q 3597 2675 3597 1894 
z
M 3022 2063 
Q 3016 2534 2758 2815 
Q 2500 3097 2075 3097 
Q 1594 3097 1305 2825 
Q 1016 2553 972 2059 
L 3022 2063 
z
" transform="scale(0.015625)"/>
       <path id="DejaVuSans-20" transform="scale(0.015625)"/>
       <path id="DejaVuSans-2f" d="M 1625 4666 
L 2156 4666 
L 531 -594 
L 0 -594 
L 1625 4666 
z
" transform="scale(0.015625)"/>
       <path id="DejaVuSans-73" d="M 2834 3397 
L 2834 2853 
Q 2591 2978 2328 3040 
Q 2066 3103 1784 3103 
Q 1356 3103 1142 2972 
Q 928 2841 928 2578 
Q 928 2378 1081 2264 
Q 1234 2150 1697 2047 
L 1894 2003 
Q 2506 1872 2764 1633 
Q 3022 1394 3022 966 
Q 3022 478 2636 193 
Q 2250 -91 1575 -91 
Q 1294 -91 989 -36 
Q 684 19 347 128 
L 347 722 
Q 666 556 975 473 
Q 1284 391 1588 391 
Q 1994 391 2212 530 
Q 2431 669 2431 922 
Q 2431 1156 2273 1281 
Q 2116 1406 1581 1522 
L 1381 1569 
Q 847 1681 609 1914 
Q 372 2147 372 2553 
Q 372 3047 722 3315 
Q 1072 3584 1716 3584 
Q 2034 3584 2315 3537 
Q 2597 3491 2834 3397 
z
" transform="scale(0.015625)"/>
      </defs>
      <use xlink:href="#DejaVuSans-54"/>
      <use xlink:href="#DejaVuSans-69" x="57.958984"/>
      <use xlink:href="#DejaVuSans-6d" x="85.742188"/>
      <use xlink:href="#DejaVuSans-65" x="183.154297"/>
      <use xlink:href="#DejaVuSans-20" x="244.677734"/>
      <use xlink:href="#DejaVuSans-2f" x="276.464844"/>
      <use xlink:href="#DejaVuSans-20" x="310.15625"/>
      <use xlink:href="#DejaVuSans-73" x="341.943359"/>
     </g>
    </g>
   </g>
   <g id="matplotlib.axis_2">
    <g id="ytick_1">
     <g id="line2d_15">
      <path d="M 43.78125 228.96 
L 378.58125 228.96 
" clip-path="url(#pcfbeb83056)" style="fill: none; stroke: #b0b0b0; stroke-width: 0.8; stroke-linecap: square"/>
     </g>
     <g id="line2d_16">
      <defs>
       <path id="m623c519b23" d="M 0 0 
L -3.5 0 
" style="stroke: #000000; stroke-width: 0.8"/>
      </defs>
      <g>
       <use xlink:href="#m623c519b23" x="43.78125" y="228.96" style="stroke: #000000; stroke-width: 0.8"/>
      </g>
     </g>
     <g id="text_9">
      <!-- 0.0 -->
      <g transform="translate(20.878125 232.759219) scale(0.1 -0.1)">
       <defs>
        <path id="DejaVuSans-2e" d="M 684 794 
L 1344 794 
L 1344 0 
L 684 0 
L 684 794 
z
" transform="scale(0.015625)"/>
       </defs>
       <use xlink:href="#DejaVuSans-30"/>
       <use xlink:href="#DejaVuSans-2e" x="63.623047"/>
       <use xlink:href="#DejaVuSans-30" x="95.410156"/>
      </g>
     </g>
    </g>
    <g id="ytick_2">
     <g id="line2d_17">
      <path d="M 43.78125 187.792613 
L 378.58125 187.792613 
" clip-path="url(#pcfbeb83056)" style="fill: none; stroke: #b0b0b0; stroke-width: 0.8; stroke-linecap: square"/>
     </g>
     <g id="line2d_18">
      <g>
       <use xlink:href="#m623c519b23" x="43.78125" y="187.792613" style="stroke: #000000; stroke-width: 0.8"/>
      </g>
     </g>
     <g id="text_10">
      <!-- 0.5 -->
      <g transform="translate(20.878125 191.591832) scale(0.1 -0.1)">
       <use xlink:href="#DejaVuSans-30"/>
       <use xlink:href="#DejaVuSans-2e" x="63.623047"/>
       <use xlink:href="#DejaVuSans-35" x="95.410156"/>
      </g>
     </g>
    </g>
    <g id="ytick_3">
     <g id="line2d_19">
      <path d="M 43.78125 146.625227 
L 378.58125 146.625227 
" clip-path="url(#pcfbeb83056)" style="fill: none; stroke: #b0b0b0; stroke-width: 0.8; stroke-linecap: square"/>
     </g>
     <g id="line2d_20">
      <g>
       <use xlink:href="#m623c519b23" x="43.78125" y="146.625227" style="stroke: #000000; stroke-width: 0.8"/>
      </g>
     </g>
     <g id="text_11">
      <!-- 1.0 -->
      <g transform="translate(20.878125 150.424446) scale(0.1 -0.1)">
       <use xlink:href="#DejaVuSans-31"/>
       <use xlink:href="#DejaVuSans-2e" x="63.623047"/>
       <use xlink:href="#DejaVuSans-30" x="95.410156"/>
      </g>
     </g>
    </g>
    <g id="ytick_4">
     <g id="line2d_21">
      <path d="M 43.78125 105.45784 
L 378.58125 105.45784 
" clip-path="url(#pcfbeb83056)" style="fill: none; stroke: #b0b0b0; stroke-width: 0.8; stroke-linecap: square"/>
     </g>
     <g id="line2d_22">
      <g>
       <use xlink:href="#m623c519b23" x="43.78125" y="105.45784" style="stroke: #000000; stroke-width: 0.8"/>
      </g>
     </g>
     <g id="text_12">
      <!-- 1.5 -->
      <g transform="translate(20.878125 109.257059) scale(0.1 -0.1)">
       <use xlink:href="#DejaVuSans-31"/>
       <use xlink:href="#DejaVuSans-2e" x="63.623047"/>
       <use xlink:href="#DejaVuSans-35" x="95.410156"/>
      </g>
     </g>
    </g>
    <g id="ytick_5">
     <g id="line2d_23">
      <path d="M 43.78125 64.290454 
L 378.58125 64.290454 
" clip-path="url(#pcfbeb83056)" style="fill: none; stroke: #b0b0b0; stroke-width: 0.8; stroke-linecap: square"/>
     </g>
     <g id="line2d_24">
      <g>
       <use xlink:href="#m623c519b23" x="43.78125" y="64.290454" style="stroke: #000000; stroke-width: 0.8"/>
      </g>
     </g>
     <g id="text_13">
      <!-- 2.0 -->
      <g transform="translate(20.878125 68.089672) scale(0.1 -0.1)">
       <use xlink:href="#DejaVuSans-32"/>
       <use xlink:href="#DejaVuSans-2e" x="63.623047"/>
       <use xlink:href="#DejaVuSans-30" x="95.410156"/>
      </g>
     </g>
    </g>
    <g id="ytick_6">
     <g id="line2d_25">
      <path d="M 43.78125 23.123067 
L 378.58125 23.123067 
" clip-path="url(#pcfbeb83056)" style="fill: none; stroke: #b0b0b0; stroke-width: 0.8; stroke-linecap: square"/>
     </g>
     <g id="line2d_26">
      <g>
       <use xlink:href="#m623c519b23" x="43.78125" y="23.123067" style="stroke: #000000; stroke-width: 0.8"/>
      </g>
     </g>
     <g id="text_14">
      <!-- 2.5 -->
      <g transform="translate(20.878125 26.922286) scale(0.1 -0.1)">
       <use xlink:href="#DejaVuSans-32"/>
       <use xlink:href="#DejaVuSans-2e" x="63.623047"/>
       <use xlink:href="#DejaVuSans-35" x="95.410156"/>
      </g>
     </g>
    </g>
    <g id="text_15">
     <!-- Height / m -->
     <g transform="translate(14.798438 144.341719) rotate(-90) scale(0.1 -0.1)">
      <defs>
       <path id="DejaVuSans-48" d="M 628 4666 
L 1259 4666 
L 1259 2753 
L 3553 2753 
L 3553 4666 
L 4184 4666 
L 4184 0 
L 3553 0 
L 3553 2222 
L 1259 2222 
L 1259 0 
L 628 0 
L 628 4666 
z
" transform="scale(0.015625)"/>
       <path id="DejaVuSans-67" d="M 2906 1791 
Q 2906 2416 2648 2759 
Q 2391 3103 1925 3103 
Q 1463 3103 1205 2759 
Q 947 2416 947 1791 
Q 947 1169 1205 825 
Q 1463 481 1925 481 
Q 2391 481 2648 825 
Q 2906 1169 2906 1791 
z
M 3481 434 
Q 3481 -459 3084 -895 
Q 2688 -1331 1869 -1331 
Q 1566 -1331 1297 -1286 
Q 1028 -1241 775 -1147 
L 775 -588 
Q 1028 -725 1275 -790 
Q 1522 -856 1778 -856 
Q 2344 -856 2625 -561 
Q 2906 -266 2906 331 
L 2906 616 
Q 2728 306 2450 153 
Q 2172 0 1784 0 
Q 1141 0 747 490 
Q 353 981 353 1791 
Q 353 2603 747 3093 
Q 1141 3584 1784 3584 
Q 2172 3584 2450 3431 
Q 2728 3278 2906 2969 
L 2906 3500 
L 3481 3500 
L 3481 434 
z
" transform="scale(0.015625)"/>
       <path id="DejaVuSans-68" d="M 3513 2113 
L 3513 0 
L 2938 0 
L 2938 2094 
Q 2938 2591 2744 2837 
Q 2550 3084 2163 3084 
Q 1697 3084 1428 2787 
Q 1159 2491 1159 1978 
L 1159 0 
L 581 0 
L 581 4863 
L 1159 4863 
L 1159 2956 
Q 1366 3272 1645 3428 
Q 1925 3584 2291 3584 
Q 2894 3584 3203 3211 
Q 3513 2838 3513 2113 
z
" transform="scale(0.015625)"/>
       <path id="DejaVuSans-74" d="M 1172 4494 
L 1172 3500 
L 2356 3500 
L 2356 3053 
L 1172 3053 
L 1172 1153 
Q 1172 725 1289 603 
Q 1406 481 1766 481 
L 2356 481 
L 2356 0 
L 1766 0 
Q 1100 0 847 248 
Q 594 497 594 1153 
L 594 3053 
L 172 3053 
L 172 3500 
L 594 3500 
L 594 4494 
L 1172 4494 
z
" transform="scale(0.015625)"/>
      </defs>
      <use xlink:href="#DejaVuSans-48"/>
      <use xlink:href="#DejaVuSans-65" x="75.195312"/>
      <use xlink:href="#DejaVuSans-69" x="136.71875"/>
      <use xlink:href="#DejaVuSans-67" x="164.501953"/>
      <use xlink:href="#DejaVuSans-68" x="227.978516"/>
      <use xlink:href="#DejaVuSans-74" x="291.357422"/>
      <use xlink:href="#DejaVuSans-20" x="330.566406"/>
      <use xlink:href="#DejaVuSans-2f" x="362.353516"/>
      <use xlink:href="#DejaVuSans-20" x="396.044922"/>
      <use xlink:href="#DejaVuSans-6d" x="427.832031"/>
     </g>
    </g>
   </g>
   <g id="line2d_27">
    <path d="M 58.999432 47.823495 
L 59.323885 47.823495 
L 59.63366 62.513881 
L 59.920166 66.961429 
L 60.229719 67.500526 
L 60.523157 63.4573 
L 60.826554 62.109559 
L 61.139355 58.60543 
L 61.437215 61.300913 
L 61.740212 61.570462 
L 62.043859 61.166139 
L 62.354726 62.244333 
L 62.655567 64.939816 
L 62.956407 65.209365 
L 63.267275 63.726849 
L 63.568115 64.939816 
L 63.8783 67.500526 
L 64.178753 67.904849 
L 64.482156 69.387365 
L 64.789247 69.656913 
L 65.091835 68.443945 
L 65.392155 68.309171 
L 65.7027 68.983042 
L 66.007699 72.082848 
L 66.304992 71.139429 
L 66.613502 71.139429 
L 66.912989 70.735106 
L 67.525146 69.387365 
L 67.834737 70.465558 
L 68.131413 72.352397 
L 68.439894 69.522139 
L 68.746479 72.621945 
L 69.045327 74.239235 
L 69.352178 73.969687 
L 69.655162 75.721751 
L 69.957872 75.721751 
L 70.265239 69.791687 
L 70.567695 71.8133 
L 70.876442 76.260848 
L 71.478676 80.304074 
L 71.788751 78.147687 
L 72.095732 78.282461 
L 72.394891 81.517041 
L 72.705758 78.147687 
L 73.000737 79.495428 
L 73.305892 79.091106 
L 73.913493 72.082848 
L 74.224807 73.565364 
L 74.529272 77.339042 
L 74.834051 78.282461 
L 75.139693 77.743364 
L 75.442271 78.686783 
L 75.740659 81.112719 
L 76.049781 81.921364 
L 76.357777 84.886396 
L 76.656216 86.503686 
L 76.962 86.099364 
L 77.262528 84.212525 
L 77.565837 84.482073 
L 77.879291 85.829815 
L 78.185613 86.63846 
L 78.791925 86.63846 
L 79.088355 89.873041 
L 79.392009 90.277363 
L 79.707086 91.355557 
L 80.312942 95.937879 
L 80.614211 94.320589 
L 80.918656 94.455363 
L 81.218018 94.99446 
L 81.530244 93.37717 
L 81.828693 93.916266 
L 82.438161 97.016073 
L 82.741936 95.937879 
L 83.044382 97.016073 
L 83.660627 94.859686 
L 83.965884 95.533557 
L 84.27046 93.781492 
L 84.570401 93.781492 
L 84.871112 93.107621 
L 85.181989 94.99446 
L 85.788931 92.298976 
L 86.091499 94.590137 
L 86.401787 94.859686 
L 86.701464 94.320589 
L 87.009713 95.533557 
L 87.305859 95.398782 
L 87.617213 96.207427 
L 87.922114 97.824718 
L 88.221314 97.555169 
L 88.533022 96.342202 
L 88.828255 95.803105 
L 89.134658 95.937879 
L 89.443942 97.016073 
L 89.744917 94.724911 
L 90.049484 95.129234 
L 90.659946 93.646718 
L 90.962869 97.555169 
L 91.270997 99.981105 
L 91.572682 101.059298 
L 91.871892 100.654976 
L 92.182627 103.350459 
L 92.484373 104.96775 
L 93.089985 103.889556 
L 93.396581 104.02433 
L 93.70619 105.372072 
L 94.010716 106.045943 
L 94.310473 107.393685 
L 94.922041 112.110781 
L 95.219638 111.976007 
L 95.534086 112.515104 
L 95.836126 112.784652 
L 96.740959 116.693104 
L 97.045982 115.61491 
L 97.35412 113.593297 
L 97.659762 113.728072 
L 98.270934 116.154007 
L 98.568896 118.310394 
L 98.879256 118.040845 
L 99.179064 118.579942 
L 100.402129 123.566587 
L 100.706959 123.297039 
L 101.006859 124.240458 
L 101.618082 121.679748 
L 101.921634 123.566587 
L 102.221625 124.105684 
L 102.529925 126.127297 
L 102.830312 124.779555 
L 103.136065 124.105684 
L 103.438704 124.105684 
L 103.751143 125.318652 
L 104.050485 125.049103 
L 104.663108 127.20549 
L 104.966508 127.609813 
L 105.267463 128.283684 
L 105.568823 129.7662 
L 105.876342 130.035748 
L 106.186864 129.361877 
L 106.489696 129.227103 
L 106.788835 128.283684 
L 107.093269 126.262071 
L 107.402675 127.609813 
L 107.701104 128.148909 
L 108.012731 130.709619 
L 108.311363 129.7662 
L 108.618608 129.631425 
L 108.915535 129.227103 
L 109.219442 131.518264 
L 110.139594 133.674651 
L 110.438489 133.00078 
L 110.744385 133.809425 
L 111.050656 133.135554 
L 111.360102 133.135554 
L 111.656877 132.057361 
L 111.962884 133.00078 
L 112.27159 133.00078 
L 112.567614 133.944199 
L 112.872526 134.348522 
L 113.185341 136.504909 
L 113.486742 136.370135 
L 113.789097 135.831038 
L 114.098036 136.235361 
L 114.699124 137.583102 
L 115.005608 136.774457 
L 115.312772 136.909231 
L 115.611738 137.17878 
L 115.920738 135.157167 
L 116.224493 135.426715 
L 116.526756 136.370135 
L 116.832479 136.774457 
L 117.133181 135.831038 
L 117.750958 137.448328 
L 118.050959 138.661296 
L 118.358376 137.044006 
L 118.660437 138.256973 
L 118.970482 137.044006 
L 119.27101 136.774457 
L 119.879413 137.852651 
L 120.184091 137.313554 
L 120.49088 137.987425 
L 120.795111 139.335167 
L 121.089735 138.391747 
L 121.399953 139.469941 
L 121.70389 139.200393 
L 122.011602 139.200393 
L 122.315398 137.852651 
L 122.620482 138.526522 
L 122.920138 137.852651 
L 123.221813 138.391747 
L 123.533826 138.526522 
L 123.833016 137.044006 
L 124.136263 137.17878 
L 124.43944 136.639683 
L 124.74495 137.583102 
L 125.048928 137.987425 
L 125.354124 139.200393 
L 125.961573 138.79607 
L 126.267093 140.817683 
L 126.568656 141.222005 
L 126.876611 141.087231 
L 127.18618 140.009038 
L 127.491324 139.874264 
L 127.795242 140.278586 
L 128.09508 139.200393 
L 128.394402 138.930844 
L 128.704853 140.41336 
L 129.315203 141.761102 
L 129.620592 142.165425 
L 129.92596 142.300199 
L 130.225585 142.704521 
L 130.840593 142.165425 
L 131.136759 142.569747 
L 131.438474 142.03065 
L 131.752902 143.243618 
L 132.358535 140.952457 
L 132.662229 141.087231 
L 132.966674 140.817683 
L 133.577633 139.200393 
L 134.180456 140.41336 
L 134.492003 140.41336 
L 134.788331 141.087231 
L 135.404109 143.243618 
L 135.709102 142.839296 
L 136.315658 140.682909 
L 136.613843 140.682909 
L 136.922884 140.278586 
L 137.227227 139.335167 
L 137.844111 140.278586 
L 138.139851 140.952457 
L 138.445088 140.952457 
L 138.747909 140.817683 
L 139.051289 140.41336 
L 139.353491 140.952457 
L 139.664044 141.761102 
L 139.962746 142.165425 
L 140.265142 141.895876 
L 140.577368 139.874264 
L 140.88025 140.009038 
L 141.182362 140.952457 
L 141.486614 140.143812 
L 142.094651 141.35678 
L 142.405985 140.548134 
L 142.702577 141.491554 
L 143.003866 141.35678 
L 143.309793 141.35678 
L 143.612604 141.895876 
L 143.924729 141.491554 
L 144.223675 141.491554 
L 144.532421 142.569747 
L 144.837759 143.108844 
L 145.138379 142.97407 
L 145.444863 144.052263 
L 145.751672 143.647941 
L 146.360916 145.130457 
L 147.273591 142.704521 
L 147.885616 144.59136 
L 148.178616 142.839296 
L 148.495682 142.97407 
L 148.788947 144.187037 
L 149.092996 144.860908 
L 149.402757 146.20865 
L 149.702951 144.59136 
L 150.013107 144.726134 
L 150.310998 143.647941 
L 150.624117 143.108844 
L 150.927791 143.108844 
L 151.223227 143.378392 
L 151.535098 143.108844 
L 151.836022 143.243618 
L 152.138753 144.052263 
L 152.753385 144.456586 
L 153.049571 145.130457 
L 153.362294 144.860908 
L 153.659343 144.456586 
L 154.267502 145.534779 
L 154.580652 144.995683 
L 154.876635 144.726134 
L 155.178818 144.187037 
L 155.483232 143.378392 
L 155.788793 144.860908 
L 156.399133 142.839296 
L 157.313411 146.343424 
L 157.616253 146.478199 
L 157.918182 146.20865 
L 158.53884 147.15207 
L 158.835899 146.478199 
L 159.142282 146.747747 
L 159.446615 145.939102 
L 159.751273 147.556392 
L 160.054926 146.882521 
L 160.359432 145.400005 
L 160.666829 146.343424 
L 160.964091 146.20865 
L 161.270686 146.478199 
L 161.874442 148.230263 
L 162.187835 146.747747 
L 162.483373 146.882521 
L 163.100419 146.20865 
L 163.399609 146.478199 
L 163.710668 146.478199 
L 164.010669 145.669553 
L 164.311989 145.534779 
L 164.617976 146.073876 
L 164.91889 147.15207 
L 165.229443 146.882521 
L 165.528734 145.265231 
L 165.842127 147.017295 
L 166.145273 146.343424 
L 166.75187 147.82594 
L 167.059175 147.421618 
L 167.363438 146.20865 
L 167.664352 144.187037 
L 167.964657 142.97407 
L 168.27521 143.108844 
L 168.578965 144.59136 
L 169.179677 144.187037 
L 170.406871 149.038908 
L 170.70393 148.904134 
L 171.007279 149.038908 
L 171.314686 148.76936 
L 171.624224 148.095489 
L 171.924225 147.15207 
L 172.529402 146.747747 
L 172.839853 145.939102 
L 173.139143 144.726134 
L 173.448783 146.20865 
L 173.74574 146.073876 
L 174.051626 146.747747 
L 174.356598 148.499811 
L 174.97334 147.82594 
L 175.274965 148.095489 
L 175.581154 147.15207 
L 175.885721 146.612973 
L 176.791913 145.939102 
L 177.397089 143.108844 
L 177.710077 143.108844 
L 178.010078 144.187037 
L 178.321137 144.456586 
L 178.618906 146.747747 
L 179.236257 148.499811 
L 179.536766 147.82594 
L 180.142551 149.308456 
L 180.443363 148.499811 
L 180.747118 147.017295 
L 181.053511 147.556392 
L 181.356759 146.478199 
L 181.66305 146.478199 
L 181.965892 147.017295 
L 182.273299 146.882521 
L 182.882432 147.15207 
L 183.182332 148.499811 
L 183.496029 148.76936 
L 183.799074 149.308456 
L 184.104148 149.443231 
L 184.399888 149.712779 
L 184.701715 148.76936 
L 185.007905 146.882521 
L 185.318457 146.073876 
L 186.232867 149.712779 
L 186.538347 149.982327 
L 186.838043 148.499811 
L 187.141798 149.712779 
L 187.447177 149.038908 
L 187.753975 147.82594 
L 188.061788 148.499811 
L 188.658645 149.173682 
L 188.972444 149.578005 
L 189.268691 149.308456 
L 189.578635 150.251876 
L 189.880259 149.712779 
L 190.495074 147.691166 
L 191.100961 147.017295 
L 191.406846 147.556392 
L 192.008979 145.804328 
L 192.314458 146.343424 
L 193.233535 147.15207 
L 193.528971 146.882521 
L 193.834653 147.286844 
L 194.144191 147.960715 
L 194.757382 147.960715 
L 195.35779 148.76936 
L 195.660125 147.82594 
L 195.97088 147.286844 
L 196.268243 147.286844 
L 196.88529 148.095489 
L 197.487626 147.691166 
L 197.795743 148.76936 
L 198.104368 148.76936 
L 198.401528 149.173682 
L 198.70295 149.847553 
L 199.019082 149.982327 
L 199.626287 147.691166 
L 200.224362 148.230263 
L 200.530146 148.095489 
L 201.140598 148.095489 
L 201.447599 149.847553 
L 201.75034 149.982327 
L 202.051558 149.578005 
L 202.362009 149.578005 
L 202.970229 148.230263 
L 203.268709 148.230263 
L 203.574391 149.982327 
L 203.878349 149.173682 
L 204.186771 149.308456 
L 204.492656 149.308456 
L 204.798643 149.443231 
L 205.103717 150.251876 
L 205.40595 149.982327 
L 205.711328 149.038908 
L 206.014576 150.117102 
L 206.316809 149.308456 
L 206.622593 149.308456 
L 206.930507 149.847553 
L 207.233755 149.308456 
L 207.535684 149.443231 
L 207.835989 149.982327 
L 208.140454 149.443231 
L 208.449688 149.982327 
L 209.359126 147.691166 
L 209.973738 148.499811 
L 210.272826 148.230263 
L 210.578306 148.904134 
L 210.882162 148.904134 
L 211.185004 149.443231 
L 211.798398 149.038908 
L 212.105602 149.712779 
L 212.405096 149.443231 
L 212.703575 148.499811 
L 213.014331 149.038908 
L 213.314636 148.76936 
L 213.616666 148.76936 
L 213.932089 148.095489 
L 214.235336 148.499811 
L 214.531482 148.095489 
L 214.833715 148.365037 
L 215.147615 148.904134 
L 215.446805 150.251876 
L 215.758676 150.521424 
L 216.053605 149.847553 
L 216.35949 149.712779 
L 216.669637 148.634586 
L 216.966493 150.117102 
L 217.280596 149.847553 
L 217.58222 149.982327 
L 217.878062 150.38665 
L 218.19115 150.251876 
L 218.49176 149.712779 
L 218.795414 149.712779 
L 219.106879 148.365037 
L 219.713476 149.038908 
L 220.015405 148.634586 
L 220.314695 149.712779 
L 220.618247 149.712779 
L 221.228902 148.634586 
L 221.530527 148.499811 
L 221.837224 149.443231 
L 222.145341 148.76936 
L 222.443618 148.499811 
L 222.755185 149.173682 
L 223.055693 147.556392 
L 223.36797 147.556392 
L 223.667058 148.634586 
L 223.972436 147.286844 
L 224.584613 149.038908 
L 224.878324 148.76936 
L 225.187354 149.173682 
L 225.495776 148.904134 
L 225.791516 149.712779 
L 226.711202 147.017295 
L 227.016986 147.017295 
L 227.318914 147.691166 
L 227.621959 149.847553 
L 227.929975 151.195295 
L 228.238093 150.521424 
L 228.537181 150.790973 
L 229.148241 149.578005 
L 229.44875 149.578005 
L 229.756969 149.038908 
L 230.059607 149.443231 
L 230.356362 148.904134 
L 230.66661 148.634586 
L 230.971379 149.712779 
L 231.271685 149.847553 
L 231.576353 150.117102 
L 231.88163 150.790973 
L 232.186906 150.790973 
L 232.491879 151.060521 
L 232.799083 150.790973 
L 233.105374 150.925747 
L 233.4001 151.195295 
L 233.707406 150.521424 
L 234.01603 150.925747 
L 234.626584 150.521424 
L 234.933484 151.869166 
L 235.236123 151.869166 
L 235.533993 152.138714 
L 235.836531 152.812585 
L 236.444243 151.464843 
L 236.751752 152.138714 
L 237.063826 151.464843 
L 237.359465 150.251876 
L 237.973772 150.925747 
L 238.271744 150.117102 
L 238.575398 150.656198 
L 238.88108 151.464843 
L 239.18798 150.656198 
L 239.491025 150.38665 
L 239.795287 149.578005 
L 240.106042 150.251876 
L 240.408377 151.599618 
L 240.716291 152.408263 
L 241.015887 151.599618 
L 241.317917 151.734392 
L 241.62431 149.847553 
L 241.928978 149.982327 
L 242.838315 149.308456 
L 243.140041 151.195295 
L 243.454854 151.734392 
L 243.752623 151.060521 
L 244.054755 151.464843 
L 244.665511 150.521424 
L 244.967846 149.038908 
L 245.57495 148.095489 
L 245.886314 147.15207 
L 246.189257 147.556392 
L 246.488649 147.691166 
L 246.800419 147.15207 
L 247.107218 147.421618 
L 247.405088 148.904134 
L 247.708539 149.578005 
L 248.016149 149.173682 
L 248.319701 149.847553 
L 249.235531 149.173682 
L 249.836142 149.443231 
L 250.148318 149.847553 
L 250.457145 149.443231 
L 251.059582 149.443231 
L 251.362931 149.712779 
L 252.281805 152.543037 
L 252.883837 151.869166 
L 253.490535 150.38665 
L 254.100784 148.365037 
L 254.401799 148.365037 
L 254.711743 147.421618 
L 255.010121 147.421618 
L 255.325036 149.982327 
L 255.619558 150.790973 
L 255.931633 151.060521 
L 256.540461 149.847553 
L 256.83752 149.578005 
L 257.145739 148.634586 
L 257.446349 148.634586 
L 257.757104 149.982327 
L 258.060961 150.251876 
L 258.359338 149.308456 
L 258.971414 150.117102 
L 259.273748 149.847553 
L 260.192318 152.00394 
L 260.492319 152.00394 
L 260.801451 151.599618 
L 261.099727 150.925747 
L 261.402163 151.599618 
L 261.714947 149.578005 
L 262.012108 150.656198 
L 262.316066 151.060521 
L 262.62327 151.195295 
L 262.927126 150.38665 
L 263.232809 149.173682 
L 263.53839 150.117102 
L 264.149654 150.521424 
L 264.449147 150.38665 
L 264.751279 151.734392 
L 265.05544 151.869166 
L 265.671675 150.521424 
L 265.972995 149.443231 
L 266.281619 149.443231 
L 268.103033 147.691166 
L 268.408715 147.691166 
L 268.71247 148.095489 
L 269.015921 148.095489 
L 269.625257 151.330069 
L 270.231143 150.521424 
L 270.544029 150.38665 
L 270.847784 150.790973 
L 271.148495 151.599618 
L 271.457729 151.734392 
L 271.753875 152.408263 
L 272.973155 149.308456 
L 273.278432 148.76936 
L 273.578738 149.712779 
L 273.887768 149.712779 
L 274.188682 150.656198 
L 274.492539 149.982327 
L 274.796699 149.847553 
L 275.098425 150.790973 
L 275.403093 151.330069 
L 275.710805 151.330069 
L 276.02014 152.00394 
L 276.325214 151.330069 
L 276.628969 151.060521 
L 276.932318 151.060521 
L 277.539827 150.656198 
L 277.839321 149.578005 
L 278.145004 150.790973 
L 279.967939 148.230263 
L 280.273114 149.038908 
L 280.577174 149.173682 
L 280.881639 150.521424 
L 281.196046 150.38665 
L 281.492497 150.521424 
L 281.804469 150.251876 
L 282.104876 151.330069 
L 282.406602 151.195295 
L 282.71269 151.330069 
L 283.018271 149.443231 
L 283.318374 149.308456 
L 283.62497 149.308456 
L 283.933797 148.76936 
L 284.235726 148.634586 
L 284.53735 149.982327 
L 284.840598 149.578005 
L 285.146991 149.847553 
L 285.455615 151.195295 
L 285.755312 151.330069 
L 286.063835 152.408263 
L 286.670331 152.812585 
L 287.280377 152.273489 
L 287.5889 151.195295 
L 287.893162 151.195295 
L 288.186975 150.656198 
L 288.494382 151.330069 
L 288.804427 150.521424 
L 289.409502 152.273489 
L 289.707778 152.138714 
L 290.013359 152.273489 
L 290.316506 153.351682 
L 290.625942 152.947359 
L 290.931827 153.082134 
L 291.539439 151.195295 
L 291.845121 151.195295 
L 292.754966 149.847553 
L 293.061561 149.982327 
L 293.363287 150.925747 
L 293.664911 150.790973 
L 293.97658 151.869166 
L 294.587032 152.947359 
L 294.889975 152.408263 
L 295.191701 152.138714 
L 295.795863 149.982327 
L 296.403778 150.925747 
L 296.715751 150.251876 
L 297.015854 150.790973 
L 297.625291 149.443231 
L 298.230366 150.521424 
L 298.541121 150.925747 
L 298.848833 150.790973 
L 299.142544 151.464843 
L 299.75888 151.060521 
L 300.057461 150.251876 
L 300.363245 150.251876 
L 300.669739 148.904134 
L 300.971465 149.578005 
L 301.892469 150.521424 
L 302.194804 150.925747 
L 302.495109 151.060521 
L 303.108301 150.656198 
L 303.718347 149.308456 
L 304.016522 148.904134 
L 304.319465 147.421618 
L 304.623524 147.15207 
L 304.931642 147.691166 
L 305.232556 149.173682 
L 305.540572 149.578005 
L 305.842703 149.712779 
L 306.45275 150.925747 
L 306.757012 151.330069 
L 307.361985 150.521424 
L 307.668987 149.712779 
L 307.973249 150.251876 
L 308.278424 149.173682 
L 308.580454 149.038908 
L 308.891108 149.173682 
L 309.799634 148.230263 
L 310.099736 148.76936 
L 310.408361 150.117102 
L 310.718507 150.790973 
L 311.020233 152.408263 
L 311.632714 153.756005 
L 311.935658 153.486456 
L 312.548443 152.273489 
L 313.144996 150.251876 
L 313.456664 149.847553 
L 313.757984 150.38665 
L 314.067826 150.251876 
L 314.369857 152.273489 
L 314.669858 152.273489 
L 314.969757 152.00394 
L 315.280005 152.677811 
L 315.589036 152.408263 
L 315.888124 151.599618 
L 316.196647 152.543037 
L 316.803244 150.790973 
L 317.409739 152.138714 
L 317.718973 152.543037 
L 318.317351 150.38665 
L 318.630947 152.138714 
L 318.932065 152.00394 
L 319.240486 150.251876 
L 319.535922 150.38665 
L 319.844953 150.38665 
L 320.14678 151.464843 
L 320.454694 151.060521 
L 321.05774 152.273489 
L 321.97357 150.117102 
L 322.28392 150.925747 
L 322.587167 150.925747 
L 322.893865 150.656198 
L 323.193561 150.117102 
L 323.498331 151.060521 
L 324.109696 150.38665 
L 324.71264 151.060521 
L 325.016598 149.847553 
L 325.326947 150.521424 
L 325.623398 150.790973 
L 325.930805 150.521424 
L 326.233038 150.656198 
L 326.544808 149.578005 
L 326.842983 149.982327 
L 327.145317 149.712779 
L 327.456478 150.251876 
L 328.66886 151.330069 
L 328.971803 151.869166 
L 329.286414 150.790973 
L 329.588241 152.00394 
L 330.198693 152.677811 
L 330.80042 151.060521 
L 331.100827 151.060521 
L 331.405901 150.925747 
L 331.710975 151.060521 
L 332.026803 151.330069 
L 332.322137 153.351682 
L 332.631066 153.082134 
L 332.928937 153.486456 
L 333.232996 152.812585 
L 333.546287 152.677811 
L 333.847405 152.947359 
L 334.146087 151.330069 
L 334.460089 151.060521 
L 334.759278 151.464843 
L 335.063946 151.599618 
L 335.362222 149.982327 
L 335.67592 150.117102 
L 335.981095 150.656198 
L 336.279473 149.982327 
L 336.584141 150.790973 
L 336.884142 150.790973 
L 337.198245 150.38665 
L 337.504942 150.925747 
L 338.106365 152.408263 
L 338.714179 152.138714 
L 339.015296 152.408263 
L 339.328182 152.947359 
L 339.625545 152.543037 
L 339.932648 151.599618 
L 340.242896 151.599618 
L 340.542491 151.869166 
L 340.841985 152.543037 
L 341.153045 151.599618 
L 341.459742 151.599618 
L 341.756192 151.195295 
L 342.060657 151.195295 
L 342.362687 152.273489 
L 342.67324 152.273489 
L 342.979633 151.060521 
L 343.284402 151.599618 
L 343.893332 149.712779 
L 344.193638 150.521424 
L 344.499726 150.251876 
L 344.798408 151.734392 
L 345.110077 151.734392 
L 345.711905 151.195295 
L 346.018703 150.38665 
L 346.325705 150.925747 
L 346.62875 150.925747 
L 346.939505 150.656198 
L 347.235651 149.847553 
L 347.537072 150.38665 
L 348.151379 150.925747 
L 348.460917 151.464843 
L 349.068021 150.790973 
L 349.364877 151.060521 
L 349.668125 151.060521 
L 349.978677 151.195295 
L 350.27878 151.599618 
L 350.588723 151.734392 
L 350.891058 153.216908 
L 351.193595 152.812585 
L 351.497452 153.082134 
L 351.801511 152.543037 
L 352.104962 153.486456 
L 352.408311 152.812585 
L 353.025053 152.408263 
L 353.326271 150.656198 
L 353.628809 150.521424 
L 354.242913 151.869166 
L 354.541088 151.734392 
L 354.847988 152.00394 
L 355.151845 152.947359 
L 355.45215 153.351682 
L 355.764731 153.216908 
L 356.06037 152.812585 
L 356.366864 151.599618 
L 356.670822 151.599618 
L 356.9762 150.251876 
L 357.276404 151.330069 
L 357.592841 150.790973 
L 357.884929 151.060521 
L 358.19193 151.734392 
L 358.501772 152.812585 
L 358.799947 152.947359 
L 359.109485 152.408263 
L 359.417298 152.543037 
L 360.023793 152.273489 
L 360.325722 152.408263 
L 360.626738 152.677811 
L 360.929377 152.677811 
L 361.236479 151.869166 
L 361.541756 152.543037 
L 361.850787 152.543037 
L 362.451398 151.734392 
L 362.760733 152.812585 
L 363.065603 152.273489 
L 363.363068 152.00394 
L 363.363068 152.00394 
" clip-path="url(#pcfbeb83056)" style="fill: none; stroke: #1f77b4; stroke-width: 1.5; stroke-linecap: square"/>
   </g>
   <g id="patch_3">
    <path d="M 43.78125 228.96 
L 43.78125 7.2 
" style="fill: none; stroke: #000000; stroke-width: 0.8; stroke-linejoin: miter; stroke-linecap: square"/>
   </g>
   <g id="patch_4">
    <path d="M 378.58125 228.96 
L 378.58125 7.2 
" style="fill: none; stroke: #000000; stroke-width: 0.8; stroke-linejoin: miter; stroke-linecap: square"/>
   </g>
   <g id="patch_5">
    <path d="M 43.78125 228.96 
L 378.58125 228.96 
" style="fill: none; stroke: #000000; stroke-width: 0.8; stroke-linejoin: miter; stroke-linecap: square"/>
   </g>
   <g id="patch_6">
    <path d="M 43.78125 7.2 
L 378.58125 7.2 
" style="fill: none; stroke: #000000; stroke-width: 0.8; stroke-linejoin: miter; stroke-linecap: square"/>
   </g>
   <g id="legend_1">
    <g id="patch_7">
     <path d="M 208.070312 29.878125 
L 371.58125 29.878125 
Q 373.58125 29.878125 373.58125 27.878125 
L 373.58125 14.2 
Q 373.58125 12.2 371.58125 12.2 
L 208.070312 12.2 
Q 206.070312 12.2 206.070312 14.2 
L 206.070312 27.878125 
Q 206.070312 29.878125 208.070312 29.878125 
z
" style="fill: #ffffff; opacity: 0.8; stroke: #cccccc; stroke-linejoin: miter"/>
    </g>
    <g id="line2d_28">
     <path d="M 210.070312 20.298437 
L 220.070312 20.298437 
L 230.070312 20.298437 
" style="fill: none; stroke: #1f77b4; stroke-width: 1.5; stroke-linecap: square"/>
    </g>
    <g id="text_16">
     <!-- Mean Smoke Layer Height -->
     <g transform="translate(238.070312 23.798437) scale(0.1 -0.1)">
      <defs>
       <path id="DejaVuSans-4d" d="M 628 4666 
L 1569 4666 
L 2759 1491 
L 3956 4666 
L 4897 4666 
L 4897 0 
L 4281 0 
L 4281 4097 
L 3078 897 
L 2444 897 
L 1241 4097 
L 1241 0 
L 628 0 
L 628 4666 
z
" transform="scale(0.015625)"/>
       <path id="DejaVuSans-61" d="M 2194 1759 
Q 1497 1759 1228 1600 
Q 959 1441 959 1056 
Q 959 750 1161 570 
Q 1363 391 1709 391 
Q 2188 391 2477 730 
Q 2766 1069 2766 1631 
L 2766 1759 
L 2194 1759 
z
M 3341 1997 
L 3341 0 
L 2766 0 
L 2766 531 
Q 2569 213 2275 61 
Q 1981 -91 1556 -91 
Q 1019 -91 701 211 
Q 384 513 384 1019 
Q 384 1609 779 1909 
Q 1175 2209 1959 2209 
L 2766 2209 
L 2766 2266 
Q 2766 2663 2505 2880 
Q 2244 3097 1772 3097 
Q 1472 3097 1187 3025 
Q 903 2953 641 2809 
L 641 3341 
Q 956 3463 1253 3523 
Q 1550 3584 1831 3584 
Q 2591 3584 2966 3190 
Q 3341 2797 3341 1997 
z
" transform="scale(0.015625)"/>
       <path id="DejaVuSans-6e" d="M 3513 2113 
L 3513 0 
L 2938 0 
L 2938 2094 
Q 2938 2591 2744 2837 
Q 2550 3084 2163 3084 
Q 1697 3084 1428 2787 
Q 1159 2491 1159 1978 
L 1159 0 
L 581 0 
L 581 3500 
L 1159 3500 
L 1159 2956 
Q 1366 3272 1645 3428 
Q 1925 3584 2291 3584 
Q 2894 3584 3203 3211 
Q 3513 2838 3513 2113 
z
" transform="scale(0.015625)"/>
       <path id="DejaVuSans-53" d="M 3425 4513 
L 3425 3897 
Q 3066 4069 2747 4153 
Q 2428 4238 2131 4238 
Q 1616 4238 1336 4038 
Q 1056 3838 1056 3469 
Q 1056 3159 1242 3001 
Q 1428 2844 1947 2747 
L 2328 2669 
Q 3034 2534 3370 2195 
Q 3706 1856 3706 1288 
Q 3706 609 3251 259 
Q 2797 -91 1919 -91 
Q 1588 -91 1214 -16 
Q 841 59 441 206 
L 441 856 
Q 825 641 1194 531 
Q 1563 422 1919 422 
Q 2459 422 2753 634 
Q 3047 847 3047 1241 
Q 3047 1584 2836 1778 
Q 2625 1972 2144 2069 
L 1759 2144 
Q 1053 2284 737 2584 
Q 422 2884 422 3419 
Q 422 4038 858 4394 
Q 1294 4750 2059 4750 
Q 2388 4750 2728 4690 
Q 3069 4631 3425 4513 
z
" transform="scale(0.015625)"/>
       <path id="DejaVuSans-6f" d="M 1959 3097 
Q 1497 3097 1228 2736 
Q 959 2375 959 1747 
Q 959 1119 1226 758 
Q 1494 397 1959 397 
Q 2419 397 2687 759 
Q 2956 1122 2956 1747 
Q 2956 2369 2687 2733 
Q 2419 3097 1959 3097 
z
M 1959 3584 
Q 2709 3584 3137 3096 
Q 3566 2609 3566 1747 
Q 3566 888 3137 398 
Q 2709 -91 1959 -91 
Q 1206 -91 779 398 
Q 353 888 353 1747 
Q 353 2609 779 3096 
Q 1206 3584 1959 3584 
z
" transform="scale(0.015625)"/>
       <path id="DejaVuSans-6b" d="M 581 4863 
L 1159 4863 
L 1159 1991 
L 2875 3500 
L 3609 3500 
L 1753 1863 
L 3688 0 
L 2938 0 
L 1159 1709 
L 1159 0 
L 581 0 
L 581 4863 
z
" transform="scale(0.015625)"/>
       <path id="DejaVuSans-4c" d="M 628 4666 
L 1259 4666 
L 1259 531 
L 3531 531 
L 3531 0 
L 628 0 
L 628 4666 
z
" transform="scale(0.015625)"/>
       <path id="DejaVuSans-79" d="M 2059 -325 
Q 1816 -950 1584 -1140 
Q 1353 -1331 966 -1331 
L 506 -1331 
L 506 -850 
L 844 -850 
Q 1081 -850 1212 -737 
Q 1344 -625 1503 -206 
L 1606 56 
L 191 3500 
L 800 3500 
L 1894 763 
L 2988 3500 
L 3597 3500 
L 2059 -325 
z
" transform="scale(0.015625)"/>
       <path id="DejaVuSans-72" d="M 2631 2963 
Q 2534 3019 2420 3045 
Q 2306 3072 2169 3072 
Q 1681 3072 1420 2755 
Q 1159 2438 1159 1844 
L 1159 0 
L 581 0 
L 581 3500 
L 1159 3500 
L 1159 2956 
Q 1341 3275 1631 3429 
Q 1922 3584 2338 3584 
Q 2397 3584 2469 3576 
Q 2541 3569 2628 3553 
L 2631 2963 
z
" transform="scale(0.015625)"/>
      </defs>
      <use xlink:href="#DejaVuSans-4d"/>
      <use xlink:href="#DejaVuSans-65" x="86.279297"/>
      <use xlink:href="#DejaVuSans-61" x="147.802734"/>
      <use xlink:href="#DejaVuSans-6e" x="209.082031"/>
      <use xlink:href="#DejaVuSans-20" x="272.460938"/>
      <use xlink:href="#DejaVuSans-53" x="304.248047"/>
      <use xlink:href="#DejaVuSans-6d" x="367.724609"/>
      <use xlink:href="#DejaVuSans-6f" x="465.136719"/>
      <use xlink:href="#DejaVuSans-6b" x="526.318359"/>
      <use xlink:href="#DejaVuSans-65" x="580.603516"/>
      <use xlink:href="#DejaVuSans-20" x="642.126953"/>
      <use xlink:href="#DejaVuSans-4c" x="673.914062"/>
      <use xlink:href="#DejaVuSans-61" x="729.626953"/>
      <use xlink:href="#DejaVuSans-79" x="790.90625"/>
      <use xlink:href="#DejaVuSans-65" x="850.085938"/>
      <use xlink:href="#DejaVuSans-72" x="911.609375"/>
      <use xlink:href="#DejaVuSans-20" x="952.722656"/>
      <use xlink:href="#DejaVuSans-48" x="984.509766"/>
      <use xlink:href="#DejaVuSans-65" x="1059.705078"/>
      <use xlink:href="#DejaVuSans-69" x="1121.228516"/>
      <use xlink:href="#DejaVuSans-67" x="1149.011719"/>
      <use xlink:href="#DejaVuSans-68" x="1212.488281"/>
      <use xlink:href="#DejaVuSans-74" x="1275.867188"/>
     </g>
    </g>
   </g>
  </g>
 </g>
 <defs>
  <clipPath id="pcfbeb83056">
   <rect x="43.78125" y="7.2" width="334.8" height="221.76"/>
  </clipPath>
 </defs>
</svg>
