<?xml version="1.0" encoding="utf-8" standalone="no"?>
<!DOCTYPE svg PUBLIC "-//W3C//DTD SVG 1.1//EN"
  "http://www.w3.org/Graphics/SVG/1.1/DTD/svg11.dtd">
<svg xmlns:xlink="http://www.w3.org/1999/xlink" width="385.78125pt" height="266.51625pt" viewBox="0 0 385.78125 266.51625" xmlns="http://www.w3.org/2000/svg" version="1.1">
 <metadata>
  <rdf:RDF xmlns:dc="http://purl.org/dc/elements/1.1/" xmlns:cc="http://creativecommons.org/ns#" xmlns:rdf="http://www.w3.org/1999/02/22-rdf-syntax-ns#">
   <cc:Work>
    <dc:type rdf:resource="http://purl.org/dc/dcmitype/StillImage"/>
    <dc:date>2022-11-23T18:11:43.958290</dc:date>
    <dc:format>image/svg+xml</dc:format>
    <dc:creator>
     <cc:Agent>
      <dc:title>Matplotlib v3.6.0, https://matplotlib.org/</dc:title>
     </cc:Agent>
    </dc:creator>
   </cc:Work>
  </rdf:RDF>
 </metadata>
 <defs>
  <style type="text/css">*{stroke-linejoin: round; stroke-linecap: butt}</style>
 </defs>
 <g id="figure_1">
  <g id="patch_1">
   <path d="M 0 266.51625 
L 385.78125 266.51625 
L 385.78125 0 
L 0 0 
z
" style="fill: #ffffff"/>
  </g>
  <g id="axes_1">
   <g id="patch_2">
    <path d="M 43.78125 228.96 
L 378.58125 228.96 
L 378.58125 7.2 
L 43.78125 7.2 
z
" style="fill: #ffffff"/>
   </g>
   <g id="PolyCollection_1">
    <defs>
     <path id="m60f214bdbd" d="M 58.999432 -248.044915 
L 58.999432 -248.044915 
L 59.323885 -248.044915 
L 59.63366 -248.044915 
L 59.920166 -248.044915 
L 60.229719 -248.044915 
L 60.523157 -248.044915 
L 60.826554 -248.044915 
L 61.139355 -248.044915 
L 61.437215 -248.044915 
L 61.740212 -248.044915 
L 62.043859 -248.044915 
L 62.354726 -248.044915 
L 62.655567 -248.044915 
L 62.956407 -248.044915 
L 63.267275 -248.044915 
L 63.568115 -248.044915 
L 63.8783 -248.044915 
L 64.178753 -248.044915 
L 64.482156 -248.044915 
L 64.789247 -248.044915 
L 65.091835 -248.044915 
L 65.392155 -244.876454 
L 65.7027 -240.444695 
L 66.007699 -239.539558 
L 66.304992 -240.444695 
L 66.613502 -239.125228 
L 66.912989 -237.398175 
L 67.225163 -236.195343 
L 67.525146 -234.354406 
L 67.834737 -230.111373 
L 68.131413 -232.295566 
L 68.439894 -233.037917 
L 68.746479 -234.759721 
L 69.045327 -226.789012 
L 69.352178 -230.123125 
L 69.655162 -222.573306 
L 69.957872 -226.264135 
L 70.265239 -231.513369 
L 70.567695 -229.173992 
L 70.876442 -218.88282 
L 71.176666 -212.953647 
L 71.478676 -209.485129 
L 71.788751 -207.072543 
L 72.095732 -206.812792 
L 72.394891 -206.247385 
L 72.705758 -206.987508 
L 73.000737 -207.128302 
L 73.305892 -209.376748 
L 73.609708 -217.446709 
L 73.913493 -234.759721 
L 74.224807 -233.525596 
L 74.529272 -228.992355 
L 74.834051 -221.474527 
L 75.139693 -214.559952 
L 75.442271 -206.001141 
L 75.740659 -197.009901 
L 76.049781 -199.218643 
L 76.357777 -199.080097 
L 76.656216 -193.487507 
L 76.962 -189.882124 
L 77.262528 -192.260158 
L 77.565837 -195.733851 
L 77.879291 -195.656199 
L 78.185613 -191.81936 
L 78.480135 -188.479585 
L 78.791925 -189.780669 
L 79.088355 -187.8735 
L 79.392009 -189.355317 
L 79.707086 -187.490606 
L 80.003891 -185.380213 
L 80.312942 -183.103579 
L 80.614211 -182.955726 
L 80.918656 -183.666581 
L 81.218018 -184.58944 
L 81.530244 -188.824343 
L 81.828693 -189.225037 
L 82.139469 -187.389739 
L 82.438161 -183.628142 
L 82.741936 -181.653383 
L 83.044382 -181.198385 
L 83.357228 -181.013964 
L 83.660627 -180.670453 
L 83.965884 -180.385587 
L 84.27046 -189.893255 
L 84.570401 -187.015776 
L 84.871112 -188.364362 
L 85.181989 -187.549137 
L 85.482355 -188.120943 
L 85.788931 -186.809051 
L 86.091499 -185.668115 
L 86.401787 -184.316595 
L 86.701464 -184.840696 
L 87.009713 -183.162384 
L 87.305859 -177.327393 
L 87.617213 -176.316524 
L 87.922114 -175.644845 
L 88.221314 -177.271499 
L 88.533022 -180.935471 
L 88.828255 -180.471557 
L 89.134658 -181.653383 
L 89.443942 -182.025468 
L 89.744917 -181.595364 
L 90.049484 -183.812647 
L 90.355187 -183.895988 
L 90.659946 -186.292812 
L 90.962869 -189.365428 
L 91.270997 -185.64231 
L 91.572682 -191.661291 
L 91.871892 -190.459595 
L 92.182627 -187.087274 
L 92.484373 -186.897005 
L 92.783887 -185.873956 
L 93.089985 -185.186449 
L 93.396581 -184.386127 
L 93.70619 -184.325107 
L 94.010716 -182.869837 
L 94.310473 -182.386076 
L 94.614391 -176.24496 
L 94.922041 -173.008636 
L 95.219638 -174.080817 
L 95.534086 -174.408345 
L 95.836126 -173.652663 
L 96.140835 -169.563748 
L 96.445868 -163.345192 
L 96.740959 -161.926529 
L 97.045982 -161.682773 
L 97.35412 -160.664608 
L 97.659762 -159.456758 
L 97.965576 -158.833638 
L 98.270934 -161.323763 
L 98.568896 -161.844795 
L 98.879256 -162.778746 
L 99.179064 -160.334882 
L 99.491331 -158.004684 
L 99.786604 -156.294159 
L 100.095939 -154.969368 
L 100.402129 -153.671069 
L 100.706959 -151.579937 
L 101.006859 -154.175506 
L 101.312562 -155.830833 
L 101.618082 -156.249229 
L 101.921634 -156.075902 
L 102.221625 -155.934882 
L 102.529925 -155.375679 
L 102.830312 -153.122889 
L 103.136065 -152.316267 
L 103.438704 -150.515526 
L 103.751143 -150.311613 
L 104.050485 -149.414387 
L 104.350233 -149.107052 
L 104.663108 -144.98201 
L 104.966508 -146.859238 
L 105.267463 -143.899027 
L 105.568823 -140.965021 
L 105.876342 -142.02528 
L 106.186864 -144.148168 
L 106.489696 -146.428293 
L 106.788835 -147.183443 
L 107.093269 -148.517674 
L 107.402675 -147.322352 
L 107.701104 -145.547047 
L 108.012731 -143.802909 
L 108.311363 -142.176479 
L 108.618608 -140.30671 
L 108.915535 -142.647951 
L 109.219442 -141.234086 
L 109.528767 -138.134206 
L 109.838467 -138.501913 
L 110.139594 -138.89253 
L 110.438489 -138.501913 
L 110.744385 -137.154224 
L 111.050656 -137.67859 
L 111.360102 -136.835969 
L 111.656877 -136.633989 
L 111.962884 -135.984352 
L 112.27159 -135.523777 
L 112.567614 -136.202689 
L 112.872526 -136.633989 
L 113.185341 -135.72404 
L 113.486742 -135.718127 
L 113.789097 -135.784294 
L 114.098036 -135.72404 
L 114.394527 -134.364973 
L 114.699124 -132.062868 
L 115.005608 -132.15321 
L 115.312772 -133.306405 
L 115.611738 -134.302861 
L 115.920738 -135.718127 
L 116.224493 -135.718127 
L 116.526756 -134.915119 
L 116.832479 -135.784294 
L 117.133181 -135.956923 
L 117.439847 -135.655607 
L 117.750958 -131.574029 
L 118.050959 -129.367847 
L 118.358376 -131.774986 
L 118.660437 -131.210817 
L 118.970482 -132.38295 
L 119.27101 -131.210817 
L 119.575465 -130.683619 
L 119.879413 -127.142207 
L 120.184091 -126.179419 
L 120.49088 -125.761024 
L 120.795111 -125.761024 
L 121.089735 -126.179419 
L 121.399953 -125.719422 
L 121.70389 -126.381753 
L 122.011602 -126.381753 
L 122.315398 -126.864606 
L 122.620482 -128.478643 
L 122.920138 -132.38295 
L 123.221813 -133.045255 
L 123.533826 -132.173829 
L 123.833016 -131.975044 
L 124.136263 -133.324486 
L 124.43944 -134.024709 
L 124.74495 -130.822007 
L 125.048928 -130.265073 
L 125.354124 -129.367847 
L 125.662383 -129.722843 
L 125.961573 -129.283591 
L 126.267093 -128.110936 
L 126.568656 -127.442718 
L 126.876611 -127.142207 
L 127.18618 -127.442718 
L 127.491324 -127.442718 
L 127.795242 -127.765678 
L 128.09508 -128.86926 
L 128.394402 -128.478643 
L 128.704853 -127.442718 
L 129.008344 -122.269603 
L 129.315203 -122.078235 
L 129.620592 -122.12994 
L 129.92596 -121.020144 
L 130.225585 -119.232314 
L 130.531917 -119.711989 
L 130.840593 -119.808062 
L 131.136759 -119.284979 
L 131.438474 -120.918481 
L 131.752902 -120.793504 
L 132.05337 -124.101628 
L 132.358535 -125.650667 
L 132.662229 -125.939376 
L 132.966674 -126.571514 
L 133.270977 -127.275812 
L 133.577633 -127.034106 
L 133.876569 -127.524089 
L 134.180456 -126.508407 
L 134.492003 -126.864606 
L 134.788331 -126.179419 
L 135.097605 -123.75637 
L 135.404109 -122.039599 
L 135.709102 -123.269629 
L 136.003503 -124.503753 
L 136.315658 -125.380688 
L 136.613843 -127.480917 
L 136.922884 -129.283591 
L 137.227227 -129.983396 
L 137.533346 -130.683619 
L 137.844111 -127.442718 
L 138.139851 -125.865073 
L 138.445088 -125.30587 
L 138.747909 -125.865073 
L 139.051289 -125.865073 
L 139.353491 -124.101628 
L 139.664044 -124.031192 
L 139.962746 -124.021467 
L 140.265142 -124.001439 
L 140.577368 -126.864606 
L 140.88025 -127.442718 
L 141.182362 -127.765678 
L 141.486614 -128.86926 
L 141.791566 -128.110936 
L 142.094651 -126.006093 
L 142.405985 -125.865073 
L 142.702577 -125.694857 
L 143.003866 -125.700771 
L 143.309793 -125.694857 
L 143.612604 -125.761024 
L 143.924729 -125.694857 
L 144.223675 -125.694857 
L 144.532421 -124.823431 
L 144.837759 -125.933653 
L 145.138379 -123.353249 
L 145.444863 -122.359681 
L 145.751672 -121.751716 
L 146.055954 -119.960126 
L 146.360916 -119.960126 
L 146.660562 -121.187547 
L 146.96451 -123.75637 
L 147.273591 -121.96478 
L 147.571868 -121.96478 
L 147.885616 -122.026538 
L 148.178616 -124.021467 
L 148.495682 -123.498996 
L 148.788947 -123.021985 
L 149.092996 -119.486546 
L 149.402757 -118.455374 
L 149.702951 -119.257196 
L 150.013107 -119.713734 
L 150.310998 -119.808062 
L 150.624117 -119.808062 
L 150.927791 -120.351926 
L 151.223227 -120.793504 
L 151.535098 -121.371381 
L 151.836022 -124.001439 
L 152.138753 -124.001439 
L 152.443715 -122.359681 
L 152.753385 -122.359681 
L 153.049571 -119.960126 
L 153.362294 -122.359681 
L 153.659343 -121.187547 
L 153.964092 -120.165458 
L 154.267502 -118.845991 
L 154.580652 -118.455374 
L 154.876635 -119.699573 
L 155.178818 -121.187547 
L 155.483232 -121.187547 
L 155.788793 -120.165458 
L 156.095257 -119.960126 
L 156.399133 -121.187547 
L 156.700484 -121.187547 
L 157.012406 -120.660349 
L 157.313411 -121.550759 
L 157.616253 -118.845991 
L 157.918182 -118.087666 
L 158.234598 -117.742408 
L 158.53884 -116.841337 
L 158.835899 -116.841337 
L 159.142282 -115.737754 
L 159.446615 -115.671587 
L 159.751273 -115.737754 
L 160.054926 -115.477238 
L 160.359432 -115.106775 
L 160.666829 -116.358483 
L 160.964091 -117.742408 
L 161.270686 -117.118938 
L 161.57992 -117.118938 
L 161.874442 -115.627397 
L 162.187835 -113.829218 
L 162.483373 -114.570515 
L 162.791084 -117.419448 
L 163.100419 -118.087666 
L 163.399609 -116.587449 
L 163.710668 -116.15615 
L 164.010669 -115.982823 
L 164.311989 -115.982823 
L 164.617976 -115.677501 
L 164.91889 -115.737754 
L 165.229443 -115.982823 
L 165.528734 -116.485138 
L 165.842127 -116.841337 
L 166.145273 -116.841337 
L 166.450753 -115.982823 
L 166.75187 -115.671587 
L 167.059175 -115.677501 
L 167.363438 -117.742408 
L 167.664352 -121.187547 
L 167.964657 -124.597217 
L 168.27521 -124.597217 
L 168.578965 -123.75637 
L 168.880285 -121.187547 
L 169.179677 -120.165458 
L 169.485055 -117.118938 
L 169.795607 -115.677501 
L 170.097333 -117.742408 
L 170.406871 -117.742408 
L 170.70393 -115.910383 
L 171.007279 -115.737754 
L 171.314686 -115.671587 
L 171.624224 -115.671587 
L 171.924225 -116.789429 
L 172.225038 -118.087666 
L 172.529402 -118.455374 
L 172.839853 -119.699573 
L 173.139143 -119.699573 
L 173.448783 -117.742408 
L 173.74574 -118.087666 
L 174.051626 -116.587449 
L 174.356598 -115.737754 
L 174.661672 -115.982823 
L 174.97334 -115.982823 
L 175.274965 -115.677501 
L 175.581154 -115.677501 
L 175.885721 -115.737754 
L 176.185113 -115.841803 
L 176.495057 -116.587449 
L 176.791913 -116.358483 
L 177.093233 -116.485138 
L 177.397089 -118.845991 
L 177.710077 -118.845991 
L 178.010078 -120.165458 
L 178.321137 -118.845991 
L 178.618906 -116.358483 
L 178.919719 -115.841803 
L 179.236257 -115.910383 
L 179.536766 -115.671587 
L 179.838593 -115.677501 
L 180.142551 -113.347039 
L 180.443363 -113.277946 
L 180.747118 -115.737754 
L 181.053511 -115.982823 
L 181.356759 -115.357419 
L 181.66305 -116.15615 
L 181.965892 -116.15615 
L 182.273299 -116.15615 
L 182.575025 -116.841337 
L 182.882432 -116.15615 
L 183.182332 -115.737754 
L 183.496029 -112.578141 
L 183.799074 -111.527489 
L 184.104148 -111.164277 
L 184.399888 -109.463276 
L 184.701715 -109.209044 
L 185.007905 -109.288801 
L 185.318457 -109.488112 
L 185.616632 -110.418782 
L 185.927286 -109.339008 
L 186.232867 -109.723792 
L 186.538347 -109.723792 
L 186.838043 -110.775467 
L 187.141798 -110.965723 
L 187.447177 -111.728446 
L 187.753975 -114.573947 
L 188.061788 -114.573947 
L 188.356919 -114.573947 
L 188.658645 -115.609067 
L 188.972444 -115.154411 
L 189.268691 -113.329979 
L 189.578635 -111.728446 
L 189.880259 -112.127289 
L 190.188681 -115.910383 
L 190.495074 -117.742408 
L 190.799235 -117.742408 
L 191.100961 -117.742408 
L 191.406846 -115.737754 
L 191.714253 -115.671587 
L 192.008979 -114.111324 
L 192.314458 -113.911452 
L 192.616184 -114.318433 
L 192.923389 -115.114284 
L 193.233535 -115.982823 
L 193.528971 -115.982823 
L 193.834653 -115.737754 
L 194.144191 -115.677501 
L 194.441656 -115.677501 
L 194.757382 -115.677501 
L 195.052209 -115.677501 
L 195.35779 -115.677501 
L 195.660125 -115.841803 
L 195.97088 -115.477238 
L 196.268243 -116.587449 
L 196.58255 -116.587449 
L 196.88529 -113.600767 
L 197.190059 -112.454991 
L 197.487626 -110.797086 
L 197.795743 -109.288801 
L 198.104368 -108.777323 
L 198.401528 -108.237026 
L 198.70295 -108.713118 
L 199.019082 -110.436758 
L 199.317663 -112.998716 
L 199.626287 -114.256321 
L 199.921622 -114.256321 
L 200.224362 -117.742408 
L 200.530146 -117.742408 
L 200.837147 -117.742408 
L 201.140598 -117.742408 
L 201.447599 -112.998716 
L 201.75034 -111.728446 
L 202.051558 -110.754026 
L 202.362009 -110.328656 
L 202.664445 -111.596113 
L 202.970229 -112.10667 
L 203.268709 -113.246359 
L 203.574391 -113.7331 
L 203.878349 -114.573947 
L 204.186771 -113.475726 
L 204.492656 -111.405487 
L 204.798643 -110.84223 
L 205.103717 -111.405487 
L 205.40595 -110.436758 
L 205.711328 -110.637079 
L 206.014576 -110.637079 
L 206.316809 -110.637079 
L 206.622593 -111.728446 
L 206.930507 -112.336411 
L 207.233755 -113.7331 
L 207.535684 -114.082427 
L 207.835989 -113.259866 
L 208.140454 -113.7331 
L 208.449688 -113.02981 
L 208.748066 -112.882045 
L 209.052632 -112.882045 
L 209.359126 -113.347039 
L 209.666331 -113.7331 
L 209.973738 -114.082427 
L 210.272826 -115.910383 
L 210.578306 -112.003269 
L 210.882162 -112.127289 
L 211.185004 -112.998716 
L 211.48673 -114.573947 
L 211.798398 -112.998716 
L 212.105602 -110.754026 
L 212.405096 -111.596113 
L 212.703575 -112.054966 
L 213.014331 -112.246334 
L 213.314636 -112.454991 
L 213.616666 -111.622207 
L 213.932089 -112.10667 
L 214.235336 -112.662398 
L 214.531482 -114.078358 
L 214.833715 -114.868579 
L 215.147615 -113.246359 
L 215.446805 -111.728446 
L 215.758676 -110.309126 
L 216.053605 -110.2369 
L 216.35949 -110.209173 
L 216.669637 -110.328656 
L 216.966493 -109.26171 
L 217.280596 -109.339008 
L 217.58222 -109.870457 
L 217.878062 -113.277946 
L 218.19115 -114.812162 
L 218.49176 -116.277285 
L 218.795414 -114.812162 
L 219.106879 -113.347039 
L 219.400489 -112.662398 
L 219.713476 -112.10667 
L 220.015405 -112.016329 
L 220.314695 -111.955471 
L 220.618247 -111.928504 
L 220.922611 -111.928504 
L 221.228902 -111.955471 
L 221.530527 -112.596722 
L 221.837224 -112.10667 
L 222.145341 -112.10667 
L 222.443618 -112.10667 
L 222.755185 -111.955471 
L 223.055693 -113.998197 
L 223.36797 -115.910383 
L 223.667058 -115.737754 
L 223.972436 -115.671587 
L 224.275481 -115.671587 
L 224.584613 -111.955471 
L 224.878324 -111.405487 
L 225.187354 -111.164277 
L 225.495776 -112.998716 
L 225.791516 -112.336411 
L 226.10288 -117.742408 
L 226.400142 -117.742408 
L 226.711202 -115.982823 
L 227.016986 -117.419448 
L 227.318914 -116.841337 
L 227.621959 -115.737754 
L 227.929975 -112.998716 
L 228.238093 -112.336411 
L 228.537181 -111.728446 
L 228.836269 -115.609067 
L 229.148241 -117.742408 
L 229.44875 -116.277285 
L 229.756969 -117.742408 
L 230.059607 -116.277285 
L 230.356362 -115.671587 
L 230.66661 -115.671587 
L 230.971379 -111.405487 
L 231.271685 -109.936856 
L 231.576353 -108.255023 
L 231.88163 -108.862327 
L 232.186906 -109.233927 
L 232.491879 -108.255023 
L 232.799083 -109.013972 
L 233.105374 -108.862327 
L 233.4001 -109.013972 
L 233.707406 -108.587414 
L 234.01603 -108.317403 
L 234.322119 -108.713118 
L 234.626584 -108.317403 
L 234.933484 -107.084415 
L 235.236123 -106.708464 
L 235.533993 -107.229273 
L 235.836531 -108.064397 
L 236.142315 -108.064397 
L 236.444243 -108.822721 
L 236.751752 -108.587414 
L 237.063826 -108.255023 
L 237.359465 -108.317403 
L 237.661901 -107.084415 
L 237.973772 -107.392989 
L 238.271744 -107.391714 
L 238.575398 -107.853868 
L 238.88108 -108.713876 
L 239.18798 -109.438556 
L 239.491025 -110.675444 
L 239.795287 -110.422447 
L 240.106042 -109.784792 
L 240.408377 -107.803105 
L 240.716291 -107.334354 
L 241.015887 -108.697641 
L 241.317917 -109.936856 
L 241.62431 -110.436758 
L 241.928978 -110.2369 
L 242.232631 -109.690464 
L 242.542169 -110.259677 
L 242.838315 -109.209044 
L 243.140041 -108.424595 
L 243.454854 -107.798304 
L 243.752623 -108.432104 
L 244.054755 -108.064397 
L 244.361959 -107.229273 
L 244.665511 -107.47755 
L 244.967846 -111.94151 
L 245.278804 -112.641733 
L 245.57495 -112.998716 
L 245.886314 -115.154411 
L 246.189257 -116.277285 
L 246.488649 -116.277285 
L 246.800419 -117.742408 
L 247.107218 -115.609067 
L 247.405088 -112.998716 
L 247.708539 -112.772757 
L 248.016149 -111.928504 
L 248.319701 -111.486858 
L 248.623456 -112.10667 
L 248.934718 -110.895211 
L 249.235531 -112.75868 
L 249.534416 -112.596722 
L 249.836142 -112.016329 
L 250.148318 -112.223188 
L 250.457145 -113.246359 
L 250.755016 -113.998197 
L 251.059582 -114.812162 
L 251.362931 -113.998197 
L 251.662324 -111.728446 
L 251.976123 -110.637079 
L 252.281805 -109.013972 
L 252.585763 -109.676303 
L 252.883837 -110.142188 
L 253.188505 -111.728446 
L 253.490535 -112.336411 
L 253.794695 -112.363336 
L 254.100784 -113.829218 
L 254.401799 -113.829218 
L 254.711743 -114.111324 
L 255.010121 -115.114284 
L 255.325036 -113.329979 
L 255.619558 -112.998716 
L 255.931633 -112.998716 
L 256.229706 -112.998716 
L 256.540461 -112.336411 
L 256.83752 -113.329979 
L 257.145739 -115.910383 
L 257.446349 -115.910383 
L 257.757104 -117.742408 
L 258.060961 -114.573947 
L 258.359338 -117.742408 
L 258.673239 -114.573947 
L 258.971414 -111.164277 
L 259.273748 -109.237051 
L 259.578822 -109.237051 
L 259.882374 -107.798304 
L 260.192318 -105.079761 
L 260.492319 -104.009212 
L 260.801451 -105.526094 
L 261.099727 -105.867954 
L 261.402163 -106.868083 
L 261.714947 -110.637079 
L 262.012108 -111.164277 
L 262.316066 -110.637079 
L 262.62327 -110.142188 
L 262.927126 -111.164277 
L 263.232809 -113.7331 
L 263.53839 -117.742408 
L 263.844073 -115.609067 
L 264.149654 -115.609067 
L 264.449147 -115.609067 
L 264.751279 -111.728446 
L 265.05544 -108.317403 
L 265.359499 -107.777466 
L 265.671675 -107.334354 
L 265.972995 -107.777466 
L 266.281619 -108.255023 
L 266.580302 -109.463276 
L 266.884767 -110.436758 
L 267.184463 -111.164277 
L 267.488726 -111.164277 
L 267.8008 -112.998716 
L 268.103033 -117.742408 
L 268.408715 -117.742408 
L 268.71247 -114.573947 
L 269.015921 -110.84223 
L 269.318255 -110.2369 
L 269.625257 -109.233927 
L 269.934389 -109.802958 
L 270.231143 -112.998716 
L 270.544029 -115.609067 
L 270.847784 -115.609067 
L 271.148495 -114.573947 
L 271.457729 -112.578141 
L 271.753875 -111.342385 
L 272.06321 -111.94151 
L 272.360979 -110.2369 
L 272.662806 -109.723792 
L 272.973155 -110.218534 
L 273.278432 -110.81864 
L 273.578738 -110.965723 
L 273.887768 -111.728446 
L 274.188682 -111.728446 
L 274.492539 -113.7331 
L 274.796699 -115.609067 
L 275.098425 -113.7331 
L 275.403093 -113.7331 
L 275.710805 -114.573947 
L 276.02014 -112.998716 
L 276.325214 -111.728446 
L 276.628969 -111.728446 
L 276.932318 -110.637079 
L 277.23871 -109.676303 
L 277.539827 -108.432104 
L 277.839321 -109.237051 
L 278.145004 -107.090364 
L 278.450889 -107.229273 
L 278.758702 -108.317403 
L 279.054848 -108.862327 
L 279.366415 -109.802958 
L 279.666315 -110.965723 
L 279.967939 -117.742408 
L 280.273114 -117.742408 
L 280.577174 -115.609067 
L 280.881639 -110.637079 
L 281.196046 -108.76558 
L 281.492497 -108.237026 
L 281.804469 -107.803105 
L 282.104876 -106.598484 
L 282.406602 -106.818067 
L 282.71269 -107.396179 
L 283.018271 -110.142188 
L 283.318374 -109.676303 
L 283.62497 -110.637079 
L 283.933797 -111.527489 
L 284.235726 -114.082427 
L 284.53735 -115.154411 
L 284.840598 -113.7331 
L 285.146991 -113.7331 
L 285.455615 -111.728446 
L 285.755312 -107.815256 
L 286.063835 -105.714484 
L 286.369112 -105.075374 
L 286.670331 -105.075374 
L 286.969419 -106.006959 
L 287.280377 -106.524974 
L 287.5889 -109.013972 
L 287.893162 -109.463276 
L 288.186975 -109.463276 
L 288.494382 -107.798304 
L 288.804427 -108.182465 
L 289.102501 -108.822721 
L 289.409502 -107.396179 
L 289.707778 -106.335214 
L 290.013359 -105.714484 
L 290.316506 -105.714484 
L 290.625942 -105.654231 
L 290.931827 -105.714484 
L 291.23051 -105.818533 
L 291.539439 -106.56418 
L 291.845121 -107.396179 
L 292.144311 -108.432104 
L 292.458617 -107.719138 
L 292.754966 -108.432104 
L 293.061561 -108.432104 
L 293.363287 -108.432104 
L 293.664911 -108.822721 
L 293.97658 -108.822721 
L 294.27861 -108.182465 
L 294.587032 -107.434377 
L 294.889975 -107.090364 
L 295.191701 -108.317403 
L 295.493731 -109.723792 
L 295.795863 -110.775467 
L 296.105806 -111.728446 
L 296.403778 -111.728446 
L 296.715751 -111.728446 
L 297.015854 -111.728446 
L 297.317782 -111.527489 
L 297.625291 -111.405487 
L 297.932191 -112.003269 
L 298.230366 -111.928504 
L 298.541121 -109.209044 
L 298.848833 -108.697641 
L 299.142544 -108.713118 
L 299.452589 -109.321308 
L 299.75888 -109.321308 
L 300.057461 -109.233927 
L 300.363245 -109.723792 
L 300.669739 -111.342385 
L 300.971465 -111.94151 
L 301.277858 -110.84223 
L 301.584352 -111.164277 
L 301.892469 -109.237051 
L 302.194804 -109.676303 
L 302.495109 -109.676303 
L 302.800082 -110.142188 
L 303.108301 -111.405487 
L 303.404446 -113.246359 
L 303.718347 -113.277946 
L 304.016522 -114.078358 
L 304.319465 -114.18332 
L 304.623524 -115.477238 
L 304.931642 -112.10667 
L 305.232556 -108.317403 
L 305.540572 -108.587414 
L 305.842703 -109.013972 
L 306.154778 -108.064397 
L 306.45275 -108.064397 
L 306.757012 -108.064397 
L 307.061274 -108.064397 
L 307.361985 -108.432104 
L 307.668987 -111.164277 
L 307.973249 -112.998716 
L 308.278424 -117.742408 
L 308.580454 -117.742408 
L 308.891108 -117.742408 
L 309.190805 -117.742408 
L 309.49111 -116.277285 
L 309.799634 -115.671587 
L 310.099736 -112.016329 
L 310.408361 -106.912896 
L 310.718507 -106.49031 
L 311.020233 -106.598484 
L 311.322771 -106.868083 
L 311.632714 -107.396179 
L 311.935658 -107.396179 
L 312.231601 -108.822721 
L 312.548443 -110.142188 
L 312.839618 -111.527489 
L 313.144996 -112.772757 
L 313.456664 -112.772757 
L 313.757984 -112.998716 
L 314.067826 -111.164277 
L 314.369857 -106.818067 
L 314.669858 -106.335214 
L 314.969757 -106.818067 
L 315.280005 -107.396179 
L 315.589036 -108.064397 
L 315.888124 -110.142188 
L 316.196647 -111.164277 
L 316.495532 -111.164277 
L 316.803244 -108.76558 
L 317.100607 -107.084415 
L 317.409739 -107.095668 
L 317.718973 -106.13288 
L 318.023742 -105.714484 
L 318.317351 -104.643782 
L 318.630947 -105.818533 
L 318.932065 -106.818067 
L 319.240486 -109.676303 
L 319.535922 -111.728446 
L 319.844953 -111.728446 
L 320.14678 -111.728446 
L 320.454694 -111.164277 
L 320.754087 -111.164277 
L 321.05774 -111.164277 
L 321.371945 -109.68872 
L 321.666873 -109.18403 
L 321.97357 -108.697641 
L 322.28392 -107.815256 
L 322.587167 -107.47755 
L 322.893865 -108.064397 
L 323.193561 -108.822721 
L 323.498331 -109.676303 
L 323.804115 -110.637079 
L 324.109696 -110.142188 
L 324.412639 -108.822721 
L 324.71264 -109.676303 
L 325.016598 -111.164277 
L 325.326947 -114.573947 
L 325.623398 -112.998716 
L 325.930805 -113.329979 
L 326.233038 -111.928504 
L 326.544808 -112.566414 
L 326.842983 -110.436758 
L 327.145317 -109.321308 
L 327.456478 -108.317403 
L 327.756581 -107.47755 
L 328.057292 -106.708464 
L 328.363583 -106.868083 
L 328.66886 -107.090364 
L 328.971803 -108.064397 
L 329.286414 -108.064397 
L 329.588241 -108.064397 
L 329.893924 -107.396179 
L 330.198693 -107.719138 
L 330.492607 -108.182465 
L 330.80042 -108.587414 
L 331.100827 -108.432104 
L 331.405901 -108.822721 
L 331.710975 -109.676303 
L 332.026803 -109.676303 
L 332.322137 -107.396179 
L 332.631066 -106.818067 
L 332.928937 -106.56418 
L 333.232996 -106.56418 
L 333.546287 -106.56418 
L 333.847405 -108.432104 
L 334.146087 -110.637079 
L 334.460089 -111.728446 
L 334.759278 -111.164277 
L 335.063946 -110.637079 
L 335.362222 -111.164277 
L 335.67592 -109.676303 
L 335.981095 -108.064397 
L 336.279473 -107.095668 
L 336.584141 -105.604127 
L 336.884142 -107.095668 
L 337.198245 -108.822721 
L 337.504942 -109.237051 
L 337.801291 -110.142188 
L 338.106365 -109.676303 
L 338.41499 -109.676303 
L 338.714179 -108.822721 
L 339.015296 -108.822721 
L 339.328182 -108.432104 
L 339.625545 -107.719138 
L 339.932648 -107.396179 
L 340.242896 -106.335214 
L 340.542491 -106.13288 
L 340.841985 -106.56418 
L 341.153045 -108.432104 
L 341.459742 -108.182465 
L 341.756192 -107.608781 
L 342.060657 -106.868083 
L 342.362687 -106.335214 
L 342.67324 -105.959554 
L 342.979633 -105.959554 
L 343.284402 -106.335214 
L 343.586432 -107.396179 
L 343.893332 -110.142188 
L 344.193638 -110.142188 
L 344.499726 -110.637079 
L 344.798408 -111.164277 
L 345.110077 -110.637079 
L 345.414034 -109.676303 
L 345.711905 -109.237051 
L 346.018703 -108.822721 
L 346.325705 -109.676303 
L 346.62875 -110.637079 
L 346.939505 -111.164277 
L 347.235651 -113.7331 
L 347.537072 -112.998716 
L 347.850161 -111.164277 
L 348.151379 -111.164277 
L 348.460917 -110.142188 
L 348.762745 -109.237051 
L 349.068021 -108.007021 
L 349.364877 -108.424595 
L 349.668125 -109.013972 
L 349.978677 -110.142188 
L 350.27878 -109.463276 
L 350.588723 -107.888335 
L 350.891058 -107.434377 
L 351.193595 -107.396179 
L 351.497452 -106.818067 
L 351.801511 -107.095668 
L 352.104962 -106.335214 
L 352.408311 -106.56418 
L 352.710747 -106.335214 
L 353.025053 -107.396179 
L 353.326271 -109.676303 
L 353.628809 -109.676303 
L 353.933071 -108.822721 
L 354.242913 -107.719138 
L 354.541088 -107.396179 
L 354.847988 -107.396179 
L 355.151845 -106.56418 
L 355.45215 -106.56418 
L 355.764731 -106.335214 
L 356.06037 -106.56418 
L 356.366864 -108.822721 
L 356.670822 -109.237051 
L 356.9762 -109.676303 
L 357.276404 -108.007021 
L 357.592841 -106.529367 
L 357.884929 -103.161708 
L 358.19193 -104.009212 
L 358.501772 -104.853019 
L 358.799947 -103.577497 
L 359.109485 -105.334149 
L 359.417298 -107.396179 
L 359.714053 -107.396179 
L 360.023793 -107.095668 
L 360.325722 -105.914542 
L 360.626738 -106.177811 
L 360.929377 -107.095668 
L 361.236479 -107.719138 
L 361.541756 -106.56418 
L 361.850787 -106.335214 
L 362.152817 -106.335214 
L 362.451398 -106.56418 
L 362.760733 -106.56418 
L 363.065603 -106.818067 
L 363.363068 -107.396179 
L 363.363068 -117.39715 
L 363.363068 -117.39715 
L 363.065603 -116.638825 
L 362.760733 -116.224495 
L 362.451398 -116.224495 
L 362.152817 -115.785243 
L 361.850787 -115.785243 
L 361.541756 -116.224495 
L 361.236479 -117.742408 
L 360.929377 -117.029442 
L 360.626738 -117.279082 
L 360.325722 -116.874132 
L 360.023793 -117.029442 
L 359.714053 -117.39715 
L 359.417298 -117.39715 
L 359.109485 -117.454525 
L 358.799947 -117.206523 
L 358.501772 -116.599219 
L 358.19193 -120.115899 
L 357.884929 -121.63162 
L 357.592841 -121.605052 
L 357.276404 -120.127397 
L 356.9762 -119.126333 
L 356.670822 -118.897367 
L 356.366864 -118.643479 
L 356.06037 -116.224495 
L 355.764731 -115.785243 
L 355.45215 -116.224495 
L 355.151845 -116.224495 
L 354.847988 -117.39715 
L 354.541088 -117.39715 
L 354.242913 -117.742408 
L 353.933071 -118.643479 
L 353.628809 -119.126333 
L 353.326271 -119.126333 
L 353.025053 -117.39715 
L 352.710747 -115.785243 
L 352.408311 -116.224495 
L 352.104962 -115.785243 
L 351.801511 -117.029442 
L 351.497452 -116.638825 
L 351.193595 -117.39715 
L 350.891058 -118.695387 
L 350.588723 -120.914301 
L 350.27878 -120.007578 
L 349.978677 -119.328666 
L 349.668125 -119.788664 
L 349.364877 -120.378041 
L 349.068021 -120.127397 
L 348.762745 -118.897367 
L 348.460917 -119.328666 
L 348.151379 -119.643013 
L 347.850161 -119.643013 
L 347.537072 -119.813229 
L 347.235651 -119.747062 
L 346.939505 -119.643013 
L 346.62875 -119.501993 
L 346.325705 -119.126333 
L 346.018703 -118.643479 
L 345.711905 -118.897367 
L 345.414034 -119.126333 
L 345.110077 -119.501993 
L 344.798408 -119.643013 
L 344.499726 -119.501993 
L 344.193638 -119.328666 
L 343.893332 -119.328666 
L 343.586432 -117.39715 
L 343.284402 -115.785243 
L 342.979633 -114.824467 
L 342.67324 -114.824467 
L 342.362687 -115.785243 
L 342.060657 -119.261681 
L 341.756192 -119.857419 
L 341.459742 -119.283736 
L 341.153045 -118.365878 
L 340.841985 -116.224495 
L 340.542491 -115.319358 
L 340.242896 -115.785243 
L 339.932648 -117.39715 
L 339.625545 -117.742408 
L 339.328182 -118.365878 
L 339.015296 -118.643479 
L 338.714179 -118.643479 
L 338.41499 -119.126333 
L 338.106365 -119.126333 
L 337.801291 -119.328666 
L 337.504942 -118.897367 
L 337.198245 -118.643479 
L 336.884142 -117.029442 
L 336.584141 -117.852765 
L 336.279473 -117.029442 
L 335.981095 -118.065368 
L 335.67592 -119.126333 
L 335.362222 -119.643013 
L 335.063946 -119.501993 
L 334.759278 -119.643013 
L 334.460089 -119.747062 
L 334.146087 -119.501993 
L 333.847405 -118.365878 
L 333.546287 -116.224495 
L 333.232996 -116.224495 
L 332.928937 -116.224495 
L 332.631066 -116.638825 
L 332.322137 -117.39715 
L 332.026803 -119.126333 
L 331.710975 -119.126333 
L 331.405901 -118.643479 
L 331.100827 -118.365878 
L 330.80042 -119.547004 
L 330.492607 -119.283736 
L 330.198693 -117.742408 
L 329.893924 -117.39715 
L 329.588241 -118.065368 
L 329.286414 -118.065368 
L 328.971803 -118.065368 
L 328.66886 -118.371182 
L 328.363583 -119.261681 
L 328.057292 -120.089518 
L 327.756581 -120.656868 
L 327.456478 -121.153451 
L 327.145317 -120.817765 
L 326.842983 -120.370532 
L 326.544808 -122.918402 
L 326.233038 -122.888094 
L 325.930805 -121.486619 
L 325.623398 -119.813229 
L 325.326947 -119.574433 
L 325.016598 -119.643013 
L 324.71264 -119.126333 
L 324.412639 -118.643479 
L 324.109696 -119.328666 
L 323.804115 -119.501993 
L 323.498331 -119.126333 
L 323.193561 -118.643479 
L 322.893865 -118.065368 
L 322.587167 -120.656868 
L 322.28392 -121.655598 
L 321.97357 -122.777867 
L 321.666873 -122.959696 
L 321.371945 -122.455006 
L 321.05774 -119.643013 
L 320.754087 -119.643013 
L 320.454694 -119.643013 
L 320.14678 -119.747062 
L 319.844953 -119.747062 
L 319.535922 -119.747062 
L 319.240486 -119.126333 
L 318.932065 -116.638825 
L 318.630947 -114.297269 
L 318.317351 -116.140239 
L 318.023742 -113.7331 
L 317.718973 -115.319358 
L 317.409739 -117.029442 
L 317.100607 -120.381785 
L 316.803244 -121.373492 
L 316.495532 -119.643013 
L 316.196647 -119.643013 
L 315.888124 -119.328666 
L 315.589036 -118.065368 
L 315.280005 -117.39715 
L 314.969757 -116.638825 
L 314.669858 -115.785243 
L 314.369857 -116.638825 
L 314.067826 -119.643013 
L 313.757984 -119.813229 
L 313.456664 -120.707406 
L 313.144996 -120.707406 
L 312.839618 -120.616237 
L 312.548443 -119.328666 
L 312.231601 -118.643479 
L 311.935658 -117.39715 
L 311.632714 -117.39715 
L 311.322771 -119.261681 
L 311.020233 -120.867716 
L 310.718507 -122.980544 
L 310.408361 -123.226176 
L 310.099736 -124.136705 
L 309.799634 -122.486101 
L 309.49111 -119.875749 
L 309.190805 -117.742408 
L 308.891108 -117.742408 
L 308.580454 -117.742408 
L 308.278424 -117.742408 
L 307.973249 -119.813229 
L 307.668987 -119.643013 
L 307.361985 -118.365878 
L 307.061274 -118.065368 
L 306.757012 -118.065368 
L 306.45275 -118.065368 
L 306.154778 -118.065368 
L 305.842703 -119.788664 
L 305.540572 -119.547004 
L 305.232556 -121.153451 
L 304.931642 -124.714582 
L 304.623524 -126.02154 
L 304.319465 -124.642586 
L 304.016522 -124.07933 
L 303.718347 -123.543306 
L 303.404446 -122.906675 
L 303.108301 -121.406458 
L 302.800082 -119.328666 
L 302.495109 -119.126333 
L 302.194804 -119.126333 
L 301.892469 -118.897367 
L 301.584352 -119.643013 
L 301.277858 -121.301496 
L 300.971465 -122.20687 
L 300.669739 -122.137777 
L 300.363245 -121.751716 
L 300.057461 -121.573364 
L 299.75888 -120.817765 
L 299.452589 -120.817765 
L 299.142544 -122.094172 
L 298.848833 -122.777867 
L 298.541121 -123.6029 
L 298.230366 -122.888094 
L 297.932191 -121.476894 
L 297.625291 -121.406458 
L 297.317782 -120.616237 
L 297.015854 -119.747062 
L 296.715751 -119.747062 
L 296.403778 -119.747062 
L 296.105806 -119.747062 
L 295.795863 -122.036477 
L 295.493731 -121.751716 
L 295.191701 -121.153451 
L 294.889975 -118.371182 
L 294.587032 -118.695387 
L 294.27861 -119.283736 
L 293.97658 -118.643479 
L 293.664911 -118.643479 
L 293.363287 -118.365878 
L 293.061561 -118.365878 
L 292.754966 -118.365878 
L 292.458617 -117.742408 
L 292.144311 -118.365878 
L 291.845121 -117.39715 
L 291.539439 -116.224495 
L 291.23051 -114.297269 
L 290.931827 -113.7331 
L 290.625942 -113.125135 
L 290.316506 -113.7331 
L 290.013359 -113.7331 
L 289.707778 -115.785243 
L 289.409502 -117.39715 
L 289.102501 -118.643479 
L 288.804427 -119.283736 
L 288.494382 -118.999678 
L 288.186975 -120.007578 
L 287.893162 -120.007578 
L 287.5889 -119.788664 
L 287.280377 -118.936572 
L 286.969419 -119.454587 
L 286.670331 -120.386172 
L 286.369112 -120.386172 
L 286.063835 -121.751716 
L 285.755312 -121.655598 
L 285.455615 -119.747062 
L 285.146991 -119.747062 
L 284.840598 -119.747062 
L 284.53735 -120.330405 
L 284.235726 -121.402389 
L 283.933797 -120.616237 
L 283.62497 -119.501993 
L 283.318374 -119.126333 
L 283.018271 -119.328666 
L 282.71269 -117.39715 
L 282.406602 -116.638825 
L 282.104876 -120.867716 
L 281.804469 -123.672403 
L 281.492497 -123.238482 
L 281.196046 -121.373492 
L 280.881639 -119.501993 
L 280.577174 -119.207531 
L 280.273114 -117.742408 
L 279.967939 -117.742408 
L 279.666315 -120.509785 
L 279.366415 -121.004332 
L 279.054848 -120.608527 
L 278.758702 -121.153451 
L 278.450889 -119.56871 
L 278.145004 -118.371182 
L 277.839321 -118.897367 
L 277.539827 -118.365878 
L 277.23871 -119.126333 
L 276.932318 -119.501993 
L 276.628969 -119.747062 
L 276.325214 -119.747062 
L 276.02014 -119.813229 
L 275.710805 -119.574433 
L 275.403093 -119.747062 
L 275.098425 -119.747062 
L 274.796699 -119.207531 
L 274.492539 -119.747062 
L 274.188682 -119.747062 
L 273.887768 -119.747062 
L 273.578738 -120.509785 
L 273.278432 -123.997958 
L 272.973155 -123.261628 
L 272.662806 -121.751716 
L 272.360979 -121.906826 
L 272.06321 -122.20687 
L 271.753875 -122.137777 
L 271.457729 -122.238457 
L 271.148495 -119.574433 
L 270.847784 -119.207531 
L 270.544029 -119.207531 
L 270.231143 -119.813229 
L 269.934389 -121.004332 
L 269.625257 -121.573364 
L 269.318255 -121.906826 
L 269.015921 -121.301496 
L 268.71247 -119.574433 
L 268.408715 -117.742408 
L 268.103033 -117.742408 
L 267.8008 -119.813229 
L 267.488726 -119.643013 
L 267.184463 -119.643013 
L 266.884767 -120.370532 
L 266.580302 -120.007578 
L 266.281619 -121.884049 
L 265.972995 -123.029825 
L 265.671675 -122.804718 
L 265.359499 -123.029825 
L 265.05544 -121.153451 
L 264.751279 -119.747062 
L 264.449147 -119.207531 
L 264.149654 -119.207531 
L 263.844073 -119.207531 
L 263.53839 -117.742408 
L 263.232809 -119.747062 
L 262.927126 -119.643013 
L 262.62327 -119.328666 
L 262.316066 -119.501993 
L 262.012108 -119.643013 
L 261.714947 -119.501993 
L 261.402163 -119.261681 
L 261.099727 -120.26181 
L 260.801451 -119.935452 
L 260.492319 -120.115899 
L 260.192318 -118.377131 
L 259.882374 -118.999678 
L 259.578822 -118.897367 
L 259.273748 -118.897367 
L 258.971414 -119.643013 
L 258.673239 -119.574433 
L 258.359338 -117.742408 
L 258.060961 -119.574433 
L 257.757104 -117.742408 
L 257.446349 -120.910869 
L 257.145739 -120.910869 
L 256.83752 -121.486619 
L 256.540461 -119.807315 
L 256.229706 -119.813229 
L 255.931633 -119.813229 
L 255.619558 -119.813229 
L 255.325036 -121.486619 
L 255.010121 -125.048058 
L 254.711743 -126.719236 
L 254.401799 -127.66956 
L 254.100784 -127.66956 
L 253.794695 -125.794352 
L 253.490535 -119.807315 
L 253.188505 -119.747062 
L 252.883837 -119.328666 
L 252.585763 -119.126333 
L 252.281805 -119.788664 
L 251.976123 -119.501993 
L 251.662324 -119.747062 
L 251.362931 -122.154837 
L 251.059582 -122.00909 
L 250.755016 -122.154837 
L 250.457145 -122.906675 
L 250.148318 -125.266282 
L 249.836142 -124.136705 
L 249.534416 -123.556312 
L 249.235531 -124.73079 
L 248.934718 -124.589605 
L 248.623456 -124.714582 
L 248.319701 -124.666176 
L 248.016149 -122.888094 
L 247.708539 -120.707406 
L 247.405088 -119.813229 
L 247.107218 -119.207531 
L 246.800419 -117.742408 
L 246.488649 -119.875749 
L 246.189257 -119.875749 
L 245.886314 -120.330405 
L 245.57495 -119.813229 
L 245.278804 -121.506647 
L 244.967846 -122.20687 
L 244.665511 -120.656868 
L 244.361959 -119.56871 
L 244.054755 -118.065368 
L 243.752623 -118.365878 
L 243.454854 -118.999678 
L 243.140041 -120.378041 
L 242.838315 -123.6029 
L 242.542169 -123.888703 
L 242.232631 -123.12148 
L 241.928978 -121.906826 
L 241.62431 -120.370532 
L 241.317917 -120.202216 
L 241.015887 -122.777867 
L 240.716291 -122.804718 
L 240.408377 -123.672403 
L 240.106042 -124.363588 
L 239.795287 -125.062369 
L 239.491025 -126.145808 
L 239.18798 -125.378042 
L 238.88108 -123.42985 
L 238.575398 -124.289858 
L 238.271744 -124.083794 
L 237.973772 -121.409647 
L 237.661901 -120.381785 
L 237.359465 -121.153451 
L 237.063826 -121.884049 
L 236.751752 -119.547004 
L 236.444243 -118.643479 
L 236.142315 -118.065368 
L 235.836531 -118.065368 
L 235.533993 -119.56871 
L 235.236123 -120.089518 
L 234.933484 -120.381785 
L 234.626584 -121.153451 
L 234.322119 -122.094172 
L 234.01603 -121.153451 
L 233.707406 -119.547004 
L 233.4001 -119.788664 
L 233.105374 -120.608527 
L 232.799083 -119.788664 
L 232.491879 -121.884049 
L 232.186906 -121.573364 
L 231.88163 -120.608527 
L 231.576353 -121.884049 
L 231.271685 -120.202216 
L 230.971379 -121.406458 
L 230.66661 -122.486101 
L 230.356362 -122.486101 
L 230.059607 -119.875749 
L 229.756969 -117.742408 
L 229.44875 -119.875749 
L 229.148241 -117.742408 
L 228.836269 -119.207531 
L 228.537181 -119.747062 
L 228.238093 -119.807315 
L 227.929975 -119.813229 
L 227.621959 -121.751716 
L 227.318914 -126.662095 
L 227.016986 -127.420419 
L 226.711202 -124.847737 
L 226.400142 -117.742408 
L 226.10288 -117.742408 
L 225.791516 -119.807315 
L 225.495776 -119.813229 
L 225.187354 -119.643013 
L 224.878324 -121.406458 
L 224.584613 -123.529346 
L 224.275481 -122.486101 
L 223.972436 -122.486101 
L 223.667058 -121.751716 
L 223.36797 -120.910869 
L 223.055693 -122.154837 
L 222.755185 -123.529346 
L 222.443618 -124.714582 
L 222.145341 -124.714582 
L 221.837224 -124.714582 
L 221.530527 -123.556312 
L 221.228902 -123.529346 
L 220.922611 -122.888094 
L 220.618247 -122.888094 
L 220.314695 -123.529346 
L 220.015405 -124.136705 
L 219.713476 -124.714582 
L 219.400489 -124.158854 
L 219.106879 -124.142431 
L 218.795414 -122.00909 
L 218.49176 -119.875749 
L 218.19115 -122.00909 
L 217.878062 -123.543306 
L 217.58222 -124.946141 
L 217.280596 -124.809372 
L 216.966493 -124.218452 
L 216.669637 -124.487942 
L 216.35949 -122.602771 
L 216.053605 -121.906826 
L 215.758676 -121.166383 
L 215.446805 -119.747062 
L 215.147615 -122.906675 
L 214.833715 -123.957327 
L 214.531482 -124.07933 
L 214.235336 -124.158854 
L 213.932089 -124.714582 
L 213.616666 -128.540135 
L 213.314636 -127.707351 
L 213.014331 -127.24779 
L 212.703575 -126.77094 
L 212.405096 -125.225139 
L 212.105602 -122.726136 
L 211.798398 -119.813229 
L 211.48673 -119.574433 
L 211.185004 -119.813229 
L 210.882162 -120.684655 
L 210.578306 -121.476894 
L 210.272826 -120.910869 
L 209.973738 -121.402389 
L 209.666331 -119.747062 
L 209.359126 -124.142431 
L 209.052632 -125.275643 
L 208.748066 -125.275643 
L 208.449688 -125.796096 
L 208.140454 -125.761024 
L 207.835989 -122.224951 
L 207.535684 -121.402389 
L 207.233755 -119.747062 
L 206.930507 -119.807315 
L 206.622593 -119.747062 
L 206.316809 -119.501993 
L 206.014576 -119.501993 
L 205.711328 -119.501993 
L 205.40595 -120.370532 
L 205.103717 -121.406458 
L 204.798643 -121.301496 
L 204.492656 -121.406458 
L 204.186771 -120.672654 
L 203.878349 -119.574433 
L 203.574391 -119.747062 
L 203.268709 -122.906675 
L 202.970229 -124.714582 
L 202.664445 -125.225139 
L 202.362009 -124.487942 
L 202.051558 -122.726136 
L 201.75034 -119.747062 
L 201.447599 -119.813229 
L 201.140598 -117.742408 
L 200.837147 -117.742408 
L 200.530146 -117.742408 
L 200.224362 -117.742408 
L 199.921622 -120.560277 
L 199.626287 -120.560277 
L 199.317663 -119.813229 
L 199.019082 -120.370532 
L 198.70295 -122.094172 
L 198.401528 -123.238482 
L 198.104368 -126.707493 
L 197.795743 -128.200669 
L 197.487626 -128.02882 
L 197.190059 -127.707351 
L 196.88529 -127.229793 
L 196.58255 -126.247765 
L 196.268243 -126.247765 
L 195.97088 -126.02154 
L 195.660125 -124.320539 
L 195.35779 -123.148405 
L 195.052209 -123.148405 
L 194.757382 -123.148405 
L 194.441656 -123.148405 
L 194.144191 -123.148405 
L 193.834653 -123.75637 
L 193.528971 -124.847737 
L 193.233535 -124.847737 
L 192.923389 -125.048058 
L 192.616184 -125.175691 
L 192.314458 -126.25089 
L 192.008979 -126.719236 
L 191.714253 -122.486101 
L 191.406846 -121.751716 
L 191.100961 -117.742408 
L 190.799235 -117.742408 
L 190.495074 -117.742408 
L 190.188681 -120.910869 
L 189.880259 -120.684655 
L 189.578635 -119.747062 
L 189.268691 -121.486619 
L 188.972444 -120.330405 
L 188.658645 -119.207531 
L 188.356919 -119.574433 
L 188.061788 -119.574433 
L 187.753975 -119.574433 
L 187.447177 -119.747062 
L 187.141798 -120.509785 
L 186.838043 -122.036477 
L 186.538347 -121.751716 
L 186.232867 -123.75637 
L 185.927286 -124.809372 
L 185.616632 -127.070688 
L 185.318457 -128.669576 
L 185.007905 -128.200669 
L 184.701715 -123.6029 
L 184.399888 -120.007578 
L 184.104148 -119.643013 
L 183.799074 -120.616237 
L 183.496029 -122.238457 
L 183.182332 -123.75637 
L 182.882432 -125.342628 
L 182.575025 -126.662095 
L 182.273299 -125.342628 
L 181.965892 -125.342628 
L 181.66305 -125.342628 
L 181.356759 -127.477795 
L 181.053511 -124.847737 
L 180.747118 -123.75637 
L 180.443363 -123.543306 
L 180.142551 -124.142431 
L 179.838593 -123.148405 
L 179.536766 -122.486101 
L 179.236257 -120.910869 
L 178.919719 -124.320539 
L 178.618906 -125.808513 
L 178.321137 -128.666749 
L 178.010078 -129.351936 
L 177.710077 -128.666749 
L 177.397089 -128.666749 
L 177.093233 -127.686512 
L 176.791913 -125.808513 
L 176.495057 -126.247765 
L 176.185113 -124.320539 
L 175.885721 -123.75637 
L 175.581154 -123.148405 
L 175.274965 -123.148405 
L 174.97334 -124.847737 
L 174.661672 -124.847737 
L 174.356598 -123.75637 
L 174.051626 -126.247765 
L 173.74574 -128.088637 
L 173.448783 -127.765678 
L 173.139143 -129.149603 
L 172.839853 -129.149603 
L 172.529402 -128.389148 
L 172.225038 -128.088637 
L 171.924225 -128.050439 
L 171.624224 -122.486101 
L 171.314686 -122.486101 
L 171.007279 -121.751716 
L 170.70393 -120.910869 
L 170.406871 -117.742408 
L 170.097333 -117.742408 
L 169.795607 -123.148405 
L 169.485055 -127.052712 
L 169.179677 -129.351936 
L 168.880285 -129.666283 
L 168.578965 -129.770332 
L 168.27521 -129.597703 
L 167.964657 -129.597703 
L 167.664352 -129.666283 
L 167.363438 -127.765678 
L 167.059175 -123.148405 
L 166.75187 -122.486101 
L 166.450753 -124.847737 
L 166.145273 -126.662095 
L 165.842127 -126.662095 
L 165.528734 -127.686512 
L 165.229443 -124.847737 
L 164.91889 -121.751716 
L 164.617976 -123.148405 
L 164.311989 -124.847737 
L 164.010669 -124.847737 
L 163.710668 -125.342628 
L 163.399609 -126.247765 
L 163.100419 -128.088637 
L 162.791084 -127.420419 
L 162.483373 -127.596481 
L 162.187835 -127.66956 
L 161.874442 -127.876035 
L 161.57992 -127.052712 
L 161.270686 -127.052712 
L 160.964091 -127.765678 
L 160.666829 -125.808513 
L 160.359432 -127.060221 
L 160.054926 -126.02154 
L 159.751273 -123.75637 
L 159.446615 -122.486101 
L 159.142282 -123.75637 
L 158.835899 -126.662095 
L 158.53884 -126.662095 
L 158.234598 -127.765678 
L 157.918182 -128.088637 
L 157.616253 -128.666749 
L 157.313411 -130.639506 
L 157.012406 -129.525263 
L 156.700484 -129.666283 
L 156.399133 -129.666283 
L 156.095257 -130.225486 
L 155.788793 -129.351936 
L 155.483232 -129.666283 
L 155.178818 -129.666283 
L 154.876635 -129.149603 
L 154.580652 -128.389148 
L 154.267502 -128.666749 
L 153.964092 -129.351936 
L 153.659343 -129.666283 
L 153.362294 -129.830585 
L 153.049571 -130.225486 
L 152.753385 -129.830585 
L 152.443715 -129.830585 
L 152.138753 -132.866352 
L 151.836022 -132.866352 
L 151.535098 -133.491757 
L 151.223227 -133.401416 
L 150.927791 -134.511211 
L 150.624117 -134.386857 
L 150.310998 -134.386857 
L 150.013107 -133.144749 
L 149.702951 -131.596633 
L 149.402757 -128.389148 
L 149.092996 -130.030848 
L 148.788947 -129.836498 
L 148.495682 -130.695924 
L 148.178616 -132.178107 
L 147.885616 -131.500163 
L 147.571868 -132.23014 
L 147.273591 -132.23014 
L 146.96451 -129.770332 
L 146.660562 -129.666283 
L 146.360916 -130.225486 
L 146.055954 -130.225486 
L 145.751672 -129.770332 
L 145.444863 -129.830585 
L 145.138379 -131.509889 
L 144.837759 -130.934139 
L 144.532421 -133.380797 
L 144.223675 -132.50937 
L 143.924729 -132.50937 
L 143.612604 -131.774986 
L 143.309793 -132.50937 
L 143.003866 -133.171675 
L 142.702577 -132.50937 
L 142.405985 -134.343809 
L 142.094651 -134.871006 
L 141.791566 -138.111907 
L 141.486614 -138.690019 
L 141.182362 -137.788948 
L 140.88025 -137.443689 
L 140.577368 -136.685365 
L 140.265142 -132.866352 
L 139.962746 -132.178107 
L 139.664044 -133.504817 
L 139.353491 -134.102599 
L 139.051289 -134.343809 
L 138.747909 -134.343809 
L 138.445088 -135.571229 
L 138.139851 -134.343809 
L 137.844111 -137.443689 
L 137.533346 -139.548532 
L 137.227227 -140.248755 
L 136.922884 -138.943906 
L 136.613843 -138.741926 
L 136.315658 -137.501065 
L 136.003503 -135.705128 
L 135.709102 -132.929944 
L 135.404109 -134.159975 
L 135.097605 -135.784294 
L 134.788331 -135.365898 
L 134.492003 -136.685365 
L 134.180456 -137.709782 
L 133.876569 -140.703408 
L 133.577633 -141.193391 
L 133.270977 -139.615249 
L 132.966674 -138.983112 
L 132.662229 -138.278813 
L 132.358535 -137.899305 
L 132.05337 -134.102599 
L 131.752902 -133.401416 
L 131.438474 -134.612875 
L 131.136759 -134.241722 
L 130.840593 -134.386857 
L 130.531917 -132.478276 
L 130.225585 -133.62617 
L 129.92596 -135.179429 
L 129.620592 -134.737852 
L 129.315203 -136.79421 
L 129.008344 -137.27106 
L 128.704853 -137.443689 
L 128.394402 -138.412418 
L 128.09508 -138.690019 
L 127.795242 -137.788948 
L 127.491324 -137.443689 
L 127.18618 -137.443689 
L 126.876611 -137.075982 
L 126.568656 -137.443689 
L 126.267093 -138.111907 
L 125.961573 -138.943906 
L 125.662383 -139.172872 
L 125.354124 -140.864304 
L 125.048928 -143.308168 
L 124.74495 -142.083016 
L 124.43944 -142.889622 
L 124.136263 -143.589845 
L 123.833016 -142.934633 
L 123.533826 -140.731194 
L 123.221813 -139.859768 
L 122.920138 -139.853855 
L 122.620482 -138.412418 
L 122.315398 -136.685365 
L 122.011602 -135.831782 
L 121.70389 -135.831782 
L 121.399953 -136.494113 
L 121.089735 -135.365898 
L 120.795111 -131.774986 
L 120.49088 -131.774986 
L 120.184091 -135.365898 
L 119.879413 -137.075982 
L 119.575465 -139.548532 
L 119.27101 -139.689552 
L 118.970482 -139.853855 
L 118.660437 -139.689552 
L 118.358376 -139.793601 
L 118.050959 -140.864304 
L 117.750958 -140.662776 
L 117.439847 -139.254071 
L 117.133181 -140.957408 
L 116.832479 -141.798255 
L 116.526756 -144.003866 
L 116.224493 -142.53264 
L 115.920738 -142.53264 
L 115.611738 -140.606816 
L 115.312772 -142.27149 
L 115.005608 -144.761121 
L 114.699124 -144.183245 
L 114.394527 -145.22223 
L 114.098036 -143.194945 
L 113.789097 -141.798255 
L 113.486742 -142.53264 
L 113.185341 -143.194945 
L 112.872526 -146.294304 
L 112.567614 -145.389168 
L 112.27159 -146.068079 
L 111.962884 -146.943941 
L 111.656877 -146.294304 
L 111.360102 -148.096978 
L 111.050656 -149.927228 
L 110.744385 -150.451594 
L 110.438489 -148.435688 
L 110.139594 -148.713289 
L 109.838467 -148.435688 
L 109.528767 -148.135177 
L 109.219442 -149.712822 
L 108.915535 -152.308266 
L 108.618608 -151.976635 
L 108.311363 -154.784391 
L 108.012731 -155.830833 
L 107.701104 -156.091349 
L 107.402675 -159.661789 
L 107.093269 -160.47112 
L 106.788835 -158.464261 
L 106.489696 -155.878322 
L 106.186864 -154.149139 
L 105.876342 -153.599155 
L 105.568823 -154.659414 
L 105.267463 -157.739369 
L 104.966508 -158.120248 
L 104.663108 -159.329258 
L 104.350233 -159.881743 
L 104.050485 -160.910844 
L 103.751143 -163.354707 
L 103.438704 -165.155448 
L 103.136065 -165.359361 
L 102.830312 -165.889175 
L 102.529925 -165.641039 
L 102.221625 -164.413618 
L 101.921634 -164.940816 
L 101.618082 -165.435707 
L 101.312562 -163.849449 
L 101.006859 -161.495468 
L 100.706959 -164.759255 
L 100.402129 -165.340995 
L 100.095939 -166.715568 
L 99.786604 -167.39543 
L 99.491331 -171.03065 
L 99.179064 -173.377977 
L 98.879256 -174.275203 
L 98.568896 -175.877373 
L 98.270934 -182.412367 
L 97.965576 -185.570709 
L 97.659762 -188.956898 
L 97.35412 -189.085483 
L 97.045982 -189.403754 
L 96.740959 -189.159998 
L 96.445868 -190.414207 
L 96.140835 -192.214267 
L 95.836126 -192.13466 
L 95.534086 -191.378977 
L 95.219638 -191.038288 
L 94.922041 -191.44225 
L 94.614391 -192.883453 
L 94.310473 -195.429171 
L 94.010716 -196.950064 
L 93.70619 -199.504102 
L 93.396581 -202.115953 
L 93.089985 -204.656721 
L 92.783887 -202.632778 
L 92.484373 -205.619037 
L 92.182627 -208.10164 
L 91.871892 -209.406845 
L 91.572682 -209.541585 
L 91.270997 -213.555912 
L 90.962869 -214.51032 
L 90.659946 -218.919372 
L 90.355187 -219.97976 
L 90.049484 -221.399537 
L 89.744917 -219.607512 
L 89.443942 -218.50919 
L 89.134658 -217.544839 
L 88.828255 -218.058447 
L 88.533022 -216.926315 
L 88.221314 -215.912761 
L 87.922114 -216.202979 
L 87.617213 -215.5313 
L 87.305859 -216.525085 
L 87.009713 -217.372274 
L 86.701464 -221.707924 
L 86.401787 -224.236678 
L 86.091499 -226.226249 
L 85.788931 -223.748876 
L 85.482355 -223.105202 
L 85.181989 -223.008791 
L 84.871112 -224.866438 
L 84.570401 -221.537498 
L 84.27046 -216.655365 
L 83.965884 -217.476199 
L 83.660627 -219.195987 
L 83.357228 -217.51604 
L 83.044382 -217.331619 
L 82.741936 -217.544839 
L 82.438161 -215.57008 
L 82.139469 -216.486009 
L 81.828693 -215.987147 
L 81.530244 -217.056059 
L 81.218018 -219.954526 
L 80.918656 -220.877384 
L 80.614211 -224.261112 
L 80.312942 -222.776823 
L 80.003891 -224.509497 
L 79.707086 -227.744847 
L 79.392009 -228.553009 
L 79.088355 -230.034825 
L 78.791925 -234.809836 
L 78.480135 -236.11092 
L 78.185613 -234.107581 
L 77.879291 -237.62114 
L 77.565837 -238.211706 
L 77.262528 -241.017181 
L 76.962 -238.049471 
L 76.656216 -240.45805 
L 76.357777 -247.561602 
L 76.049781 -247.423056 
L 75.740659 -248.96358 
L 75.442271 -247.322738 
L 75.139693 -244.777889 
L 74.834051 -243.877276 
L 74.529272 -242.373409 
L 74.224807 -243.185912 
L 73.913493 -245.961095 
L 73.609708 -249.241529 
L 73.305892 -244.615349 
L 73.000737 -247.532013 
L 72.705758 -251.013896 
L 72.394891 -249.081148 
L 72.095732 -251.856831 
L 71.788751 -249.592425 
L 71.478676 -247.848058 
L 71.176666 -247.052412 
L 70.876442 -248.473637 
L 70.567695 -251.546824 
L 70.265239 -251.880319 
L 69.957872 -249.110937 
L 69.655162 -250.797112 
L 69.352178 -248.593037 
L 69.045327 -251.258932 
L 68.746479 -245.961095 
L 68.439894 -245.010027 
L 68.131413 -244.415942 
L 67.834737 -250.609443 
L 67.525146 -248.371064 
L 67.225163 -248.534781 
L 66.912989 -247.331949 
L 66.613502 -248.945986 
L 66.304992 -249.631173 
L 66.007699 -249.199874 
L 65.7027 -249.631173 
L 65.392155 -249.87694 
L 65.091835 -248.044915 
L 64.789247 -248.044915 
L 64.482156 -248.044915 
L 64.178753 -248.044915 
L 63.8783 -248.044915 
L 63.568115 -248.044915 
L 63.267275 -248.044915 
L 62.956407 -248.044915 
L 62.655567 -248.044915 
L 62.354726 -248.044915 
L 62.043859 -248.044915 
L 61.740212 -248.044915 
L 61.437215 -248.044915 
L 61.139355 -248.044915 
L 60.826554 -248.044915 
L 60.523157 -248.044915 
L 60.229719 -248.044915 
L 59.920166 -248.044915 
L 59.63366 -248.044915 
L 59.323885 -248.044915 
L 58.999432 -248.044915 
z
" style="stroke: #1f77b4; stroke-opacity: 0.3"/>
    </defs>
    <g clip-path="url(#pafa3799b5b)">
     <use xlink:href="#m60f214bdbd" x="0" y="266.51625" style="fill: #1f77b4; fill-opacity: 0.3; stroke: #1f77b4; stroke-opacity: 0.3"/>
    </g>
   </g>
   <g id="matplotlib.axis_1">
    <g id="xtick_1">
     <g id="line2d_1">
      <path d="M 58.999432 228.96 
L 58.999432 7.2 
" clip-path="url(#pafa3799b5b)" style="fill: none; stroke: #b0b0b0; stroke-width: 0.8; stroke-linecap: square"/>
     </g>
     <g id="line2d_2">
      <defs>
       <path id="m26636b81c2" d="M 0 0 
L 0 3.5 
" style="stroke: #000000; stroke-width: 0.8"/>
      </defs>
      <g>
       <use xlink:href="#m26636b81c2" x="58.999432" y="228.96" style="stroke: #000000; stroke-width: 0.8"/>
      </g>
     </g>
     <g id="text_1">
      <!-- 0 -->
      <g transform="translate(55.818182 243.558437) scale(0.1 -0.1)">
       <defs>
        <path id="DejaVuSans-30" d="M 2034 4250 
Q 1547 4250 1301 3770 
Q 1056 3291 1056 2328 
Q 1056 1369 1301 889 
Q 1547 409 2034 409 
Q 2525 409 2770 889 
Q 3016 1369 3016 2328 
Q 3016 3291 2770 3770 
Q 2525 4250 2034 4250 
z
M 2034 4750 
Q 2819 4750 3233 4129 
Q 3647 3509 3647 2328 
Q 3647 1150 3233 529 
Q 2819 -91 2034 -91 
Q 1250 -91 836 529 
Q 422 1150 422 2328 
Q 422 3509 836 4129 
Q 1250 4750 2034 4750 
z
" transform="scale(0.015625)"/>
       </defs>
       <use xlink:href="#DejaVuSans-30"/>
      </g>
     </g>
    </g>
    <g id="xtick_2">
     <g id="line2d_3">
      <path d="M 109.726705 228.96 
L 109.726705 7.2 
" clip-path="url(#pafa3799b5b)" style="fill: none; stroke: #b0b0b0; stroke-width: 0.8; stroke-linecap: square"/>
     </g>
     <g id="line2d_4">
      <g>
       <use xlink:href="#m26636b81c2" x="109.726705" y="228.96" style="stroke: #000000; stroke-width: 0.8"/>
      </g>
     </g>
     <g id="text_2">
      <!-- 50 -->
      <g transform="translate(103.364205 243.558437) scale(0.1 -0.1)">
       <defs>
        <path id="DejaVuSans-35" d="M 691 4666 
L 3169 4666 
L 3169 4134 
L 1269 4134 
L 1269 2991 
Q 1406 3038 1543 3061 
Q 1681 3084 1819 3084 
Q 2600 3084 3056 2656 
Q 3513 2228 3513 1497 
Q 3513 744 3044 326 
Q 2575 -91 1722 -91 
Q 1428 -91 1123 -41 
Q 819 9 494 109 
L 494 744 
Q 775 591 1075 516 
Q 1375 441 1709 441 
Q 2250 441 2565 725 
Q 2881 1009 2881 1497 
Q 2881 1984 2565 2268 
Q 2250 2553 1709 2553 
Q 1456 2553 1204 2497 
Q 953 2441 691 2322 
L 691 4666 
z
" transform="scale(0.015625)"/>
       </defs>
       <use xlink:href="#DejaVuSans-35"/>
       <use xlink:href="#DejaVuSans-30" x="63.623047"/>
      </g>
     </g>
    </g>
    <g id="xtick_3">
     <g id="line2d_5">
      <path d="M 160.453977 228.96 
L 160.453977 7.2 
" clip-path="url(#pafa3799b5b)" style="fill: none; stroke: #b0b0b0; stroke-width: 0.8; stroke-linecap: square"/>
     </g>
     <g id="line2d_6">
      <g>
       <use xlink:href="#m26636b81c2" x="160.453977" y="228.96" style="stroke: #000000; stroke-width: 0.8"/>
      </g>
     </g>
     <g id="text_3">
      <!-- 100 -->
      <g transform="translate(150.910227 243.558437) scale(0.1 -0.1)">
       <defs>
        <path id="DejaVuSans-31" d="M 794 531 
L 1825 531 
L 1825 4091 
L 703 3866 
L 703 4441 
L 1819 4666 
L 2450 4666 
L 2450 531 
L 3481 531 
L 3481 0 
L 794 0 
L 794 531 
z
" transform="scale(0.015625)"/>
       </defs>
       <use xlink:href="#DejaVuSans-31"/>
       <use xlink:href="#DejaVuSans-30" x="63.623047"/>
       <use xlink:href="#DejaVuSans-30" x="127.246094"/>
      </g>
     </g>
    </g>
    <g id="xtick_4">
     <g id="line2d_7">
      <path d="M 211.18125 228.96 
L 211.18125 7.2 
" clip-path="url(#pafa3799b5b)" style="fill: none; stroke: #b0b0b0; stroke-width: 0.8; stroke-linecap: square"/>
     </g>
     <g id="line2d_8">
      <g>
       <use xlink:href="#m26636b81c2" x="211.18125" y="228.96" style="stroke: #000000; stroke-width: 0.8"/>
      </g>
     </g>
     <g id="text_4">
      <!-- 150 -->
      <g transform="translate(201.6375 243.558437) scale(0.1 -0.1)">
       <use xlink:href="#DejaVuSans-31"/>
       <use xlink:href="#DejaVuSans-35" x="63.623047"/>
       <use xlink:href="#DejaVuSans-30" x="127.246094"/>
      </g>
     </g>
    </g>
    <g id="xtick_5">
     <g id="line2d_9">
      <path d="M 261.908523 228.96 
L 261.908523 7.2 
" clip-path="url(#pafa3799b5b)" style="fill: none; stroke: #b0b0b0; stroke-width: 0.8; stroke-linecap: square"/>
     </g>
     <g id="line2d_10">
      <g>
       <use xlink:href="#m26636b81c2" x="261.908523" y="228.96" style="stroke: #000000; stroke-width: 0.8"/>
      </g>
     </g>
     <g id="text_5">
      <!-- 200 -->
      <g transform="translate(252.364773 243.558437) scale(0.1 -0.1)">
       <defs>
        <path id="DejaVuSans-32" d="M 1228 531 
L 3431 531 
L 3431 0 
L 469 0 
L 469 531 
Q 828 903 1448 1529 
Q 2069 2156 2228 2338 
Q 2531 2678 2651 2914 
Q 2772 3150 2772 3378 
Q 2772 3750 2511 3984 
Q 2250 4219 1831 4219 
Q 1534 4219 1204 4116 
Q 875 4013 500 3803 
L 500 4441 
Q 881 4594 1212 4672 
Q 1544 4750 1819 4750 
Q 2544 4750 2975 4387 
Q 3406 4025 3406 3419 
Q 3406 3131 3298 2873 
Q 3191 2616 2906 2266 
Q 2828 2175 2409 1742 
Q 1991 1309 1228 531 
z
" transform="scale(0.015625)"/>
       </defs>
       <use xlink:href="#DejaVuSans-32"/>
       <use xlink:href="#DejaVuSans-30" x="63.623047"/>
       <use xlink:href="#DejaVuSans-30" x="127.246094"/>
      </g>
     </g>
    </g>
    <g id="xtick_6">
     <g id="line2d_11">
      <path d="M 312.635795 228.96 
L 312.635795 7.2 
" clip-path="url(#pafa3799b5b)" style="fill: none; stroke: #b0b0b0; stroke-width: 0.8; stroke-linecap: square"/>
     </g>
     <g id="line2d_12">
      <g>
       <use xlink:href="#m26636b81c2" x="312.635795" y="228.96" style="stroke: #000000; stroke-width: 0.8"/>
      </g>
     </g>
     <g id="text_6">
      <!-- 250 -->
      <g transform="translate(303.092045 243.558437) scale(0.1 -0.1)">
       <use xlink:href="#DejaVuSans-32"/>
       <use xlink:href="#DejaVuSans-35" x="63.623047"/>
       <use xlink:href="#DejaVuSans-30" x="127.246094"/>
      </g>
     </g>
    </g>
    <g id="xtick_7">
     <g id="line2d_13">
      <path d="M 363.363068 228.96 
L 363.363068 7.2 
" clip-path="url(#pafa3799b5b)" style="fill: none; stroke: #b0b0b0; stroke-width: 0.8; stroke-linecap: square"/>
     </g>
     <g id="line2d_14">
      <g>
       <use xlink:href="#m26636b81c2" x="363.363068" y="228.96" style="stroke: #000000; stroke-width: 0.8"/>
      </g>
     </g>
     <g id="text_7">
      <!-- 300 -->
      <g transform="translate(353.819318 243.558437) scale(0.1 -0.1)">
       <defs>
        <path id="DejaVuSans-33" d="M 2597 2516 
Q 3050 2419 3304 2112 
Q 3559 1806 3559 1356 
Q 3559 666 3084 287 
Q 2609 -91 1734 -91 
Q 1441 -91 1130 -33 
Q 819 25 488 141 
L 488 750 
Q 750 597 1062 519 
Q 1375 441 1716 441 
Q 2309 441 2620 675 
Q 2931 909 2931 1356 
Q 2931 1769 2642 2001 
Q 2353 2234 1838 2234 
L 1294 2234 
L 1294 2753 
L 1863 2753 
Q 2328 2753 2575 2939 
Q 2822 3125 2822 3475 
Q 2822 3834 2567 4026 
Q 2313 4219 1838 4219 
Q 1578 4219 1281 4162 
Q 984 4106 628 3988 
L 628 4550 
Q 988 4650 1302 4700 
Q 1616 4750 1894 4750 
Q 2613 4750 3031 4423 
Q 3450 4097 3450 3541 
Q 3450 3153 3228 2886 
Q 3006 2619 2597 2516 
z
" transform="scale(0.015625)"/>
       </defs>
       <use xlink:href="#DejaVuSans-33"/>
       <use xlink:href="#DejaVuSans-30" x="63.623047"/>
       <use xlink:href="#DejaVuSans-30" x="127.246094"/>
      </g>
     </g>
    </g>
    <g id="text_8">
     <!-- Time / s -->
     <g transform="translate(191.480469 257.236562) scale(0.1 -0.1)">
      <defs>
       <path id="DejaVuSans-54" d="M -19 4666 
L 3928 4666 
L 3928 4134 
L 2272 4134 
L 2272 0 
L 1638 0 
L 1638 4134 
L -19 4134 
L -19 4666 
z
" transform="scale(0.015625)"/>
       <path id="DejaVuSans-69" d="M 603 3500 
L 1178 3500 
L 1178 0 
L 603 0 
L 603 3500 
z
M 603 4863 
L 1178 4863 
L 1178 4134 
L 603 4134 
L 603 4863 
z
" transform="scale(0.015625)"/>
       <path id="DejaVuSans-6d" d="M 3328 2828 
Q 3544 3216 3844 3400 
Q 4144 3584 4550 3584 
Q 5097 3584 5394 3201 
Q 5691 2819 5691 2113 
L 5691 0 
L 5113 0 
L 5113 2094 
Q 5113 2597 4934 2840 
Q 4756 3084 4391 3084 
Q 3944 3084 3684 2787 
Q 3425 2491 3425 1978 
L 3425 0 
L 2847 0 
L 2847 2094 
Q 2847 2600 2669 2842 
Q 2491 3084 2119 3084 
Q 1678 3084 1418 2786 
Q 1159 2488 1159 1978 
L 1159 0 
L 581 0 
L 581 3500 
L 1159 3500 
L 1159 2956 
Q 1356 3278 1631 3431 
Q 1906 3584 2284 3584 
Q 2666 3584 2933 3390 
Q 3200 3197 3328 2828 
z
" transform="scale(0.015625)"/>
       <path id="DejaVuSans-65" d="M 3597 1894 
L 3597 1613 
L 953 1613 
Q 991 1019 1311 708 
Q 1631 397 2203 397 
Q 2534 397 2845 478 
Q 3156 559 3463 722 
L 3463 178 
Q 3153 47 2828 -22 
Q 2503 -91 2169 -91 
Q 1331 -91 842 396 
Q 353 884 353 1716 
Q 353 2575 817 3079 
Q 1281 3584 2069 3584 
Q 2775 3584 3186 3129 
Q 3597 2675 3597 1894 
z
M 3022 2063 
Q 3016 2534 2758 2815 
Q 2500 3097 2075 3097 
Q 1594 3097 1305 2825 
Q 1016 2553 972 2059 
L 3022 2063 
z
" transform="scale(0.015625)"/>
       <path id="DejaVuSans-20" transform="scale(0.015625)"/>
       <path id="DejaVuSans-2f" d="M 1625 4666 
L 2156 4666 
L 531 -594 
L 0 -594 
L 1625 4666 
z
" transform="scale(0.015625)"/>
       <path id="DejaVuSans-73" d="M 2834 3397 
L 2834 2853 
Q 2591 2978 2328 3040 
Q 2066 3103 1784 3103 
Q 1356 3103 1142 2972 
Q 928 2841 928 2578 
Q 928 2378 1081 2264 
Q 1234 2150 1697 2047 
L 1894 2003 
Q 2506 1872 2764 1633 
Q 3022 1394 3022 966 
Q 3022 478 2636 193 
Q 2250 -91 1575 -91 
Q 1294 -91 989 -36 
Q 684 19 347 128 
L 347 722 
Q 666 556 975 473 
Q 1284 391 1588 391 
Q 1994 391 2212 530 
Q 2431 669 2431 922 
Q 2431 1156 2273 1281 
Q 2116 1406 1581 1522 
L 1381 1569 
Q 847 1681 609 1914 
Q 372 2147 372 2553 
Q 372 3047 722 3315 
Q 1072 3584 1716 3584 
Q 2034 3584 2315 3537 
Q 2597 3491 2834 3397 
z
" transform="scale(0.015625)"/>
      </defs>
      <use xlink:href="#DejaVuSans-54"/>
      <use xlink:href="#DejaVuSans-69" x="57.958984"/>
      <use xlink:href="#DejaVuSans-6d" x="85.742188"/>
      <use xlink:href="#DejaVuSans-65" x="183.154297"/>
      <use xlink:href="#DejaVuSans-20" x="244.677734"/>
      <use xlink:href="#DejaVuSans-2f" x="276.464844"/>
      <use xlink:href="#DejaVuSans-20" x="310.15625"/>
      <use xlink:href="#DejaVuSans-73" x="341.943359"/>
     </g>
    </g>
   </g>
   <g id="matplotlib.axis_2">
    <g id="ytick_1">
     <g id="line2d_15">
      <path d="M 43.78125 228.96 
L 378.58125 228.96 
" clip-path="url(#pafa3799b5b)" style="fill: none; stroke: #b0b0b0; stroke-width: 0.8; stroke-linecap: square"/>
     </g>
     <g id="line2d_16">
      <defs>
       <path id="m7d31a15a96" d="M 0 0 
L -3.5 0 
" style="stroke: #000000; stroke-width: 0.8"/>
      </defs>
      <g>
       <use xlink:href="#m7d31a15a96" x="43.78125" y="228.96" style="stroke: #000000; stroke-width: 0.8"/>
      </g>
     </g>
     <g id="text_9">
      <!-- 0.0 -->
      <g transform="translate(20.878125 232.759219) scale(0.1 -0.1)">
       <defs>
        <path id="DejaVuSans-2e" d="M 684 794 
L 1344 794 
L 1344 0 
L 684 0 
L 684 794 
z
" transform="scale(0.015625)"/>
       </defs>
       <use xlink:href="#DejaVuSans-30"/>
       <use xlink:href="#DejaVuSans-2e" x="63.623047"/>
       <use xlink:href="#DejaVuSans-30" x="95.410156"/>
      </g>
     </g>
    </g>
    <g id="ytick_2">
     <g id="line2d_17">
      <path d="M 43.78125 181.121668 
L 378.58125 181.121668 
" clip-path="url(#pafa3799b5b)" style="fill: none; stroke: #b0b0b0; stroke-width: 0.8; stroke-linecap: square"/>
     </g>
     <g id="line2d_18">
      <g>
       <use xlink:href="#m7d31a15a96" x="43.78125" y="181.121668" style="stroke: #000000; stroke-width: 0.8"/>
      </g>
     </g>
     <g id="text_10">
      <!-- 0.5 -->
      <g transform="translate(20.878125 184.920887) scale(0.1 -0.1)">
       <use xlink:href="#DejaVuSans-30"/>
       <use xlink:href="#DejaVuSans-2e" x="63.623047"/>
       <use xlink:href="#DejaVuSans-35" x="95.410156"/>
      </g>
     </g>
    </g>
    <g id="ytick_3">
     <g id="line2d_19">
      <path d="M 43.78125 133.283336 
L 378.58125 133.283336 
" clip-path="url(#pafa3799b5b)" style="fill: none; stroke: #b0b0b0; stroke-width: 0.8; stroke-linecap: square"/>
     </g>
     <g id="line2d_20">
      <g>
       <use xlink:href="#m7d31a15a96" x="43.78125" y="133.283336" style="stroke: #000000; stroke-width: 0.8"/>
      </g>
     </g>
     <g id="text_11">
      <!-- 1.0 -->
      <g transform="translate(20.878125 137.082555) scale(0.1 -0.1)">
       <use xlink:href="#DejaVuSans-31"/>
       <use xlink:href="#DejaVuSans-2e" x="63.623047"/>
       <use xlink:href="#DejaVuSans-30" x="95.410156"/>
      </g>
     </g>
    </g>
    <g id="ytick_4">
     <g id="line2d_21">
      <path d="M 43.78125 85.445004 
L 378.58125 85.445004 
" clip-path="url(#pafa3799b5b)" style="fill: none; stroke: #b0b0b0; stroke-width: 0.8; stroke-linecap: square"/>
     </g>
     <g id="line2d_22">
      <g>
       <use xlink:href="#m7d31a15a96" x="43.78125" y="85.445004" style="stroke: #000000; stroke-width: 0.8"/>
      </g>
     </g>
     <g id="text_12">
      <!-- 1.5 -->
      <g transform="translate(20.878125 89.244223) scale(0.1 -0.1)">
       <use xlink:href="#DejaVuSans-31"/>
       <use xlink:href="#DejaVuSans-2e" x="63.623047"/>
       <use xlink:href="#DejaVuSans-35" x="95.410156"/>
      </g>
     </g>
    </g>
    <g id="ytick_5">
     <g id="line2d_23">
      <path d="M 43.78125 37.606672 
L 378.58125 37.606672 
" clip-path="url(#pafa3799b5b)" style="fill: none; stroke: #b0b0b0; stroke-width: 0.8; stroke-linecap: square"/>
     </g>
     <g id="line2d_24">
      <g>
       <use xlink:href="#m7d31a15a96" x="43.78125" y="37.606672" style="stroke: #000000; stroke-width: 0.8"/>
      </g>
     </g>
     <g id="text_13">
      <!-- 2.0 -->
      <g transform="translate(20.878125 41.405891) scale(0.1 -0.1)">
       <use xlink:href="#DejaVuSans-32"/>
       <use xlink:href="#DejaVuSans-2e" x="63.623047"/>
       <use xlink:href="#DejaVuSans-30" x="95.410156"/>
      </g>
     </g>
    </g>
    <g id="text_14">
     <!-- Height / m -->
     <g transform="translate(14.798438 144.341719) rotate(-90) scale(0.1 -0.1)">
      <defs>
       <path id="DejaVuSans-48" d="M 628 4666 
L 1259 4666 
L 1259 2753 
L 3553 2753 
L 3553 4666 
L 4184 4666 
L 4184 0 
L 3553 0 
L 3553 2222 
L 1259 2222 
L 1259 0 
L 628 0 
L 628 4666 
z
" transform="scale(0.015625)"/>
       <path id="DejaVuSans-67" d="M 2906 1791 
Q 2906 2416 2648 2759 
Q 2391 3103 1925 3103 
Q 1463 3103 1205 2759 
Q 947 2416 947 1791 
Q 947 1169 1205 825 
Q 1463 481 1925 481 
Q 2391 481 2648 825 
Q 2906 1169 2906 1791 
z
M 3481 434 
Q 3481 -459 3084 -895 
Q 2688 -1331 1869 -1331 
Q 1566 -1331 1297 -1286 
Q 1028 -1241 775 -1147 
L 775 -588 
Q 1028 -725 1275 -790 
Q 1522 -856 1778 -856 
Q 2344 -856 2625 -561 
Q 2906 -266 2906 331 
L 2906 616 
Q 2728 306 2450 153 
Q 2172 0 1784 0 
Q 1141 0 747 490 
Q 353 981 353 1791 
Q 353 2603 747 3093 
Q 1141 3584 1784 3584 
Q 2172 3584 2450 3431 
Q 2728 3278 2906 2969 
L 2906 3500 
L 3481 3500 
L 3481 434 
z
" transform="scale(0.015625)"/>
       <path id="DejaVuSans-68" d="M 3513 2113 
L 3513 0 
L 2938 0 
L 2938 2094 
Q 2938 2591 2744 2837 
Q 2550 3084 2163 3084 
Q 1697 3084 1428 2787 
Q 1159 2491 1159 1978 
L 1159 0 
L 581 0 
L 581 4863 
L 1159 4863 
L 1159 2956 
Q 1366 3272 1645 3428 
Q 1925 3584 2291 3584 
Q 2894 3584 3203 3211 
Q 3513 2838 3513 2113 
z
" transform="scale(0.015625)"/>
       <path id="DejaVuSans-74" d="M 1172 4494 
L 1172 3500 
L 2356 3500 
L 2356 3053 
L 1172 3053 
L 1172 1153 
Q 1172 725 1289 603 
Q 1406 481 1766 481 
L 2356 481 
L 2356 0 
L 1766 0 
Q 1100 0 847 248 
Q 594 497 594 1153 
L 594 3053 
L 172 3053 
L 172 3500 
L 594 3500 
L 594 4494 
L 1172 4494 
z
" transform="scale(0.015625)"/>
      </defs>
      <use xlink:href="#DejaVuSans-48"/>
      <use xlink:href="#DejaVuSans-65" x="75.195312"/>
      <use xlink:href="#DejaVuSans-69" x="136.71875"/>
      <use xlink:href="#DejaVuSans-67" x="164.501953"/>
      <use xlink:href="#DejaVuSans-68" x="227.978516"/>
      <use xlink:href="#DejaVuSans-74" x="291.357422"/>
      <use xlink:href="#DejaVuSans-20" x="330.566406"/>
      <use xlink:href="#DejaVuSans-2f" x="362.353516"/>
      <use xlink:href="#DejaVuSans-20" x="396.044922"/>
      <use xlink:href="#DejaVuSans-6d" x="427.832031"/>
     </g>
    </g>
   </g>
   <g id="line2d_25">
    <path d="M 58.999432 18.471335 
L 65.091835 18.471335 
L 65.392155 19.139553 
L 65.7027 21.478316 
L 66.007699 22.146534 
L 66.304992 21.478316 
L 66.613502 22.480643 
L 66.912989 24.151188 
L 67.225163 24.151188 
L 67.834737 26.155842 
L 68.131413 28.160496 
L 68.439894 27.492278 
L 68.746479 26.155842 
L 69.045327 27.492278 
L 69.352178 27.158169 
L 69.655162 29.831041 
L 69.957872 28.828714 
L 70.265239 24.819406 
L 70.567695 26.155842 
L 70.876442 32.838022 
L 71.176666 36.513221 
L 71.478676 37.849657 
L 71.788751 38.183766 
L 72.095732 37.181439 
L 72.394891 38.851984 
L 72.705758 37.515548 
L 73.000737 39.186093 
L 73.305892 39.520202 
L 73.913493 26.155842 
L 74.529272 30.833368 
L 75.740659 43.52951 
L 76.049781 43.195401 
L 76.357777 43.195401 
L 76.656216 49.543471 
L 76.962 52.550452 
L 77.262528 49.87758 
L 77.565837 49.543471 
L 77.879291 49.87758 
L 78.185613 53.552779 
L 78.480135 54.220997 
L 78.791925 54.220997 
L 79.088355 57.562087 
L 79.392009 57.562087 
L 79.707086 58.898523 
L 80.312942 63.576049 
L 80.614211 62.907831 
L 80.918656 64.244267 
L 81.218018 64.244267 
L 81.530244 63.576049 
L 81.828693 63.910158 
L 82.139469 64.578376 
L 82.438161 66.917139 
L 82.741936 66.917139 
L 83.044382 67.251248 
L 83.357228 67.251248 
L 83.660627 66.58303 
L 83.965884 67.585357 
L 84.27046 63.24194 
L 84.570401 62.239613 
L 84.871112 59.90085 
L 85.181989 61.237286 
L 85.482355 60.903177 
L 85.788931 61.237286 
L 86.091499 60.569068 
L 86.401787 62.239613 
L 86.701464 63.24194 
L 87.305859 69.590011 
L 87.617213 70.592338 
L 87.922114 70.592338 
L 88.221314 69.92412 
L 88.533022 67.585357 
L 89.134658 66.917139 
L 89.443942 66.248921 
L 89.744917 65.914812 
L 90.049484 63.910158 
L 90.355187 64.578376 
L 90.659946 63.910158 
L 90.962869 64.578376 
L 91.270997 66.917139 
L 91.572682 65.914812 
L 91.871892 66.58303 
L 92.182627 68.921793 
L 92.484373 70.258229 
L 92.783887 72.262883 
L 93.089985 71.594665 
L 94.010716 76.6063 
L 94.310473 77.608627 
L 94.614391 81.952044 
L 94.922041 84.290807 
L 95.534086 83.622589 
L 95.836126 83.622589 
L 96.140835 85.627243 
L 96.445868 89.63655 
L 96.740959 90.972986 
L 97.045982 90.972986 
L 97.659762 92.309422 
L 97.965576 94.314076 
L 98.270934 94.648185 
L 98.568896 97.655166 
L 98.879256 97.989275 
L 99.491331 101.998583 
L 99.786604 104.671455 
L 100.402129 107.010218 
L 100.706959 108.346654 
L 101.006859 108.680763 
L 101.312562 106.676109 
L 101.618082 105.673782 
L 102.221625 106.342 
L 102.529925 106.007891 
L 103.438704 108.680763 
L 103.751143 109.68309 
L 104.050485 111.353635 
L 104.350233 112.021853 
L 104.663108 114.360616 
L 104.966508 114.026507 
L 105.267463 115.697052 
L 105.568823 118.704033 
L 105.876342 118.704033 
L 106.186864 117.367597 
L 107.093269 112.021853 
L 107.402675 113.02418 
L 107.701104 115.697052 
L 108.012731 116.699379 
L 108.311363 118.035815 
L 108.618608 120.374578 
L 108.915535 119.038142 
L 109.528767 123.381559 
L 110.139594 122.713341 
L 110.438489 123.04745 
L 110.744385 122.713341 
L 111.050656 122.713341 
L 111.656877 125.052104 
L 111.962884 125.052104 
L 112.27159 125.720322 
L 112.567614 125.720322 
L 112.872526 125.052104 
L 113.185341 127.056758 
L 113.789097 127.724975 
L 114.098036 127.056758 
L 114.394527 126.722649 
L 114.699124 128.393193 
L 115.005608 128.059084 
L 115.312772 128.727302 
L 115.611738 129.061411 
L 115.920738 127.390867 
L 116.224493 127.390867 
L 116.526756 127.056758 
L 116.832479 127.724975 
L 117.133181 128.059084 
L 118.050959 131.400174 
L 118.358376 130.731956 
L 118.660437 131.066065 
L 118.970482 130.397847 
L 119.27101 131.066065 
L 119.575465 131.400174 
L 119.879413 134.407155 
L 120.184091 135.743591 
L 120.49088 137.748245 
L 120.795111 137.748245 
L 121.089735 135.743591 
L 121.399953 135.409482 
L 122.011602 135.409482 
L 122.315398 134.741264 
L 122.620482 133.070719 
L 122.920138 130.397847 
L 123.221813 130.063738 
L 123.533826 130.063738 
L 124.136263 128.059084 
L 124.43944 128.059084 
L 124.74495 130.063738 
L 125.048928 129.729629 
L 125.354124 131.400174 
L 125.662383 132.068392 
L 125.961573 132.402501 
L 126.568656 134.073046 
L 126.876611 134.407155 
L 127.18618 134.073046 
L 127.491324 134.073046 
L 127.795242 133.738937 
L 128.09508 132.73661 
L 128.394402 133.070719 
L 128.704853 134.073046 
L 129.008344 136.745918 
L 129.315203 137.080027 
L 129.620592 138.082354 
L 129.92596 138.416463 
L 130.225585 140.087008 
L 130.531917 140.421117 
L 130.840593 139.41879 
L 131.136759 139.752899 
L 131.438474 138.750572 
L 131.752902 139.41879 
L 132.358535 134.741264 
L 132.662229 134.407155 
L 133.577633 132.402501 
L 133.876569 132.402501 
L 134.180456 134.407155 
L 134.492003 134.741264 
L 135.097605 136.745918 
L 135.404109 138.416463 
L 135.709102 138.416463 
L 136.003503 136.411809 
L 137.227227 131.400174 
L 137.533346 131.400174 
L 138.139851 136.411809 
L 138.445088 136.0777 
L 138.747909 136.411809 
L 139.051289 136.411809 
L 139.353491 137.414136 
L 139.664044 137.748245 
L 139.962746 138.416463 
L 140.265142 138.082354 
L 140.577368 134.741264 
L 140.88025 134.073046 
L 141.182362 133.738937 
L 141.486614 132.73661 
L 141.791566 133.404828 
L 142.094651 136.0777 
L 142.405985 136.411809 
L 142.702577 137.414136 
L 143.003866 137.080027 
L 143.612604 137.748245 
L 143.924729 137.414136 
L 144.532421 137.414136 
L 144.837759 138.082354 
L 145.751672 140.755226 
L 146.055954 141.423444 
L 146.360916 141.423444 
L 146.660562 141.089335 
L 146.96451 139.752899 
L 147.273591 139.41879 
L 147.571868 139.41879 
L 147.885616 139.752899 
L 148.178616 138.416463 
L 148.788947 140.087008 
L 149.402757 143.093989 
L 149.702951 141.089335 
L 150.310998 139.41879 
L 150.624117 139.41879 
L 150.927791 139.084681 
L 151.223227 139.41879 
L 151.535098 139.084681 
L 151.836022 138.082354 
L 152.138753 138.082354 
L 152.443715 140.421117 
L 152.753385 140.421117 
L 153.049571 141.423444 
L 153.362294 140.421117 
L 153.964092 141.757553 
L 154.267502 142.75988 
L 154.580652 143.093989 
L 155.178818 141.089335 
L 155.483232 141.089335 
L 155.788793 141.757553 
L 156.399133 141.089335 
L 156.700484 141.089335 
L 157.012406 141.423444 
L 157.313411 140.421117 
L 157.616253 142.75988 
L 157.918182 143.428098 
L 158.234598 143.762207 
L 158.53884 144.764534 
L 158.835899 144.764534 
L 159.142282 146.769188 
L 159.446615 147.437406 
L 159.751273 146.769188 
L 160.054926 145.766861 
L 160.359432 145.432752 
L 160.666829 145.432752 
L 160.964091 143.762207 
L 161.270686 144.430425 
L 161.57992 144.430425 
L 161.874442 144.764534 
L 162.187835 145.766861 
L 162.483373 145.432752 
L 162.791084 144.096316 
L 163.100419 143.428098 
L 163.399609 145.098643 
L 163.710668 145.766861 
L 164.010669 146.10097 
L 164.311989 146.10097 
L 164.91889 147.771515 
L 165.528734 144.430425 
L 165.842127 144.764534 
L 166.145273 144.764534 
L 166.75187 147.437406 
L 167.059175 147.103297 
L 167.664352 141.089335 
L 167.964657 139.41879 
L 168.27521 139.41879 
L 168.578965 139.752899 
L 168.880285 141.089335 
L 169.179677 141.757553 
L 169.795607 147.103297 
L 170.097333 148.773842 
L 170.406871 148.773842 
L 170.70393 148.105624 
L 171.314686 147.437406 
L 171.624224 147.437406 
L 171.924225 144.096316 
L 172.225038 143.428098 
L 172.529402 143.093989 
L 172.839853 142.091662 
L 173.139143 142.091662 
L 173.448783 143.762207 
L 173.74574 143.428098 
L 174.356598 146.769188 
L 174.661672 146.10097 
L 174.97334 146.10097 
L 175.274965 147.103297 
L 175.581154 147.103297 
L 176.185113 146.435079 
L 176.495057 145.098643 
L 176.791913 145.432752 
L 177.093233 144.430425 
L 177.397089 142.75988 
L 177.710077 142.75988 
L 178.010078 141.757553 
L 178.321137 142.75988 
L 178.618906 145.432752 
L 178.919719 146.435079 
L 179.236257 148.105624 
L 179.536766 147.437406 
L 179.838593 147.103297 
L 180.142551 147.771515 
L 180.443363 148.105624 
L 180.747118 146.769188 
L 181.053511 146.10097 
L 181.356759 145.098643 
L 181.66305 145.766861 
L 182.273299 145.766861 
L 182.575025 144.764534 
L 183.182332 146.769188 
L 183.496029 149.107951 
L 183.799074 150.444387 
L 184.399888 151.780823 
L 184.701715 150.110278 
L 185.007905 147.771515 
L 185.318457 147.437406 
L 185.616632 147.771515 
L 185.927286 149.44206 
L 186.232867 149.776169 
L 186.538347 150.778496 
L 186.838043 150.110278 
L 187.141798 150.778496 
L 187.447177 150.778496 
L 187.753975 149.44206 
L 188.356919 149.44206 
L 188.972444 148.773842 
L 189.268691 149.107951 
L 189.578635 150.778496 
L 189.880259 150.110278 
L 190.188681 148.105624 
L 190.495074 148.773842 
L 191.100961 148.773842 
L 191.406846 147.771515 
L 191.714253 147.437406 
L 192.008979 146.10097 
L 192.616184 146.769188 
L 193.233535 146.10097 
L 193.528971 146.10097 
L 193.834653 146.769188 
L 194.144191 147.103297 
L 195.35779 147.103297 
L 196.268243 145.098643 
L 196.58255 145.098643 
L 196.88529 146.10097 
L 197.190059 146.435079 
L 197.795743 147.771515 
L 198.104368 148.773842 
L 198.401528 150.778496 
L 198.70295 151.112605 
L 199.019082 151.112605 
L 199.626287 149.107951 
L 199.921622 149.107951 
L 200.224362 148.773842 
L 201.140598 148.773842 
L 201.447599 150.110278 
L 201.75034 150.778496 
L 202.664445 148.105624 
L 202.970229 148.105624 
L 203.268709 148.439733 
L 203.574391 149.776169 
L 203.878349 149.44206 
L 204.186771 149.44206 
L 204.492656 150.110278 
L 204.798643 150.444387 
L 205.103717 150.110278 
L 205.40595 151.112605 
L 205.711328 151.446714 
L 206.316809 151.446714 
L 206.622593 150.778496 
L 206.930507 150.444387 
L 207.233755 149.776169 
L 207.535684 148.773842 
L 207.835989 148.773842 
L 208.140454 146.769188 
L 208.748066 147.437406 
L 209.052632 147.437406 
L 209.359126 147.771515 
L 209.666331 149.776169 
L 210.272826 148.105624 
L 210.578306 149.776169 
L 210.882162 150.110278 
L 211.185004 150.110278 
L 211.48673 149.44206 
L 211.798398 150.110278 
L 212.105602 149.776169 
L 212.405096 148.105624 
L 212.703575 147.103297 
L 213.314636 146.435079 
L 213.616666 146.435079 
L 213.932089 148.105624 
L 214.235336 148.105624 
L 214.531482 147.437406 
L 214.833715 147.103297 
L 215.147615 148.439733 
L 215.446805 150.778496 
L 215.758676 150.778496 
L 216.35949 150.110278 
L 216.669637 149.107951 
L 216.966493 149.776169 
L 217.58222 149.107951 
L 217.878062 148.105624 
L 218.19115 148.105624 
L 218.49176 148.439733 
L 219.106879 147.771515 
L 219.400489 148.105624 
L 219.713476 148.105624 
L 220.618247 149.107951 
L 220.922611 149.107951 
L 221.837224 148.105624 
L 222.443618 148.105624 
L 222.755185 148.773842 
L 223.972436 147.437406 
L 224.275481 147.437406 
L 225.187354 151.112605 
L 225.495776 150.110278 
L 225.791516 150.444387 
L 226.10288 148.773842 
L 226.400142 148.773842 
L 227.016986 144.096316 
L 227.318914 144.764534 
L 227.929975 150.110278 
L 228.537181 150.778496 
L 228.836269 149.107951 
L 229.44875 148.439733 
L 229.756969 148.773842 
L 230.059607 148.439733 
L 230.356362 147.437406 
L 230.66661 147.437406 
L 230.971379 150.110278 
L 231.271685 151.446714 
L 231.576353 151.446714 
L 231.88163 151.780823 
L 232.186906 151.112605 
L 232.491879 151.446714 
L 232.799083 152.114932 
L 233.105374 151.780823 
L 233.707406 152.449041 
L 234.322119 151.112605 
L 234.626584 151.780823 
L 234.933484 152.78315 
L 235.236123 153.117259 
L 235.533993 153.117259 
L 235.836531 153.451368 
L 236.142315 153.451368 
L 236.444243 152.78315 
L 236.751752 152.449041 
L 237.063826 151.446714 
L 237.359465 151.780823 
L 237.661901 152.78315 
L 237.973772 152.114932 
L 238.271744 150.778496 
L 238.575398 150.444387 
L 238.88108 150.444387 
L 239.491025 148.105624 
L 240.106042 149.44206 
L 240.408377 150.778496 
L 240.716291 151.446714 
L 241.015887 150.778496 
L 241.317917 151.446714 
L 241.62431 151.112605 
L 241.928978 150.444387 
L 242.232631 150.110278 
L 242.542169 149.44206 
L 242.838315 150.110278 
L 243.140041 152.114932 
L 243.454854 153.117259 
L 243.752623 153.117259 
L 244.054755 153.451368 
L 244.361959 153.117259 
L 244.665511 152.449041 
L 244.967846 149.44206 
L 245.278804 149.44206 
L 245.57495 150.110278 
L 245.886314 148.773842 
L 246.189257 148.439733 
L 246.488649 148.439733 
L 247.107218 149.107951 
L 247.405088 150.110278 
L 247.708539 149.776169 
L 248.319701 148.439733 
L 248.623456 148.105624 
L 248.934718 148.773842 
L 249.235531 147.771515 
L 249.534416 148.439733 
L 249.836142 148.439733 
L 250.148318 147.771515 
L 250.457145 148.439733 
L 250.755016 148.439733 
L 251.059582 148.105624 
L 251.362931 148.439733 
L 251.662324 150.778496 
L 252.281805 152.114932 
L 252.585763 152.114932 
L 252.883837 151.780823 
L 253.188505 150.778496 
L 253.490535 150.444387 
L 253.794695 147.437406 
L 254.100784 145.766861 
L 254.401799 145.766861 
L 255.010121 146.435079 
L 255.325036 149.107951 
L 255.619558 150.110278 
L 256.229706 150.110278 
L 256.540461 150.444387 
L 257.145739 148.105624 
L 257.446349 148.105624 
L 258.060961 149.44206 
L 258.359338 148.773842 
L 258.673239 149.44206 
L 259.273748 152.449041 
L 259.578822 152.449041 
L 259.882374 153.117259 
L 260.192318 154.787804 
L 260.492319 154.453695 
L 260.801451 153.785477 
L 261.099727 153.451368 
L 261.402163 153.451368 
L 261.714947 151.446714 
L 262.012108 151.112605 
L 262.62327 151.780823 
L 262.927126 151.112605 
L 263.53839 148.773842 
L 263.844073 149.107951 
L 264.449147 149.107951 
L 264.751279 150.778496 
L 265.05544 151.780823 
L 265.359499 151.112605 
L 265.671675 151.446714 
L 265.972995 151.112605 
L 266.580302 151.780823 
L 266.884767 151.112605 
L 267.488726 151.112605 
L 268.103033 148.773842 
L 268.408715 148.773842 
L 268.71247 149.44206 
L 269.015921 150.444387 
L 269.318255 150.444387 
L 269.625257 151.112605 
L 269.934389 151.112605 
L 270.544029 149.107951 
L 270.847784 149.107951 
L 271.148495 149.44206 
L 271.457729 149.107951 
L 271.753875 149.776169 
L 272.06321 149.44206 
L 272.360979 150.444387 
L 272.662806 150.778496 
L 273.278432 149.107951 
L 273.578738 150.778496 
L 274.188682 150.778496 
L 274.796699 149.107951 
L 275.098425 149.776169 
L 275.403093 149.776169 
L 275.710805 149.44206 
L 276.325214 150.778496 
L 276.628969 150.778496 
L 277.23871 152.114932 
L 277.539827 153.117259 
L 277.839321 152.449041 
L 278.145004 153.785477 
L 278.450889 153.117259 
L 278.758702 151.780823 
L 279.054848 151.780823 
L 279.366415 151.112605 
L 279.666315 150.778496 
L 279.967939 148.773842 
L 280.273114 148.773842 
L 280.577174 149.107951 
L 280.881639 151.446714 
L 281.196046 151.446714 
L 281.492497 150.778496 
L 281.804469 150.778496 
L 282.406602 154.787804 
L 282.71269 154.119586 
L 283.018271 151.780823 
L 283.318374 152.114932 
L 283.62497 151.446714 
L 283.933797 150.444387 
L 284.235726 148.773842 
L 284.53735 148.773842 
L 284.840598 149.776169 
L 285.146991 149.776169 
L 286.369112 153.785477 
L 287.280377 153.785477 
L 287.5889 152.114932 
L 287.893162 151.780823 
L 288.186975 151.780823 
L 288.494382 153.117259 
L 288.804427 152.78315 
L 289.102501 152.78315 
L 290.013359 156.792458 
L 290.316506 156.792458 
L 290.625942 157.126567 
L 291.23051 156.458349 
L 291.845121 154.119586 
L 292.144311 153.117259 
L 292.458617 153.785477 
L 292.754966 153.117259 
L 293.363287 153.117259 
L 293.664911 152.78315 
L 294.27861 152.78315 
L 294.587032 153.451368 
L 294.889975 153.785477 
L 295.191701 151.780823 
L 295.795863 150.110278 
L 296.105806 150.778496 
L 297.015854 150.778496 
L 297.932191 149.776169 
L 298.230366 149.107951 
L 298.848833 150.778496 
L 299.452589 151.446714 
L 299.75888 151.446714 
L 300.363245 150.778496 
L 300.669739 149.776169 
L 300.971465 149.44206 
L 301.892469 152.449041 
L 302.194804 152.114932 
L 302.495109 152.114932 
L 302.800082 151.780823 
L 303.404446 148.439733 
L 303.718347 148.105624 
L 304.016522 147.437406 
L 304.319465 147.103297 
L 304.623524 145.766861 
L 304.931642 148.105624 
L 305.232556 151.780823 
L 305.540572 152.449041 
L 305.842703 152.114932 
L 306.154778 153.451368 
L 307.061274 153.451368 
L 307.361985 153.117259 
L 307.668987 151.112605 
L 308.278424 148.773842 
L 309.190805 148.773842 
L 309.49111 148.439733 
L 309.799634 147.437406 
L 310.099736 148.439733 
L 310.408361 151.446714 
L 310.718507 151.780823 
L 311.322771 153.451368 
L 311.632714 154.119586 
L 311.935658 154.119586 
L 312.839618 150.444387 
L 313.144996 149.776169 
L 313.456664 149.776169 
L 313.757984 150.110278 
L 314.067826 151.112605 
L 314.369857 154.787804 
L 314.669858 155.456022 
L 315.589036 153.451368 
L 315.888124 151.780823 
L 316.196647 151.112605 
L 316.495532 151.112605 
L 316.803244 151.446714 
L 318.023742 156.792458 
L 318.317351 156.12424 
L 318.630947 156.458349 
L 318.932065 154.787804 
L 319.240486 152.114932 
L 319.535922 150.778496 
L 320.14678 150.778496 
L 320.454694 151.112605 
L 321.05774 151.112605 
L 321.371945 150.444387 
L 321.666873 150.444387 
L 321.97357 150.778496 
L 322.893865 153.451368 
L 323.804115 151.446714 
L 324.109696 151.780823 
L 324.412639 152.78315 
L 324.71264 152.114932 
L 325.016598 151.112605 
L 325.326947 149.44206 
L 325.623398 150.110278 
L 325.930805 149.107951 
L 326.233038 149.107951 
L 326.544808 148.773842 
L 326.842983 151.112605 
L 327.456478 151.780823 
L 328.057292 153.117259 
L 328.66886 153.785477 
L 328.971803 153.451368 
L 329.588241 153.451368 
L 329.893924 154.119586 
L 330.198693 153.785477 
L 330.492607 152.78315 
L 330.80042 152.449041 
L 331.100827 153.117259 
L 331.405901 152.78315 
L 331.710975 152.114932 
L 332.026803 152.114932 
L 332.322137 154.119586 
L 332.631066 154.787804 
L 332.928937 155.121913 
L 333.546287 155.121913 
L 334.146087 151.446714 
L 334.460089 150.778496 
L 335.063946 151.446714 
L 335.362222 151.112605 
L 335.981095 153.451368 
L 336.279473 154.453695 
L 336.584141 154.787804 
L 336.884142 154.453695 
L 337.198245 152.78315 
L 337.504942 152.449041 
L 337.801291 151.780823 
L 338.106365 152.114932 
L 338.41499 152.114932 
L 338.714179 152.78315 
L 339.015296 152.78315 
L 339.328182 153.117259 
L 339.625545 153.785477 
L 339.932648 154.119586 
L 340.242896 155.456022 
L 340.542491 155.790131 
L 340.841985 155.121913 
L 341.153045 153.117259 
L 341.459742 152.78315 
L 341.756192 152.78315 
L 342.060657 153.451368 
L 342.362687 155.456022 
L 342.67324 156.12424 
L 342.979633 156.12424 
L 343.284402 155.456022 
L 343.586432 154.119586 
L 343.893332 151.780823 
L 344.193638 151.780823 
L 344.798408 151.112605 
L 345.110077 151.446714 
L 345.414034 152.114932 
L 346.018703 152.78315 
L 346.62875 151.446714 
L 346.939505 151.112605 
L 347.235651 149.776169 
L 347.537072 150.110278 
L 347.850161 151.112605 
L 348.151379 151.112605 
L 348.762745 152.449041 
L 349.068021 152.449041 
L 349.364877 152.114932 
L 349.668125 152.114932 
L 349.978677 151.780823 
L 350.27878 151.780823 
L 350.588723 152.114932 
L 350.891058 153.451368 
L 351.497452 154.787804 
L 351.801511 154.453695 
L 352.104962 155.456022 
L 352.408311 155.121913 
L 352.710747 155.456022 
L 353.025053 154.119586 
L 353.326271 152.114932 
L 353.628809 152.114932 
L 353.933071 152.78315 
L 354.242913 153.785477 
L 354.541088 154.119586 
L 354.847988 154.119586 
L 355.151845 155.121913 
L 355.45215 155.121913 
L 355.764731 155.456022 
L 356.06037 155.121913 
L 356.366864 152.78315 
L 356.9762 152.114932 
L 357.276404 152.449041 
L 357.592841 152.449041 
L 357.884929 154.119586 
L 358.19193 154.453695 
L 358.501772 155.790131 
L 358.799947 156.12424 
L 359.417298 154.119586 
L 359.714053 154.119586 
L 360.023793 154.453695 
L 360.325722 155.121913 
L 360.929377 154.453695 
L 361.236479 153.785477 
L 361.541756 155.121913 
L 361.850787 155.456022 
L 362.152817 155.456022 
L 362.451398 155.121913 
L 362.760733 155.121913 
L 363.065603 154.787804 
L 363.363068 154.119586 
L 363.363068 154.119586 
" clip-path="url(#pafa3799b5b)" style="fill: none; stroke: #1f77b4; stroke-width: 1.5; stroke-linecap: square"/>
   </g>
   <g id="patch_3">
    <path d="M 43.78125 228.96 
L 43.78125 7.2 
" style="fill: none; stroke: #000000; stroke-width: 0.8; stroke-linejoin: miter; stroke-linecap: square"/>
   </g>
   <g id="patch_4">
    <path d="M 378.58125 228.96 
L 378.58125 7.2 
" style="fill: none; stroke: #000000; stroke-width: 0.8; stroke-linejoin: miter; stroke-linecap: square"/>
   </g>
   <g id="patch_5">
    <path d="M 43.78125 228.96 
L 378.58125 228.96 
" style="fill: none; stroke: #000000; stroke-width: 0.8; stroke-linejoin: miter; stroke-linecap: square"/>
   </g>
   <g id="patch_6">
    <path d="M 43.78125 7.2 
L 378.58125 7.2 
" style="fill: none; stroke: #000000; stroke-width: 0.8; stroke-linejoin: miter; stroke-linecap: square"/>
   </g>
   <g id="legend_1">
    <g id="patch_7">
     <path d="M 208.070312 29.878125 
L 371.58125 29.878125 
Q 373.58125 29.878125 373.58125 27.878125 
L 373.58125 14.2 
Q 373.58125 12.2 371.58125 12.2 
L 208.070312 12.2 
Q 206.070312 12.2 206.070312 14.2 
L 206.070312 27.878125 
Q 206.070312 29.878125 208.070312 29.878125 
z
" style="fill: #ffffff; opacity: 0.8; stroke: #cccccc; stroke-linejoin: miter"/>
    </g>
    <g id="line2d_26">
     <path d="M 210.070312 20.298437 
L 220.070312 20.298437 
L 230.070312 20.298437 
" style="fill: none; stroke: #1f77b4; stroke-width: 1.5; stroke-linecap: square"/>
    </g>
    <g id="text_15">
     <!-- Mean Smoke Layer Height -->
     <g transform="translate(238.070312 23.798437) scale(0.1 -0.1)">
      <defs>
       <path id="DejaVuSans-4d" d="M 628 4666 
L 1569 4666 
L 2759 1491 
L 3956 4666 
L 4897 4666 
L 4897 0 
L 4281 0 
L 4281 4097 
L 3078 897 
L 2444 897 
L 1241 4097 
L 1241 0 
L 628 0 
L 628 4666 
z
" transform="scale(0.015625)"/>
       <path id="DejaVuSans-61" d="M 2194 1759 
Q 1497 1759 1228 1600 
Q 959 1441 959 1056 
Q 959 750 1161 570 
Q 1363 391 1709 391 
Q 2188 391 2477 730 
Q 2766 1069 2766 1631 
L 2766 1759 
L 2194 1759 
z
M 3341 1997 
L 3341 0 
L 2766 0 
L 2766 531 
Q 2569 213 2275 61 
Q 1981 -91 1556 -91 
Q 1019 -91 701 211 
Q 384 513 384 1019 
Q 384 1609 779 1909 
Q 1175 2209 1959 2209 
L 2766 2209 
L 2766 2266 
Q 2766 2663 2505 2880 
Q 2244 3097 1772 3097 
Q 1472 3097 1187 3025 
Q 903 2953 641 2809 
L 641 3341 
Q 956 3463 1253 3523 
Q 1550 3584 1831 3584 
Q 2591 3584 2966 3190 
Q 3341 2797 3341 1997 
z
" transform="scale(0.015625)"/>
       <path id="DejaVuSans-6e" d="M 3513 2113 
L 3513 0 
L 2938 0 
L 2938 2094 
Q 2938 2591 2744 2837 
Q 2550 3084 2163 3084 
Q 1697 3084 1428 2787 
Q 1159 2491 1159 1978 
L 1159 0 
L 581 0 
L 581 3500 
L 1159 3500 
L 1159 2956 
Q 1366 3272 1645 3428 
Q 1925 3584 2291 3584 
Q 2894 3584 3203 3211 
Q 3513 2838 3513 2113 
z
" transform="scale(0.015625)"/>
       <path id="DejaVuSans-53" d="M 3425 4513 
L 3425 3897 
Q 3066 4069 2747 4153 
Q 2428 4238 2131 4238 
Q 1616 4238 1336 4038 
Q 1056 3838 1056 3469 
Q 1056 3159 1242 3001 
Q 1428 2844 1947 2747 
L 2328 2669 
Q 3034 2534 3370 2195 
Q 3706 1856 3706 1288 
Q 3706 609 3251 259 
Q 2797 -91 1919 -91 
Q 1588 -91 1214 -16 
Q 841 59 441 206 
L 441 856 
Q 825 641 1194 531 
Q 1563 422 1919 422 
Q 2459 422 2753 634 
Q 3047 847 3047 1241 
Q 3047 1584 2836 1778 
Q 2625 1972 2144 2069 
L 1759 2144 
Q 1053 2284 737 2584 
Q 422 2884 422 3419 
Q 422 4038 858 4394 
Q 1294 4750 2059 4750 
Q 2388 4750 2728 4690 
Q 3069 4631 3425 4513 
z
" transform="scale(0.015625)"/>
       <path id="DejaVuSans-6f" d="M 1959 3097 
Q 1497 3097 1228 2736 
Q 959 2375 959 1747 
Q 959 1119 1226 758 
Q 1494 397 1959 397 
Q 2419 397 2687 759 
Q 2956 1122 2956 1747 
Q 2956 2369 2687 2733 
Q 2419 3097 1959 3097 
z
M 1959 3584 
Q 2709 3584 3137 3096 
Q 3566 2609 3566 1747 
Q 3566 888 3137 398 
Q 2709 -91 1959 -91 
Q 1206 -91 779 398 
Q 353 888 353 1747 
Q 353 2609 779 3096 
Q 1206 3584 1959 3584 
z
" transform="scale(0.015625)"/>
       <path id="DejaVuSans-6b" d="M 581 4863 
L 1159 4863 
L 1159 1991 
L 2875 3500 
L 3609 3500 
L 1753 1863 
L 3688 0 
L 2938 0 
L 1159 1709 
L 1159 0 
L 581 0 
L 581 4863 
z
" transform="scale(0.015625)"/>
       <path id="DejaVuSans-4c" d="M 628 4666 
L 1259 4666 
L 1259 531 
L 3531 531 
L 3531 0 
L 628 0 
L 628 4666 
z
" transform="scale(0.015625)"/>
       <path id="DejaVuSans-79" d="M 2059 -325 
Q 1816 -950 1584 -1140 
Q 1353 -1331 966 -1331 
L 506 -1331 
L 506 -850 
L 844 -850 
Q 1081 -850 1212 -737 
Q 1344 -625 1503 -206 
L 1606 56 
L 191 3500 
L 800 3500 
L 1894 763 
L 2988 3500 
L 3597 3500 
L 2059 -325 
z
" transform="scale(0.015625)"/>
       <path id="DejaVuSans-72" d="M 2631 2963 
Q 2534 3019 2420 3045 
Q 2306 3072 2169 3072 
Q 1681 3072 1420 2755 
Q 1159 2438 1159 1844 
L 1159 0 
L 581 0 
L 581 3500 
L 1159 3500 
L 1159 2956 
Q 1341 3275 1631 3429 
Q 1922 3584 2338 3584 
Q 2397 3584 2469 3576 
Q 2541 3569 2628 3553 
L 2631 2963 
z
" transform="scale(0.015625)"/>
      </defs>
      <use xlink:href="#DejaVuSans-4d"/>
      <use xlink:href="#DejaVuSans-65" x="86.279297"/>
      <use xlink:href="#DejaVuSans-61" x="147.802734"/>
      <use xlink:href="#DejaVuSans-6e" x="209.082031"/>
      <use xlink:href="#DejaVuSans-20" x="272.460938"/>
      <use xlink:href="#DejaVuSans-53" x="304.248047"/>
      <use xlink:href="#DejaVuSans-6d" x="367.724609"/>
      <use xlink:href="#DejaVuSans-6f" x="465.136719"/>
      <use xlink:href="#DejaVuSans-6b" x="526.318359"/>
      <use xlink:href="#DejaVuSans-65" x="580.603516"/>
      <use xlink:href="#DejaVuSans-20" x="642.126953"/>
      <use xlink:href="#DejaVuSans-4c" x="673.914062"/>
      <use xlink:href="#DejaVuSans-61" x="729.626953"/>
      <use xlink:href="#DejaVuSans-79" x="790.90625"/>
      <use xlink:href="#DejaVuSans-65" x="850.085938"/>
      <use xlink:href="#DejaVuSans-72" x="911.609375"/>
      <use xlink:href="#DejaVuSans-20" x="952.722656"/>
      <use xlink:href="#DejaVuSans-48" x="984.509766"/>
      <use xlink:href="#DejaVuSans-65" x="1059.705078"/>
      <use xlink:href="#DejaVuSans-69" x="1121.228516"/>
      <use xlink:href="#DejaVuSans-67" x="1149.011719"/>
      <use xlink:href="#DejaVuSans-68" x="1212.488281"/>
      <use xlink:href="#DejaVuSans-74" x="1275.867188"/>
     </g>
    </g>
   </g>
  </g>
 </g>
 <defs>
  <clipPath id="pafa3799b5b">
   <rect x="43.78125" y="7.2" width="334.8" height="221.76"/>
  </clipPath>
 </defs>
</svg>
