<?xml version="1.0" encoding="utf-8" standalone="no"?>
<!DOCTYPE svg PUBLIC "-//W3C//DTD SVG 1.1//EN"
  "http://www.w3.org/Graphics/SVG/1.1/DTD/svg11.dtd">
<svg xmlns:xlink="http://www.w3.org/1999/xlink" width="385.78125pt" height="266.51625pt" viewBox="0 0 385.78125 266.51625" xmlns="http://www.w3.org/2000/svg" version="1.1">
 <metadata>
  <rdf:RDF xmlns:dc="http://purl.org/dc/elements/1.1/" xmlns:cc="http://creativecommons.org/ns#" xmlns:rdf="http://www.w3.org/1999/02/22-rdf-syntax-ns#">
   <cc:Work>
    <dc:type rdf:resource="http://purl.org/dc/dcmitype/StillImage"/>
    <dc:date>2022-11-23T18:11:43.439165</dc:date>
    <dc:format>image/svg+xml</dc:format>
    <dc:creator>
     <cc:Agent>
      <dc:title>Matplotlib v3.6.0, https://matplotlib.org/</dc:title>
     </cc:Agent>
    </dc:creator>
   </cc:Work>
  </rdf:RDF>
 </metadata>
 <defs>
  <style type="text/css">*{stroke-linejoin: round; stroke-linecap: butt}</style>
 </defs>
 <g id="figure_1">
  <g id="patch_1">
   <path d="M 0 266.51625 
L 385.78125 266.51625 
L 385.78125 0 
L 0 0 
z
" style="fill: #ffffff"/>
  </g>
  <g id="axes_1">
   <g id="patch_2">
    <path d="M 43.78125 228.96 
L 378.58125 228.96 
L 378.58125 7.2 
L 43.78125 7.2 
z
" style="fill: #ffffff"/>
   </g>
   <g id="matplotlib.axis_1">
    <g id="xtick_1">
     <g id="line2d_1">
      <path d="M 58.999432 228.96 
L 58.999432 7.2 
" clip-path="url(#p130f7855cb)" style="fill: none; stroke: #b0b0b0; stroke-width: 0.8; stroke-linecap: square"/>
     </g>
     <g id="line2d_2">
      <defs>
       <path id="mfde57fbb27" d="M 0 0 
L 0 3.5 
" style="stroke: #000000; stroke-width: 0.8"/>
      </defs>
      <g>
       <use xlink:href="#mfde57fbb27" x="58.999432" y="228.96" style="stroke: #000000; stroke-width: 0.8"/>
      </g>
     </g>
     <g id="text_1">
      <!-- 0 -->
      <g transform="translate(55.818182 243.558437) scale(0.1 -0.1)">
       <defs>
        <path id="DejaVuSans-30" d="M 2034 4250 
Q 1547 4250 1301 3770 
Q 1056 3291 1056 2328 
Q 1056 1369 1301 889 
Q 1547 409 2034 409 
Q 2525 409 2770 889 
Q 3016 1369 3016 2328 
Q 3016 3291 2770 3770 
Q 2525 4250 2034 4250 
z
M 2034 4750 
Q 2819 4750 3233 4129 
Q 3647 3509 3647 2328 
Q 3647 1150 3233 529 
Q 2819 -91 2034 -91 
Q 1250 -91 836 529 
Q 422 1150 422 2328 
Q 422 3509 836 4129 
Q 1250 4750 2034 4750 
z
" transform="scale(0.015625)"/>
       </defs>
       <use xlink:href="#DejaVuSans-30"/>
      </g>
     </g>
    </g>
    <g id="xtick_2">
     <g id="line2d_3">
      <path d="M 109.726705 228.96 
L 109.726705 7.2 
" clip-path="url(#p130f7855cb)" style="fill: none; stroke: #b0b0b0; stroke-width: 0.8; stroke-linecap: square"/>
     </g>
     <g id="line2d_4">
      <g>
       <use xlink:href="#mfde57fbb27" x="109.726705" y="228.96" style="stroke: #000000; stroke-width: 0.8"/>
      </g>
     </g>
     <g id="text_2">
      <!-- 50 -->
      <g transform="translate(103.364205 243.558437) scale(0.1 -0.1)">
       <defs>
        <path id="DejaVuSans-35" d="M 691 4666 
L 3169 4666 
L 3169 4134 
L 1269 4134 
L 1269 2991 
Q 1406 3038 1543 3061 
Q 1681 3084 1819 3084 
Q 2600 3084 3056 2656 
Q 3513 2228 3513 1497 
Q 3513 744 3044 326 
Q 2575 -91 1722 -91 
Q 1428 -91 1123 -41 
Q 819 9 494 109 
L 494 744 
Q 775 591 1075 516 
Q 1375 441 1709 441 
Q 2250 441 2565 725 
Q 2881 1009 2881 1497 
Q 2881 1984 2565 2268 
Q 2250 2553 1709 2553 
Q 1456 2553 1204 2497 
Q 953 2441 691 2322 
L 691 4666 
z
" transform="scale(0.015625)"/>
       </defs>
       <use xlink:href="#DejaVuSans-35"/>
       <use xlink:href="#DejaVuSans-30" x="63.623047"/>
      </g>
     </g>
    </g>
    <g id="xtick_3">
     <g id="line2d_5">
      <path d="M 160.453977 228.96 
L 160.453977 7.2 
" clip-path="url(#p130f7855cb)" style="fill: none; stroke: #b0b0b0; stroke-width: 0.8; stroke-linecap: square"/>
     </g>
     <g id="line2d_6">
      <g>
       <use xlink:href="#mfde57fbb27" x="160.453977" y="228.96" style="stroke: #000000; stroke-width: 0.8"/>
      </g>
     </g>
     <g id="text_3">
      <!-- 100 -->
      <g transform="translate(150.910227 243.558437) scale(0.1 -0.1)">
       <defs>
        <path id="DejaVuSans-31" d="M 794 531 
L 1825 531 
L 1825 4091 
L 703 3866 
L 703 4441 
L 1819 4666 
L 2450 4666 
L 2450 531 
L 3481 531 
L 3481 0 
L 794 0 
L 794 531 
z
" transform="scale(0.015625)"/>
       </defs>
       <use xlink:href="#DejaVuSans-31"/>
       <use xlink:href="#DejaVuSans-30" x="63.623047"/>
       <use xlink:href="#DejaVuSans-30" x="127.246094"/>
      </g>
     </g>
    </g>
    <g id="xtick_4">
     <g id="line2d_7">
      <path d="M 211.18125 228.96 
L 211.18125 7.2 
" clip-path="url(#p130f7855cb)" style="fill: none; stroke: #b0b0b0; stroke-width: 0.8; stroke-linecap: square"/>
     </g>
     <g id="line2d_8">
      <g>
       <use xlink:href="#mfde57fbb27" x="211.18125" y="228.96" style="stroke: #000000; stroke-width: 0.8"/>
      </g>
     </g>
     <g id="text_4">
      <!-- 150 -->
      <g transform="translate(201.6375 243.558437) scale(0.1 -0.1)">
       <use xlink:href="#DejaVuSans-31"/>
       <use xlink:href="#DejaVuSans-35" x="63.623047"/>
       <use xlink:href="#DejaVuSans-30" x="127.246094"/>
      </g>
     </g>
    </g>
    <g id="xtick_5">
     <g id="line2d_9">
      <path d="M 261.908523 228.96 
L 261.908523 7.2 
" clip-path="url(#p130f7855cb)" style="fill: none; stroke: #b0b0b0; stroke-width: 0.8; stroke-linecap: square"/>
     </g>
     <g id="line2d_10">
      <g>
       <use xlink:href="#mfde57fbb27" x="261.908523" y="228.96" style="stroke: #000000; stroke-width: 0.8"/>
      </g>
     </g>
     <g id="text_5">
      <!-- 200 -->
      <g transform="translate(252.364773 243.558437) scale(0.1 -0.1)">
       <defs>
        <path id="DejaVuSans-32" d="M 1228 531 
L 3431 531 
L 3431 0 
L 469 0 
L 469 531 
Q 828 903 1448 1529 
Q 2069 2156 2228 2338 
Q 2531 2678 2651 2914 
Q 2772 3150 2772 3378 
Q 2772 3750 2511 3984 
Q 2250 4219 1831 4219 
Q 1534 4219 1204 4116 
Q 875 4013 500 3803 
L 500 4441 
Q 881 4594 1212 4672 
Q 1544 4750 1819 4750 
Q 2544 4750 2975 4387 
Q 3406 4025 3406 3419 
Q 3406 3131 3298 2873 
Q 3191 2616 2906 2266 
Q 2828 2175 2409 1742 
Q 1991 1309 1228 531 
z
" transform="scale(0.015625)"/>
       </defs>
       <use xlink:href="#DejaVuSans-32"/>
       <use xlink:href="#DejaVuSans-30" x="63.623047"/>
       <use xlink:href="#DejaVuSans-30" x="127.246094"/>
      </g>
     </g>
    </g>
    <g id="xtick_6">
     <g id="line2d_11">
      <path d="M 312.635795 228.96 
L 312.635795 7.2 
" clip-path="url(#p130f7855cb)" style="fill: none; stroke: #b0b0b0; stroke-width: 0.8; stroke-linecap: square"/>
     </g>
     <g id="line2d_12">
      <g>
       <use xlink:href="#mfde57fbb27" x="312.635795" y="228.96" style="stroke: #000000; stroke-width: 0.8"/>
      </g>
     </g>
     <g id="text_6">
      <!-- 250 -->
      <g transform="translate(303.092045 243.558437) scale(0.1 -0.1)">
       <use xlink:href="#DejaVuSans-32"/>
       <use xlink:href="#DejaVuSans-35" x="63.623047"/>
       <use xlink:href="#DejaVuSans-30" x="127.246094"/>
      </g>
     </g>
    </g>
    <g id="xtick_7">
     <g id="line2d_13">
      <path d="M 363.363068 228.96 
L 363.363068 7.2 
" clip-path="url(#p130f7855cb)" style="fill: none; stroke: #b0b0b0; stroke-width: 0.8; stroke-linecap: square"/>
     </g>
     <g id="line2d_14">
      <g>
       <use xlink:href="#mfde57fbb27" x="363.363068" y="228.96" style="stroke: #000000; stroke-width: 0.8"/>
      </g>
     </g>
     <g id="text_7">
      <!-- 300 -->
      <g transform="translate(353.819318 243.558437) scale(0.1 -0.1)">
       <defs>
        <path id="DejaVuSans-33" d="M 2597 2516 
Q 3050 2419 3304 2112 
Q 3559 1806 3559 1356 
Q 3559 666 3084 287 
Q 2609 -91 1734 -91 
Q 1441 -91 1130 -33 
Q 819 25 488 141 
L 488 750 
Q 750 597 1062 519 
Q 1375 441 1716 441 
Q 2309 441 2620 675 
Q 2931 909 2931 1356 
Q 2931 1769 2642 2001 
Q 2353 2234 1838 2234 
L 1294 2234 
L 1294 2753 
L 1863 2753 
Q 2328 2753 2575 2939 
Q 2822 3125 2822 3475 
Q 2822 3834 2567 4026 
Q 2313 4219 1838 4219 
Q 1578 4219 1281 4162 
Q 984 4106 628 3988 
L 628 4550 
Q 988 4650 1302 4700 
Q 1616 4750 1894 4750 
Q 2613 4750 3031 4423 
Q 3450 4097 3450 3541 
Q 3450 3153 3228 2886 
Q 3006 2619 2597 2516 
z
" transform="scale(0.015625)"/>
       </defs>
       <use xlink:href="#DejaVuSans-33"/>
       <use xlink:href="#DejaVuSans-30" x="63.623047"/>
       <use xlink:href="#DejaVuSans-30" x="127.246094"/>
      </g>
     </g>
    </g>
    <g id="text_8">
     <!-- Time / s -->
     <g transform="translate(191.480469 257.236562) scale(0.1 -0.1)">
      <defs>
       <path id="DejaVuSans-54" d="M -19 4666 
L 3928 4666 
L 3928 4134 
L 2272 4134 
L 2272 0 
L 1638 0 
L 1638 4134 
L -19 4134 
L -19 4666 
z
" transform="scale(0.015625)"/>
       <path id="DejaVuSans-69" d="M 603 3500 
L 1178 3500 
L 1178 0 
L 603 0 
L 603 3500 
z
M 603 4863 
L 1178 4863 
L 1178 4134 
L 603 4134 
L 603 4863 
z
" transform="scale(0.015625)"/>
       <path id="DejaVuSans-6d" d="M 3328 2828 
Q 3544 3216 3844 3400 
Q 4144 3584 4550 3584 
Q 5097 3584 5394 3201 
Q 5691 2819 5691 2113 
L 5691 0 
L 5113 0 
L 5113 2094 
Q 5113 2597 4934 2840 
Q 4756 3084 4391 3084 
Q 3944 3084 3684 2787 
Q 3425 2491 3425 1978 
L 3425 0 
L 2847 0 
L 2847 2094 
Q 2847 2600 2669 2842 
Q 2491 3084 2119 3084 
Q 1678 3084 1418 2786 
Q 1159 2488 1159 1978 
L 1159 0 
L 581 0 
L 581 3500 
L 1159 3500 
L 1159 2956 
Q 1356 3278 1631 3431 
Q 1906 3584 2284 3584 
Q 2666 3584 2933 3390 
Q 3200 3197 3328 2828 
z
" transform="scale(0.015625)"/>
       <path id="DejaVuSans-65" d="M 3597 1894 
L 3597 1613 
L 953 1613 
Q 991 1019 1311 708 
Q 1631 397 2203 397 
Q 2534 397 2845 478 
Q 3156 559 3463 722 
L 3463 178 
Q 3153 47 2828 -22 
Q 2503 -91 2169 -91 
Q 1331 -91 842 396 
Q 353 884 353 1716 
Q 353 2575 817 3079 
Q 1281 3584 2069 3584 
Q 2775 3584 3186 3129 
Q 3597 2675 3597 1894 
z
M 3022 2063 
Q 3016 2534 2758 2815 
Q 2500 3097 2075 3097 
Q 1594 3097 1305 2825 
Q 1016 2553 972 2059 
L 3022 2063 
z
" transform="scale(0.015625)"/>
       <path id="DejaVuSans-20" transform="scale(0.015625)"/>
       <path id="DejaVuSans-2f" d="M 1625 4666 
L 2156 4666 
L 531 -594 
L 0 -594 
L 1625 4666 
z
" transform="scale(0.015625)"/>
       <path id="DejaVuSans-73" d="M 2834 3397 
L 2834 2853 
Q 2591 2978 2328 3040 
Q 2066 3103 1784 3103 
Q 1356 3103 1142 2972 
Q 928 2841 928 2578 
Q 928 2378 1081 2264 
Q 1234 2150 1697 2047 
L 1894 2003 
Q 2506 1872 2764 1633 
Q 3022 1394 3022 966 
Q 3022 478 2636 193 
Q 2250 -91 1575 -91 
Q 1294 -91 989 -36 
Q 684 19 347 128 
L 347 722 
Q 666 556 975 473 
Q 1284 391 1588 391 
Q 1994 391 2212 530 
Q 2431 669 2431 922 
Q 2431 1156 2273 1281 
Q 2116 1406 1581 1522 
L 1381 1569 
Q 847 1681 609 1914 
Q 372 2147 372 2553 
Q 372 3047 722 3315 
Q 1072 3584 1716 3584 
Q 2034 3584 2315 3537 
Q 2597 3491 2834 3397 
z
" transform="scale(0.015625)"/>
      </defs>
      <use xlink:href="#DejaVuSans-54"/>
      <use xlink:href="#DejaVuSans-69" x="57.958984"/>
      <use xlink:href="#DejaVuSans-6d" x="85.742188"/>
      <use xlink:href="#DejaVuSans-65" x="183.154297"/>
      <use xlink:href="#DejaVuSans-20" x="244.677734"/>
      <use xlink:href="#DejaVuSans-2f" x="276.464844"/>
      <use xlink:href="#DejaVuSans-20" x="310.15625"/>
      <use xlink:href="#DejaVuSans-73" x="341.943359"/>
     </g>
    </g>
   </g>
   <g id="matplotlib.axis_2">
    <g id="ytick_1">
     <g id="line2d_15">
      <path d="M 43.78125 218.88 
L 378.58125 218.88 
" clip-path="url(#p130f7855cb)" style="fill: none; stroke: #b0b0b0; stroke-width: 0.8; stroke-linecap: square"/>
     </g>
     <g id="line2d_16">
      <defs>
       <path id="mfd264f979f" d="M 0 0 
L -3.5 0 
" style="stroke: #000000; stroke-width: 0.8"/>
      </defs>
      <g>
       <use xlink:href="#mfd264f979f" x="43.78125" y="218.88" style="stroke: #000000; stroke-width: 0.8"/>
      </g>
     </g>
     <g id="text_9">
      <!-- 0.0 -->
      <g transform="translate(20.878125 222.679219) scale(0.1 -0.1)">
       <defs>
        <path id="DejaVuSans-2e" d="M 684 794 
L 1344 794 
L 1344 0 
L 684 0 
L 684 794 
z
" transform="scale(0.015625)"/>
       </defs>
       <use xlink:href="#DejaVuSans-30"/>
       <use xlink:href="#DejaVuSans-2e" x="63.623047"/>
       <use xlink:href="#DejaVuSans-30" x="95.410156"/>
      </g>
     </g>
    </g>
    <g id="ytick_2">
     <g id="line2d_17">
      <path d="M 43.78125 173.061819 
L 378.58125 173.061819 
" clip-path="url(#p130f7855cb)" style="fill: none; stroke: #b0b0b0; stroke-width: 0.8; stroke-linecap: square"/>
     </g>
     <g id="line2d_18">
      <g>
       <use xlink:href="#mfd264f979f" x="43.78125" y="173.061819" style="stroke: #000000; stroke-width: 0.8"/>
      </g>
     </g>
     <g id="text_10">
      <!-- 0.5 -->
      <g transform="translate(20.878125 176.861038) scale(0.1 -0.1)">
       <use xlink:href="#DejaVuSans-30"/>
       <use xlink:href="#DejaVuSans-2e" x="63.623047"/>
       <use xlink:href="#DejaVuSans-35" x="95.410156"/>
      </g>
     </g>
    </g>
    <g id="ytick_3">
     <g id="line2d_19">
      <path d="M 43.78125 127.243638 
L 378.58125 127.243638 
" clip-path="url(#p130f7855cb)" style="fill: none; stroke: #b0b0b0; stroke-width: 0.8; stroke-linecap: square"/>
     </g>
     <g id="line2d_20">
      <g>
       <use xlink:href="#mfd264f979f" x="43.78125" y="127.243638" style="stroke: #000000; stroke-width: 0.8"/>
      </g>
     </g>
     <g id="text_11">
      <!-- 1.0 -->
      <g transform="translate(20.878125 131.042857) scale(0.1 -0.1)">
       <use xlink:href="#DejaVuSans-31"/>
       <use xlink:href="#DejaVuSans-2e" x="63.623047"/>
       <use xlink:href="#DejaVuSans-30" x="95.410156"/>
      </g>
     </g>
    </g>
    <g id="ytick_4">
     <g id="line2d_21">
      <path d="M 43.78125 81.425458 
L 378.58125 81.425458 
" clip-path="url(#p130f7855cb)" style="fill: none; stroke: #b0b0b0; stroke-width: 0.8; stroke-linecap: square"/>
     </g>
     <g id="line2d_22">
      <g>
       <use xlink:href="#mfd264f979f" x="43.78125" y="81.425458" style="stroke: #000000; stroke-width: 0.8"/>
      </g>
     </g>
     <g id="text_12">
      <!-- 1.5 -->
      <g transform="translate(20.878125 85.224676) scale(0.1 -0.1)">
       <use xlink:href="#DejaVuSans-31"/>
       <use xlink:href="#DejaVuSans-2e" x="63.623047"/>
       <use xlink:href="#DejaVuSans-35" x="95.410156"/>
      </g>
     </g>
    </g>
    <g id="ytick_5">
     <g id="line2d_23">
      <path d="M 43.78125 35.607277 
L 378.58125 35.607277 
" clip-path="url(#p130f7855cb)" style="fill: none; stroke: #b0b0b0; stroke-width: 0.8; stroke-linecap: square"/>
     </g>
     <g id="line2d_24">
      <g>
       <use xlink:href="#mfd264f979f" x="43.78125" y="35.607277" style="stroke: #000000; stroke-width: 0.8"/>
      </g>
     </g>
     <g id="text_13">
      <!-- 2.0 -->
      <g transform="translate(20.878125 39.406495) scale(0.1 -0.1)">
       <use xlink:href="#DejaVuSans-32"/>
       <use xlink:href="#DejaVuSans-2e" x="63.623047"/>
       <use xlink:href="#DejaVuSans-30" x="95.410156"/>
      </g>
     </g>
    </g>
    <g id="text_14">
     <!-- Height / m -->
     <g transform="translate(14.798438 144.341719) rotate(-90) scale(0.1 -0.1)">
      <defs>
       <path id="DejaVuSans-48" d="M 628 4666 
L 1259 4666 
L 1259 2753 
L 3553 2753 
L 3553 4666 
L 4184 4666 
L 4184 0 
L 3553 0 
L 3553 2222 
L 1259 2222 
L 1259 0 
L 628 0 
L 628 4666 
z
" transform="scale(0.015625)"/>
       <path id="DejaVuSans-67" d="M 2906 1791 
Q 2906 2416 2648 2759 
Q 2391 3103 1925 3103 
Q 1463 3103 1205 2759 
Q 947 2416 947 1791 
Q 947 1169 1205 825 
Q 1463 481 1925 481 
Q 2391 481 2648 825 
Q 2906 1169 2906 1791 
z
M 3481 434 
Q 3481 -459 3084 -895 
Q 2688 -1331 1869 -1331 
Q 1566 -1331 1297 -1286 
Q 1028 -1241 775 -1147 
L 775 -588 
Q 1028 -725 1275 -790 
Q 1522 -856 1778 -856 
Q 2344 -856 2625 -561 
Q 2906 -266 2906 331 
L 2906 616 
Q 2728 306 2450 153 
Q 2172 0 1784 0 
Q 1141 0 747 490 
Q 353 981 353 1791 
Q 353 2603 747 3093 
Q 1141 3584 1784 3584 
Q 2172 3584 2450 3431 
Q 2728 3278 2906 2969 
L 2906 3500 
L 3481 3500 
L 3481 434 
z
" transform="scale(0.015625)"/>
       <path id="DejaVuSans-68" d="M 3513 2113 
L 3513 0 
L 2938 0 
L 2938 2094 
Q 2938 2591 2744 2837 
Q 2550 3084 2163 3084 
Q 1697 3084 1428 2787 
Q 1159 2491 1159 1978 
L 1159 0 
L 581 0 
L 581 4863 
L 1159 4863 
L 1159 2956 
Q 1366 3272 1645 3428 
Q 1925 3584 2291 3584 
Q 2894 3584 3203 3211 
Q 3513 2838 3513 2113 
z
" transform="scale(0.015625)"/>
       <path id="DejaVuSans-74" d="M 1172 4494 
L 1172 3500 
L 2356 3500 
L 2356 3053 
L 1172 3053 
L 1172 1153 
Q 1172 725 1289 603 
Q 1406 481 1766 481 
L 2356 481 
L 2356 0 
L 1766 0 
Q 1100 0 847 248 
Q 594 497 594 1153 
L 594 3053 
L 172 3053 
L 172 3500 
L 594 3500 
L 594 4494 
L 1172 4494 
z
" transform="scale(0.015625)"/>
      </defs>
      <use xlink:href="#DejaVuSans-48"/>
      <use xlink:href="#DejaVuSans-65" x="75.195312"/>
      <use xlink:href="#DejaVuSans-69" x="136.71875"/>
      <use xlink:href="#DejaVuSans-67" x="164.501953"/>
      <use xlink:href="#DejaVuSans-68" x="227.978516"/>
      <use xlink:href="#DejaVuSans-74" x="291.357422"/>
      <use xlink:href="#DejaVuSans-20" x="330.566406"/>
      <use xlink:href="#DejaVuSans-2f" x="362.353516"/>
      <use xlink:href="#DejaVuSans-20" x="396.044922"/>
      <use xlink:href="#DejaVuSans-6d" x="427.832031"/>
     </g>
    </g>
   </g>
   <g id="line2d_25">
    <path d="M 58.999432 17.28 
L 59.323885 17.28 
L 59.63366 33.63 
L 59.920166 38.58 
L 60.229719 39.18 
L 60.523157 34.68 
L 60.826554 33.18 
L 61.139355 29.28 
L 61.437215 32.28 
L 61.740212 32.58 
L 62.043859 32.13 
L 62.354726 33.33 
L 62.655567 36.33 
L 62.956407 36.63 
L 63.267275 34.98 
L 63.568115 36.33 
L 63.8783 39.18 
L 64.178753 39.63 
L 64.482156 41.28 
L 64.789247 41.58 
L 65.091835 40.23 
L 65.392155 40.08 
L 65.7027 40.83 
L 66.007699 44.28 
L 66.304992 43.23 
L 66.613502 43.23 
L 66.912989 42.78 
L 67.525146 41.28 
L 67.834737 42.48 
L 68.131413 44.58 
L 68.439894 41.43 
L 68.746479 44.88 
L 69.045327 46.68 
L 69.352178 46.38 
L 69.655162 48.33 
L 69.957872 48.33 
L 70.265239 41.73 
L 70.567695 43.98 
L 70.876442 48.93 
L 71.478676 53.43 
L 71.788751 51.03 
L 72.095732 51.18 
L 72.394891 54.78 
L 72.705758 51.03 
L 73.000737 52.53 
L 73.305892 52.08 
L 73.913493 44.28 
L 74.224807 45.93 
L 74.529272 50.13 
L 74.834051 51.18 
L 75.139693 50.58 
L 75.442271 51.63 
L 75.740659 54.33 
L 76.049781 55.23 
L 76.357777 58.53 
L 76.656216 60.33 
L 76.962 59.88 
L 77.262528 57.78 
L 77.565837 58.08 
L 77.879291 59.58 
L 78.185613 60.48 
L 78.791925 60.48 
L 79.088355 64.08 
L 79.392009 64.53 
L 79.707086 65.73 
L 80.312942 70.83 
L 80.614211 69.03 
L 80.918656 69.18 
L 81.218018 69.78 
L 81.530244 67.98 
L 81.828693 68.58 
L 82.438161 72.03 
L 82.741936 70.83 
L 83.044382 72.03 
L 83.660627 69.63 
L 83.965884 70.38 
L 84.27046 68.43 
L 84.570401 68.43 
L 84.871112 67.68 
L 85.181989 69.78 
L 85.788931 66.78 
L 86.091499 69.33 
L 86.401787 69.63 
L 86.701464 69.03 
L 87.009713 70.38 
L 87.305859 70.23 
L 87.617213 71.13 
L 87.922114 72.93 
L 88.221314 72.63 
L 88.533022 71.28 
L 88.828255 70.68 
L 89.134658 70.83 
L 89.443942 72.03 
L 89.744917 69.48 
L 90.049484 69.93 
L 90.659946 68.28 
L 90.962869 72.63 
L 91.270997 75.33 
L 91.572682 76.53 
L 91.871892 76.08 
L 92.182627 79.08 
L 92.484373 80.88 
L 93.089985 79.68 
L 93.396581 79.83 
L 93.70619 81.33 
L 94.010716 82.08 
L 94.310473 83.58 
L 94.922041 88.83 
L 95.219638 88.68 
L 95.534086 89.28 
L 95.836126 89.58 
L 96.740959 93.93 
L 97.045982 92.73 
L 97.35412 90.48 
L 97.659762 90.63 
L 98.270934 93.33 
L 98.568896 95.73 
L 98.879256 95.43 
L 99.179064 96.03 
L 100.402129 101.58 
L 100.706959 101.28 
L 101.006859 102.33 
L 101.618082 99.48 
L 101.921634 101.58 
L 102.221625 102.18 
L 102.529925 104.43 
L 102.830312 102.93 
L 103.136065 102.18 
L 103.438704 102.18 
L 103.751143 103.53 
L 104.050485 103.23 
L 104.663108 105.63 
L 104.966508 106.08 
L 105.267463 106.83 
L 105.568823 108.48 
L 105.876342 108.78 
L 106.186864 108.03 
L 106.489696 107.88 
L 106.788835 106.83 
L 107.093269 104.58 
L 107.402675 106.08 
L 107.701104 106.68 
L 108.012731 109.53 
L 108.311363 108.48 
L 108.618608 108.33 
L 108.915535 107.88 
L 109.219442 110.43 
L 110.139594 112.83 
L 110.438489 112.08 
L 110.744385 112.98 
L 111.050656 112.23 
L 111.360102 112.23 
L 111.656877 111.03 
L 111.962884 112.08 
L 112.27159 112.08 
L 112.567614 113.13 
L 112.872526 113.58 
L 113.185341 115.98 
L 113.486742 115.83 
L 113.789097 115.23 
L 114.098036 115.68 
L 114.699124 117.18 
L 115.005608 116.28 
L 115.312772 116.43 
L 115.611738 116.73 
L 115.920738 114.48 
L 116.224493 114.78 
L 116.526756 115.83 
L 116.832479 116.28 
L 117.133181 115.23 
L 117.750958 117.03 
L 118.050959 118.38 
L 118.358376 116.58 
L 118.660437 117.93 
L 118.970482 116.58 
L 119.27101 116.28 
L 119.879413 117.48 
L 120.184091 116.88 
L 120.49088 117.63 
L 120.795111 119.13 
L 121.089735 118.08 
L 121.399953 119.28 
L 121.70389 118.98 
L 122.011602 118.98 
L 122.315398 117.48 
L 122.620482 118.23 
L 122.920138 117.48 
L 123.221813 118.08 
L 123.533826 118.23 
L 123.833016 116.58 
L 124.136263 116.73 
L 124.43944 116.13 
L 124.74495 117.18 
L 125.048928 117.63 
L 125.354124 118.98 
L 125.961573 118.53 
L 126.267093 120.78 
L 126.568656 121.23 
L 126.876611 121.08 
L 127.18618 119.88 
L 127.491324 119.73 
L 127.795242 120.18 
L 128.09508 118.98 
L 128.394402 118.68 
L 128.704853 120.33 
L 129.315203 121.83 
L 129.620592 122.28 
L 129.92596 122.43 
L 130.225585 122.88 
L 130.840593 122.28 
L 131.136759 122.73 
L 131.438474 122.13 
L 131.752902 123.48 
L 132.358535 120.93 
L 132.662229 121.08 
L 132.966674 120.78 
L 133.577633 118.98 
L 134.180456 120.33 
L 134.492003 120.33 
L 134.788331 121.08 
L 135.404109 123.48 
L 135.709102 123.03 
L 136.315658 120.63 
L 136.613843 120.63 
L 136.922884 120.18 
L 137.227227 119.13 
L 137.844111 120.18 
L 138.139851 120.93 
L 138.445088 120.93 
L 138.747909 120.78 
L 139.051289 120.33 
L 139.353491 120.93 
L 139.664044 121.83 
L 139.962746 122.28 
L 140.265142 121.98 
L 140.577368 119.73 
L 140.88025 119.88 
L 141.182362 120.93 
L 141.486614 120.03 
L 142.094651 121.38 
L 142.405985 120.48 
L 142.702577 121.53 
L 143.003866 121.38 
L 143.309793 121.38 
L 143.612604 121.98 
L 143.924729 121.53 
L 144.223675 121.53 
L 144.532421 122.73 
L 144.837759 123.33 
L 145.138379 123.18 
L 145.444863 124.38 
L 145.751672 123.93 
L 146.360916 125.58 
L 147.273591 122.88 
L 147.885616 124.98 
L 148.178616 123.03 
L 148.495682 123.18 
L 148.788947 124.53 
L 149.092996 125.28 
L 149.402757 126.78 
L 149.702951 124.98 
L 150.013107 125.13 
L 150.310998 123.93 
L 150.624117 123.33 
L 150.927791 123.33 
L 151.223227 123.63 
L 151.535098 123.33 
L 151.836022 123.48 
L 152.138753 124.38 
L 152.753385 124.83 
L 153.049571 125.58 
L 153.362294 125.28 
L 153.659343 124.83 
L 153.964092 125.58 
L 154.267502 126.03 
L 154.580652 125.43 
L 154.876635 125.13 
L 155.178818 124.53 
L 155.483232 123.63 
L 155.788793 125.28 
L 156.399133 123.03 
L 157.313411 126.93 
L 157.616253 127.08 
L 157.918182 126.78 
L 158.53884 127.83 
L 158.835899 127.08 
L 159.142282 127.38 
L 159.446615 126.48 
L 159.751273 128.28 
L 160.054926 127.53 
L 160.359432 125.88 
L 160.666829 126.93 
L 160.964091 126.78 
L 161.270686 127.08 
L 161.874442 129.03 
L 162.187835 127.38 
L 162.483373 127.53 
L 163.100419 126.78 
L 163.399609 127.08 
L 163.710668 127.08 
L 164.010669 126.18 
L 164.311989 126.03 
L 164.617976 126.63 
L 164.91889 127.83 
L 165.229443 127.53 
L 165.528734 125.73 
L 165.842127 127.68 
L 166.145273 126.93 
L 166.75187 128.58 
L 167.059175 128.13 
L 167.363438 126.78 
L 167.664352 124.53 
L 167.964657 123.18 
L 168.27521 123.33 
L 168.578965 124.98 
L 169.179677 124.53 
L 170.406871 129.93 
L 170.70393 129.78 
L 171.007279 129.93 
L 171.314686 129.63 
L 171.624224 128.88 
L 171.924225 127.83 
L 172.529402 127.38 
L 172.839853 126.48 
L 173.139143 125.13 
L 173.448783 126.78 
L 173.74574 126.63 
L 174.051626 127.38 
L 174.356598 129.33 
L 174.97334 128.58 
L 175.274965 128.88 
L 175.581154 127.83 
L 175.885721 127.23 
L 176.495057 126.63 
L 176.791913 126.48 
L 177.397089 123.33 
L 177.710077 123.33 
L 178.010078 124.53 
L 178.321137 124.83 
L 178.618906 127.38 
L 179.236257 129.33 
L 179.536766 128.58 
L 180.142551 130.23 
L 180.443363 129.33 
L 180.747118 127.68 
L 181.053511 128.28 
L 181.356759 127.08 
L 181.66305 127.08 
L 181.965892 127.68 
L 182.273299 127.53 
L 182.882432 127.83 
L 183.182332 129.33 
L 183.496029 129.63 
L 183.799074 130.23 
L 184.104148 130.38 
L 184.399888 130.68 
L 184.701715 129.63 
L 185.007905 127.53 
L 185.318457 126.63 
L 186.232867 130.68 
L 186.538347 130.98 
L 186.838043 129.33 
L 187.141798 130.68 
L 187.447177 129.93 
L 187.753975 128.58 
L 188.061788 129.33 
L 188.658645 130.08 
L 188.972444 130.53 
L 189.268691 130.23 
L 189.578635 131.28 
L 189.880259 130.68 
L 190.495074 128.43 
L 191.100961 127.68 
L 191.406846 128.28 
L 192.008979 126.33 
L 192.314458 126.93 
L 193.233535 127.83 
L 193.528971 127.53 
L 193.834653 127.98 
L 194.144191 128.73 
L 194.757382 128.73 
L 195.35779 129.63 
L 195.660125 128.58 
L 195.97088 127.98 
L 196.268243 127.98 
L 196.88529 128.88 
L 197.487626 128.43 
L 197.795743 129.63 
L 198.104368 129.63 
L 198.401528 130.08 
L 198.70295 130.83 
L 199.019082 130.98 
L 199.626287 128.43 
L 200.224362 129.03 
L 200.530146 128.88 
L 201.140598 128.88 
L 201.447599 130.83 
L 201.75034 130.98 
L 202.051558 130.53 
L 202.362009 130.53 
L 202.970229 129.03 
L 203.268709 129.03 
L 203.574391 130.98 
L 203.878349 130.08 
L 204.186771 130.23 
L 204.492656 130.23 
L 204.798643 130.38 
L 205.103717 131.28 
L 205.40595 130.98 
L 205.711328 129.93 
L 206.014576 131.13 
L 206.316809 130.23 
L 206.622593 130.23 
L 206.930507 130.83 
L 207.233755 130.23 
L 207.535684 130.38 
L 207.835989 130.98 
L 208.140454 130.38 
L 208.449688 130.98 
L 209.359126 128.43 
L 209.973738 129.33 
L 210.272826 129.03 
L 210.578306 129.78 
L 210.882162 129.78 
L 211.185004 130.38 
L 211.48673 130.08 
L 211.798398 129.93 
L 212.105602 130.68 
L 212.405096 130.38 
L 212.703575 129.33 
L 213.014331 129.93 
L 213.314636 129.63 
L 213.616666 129.63 
L 213.932089 128.88 
L 214.235336 129.33 
L 214.531482 128.88 
L 214.833715 129.18 
L 215.147615 129.78 
L 215.446805 131.28 
L 215.758676 131.58 
L 216.053605 130.83 
L 216.35949 130.68 
L 216.669637 129.48 
L 216.966493 131.13 
L 217.280596 130.83 
L 217.58222 130.98 
L 217.878062 131.43 
L 218.19115 131.28 
L 218.49176 130.68 
L 218.795414 130.68 
L 219.106879 129.18 
L 219.713476 129.93 
L 220.015405 129.48 
L 220.314695 130.68 
L 220.618247 130.68 
L 221.228902 129.48 
L 221.530527 129.33 
L 221.837224 130.38 
L 222.145341 129.63 
L 222.443618 129.33 
L 222.755185 130.08 
L 223.055693 128.28 
L 223.36797 128.28 
L 223.667058 129.48 
L 223.972436 127.98 
L 224.584613 129.93 
L 224.878324 129.63 
L 225.187354 130.08 
L 225.495776 129.78 
L 225.791516 130.68 
L 226.711202 127.68 
L 227.016986 127.68 
L 227.318914 128.43 
L 227.621959 130.83 
L 227.929975 132.33 
L 228.238093 131.58 
L 228.537181 131.88 
L 229.148241 130.53 
L 229.44875 130.53 
L 229.756969 129.93 
L 230.059607 130.38 
L 230.356362 129.78 
L 230.66661 129.48 
L 230.971379 130.68 
L 231.271685 130.83 
L 231.576353 131.13 
L 231.88163 131.88 
L 232.186906 131.88 
L 232.491879 132.18 
L 232.799083 131.88 
L 233.105374 132.03 
L 233.4001 132.33 
L 233.707406 131.58 
L 234.01603 132.03 
L 234.626584 131.58 
L 234.933484 133.08 
L 235.236123 133.08 
L 235.533993 133.38 
L 235.836531 134.13 
L 236.444243 132.63 
L 236.751752 133.38 
L 237.063826 132.63 
L 237.359465 131.28 
L 237.973772 132.03 
L 238.271744 131.13 
L 238.575398 131.73 
L 238.88108 132.63 
L 239.18798 131.73 
L 239.491025 131.43 
L 239.795287 130.53 
L 240.106042 131.28 
L 240.408377 132.78 
L 240.716291 133.68 
L 241.015887 132.78 
L 241.317917 132.93 
L 241.62431 130.83 
L 241.928978 130.98 
L 242.838315 130.23 
L 243.140041 132.33 
L 243.454854 132.93 
L 243.752623 132.18 
L 244.054755 132.63 
L 244.665511 131.58 
L 244.967846 129.93 
L 245.57495 128.88 
L 245.886314 127.83 
L 246.189257 128.28 
L 246.488649 128.43 
L 246.800419 127.83 
L 247.107218 128.13 
L 247.405088 129.78 
L 247.708539 130.53 
L 248.016149 130.08 
L 248.319701 130.83 
L 248.623456 130.53 
L 248.934718 130.38 
L 249.235531 130.08 
L 249.836142 130.38 
L 250.148318 130.83 
L 250.457145 130.38 
L 251.059582 130.38 
L 251.362931 130.68 
L 252.281805 133.83 
L 252.883837 133.08 
L 253.490535 131.43 
L 254.100784 129.18 
L 254.401799 129.18 
L 254.711743 128.13 
L 255.010121 128.13 
L 255.325036 130.98 
L 255.619558 131.88 
L 255.931633 132.18 
L 256.540461 130.83 
L 256.83752 130.53 
L 257.145739 129.48 
L 257.446349 129.48 
L 257.757104 130.98 
L 258.060961 131.28 
L 258.359338 130.23 
L 258.971414 131.13 
L 259.273748 130.83 
L 260.192318 133.23 
L 260.492319 133.23 
L 260.801451 132.78 
L 261.099727 132.03 
L 261.402163 132.78 
L 261.714947 130.53 
L 262.012108 131.73 
L 262.316066 132.18 
L 262.62327 132.33 
L 262.927126 131.43 
L 263.232809 130.08 
L 263.53839 131.13 
L 264.149654 131.58 
L 264.449147 131.43 
L 264.751279 132.93 
L 265.05544 133.08 
L 265.671675 131.58 
L 265.972995 130.38 
L 266.281619 130.38 
L 268.103033 128.43 
L 268.408715 128.43 
L 268.71247 128.88 
L 269.015921 128.88 
L 269.625257 132.48 
L 270.231143 131.58 
L 270.544029 131.43 
L 270.847784 131.88 
L 271.148495 132.78 
L 271.457729 132.93 
L 271.753875 133.68 
L 272.973155 130.23 
L 273.278432 129.63 
L 273.578738 130.68 
L 273.887768 130.68 
L 274.188682 131.73 
L 274.492539 130.98 
L 274.796699 130.83 
L 275.098425 131.88 
L 275.403093 132.48 
L 275.710805 132.48 
L 276.02014 133.23 
L 276.325214 132.48 
L 276.628969 132.18 
L 276.932318 132.18 
L 277.539827 131.73 
L 277.839321 130.53 
L 278.145004 131.88 
L 279.967939 129.03 
L 280.273114 129.93 
L 280.577174 130.08 
L 280.881639 131.58 
L 281.196046 131.43 
L 281.492497 131.58 
L 281.804469 131.28 
L 282.104876 132.48 
L 282.406602 132.33 
L 282.71269 132.48 
L 283.018271 130.38 
L 283.318374 130.23 
L 283.62497 130.23 
L 283.933797 129.63 
L 284.235726 129.48 
L 284.53735 130.98 
L 284.840598 130.53 
L 285.146991 130.83 
L 285.455615 132.33 
L 285.755312 132.48 
L 286.063835 133.68 
L 286.670331 134.13 
L 287.280377 133.53 
L 287.5889 132.33 
L 287.893162 132.33 
L 288.186975 131.73 
L 288.494382 132.48 
L 288.804427 131.58 
L 289.409502 133.53 
L 289.707778 133.38 
L 290.013359 133.53 
L 290.316506 134.73 
L 290.625942 134.28 
L 290.931827 134.43 
L 291.539439 132.33 
L 291.845121 132.33 
L 292.754966 130.83 
L 293.061561 130.98 
L 293.363287 132.03 
L 293.664911 131.88 
L 293.97658 133.08 
L 294.587032 134.28 
L 294.889975 133.68 
L 295.191701 133.38 
L 295.795863 130.98 
L 296.403778 132.03 
L 296.715751 131.28 
L 297.015854 131.88 
L 297.625291 130.38 
L 298.230366 131.58 
L 298.541121 132.03 
L 298.848833 131.88 
L 299.142544 132.63 
L 299.75888 132.18 
L 300.057461 131.28 
L 300.363245 131.28 
L 300.669739 129.78 
L 300.971465 130.53 
L 301.892469 131.58 
L 302.194804 132.03 
L 302.495109 132.18 
L 303.108301 131.73 
L 303.718347 130.23 
L 304.016522 129.78 
L 304.319465 128.13 
L 304.623524 127.83 
L 304.931642 128.43 
L 305.232556 130.08 
L 305.540572 130.53 
L 305.842703 130.68 
L 306.45275 132.03 
L 306.757012 132.48 
L 307.361985 131.58 
L 307.668987 130.68 
L 307.973249 131.28 
L 308.278424 130.08 
L 308.580454 129.93 
L 308.891108 130.08 
L 309.799634 129.03 
L 310.099736 129.63 
L 310.408361 131.13 
L 310.718507 131.88 
L 311.020233 133.68 
L 311.632714 135.18 
L 311.935658 134.88 
L 312.548443 133.53 
L 313.144996 131.28 
L 313.456664 130.83 
L 313.757984 131.43 
L 314.067826 131.28 
L 314.369857 133.53 
L 314.669858 133.53 
L 314.969757 133.23 
L 315.280005 133.98 
L 315.589036 133.68 
L 315.888124 132.78 
L 316.196647 133.83 
L 316.803244 131.88 
L 317.409739 133.38 
L 317.718973 133.83 
L 318.317351 131.43 
L 318.630947 133.38 
L 318.932065 133.23 
L 319.240486 131.28 
L 319.535922 131.43 
L 319.844953 131.43 
L 320.14678 132.63 
L 320.454694 132.18 
L 321.05774 133.53 
L 321.97357 131.13 
L 322.28392 132.03 
L 322.587167 132.03 
L 322.893865 131.73 
L 323.193561 131.13 
L 323.498331 132.18 
L 324.109696 131.43 
L 324.71264 132.18 
L 325.016598 130.83 
L 325.326947 131.58 
L 325.623398 131.88 
L 325.930805 131.58 
L 326.233038 131.73 
L 326.544808 130.53 
L 326.842983 130.98 
L 327.145317 130.68 
L 327.456478 131.28 
L 328.66886 132.48 
L 328.971803 133.08 
L 329.286414 131.88 
L 329.588241 133.23 
L 330.198693 133.98 
L 330.80042 132.18 
L 331.100827 132.18 
L 331.405901 132.03 
L 331.710975 132.18 
L 332.026803 132.48 
L 332.322137 134.73 
L 332.631066 134.43 
L 332.928937 134.88 
L 333.232996 134.13 
L 333.546287 133.98 
L 333.847405 134.28 
L 334.146087 132.48 
L 334.460089 132.18 
L 334.759278 132.63 
L 335.063946 132.78 
L 335.362222 130.98 
L 335.67592 131.13 
L 335.981095 131.73 
L 336.279473 130.98 
L 336.584141 131.88 
L 336.884142 131.88 
L 337.198245 131.43 
L 337.504942 132.03 
L 338.106365 133.68 
L 338.714179 133.38 
L 339.015296 133.68 
L 339.328182 134.28 
L 339.625545 133.83 
L 339.932648 132.78 
L 340.242896 132.78 
L 340.542491 133.08 
L 340.841985 133.83 
L 341.153045 132.78 
L 341.459742 132.78 
L 341.756192 132.33 
L 342.060657 132.33 
L 342.362687 133.53 
L 342.67324 133.53 
L 342.979633 132.18 
L 343.284402 132.78 
L 343.893332 130.68 
L 344.193638 131.58 
L 344.499726 131.28 
L 344.798408 132.93 
L 345.110077 132.93 
L 345.711905 132.33 
L 346.018703 131.43 
L 346.325705 132.03 
L 346.62875 132.03 
L 346.939505 131.73 
L 347.235651 130.83 
L 347.537072 131.43 
L 348.151379 132.03 
L 348.460917 132.63 
L 349.068021 131.88 
L 349.364877 132.18 
L 349.668125 132.18 
L 349.978677 132.33 
L 350.27878 132.78 
L 350.588723 132.93 
L 350.891058 134.58 
L 351.193595 134.13 
L 351.497452 134.43 
L 351.801511 133.83 
L 352.104962 134.88 
L 352.408311 134.13 
L 352.710747 133.83 
L 353.025053 133.68 
L 353.326271 131.73 
L 353.628809 131.58 
L 354.242913 133.08 
L 354.541088 132.93 
L 354.847988 133.23 
L 355.151845 134.28 
L 355.45215 134.73 
L 355.764731 134.58 
L 356.06037 134.13 
L 356.366864 132.78 
L 356.670822 132.78 
L 356.9762 131.28 
L 357.276404 132.48 
L 357.592841 131.88 
L 357.884929 132.18 
L 358.19193 132.93 
L 358.501772 134.13 
L 358.799947 134.28 
L 359.109485 133.68 
L 359.417298 133.83 
L 360.023793 133.53 
L 360.325722 133.68 
L 360.626738 133.98 
L 360.929377 133.98 
L 361.236479 133.08 
L 361.541756 133.83 
L 361.850787 133.83 
L 362.451398 132.93 
L 362.760733 134.13 
L 363.065603 133.53 
L 363.363068 133.23 
L 363.363068 133.23 
" clip-path="url(#p130f7855cb)" style="fill: none; stroke: #1f77b4; stroke-width: 1.5; stroke-linecap: square"/>
   </g>
   <g id="line2d_26">
    <path d="M 58.999432 218.88 
L 59.323885 218.88 
L 59.63366 168.033982 
L 59.920166 162.506336 
L 60.229719 164.42938 
L 60.523157 171.335915 
L 60.826554 175.109805 
L 61.139355 177.137935 
L 61.437215 172.687793 
L 61.740212 173.478789 
L 62.043859 173.662774 
L 62.354726 172.032188 
L 62.655567 168.551703 
L 62.956407 168.124335 
L 63.267275 172.397423 
L 63.568115 168.752388 
L 63.8783 167.7575 
L 64.178753 169.255838 
L 64.482156 166.60075 
L 64.789247 167.574737 
L 65.091835 170.443469 
L 65.392155 171.045285 
L 65.7027 169.872679 
L 66.007699 165.352063 
L 66.613502 166.170632 
L 67.525146 173.090918 
L 67.834737 170.417231 
L 68.131413 170.57441 
L 68.439894 172.996915 
L 68.746479 167.057225 
L 69.045327 166.056142 
L 69.352178 167.211151 
L 69.957872 166.005266 
L 70.265239 169.317539 
L 70.567695 168.724342 
L 70.876442 167.639025 
L 71.176666 169.812801 
L 71.478676 167.581097 
L 71.788751 168.394581 
L 72.095732 165.322648 
L 72.394891 164.927521 
L 72.705758 170.283935 
L 73.000737 168.421329 
L 73.305892 170.536231 
L 73.609708 170.92596 
L 73.913493 171.00391 
L 74.224807 170.032712 
L 74.529272 167.076549 
L 74.834051 167.912658 
L 75.139693 171.667396 
L 75.442271 171.126492 
L 75.740659 169.435713 
L 76.049781 169.799276 
L 76.357777 167.807919 
L 76.656216 170.283935 
L 76.962 170.495292 
L 77.262528 171.348221 
L 77.565837 173.565102 
L 77.879291 170.798507 
L 78.480135 173.185361 
L 78.791925 173.724269 
L 79.088355 172.699485 
L 79.392009 173.682683 
L 79.707086 173.108857 
L 80.003891 173.296779 
L 80.312942 172.65882 
L 80.614211 173.672727 
L 81.218018 173.885 
L 81.530244 177.018442 
L 81.828693 175.506391 
L 82.139469 174.597724 
L 82.438161 174.636611 
L 82.741936 174.179245 
L 83.044382 172.043716 
L 83.660627 175.086422 
L 83.965884 174.855575 
L 84.27046 174.885483 
L 84.570401 173.215161 
L 84.871112 173.788094 
L 85.181989 172.809728 
L 85.482355 172.470087 
L 85.788931 172.927089 
L 86.091499 169.935159 
L 86.401787 172.251709 
L 86.701464 172.602387 
L 87.009713 172.18878 
L 87.305859 173.470117 
L 87.617213 172.977304 
L 87.922114 172.274877 
L 88.221314 174.342628 
L 88.533022 174.221294 
L 88.828255 175.684167 
L 89.134658 172.65882 
L 89.443942 171.49353 
L 89.744917 172.470087 
L 90.049484 172.034109 
L 90.355187 176.259934 
L 90.659946 177.83807 
L 90.962869 172.536311 
L 91.270997 172.514954 
L 91.572682 173.357286 
L 91.871892 174.9364 
L 92.182627 175.08822 
L 92.484373 174.124665 
L 92.783887 175.252944 
L 93.089985 174.887273 
L 93.396581 175.713607 
L 93.70619 175.049446 
L 94.010716 177.000172 
L 94.310473 174.929232 
L 94.614391 175.209902 
L 94.922041 176.286603 
L 95.219638 176.153427 
L 95.534086 174.789185 
L 95.836126 175.11803 
L 96.445868 173.619007 
L 96.740959 173.996401 
L 97.045982 175.286222 
L 97.35412 178.34557 
L 98.270934 176.206384 
L 98.568896 176.299283 
L 98.879256 177.454193 
L 99.786604 176.760438 
L 100.095939 174.809857 
L 100.402129 174.773878 
L 100.706959 176.657731 
L 101.006859 175.651103 
L 101.312562 177.460711 
L 101.618082 178.225849 
L 101.921634 176.403771 
L 102.221625 175.473203 
L 102.529925 172.643245 
L 103.136065 176.821113 
L 103.438704 177.511534 
L 103.751143 177.017636 
L 104.050485 177.853697 
L 104.350233 176.395297 
L 104.663108 176.549426 
L 104.966508 176.115529 
L 105.267463 176.113687 
L 105.568823 176.419666 
L 105.876342 176.556602 
L 106.186864 176.286603 
L 106.489696 174.989682 
L 106.788835 175.611565 
L 107.093269 177.182158 
L 107.402675 175.480461 
L 107.701104 176.153427 
L 108.012731 173.134426 
L 108.311363 174.887273 
L 108.915535 176.153427 
L 109.219442 175.49109 
L 109.528767 175.86477 
L 109.838467 175.418552 
L 110.139594 174.57969 
L 110.438489 175.630029 
L 110.744385 174.562171 
L 111.050656 175.080257 
L 111.360102 175.14606 
L 111.656877 176.023291 
L 111.962884 175.001987 
L 112.27159 174.9364 
L 112.567614 174.092753 
L 112.872526 174.302988 
L 113.185341 172.638136 
L 113.486742 173.367172 
L 113.789097 174.425557 
L 114.098036 174.398993 
L 114.394527 173.120657 
L 114.699124 173.005497 
L 115.005608 174.209204 
L 115.312772 174.5269 
L 115.611738 174.161128 
L 115.920738 175.298352 
L 116.224493 174.945617 
L 116.526756 173.908259 
L 116.832479 173.824035 
L 117.133181 174.522842 
L 117.439847 174.708629 
L 117.750958 173.896253 
L 118.050959 173.47086 
L 118.358376 174.782041 
L 118.660437 173.660784 
L 118.970482 174.230364 
L 119.27101 174.273722 
L 119.879413 173.537305 
L 120.184091 174.48 
L 120.49088 174.466066 
L 120.795111 173.323689 
L 121.089735 173.75617 
L 121.399953 172.949618 
L 121.70389 173.957066 
L 122.011602 173.893002 
L 122.315398 174.695387 
L 122.620482 173.69264 
L 122.920138 173.888001 
L 123.221813 173.596891 
L 123.533826 173.62895 
L 123.833016 174.847398 
L 124.136263 174.257836 
L 124.43944 174.73436 
L 124.74495 174.214241 
L 125.048928 173.345425 
L 125.354124 172.104045 
L 125.662383 173.126312 
L 125.961573 173.630939 
L 126.267093 172.235065 
L 126.568656 172.356055 
L 126.876611 173.157795 
L 127.18618 173.44213 
L 127.491324 173.499856 
L 127.795242 173.107628 
L 128.394402 174.435428 
L 128.704853 173.46219 
L 129.315203 172.711423 
L 129.620592 172.656629 
L 129.92596 172.45288 
L 130.225585 172.840017 
L 130.531917 172.809728 
L 130.840593 172.408073 
L 131.136759 172.575168 
L 131.438474 172.893073 
L 131.752902 172.00698 
L 132.05337 172.955742 
L 132.358535 173.085268 
L 132.662229 172.656629 
L 132.966674 172.731652 
L 133.270977 173.163947 
L 133.577633 173.829029 
L 133.876569 173.115494 
L 134.180456 173.398823 
L 134.492003 173.17773 
L 135.097605 171.914907 
L 135.404109 172.00698 
L 135.709102 172.699728 
L 136.003503 173.075197 
L 136.315658 173.668746 
L 136.613843 173.130492 
L 136.922884 173.233642 
L 137.227227 173.864253 
L 137.533346 173.336285 
L 137.844111 173.39165 
L 138.139851 173.242762 
L 138.445088 173.274326 
L 138.747909 173.139099 
L 139.051289 173.58919 
L 139.353491 173.36915 
L 139.664044 172.836352 
L 139.962746 173.157795 
L 140.265142 173.06832 
L 140.577368 174.203412 
L 141.182362 172.553793 
L 141.486614 173.069548 
L 141.791566 172.513741 
L 142.405985 173.788094 
L 142.702577 173.252623 
L 143.003866 173.14697 
L 143.309793 173.209988 
L 143.612604 173.005497 
L 144.223675 173.569322 
L 144.532421 172.419937 
L 144.837759 172.32898 
L 145.138379 172.903593 
L 145.444863 172.428412 
L 145.751672 172.742624 
L 146.055954 172.491666 
L 146.360916 171.439195 
L 147.273591 172.902614 
L 147.571868 172.431561 
L 147.885616 171.560765 
L 148.178616 173.390908 
L 148.495682 173.312577 
L 148.788947 172.666609 
L 149.092996 172.466209 
L 149.402757 171.583594 
L 149.702951 172.111742 
L 150.013107 171.613336 
L 150.310998 171.846209 
L 150.624117 172.390888 
L 150.927791 172.205408 
L 151.223227 172.271015 
L 151.535098 172.577111 
L 151.836022 172.563264 
L 152.138753 172.05789 
L 152.443715 172.594365 
L 152.753385 172.305785 
L 153.049571 172.235065 
L 153.362294 172.435194 
L 153.659343 172.834398 
L 154.267502 171.725811 
L 154.580652 172.365728 
L 154.876635 172.226624 
L 155.178818 172.417999 
L 155.483232 173.081337 
L 155.788793 171.575032 
L 156.399133 172.668557 
L 157.012406 170.938395 
L 157.313411 170.706174 
L 157.616253 171.792422 
L 157.918182 172.165655 
L 158.234598 171.606434 
L 158.53884 171.453662 
L 158.835899 171.761851 
L 159.142282 171.728436 
L 159.446615 172.481724 
L 159.751273 170.733972 
L 160.054926 170.970319 
L 160.359432 172.160839 
L 160.666829 171.307765 
L 161.270686 171.731299 
L 161.57992 170.793827 
L 161.874442 170.302459 
L 162.187835 172.250503 
L 162.483373 171.57527 
L 162.791084 171.425206 
L 163.399609 171.853624 
L 163.710668 171.945578 
L 164.010669 172.335505 
L 164.311989 172.495547 
L 164.617976 172.35412 
L 164.91889 171.181179 
L 165.229443 171.000385 
L 165.528734 172.074471 
L 165.842127 171.362424 
L 166.145273 172.163006 
L 166.75187 171.492343 
L 167.059175 172.066781 
L 167.363438 171.827795 
L 167.964657 173.249418 
L 168.27521 172.701677 
L 168.578965 170.986055 
L 169.179677 172.604331 
L 169.795607 171.728436 
L 170.097333 171.563856 
L 170.406871 170.782833 
L 170.70393 171.046225 
L 171.007279 170.573712 
L 171.314686 170.88961 
L 171.624224 171.529393 
L 171.924225 170.970319 
L 172.225038 171.544839 
L 172.529402 171.363371 
L 172.839853 171.742754 
L 173.139143 172.879375 
L 173.448783 172.01178 
L 174.051626 172.127139 
L 174.356598 170.728598 
L 175.274965 171.468609 
L 175.581154 171.605721 
L 176.185113 172.163006 
L 176.791913 171.895747 
L 177.397089 173.36124 
L 177.710077 173.171822 
L 178.010078 172.294192 
L 178.321137 173.1482 
L 178.618906 171.973391 
L 179.236257 171.330473 
L 179.536766 171.889043 
L 179.838593 170.668824 
L 180.142551 170.291344 
L 180.747118 172.187816 
L 181.053511 171.335915 
L 181.356759 171.639763 
L 181.66305 171.731299 
L 181.965892 171.392739 
L 182.273299 171.484035 
L 182.575025 171.301854 
L 182.882432 171.636191 
L 183.182332 170.668824 
L 183.496029 171.039876 
L 183.799074 171.068103 
L 184.104148 170.77605 
L 184.399888 169.991965 
L 184.701715 170.322843 
L 185.007905 171.271834 
L 185.318457 171.434689 
L 185.616632 171.032351 
L 186.232867 169.756889 
L 186.538347 170.18842 
L 186.838043 171.512527 
L 187.141798 170.644329 
L 187.753975 171.401268 
L 188.061788 171.20949 
L 188.356919 171.432792 
L 188.658645 171.060339 
L 188.972444 170.964684 
L 189.268691 171.09823 
L 189.578635 170.180103 
L 189.880259 170.465539 
L 190.495074 171.825165 
L 191.100961 171.880426 
L 191.406846 170.853757 
L 191.714253 171.364555 
L 192.008979 171.290742 
L 192.314458 171.006025 
L 192.616184 171.273724 
L 192.923389 171.332366 
L 193.233535 171.271834 
L 193.528971 172.157227 
L 193.834653 172.065579 
L 194.144191 171.46505 
L 194.757382 171.313441 
L 195.052209 171.053752 
L 195.35779 170.471349 
L 195.660125 171.340648 
L 195.97088 171.484747 
L 196.268243 171.484747 
L 196.58255 171.006025 
L 196.88529 170.835021 
L 197.487626 171.066221 
L 197.795743 170.322843 
L 198.104368 170.382191 
L 198.401528 170.700336 
L 198.70295 169.678399 
L 199.019082 170.070267 
L 199.317663 171.154535 
L 199.626287 171.459356 
L 199.921622 171.313441 
L 200.224362 170.959049 
L 200.530146 171.316989 
L 200.837147 171.19604 
L 201.140598 171.316989 
L 201.447599 170.296901 
L 202.051558 170.397039 
L 202.362009 170.160009 
L 202.664445 170.447883 
L 202.970229 171.503028 
L 203.268709 171.685747 
L 203.574391 170.425588 
L 203.878349 171.24136 
L 204.186771 170.887735 
L 204.798643 170.89594 
L 205.103717 169.855924 
L 205.711328 171.446072 
L 206.014576 170.883985 
L 206.316809 171.370238 
L 206.622593 171.279396 
L 206.930507 170.923379 
L 207.233755 171.309657 
L 207.835989 170.395879 
L 208.140454 170.835958 
L 208.449688 170.306859 
L 209.052632 171.00391 
L 209.359126 171.825165 
L 209.666331 171.529393 
L 209.973738 170.968441 
L 210.272826 171.230262 
L 210.578306 171.106472 
L 210.882162 171.106472 
L 211.185004 170.447883 
L 211.48673 170.970085 
L 211.798398 171.113301 
L 212.105602 170.435805 
L 212.405096 170.477624 
L 212.703575 171.058692 
L 213.014331 170.335819 
L 213.616666 170.411892 
L 213.932089 171.590255 
L 214.235336 171.028589 
L 214.531482 171.19604 
L 214.833715 171.08387 
L 215.147615 170.835958 
L 215.446805 170.091477 
L 215.758676 169.820139 
L 216.053605 170.32655 
L 216.35949 170.495292 
L 216.669637 171.184717 
L 216.966493 170.169247 
L 217.280596 170.26727 
L 217.58222 170.485062 
L 217.878062 169.837799 
L 218.19115 169.885306 
L 218.49176 170.525062 
L 218.795414 170.109927 
L 219.106879 171.355796 
L 219.713476 170.693098 
L 220.015405 171.245139 
L 220.314695 170.228176 
L 220.618247 170.495292 
L 220.922611 171.483798 
L 221.530527 171.542937 
L 221.837224 170.566958 
L 222.145341 171.009785 
L 222.443618 171.088814 
L 222.755185 170.551127 
L 223.055693 171.884256 
L 223.36797 171.976269 
L 223.667058 170.644329 
L 223.972436 171.789555 
L 224.275481 170.625674 
L 224.584613 169.98115 
L 224.878324 170.65016 
L 225.187354 170.700336 
L 225.495776 171.287669 
L 225.791516 170.554851 
L 226.10288 171.009785 
L 226.400142 171.926406 
L 226.711202 171.819188 
L 227.016986 171.51419 
L 227.318914 171.006025 
L 227.621959 170.178486 
L 227.929975 170.091707 
L 228.238093 170.918453 
L 228.537181 170.733972 
L 228.836269 170.974077 
L 229.148241 170.545773 
L 229.44875 170.367347 
L 229.756969 170.992867 
L 230.059607 170.626606 
L 230.66661 171.335915 
L 230.971379 170.88375 
L 231.576353 170.764124 
L 231.88163 170.346712 
L 232.491879 170.195814 
L 232.799083 170.435805 
L 233.4001 169.826789 
L 233.707406 170.470187 
L 234.01603 170.064045 
L 234.322119 170.571849 
L 234.626584 170.678859 
L 234.933484 169.639773 
L 235.236123 169.786212 
L 235.533993 169.498323 
L 235.836531 168.952077 
L 236.142315 169.644342 
L 236.444243 170.032712 
L 236.751752 169.236571 
L 237.063826 169.944353 
L 237.359465 171.045285 
L 237.973772 170.211761 
L 238.271744 170.704306 
L 238.88108 168.838642 
L 239.18798 169.656454 
L 239.491025 169.63269 
L 239.795287 170.784704 
L 240.106042 170.655525 
L 240.716291 169.155962 
L 241.015887 169.520199 
L 241.317917 169.652797 
L 241.62431 170.773478 
L 241.928978 170.425588 
L 242.542169 170.261716 
L 242.838315 170.85774 
L 243.140041 170.180334 
L 243.454854 170.034555 
L 243.752623 170.373609 
L 244.054755 169.768112 
L 244.361959 170.064045 
L 244.665511 169.849499 
L 245.278804 170.84837 
L 245.886314 171.788838 
L 246.189257 171.457221 
L 246.488649 171.641906 
L 246.800419 172.218908 
L 247.107218 172.03603 
L 247.708539 170.545773 
L 248.016149 171.271597 
L 248.319701 170.296901 
L 248.623456 170.72486 
L 249.836142 170.477624 
L 250.148318 169.795608 
L 250.457145 170.626606 
L 250.755016 170.477624 
L 251.059582 170.477624 
L 251.362931 170.823783 
L 251.976123 170.047224 
L 252.281805 169.058544 
L 252.585763 169.370228 
L 252.883837 169.962518 
L 253.188505 169.709506 
L 253.490535 170.547635 
L 253.794695 170.261716 
L 254.100784 170.783534 
L 254.401799 170.485062 
L 254.711743 171.485934 
L 255.010121 171.425206 
L 255.325036 170.099779 
L 255.619558 170.05091 
L 255.931633 169.57858 
L 256.229706 170.458336 
L 256.83752 170.605395 
L 257.145739 170.943792 
L 257.446349 170.943792 
L 257.757104 170.011298 
L 258.060961 170.121001 
L 258.359338 170.827763 
L 258.673239 170.525062 
L 258.971414 170.555084 
L 259.273748 171.315333 
L 259.882374 170.13577 
L 260.192318 169.832294 
L 260.492319 169.744295 
L 260.801451 169.930332 
L 261.099727 170.568123 
L 261.402163 169.930332 
L 261.714947 171.266163 
L 262.012108 170.185878 
L 262.316066 170.136693 
L 262.62327 169.885536 
L 262.927126 170.428607 
L 263.232809 171.332129 
L 263.53839 170.883985 
L 264.149654 170.559507 
L 264.449147 170.756643 
L 264.751279 169.85799 
L 265.05544 169.903679 
L 265.671675 170.381031 
L 265.972995 170.835958 
L 266.281619 170.507384 
L 266.580302 170.850009 
L 267.184463 171.220819 
L 267.8008 171.892156 
L 268.103033 171.520128 
L 268.71247 171.773313 
L 269.015921 171.83449 
L 269.318255 170.366188 
L 269.625257 169.665368 
L 269.934389 170.300606 
L 270.231143 170.381031 
L 270.544029 170.637099 
L 270.847784 170.435805 
L 271.148495 169.754141 
L 271.753875 169.011373 
L 272.06321 169.491034 
L 272.360979 170.589318 
L 272.662806 170.614717 
L 272.973155 171.068103 
L 273.278432 170.88961 
L 273.578738 169.962518 
L 273.887768 170.525062 
L 274.188682 169.97931 
L 274.492539 170.277222 
L 274.796699 170.743553 
L 275.098425 170.198587 
L 275.403093 169.988283 
L 275.710805 170.106237 
L 276.02014 169.59798 
L 277.839321 170.844622 
L 278.145004 170.08041 
L 278.450889 170.161857 
L 278.758702 170.475067 
L 279.054848 170.139462 
L 279.967939 171.533432 
L 280.273114 170.782833 
L 280.577174 171.090461 
L 280.881639 170.203209 
L 281.196046 170.637099 
L 281.492497 169.996567 
L 281.804469 170.003012 
L 282.104876 169.84124 
L 282.406602 170.209912 
L 282.71269 169.694636 
L 283.018271 170.596773 
L 283.318374 170.708042 
L 283.62497 170.439753 
L 283.933797 171.009785 
L 284.235726 171.214918 
L 284.53735 170.247603 
L 284.840598 171.085047 
L 285.146991 170.983471 
L 285.455615 169.885536 
L 285.755312 169.958839 
L 286.369112 168.616793 
L 286.969419 169.232266 
L 287.280377 169.283049 
L 287.5889 169.709506 
L 287.893162 169.592502 
L 288.186975 170.185878 
L 288.494382 170.017745 
L 288.804427 170.114541 
L 289.409502 169.457561 
L 289.707778 169.967118 
L 290.013359 169.984832 
L 290.316506 169.293938 
L 290.625942 169.844911 
L 290.931827 169.543224 
L 291.23051 170.393327 
L 291.845121 170.298754 
L 292.144311 170.465539 
L 292.458617 170.499942 
L 292.754966 170.653892 
L 293.061561 170.544609 
L 293.363287 170.005083 
L 293.664911 169.962518 
L 293.97658 169.232039 
L 294.27861 169.533876 
L 294.587032 169.406371 
L 294.889975 169.767883 
L 295.191701 169.556679 
L 295.795863 170.933467 
L 296.403778 170.330257 
L 296.715751 170.536231 
L 297.015854 170.228176 
L 297.317782 170.674425 
L 297.625291 170.716217 
L 297.932191 170.021659 
L 298.230366 169.732162 
L 298.541121 169.623554 
L 298.848833 169.93309 
L 299.142544 169.709506 
L 300.057461 170.955059 
L 300.363245 170.595841 
L 300.669739 171.016131 
L 300.971465 170.635233 
L 301.892469 170.499942 
L 302.495109 169.930332 
L 302.800082 170.169016 
L 303.108301 169.97931 
L 303.404446 170.564397 
L 303.718347 170.558809 
L 304.016522 170.805995 
L 304.319465 171.79075 
L 304.623524 171.514427 
L 304.931642 171.764 
L 305.232556 171.060339 
L 305.540572 170.814654 
L 305.842703 170.139462 
L 306.45275 170.123077 
L 306.757012 169.723922 
L 307.061274 170.597938 
L 307.361985 170.978539 
L 307.668987 171.124372 
L 307.973249 170.209681 
L 308.278424 170.970085 
L 308.580454 171.173633 
L 308.891108 170.88 
L 309.799634 171.200051 
L 310.099736 170.769736 
L 310.718507 170.198587 
L 311.020233 169.417287 
L 311.322771 169.563978 
L 311.632714 169.070061 
L 311.935658 169.460975 
L 312.231601 169.6199 
L 312.548443 169.574245 
L 313.144996 170.328172 
L 313.456664 170.713648 
L 313.757984 170.369202 
L 314.067826 170.835021 
L 314.369857 169.661939 
L 314.669858 169.691206 
L 314.969757 169.832294 
L 315.280005 168.990622 
L 315.888124 170.136693 
L 316.196647 169.319355 
L 316.803244 170.584659 
L 317.100607 170.239508 
L 317.409739 169.527492 
L 317.718973 169.406598 
L 318.317351 170.607259 
L 318.630947 169.323668 
L 318.932065 169.219578 
L 319.240486 170.150543 
L 319.844953 170.488084 
L 320.14678 169.797442 
L 320.454694 170.492502 
L 321.05774 169.720489 
L 321.371945 169.959759 
L 321.666873 170.465539 
L 321.97357 170.465772 
L 322.28392 169.975629 
L 322.587167 170.182182 
L 323.193561 170.944027 
L 323.498331 170.018666 
L 323.804115 170.021429 
L 324.109696 170.488084 
L 324.412639 170.571849 
L 324.71264 170.166244 
L 325.016598 171.164201 
L 325.326947 170.114541 
L 326.233038 169.92045 
L 326.544808 170.605395 
L 326.842983 170.843451 
L 327.145317 171.245139 
L 327.456478 170.715283 
L 327.756581 170.44045 
L 328.057292 169.711336 
L 328.363583 169.871531 
L 328.66886 170.194889 
L 328.971803 169.610537 
L 329.286414 170.733972 
L 329.588241 169.59798 
L 329.893924 169.417287 
L 330.198693 169.077289 
L 330.80042 170.255006 
L 331.405901 170.123077 
L 331.710975 169.842157 
L 332.026803 170.076721 
L 332.322137 168.802685 
L 332.631066 169.165239 
L 332.928937 169.141484 
L 333.232996 169.736969 
L 333.546287 169.512906 
L 333.847405 169.029423 
L 334.146087 169.958839 
L 334.460089 170.048146 
L 334.759278 169.768112 
L 335.063946 169.754141 
L 335.362222 170.693799 
L 335.67592 170.584892 
L 335.981095 169.861662 
L 336.279473 170.57441 
L 336.584141 169.903679 
L 337.198245 170.726729 
L 338.106365 169.738571 
L 338.714179 170.085021 
L 339.328182 169.581318 
L 339.932648 170.048146 
L 340.542491 170.05091 
L 340.841985 169.435713 
L 341.153045 169.959759 
L 341.459742 169.930332 
L 342.060657 170.150774 
L 342.362687 169.896559 
L 342.67324 169.486706 
L 342.979633 170.314271 
L 343.284402 169.403642 
L 343.893332 170.406089 
L 344.193638 170.292039 
L 344.499726 170.835021 
L 344.798408 169.565119 
L 345.110077 169.828624 
L 345.414034 169.768112 
L 345.711905 170.180334 
L 346.018703 170.816526 
L 346.325705 169.916774 
L 346.62875 170.41932 
L 346.939505 170.067732 
L 347.235651 170.624042 
L 347.850161 170.512268 
L 348.151379 170.270973 
L 348.460917 170.180334 
L 348.762745 170.239508 
L 349.068021 170.525062 
L 349.364877 170.136693 
L 349.668125 170.225401 
L 349.978677 169.885536 
L 350.891058 169.447319 
L 351.193595 169.971949 
L 351.497452 169.865334 
L 351.801511 170.198818 
L 352.104962 169.490122 
L 352.408311 169.53228 
L 352.710747 169.698525 
L 353.025053 169.533876 
L 353.326271 170.333965 
L 353.628809 170.262411 
L 353.933071 169.753225 
L 354.541088 170.123077 
L 354.847988 169.949871 
L 355.151845 169.493767 
L 355.45215 169.468488 
L 356.06037 169.76628 
L 356.366864 169.959759 
L 356.670822 169.666282 
L 356.9762 170.536231 
L 357.276404 169.900004 
L 357.592841 170.109927 
L 357.884929 170.077643 
L 358.501772 169.561469 
L 358.799947 169.727584 
L 359.109485 170.032482 
L 359.417298 169.552345 
L 359.714053 169.475547 
L 360.023793 169.779109 
L 360.325722 169.914706 
L 360.626738 169.571279 
L 360.929377 169.396366 
L 361.236479 169.727584 
L 361.541756 169.523162 
L 361.850787 169.84514 
L 362.152817 169.585883 
L 362.451398 170.005083 
L 362.760733 169.444815 
L 363.065603 170.043769 
L 363.363068 169.97931 
L 363.363068 169.97931 
" clip-path="url(#p130f7855cb)" style="fill: none; stroke: #ff7f0e; stroke-width: 1.5; stroke-linecap: square"/>
   </g>
   <g id="patch_3">
    <path d="M 43.78125 228.96 
L 43.78125 7.2 
" style="fill: none; stroke: #000000; stroke-width: 0.8; stroke-linejoin: miter; stroke-linecap: square"/>
   </g>
   <g id="patch_4">
    <path d="M 378.58125 228.96 
L 378.58125 7.2 
" style="fill: none; stroke: #000000; stroke-width: 0.8; stroke-linejoin: miter; stroke-linecap: square"/>
   </g>
   <g id="patch_5">
    <path d="M 43.78125 228.96 
L 378.58125 228.96 
" style="fill: none; stroke: #000000; stroke-width: 0.8; stroke-linejoin: miter; stroke-linecap: square"/>
   </g>
   <g id="patch_6">
    <path d="M 43.78125 7.2 
L 378.58125 7.2 
" style="fill: none; stroke: #000000; stroke-width: 0.8; stroke-linejoin: miter; stroke-linecap: square"/>
   </g>
   <g id="legend_1">
    <g id="patch_7">
     <path d="M 187.4625 44.55625 
L 371.58125 44.55625 
Q 373.58125 44.55625 373.58125 42.55625 
L 373.58125 14.2 
Q 373.58125 12.2 371.58125 12.2 
L 187.4625 12.2 
Q 185.4625 12.2 185.4625 14.2 
L 185.4625 42.55625 
Q 185.4625 44.55625 187.4625 44.55625 
z
" style="fill: #ffffff; opacity: 0.8; stroke: #cccccc; stroke-linejoin: miter"/>
    </g>
    <g id="line2d_27">
     <path d="M 189.4625 20.298437 
L 199.4625 20.298437 
L 209.4625 20.298437 
" style="fill: none; stroke: #1f77b4; stroke-width: 1.5; stroke-linecap: square"/>
    </g>
    <g id="text_15">
     <!-- Mean Smoke Layer Height -->
     <g transform="translate(217.4625 23.798437) scale(0.1 -0.1)">
      <defs>
       <path id="DejaVuSans-4d" d="M 628 4666 
L 1569 4666 
L 2759 1491 
L 3956 4666 
L 4897 4666 
L 4897 0 
L 4281 0 
L 4281 4097 
L 3078 897 
L 2444 897 
L 1241 4097 
L 1241 0 
L 628 0 
L 628 4666 
z
" transform="scale(0.015625)"/>
       <path id="DejaVuSans-61" d="M 2194 1759 
Q 1497 1759 1228 1600 
Q 959 1441 959 1056 
Q 959 750 1161 570 
Q 1363 391 1709 391 
Q 2188 391 2477 730 
Q 2766 1069 2766 1631 
L 2766 1759 
L 2194 1759 
z
M 3341 1997 
L 3341 0 
L 2766 0 
L 2766 531 
Q 2569 213 2275 61 
Q 1981 -91 1556 -91 
Q 1019 -91 701 211 
Q 384 513 384 1019 
Q 384 1609 779 1909 
Q 1175 2209 1959 2209 
L 2766 2209 
L 2766 2266 
Q 2766 2663 2505 2880 
Q 2244 3097 1772 3097 
Q 1472 3097 1187 3025 
Q 903 2953 641 2809 
L 641 3341 
Q 956 3463 1253 3523 
Q 1550 3584 1831 3584 
Q 2591 3584 2966 3190 
Q 3341 2797 3341 1997 
z
" transform="scale(0.015625)"/>
       <path id="DejaVuSans-6e" d="M 3513 2113 
L 3513 0 
L 2938 0 
L 2938 2094 
Q 2938 2591 2744 2837 
Q 2550 3084 2163 3084 
Q 1697 3084 1428 2787 
Q 1159 2491 1159 1978 
L 1159 0 
L 581 0 
L 581 3500 
L 1159 3500 
L 1159 2956 
Q 1366 3272 1645 3428 
Q 1925 3584 2291 3584 
Q 2894 3584 3203 3211 
Q 3513 2838 3513 2113 
z
" transform="scale(0.015625)"/>
       <path id="DejaVuSans-53" d="M 3425 4513 
L 3425 3897 
Q 3066 4069 2747 4153 
Q 2428 4238 2131 4238 
Q 1616 4238 1336 4038 
Q 1056 3838 1056 3469 
Q 1056 3159 1242 3001 
Q 1428 2844 1947 2747 
L 2328 2669 
Q 3034 2534 3370 2195 
Q 3706 1856 3706 1288 
Q 3706 609 3251 259 
Q 2797 -91 1919 -91 
Q 1588 -91 1214 -16 
Q 841 59 441 206 
L 441 856 
Q 825 641 1194 531 
Q 1563 422 1919 422 
Q 2459 422 2753 634 
Q 3047 847 3047 1241 
Q 3047 1584 2836 1778 
Q 2625 1972 2144 2069 
L 1759 2144 
Q 1053 2284 737 2584 
Q 422 2884 422 3419 
Q 422 4038 858 4394 
Q 1294 4750 2059 4750 
Q 2388 4750 2728 4690 
Q 3069 4631 3425 4513 
z
" transform="scale(0.015625)"/>
       <path id="DejaVuSans-6f" d="M 1959 3097 
Q 1497 3097 1228 2736 
Q 959 2375 959 1747 
Q 959 1119 1226 758 
Q 1494 397 1959 397 
Q 2419 397 2687 759 
Q 2956 1122 2956 1747 
Q 2956 2369 2687 2733 
Q 2419 3097 1959 3097 
z
M 1959 3584 
Q 2709 3584 3137 3096 
Q 3566 2609 3566 1747 
Q 3566 888 3137 398 
Q 2709 -91 1959 -91 
Q 1206 -91 779 398 
Q 353 888 353 1747 
Q 353 2609 779 3096 
Q 1206 3584 1959 3584 
z
" transform="scale(0.015625)"/>
       <path id="DejaVuSans-6b" d="M 581 4863 
L 1159 4863 
L 1159 1991 
L 2875 3500 
L 3609 3500 
L 1753 1863 
L 3688 0 
L 2938 0 
L 1159 1709 
L 1159 0 
L 581 0 
L 581 4863 
z
" transform="scale(0.015625)"/>
       <path id="DejaVuSans-4c" d="M 628 4666 
L 1259 4666 
L 1259 531 
L 3531 531 
L 3531 0 
L 628 0 
L 628 4666 
z
" transform="scale(0.015625)"/>
       <path id="DejaVuSans-79" d="M 2059 -325 
Q 1816 -950 1584 -1140 
Q 1353 -1331 966 -1331 
L 506 -1331 
L 506 -850 
L 844 -850 
Q 1081 -850 1212 -737 
Q 1344 -625 1503 -206 
L 1606 56 
L 191 3500 
L 800 3500 
L 1894 763 
L 2988 3500 
L 3597 3500 
L 2059 -325 
z
" transform="scale(0.015625)"/>
       <path id="DejaVuSans-72" d="M 2631 2963 
Q 2534 3019 2420 3045 
Q 2306 3072 2169 3072 
Q 1681 3072 1420 2755 
Q 1159 2438 1159 1844 
L 1159 0 
L 581 0 
L 581 3500 
L 1159 3500 
L 1159 2956 
Q 1341 3275 1631 3429 
Q 1922 3584 2338 3584 
Q 2397 3584 2469 3576 
Q 2541 3569 2628 3553 
L 2631 2963 
z
" transform="scale(0.015625)"/>
      </defs>
      <use xlink:href="#DejaVuSans-4d"/>
      <use xlink:href="#DejaVuSans-65" x="86.279297"/>
      <use xlink:href="#DejaVuSans-61" x="147.802734"/>
      <use xlink:href="#DejaVuSans-6e" x="209.082031"/>
      <use xlink:href="#DejaVuSans-20" x="272.460938"/>
      <use xlink:href="#DejaVuSans-53" x="304.248047"/>
      <use xlink:href="#DejaVuSans-6d" x="367.724609"/>
      <use xlink:href="#DejaVuSans-6f" x="465.136719"/>
      <use xlink:href="#DejaVuSans-6b" x="526.318359"/>
      <use xlink:href="#DejaVuSans-65" x="580.603516"/>
      <use xlink:href="#DejaVuSans-20" x="642.126953"/>
      <use xlink:href="#DejaVuSans-4c" x="673.914062"/>
      <use xlink:href="#DejaVuSans-61" x="729.626953"/>
      <use xlink:href="#DejaVuSans-79" x="790.90625"/>
      <use xlink:href="#DejaVuSans-65" x="850.085938"/>
      <use xlink:href="#DejaVuSans-72" x="911.609375"/>
      <use xlink:href="#DejaVuSans-20" x="952.722656"/>
      <use xlink:href="#DejaVuSans-48" x="984.509766"/>
      <use xlink:href="#DejaVuSans-65" x="1059.705078"/>
      <use xlink:href="#DejaVuSans-69" x="1121.228516"/>
      <use xlink:href="#DejaVuSans-67" x="1149.011719"/>
      <use xlink:href="#DejaVuSans-68" x="1212.488281"/>
      <use xlink:href="#DejaVuSans-74" x="1275.867188"/>
     </g>
    </g>
    <g id="line2d_28">
     <path d="M 189.4625 34.976562 
L 199.4625 34.976562 
L 209.4625 34.976562 
" style="fill: none; stroke: #ff7f0e; stroke-width: 1.5; stroke-linecap: square"/>
    </g>
    <g id="text_16">
     <!-- Stddev of Smoke Layer Height -->
     <g transform="translate(217.4625 38.476562) scale(0.1 -0.1)">
      <defs>
       <path id="DejaVuSans-64" d="M 2906 2969 
L 2906 4863 
L 3481 4863 
L 3481 0 
L 2906 0 
L 2906 525 
Q 2725 213 2448 61 
Q 2172 -91 1784 -91 
Q 1150 -91 751 415 
Q 353 922 353 1747 
Q 353 2572 751 3078 
Q 1150 3584 1784 3584 
Q 2172 3584 2448 3432 
Q 2725 3281 2906 2969 
z
M 947 1747 
Q 947 1113 1208 752 
Q 1469 391 1925 391 
Q 2381 391 2643 752 
Q 2906 1113 2906 1747 
Q 2906 2381 2643 2742 
Q 2381 3103 1925 3103 
Q 1469 3103 1208 2742 
Q 947 2381 947 1747 
z
" transform="scale(0.015625)"/>
       <path id="DejaVuSans-76" d="M 191 3500 
L 800 3500 
L 1894 563 
L 2988 3500 
L 3597 3500 
L 2284 0 
L 1503 0 
L 191 3500 
z
" transform="scale(0.015625)"/>
       <path id="DejaVuSans-66" d="M 2375 4863 
L 2375 4384 
L 1825 4384 
Q 1516 4384 1395 4259 
Q 1275 4134 1275 3809 
L 1275 3500 
L 2222 3500 
L 2222 3053 
L 1275 3053 
L 1275 0 
L 697 0 
L 697 3053 
L 147 3053 
L 147 3500 
L 697 3500 
L 697 3744 
Q 697 4328 969 4595 
Q 1241 4863 1831 4863 
L 2375 4863 
z
" transform="scale(0.015625)"/>
      </defs>
      <use xlink:href="#DejaVuSans-53"/>
      <use xlink:href="#DejaVuSans-74" x="63.476562"/>
      <use xlink:href="#DejaVuSans-64" x="102.685547"/>
      <use xlink:href="#DejaVuSans-64" x="166.162109"/>
      <use xlink:href="#DejaVuSans-65" x="229.638672"/>
      <use xlink:href="#DejaVuSans-76" x="291.162109"/>
      <use xlink:href="#DejaVuSans-20" x="350.341797"/>
      <use xlink:href="#DejaVuSans-6f" x="382.128906"/>
      <use xlink:href="#DejaVuSans-66" x="443.310547"/>
      <use xlink:href="#DejaVuSans-20" x="478.515625"/>
      <use xlink:href="#DejaVuSans-53" x="510.302734"/>
      <use xlink:href="#DejaVuSans-6d" x="573.779297"/>
      <use xlink:href="#DejaVuSans-6f" x="671.191406"/>
      <use xlink:href="#DejaVuSans-6b" x="732.373047"/>
      <use xlink:href="#DejaVuSans-65" x="786.658203"/>
      <use xlink:href="#DejaVuSans-20" x="848.181641"/>
      <use xlink:href="#DejaVuSans-4c" x="879.96875"/>
      <use xlink:href="#DejaVuSans-61" x="935.681641"/>
      <use xlink:href="#DejaVuSans-79" x="996.960938"/>
      <use xlink:href="#DejaVuSans-65" x="1056.140625"/>
      <use xlink:href="#DejaVuSans-72" x="1117.664062"/>
      <use xlink:href="#DejaVuSans-20" x="1158.777344"/>
      <use xlink:href="#DejaVuSans-48" x="1190.564453"/>
      <use xlink:href="#DejaVuSans-65" x="1265.759766"/>
      <use xlink:href="#DejaVuSans-69" x="1327.283203"/>
      <use xlink:href="#DejaVuSans-67" x="1355.066406"/>
      <use xlink:href="#DejaVuSans-68" x="1418.542969"/>
      <use xlink:href="#DejaVuSans-74" x="1481.921875"/>
     </g>
    </g>
   </g>
  </g>
 </g>
 <defs>
  <clipPath id="p130f7855cb">
   <rect x="43.78125" y="7.2" width="334.8" height="221.76"/>
  </clipPath>
 </defs>
</svg>
