<?xml version="1.0" encoding="utf-8" standalone="no"?>
<!DOCTYPE svg PUBLIC "-//W3C//DTD SVG 1.1//EN"
  "http://www.w3.org/Graphics/SVG/1.1/DTD/svg11.dtd">
<svg height="262.19625pt" version="1.1" viewBox="0 0 595.283125 262.19625" width="595.283125pt" xmlns="http://www.w3.org/2000/svg" xmlns:xlink="http://www.w3.org/1999/xlink">
 <metadata>
  <rdf:RDF xmlns:cc="http://creativecommons.org/ns#" xmlns:dc="http://purl.org/dc/elements/1.1/" xmlns:rdf="http://www.w3.org/1999/02/22-rdf-syntax-ns#">
   <cc:Work>
    <dc:type rdf:resource="http://purl.org/dc/dcmitype/StillImage"/>
    <dc:date>2021-07-01T18:21:26.997098</dc:date>
    <dc:format>image/svg+xml</dc:format>
    <dc:creator>
     <cc:Agent>
      <dc:title>Matplotlib v3.4.1, https://matplotlib.org/</dc:title>
     </cc:Agent>
    </dc:creator>
   </cc:Work>
  </rdf:RDF>
 </metadata>
 <defs>
  <style type="text/css">*{stroke-linecap:butt;stroke-linejoin:round;}</style>
 </defs>
 <g id="figure_1">
  <g id="patch_1">
   <path d="M 0 262.19625 
L 595.283125 262.19625 
L 595.283125 0 
L 0 0 
z
" style="fill:none;"/>
  </g>
  <g id="axes_1">
   <g id="patch_2">
    <path d="M 40.603125 224.64 
L 375.403125 224.64 
L 375.403125 7.2 
L 40.603125 7.2 
z
" style="fill:#ffffff;"/>
   </g>
   <g id="matplotlib.axis_1">
    <g id="xtick_1">
     <g id="line2d_1">
      <path clip-path="url(#pbb35a863f5)" d="M 40.603125 224.64 
L 40.603125 7.2 
" style="fill:none;stroke:#b0b0b0;stroke-dasharray:2.96,1.28;stroke-dashoffset:0;stroke-opacity:0.5;stroke-width:0.8;"/>
     </g>
     <g id="line2d_2">
      <defs>
       <path d="M 0 0 
L 0 3.5 
" id="m1e51dae599" style="stroke:#000000;stroke-width:0.8;"/>
      </defs>
      <g>
       <use style="stroke:#000000;stroke-width:0.8;" x="40.603125" xlink:href="#m1e51dae599" y="224.64"/>
      </g>
     </g>
     <g id="text_1">
      <!-- 0 -->
      <g transform="translate(37.421875 239.238438)scale(0.1 -0.1)">
       <defs>
        <path d="M 2034 4250 
Q 1547 4250 1301 3770 
Q 1056 3291 1056 2328 
Q 1056 1369 1301 889 
Q 1547 409 2034 409 
Q 2525 409 2770 889 
Q 3016 1369 3016 2328 
Q 3016 3291 2770 3770 
Q 2525 4250 2034 4250 
z
M 2034 4750 
Q 2819 4750 3233 4129 
Q 3647 3509 3647 2328 
Q 3647 1150 3233 529 
Q 2819 -91 2034 -91 
Q 1250 -91 836 529 
Q 422 1150 422 2328 
Q 422 3509 836 4129 
Q 1250 4750 2034 4750 
z
" id="DejaVuSans-30" transform="scale(0.015625)"/>
       </defs>
       <use xlink:href="#DejaVuSans-30"/>
      </g>
     </g>
    </g>
    <g id="xtick_2">
     <g id="line2d_3">
      <path clip-path="url(#pbb35a863f5)" d="M 107.563125 224.64 
L 107.563125 7.2 
" style="fill:none;stroke:#b0b0b0;stroke-dasharray:2.96,1.28;stroke-dashoffset:0;stroke-opacity:0.5;stroke-width:0.8;"/>
     </g>
     <g id="line2d_4">
      <g>
       <use style="stroke:#000000;stroke-width:0.8;" x="107.563125" xlink:href="#m1e51dae599" y="224.64"/>
      </g>
     </g>
     <g id="text_2">
      <!-- 2 -->
      <g transform="translate(104.381875 239.238438)scale(0.1 -0.1)">
       <defs>
        <path d="M 1228 531 
L 3431 531 
L 3431 0 
L 469 0 
L 469 531 
Q 828 903 1448 1529 
Q 2069 2156 2228 2338 
Q 2531 2678 2651 2914 
Q 2772 3150 2772 3378 
Q 2772 3750 2511 3984 
Q 2250 4219 1831 4219 
Q 1534 4219 1204 4116 
Q 875 4013 500 3803 
L 500 4441 
Q 881 4594 1212 4672 
Q 1544 4750 1819 4750 
Q 2544 4750 2975 4387 
Q 3406 4025 3406 3419 
Q 3406 3131 3298 2873 
Q 3191 2616 2906 2266 
Q 2828 2175 2409 1742 
Q 1991 1309 1228 531 
z
" id="DejaVuSans-32" transform="scale(0.015625)"/>
       </defs>
       <use xlink:href="#DejaVuSans-32"/>
      </g>
     </g>
    </g>
    <g id="xtick_3">
     <g id="line2d_5">
      <path clip-path="url(#pbb35a863f5)" d="M 174.523125 224.64 
L 174.523125 7.2 
" style="fill:none;stroke:#b0b0b0;stroke-dasharray:2.96,1.28;stroke-dashoffset:0;stroke-opacity:0.5;stroke-width:0.8;"/>
     </g>
     <g id="line2d_6">
      <g>
       <use style="stroke:#000000;stroke-width:0.8;" x="174.523125" xlink:href="#m1e51dae599" y="224.64"/>
      </g>
     </g>
     <g id="text_3">
      <!-- 4 -->
      <g transform="translate(171.341875 239.238438)scale(0.1 -0.1)">
       <defs>
        <path d="M 2419 4116 
L 825 1625 
L 2419 1625 
L 2419 4116 
z
M 2253 4666 
L 3047 4666 
L 3047 1625 
L 3713 1625 
L 3713 1100 
L 3047 1100 
L 3047 0 
L 2419 0 
L 2419 1100 
L 313 1100 
L 313 1709 
L 2253 4666 
z
" id="DejaVuSans-34" transform="scale(0.015625)"/>
       </defs>
       <use xlink:href="#DejaVuSans-34"/>
      </g>
     </g>
    </g>
    <g id="xtick_4">
     <g id="line2d_7">
      <path clip-path="url(#pbb35a863f5)" d="M 241.483125 224.64 
L 241.483125 7.2 
" style="fill:none;stroke:#b0b0b0;stroke-dasharray:2.96,1.28;stroke-dashoffset:0;stroke-opacity:0.5;stroke-width:0.8;"/>
     </g>
     <g id="line2d_8">
      <g>
       <use style="stroke:#000000;stroke-width:0.8;" x="241.483125" xlink:href="#m1e51dae599" y="224.64"/>
      </g>
     </g>
     <g id="text_4">
      <!-- 6 -->
      <g transform="translate(238.301875 239.238438)scale(0.1 -0.1)">
       <defs>
        <path d="M 2113 2584 
Q 1688 2584 1439 2293 
Q 1191 2003 1191 1497 
Q 1191 994 1439 701 
Q 1688 409 2113 409 
Q 2538 409 2786 701 
Q 3034 994 3034 1497 
Q 3034 2003 2786 2293 
Q 2538 2584 2113 2584 
z
M 3366 4563 
L 3366 3988 
Q 3128 4100 2886 4159 
Q 2644 4219 2406 4219 
Q 1781 4219 1451 3797 
Q 1122 3375 1075 2522 
Q 1259 2794 1537 2939 
Q 1816 3084 2150 3084 
Q 2853 3084 3261 2657 
Q 3669 2231 3669 1497 
Q 3669 778 3244 343 
Q 2819 -91 2113 -91 
Q 1303 -91 875 529 
Q 447 1150 447 2328 
Q 447 3434 972 4092 
Q 1497 4750 2381 4750 
Q 2619 4750 2861 4703 
Q 3103 4656 3366 4563 
z
" id="DejaVuSans-36" transform="scale(0.015625)"/>
       </defs>
       <use xlink:href="#DejaVuSans-36"/>
      </g>
     </g>
    </g>
    <g id="xtick_5">
     <g id="line2d_9">
      <path clip-path="url(#pbb35a863f5)" d="M 308.443125 224.64 
L 308.443125 7.2 
" style="fill:none;stroke:#b0b0b0;stroke-dasharray:2.96,1.28;stroke-dashoffset:0;stroke-opacity:0.5;stroke-width:0.8;"/>
     </g>
     <g id="line2d_10">
      <g>
       <use style="stroke:#000000;stroke-width:0.8;" x="308.443125" xlink:href="#m1e51dae599" y="224.64"/>
      </g>
     </g>
     <g id="text_5">
      <!-- 8 -->
      <g transform="translate(305.261875 239.238438)scale(0.1 -0.1)">
       <defs>
        <path d="M 2034 2216 
Q 1584 2216 1326 1975 
Q 1069 1734 1069 1313 
Q 1069 891 1326 650 
Q 1584 409 2034 409 
Q 2484 409 2743 651 
Q 3003 894 3003 1313 
Q 3003 1734 2745 1975 
Q 2488 2216 2034 2216 
z
M 1403 2484 
Q 997 2584 770 2862 
Q 544 3141 544 3541 
Q 544 4100 942 4425 
Q 1341 4750 2034 4750 
Q 2731 4750 3128 4425 
Q 3525 4100 3525 3541 
Q 3525 3141 3298 2862 
Q 3072 2584 2669 2484 
Q 3125 2378 3379 2068 
Q 3634 1759 3634 1313 
Q 3634 634 3220 271 
Q 2806 -91 2034 -91 
Q 1263 -91 848 271 
Q 434 634 434 1313 
Q 434 1759 690 2068 
Q 947 2378 1403 2484 
z
M 1172 3481 
Q 1172 3119 1398 2916 
Q 1625 2713 2034 2713 
Q 2441 2713 2670 2916 
Q 2900 3119 2900 3481 
Q 2900 3844 2670 4047 
Q 2441 4250 2034 4250 
Q 1625 4250 1398 4047 
Q 1172 3844 1172 3481 
z
" id="DejaVuSans-38" transform="scale(0.015625)"/>
       </defs>
       <use xlink:href="#DejaVuSans-38"/>
      </g>
     </g>
    </g>
    <g id="xtick_6">
     <g id="line2d_11">
      <path clip-path="url(#pbb35a863f5)" d="M 375.403125 224.64 
L 375.403125 7.2 
" style="fill:none;stroke:#b0b0b0;stroke-dasharray:2.96,1.28;stroke-dashoffset:0;stroke-opacity:0.5;stroke-width:0.8;"/>
     </g>
     <g id="line2d_12">
      <g>
       <use style="stroke:#000000;stroke-width:0.8;" x="375.403125" xlink:href="#m1e51dae599" y="224.64"/>
      </g>
     </g>
     <g id="text_6">
      <!-- 10 -->
      <g transform="translate(369.040625 239.238438)scale(0.1 -0.1)">
       <defs>
        <path d="M 794 531 
L 1825 531 
L 1825 4091 
L 703 3866 
L 703 4441 
L 1819 4666 
L 2450 4666 
L 2450 531 
L 3481 531 
L 3481 0 
L 794 0 
L 794 531 
z
" id="DejaVuSans-31" transform="scale(0.015625)"/>
       </defs>
       <use xlink:href="#DejaVuSans-31"/>
       <use x="63.623047" xlink:href="#DejaVuSans-30"/>
      </g>
     </g>
    </g>
    <g id="text_7">
     <!-- Time / s -->
     <g transform="translate(188.302344 252.916563)scale(0.1 -0.1)">
      <defs>
       <path d="M -19 4666 
L 3928 4666 
L 3928 4134 
L 2272 4134 
L 2272 0 
L 1638 0 
L 1638 4134 
L -19 4134 
L -19 4666 
z
" id="DejaVuSans-54" transform="scale(0.015625)"/>
       <path d="M 603 3500 
L 1178 3500 
L 1178 0 
L 603 0 
L 603 3500 
z
M 603 4863 
L 1178 4863 
L 1178 4134 
L 603 4134 
L 603 4863 
z
" id="DejaVuSans-69" transform="scale(0.015625)"/>
       <path d="M 3328 2828 
Q 3544 3216 3844 3400 
Q 4144 3584 4550 3584 
Q 5097 3584 5394 3201 
Q 5691 2819 5691 2113 
L 5691 0 
L 5113 0 
L 5113 2094 
Q 5113 2597 4934 2840 
Q 4756 3084 4391 3084 
Q 3944 3084 3684 2787 
Q 3425 2491 3425 1978 
L 3425 0 
L 2847 0 
L 2847 2094 
Q 2847 2600 2669 2842 
Q 2491 3084 2119 3084 
Q 1678 3084 1418 2786 
Q 1159 2488 1159 1978 
L 1159 0 
L 581 0 
L 581 3500 
L 1159 3500 
L 1159 2956 
Q 1356 3278 1631 3431 
Q 1906 3584 2284 3584 
Q 2666 3584 2933 3390 
Q 3200 3197 3328 2828 
z
" id="DejaVuSans-6d" transform="scale(0.015625)"/>
       <path d="M 3597 1894 
L 3597 1613 
L 953 1613 
Q 991 1019 1311 708 
Q 1631 397 2203 397 
Q 2534 397 2845 478 
Q 3156 559 3463 722 
L 3463 178 
Q 3153 47 2828 -22 
Q 2503 -91 2169 -91 
Q 1331 -91 842 396 
Q 353 884 353 1716 
Q 353 2575 817 3079 
Q 1281 3584 2069 3584 
Q 2775 3584 3186 3129 
Q 3597 2675 3597 1894 
z
M 3022 2063 
Q 3016 2534 2758 2815 
Q 2500 3097 2075 3097 
Q 1594 3097 1305 2825 
Q 1016 2553 972 2059 
L 3022 2063 
z
" id="DejaVuSans-65" transform="scale(0.015625)"/>
       <path id="DejaVuSans-20" transform="scale(0.015625)"/>
       <path d="M 1625 4666 
L 2156 4666 
L 531 -594 
L 0 -594 
L 1625 4666 
z
" id="DejaVuSans-2f" transform="scale(0.015625)"/>
       <path d="M 2834 3397 
L 2834 2853 
Q 2591 2978 2328 3040 
Q 2066 3103 1784 3103 
Q 1356 3103 1142 2972 
Q 928 2841 928 2578 
Q 928 2378 1081 2264 
Q 1234 2150 1697 2047 
L 1894 2003 
Q 2506 1872 2764 1633 
Q 3022 1394 3022 966 
Q 3022 478 2636 193 
Q 2250 -91 1575 -91 
Q 1294 -91 989 -36 
Q 684 19 347 128 
L 347 722 
Q 666 556 975 473 
Q 1284 391 1588 391 
Q 1994 391 2212 530 
Q 2431 669 2431 922 
Q 2431 1156 2273 1281 
Q 2116 1406 1581 1522 
L 1381 1569 
Q 847 1681 609 1914 
Q 372 2147 372 2553 
Q 372 3047 722 3315 
Q 1072 3584 1716 3584 
Q 2034 3584 2315 3537 
Q 2597 3491 2834 3397 
z
" id="DejaVuSans-73" transform="scale(0.015625)"/>
      </defs>
      <use xlink:href="#DejaVuSans-54"/>
      <use x="57.958984" xlink:href="#DejaVuSans-69"/>
      <use x="85.742188" xlink:href="#DejaVuSans-6d"/>
      <use x="183.154297" xlink:href="#DejaVuSans-65"/>
      <use x="244.677734" xlink:href="#DejaVuSans-20"/>
      <use x="276.464844" xlink:href="#DejaVuSans-2f"/>
      <use x="310.15625" xlink:href="#DejaVuSans-20"/>
      <use x="341.943359" xlink:href="#DejaVuSans-73"/>
     </g>
    </g>
   </g>
   <g id="matplotlib.axis_2">
    <g id="ytick_1">
     <g id="line2d_13">
      <path clip-path="url(#pbb35a863f5)" d="M 40.603125 224.64 
L 375.403125 224.64 
" style="fill:none;stroke:#b0b0b0;stroke-dasharray:2.96,1.28;stroke-dashoffset:0;stroke-opacity:0.5;stroke-width:0.8;"/>
     </g>
     <g id="line2d_14">
      <defs>
       <path d="M 0 0 
L -3.5 0 
" id="m63e947c298" style="stroke:#000000;stroke-width:0.8;"/>
      </defs>
      <g>
       <use style="stroke:#000000;stroke-width:0.8;" x="40.603125" xlink:href="#m63e947c298" y="224.64"/>
      </g>
     </g>
     <g id="text_8">
      <!-- 20 -->
      <g transform="translate(20.878125 228.439219)scale(0.1 -0.1)">
       <use xlink:href="#DejaVuSans-32"/>
       <use x="63.623047" xlink:href="#DejaVuSans-30"/>
      </g>
     </g>
    </g>
    <g id="ytick_2">
     <g id="line2d_15">
      <path clip-path="url(#pbb35a863f5)" d="M 40.603125 195.648 
L 375.403125 195.648 
" style="fill:none;stroke:#b0b0b0;stroke-dasharray:2.96,1.28;stroke-dashoffset:0;stroke-opacity:0.5;stroke-width:0.8;"/>
     </g>
     <g id="line2d_16">
      <g>
       <use style="stroke:#000000;stroke-width:0.8;" x="40.603125" xlink:href="#m63e947c298" y="195.648"/>
      </g>
     </g>
     <g id="text_9">
      <!-- 22 -->
      <g transform="translate(20.878125 199.447219)scale(0.1 -0.1)">
       <use xlink:href="#DejaVuSans-32"/>
       <use x="63.623047" xlink:href="#DejaVuSans-32"/>
      </g>
     </g>
    </g>
    <g id="ytick_3">
     <g id="line2d_17">
      <path clip-path="url(#pbb35a863f5)" d="M 40.603125 166.656 
L 375.403125 166.656 
" style="fill:none;stroke:#b0b0b0;stroke-dasharray:2.96,1.28;stroke-dashoffset:0;stroke-opacity:0.5;stroke-width:0.8;"/>
     </g>
     <g id="line2d_18">
      <g>
       <use style="stroke:#000000;stroke-width:0.8;" x="40.603125" xlink:href="#m63e947c298" y="166.656"/>
      </g>
     </g>
     <g id="text_10">
      <!-- 24 -->
      <g transform="translate(20.878125 170.455219)scale(0.1 -0.1)">
       <use xlink:href="#DejaVuSans-32"/>
       <use x="63.623047" xlink:href="#DejaVuSans-34"/>
      </g>
     </g>
    </g>
    <g id="ytick_4">
     <g id="line2d_19">
      <path clip-path="url(#pbb35a863f5)" d="M 40.603125 137.664 
L 375.403125 137.664 
" style="fill:none;stroke:#b0b0b0;stroke-dasharray:2.96,1.28;stroke-dashoffset:0;stroke-opacity:0.5;stroke-width:0.8;"/>
     </g>
     <g id="line2d_20">
      <g>
       <use style="stroke:#000000;stroke-width:0.8;" x="40.603125" xlink:href="#m63e947c298" y="137.664"/>
      </g>
     </g>
     <g id="text_11">
      <!-- 26 -->
      <g transform="translate(20.878125 141.463219)scale(0.1 -0.1)">
       <use xlink:href="#DejaVuSans-32"/>
       <use x="63.623047" xlink:href="#DejaVuSans-36"/>
      </g>
     </g>
    </g>
    <g id="ytick_5">
     <g id="line2d_21">
      <path clip-path="url(#pbb35a863f5)" d="M 40.603125 108.672 
L 375.403125 108.672 
" style="fill:none;stroke:#b0b0b0;stroke-dasharray:2.96,1.28;stroke-dashoffset:0;stroke-opacity:0.5;stroke-width:0.8;"/>
     </g>
     <g id="line2d_22">
      <g>
       <use style="stroke:#000000;stroke-width:0.8;" x="40.603125" xlink:href="#m63e947c298" y="108.672"/>
      </g>
     </g>
     <g id="text_12">
      <!-- 28 -->
      <g transform="translate(20.878125 112.471219)scale(0.1 -0.1)">
       <use xlink:href="#DejaVuSans-32"/>
       <use x="63.623047" xlink:href="#DejaVuSans-38"/>
      </g>
     </g>
    </g>
    <g id="ytick_6">
     <g id="line2d_23">
      <path clip-path="url(#pbb35a863f5)" d="M 40.603125 79.68 
L 375.403125 79.68 
" style="fill:none;stroke:#b0b0b0;stroke-dasharray:2.96,1.28;stroke-dashoffset:0;stroke-opacity:0.5;stroke-width:0.8;"/>
     </g>
     <g id="line2d_24">
      <g>
       <use style="stroke:#000000;stroke-width:0.8;" x="40.603125" xlink:href="#m63e947c298" y="79.68"/>
      </g>
     </g>
     <g id="text_13">
      <!-- 30 -->
      <g transform="translate(20.878125 83.479219)scale(0.1 -0.1)">
       <defs>
        <path d="M 2597 2516 
Q 3050 2419 3304 2112 
Q 3559 1806 3559 1356 
Q 3559 666 3084 287 
Q 2609 -91 1734 -91 
Q 1441 -91 1130 -33 
Q 819 25 488 141 
L 488 750 
Q 750 597 1062 519 
Q 1375 441 1716 441 
Q 2309 441 2620 675 
Q 2931 909 2931 1356 
Q 2931 1769 2642 2001 
Q 2353 2234 1838 2234 
L 1294 2234 
L 1294 2753 
L 1863 2753 
Q 2328 2753 2575 2939 
Q 2822 3125 2822 3475 
Q 2822 3834 2567 4026 
Q 2313 4219 1838 4219 
Q 1578 4219 1281 4162 
Q 984 4106 628 3988 
L 628 4550 
Q 988 4650 1302 4700 
Q 1616 4750 1894 4750 
Q 2613 4750 3031 4423 
Q 3450 4097 3450 3541 
Q 3450 3153 3228 2886 
Q 3006 2619 2597 2516 
z
" id="DejaVuSans-33" transform="scale(0.015625)"/>
       </defs>
       <use xlink:href="#DejaVuSans-33"/>
       <use x="63.623047" xlink:href="#DejaVuSans-30"/>
      </g>
     </g>
    </g>
    <g id="ytick_7">
     <g id="line2d_25">
      <path clip-path="url(#pbb35a863f5)" d="M 40.603125 50.688 
L 375.403125 50.688 
" style="fill:none;stroke:#b0b0b0;stroke-dasharray:2.96,1.28;stroke-dashoffset:0;stroke-opacity:0.5;stroke-width:0.8;"/>
     </g>
     <g id="line2d_26">
      <g>
       <use style="stroke:#000000;stroke-width:0.8;" x="40.603125" xlink:href="#m63e947c298" y="50.688"/>
      </g>
     </g>
     <g id="text_14">
      <!-- 32 -->
      <g transform="translate(20.878125 54.487219)scale(0.1 -0.1)">
       <use xlink:href="#DejaVuSans-33"/>
       <use x="63.623047" xlink:href="#DejaVuSans-32"/>
      </g>
     </g>
    </g>
    <g id="ytick_8">
     <g id="line2d_27">
      <path clip-path="url(#pbb35a863f5)" d="M 40.603125 21.696 
L 375.403125 21.696 
" style="fill:none;stroke:#b0b0b0;stroke-dasharray:2.96,1.28;stroke-dashoffset:0;stroke-opacity:0.5;stroke-width:0.8;"/>
     </g>
     <g id="line2d_28">
      <g>
       <use style="stroke:#000000;stroke-width:0.8;" x="40.603125" xlink:href="#m63e947c298" y="21.696"/>
      </g>
     </g>
     <g id="text_15">
      <!-- 34 -->
      <g transform="translate(20.878125 25.495219)scale(0.1 -0.1)">
       <use xlink:href="#DejaVuSans-33"/>
       <use x="63.623047" xlink:href="#DejaVuSans-34"/>
      </g>
     </g>
    </g>
    <g id="text_16">
     <!-- Temperature / $^\circ C$ -->
     <g transform="translate(14.778125 160.67)rotate(-90)scale(0.1 -0.1)">
      <defs>
       <path d="M 1159 525 
L 1159 -1331 
L 581 -1331 
L 581 3500 
L 1159 3500 
L 1159 2969 
Q 1341 3281 1617 3432 
Q 1894 3584 2278 3584 
Q 2916 3584 3314 3078 
Q 3713 2572 3713 1747 
Q 3713 922 3314 415 
Q 2916 -91 2278 -91 
Q 1894 -91 1617 61 
Q 1341 213 1159 525 
z
M 3116 1747 
Q 3116 2381 2855 2742 
Q 2594 3103 2138 3103 
Q 1681 3103 1420 2742 
Q 1159 2381 1159 1747 
Q 1159 1113 1420 752 
Q 1681 391 2138 391 
Q 2594 391 2855 752 
Q 3116 1113 3116 1747 
z
" id="DejaVuSans-70" transform="scale(0.015625)"/>
       <path d="M 2631 2963 
Q 2534 3019 2420 3045 
Q 2306 3072 2169 3072 
Q 1681 3072 1420 2755 
Q 1159 2438 1159 1844 
L 1159 0 
L 581 0 
L 581 3500 
L 1159 3500 
L 1159 2956 
Q 1341 3275 1631 3429 
Q 1922 3584 2338 3584 
Q 2397 3584 2469 3576 
Q 2541 3569 2628 3553 
L 2631 2963 
z
" id="DejaVuSans-72" transform="scale(0.015625)"/>
       <path d="M 2194 1759 
Q 1497 1759 1228 1600 
Q 959 1441 959 1056 
Q 959 750 1161 570 
Q 1363 391 1709 391 
Q 2188 391 2477 730 
Q 2766 1069 2766 1631 
L 2766 1759 
L 2194 1759 
z
M 3341 1997 
L 3341 0 
L 2766 0 
L 2766 531 
Q 2569 213 2275 61 
Q 1981 -91 1556 -91 
Q 1019 -91 701 211 
Q 384 513 384 1019 
Q 384 1609 779 1909 
Q 1175 2209 1959 2209 
L 2766 2209 
L 2766 2266 
Q 2766 2663 2505 2880 
Q 2244 3097 1772 3097 
Q 1472 3097 1187 3025 
Q 903 2953 641 2809 
L 641 3341 
Q 956 3463 1253 3523 
Q 1550 3584 1831 3584 
Q 2591 3584 2966 3190 
Q 3341 2797 3341 1997 
z
" id="DejaVuSans-61" transform="scale(0.015625)"/>
       <path d="M 1172 4494 
L 1172 3500 
L 2356 3500 
L 2356 3053 
L 1172 3053 
L 1172 1153 
Q 1172 725 1289 603 
Q 1406 481 1766 481 
L 2356 481 
L 2356 0 
L 1766 0 
Q 1100 0 847 248 
Q 594 497 594 1153 
L 594 3053 
L 172 3053 
L 172 3500 
L 594 3500 
L 594 4494 
L 1172 4494 
z
" id="DejaVuSans-74" transform="scale(0.015625)"/>
       <path d="M 544 1381 
L 544 3500 
L 1119 3500 
L 1119 1403 
Q 1119 906 1312 657 
Q 1506 409 1894 409 
Q 2359 409 2629 706 
Q 2900 1003 2900 1516 
L 2900 3500 
L 3475 3500 
L 3475 0 
L 2900 0 
L 2900 538 
Q 2691 219 2414 64 
Q 2138 -91 1772 -91 
Q 1169 -91 856 284 
Q 544 659 544 1381 
z
M 1991 3584 
L 1991 3584 
z
" id="DejaVuSans-75" transform="scale(0.015625)"/>
       <path d="M 2000 2619 
Q 1750 2619 1578 2445 
Q 1406 2272 1406 2022 
Q 1406 1775 1578 1605 
Q 1750 1435 2000 1435 
Q 2250 1435 2422 1605 
Q 2594 1775 2594 2022 
Q 2594 2269 2420 2444 
Q 2247 2619 2000 2619 
z
M 2000 3022 
Q 2200 3022 2384 2945 
Q 2569 2869 2703 2725 
Q 2847 2585 2919 2406 
Q 2991 2228 2991 2022 
Q 2991 1610 2702 1324 
Q 2413 1038 1994 1038 
Q 1572 1038 1290 1319 
Q 1009 1600 1009 2022 
Q 1009 2441 1296 2731 
Q 1584 3022 2000 3022 
z
" id="DejaVuSans-2218" transform="scale(0.015625)"/>
       <path d="M 4447 4306 
L 4319 3641 
Q 4019 3944 3683 4091 
Q 3347 4238 2956 4238 
Q 2422 4238 2017 3981 
Q 1613 3725 1319 3200 
Q 1131 2863 1032 2486 
Q 934 2109 934 1728 
Q 934 1091 1264 756 
Q 1594 422 2222 422 
Q 2656 422 3056 561 
Q 3456 700 3834 978 
L 3688 231 
Q 3316 72 2936 -9 
Q 2556 -91 2175 -91 
Q 1278 -91 773 396 
Q 269 884 269 1753 
Q 269 2309 461 2846 
Q 653 3384 1013 3828 
Q 1394 4300 1883 4525 
Q 2372 4750 3022 4750 
Q 3422 4750 3780 4639 
Q 4138 4528 4447 4306 
z
" id="DejaVuSans-Oblique-43" transform="scale(0.015625)"/>
      </defs>
      <use transform="translate(0 0.78125)" xlink:href="#DejaVuSans-54"/>
      <use transform="translate(61.083984 0.78125)" xlink:href="#DejaVuSans-65"/>
      <use transform="translate(122.607422 0.78125)" xlink:href="#DejaVuSans-6d"/>
      <use transform="translate(220.019531 0.78125)" xlink:href="#DejaVuSans-70"/>
      <use transform="translate(283.496094 0.78125)" xlink:href="#DejaVuSans-65"/>
      <use transform="translate(345.019531 0.78125)" xlink:href="#DejaVuSans-72"/>
      <use transform="translate(386.132812 0.78125)" xlink:href="#DejaVuSans-61"/>
      <use transform="translate(447.412109 0.78125)" xlink:href="#DejaVuSans-74"/>
      <use transform="translate(486.621094 0.78125)" xlink:href="#DejaVuSans-75"/>
      <use transform="translate(550 0.78125)" xlink:href="#DejaVuSans-72"/>
      <use transform="translate(591.113281 0.78125)" xlink:href="#DejaVuSans-65"/>
      <use transform="translate(652.636719 0.78125)" xlink:href="#DejaVuSans-20"/>
      <use transform="translate(684.423828 0.78125)" xlink:href="#DejaVuSans-2f"/>
      <use transform="translate(718.115234 0.78125)" xlink:href="#DejaVuSans-20"/>
      <use transform="translate(764.49707 39.0625)scale(0.7)" xlink:href="#DejaVuSans-2218"/>
      <use transform="translate(824.6875 0.78125)" xlink:href="#DejaVuSans-Oblique-43"/>
     </g>
    </g>
   </g>
   <g id="line2d_29">
    <path clip-path="url(#pbb35a863f5)" d="M 40.603125 224.64 
L 64.27706 224.205414 
L 83.216209 222.338338 
L 102.155355 213.887969 
L 122.194676 199.620791 
L 142.0206 173.562868 
L 161.829537 151.202435 
L 182.160641 134.071658 
L 202.43116 119.915353 
L 222.347172 107.289581 
L 242.416378 95.099917 
L 262.638796 83.080569 
L 283.198241 71.201346 
L 303.21842 59.304649 
L 323.609344 47.539119 
L 343.837142 35.614193 
L 363.575564 24.032279 
L 383.313986 12.389427 
" style="fill:none;stroke:#0000ff;stroke-linecap:square;"/>
   </g>
   <g id="line2d_30">
    <path clip-path="url(#pbb35a863f5)" d="M 40.603125 224.64 
L 64.27706 224.462052 
L 83.216209 223.521822 
L 102.155355 218.727471 
L 122.194676 209.458141 
L 142.0206 191.556844 
L 161.829537 171.498018 
L 182.160641 154.820684 
L 202.43116 140.683456 
L 222.347172 128.090172 
L 242.416378 115.969962 
L 262.638796 104.016087 
L 283.198241 92.1101 
L 303.21842 80.268424 
L 323.609344 68.533308 
L 343.837142 56.626187 
L 363.575564 45.081572 
L 383.313986 33.515363 
" style="fill:none;stroke:#ff0000;stroke-linecap:square;"/>
   </g>
   <g id="line2d_31">
    <path clip-path="url(#pbb35a863f5)" d="M 40.603125 224.64 
L 64.27706 224.621973 
L 83.216209 224.46407 
L 102.155355 223.648952 
L 122.194676 221.201552 
L 142.0206 216.013701 
L 161.829537 207.327376 
L 182.160641 196.664983 
L 202.43116 185.210613 
L 222.347172 173.821717 
L 242.416378 162.342657 
L 262.638796 150.757619 
L 283.198241 139.015701 
L 303.21842 127.32203 
L 323.609344 115.661483 
L 343.837142 103.852156 
L 363.575564 92.363641 
L 383.313986 80.92387 
" style="fill:none;stroke:#008000;stroke-linecap:square;"/>
   </g>
   <g id="line2d_32">
    <path clip-path="url(#pbb35a863f5)" d="M 40.603125 224.64 
L 64.27706 224.636654 
L 83.216209 224.591421 
L 102.155355 224.340949 
L 122.194676 223.346915 
L 142.0206 220.898962 
L 161.829537 215.978227 
L 182.160641 208.396007 
L 202.43116 198.843801 
L 222.347172 188.450791 
L 242.416378 177.492112 
L 262.638796 166.188208 
L 283.198241 154.601538 
L 303.21842 142.994962 
L 323.609344 131.391261 
L 343.837142 119.627832 
L 363.575564 108.174126 
L 383.313986 96.772925 
" style="fill:none;stroke:#ffff00;stroke-linecap:square;"/>
   </g>
   <g id="line2d_33">
    <path clip-path="url(#pbb35a863f5)" d="M 40.603125 224.64 
L 64.27706 224.238952 
L 83.216209 222.726639 
L 102.155355 215.07549 
L 122.194676 198.799535 
L 142.0206 173.203984 
L 161.829537 151.010662 
L 182.160641 133.956362 
L 202.43116 119.827125 
L 222.347172 107.213823 
L 242.416378 95.027366 
L 262.638796 83.007355 
L 283.198241 71.111349 
L 303.21842 59.214099 
L 323.609344 47.46878 
L 343.837142 35.473957 
L 363.575564 23.921794 
L 383.313986 12.253837 
" style="fill:none;stroke:#0000ff;stroke-dasharray:3.7,1.6;stroke-dashoffset:0;"/>
   </g>
   <g id="line2d_34">
    <path clip-path="url(#pbb35a863f5)" d="M 40.603125 224.64 
L 64.27706 224.472558 
L 83.216209 223.685061 
L 102.155355 219.448057 
L 122.194676 209.468896 
L 142.0206 191.133705 
L 161.829537 171.300356 
L 182.160641 154.704503 
L 202.43116 140.596417 
L 222.347172 128.017262 
L 242.416378 115.900756 
L 262.638796 103.939527 
L 283.198241 92.03025 
L 303.21842 80.177211 
L 323.609344 68.453541 
L 343.837142 56.5115 
L 363.575564 44.957594 
L 383.313986 33.391827 
" style="fill:none;stroke:#ff0000;stroke-dasharray:3.7,1.6;stroke-dashoffset:0;"/>
   </g>
   <g id="line2d_35">
    <path clip-path="url(#pbb35a863f5)" d="M 40.603125 224.64 
L 64.27706 224.622775 
L 83.216209 224.483949 
L 102.155355 223.778349 
L 122.194676 221.411573 
L 142.0206 216.040355 
L 161.829537 207.288972 
L 182.160641 196.612118 
L 202.43116 185.152883 
L 222.347172 173.76053 
L 242.416378 162.277157 
L 262.638796 150.685317 
L 283.198241 138.936293 
L 303.21842 127.231729 
L 323.609344 115.562416 
L 343.837142 103.742197 
L 363.575564 92.235184 
L 383.313986 80.782999 
" style="fill:none;stroke:#008000;stroke-dasharray:3.7,1.6;stroke-dashoffset:0;"/>
   </g>
   <g id="line2d_36">
    <path clip-path="url(#pbb35a863f5)" d="M 40.603125 224.64 
L 64.27706 224.636765 
L 83.216209 224.595872 
L 102.155355 224.379105 
L 122.194676 223.466469 
L 142.0206 221.010443 
L 161.829537 216.020226 
L 182.160641 208.385279 
L 202.43116 198.799646 
L 222.347172 188.384544 
L 242.416378 177.408391 
L 262.638796 166.088008 
L 283.198241 154.484169 
L 303.21842 142.859012 
L 323.609344 131.235348 
L 343.837142 119.451846 
L 363.575564 107.974418 
L 383.313986 96.548167 
" style="fill:none;stroke:#ffff00;stroke-dasharray:3.7,1.6;stroke-dashoffset:0;"/>
   </g>
   <g id="patch_3">
    <path d="M 40.603125 224.64 
L 40.603125 7.2 
" style="fill:none;stroke:#000000;stroke-linecap:square;stroke-linejoin:miter;stroke-width:0.8;"/>
   </g>
   <g id="patch_4">
    <path d="M 375.403125 224.64 
L 375.403125 7.2 
" style="fill:none;stroke:#000000;stroke-linecap:square;stroke-linejoin:miter;stroke-width:0.8;"/>
   </g>
   <g id="patch_5">
    <path d="M 40.603125 224.64 
L 375.403125 224.64 
" style="fill:none;stroke:#000000;stroke-linecap:square;stroke-linejoin:miter;stroke-width:0.8;"/>
   </g>
   <g id="patch_6">
    <path d="M 40.603125 7.2 
L 375.403125 7.2 
" style="fill:none;stroke:#000000;stroke-linecap:square;stroke-linejoin:miter;stroke-width:0.8;"/>
   </g>
   <g id="legend_1">
    <g id="patch_7">
     <path d="M 415.883125 132.625 
L 586.083125 132.625 
Q 588.083125 132.625 588.083125 130.625 
L 588.083125 14.2 
Q 588.083125 12.2 586.083125 12.2 
L 415.883125 12.2 
Q 413.883125 12.2 413.883125 14.2 
L 413.883125 130.625 
Q 413.883125 132.625 415.883125 132.625 
z
" style="fill:#ffffff;opacity:0.8;stroke:#cccccc;stroke-linejoin:miter;"/>
    </g>
    <g id="line2d_37">
     <path d="M 417.883125 20.298438 
L 437.883125 20.298438 
" style="fill:none;stroke:#0000ff;stroke-linecap:square;"/>
    </g>
    <g id="line2d_38"/>
    <g id="text_17">
     <!-- Front, back. exposed -->
     <g transform="translate(445.883125 23.798438)scale(0.1 -0.1)">
      <defs>
       <path d="M 628 4666 
L 3309 4666 
L 3309 4134 
L 1259 4134 
L 1259 2759 
L 3109 2759 
L 3109 2228 
L 1259 2228 
L 1259 0 
L 628 0 
L 628 4666 
z
" id="DejaVuSans-46" transform="scale(0.015625)"/>
       <path d="M 1959 3097 
Q 1497 3097 1228 2736 
Q 959 2375 959 1747 
Q 959 1119 1226 758 
Q 1494 397 1959 397 
Q 2419 397 2687 759 
Q 2956 1122 2956 1747 
Q 2956 2369 2687 2733 
Q 2419 3097 1959 3097 
z
M 1959 3584 
Q 2709 3584 3137 3096 
Q 3566 2609 3566 1747 
Q 3566 888 3137 398 
Q 2709 -91 1959 -91 
Q 1206 -91 779 398 
Q 353 888 353 1747 
Q 353 2609 779 3096 
Q 1206 3584 1959 3584 
z
" id="DejaVuSans-6f" transform="scale(0.015625)"/>
       <path d="M 3513 2113 
L 3513 0 
L 2938 0 
L 2938 2094 
Q 2938 2591 2744 2837 
Q 2550 3084 2163 3084 
Q 1697 3084 1428 2787 
Q 1159 2491 1159 1978 
L 1159 0 
L 581 0 
L 581 3500 
L 1159 3500 
L 1159 2956 
Q 1366 3272 1645 3428 
Q 1925 3584 2291 3584 
Q 2894 3584 3203 3211 
Q 3513 2838 3513 2113 
z
" id="DejaVuSans-6e" transform="scale(0.015625)"/>
       <path d="M 750 794 
L 1409 794 
L 1409 256 
L 897 -744 
L 494 -744 
L 750 256 
L 750 794 
z
" id="DejaVuSans-2c" transform="scale(0.015625)"/>
       <path d="M 3116 1747 
Q 3116 2381 2855 2742 
Q 2594 3103 2138 3103 
Q 1681 3103 1420 2742 
Q 1159 2381 1159 1747 
Q 1159 1113 1420 752 
Q 1681 391 2138 391 
Q 2594 391 2855 752 
Q 3116 1113 3116 1747 
z
M 1159 2969 
Q 1341 3281 1617 3432 
Q 1894 3584 2278 3584 
Q 2916 3584 3314 3078 
Q 3713 2572 3713 1747 
Q 3713 922 3314 415 
Q 2916 -91 2278 -91 
Q 1894 -91 1617 61 
Q 1341 213 1159 525 
L 1159 0 
L 581 0 
L 581 4863 
L 1159 4863 
L 1159 2969 
z
" id="DejaVuSans-62" transform="scale(0.015625)"/>
       <path d="M 3122 3366 
L 3122 2828 
Q 2878 2963 2633 3030 
Q 2388 3097 2138 3097 
Q 1578 3097 1268 2742 
Q 959 2388 959 1747 
Q 959 1106 1268 751 
Q 1578 397 2138 397 
Q 2388 397 2633 464 
Q 2878 531 3122 666 
L 3122 134 
Q 2881 22 2623 -34 
Q 2366 -91 2075 -91 
Q 1284 -91 818 406 
Q 353 903 353 1747 
Q 353 2603 823 3093 
Q 1294 3584 2113 3584 
Q 2378 3584 2631 3529 
Q 2884 3475 3122 3366 
z
" id="DejaVuSans-63" transform="scale(0.015625)"/>
       <path d="M 581 4863 
L 1159 4863 
L 1159 1991 
L 2875 3500 
L 3609 3500 
L 1753 1863 
L 3688 0 
L 2938 0 
L 1159 1709 
L 1159 0 
L 581 0 
L 581 4863 
z
" id="DejaVuSans-6b" transform="scale(0.015625)"/>
       <path d="M 684 794 
L 1344 794 
L 1344 0 
L 684 0 
L 684 794 
z
" id="DejaVuSans-2e" transform="scale(0.015625)"/>
       <path d="M 3513 3500 
L 2247 1797 
L 3578 0 
L 2900 0 
L 1881 1375 
L 863 0 
L 184 0 
L 1544 1831 
L 300 3500 
L 978 3500 
L 1906 2253 
L 2834 3500 
L 3513 3500 
z
" id="DejaVuSans-78" transform="scale(0.015625)"/>
       <path d="M 2906 2969 
L 2906 4863 
L 3481 4863 
L 3481 0 
L 2906 0 
L 2906 525 
Q 2725 213 2448 61 
Q 2172 -91 1784 -91 
Q 1150 -91 751 415 
Q 353 922 353 1747 
Q 353 2572 751 3078 
Q 1150 3584 1784 3584 
Q 2172 3584 2448 3432 
Q 2725 3281 2906 2969 
z
M 947 1747 
Q 947 1113 1208 752 
Q 1469 391 1925 391 
Q 2381 391 2643 752 
Q 2906 1113 2906 1747 
Q 2906 2381 2643 2742 
Q 2381 3103 1925 3103 
Q 1469 3103 1208 2742 
Q 947 2381 947 1747 
z
" id="DejaVuSans-64" transform="scale(0.015625)"/>
      </defs>
      <use xlink:href="#DejaVuSans-46"/>
      <use x="50.269531" xlink:href="#DejaVuSans-72"/>
      <use x="89.132812" xlink:href="#DejaVuSans-6f"/>
      <use x="150.314453" xlink:href="#DejaVuSans-6e"/>
      <use x="213.693359" xlink:href="#DejaVuSans-74"/>
      <use x="252.902344" xlink:href="#DejaVuSans-2c"/>
      <use x="284.689453" xlink:href="#DejaVuSans-20"/>
      <use x="316.476562" xlink:href="#DejaVuSans-62"/>
      <use x="379.953125" xlink:href="#DejaVuSans-61"/>
      <use x="441.232422" xlink:href="#DejaVuSans-63"/>
      <use x="496.212891" xlink:href="#DejaVuSans-6b"/>
      <use x="554.123047" xlink:href="#DejaVuSans-2e"/>
      <use x="585.910156" xlink:href="#DejaVuSans-20"/>
      <use x="617.697266" xlink:href="#DejaVuSans-65"/>
      <use x="677.470703" xlink:href="#DejaVuSans-78"/>
      <use x="736.650391" xlink:href="#DejaVuSans-70"/>
      <use x="800.126953" xlink:href="#DejaVuSans-6f"/>
      <use x="861.308594" xlink:href="#DejaVuSans-73"/>
      <use x="913.408203" xlink:href="#DejaVuSans-65"/>
      <use x="974.931641" xlink:href="#DejaVuSans-64"/>
     </g>
    </g>
    <g id="line2d_39">
     <path d="M 417.883125 34.976563 
L 437.883125 34.976563 
" style="fill:none;stroke:#ff0000;stroke-linecap:square;"/>
    </g>
    <g id="line2d_40"/>
    <g id="text_18">
     <!-- d = 2.5 mm, back. exposed -->
     <g transform="translate(445.883125 38.476563)scale(0.1 -0.1)">
      <defs>
       <path d="M 678 2906 
L 4684 2906 
L 4684 2381 
L 678 2381 
L 678 2906 
z
M 678 1631 
L 4684 1631 
L 4684 1100 
L 678 1100 
L 678 1631 
z
" id="DejaVuSans-3d" transform="scale(0.015625)"/>
       <path d="M 691 4666 
L 3169 4666 
L 3169 4134 
L 1269 4134 
L 1269 2991 
Q 1406 3038 1543 3061 
Q 1681 3084 1819 3084 
Q 2600 3084 3056 2656 
Q 3513 2228 3513 1497 
Q 3513 744 3044 326 
Q 2575 -91 1722 -91 
Q 1428 -91 1123 -41 
Q 819 9 494 109 
L 494 744 
Q 775 591 1075 516 
Q 1375 441 1709 441 
Q 2250 441 2565 725 
Q 2881 1009 2881 1497 
Q 2881 1984 2565 2268 
Q 2250 2553 1709 2553 
Q 1456 2553 1204 2497 
Q 953 2441 691 2322 
L 691 4666 
z
" id="DejaVuSans-35" transform="scale(0.015625)"/>
      </defs>
      <use xlink:href="#DejaVuSans-64"/>
      <use x="63.476562" xlink:href="#DejaVuSans-20"/>
      <use x="95.263672" xlink:href="#DejaVuSans-3d"/>
      <use x="179.052734" xlink:href="#DejaVuSans-20"/>
      <use x="210.839844" xlink:href="#DejaVuSans-32"/>
      <use x="274.462891" xlink:href="#DejaVuSans-2e"/>
      <use x="306.25" xlink:href="#DejaVuSans-35"/>
      <use x="369.873047" xlink:href="#DejaVuSans-20"/>
      <use x="401.660156" xlink:href="#DejaVuSans-6d"/>
      <use x="499.072266" xlink:href="#DejaVuSans-6d"/>
      <use x="596.484375" xlink:href="#DejaVuSans-2c"/>
      <use x="628.271484" xlink:href="#DejaVuSans-20"/>
      <use x="660.058594" xlink:href="#DejaVuSans-62"/>
      <use x="723.535156" xlink:href="#DejaVuSans-61"/>
      <use x="784.814453" xlink:href="#DejaVuSans-63"/>
      <use x="839.794922" xlink:href="#DejaVuSans-6b"/>
      <use x="897.705078" xlink:href="#DejaVuSans-2e"/>
      <use x="929.492188" xlink:href="#DejaVuSans-20"/>
      <use x="961.279297" xlink:href="#DejaVuSans-65"/>
      <use x="1021.052734" xlink:href="#DejaVuSans-78"/>
      <use x="1080.232422" xlink:href="#DejaVuSans-70"/>
      <use x="1143.708984" xlink:href="#DejaVuSans-6f"/>
      <use x="1204.890625" xlink:href="#DejaVuSans-73"/>
      <use x="1256.990234" xlink:href="#DejaVuSans-65"/>
      <use x="1318.513672" xlink:href="#DejaVuSans-64"/>
     </g>
    </g>
    <g id="line2d_41">
     <path d="M 417.883125 49.654688 
L 437.883125 49.654688 
" style="fill:none;stroke:#008000;stroke-linecap:square;"/>
    </g>
    <g id="line2d_42"/>
    <g id="text_19">
     <!-- d = 7.5 mm, back. exposed -->
     <g transform="translate(445.883125 53.154688)scale(0.1 -0.1)">
      <defs>
       <path d="M 525 4666 
L 3525 4666 
L 3525 4397 
L 1831 0 
L 1172 0 
L 2766 4134 
L 525 4134 
L 525 4666 
z
" id="DejaVuSans-37" transform="scale(0.015625)"/>
      </defs>
      <use xlink:href="#DejaVuSans-64"/>
      <use x="63.476562" xlink:href="#DejaVuSans-20"/>
      <use x="95.263672" xlink:href="#DejaVuSans-3d"/>
      <use x="179.052734" xlink:href="#DejaVuSans-20"/>
      <use x="210.839844" xlink:href="#DejaVuSans-37"/>
      <use x="274.462891" xlink:href="#DejaVuSans-2e"/>
      <use x="306.25" xlink:href="#DejaVuSans-35"/>
      <use x="369.873047" xlink:href="#DejaVuSans-20"/>
      <use x="401.660156" xlink:href="#DejaVuSans-6d"/>
      <use x="499.072266" xlink:href="#DejaVuSans-6d"/>
      <use x="596.484375" xlink:href="#DejaVuSans-2c"/>
      <use x="628.271484" xlink:href="#DejaVuSans-20"/>
      <use x="660.058594" xlink:href="#DejaVuSans-62"/>
      <use x="723.535156" xlink:href="#DejaVuSans-61"/>
      <use x="784.814453" xlink:href="#DejaVuSans-63"/>
      <use x="839.794922" xlink:href="#DejaVuSans-6b"/>
      <use x="897.705078" xlink:href="#DejaVuSans-2e"/>
      <use x="929.492188" xlink:href="#DejaVuSans-20"/>
      <use x="961.279297" xlink:href="#DejaVuSans-65"/>
      <use x="1021.052734" xlink:href="#DejaVuSans-78"/>
      <use x="1080.232422" xlink:href="#DejaVuSans-70"/>
      <use x="1143.708984" xlink:href="#DejaVuSans-6f"/>
      <use x="1204.890625" xlink:href="#DejaVuSans-73"/>
      <use x="1256.990234" xlink:href="#DejaVuSans-65"/>
      <use x="1318.513672" xlink:href="#DejaVuSans-64"/>
     </g>
    </g>
    <g id="line2d_43">
     <path d="M 417.883125 64.332813 
L 437.883125 64.332813 
" style="fill:none;stroke:#ffff00;stroke-linecap:square;"/>
    </g>
    <g id="line2d_44"/>
    <g id="text_20">
     <!-- Back, back. exposed -->
     <g transform="translate(445.883125 67.832813)scale(0.1 -0.1)">
      <defs>
       <path d="M 1259 2228 
L 1259 519 
L 2272 519 
Q 2781 519 3026 730 
Q 3272 941 3272 1375 
Q 3272 1813 3026 2020 
Q 2781 2228 2272 2228 
L 1259 2228 
z
M 1259 4147 
L 1259 2741 
L 2194 2741 
Q 2656 2741 2882 2914 
Q 3109 3088 3109 3444 
Q 3109 3797 2882 3972 
Q 2656 4147 2194 4147 
L 1259 4147 
z
M 628 4666 
L 2241 4666 
Q 2963 4666 3353 4366 
Q 3744 4066 3744 3513 
Q 3744 3084 3544 2831 
Q 3344 2578 2956 2516 
Q 3422 2416 3680 2098 
Q 3938 1781 3938 1306 
Q 3938 681 3513 340 
Q 3088 0 2303 0 
L 628 0 
L 628 4666 
z
" id="DejaVuSans-42" transform="scale(0.015625)"/>
      </defs>
      <use xlink:href="#DejaVuSans-42"/>
      <use x="68.603516" xlink:href="#DejaVuSans-61"/>
      <use x="129.882812" xlink:href="#DejaVuSans-63"/>
      <use x="184.863281" xlink:href="#DejaVuSans-6b"/>
      <use x="242.773438" xlink:href="#DejaVuSans-2c"/>
      <use x="274.560547" xlink:href="#DejaVuSans-20"/>
      <use x="306.347656" xlink:href="#DejaVuSans-62"/>
      <use x="369.824219" xlink:href="#DejaVuSans-61"/>
      <use x="431.103516" xlink:href="#DejaVuSans-63"/>
      <use x="486.083984" xlink:href="#DejaVuSans-6b"/>
      <use x="543.994141" xlink:href="#DejaVuSans-2e"/>
      <use x="575.78125" xlink:href="#DejaVuSans-20"/>
      <use x="607.568359" xlink:href="#DejaVuSans-65"/>
      <use x="667.341797" xlink:href="#DejaVuSans-78"/>
      <use x="726.521484" xlink:href="#DejaVuSans-70"/>
      <use x="789.998047" xlink:href="#DejaVuSans-6f"/>
      <use x="851.179688" xlink:href="#DejaVuSans-73"/>
      <use x="903.279297" xlink:href="#DejaVuSans-65"/>
      <use x="964.802734" xlink:href="#DejaVuSans-64"/>
     </g>
    </g>
    <g id="line2d_45">
     <path d="M 417.883125 79.010938 
L 437.883125 79.010938 
" style="fill:none;stroke:#0000ff;stroke-dasharray:3.7,1.6;stroke-dashoffset:0;"/>
    </g>
    <g id="line2d_46"/>
    <g id="text_21">
     <!-- Front, back. insulated -->
     <g transform="translate(445.883125 82.510938)scale(0.1 -0.1)">
      <defs>
       <path d="M 603 4863 
L 1178 4863 
L 1178 0 
L 603 0 
L 603 4863 
z
" id="DejaVuSans-6c" transform="scale(0.015625)"/>
      </defs>
      <use xlink:href="#DejaVuSans-46"/>
      <use x="50.269531" xlink:href="#DejaVuSans-72"/>
      <use x="89.132812" xlink:href="#DejaVuSans-6f"/>
      <use x="150.314453" xlink:href="#DejaVuSans-6e"/>
      <use x="213.693359" xlink:href="#DejaVuSans-74"/>
      <use x="252.902344" xlink:href="#DejaVuSans-2c"/>
      <use x="284.689453" xlink:href="#DejaVuSans-20"/>
      <use x="316.476562" xlink:href="#DejaVuSans-62"/>
      <use x="379.953125" xlink:href="#DejaVuSans-61"/>
      <use x="441.232422" xlink:href="#DejaVuSans-63"/>
      <use x="496.212891" xlink:href="#DejaVuSans-6b"/>
      <use x="554.123047" xlink:href="#DejaVuSans-2e"/>
      <use x="585.910156" xlink:href="#DejaVuSans-20"/>
      <use x="617.697266" xlink:href="#DejaVuSans-69"/>
      <use x="645.480469" xlink:href="#DejaVuSans-6e"/>
      <use x="708.859375" xlink:href="#DejaVuSans-73"/>
      <use x="760.958984" xlink:href="#DejaVuSans-75"/>
      <use x="824.337891" xlink:href="#DejaVuSans-6c"/>
      <use x="852.121094" xlink:href="#DejaVuSans-61"/>
      <use x="913.400391" xlink:href="#DejaVuSans-74"/>
      <use x="952.609375" xlink:href="#DejaVuSans-65"/>
      <use x="1014.132812" xlink:href="#DejaVuSans-64"/>
     </g>
    </g>
    <g id="line2d_47">
     <path d="M 417.883125 93.689063 
L 437.883125 93.689063 
" style="fill:none;stroke:#ff0000;stroke-dasharray:3.7,1.6;stroke-dashoffset:0;"/>
    </g>
    <g id="line2d_48"/>
    <g id="text_22">
     <!-- 2.5 mm, back. insulated -->
     <g transform="translate(445.883125 97.189063)scale(0.1 -0.1)">
      <use xlink:href="#DejaVuSans-32"/>
      <use x="63.623047" xlink:href="#DejaVuSans-2e"/>
      <use x="95.410156" xlink:href="#DejaVuSans-35"/>
      <use x="159.033203" xlink:href="#DejaVuSans-20"/>
      <use x="190.820312" xlink:href="#DejaVuSans-6d"/>
      <use x="288.232422" xlink:href="#DejaVuSans-6d"/>
      <use x="385.644531" xlink:href="#DejaVuSans-2c"/>
      <use x="417.431641" xlink:href="#DejaVuSans-20"/>
      <use x="449.21875" xlink:href="#DejaVuSans-62"/>
      <use x="512.695312" xlink:href="#DejaVuSans-61"/>
      <use x="573.974609" xlink:href="#DejaVuSans-63"/>
      <use x="628.955078" xlink:href="#DejaVuSans-6b"/>
      <use x="686.865234" xlink:href="#DejaVuSans-2e"/>
      <use x="718.652344" xlink:href="#DejaVuSans-20"/>
      <use x="750.439453" xlink:href="#DejaVuSans-69"/>
      <use x="778.222656" xlink:href="#DejaVuSans-6e"/>
      <use x="841.601562" xlink:href="#DejaVuSans-73"/>
      <use x="893.701172" xlink:href="#DejaVuSans-75"/>
      <use x="957.080078" xlink:href="#DejaVuSans-6c"/>
      <use x="984.863281" xlink:href="#DejaVuSans-61"/>
      <use x="1046.142578" xlink:href="#DejaVuSans-74"/>
      <use x="1085.351562" xlink:href="#DejaVuSans-65"/>
      <use x="1146.875" xlink:href="#DejaVuSans-64"/>
     </g>
    </g>
    <g id="line2d_49">
     <path d="M 417.883125 108.367188 
L 437.883125 108.367188 
" style="fill:none;stroke:#008000;stroke-dasharray:3.7,1.6;stroke-dashoffset:0;"/>
    </g>
    <g id="line2d_50"/>
    <g id="text_23">
     <!-- 7.5 mm, back. insulated -->
     <g transform="translate(445.883125 111.867188)scale(0.1 -0.1)">
      <use xlink:href="#DejaVuSans-37"/>
      <use x="63.623047" xlink:href="#DejaVuSans-2e"/>
      <use x="95.410156" xlink:href="#DejaVuSans-35"/>
      <use x="159.033203" xlink:href="#DejaVuSans-20"/>
      <use x="190.820312" xlink:href="#DejaVuSans-6d"/>
      <use x="288.232422" xlink:href="#DejaVuSans-6d"/>
      <use x="385.644531" xlink:href="#DejaVuSans-2c"/>
      <use x="417.431641" xlink:href="#DejaVuSans-20"/>
      <use x="449.21875" xlink:href="#DejaVuSans-62"/>
      <use x="512.695312" xlink:href="#DejaVuSans-61"/>
      <use x="573.974609" xlink:href="#DejaVuSans-63"/>
      <use x="628.955078" xlink:href="#DejaVuSans-6b"/>
      <use x="686.865234" xlink:href="#DejaVuSans-2e"/>
      <use x="718.652344" xlink:href="#DejaVuSans-20"/>
      <use x="750.439453" xlink:href="#DejaVuSans-69"/>
      <use x="778.222656" xlink:href="#DejaVuSans-6e"/>
      <use x="841.601562" xlink:href="#DejaVuSans-73"/>
      <use x="893.701172" xlink:href="#DejaVuSans-75"/>
      <use x="957.080078" xlink:href="#DejaVuSans-6c"/>
      <use x="984.863281" xlink:href="#DejaVuSans-61"/>
      <use x="1046.142578" xlink:href="#DejaVuSans-74"/>
      <use x="1085.351562" xlink:href="#DejaVuSans-65"/>
      <use x="1146.875" xlink:href="#DejaVuSans-64"/>
     </g>
    </g>
    <g id="line2d_51">
     <path d="M 417.883125 123.045313 
L 437.883125 123.045313 
" style="fill:none;stroke:#ffff00;stroke-dasharray:3.7,1.6;stroke-dashoffset:0;"/>
    </g>
    <g id="line2d_52"/>
    <g id="text_24">
     <!-- Back, back. insulated -->
     <g transform="translate(445.883125 126.545313)scale(0.1 -0.1)">
      <use xlink:href="#DejaVuSans-42"/>
      <use x="68.603516" xlink:href="#DejaVuSans-61"/>
      <use x="129.882812" xlink:href="#DejaVuSans-63"/>
      <use x="184.863281" xlink:href="#DejaVuSans-6b"/>
      <use x="242.773438" xlink:href="#DejaVuSans-2c"/>
      <use x="274.560547" xlink:href="#DejaVuSans-20"/>
      <use x="306.347656" xlink:href="#DejaVuSans-62"/>
      <use x="369.824219" xlink:href="#DejaVuSans-61"/>
      <use x="431.103516" xlink:href="#DejaVuSans-63"/>
      <use x="486.083984" xlink:href="#DejaVuSans-6b"/>
      <use x="543.994141" xlink:href="#DejaVuSans-2e"/>
      <use x="575.78125" xlink:href="#DejaVuSans-20"/>
      <use x="607.568359" xlink:href="#DejaVuSans-69"/>
      <use x="635.351562" xlink:href="#DejaVuSans-6e"/>
      <use x="698.730469" xlink:href="#DejaVuSans-73"/>
      <use x="750.830078" xlink:href="#DejaVuSans-75"/>
      <use x="814.208984" xlink:href="#DejaVuSans-6c"/>
      <use x="841.992188" xlink:href="#DejaVuSans-61"/>
      <use x="903.271484" xlink:href="#DejaVuSans-74"/>
      <use x="942.480469" xlink:href="#DejaVuSans-65"/>
      <use x="1004.003906" xlink:href="#DejaVuSans-64"/>
     </g>
    </g>
   </g>
  </g>
 </g>
 <defs>
  <clipPath id="pbb35a863f5">
   <rect height="217.44" width="334.8" x="40.603125" y="7.2"/>
  </clipPath>
 </defs>
</svg>
