<?xml version="1.0" encoding="utf-8" standalone="no"?>
<!DOCTYPE svg PUBLIC "-//W3C//DTD SVG 1.1//EN"
  "http://www.w3.org/Graphics/SVG/1.1/DTD/svg11.dtd">
<svg height="288pt" version="1.1" viewBox="0 0 432 288" width="432pt" xmlns="http://www.w3.org/2000/svg" xmlns:xlink="http://www.w3.org/1999/xlink">
 <metadata>
  <rdf:RDF xmlns:cc="http://creativecommons.org/ns#" xmlns:dc="http://purl.org/dc/elements/1.1/" xmlns:rdf="http://www.w3.org/1999/02/22-rdf-syntax-ns#">
   <cc:Work>
    <dc:type rdf:resource="http://purl.org/dc/dcmitype/StillImage"/>
    <dc:date>2021-07-13T09:52:22.563866</dc:date>
    <dc:format>image/svg+xml</dc:format>
    <dc:creator>
     <cc:Agent>
      <dc:title>Matplotlib v3.4.2, https://matplotlib.org/</dc:title>
     </cc:Agent>
    </dc:creator>
   </cc:Work>
  </rdf:RDF>
 </metadata>
 <defs>
  <style type="text/css">*{stroke-linecap:butt;stroke-linejoin:round;}</style>
 </defs>
 <g id="figure_1">
  <g id="patch_1">
   <path d="M 0 288 
L 432 288 
L 432 0 
L 0 0 
z
" style="fill:none;"/>
  </g>
  <g id="axes_1">
   <g id="patch_2">
    <path d="M 54 252 
L 388.8 252 
L 388.8 34.56 
L 54 34.56 
z
" style="fill:#ffffff;"/>
   </g>
   <g id="matplotlib.axis_1">
    <g id="xtick_1">
     <g id="line2d_1">
      <path clip-path="url(#pffc589cfcb)" d="M 69.218182 252 
L 69.218182 34.56 
" style="fill:none;stroke:#b0b0b0;stroke-linecap:square;stroke-width:0.8;"/>
     </g>
     <g id="line2d_2">
      <defs>
       <path d="M 0 0 
L 0 3.5 
" id="m1fec575d7d" style="stroke:#000000;stroke-width:0.8;"/>
      </defs>
      <g>
       <use style="stroke:#000000;stroke-width:0.8;" x="69.218182" xlink:href="#m1fec575d7d" y="252"/>
      </g>
     </g>
     <g id="text_1">
      <!-- −1 -->
      <g transform="translate(61.847088 266.598437)scale(0.1 -0.1)">
       <defs>
        <path d="M 678 2272 
L 4684 2272 
L 4684 1741 
L 678 1741 
L 678 2272 
z
" id="DejaVuSans-2212" transform="scale(0.015625)"/>
        <path d="M 794 531 
L 1825 531 
L 1825 4091 
L 703 3866 
L 703 4441 
L 1819 4666 
L 2450 4666 
L 2450 531 
L 3481 531 
L 3481 0 
L 794 0 
L 794 531 
z
" id="DejaVuSans-31" transform="scale(0.015625)"/>
       </defs>
       <use xlink:href="#DejaVuSans-2212"/>
       <use x="83.789062" xlink:href="#DejaVuSans-31"/>
      </g>
     </g>
    </g>
    <g id="xtick_2">
     <g id="line2d_3">
      <path clip-path="url(#pffc589cfcb)" d="M 119.945455 252 
L 119.945455 34.56 
" style="fill:none;stroke:#b0b0b0;stroke-linecap:square;stroke-width:0.8;"/>
     </g>
     <g id="line2d_4">
      <g>
       <use style="stroke:#000000;stroke-width:0.8;" x="119.945455" xlink:href="#m1fec575d7d" y="252"/>
      </g>
     </g>
     <g id="text_2">
      <!-- 0 -->
      <g transform="translate(116.764205 266.598437)scale(0.1 -0.1)">
       <defs>
        <path d="M 2034 4250 
Q 1547 4250 1301 3770 
Q 1056 3291 1056 2328 
Q 1056 1369 1301 889 
Q 1547 409 2034 409 
Q 2525 409 2770 889 
Q 3016 1369 3016 2328 
Q 3016 3291 2770 3770 
Q 2525 4250 2034 4250 
z
M 2034 4750 
Q 2819 4750 3233 4129 
Q 3647 3509 3647 2328 
Q 3647 1150 3233 529 
Q 2819 -91 2034 -91 
Q 1250 -91 836 529 
Q 422 1150 422 2328 
Q 422 3509 836 4129 
Q 1250 4750 2034 4750 
z
" id="DejaVuSans-30" transform="scale(0.015625)"/>
       </defs>
       <use xlink:href="#DejaVuSans-30"/>
      </g>
     </g>
    </g>
    <g id="xtick_3">
     <g id="line2d_5">
      <path clip-path="url(#pffc589cfcb)" d="M 170.672727 252 
L 170.672727 34.56 
" style="fill:none;stroke:#b0b0b0;stroke-linecap:square;stroke-width:0.8;"/>
     </g>
     <g id="line2d_6">
      <g>
       <use style="stroke:#000000;stroke-width:0.8;" x="170.672727" xlink:href="#m1fec575d7d" y="252"/>
      </g>
     </g>
     <g id="text_3">
      <!-- 1 -->
      <g transform="translate(167.491477 266.598437)scale(0.1 -0.1)">
       <use xlink:href="#DejaVuSans-31"/>
      </g>
     </g>
    </g>
    <g id="xtick_4">
     <g id="line2d_7">
      <path clip-path="url(#pffc589cfcb)" d="M 221.4 252 
L 221.4 34.56 
" style="fill:none;stroke:#b0b0b0;stroke-linecap:square;stroke-width:0.8;"/>
     </g>
     <g id="line2d_8">
      <g>
       <use style="stroke:#000000;stroke-width:0.8;" x="221.4" xlink:href="#m1fec575d7d" y="252"/>
      </g>
     </g>
     <g id="text_4">
      <!-- 2 -->
      <g transform="translate(218.21875 266.598437)scale(0.1 -0.1)">
       <defs>
        <path d="M 1228 531 
L 3431 531 
L 3431 0 
L 469 0 
L 469 531 
Q 828 903 1448 1529 
Q 2069 2156 2228 2338 
Q 2531 2678 2651 2914 
Q 2772 3150 2772 3378 
Q 2772 3750 2511 3984 
Q 2250 4219 1831 4219 
Q 1534 4219 1204 4116 
Q 875 4013 500 3803 
L 500 4441 
Q 881 4594 1212 4672 
Q 1544 4750 1819 4750 
Q 2544 4750 2975 4387 
Q 3406 4025 3406 3419 
Q 3406 3131 3298 2873 
Q 3191 2616 2906 2266 
Q 2828 2175 2409 1742 
Q 1991 1309 1228 531 
z
" id="DejaVuSans-32" transform="scale(0.015625)"/>
       </defs>
       <use xlink:href="#DejaVuSans-32"/>
      </g>
     </g>
    </g>
    <g id="xtick_5">
     <g id="line2d_9">
      <path clip-path="url(#pffc589cfcb)" d="M 272.127273 252 
L 272.127273 34.56 
" style="fill:none;stroke:#b0b0b0;stroke-linecap:square;stroke-width:0.8;"/>
     </g>
     <g id="line2d_10">
      <g>
       <use style="stroke:#000000;stroke-width:0.8;" x="272.127273" xlink:href="#m1fec575d7d" y="252"/>
      </g>
     </g>
     <g id="text_5">
      <!-- 3 -->
      <g transform="translate(268.946023 266.598437)scale(0.1 -0.1)">
       <defs>
        <path d="M 2597 2516 
Q 3050 2419 3304 2112 
Q 3559 1806 3559 1356 
Q 3559 666 3084 287 
Q 2609 -91 1734 -91 
Q 1441 -91 1130 -33 
Q 819 25 488 141 
L 488 750 
Q 750 597 1062 519 
Q 1375 441 1716 441 
Q 2309 441 2620 675 
Q 2931 909 2931 1356 
Q 2931 1769 2642 2001 
Q 2353 2234 1838 2234 
L 1294 2234 
L 1294 2753 
L 1863 2753 
Q 2328 2753 2575 2939 
Q 2822 3125 2822 3475 
Q 2822 3834 2567 4026 
Q 2313 4219 1838 4219 
Q 1578 4219 1281 4162 
Q 984 4106 628 3988 
L 628 4550 
Q 988 4650 1302 4700 
Q 1616 4750 1894 4750 
Q 2613 4750 3031 4423 
Q 3450 4097 3450 3541 
Q 3450 3153 3228 2886 
Q 3006 2619 2597 2516 
z
" id="DejaVuSans-33" transform="scale(0.015625)"/>
       </defs>
       <use xlink:href="#DejaVuSans-33"/>
      </g>
     </g>
    </g>
    <g id="xtick_6">
     <g id="line2d_11">
      <path clip-path="url(#pffc589cfcb)" d="M 322.854545 252 
L 322.854545 34.56 
" style="fill:none;stroke:#b0b0b0;stroke-linecap:square;stroke-width:0.8;"/>
     </g>
     <g id="line2d_12">
      <g>
       <use style="stroke:#000000;stroke-width:0.8;" x="322.854545" xlink:href="#m1fec575d7d" y="252"/>
      </g>
     </g>
     <g id="text_6">
      <!-- 4 -->
      <g transform="translate(319.673295 266.598437)scale(0.1 -0.1)">
       <defs>
        <path d="M 2419 4116 
L 825 1625 
L 2419 1625 
L 2419 4116 
z
M 2253 4666 
L 3047 4666 
L 3047 1625 
L 3713 1625 
L 3713 1100 
L 3047 1100 
L 3047 0 
L 2419 0 
L 2419 1100 
L 313 1100 
L 313 1709 
L 2253 4666 
z
" id="DejaVuSans-34" transform="scale(0.015625)"/>
       </defs>
       <use xlink:href="#DejaVuSans-34"/>
      </g>
     </g>
    </g>
    <g id="xtick_7">
     <g id="line2d_13">
      <path clip-path="url(#pffc589cfcb)" d="M 373.581818 252 
L 373.581818 34.56 
" style="fill:none;stroke:#b0b0b0;stroke-linecap:square;stroke-width:0.8;"/>
     </g>
     <g id="line2d_14">
      <g>
       <use style="stroke:#000000;stroke-width:0.8;" x="373.581818" xlink:href="#m1fec575d7d" y="252"/>
      </g>
     </g>
     <g id="text_7">
      <!-- 5 -->
      <g transform="translate(370.400568 266.598437)scale(0.1 -0.1)">
       <defs>
        <path d="M 691 4666 
L 3169 4666 
L 3169 4134 
L 1269 4134 
L 1269 2991 
Q 1406 3038 1543 3061 
Q 1681 3084 1819 3084 
Q 2600 3084 3056 2656 
Q 3513 2228 3513 1497 
Q 3513 744 3044 326 
Q 2575 -91 1722 -91 
Q 1428 -91 1123 -41 
Q 819 9 494 109 
L 494 744 
Q 775 591 1075 516 
Q 1375 441 1709 441 
Q 2250 441 2565 725 
Q 2881 1009 2881 1497 
Q 2881 1984 2565 2268 
Q 2250 2553 1709 2553 
Q 1456 2553 1204 2497 
Q 953 2441 691 2322 
L 691 4666 
z
" id="DejaVuSans-35" transform="scale(0.015625)"/>
       </defs>
       <use xlink:href="#DejaVuSans-35"/>
      </g>
     </g>
    </g>
    <g id="text_8">
     <!-- x -->
     <g transform="translate(218.440625 280.276563)scale(0.1 -0.1)">
      <defs>
       <path d="M 3513 3500 
L 2247 1797 
L 3578 0 
L 2900 0 
L 1881 1375 
L 863 0 
L 184 0 
L 1544 1831 
L 300 3500 
L 978 3500 
L 1906 2253 
L 2834 3500 
L 3513 3500 
z
" id="DejaVuSans-78" transform="scale(0.015625)"/>
      </defs>
      <use xlink:href="#DejaVuSans-78"/>
     </g>
    </g>
   </g>
   <g id="matplotlib.axis_2">
    <g id="ytick_1">
     <g id="line2d_15">
      <path clip-path="url(#pffc589cfcb)" d="M 54 252 
L 388.8 252 
" style="fill:none;stroke:#b0b0b0;stroke-linecap:square;stroke-width:0.8;"/>
     </g>
     <g id="line2d_16">
      <defs>
       <path d="M 0 0 
L -3.5 0 
" id="md2d9a52b52" style="stroke:#000000;stroke-width:0.8;"/>
      </defs>
      <g>
       <use style="stroke:#000000;stroke-width:0.8;" x="54" xlink:href="#md2d9a52b52" y="252"/>
      </g>
     </g>
     <g id="text_9">
      <!-- 0.3 -->
      <g transform="translate(31.096875 255.799219)scale(0.1 -0.1)">
       <defs>
        <path d="M 684 794 
L 1344 794 
L 1344 0 
L 684 0 
L 684 794 
z
" id="DejaVuSans-2e" transform="scale(0.015625)"/>
       </defs>
       <use xlink:href="#DejaVuSans-30"/>
       <use x="63.623047" xlink:href="#DejaVuSans-2e"/>
       <use x="95.410156" xlink:href="#DejaVuSans-33"/>
      </g>
     </g>
    </g>
    <g id="ytick_2">
     <g id="line2d_17">
      <path clip-path="url(#pffc589cfcb)" d="M 54 224.82 
L 388.8 224.82 
" style="fill:none;stroke:#b0b0b0;stroke-linecap:square;stroke-width:0.8;"/>
     </g>
     <g id="line2d_18">
      <g>
       <use style="stroke:#000000;stroke-width:0.8;" x="54" xlink:href="#md2d9a52b52" y="224.82"/>
      </g>
     </g>
     <g id="text_10">
      <!-- 0.4 -->
      <g transform="translate(31.096875 228.619219)scale(0.1 -0.1)">
       <use xlink:href="#DejaVuSans-30"/>
       <use x="63.623047" xlink:href="#DejaVuSans-2e"/>
       <use x="95.410156" xlink:href="#DejaVuSans-34"/>
      </g>
     </g>
    </g>
    <g id="ytick_3">
     <g id="line2d_19">
      <path clip-path="url(#pffc589cfcb)" d="M 54 197.64 
L 388.8 197.64 
" style="fill:none;stroke:#b0b0b0;stroke-linecap:square;stroke-width:0.8;"/>
     </g>
     <g id="line2d_20">
      <g>
       <use style="stroke:#000000;stroke-width:0.8;" x="54" xlink:href="#md2d9a52b52" y="197.64"/>
      </g>
     </g>
     <g id="text_11">
      <!-- 0.5 -->
      <g transform="translate(31.096875 201.439219)scale(0.1 -0.1)">
       <use xlink:href="#DejaVuSans-30"/>
       <use x="63.623047" xlink:href="#DejaVuSans-2e"/>
       <use x="95.410156" xlink:href="#DejaVuSans-35"/>
      </g>
     </g>
    </g>
    <g id="ytick_4">
     <g id="line2d_21">
      <path clip-path="url(#pffc589cfcb)" d="M 54 170.46 
L 388.8 170.46 
" style="fill:none;stroke:#b0b0b0;stroke-linecap:square;stroke-width:0.8;"/>
     </g>
     <g id="line2d_22">
      <g>
       <use style="stroke:#000000;stroke-width:0.8;" x="54" xlink:href="#md2d9a52b52" y="170.46"/>
      </g>
     </g>
     <g id="text_12">
      <!-- 0.6 -->
      <g transform="translate(31.096875 174.259219)scale(0.1 -0.1)">
       <defs>
        <path d="M 2113 2584 
Q 1688 2584 1439 2293 
Q 1191 2003 1191 1497 
Q 1191 994 1439 701 
Q 1688 409 2113 409 
Q 2538 409 2786 701 
Q 3034 994 3034 1497 
Q 3034 2003 2786 2293 
Q 2538 2584 2113 2584 
z
M 3366 4563 
L 3366 3988 
Q 3128 4100 2886 4159 
Q 2644 4219 2406 4219 
Q 1781 4219 1451 3797 
Q 1122 3375 1075 2522 
Q 1259 2794 1537 2939 
Q 1816 3084 2150 3084 
Q 2853 3084 3261 2657 
Q 3669 2231 3669 1497 
Q 3669 778 3244 343 
Q 2819 -91 2113 -91 
Q 1303 -91 875 529 
Q 447 1150 447 2328 
Q 447 3434 972 4092 
Q 1497 4750 2381 4750 
Q 2619 4750 2861 4703 
Q 3103 4656 3366 4563 
z
" id="DejaVuSans-36" transform="scale(0.015625)"/>
       </defs>
       <use xlink:href="#DejaVuSans-30"/>
       <use x="63.623047" xlink:href="#DejaVuSans-2e"/>
       <use x="95.410156" xlink:href="#DejaVuSans-36"/>
      </g>
     </g>
    </g>
    <g id="ytick_5">
     <g id="line2d_23">
      <path clip-path="url(#pffc589cfcb)" d="M 54 143.28 
L 388.8 143.28 
" style="fill:none;stroke:#b0b0b0;stroke-linecap:square;stroke-width:0.8;"/>
     </g>
     <g id="line2d_24">
      <g>
       <use style="stroke:#000000;stroke-width:0.8;" x="54" xlink:href="#md2d9a52b52" y="143.28"/>
      </g>
     </g>
     <g id="text_13">
      <!-- 0.7 -->
      <g transform="translate(31.096875 147.079219)scale(0.1 -0.1)">
       <defs>
        <path d="M 525 4666 
L 3525 4666 
L 3525 4397 
L 1831 0 
L 1172 0 
L 2766 4134 
L 525 4134 
L 525 4666 
z
" id="DejaVuSans-37" transform="scale(0.015625)"/>
       </defs>
       <use xlink:href="#DejaVuSans-30"/>
       <use x="63.623047" xlink:href="#DejaVuSans-2e"/>
       <use x="95.410156" xlink:href="#DejaVuSans-37"/>
      </g>
     </g>
    </g>
    <g id="ytick_6">
     <g id="line2d_25">
      <path clip-path="url(#pffc589cfcb)" d="M 54 116.1 
L 388.8 116.1 
" style="fill:none;stroke:#b0b0b0;stroke-linecap:square;stroke-width:0.8;"/>
     </g>
     <g id="line2d_26">
      <g>
       <use style="stroke:#000000;stroke-width:0.8;" x="54" xlink:href="#md2d9a52b52" y="116.1"/>
      </g>
     </g>
     <g id="text_14">
      <!-- 0.8 -->
      <g transform="translate(31.096875 119.899219)scale(0.1 -0.1)">
       <defs>
        <path d="M 2034 2216 
Q 1584 2216 1326 1975 
Q 1069 1734 1069 1313 
Q 1069 891 1326 650 
Q 1584 409 2034 409 
Q 2484 409 2743 651 
Q 3003 894 3003 1313 
Q 3003 1734 2745 1975 
Q 2488 2216 2034 2216 
z
M 1403 2484 
Q 997 2584 770 2862 
Q 544 3141 544 3541 
Q 544 4100 942 4425 
Q 1341 4750 2034 4750 
Q 2731 4750 3128 4425 
Q 3525 4100 3525 3541 
Q 3525 3141 3298 2862 
Q 3072 2584 2669 2484 
Q 3125 2378 3379 2068 
Q 3634 1759 3634 1313 
Q 3634 634 3220 271 
Q 2806 -91 2034 -91 
Q 1263 -91 848 271 
Q 434 634 434 1313 
Q 434 1759 690 2068 
Q 947 2378 1403 2484 
z
M 1172 3481 
Q 1172 3119 1398 2916 
Q 1625 2713 2034 2713 
Q 2441 2713 2670 2916 
Q 2900 3119 2900 3481 
Q 2900 3844 2670 4047 
Q 2441 4250 2034 4250 
Q 1625 4250 1398 4047 
Q 1172 3844 1172 3481 
z
" id="DejaVuSans-38" transform="scale(0.015625)"/>
       </defs>
       <use xlink:href="#DejaVuSans-30"/>
       <use x="63.623047" xlink:href="#DejaVuSans-2e"/>
       <use x="95.410156" xlink:href="#DejaVuSans-38"/>
      </g>
     </g>
    </g>
    <g id="ytick_7">
     <g id="line2d_27">
      <path clip-path="url(#pffc589cfcb)" d="M 54 88.92 
L 388.8 88.92 
" style="fill:none;stroke:#b0b0b0;stroke-linecap:square;stroke-width:0.8;"/>
     </g>
     <g id="line2d_28">
      <g>
       <use style="stroke:#000000;stroke-width:0.8;" x="54" xlink:href="#md2d9a52b52" y="88.92"/>
      </g>
     </g>
     <g id="text_15">
      <!-- 0.9 -->
      <g transform="translate(31.096875 92.719219)scale(0.1 -0.1)">
       <defs>
        <path d="M 703 97 
L 703 672 
Q 941 559 1184 500 
Q 1428 441 1663 441 
Q 2288 441 2617 861 
Q 2947 1281 2994 2138 
Q 2813 1869 2534 1725 
Q 2256 1581 1919 1581 
Q 1219 1581 811 2004 
Q 403 2428 403 3163 
Q 403 3881 828 4315 
Q 1253 4750 1959 4750 
Q 2769 4750 3195 4129 
Q 3622 3509 3622 2328 
Q 3622 1225 3098 567 
Q 2575 -91 1691 -91 
Q 1453 -91 1209 -44 
Q 966 3 703 97 
z
M 1959 2075 
Q 2384 2075 2632 2365 
Q 2881 2656 2881 3163 
Q 2881 3666 2632 3958 
Q 2384 4250 1959 4250 
Q 1534 4250 1286 3958 
Q 1038 3666 1038 3163 
Q 1038 2656 1286 2365 
Q 1534 2075 1959 2075 
z
" id="DejaVuSans-39" transform="scale(0.015625)"/>
       </defs>
       <use xlink:href="#DejaVuSans-30"/>
       <use x="63.623047" xlink:href="#DejaVuSans-2e"/>
       <use x="95.410156" xlink:href="#DejaVuSans-39"/>
      </g>
     </g>
    </g>
    <g id="ytick_8">
     <g id="line2d_29">
      <path clip-path="url(#pffc589cfcb)" d="M 54 61.74 
L 388.8 61.74 
" style="fill:none;stroke:#b0b0b0;stroke-linecap:square;stroke-width:0.8;"/>
     </g>
     <g id="line2d_30">
      <g>
       <use style="stroke:#000000;stroke-width:0.8;" x="54" xlink:href="#md2d9a52b52" y="61.74"/>
      </g>
     </g>
     <g id="text_16">
      <!-- 1.0 -->
      <g transform="translate(31.096875 65.539219)scale(0.1 -0.1)">
       <use xlink:href="#DejaVuSans-31"/>
       <use x="63.623047" xlink:href="#DejaVuSans-2e"/>
       <use x="95.410156" xlink:href="#DejaVuSans-30"/>
      </g>
     </g>
    </g>
    <g id="ytick_9">
     <g id="line2d_31">
      <path clip-path="url(#pffc589cfcb)" d="M 54 34.56 
L 388.8 34.56 
" style="fill:none;stroke:#b0b0b0;stroke-linecap:square;stroke-width:0.8;"/>
     </g>
     <g id="line2d_32">
      <g>
       <use style="stroke:#000000;stroke-width:0.8;" x="54" xlink:href="#md2d9a52b52" y="34.56"/>
      </g>
     </g>
     <g id="text_17">
      <!-- 1.1 -->
      <g transform="translate(31.096875 38.359219)scale(0.1 -0.1)">
       <use xlink:href="#DejaVuSans-31"/>
       <use x="63.623047" xlink:href="#DejaVuSans-2e"/>
       <use x="95.410156" xlink:href="#DejaVuSans-31"/>
      </g>
     </g>
    </g>
    <g id="text_18">
     <!-- f(x) -->
     <g transform="translate(25.017187 151.901094)rotate(-90)scale(0.1 -0.1)">
      <defs>
       <path d="M 2375 4863 
L 2375 4384 
L 1825 4384 
Q 1516 4384 1395 4259 
Q 1275 4134 1275 3809 
L 1275 3500 
L 2222 3500 
L 2222 3053 
L 1275 3053 
L 1275 0 
L 697 0 
L 697 3053 
L 147 3053 
L 147 3500 
L 697 3500 
L 697 3744 
Q 697 4328 969 4595 
Q 1241 4863 1831 4863 
L 2375 4863 
z
" id="DejaVuSans-66" transform="scale(0.015625)"/>
       <path d="M 1984 4856 
Q 1566 4138 1362 3434 
Q 1159 2731 1159 2009 
Q 1159 1288 1364 580 
Q 1569 -128 1984 -844 
L 1484 -844 
Q 1016 -109 783 600 
Q 550 1309 550 2009 
Q 550 2706 781 3412 
Q 1013 4119 1484 4856 
L 1984 4856 
z
" id="DejaVuSans-28" transform="scale(0.015625)"/>
       <path d="M 513 4856 
L 1013 4856 
Q 1481 4119 1714 3412 
Q 1947 2706 1947 2009 
Q 1947 1309 1714 600 
Q 1481 -109 1013 -844 
L 513 -844 
Q 928 -128 1133 580 
Q 1338 1288 1338 2009 
Q 1338 2731 1133 3434 
Q 928 4138 513 4856 
z
" id="DejaVuSans-29" transform="scale(0.015625)"/>
      </defs>
      <use xlink:href="#DejaVuSans-66"/>
      <use x="35.205078" xlink:href="#DejaVuSans-28"/>
      <use x="74.21875" xlink:href="#DejaVuSans-78"/>
      <use x="133.398438" xlink:href="#DejaVuSans-29"/>
     </g>
    </g>
   </g>
   <g id="line2d_33">
    <path clip-path="url(#pffc589cfcb)" d="M 69.218182 224.82 
L 72.292562 214.687264 
L 75.366942 204.062657 
L 78.441322 192.967291 
L 81.515702 181.441177 
L 84.590083 169.54779 
L 87.664463 157.378717 
L 90.738843 145.057918 
L 93.813223 132.744866 
L 96.887603 120.635641 
L 99.961983 108.960945 
L 103.036364 97.98 
L 106.110744 87.96965 
L 109.185124 79.208618 
L 112.259504 71.957823 
L 115.333884 66.438778 
L 118.408264 62.812994 
L 121.482645 61.165721 
L 124.557025 61.49696 
L 127.631405 63.721459 
L 130.705785 67.677709 
L 133.780165 73.144196 
L 136.854545 79.86 
L 139.928926 87.5464 
L 143.003306 95.92655 
L 146.077686 104.74123 
L 149.152066 113.759737 
L 152.226446 122.785989 
L 155.300826 131.660517 
L 158.375207 140.259359 
L 161.449587 148.490927 
L 164.523967 156.291748 
L 167.598347 163.621809 
L 170.672727 170.46 
L 173.747107 176.799936 
L 176.821488 182.646333 
L 179.895868 188.011975 
L 182.970248 192.915241 
L 186.044628 197.378163 
L 189.119008 201.424919 
L 192.193388 205.080698 
L 195.267769 208.370873 
L 198.342149 211.320399 
L 201.416529 213.953409 
L 204.490909 216.292941 
L 207.565289 218.360777 
L 210.639669 220.177358 
L 213.71405 221.761758 
L 216.78843 223.131692 
L 219.86281 224.303561 
L 222.93719 225.292506 
L 226.01157 226.112476 
L 229.08595 226.776304 
L 232.160331 227.295786 
L 235.234711 227.68175 
L 238.309091 227.944138 
L 241.383471 228.092072 
L 244.457851 228.133925 
L 247.532231 228.07738 
L 250.606612 227.92949 
L 253.680992 227.696734 
L 256.755372 227.385065 
L 259.829752 226.999955 
L 262.904132 226.546439 
L 265.978512 226.029151 
L 269.052893 225.452359 
L 272.127273 224.82 
L 275.201653 224.135703 
L 278.276033 223.402822 
L 281.350413 222.624452 
L 284.424793 221.80346 
L 287.499174 220.942495 
L 290.573554 220.044015 
L 293.647934 219.110295 
L 296.722314 218.143447 
L 299.796694 217.145435 
L 302.871074 216.118079 
L 305.945455 215.063077 
L 309.019835 213.982006 
L 312.094215 212.876336 
L 315.168595 211.74744 
L 318.242975 210.596594 
L 321.317355 209.424995 
L 324.391736 208.233758 
L 327.466116 207.023928 
L 330.540496 205.79648 
L 333.614876 204.552331 
L 336.689256 203.292337 
L 339.763636 202.017303 
L 342.838017 200.727985 
L 345.912397 199.42509 
L 348.986777 198.109285 
L 352.061157 196.781198 
L 355.135537 195.441417 
L 358.209917 194.090499 
L 361.284298 192.728967 
L 364.358678 191.357313 
L 367.433058 189.976004 
L 370.507438 188.585479 
L 373.581818 187.186154 
" style="fill:none;stroke:#808080;stroke-linecap:square;stroke-opacity:0.5;stroke-width:3;"/>
   </g>
   <g id="line2d_34">
    <path clip-path="url(#pffc589cfcb)" d="M 69.218182 175.896 
L 72.292562 176.884364 
L 75.366942 177.872727 
L 78.441322 178.861091 
L 81.515702 179.849455 
L 84.590083 180.837818 
L 87.664463 181.826182 
L 90.738843 182.814545 
L 93.813223 183.802909 
L 96.887603 184.791273 
L 99.961983 185.779636 
L 103.036364 186.768 
L 106.110744 187.756364 
L 109.185124 188.744727 
L 112.259504 189.733091 
L 115.333884 190.721455 
L 118.408264 191.709818 
L 121.482645 192.698182 
L 124.557025 193.686545 
L 127.631405 194.674909 
L 130.705785 195.663273 
L 133.780165 196.651636 
L 136.854545 197.64 
L 139.928926 198.628364 
L 143.003306 199.616727 
L 146.077686 200.605091 
L 149.152066 201.593455 
L 152.226446 202.581818 
L 155.300826 203.570182 
L 158.375207 204.558545 
L 161.449587 205.546909 
L 164.523967 206.535273 
L 167.598347 207.523636 
L 170.672727 208.512 
L 173.747107 209.500364 
L 176.821488 210.488727 
L 179.895868 211.477091 
L 182.970248 212.465455 
L 186.044628 213.453818 
L 189.119008 214.442182 
L 192.193388 215.430545 
L 195.267769 216.418909 
L 198.342149 217.407273 
L 201.416529 218.395636 
L 204.490909 219.384 
L 207.565289 220.372364 
L 210.639669 221.360727 
L 213.71405 222.349091 
L 216.78843 223.337455 
L 219.86281 224.325818 
L 222.93719 225.314182 
L 226.01157 226.302545 
L 229.08595 227.290909 
L 232.160331 228.279273 
L 235.234711 229.267636 
L 238.309091 230.256 
L 241.383471 231.244364 
L 244.457851 232.232727 
L 247.532231 233.221091 
L 250.606612 234.209455 
L 253.680992 235.197818 
L 256.755372 236.186182 
L 259.829752 237.174545 
L 262.904132 238.162909 
L 265.978512 239.151273 
L 269.052893 240.139636 
L 272.127273 241.128 
L 275.201653 242.116364 
L 278.276033 243.104727 
L 281.350413 244.093091 
L 284.424793 245.081455 
L 287.499174 246.069818 
L 290.573554 247.058182 
L 293.647934 248.046545 
L 296.722314 249.034909 
L 299.796694 250.023273 
L 302.871074 251.011636 
L 305.945455 252 
L 309.019835 252.988364 
L 312.094215 253.976727 
L 315.168595 254.965091 
L 318.242975 255.953455 
L 321.317355 256.941818 
L 324.391736 257.930182 
L 327.466116 258.918545 
L 330.540496 259.906909 
L 333.614876 260.895273 
L 336.689256 261.883636 
L 339.763636 262.872 
L 342.838017 263.860364 
L 345.912397 264.848727 
L 348.986777 265.837091 
L 352.061157 266.825455 
L 355.135537 267.813818 
L 358.209917 268.802182 
L 361.284298 269.790545 
L 364.358678 270.778909 
L 367.433058 271.767273 
L 370.507438 272.755636 
L 373.581818 273.744 
" style="fill:none;stroke:#1f77b4;stroke-linecap:square;stroke-width:1.5;"/>
   </g>
   <g id="line2d_35">
    <path clip-path="url(#pffc589cfcb)" d="M 69.218182 224.82 
L 72.292562 224.82 
L 75.366942 224.82 
L 78.441322 224.82 
L 81.515702 224.82 
L 84.590083 224.82 
L 87.664463 224.82 
L 90.738843 224.82 
L 93.813223 224.82 
L 96.887603 224.82 
L 99.961983 224.82 
L 103.036364 224.82 
L 106.110744 224.82 
L 109.185124 224.82 
L 112.259504 224.82 
L 115.333884 224.82 
L 118.408264 224.82 
L 121.482645 224.82 
L 124.557025 224.82 
L 127.631405 224.82 
L 130.705785 224.82 
L 133.780165 224.82 
L 136.854545 224.82 
L 139.928926 224.82 
L 143.003306 224.82 
L 146.077686 224.82 
L 149.152066 224.82 
L 152.226446 224.82 
L 155.300826 224.82 
L 158.375207 224.82 
L 161.449587 224.82 
L 164.523967 224.82 
L 167.598347 224.82 
L 170.672727 224.82 
L 173.747107 224.82 
L 176.821488 224.82 
L 179.895868 224.82 
L 182.970248 224.82 
L 186.044628 224.82 
L 189.119008 224.82 
L 192.193388 224.82 
L 195.267769 224.82 
L 198.342149 224.82 
L 201.416529 224.82 
L 204.490909 224.82 
L 207.565289 224.82 
L 210.639669 224.82 
L 213.71405 224.82 
L 216.78843 224.82 
L 219.86281 224.82 
L 222.93719 224.82 
L 226.01157 224.82 
L 229.08595 224.82 
L 232.160331 224.82 
L 235.234711 224.82 
L 238.309091 224.82 
L 241.383471 224.82 
L 244.457851 224.82 
L 247.532231 224.82 
L 250.606612 224.82 
L 253.680992 224.82 
L 256.755372 224.82 
L 259.829752 224.82 
L 262.904132 224.82 
L 265.978512 224.82 
L 269.052893 224.82 
L 272.127273 224.82 
L 275.201653 224.82 
L 278.276033 224.82 
L 281.350413 224.82 
L 284.424793 224.82 
L 287.499174 224.82 
L 290.573554 224.82 
L 293.647934 224.82 
L 296.722314 224.82 
L 299.796694 224.82 
L 302.871074 224.82 
L 305.945455 224.82 
L 309.019835 224.82 
L 312.094215 224.82 
L 315.168595 224.82 
L 318.242975 224.82 
L 321.317355 224.82 
L 324.391736 224.82 
L 327.466116 224.82 
L 330.540496 224.82 
L 333.614876 224.82 
L 336.689256 224.82 
L 339.763636 224.82 
L 342.838017 224.82 
L 345.912397 224.82 
L 348.986777 224.82 
L 352.061157 224.82 
L 355.135537 224.82 
L 358.209917 224.82 
L 361.284298 224.82 
L 364.358678 224.82 
L 367.433058 224.82 
L 370.507438 224.82 
L 373.581818 224.82 
" style="fill:none;stroke:#ff7f0e;stroke-linecap:square;stroke-width:1.5;"/>
   </g>
   <g id="line2d_36">
    <path clip-path="url(#pffc589cfcb)" d="M 69.218182 61.74 
L 72.292562 65.034545 
L 75.366942 68.329091 
L 78.441322 71.623636 
L 81.515702 74.918182 
L 84.590083 78.212727 
L 87.664463 81.507273 
L 90.738843 84.801818 
L 93.813223 88.096364 
L 96.887603 91.390909 
L 99.961983 94.685455 
L 103.036364 97.98 
L 106.110744 101.274545 
L 109.185124 104.569091 
L 112.259504 107.863636 
L 115.333884 111.158182 
L 118.408264 114.452727 
L 121.482645 117.747273 
L 124.557025 121.041818 
L 127.631405 124.336364 
L 130.705785 127.630909 
L 133.780165 130.925455 
L 136.854545 134.22 
L 139.928926 137.514545 
L 143.003306 140.809091 
L 146.077686 144.103636 
L 149.152066 147.398182 
L 152.226446 150.692727 
L 155.300826 153.987273 
L 158.375207 157.281818 
L 161.449587 160.576364 
L 164.523967 163.870909 
L 167.598347 167.165455 
L 170.672727 170.46 
L 173.747107 173.754545 
L 176.821488 177.049091 
L 179.895868 180.343636 
L 182.970248 183.638182 
L 186.044628 186.932727 
L 189.119008 190.227273 
L 192.193388 193.521818 
L 195.267769 196.816364 
L 198.342149 200.110909 
L 201.416529 203.405455 
L 204.490909 206.7 
L 207.565289 209.994545 
L 210.639669 213.289091 
L 213.71405 216.583636 
L 216.78843 219.878182 
L 219.86281 223.172727 
L 222.93719 226.467273 
L 226.01157 229.761818 
L 229.08595 233.056364 
L 232.160331 236.350909 
L 235.234711 239.645455 
L 238.309091 242.94 
L 241.383471 246.234545 
L 244.457851 249.529091 
L 247.532231 252.823636 
L 250.606612 256.118182 
L 253.680992 259.412727 
L 256.755372 262.707273 
L 259.829752 266.001818 
L 262.904132 269.296364 
L 265.978512 272.590909 
L 269.052893 275.885455 
L 272.127273 279.18 
L 275.201653 282.474545 
L 278.276033 285.769091 
L 281.29103 289 
" style="fill:none;stroke:#2ca02c;stroke-linecap:square;stroke-width:1.5;"/>
   </g>
   <g id="line2d_37">
    <path clip-path="url(#pffc589cfcb)" d="M 69.218182 143.28 
L 72.292562 144.927273 
L 75.366942 146.574545 
L 78.441322 148.221818 
L 81.515702 149.869091 
L 84.590083 151.516364 
L 87.664463 153.163636 
L 90.738843 154.810909 
L 93.813223 156.458182 
L 96.887603 158.105455 
L 99.961983 159.752727 
L 103.036364 161.4 
L 106.110744 163.047273 
L 109.185124 164.694545 
L 112.259504 166.341818 
L 115.333884 167.989091 
L 118.408264 169.636364 
L 121.482645 171.283636 
L 124.557025 172.930909 
L 127.631405 174.578182 
L 130.705785 176.225455 
L 133.780165 177.872727 
L 136.854545 179.52 
L 139.928926 181.167273 
L 143.003306 182.814545 
L 146.077686 184.461818 
L 149.152066 186.109091 
L 152.226446 187.756364 
L 155.300826 189.403636 
L 158.375207 191.050909 
L 161.449587 192.698182 
L 164.523967 194.345455 
L 167.598347 195.992727 
L 170.672727 197.64 
L 173.747107 199.287273 
L 176.821488 200.934545 
L 179.895868 202.581818 
L 182.970248 204.229091 
L 186.044628 205.876364 
L 189.119008 207.523636 
L 192.193388 209.170909 
L 195.267769 210.818182 
L 198.342149 212.465455 
L 201.416529 214.112727 
L 204.490909 215.76 
L 207.565289 217.407273 
L 210.639669 219.054545 
L 213.71405 220.701818 
L 216.78843 222.349091 
L 219.86281 223.996364 
L 222.93719 225.643636 
L 226.01157 227.290909 
L 229.08595 228.938182 
L 232.160331 230.585455 
L 235.234711 232.232727 
L 238.309091 233.88 
L 241.383471 235.527273 
L 244.457851 237.174545 
L 247.532231 238.821818 
L 250.606612 240.469091 
L 253.680992 242.116364 
L 256.755372 243.763636 
L 259.829752 245.410909 
L 262.904132 247.058182 
L 265.978512 248.705455 
L 269.052893 250.352727 
L 272.127273 252 
L 275.201653 253.647273 
L 278.276033 255.294545 
L 281.350413 256.941818 
L 284.424793 258.589091 
L 287.499174 260.236364 
L 290.573554 261.883636 
L 293.647934 263.530909 
L 296.722314 265.178182 
L 299.796694 266.825455 
L 302.871074 268.472727 
L 305.945455 270.12 
L 309.019835 271.767273 
L 312.094215 273.414545 
L 315.168595 275.061818 
L 318.242975 276.709091 
L 321.317355 278.356364 
L 324.391736 280.003636 
L 327.466116 281.650909 
L 330.540496 283.298182 
L 333.614876 284.945455 
L 336.689256 286.592727 
L 339.763636 288.24 
L 341.182059 289 
" style="fill:none;stroke:#d62728;stroke-linecap:square;stroke-width:1.5;"/>
   </g>
   <g id="line2d_38">
    <path clip-path="url(#pffc589cfcb)" d="M 69.218182 116.1 
L 72.292562 117.747273 
L 75.366942 119.394545 
L 78.441322 121.041818 
L 81.515702 122.689091 
L 84.590083 124.336364 
L 87.664463 125.983636 
L 90.738843 127.630909 
L 93.813223 129.278182 
L 96.887603 130.925455 
L 99.961983 132.572727 
L 103.036364 134.22 
L 106.110744 135.867273 
L 109.185124 137.514545 
L 112.259504 139.161818 
L 115.333884 140.809091 
L 118.408264 142.456364 
L 121.482645 144.103636 
L 124.557025 145.750909 
L 127.631405 147.398182 
L 130.705785 149.045455 
L 133.780165 150.692727 
L 136.854545 152.34 
L 139.928926 153.987273 
L 143.003306 155.634545 
L 146.077686 157.281818 
L 149.152066 158.929091 
L 152.226446 160.576364 
L 155.300826 162.223636 
L 158.375207 163.870909 
L 161.449587 165.518182 
L 164.523967 167.165455 
L 167.598347 168.812727 
L 170.672727 170.46 
L 173.747107 172.107273 
L 176.821488 173.754545 
L 179.895868 175.401818 
L 182.970248 177.049091 
L 186.044628 178.696364 
L 189.119008 180.343636 
L 192.193388 181.990909 
L 195.267769 183.638182 
L 198.342149 185.285455 
L 201.416529 186.932727 
L 204.490909 188.58 
L 207.565289 190.227273 
L 210.639669 191.874545 
L 213.71405 193.521818 
L 216.78843 195.169091 
L 219.86281 196.816364 
L 222.93719 198.463636 
L 226.01157 200.110909 
L 229.08595 201.758182 
L 232.160331 203.405455 
L 235.234711 205.052727 
L 238.309091 206.7 
L 241.383471 208.347273 
L 244.457851 209.994545 
L 247.532231 211.641818 
L 250.606612 213.289091 
L 253.680992 214.936364 
L 256.755372 216.583636 
L 259.829752 218.230909 
L 262.904132 219.878182 
L 265.978512 221.525455 
L 269.052893 223.172727 
L 272.127273 224.82 
L 275.201653 226.467273 
L 278.276033 228.114545 
L 281.350413 229.761818 
L 284.424793 231.409091 
L 287.499174 233.056364 
L 290.573554 234.703636 
L 293.647934 236.350909 
L 296.722314 237.998182 
L 299.796694 239.645455 
L 302.871074 241.292727 
L 305.945455 242.94 
L 309.019835 244.587273 
L 312.094215 246.234545 
L 315.168595 247.881818 
L 318.242975 249.529091 
L 321.317355 251.176364 
L 324.391736 252.823636 
L 327.466116 254.470909 
L 330.540496 256.118182 
L 333.614876 257.765455 
L 336.689256 259.412727 
L 339.763636 261.06 
L 342.838017 262.707273 
L 345.912397 264.354545 
L 348.986777 266.001818 
L 352.061157 267.649091 
L 355.135537 269.296364 
L 358.209917 270.943636 
L 361.284298 272.590909 
L 364.358678 274.238182 
L 367.433058 275.885455 
L 370.507438 277.532727 
L 373.581818 279.18 
" style="fill:none;stroke:#d62728;stroke-linecap:square;stroke-opacity:0.3;stroke-width:1.5;"/>
   </g>
   <g id="patch_3">
    <path d="M 54 252 
L 54 34.56 
" style="fill:none;stroke:#000000;stroke-linecap:square;stroke-linejoin:miter;stroke-width:0.8;"/>
   </g>
   <g id="patch_4">
    <path d="M 388.8 252 
L 388.8 34.56 
" style="fill:none;stroke:#000000;stroke-linecap:square;stroke-linejoin:miter;stroke-width:0.8;"/>
   </g>
   <g id="patch_5">
    <path d="M 54 252 
L 388.8 252 
" style="fill:none;stroke:#000000;stroke-linecap:square;stroke-linejoin:miter;stroke-width:0.8;"/>
   </g>
   <g id="patch_6">
    <path d="M 54 34.56 
L 388.8 34.56 
" style="fill:none;stroke:#000000;stroke-linecap:square;stroke-linejoin:miter;stroke-width:0.8;"/>
   </g>
   <g id="PathCollection_1">
    <defs>
     <path d="M 0 3 
C 0.795609 3 1.55874 2.683901 2.12132 2.12132 
C 2.683901 1.55874 3 0.795609 3 0 
C 3 -0.795609 2.683901 -1.55874 2.12132 -2.12132 
C 1.55874 -2.683901 0.795609 -3 0 -3 
C -0.795609 -3 -1.55874 -2.683901 -2.12132 -2.12132 
C -2.683901 -1.55874 -3 -0.795609 -3 0 
C -3 0.795609 -2.683901 1.55874 -2.12132 2.12132 
C -1.55874 2.683901 -0.795609 3 0 3 
z
" id="md338d228ed" style="stroke:#808080;"/>
    </defs>
    <g clip-path="url(#pffc589cfcb)">
     <use style="fill:#808080;stroke:#808080;" x="170.672727" xlink:href="#md338d228ed" y="170.46"/>
     <use style="fill:#808080;stroke:#808080;" x="221.4" xlink:href="#md338d228ed" y="224.82"/>
     <use style="fill:#808080;stroke:#808080;" x="272.127273" xlink:href="#md338d228ed" y="224.82"/>
    </g>
   </g>
   <g id="PathCollection_2">
    <defs>
     <path d="M 0 3 
C 0.795609 3 1.55874 2.683901 2.12132 2.12132 
C 2.683901 1.55874 3 0.795609 3 0 
C 3 -0.795609 2.683901 -1.55874 2.12132 -2.12132 
C 1.55874 -2.683901 0.795609 -3 0 -3 
C -0.795609 -3 -1.55874 -2.683901 -2.12132 -2.12132 
C -2.683901 -1.55874 -3 -0.795609 -3 0 
C -3 0.795609 -2.683901 1.55874 -2.12132 2.12132 
C -1.55874 2.683901 -0.795609 3 0 3 
z
" id="md6fb179b7a" style="stroke:#b22222;"/>
    </defs>
    <g clip-path="url(#pffc589cfcb)">
     <use style="fill:#b22222;stroke:#b22222;" x="221.4" xlink:href="#md6fb179b7a" y="224.82"/>
    </g>
   </g>
   <g id="legend_1">
    <g id="patch_7">
     <path d="M 219.9 115.950625 
L 381.8 115.950625 
Q 383.8 115.950625 383.8 113.950625 
L 383.8 41.56 
Q 383.8 39.56 381.8 39.56 
L 219.9 39.56 
Q 217.9 39.56 217.9 41.56 
L 217.9 113.950625 
Q 217.9 115.950625 219.9 115.950625 
z
" style="fill:#ffffff;opacity:0.8;stroke:#cccccc;stroke-linejoin:miter;"/>
    </g>
    <g id="line2d_39">
     <path d="M 221.9 47.658437 
L 241.9 47.658437 
" style="fill:none;stroke:#808080;stroke-linecap:square;stroke-opacity:0.5;stroke-width:3;"/>
    </g>
    <g id="line2d_40"/>
    <g id="text_19">
     <!-- $\sf f(x)$ -->
     <g transform="translate(249.9 51.158437)scale(0.1 -0.1)">
      <use transform="translate(0 0.015625)" xlink:href="#DejaVuSans-66"/>
      <use transform="translate(35.205078 0.015625)" xlink:href="#DejaVuSans-28"/>
      <use transform="translate(74.21875 0.015625)" xlink:href="#DejaVuSans-78"/>
      <use transform="translate(133.398438 0.015625)" xlink:href="#DejaVuSans-29"/>
     </g>
    </g>
    <g id="line2d_41">
     <path d="M 221.9 62.336562 
L 241.9 62.336562 
" style="fill:none;stroke:#1f77b4;stroke-linecap:square;stroke-width:1.5;"/>
    </g>
    <g id="line2d_42"/>
    <g id="text_20">
     <!-- exact $\sf f'(x_0)$ -->
     <g transform="translate(249.9 65.836562)scale(0.1 -0.1)">
      <defs>
       <path d="M 3597 1894 
L 3597 1613 
L 953 1613 
Q 991 1019 1311 708 
Q 1631 397 2203 397 
Q 2534 397 2845 478 
Q 3156 559 3463 722 
L 3463 178 
Q 3153 47 2828 -22 
Q 2503 -91 2169 -91 
Q 1331 -91 842 396 
Q 353 884 353 1716 
Q 353 2575 817 3079 
Q 1281 3584 2069 3584 
Q 2775 3584 3186 3129 
Q 3597 2675 3597 1894 
z
M 3022 2063 
Q 3016 2534 2758 2815 
Q 2500 3097 2075 3097 
Q 1594 3097 1305 2825 
Q 1016 2553 972 2059 
L 3022 2063 
z
" id="DejaVuSans-65" transform="scale(0.015625)"/>
       <path d="M 2194 1759 
Q 1497 1759 1228 1600 
Q 959 1441 959 1056 
Q 959 750 1161 570 
Q 1363 391 1709 391 
Q 2188 391 2477 730 
Q 2766 1069 2766 1631 
L 2766 1759 
L 2194 1759 
z
M 3341 1997 
L 3341 0 
L 2766 0 
L 2766 531 
Q 2569 213 2275 61 
Q 1981 -91 1556 -91 
Q 1019 -91 701 211 
Q 384 513 384 1019 
Q 384 1609 779 1909 
Q 1175 2209 1959 2209 
L 2766 2209 
L 2766 2266 
Q 2766 2663 2505 2880 
Q 2244 3097 1772 3097 
Q 1472 3097 1187 3025 
Q 903 2953 641 2809 
L 641 3341 
Q 956 3463 1253 3523 
Q 1550 3584 1831 3584 
Q 2591 3584 2966 3190 
Q 3341 2797 3341 1997 
z
" id="DejaVuSans-61" transform="scale(0.015625)"/>
       <path d="M 3122 3366 
L 3122 2828 
Q 2878 2963 2633 3030 
Q 2388 3097 2138 3097 
Q 1578 3097 1268 2742 
Q 959 2388 959 1747 
Q 959 1106 1268 751 
Q 1578 397 2138 397 
Q 2388 397 2633 464 
Q 2878 531 3122 666 
L 3122 134 
Q 2881 22 2623 -34 
Q 2366 -91 2075 -91 
Q 1284 -91 818 406 
Q 353 903 353 1747 
Q 353 2603 823 3093 
Q 1294 3584 2113 3584 
Q 2378 3584 2631 3529 
Q 2884 3475 3122 3366 
z
" id="DejaVuSans-63" transform="scale(0.015625)"/>
       <path d="M 1172 4494 
L 1172 3500 
L 2356 3500 
L 2356 3053 
L 1172 3053 
L 1172 1153 
Q 1172 725 1289 603 
Q 1406 481 1766 481 
L 2356 481 
L 2356 0 
L 1766 0 
Q 1100 0 847 248 
Q 594 497 594 1153 
L 594 3053 
L 172 3053 
L 172 3500 
L 594 3500 
L 594 4494 
L 1172 4494 
z
" id="DejaVuSans-74" transform="scale(0.015625)"/>
       <path id="DejaVuSans-20" transform="scale(0.015625)"/>
       <path d="M 225 347 
Q 184 359 184 409 
L 966 3316 
Q 1003 3434 1093 3506 
Q 1184 3578 1300 3578 
Q 1450 3578 1564 3479 
Q 1678 3381 1678 3231 
Q 1678 3166 1644 3084 
L 488 319 
Q 466 275 428 275 
Q 394 275 320 306 
Q 247 338 225 347 
z
" id="Cmsy10-30" transform="scale(0.015625)"/>
      </defs>
      <use transform="translate(0 0.584375)" xlink:href="#DejaVuSans-65"/>
      <use transform="translate(61.523438 0.584375)" xlink:href="#DejaVuSans-78"/>
      <use transform="translate(120.703125 0.584375)" xlink:href="#DejaVuSans-61"/>
      <use transform="translate(181.982422 0.584375)" xlink:href="#DejaVuSans-63"/>
      <use transform="translate(236.962891 0.584375)" xlink:href="#DejaVuSans-74"/>
      <use transform="translate(276.171875 0.584375)" xlink:href="#DejaVuSans-20"/>
      <use transform="translate(307.958984 0.584375)" xlink:href="#DejaVuSans-66"/>
      <use transform="translate(344.121094 38.865625)scale(0.7)" xlink:href="#Cmsy10-30"/>
      <use transform="translate(366.098633 0.584375)" xlink:href="#DejaVuSans-28"/>
      <use transform="translate(405.112305 0.584375)" xlink:href="#DejaVuSans-78"/>
      <use transform="translate(465.249023 -15.821875)scale(0.7)" xlink:href="#DejaVuSans-30"/>
      <use transform="translate(512.519531 0.584375)" xlink:href="#DejaVuSans-29"/>
     </g>
    </g>
    <g id="line2d_43">
     <path d="M 221.9 77.014687 
L 241.9 77.014687 
" style="fill:none;stroke:#ff7f0e;stroke-linecap:square;stroke-width:1.5;"/>
    </g>
    <g id="line2d_44"/>
    <g id="text_21">
     <!-- forward difference $\sf f'(x_0)$ -->
     <g transform="translate(249.9 80.514687)scale(0.1 -0.1)">
      <defs>
       <path d="M 1959 3097 
Q 1497 3097 1228 2736 
Q 959 2375 959 1747 
Q 959 1119 1226 758 
Q 1494 397 1959 397 
Q 2419 397 2687 759 
Q 2956 1122 2956 1747 
Q 2956 2369 2687 2733 
Q 2419 3097 1959 3097 
z
M 1959 3584 
Q 2709 3584 3137 3096 
Q 3566 2609 3566 1747 
Q 3566 888 3137 398 
Q 2709 -91 1959 -91 
Q 1206 -91 779 398 
Q 353 888 353 1747 
Q 353 2609 779 3096 
Q 1206 3584 1959 3584 
z
" id="DejaVuSans-6f" transform="scale(0.015625)"/>
       <path d="M 2631 2963 
Q 2534 3019 2420 3045 
Q 2306 3072 2169 3072 
Q 1681 3072 1420 2755 
Q 1159 2438 1159 1844 
L 1159 0 
L 581 0 
L 581 3500 
L 1159 3500 
L 1159 2956 
Q 1341 3275 1631 3429 
Q 1922 3584 2338 3584 
Q 2397 3584 2469 3576 
Q 2541 3569 2628 3553 
L 2631 2963 
z
" id="DejaVuSans-72" transform="scale(0.015625)"/>
       <path d="M 269 3500 
L 844 3500 
L 1563 769 
L 2278 3500 
L 2956 3500 
L 3675 769 
L 4391 3500 
L 4966 3500 
L 4050 0 
L 3372 0 
L 2619 2869 
L 1863 0 
L 1184 0 
L 269 3500 
z
" id="DejaVuSans-77" transform="scale(0.015625)"/>
       <path d="M 2906 2969 
L 2906 4863 
L 3481 4863 
L 3481 0 
L 2906 0 
L 2906 525 
Q 2725 213 2448 61 
Q 2172 -91 1784 -91 
Q 1150 -91 751 415 
Q 353 922 353 1747 
Q 353 2572 751 3078 
Q 1150 3584 1784 3584 
Q 2172 3584 2448 3432 
Q 2725 3281 2906 2969 
z
M 947 1747 
Q 947 1113 1208 752 
Q 1469 391 1925 391 
Q 2381 391 2643 752 
Q 2906 1113 2906 1747 
Q 2906 2381 2643 2742 
Q 2381 3103 1925 3103 
Q 1469 3103 1208 2742 
Q 947 2381 947 1747 
z
" id="DejaVuSans-64" transform="scale(0.015625)"/>
       <path d="M 603 3500 
L 1178 3500 
L 1178 0 
L 603 0 
L 603 3500 
z
M 603 4863 
L 1178 4863 
L 1178 4134 
L 603 4134 
L 603 4863 
z
" id="DejaVuSans-69" transform="scale(0.015625)"/>
       <path d="M 3513 2113 
L 3513 0 
L 2938 0 
L 2938 2094 
Q 2938 2591 2744 2837 
Q 2550 3084 2163 3084 
Q 1697 3084 1428 2787 
Q 1159 2491 1159 1978 
L 1159 0 
L 581 0 
L 581 3500 
L 1159 3500 
L 1159 2956 
Q 1366 3272 1645 3428 
Q 1925 3584 2291 3584 
Q 2894 3584 3203 3211 
Q 3513 2838 3513 2113 
z
" id="DejaVuSans-6e" transform="scale(0.015625)"/>
      </defs>
      <use transform="translate(0 0.584375)" xlink:href="#DejaVuSans-66"/>
      <use transform="translate(35.205078 0.584375)" xlink:href="#DejaVuSans-6f"/>
      <use transform="translate(96.386719 0.584375)" xlink:href="#DejaVuSans-72"/>
      <use transform="translate(137.5 0.584375)" xlink:href="#DejaVuSans-77"/>
      <use transform="translate(219.287109 0.584375)" xlink:href="#DejaVuSans-61"/>
      <use transform="translate(280.566406 0.584375)" xlink:href="#DejaVuSans-72"/>
      <use transform="translate(321.679688 0.584375)" xlink:href="#DejaVuSans-64"/>
      <use transform="translate(385.15625 0.584375)" xlink:href="#DejaVuSans-20"/>
      <use transform="translate(416.943359 0.584375)" xlink:href="#DejaVuSans-64"/>
      <use transform="translate(480.419922 0.584375)" xlink:href="#DejaVuSans-69"/>
      <use transform="translate(508.203125 0.584375)" xlink:href="#DejaVuSans-66"/>
      <use transform="translate(543.408203 0.584375)" xlink:href="#DejaVuSans-66"/>
      <use transform="translate(578.613281 0.584375)" xlink:href="#DejaVuSans-65"/>
      <use transform="translate(640.136719 0.584375)" xlink:href="#DejaVuSans-72"/>
      <use transform="translate(681.25 0.584375)" xlink:href="#DejaVuSans-65"/>
      <use transform="translate(742.773438 0.584375)" xlink:href="#DejaVuSans-6e"/>
      <use transform="translate(806.152344 0.584375)" xlink:href="#DejaVuSans-63"/>
      <use transform="translate(861.132812 0.584375)" xlink:href="#DejaVuSans-65"/>
      <use transform="translate(922.65625 0.584375)" xlink:href="#DejaVuSans-20"/>
      <use transform="translate(954.443359 0.584375)" xlink:href="#DejaVuSans-66"/>
      <use transform="translate(990.605469 38.865625)scale(0.7)" xlink:href="#Cmsy10-30"/>
      <use transform="translate(1012.583008 0.584375)" xlink:href="#DejaVuSans-28"/>
      <use transform="translate(1051.59668 0.584375)" xlink:href="#DejaVuSans-78"/>
      <use transform="translate(1111.733398 -15.821875)scale(0.7)" xlink:href="#DejaVuSans-30"/>
      <use transform="translate(1159.003906 0.584375)" xlink:href="#DejaVuSans-29"/>
     </g>
    </g>
    <g id="line2d_45">
     <path d="M 221.9 91.692813 
L 241.9 91.692813 
" style="fill:none;stroke:#2ca02c;stroke-linecap:square;stroke-width:1.5;"/>
    </g>
    <g id="line2d_46"/>
    <g id="text_22">
     <!-- backward difference $\sf f'(x_0)$ -->
     <g transform="translate(249.9 95.192813)scale(0.1 -0.1)">
      <defs>
       <path d="M 3116 1747 
Q 3116 2381 2855 2742 
Q 2594 3103 2138 3103 
Q 1681 3103 1420 2742 
Q 1159 2381 1159 1747 
Q 1159 1113 1420 752 
Q 1681 391 2138 391 
Q 2594 391 2855 752 
Q 3116 1113 3116 1747 
z
M 1159 2969 
Q 1341 3281 1617 3432 
Q 1894 3584 2278 3584 
Q 2916 3584 3314 3078 
Q 3713 2572 3713 1747 
Q 3713 922 3314 415 
Q 2916 -91 2278 -91 
Q 1894 -91 1617 61 
Q 1341 213 1159 525 
L 1159 0 
L 581 0 
L 581 4863 
L 1159 4863 
L 1159 2969 
z
" id="DejaVuSans-62" transform="scale(0.015625)"/>
       <path d="M 581 4863 
L 1159 4863 
L 1159 1991 
L 2875 3500 
L 3609 3500 
L 1753 1863 
L 3688 0 
L 2938 0 
L 1159 1709 
L 1159 0 
L 581 0 
L 581 4863 
z
" id="DejaVuSans-6b" transform="scale(0.015625)"/>
      </defs>
      <use transform="translate(0 0.584375)" xlink:href="#DejaVuSans-62"/>
      <use transform="translate(63.476562 0.584375)" xlink:href="#DejaVuSans-61"/>
      <use transform="translate(124.755859 0.584375)" xlink:href="#DejaVuSans-63"/>
      <use transform="translate(179.736328 0.584375)" xlink:href="#DejaVuSans-6b"/>
      <use transform="translate(237.646484 0.584375)" xlink:href="#DejaVuSans-77"/>
      <use transform="translate(319.433594 0.584375)" xlink:href="#DejaVuSans-61"/>
      <use transform="translate(380.712891 0.584375)" xlink:href="#DejaVuSans-72"/>
      <use transform="translate(421.826172 0.584375)" xlink:href="#DejaVuSans-64"/>
      <use transform="translate(485.302734 0.584375)" xlink:href="#DejaVuSans-20"/>
      <use transform="translate(517.089844 0.584375)" xlink:href="#DejaVuSans-64"/>
      <use transform="translate(580.566406 0.584375)" xlink:href="#DejaVuSans-69"/>
      <use transform="translate(608.349609 0.584375)" xlink:href="#DejaVuSans-66"/>
      <use transform="translate(643.554688 0.584375)" xlink:href="#DejaVuSans-66"/>
      <use transform="translate(678.759766 0.584375)" xlink:href="#DejaVuSans-65"/>
      <use transform="translate(740.283203 0.584375)" xlink:href="#DejaVuSans-72"/>
      <use transform="translate(781.396484 0.584375)" xlink:href="#DejaVuSans-65"/>
      <use transform="translate(842.919922 0.584375)" xlink:href="#DejaVuSans-6e"/>
      <use transform="translate(906.298828 0.584375)" xlink:href="#DejaVuSans-63"/>
      <use transform="translate(961.279297 0.584375)" xlink:href="#DejaVuSans-65"/>
      <use transform="translate(1022.802734 0.584375)" xlink:href="#DejaVuSans-20"/>
      <use transform="translate(1054.589844 0.584375)" xlink:href="#DejaVuSans-66"/>
      <use transform="translate(1090.751953 38.865625)scale(0.7)" xlink:href="#Cmsy10-30"/>
      <use transform="translate(1112.729492 0.584375)" xlink:href="#DejaVuSans-28"/>
      <use transform="translate(1151.743164 0.584375)" xlink:href="#DejaVuSans-78"/>
      <use transform="translate(1211.879883 -15.821875)scale(0.7)" xlink:href="#DejaVuSans-30"/>
      <use transform="translate(1259.150391 0.584375)" xlink:href="#DejaVuSans-29"/>
     </g>
    </g>
    <g id="line2d_47">
     <path d="M 221.9 106.370937 
L 241.9 106.370937 
" style="fill:none;stroke:#d62728;stroke-linecap:square;stroke-width:1.5;"/>
    </g>
    <g id="line2d_48"/>
    <g id="text_23">
     <!-- central difference $\sf f'(x_0)$ -->
     <g transform="translate(249.9 109.870937)scale(0.1 -0.1)">
      <defs>
       <path d="M 603 4863 
L 1178 4863 
L 1178 0 
L 603 0 
L 603 4863 
z
" id="DejaVuSans-6c" transform="scale(0.015625)"/>
      </defs>
      <use transform="translate(0 0.584375)" xlink:href="#DejaVuSans-63"/>
      <use transform="translate(54.980469 0.584375)" xlink:href="#DejaVuSans-65"/>
      <use transform="translate(116.503906 0.584375)" xlink:href="#DejaVuSans-6e"/>
      <use transform="translate(179.882812 0.584375)" xlink:href="#DejaVuSans-74"/>
      <use transform="translate(219.091797 0.584375)" xlink:href="#DejaVuSans-72"/>
      <use transform="translate(260.205078 0.584375)" xlink:href="#DejaVuSans-61"/>
      <use transform="translate(321.484375 0.584375)" xlink:href="#DejaVuSans-6c"/>
      <use transform="translate(349.267578 0.584375)" xlink:href="#DejaVuSans-20"/>
      <use transform="translate(381.054688 0.584375)" xlink:href="#DejaVuSans-64"/>
      <use transform="translate(444.53125 0.584375)" xlink:href="#DejaVuSans-69"/>
      <use transform="translate(472.314453 0.584375)" xlink:href="#DejaVuSans-66"/>
      <use transform="translate(507.519531 0.584375)" xlink:href="#DejaVuSans-66"/>
      <use transform="translate(542.724609 0.584375)" xlink:href="#DejaVuSans-65"/>
      <use transform="translate(604.248047 0.584375)" xlink:href="#DejaVuSans-72"/>
      <use transform="translate(645.361328 0.584375)" xlink:href="#DejaVuSans-65"/>
      <use transform="translate(706.884766 0.584375)" xlink:href="#DejaVuSans-6e"/>
      <use transform="translate(770.263672 0.584375)" xlink:href="#DejaVuSans-63"/>
      <use transform="translate(825.244141 0.584375)" xlink:href="#DejaVuSans-65"/>
      <use transform="translate(886.767578 0.584375)" xlink:href="#DejaVuSans-20"/>
      <use transform="translate(918.554688 0.584375)" xlink:href="#DejaVuSans-66"/>
      <use transform="translate(954.716797 38.865625)scale(0.7)" xlink:href="#Cmsy10-30"/>
      <use transform="translate(976.694336 0.584375)" xlink:href="#DejaVuSans-28"/>
      <use transform="translate(1015.708008 0.584375)" xlink:href="#DejaVuSans-78"/>
      <use transform="translate(1075.844727 -15.821875)scale(0.7)" xlink:href="#DejaVuSans-30"/>
      <use transform="translate(1123.115234 0.584375)" xlink:href="#DejaVuSans-29"/>
     </g>
    </g>
   </g>
  </g>
 </g>
 <defs>
  <clipPath id="pffc589cfcb">
   <rect height="217.44" width="334.8" x="54" y="34.56"/>
  </clipPath>
 </defs>
</svg>
