<?xml version="1.0" encoding="utf-8" standalone="no"?>
<!DOCTYPE svg PUBLIC "-//W3C//DTD SVG 1.1//EN"
  "http://www.w3.org/Graphics/SVG/1.1/DTD/svg11.dtd">
<svg xmlns:xlink="http://www.w3.org/1999/xlink" width="460.8pt" height="345.6pt" viewBox="0 0 460.8 345.6" xmlns="http://www.w3.org/2000/svg" version="1.1">
 <metadata>
  <rdf:RDF xmlns:dc="http://purl.org/dc/elements/1.1/" xmlns:cc="http://creativecommons.org/ns#" xmlns:rdf="http://www.w3.org/1999/02/22-rdf-syntax-ns#">
   <cc:Work>
    <dc:type rdf:resource="http://purl.org/dc/dcmitype/StillImage"/>
    <dc:date>2022-11-24T14:11:37.097008</dc:date>
    <dc:format>image/svg+xml</dc:format>
    <dc:creator>
     <cc:Agent>
      <dc:title>Matplotlib v3.5.3, https://matplotlib.org/</dc:title>
     </cc:Agent>
    </dc:creator>
   </cc:Work>
  </rdf:RDF>
 </metadata>
 <defs>
  <style type="text/css">*{stroke-linejoin: round; stroke-linecap: butt}</style>
 </defs>
 <g id="figure_1">
  <g id="patch_1">
   <path d="M 0 345.6 
L 460.8 345.6 
L 460.8 0 
L 0 0 
z
" style="fill: #ffffff"/>
  </g>
  <g id="axes_1">
   <g id="patch_2">
    <path d="M 57.6 307.584 
L 414.72 307.584 
L 414.72 41.472 
L 57.6 41.472 
z
" style="fill: #ffffff"/>
   </g>
   <g id="matplotlib.axis_1">
    <g id="xtick_1">
     <g id="line2d_1">
      <path d="M 73.832727 307.584 
L 73.832727 41.472 
" clip-path="url(#pa0da5c6936)" style="fill: none; stroke: #b0b0b0; stroke-width: 0.8; stroke-linecap: square"/>
     </g>
     <g id="line2d_2">
      <defs>
       <path id="m87f96dcba9" d="M 0 0 
L 0 3.5 
" style="stroke: #000000; stroke-width: 0.8"/>
      </defs>
      <g>
       <use xlink:href="#m87f96dcba9" x="73.832727" y="307.584" style="stroke: #000000; stroke-width: 0.8"/>
      </g>
     </g>
     <g id="text_1">
      <!-- −1 -->
      <g transform="translate(66.461634 322.182437)scale(0.1 -0.1)">
       <defs>
        <path id="DejaVuSans-2212" d="M 678 2272 
L 4684 2272 
L 4684 1741 
L 678 1741 
L 678 2272 
z
" transform="scale(0.015625)"/>
        <path id="DejaVuSans-31" d="M 794 531 
L 1825 531 
L 1825 4091 
L 703 3866 
L 703 4441 
L 1819 4666 
L 2450 4666 
L 2450 531 
L 3481 531 
L 3481 0 
L 794 0 
L 794 531 
z
" transform="scale(0.015625)"/>
       </defs>
       <use xlink:href="#DejaVuSans-2212"/>
       <use xlink:href="#DejaVuSans-31" x="83.789062"/>
      </g>
     </g>
    </g>
    <g id="xtick_2">
     <g id="line2d_3">
      <path d="M 127.941818 307.584 
L 127.941818 41.472 
" clip-path="url(#pa0da5c6936)" style="fill: none; stroke: #b0b0b0; stroke-width: 0.8; stroke-linecap: square"/>
     </g>
     <g id="line2d_4">
      <g>
       <use xlink:href="#m87f96dcba9" x="127.941818" y="307.584" style="stroke: #000000; stroke-width: 0.8"/>
      </g>
     </g>
     <g id="text_2">
      <!-- 0 -->
      <g transform="translate(124.760568 322.182437)scale(0.1 -0.1)">
       <defs>
        <path id="DejaVuSans-30" d="M 2034 4250 
Q 1547 4250 1301 3770 
Q 1056 3291 1056 2328 
Q 1056 1369 1301 889 
Q 1547 409 2034 409 
Q 2525 409 2770 889 
Q 3016 1369 3016 2328 
Q 3016 3291 2770 3770 
Q 2525 4250 2034 4250 
z
M 2034 4750 
Q 2819 4750 3233 4129 
Q 3647 3509 3647 2328 
Q 3647 1150 3233 529 
Q 2819 -91 2034 -91 
Q 1250 -91 836 529 
Q 422 1150 422 2328 
Q 422 3509 836 4129 
Q 1250 4750 2034 4750 
z
" transform="scale(0.015625)"/>
       </defs>
       <use xlink:href="#DejaVuSans-30"/>
      </g>
     </g>
    </g>
    <g id="xtick_3">
     <g id="line2d_5">
      <path d="M 182.050909 307.584 
L 182.050909 41.472 
" clip-path="url(#pa0da5c6936)" style="fill: none; stroke: #b0b0b0; stroke-width: 0.8; stroke-linecap: square"/>
     </g>
     <g id="line2d_6">
      <g>
       <use xlink:href="#m87f96dcba9" x="182.050909" y="307.584" style="stroke: #000000; stroke-width: 0.8"/>
      </g>
     </g>
     <g id="text_3">
      <!-- 1 -->
      <g transform="translate(178.869659 322.182437)scale(0.1 -0.1)">
       <use xlink:href="#DejaVuSans-31"/>
      </g>
     </g>
    </g>
    <g id="xtick_4">
     <g id="line2d_7">
      <path d="M 236.16 307.584 
L 236.16 41.472 
" clip-path="url(#pa0da5c6936)" style="fill: none; stroke: #b0b0b0; stroke-width: 0.8; stroke-linecap: square"/>
     </g>
     <g id="line2d_8">
      <g>
       <use xlink:href="#m87f96dcba9" x="236.16" y="307.584" style="stroke: #000000; stroke-width: 0.8"/>
      </g>
     </g>
     <g id="text_4">
      <!-- 2 -->
      <g transform="translate(232.97875 322.182437)scale(0.1 -0.1)">
       <defs>
        <path id="DejaVuSans-32" d="M 1228 531 
L 3431 531 
L 3431 0 
L 469 0 
L 469 531 
Q 828 903 1448 1529 
Q 2069 2156 2228 2338 
Q 2531 2678 2651 2914 
Q 2772 3150 2772 3378 
Q 2772 3750 2511 3984 
Q 2250 4219 1831 4219 
Q 1534 4219 1204 4116 
Q 875 4013 500 3803 
L 500 4441 
Q 881 4594 1212 4672 
Q 1544 4750 1819 4750 
Q 2544 4750 2975 4387 
Q 3406 4025 3406 3419 
Q 3406 3131 3298 2873 
Q 3191 2616 2906 2266 
Q 2828 2175 2409 1742 
Q 1991 1309 1228 531 
z
" transform="scale(0.015625)"/>
       </defs>
       <use xlink:href="#DejaVuSans-32"/>
      </g>
     </g>
    </g>
    <g id="xtick_5">
     <g id="line2d_9">
      <path d="M 290.269091 307.584 
L 290.269091 41.472 
" clip-path="url(#pa0da5c6936)" style="fill: none; stroke: #b0b0b0; stroke-width: 0.8; stroke-linecap: square"/>
     </g>
     <g id="line2d_10">
      <g>
       <use xlink:href="#m87f96dcba9" x="290.269091" y="307.584" style="stroke: #000000; stroke-width: 0.8"/>
      </g>
     </g>
     <g id="text_5">
      <!-- 3 -->
      <g transform="translate(287.087841 322.182437)scale(0.1 -0.1)">
       <defs>
        <path id="DejaVuSans-33" d="M 2597 2516 
Q 3050 2419 3304 2112 
Q 3559 1806 3559 1356 
Q 3559 666 3084 287 
Q 2609 -91 1734 -91 
Q 1441 -91 1130 -33 
Q 819 25 488 141 
L 488 750 
Q 750 597 1062 519 
Q 1375 441 1716 441 
Q 2309 441 2620 675 
Q 2931 909 2931 1356 
Q 2931 1769 2642 2001 
Q 2353 2234 1838 2234 
L 1294 2234 
L 1294 2753 
L 1863 2753 
Q 2328 2753 2575 2939 
Q 2822 3125 2822 3475 
Q 2822 3834 2567 4026 
Q 2313 4219 1838 4219 
Q 1578 4219 1281 4162 
Q 984 4106 628 3988 
L 628 4550 
Q 988 4650 1302 4700 
Q 1616 4750 1894 4750 
Q 2613 4750 3031 4423 
Q 3450 4097 3450 3541 
Q 3450 3153 3228 2886 
Q 3006 2619 2597 2516 
z
" transform="scale(0.015625)"/>
       </defs>
       <use xlink:href="#DejaVuSans-33"/>
      </g>
     </g>
    </g>
    <g id="xtick_6">
     <g id="line2d_11">
      <path d="M 344.378182 307.584 
L 344.378182 41.472 
" clip-path="url(#pa0da5c6936)" style="fill: none; stroke: #b0b0b0; stroke-width: 0.8; stroke-linecap: square"/>
     </g>
     <g id="line2d_12">
      <g>
       <use xlink:href="#m87f96dcba9" x="344.378182" y="307.584" style="stroke: #000000; stroke-width: 0.8"/>
      </g>
     </g>
     <g id="text_6">
      <!-- 4 -->
      <g transform="translate(341.196932 322.182437)scale(0.1 -0.1)">
       <defs>
        <path id="DejaVuSans-34" d="M 2419 4116 
L 825 1625 
L 2419 1625 
L 2419 4116 
z
M 2253 4666 
L 3047 4666 
L 3047 1625 
L 3713 1625 
L 3713 1100 
L 3047 1100 
L 3047 0 
L 2419 0 
L 2419 1100 
L 313 1100 
L 313 1709 
L 2253 4666 
z
" transform="scale(0.015625)"/>
       </defs>
       <use xlink:href="#DejaVuSans-34"/>
      </g>
     </g>
    </g>
    <g id="xtick_7">
     <g id="line2d_13">
      <path d="M 398.487273 307.584 
L 398.487273 41.472 
" clip-path="url(#pa0da5c6936)" style="fill: none; stroke: #b0b0b0; stroke-width: 0.8; stroke-linecap: square"/>
     </g>
     <g id="line2d_14">
      <g>
       <use xlink:href="#m87f96dcba9" x="398.487273" y="307.584" style="stroke: #000000; stroke-width: 0.8"/>
      </g>
     </g>
     <g id="text_7">
      <!-- 5 -->
      <g transform="translate(395.306023 322.182437)scale(0.1 -0.1)">
       <defs>
        <path id="DejaVuSans-35" d="M 691 4666 
L 3169 4666 
L 3169 4134 
L 1269 4134 
L 1269 2991 
Q 1406 3038 1543 3061 
Q 1681 3084 1819 3084 
Q 2600 3084 3056 2656 
Q 3513 2228 3513 1497 
Q 3513 744 3044 326 
Q 2575 -91 1722 -91 
Q 1428 -91 1123 -41 
Q 819 9 494 109 
L 494 744 
Q 775 591 1075 516 
Q 1375 441 1709 441 
Q 2250 441 2565 725 
Q 2881 1009 2881 1497 
Q 2881 1984 2565 2268 
Q 2250 2553 1709 2553 
Q 1456 2553 1204 2497 
Q 953 2441 691 2322 
L 691 4666 
z
" transform="scale(0.015625)"/>
       </defs>
       <use xlink:href="#DejaVuSans-35"/>
      </g>
     </g>
    </g>
    <g id="text_8">
     <!-- x -->
     <g transform="translate(233.200625 335.860562)scale(0.1 -0.1)">
      <defs>
       <path id="DejaVuSans-78" d="M 3513 3500 
L 2247 1797 
L 3578 0 
L 2900 0 
L 1881 1375 
L 863 0 
L 184 0 
L 1544 1831 
L 300 3500 
L 978 3500 
L 1906 2253 
L 2834 3500 
L 3513 3500 
z
" transform="scale(0.015625)"/>
      </defs>
      <use xlink:href="#DejaVuSans-78"/>
     </g>
    </g>
   </g>
   <g id="matplotlib.axis_2">
    <g id="ytick_1">
     <g id="line2d_15">
      <path d="M 57.6 307.584 
L 414.72 307.584 
" clip-path="url(#pa0da5c6936)" style="fill: none; stroke: #b0b0b0; stroke-width: 0.8; stroke-linecap: square"/>
     </g>
     <g id="line2d_16">
      <defs>
       <path id="mc59f148a79" d="M 0 0 
L -3.5 0 
" style="stroke: #000000; stroke-width: 0.8"/>
      </defs>
      <g>
       <use xlink:href="#mc59f148a79" x="57.6" y="307.584" style="stroke: #000000; stroke-width: 0.8"/>
      </g>
     </g>
     <g id="text_9">
      <!-- 0.3 -->
      <g transform="translate(34.696875 311.383219)scale(0.1 -0.1)">
       <defs>
        <path id="DejaVuSans-2e" d="M 684 794 
L 1344 794 
L 1344 0 
L 684 0 
L 684 794 
z
" transform="scale(0.015625)"/>
       </defs>
       <use xlink:href="#DejaVuSans-30"/>
       <use xlink:href="#DejaVuSans-2e" x="63.623047"/>
       <use xlink:href="#DejaVuSans-33" x="95.410156"/>
      </g>
     </g>
    </g>
    <g id="ytick_2">
     <g id="line2d_17">
      <path d="M 57.6 274.32 
L 414.72 274.32 
" clip-path="url(#pa0da5c6936)" style="fill: none; stroke: #b0b0b0; stroke-width: 0.8; stroke-linecap: square"/>
     </g>
     <g id="line2d_18">
      <g>
       <use xlink:href="#mc59f148a79" x="57.6" y="274.32" style="stroke: #000000; stroke-width: 0.8"/>
      </g>
     </g>
     <g id="text_10">
      <!-- 0.4 -->
      <g transform="translate(34.696875 278.119219)scale(0.1 -0.1)">
       <use xlink:href="#DejaVuSans-30"/>
       <use xlink:href="#DejaVuSans-2e" x="63.623047"/>
       <use xlink:href="#DejaVuSans-34" x="95.410156"/>
      </g>
     </g>
    </g>
    <g id="ytick_3">
     <g id="line2d_19">
      <path d="M 57.6 241.056 
L 414.72 241.056 
" clip-path="url(#pa0da5c6936)" style="fill: none; stroke: #b0b0b0; stroke-width: 0.8; stroke-linecap: square"/>
     </g>
     <g id="line2d_20">
      <g>
       <use xlink:href="#mc59f148a79" x="57.6" y="241.056" style="stroke: #000000; stroke-width: 0.8"/>
      </g>
     </g>
     <g id="text_11">
      <!-- 0.5 -->
      <g transform="translate(34.696875 244.855219)scale(0.1 -0.1)">
       <use xlink:href="#DejaVuSans-30"/>
       <use xlink:href="#DejaVuSans-2e" x="63.623047"/>
       <use xlink:href="#DejaVuSans-35" x="95.410156"/>
      </g>
     </g>
    </g>
    <g id="ytick_4">
     <g id="line2d_21">
      <path d="M 57.6 207.792 
L 414.72 207.792 
" clip-path="url(#pa0da5c6936)" style="fill: none; stroke: #b0b0b0; stroke-width: 0.8; stroke-linecap: square"/>
     </g>
     <g id="line2d_22">
      <g>
       <use xlink:href="#mc59f148a79" x="57.6" y="207.792" style="stroke: #000000; stroke-width: 0.8"/>
      </g>
     </g>
     <g id="text_12">
      <!-- 0.6 -->
      <g transform="translate(34.696875 211.591219)scale(0.1 -0.1)">
       <defs>
        <path id="DejaVuSans-36" d="M 2113 2584 
Q 1688 2584 1439 2293 
Q 1191 2003 1191 1497 
Q 1191 994 1439 701 
Q 1688 409 2113 409 
Q 2538 409 2786 701 
Q 3034 994 3034 1497 
Q 3034 2003 2786 2293 
Q 2538 2584 2113 2584 
z
M 3366 4563 
L 3366 3988 
Q 3128 4100 2886 4159 
Q 2644 4219 2406 4219 
Q 1781 4219 1451 3797 
Q 1122 3375 1075 2522 
Q 1259 2794 1537 2939 
Q 1816 3084 2150 3084 
Q 2853 3084 3261 2657 
Q 3669 2231 3669 1497 
Q 3669 778 3244 343 
Q 2819 -91 2113 -91 
Q 1303 -91 875 529 
Q 447 1150 447 2328 
Q 447 3434 972 4092 
Q 1497 4750 2381 4750 
Q 2619 4750 2861 4703 
Q 3103 4656 3366 4563 
z
" transform="scale(0.015625)"/>
       </defs>
       <use xlink:href="#DejaVuSans-30"/>
       <use xlink:href="#DejaVuSans-2e" x="63.623047"/>
       <use xlink:href="#DejaVuSans-36" x="95.410156"/>
      </g>
     </g>
    </g>
    <g id="ytick_5">
     <g id="line2d_23">
      <path d="M 57.6 174.528 
L 414.72 174.528 
" clip-path="url(#pa0da5c6936)" style="fill: none; stroke: #b0b0b0; stroke-width: 0.8; stroke-linecap: square"/>
     </g>
     <g id="line2d_24">
      <g>
       <use xlink:href="#mc59f148a79" x="57.6" y="174.528" style="stroke: #000000; stroke-width: 0.8"/>
      </g>
     </g>
     <g id="text_13">
      <!-- 0.7 -->
      <g transform="translate(34.696875 178.327219)scale(0.1 -0.1)">
       <defs>
        <path id="DejaVuSans-37" d="M 525 4666 
L 3525 4666 
L 3525 4397 
L 1831 0 
L 1172 0 
L 2766 4134 
L 525 4134 
L 525 4666 
z
" transform="scale(0.015625)"/>
       </defs>
       <use xlink:href="#DejaVuSans-30"/>
       <use xlink:href="#DejaVuSans-2e" x="63.623047"/>
       <use xlink:href="#DejaVuSans-37" x="95.410156"/>
      </g>
     </g>
    </g>
    <g id="ytick_6">
     <g id="line2d_25">
      <path d="M 57.6 141.264 
L 414.72 141.264 
" clip-path="url(#pa0da5c6936)" style="fill: none; stroke: #b0b0b0; stroke-width: 0.8; stroke-linecap: square"/>
     </g>
     <g id="line2d_26">
      <g>
       <use xlink:href="#mc59f148a79" x="57.6" y="141.264" style="stroke: #000000; stroke-width: 0.8"/>
      </g>
     </g>
     <g id="text_14">
      <!-- 0.8 -->
      <g transform="translate(34.696875 145.063219)scale(0.1 -0.1)">
       <defs>
        <path id="DejaVuSans-38" d="M 2034 2216 
Q 1584 2216 1326 1975 
Q 1069 1734 1069 1313 
Q 1069 891 1326 650 
Q 1584 409 2034 409 
Q 2484 409 2743 651 
Q 3003 894 3003 1313 
Q 3003 1734 2745 1975 
Q 2488 2216 2034 2216 
z
M 1403 2484 
Q 997 2584 770 2862 
Q 544 3141 544 3541 
Q 544 4100 942 4425 
Q 1341 4750 2034 4750 
Q 2731 4750 3128 4425 
Q 3525 4100 3525 3541 
Q 3525 3141 3298 2862 
Q 3072 2584 2669 2484 
Q 3125 2378 3379 2068 
Q 3634 1759 3634 1313 
Q 3634 634 3220 271 
Q 2806 -91 2034 -91 
Q 1263 -91 848 271 
Q 434 634 434 1313 
Q 434 1759 690 2068 
Q 947 2378 1403 2484 
z
M 1172 3481 
Q 1172 3119 1398 2916 
Q 1625 2713 2034 2713 
Q 2441 2713 2670 2916 
Q 2900 3119 2900 3481 
Q 2900 3844 2670 4047 
Q 2441 4250 2034 4250 
Q 1625 4250 1398 4047 
Q 1172 3844 1172 3481 
z
" transform="scale(0.015625)"/>
       </defs>
       <use xlink:href="#DejaVuSans-30"/>
       <use xlink:href="#DejaVuSans-2e" x="63.623047"/>
       <use xlink:href="#DejaVuSans-38" x="95.410156"/>
      </g>
     </g>
    </g>
    <g id="ytick_7">
     <g id="line2d_27">
      <path d="M 57.6 108 
L 414.72 108 
" clip-path="url(#pa0da5c6936)" style="fill: none; stroke: #b0b0b0; stroke-width: 0.8; stroke-linecap: square"/>
     </g>
     <g id="line2d_28">
      <g>
       <use xlink:href="#mc59f148a79" x="57.6" y="108" style="stroke: #000000; stroke-width: 0.8"/>
      </g>
     </g>
     <g id="text_15">
      <!-- 0.9 -->
      <g transform="translate(34.696875 111.799219)scale(0.1 -0.1)">
       <defs>
        <path id="DejaVuSans-39" d="M 703 97 
L 703 672 
Q 941 559 1184 500 
Q 1428 441 1663 441 
Q 2288 441 2617 861 
Q 2947 1281 2994 2138 
Q 2813 1869 2534 1725 
Q 2256 1581 1919 1581 
Q 1219 1581 811 2004 
Q 403 2428 403 3163 
Q 403 3881 828 4315 
Q 1253 4750 1959 4750 
Q 2769 4750 3195 4129 
Q 3622 3509 3622 2328 
Q 3622 1225 3098 567 
Q 2575 -91 1691 -91 
Q 1453 -91 1209 -44 
Q 966 3 703 97 
z
M 1959 2075 
Q 2384 2075 2632 2365 
Q 2881 2656 2881 3163 
Q 2881 3666 2632 3958 
Q 2384 4250 1959 4250 
Q 1534 4250 1286 3958 
Q 1038 3666 1038 3163 
Q 1038 2656 1286 2365 
Q 1534 2075 1959 2075 
z
" transform="scale(0.015625)"/>
       </defs>
       <use xlink:href="#DejaVuSans-30"/>
       <use xlink:href="#DejaVuSans-2e" x="63.623047"/>
       <use xlink:href="#DejaVuSans-39" x="95.410156"/>
      </g>
     </g>
    </g>
    <g id="ytick_8">
     <g id="line2d_29">
      <path d="M 57.6 74.736 
L 414.72 74.736 
" clip-path="url(#pa0da5c6936)" style="fill: none; stroke: #b0b0b0; stroke-width: 0.8; stroke-linecap: square"/>
     </g>
     <g id="line2d_30">
      <g>
       <use xlink:href="#mc59f148a79" x="57.6" y="74.736" style="stroke: #000000; stroke-width: 0.8"/>
      </g>
     </g>
     <g id="text_16">
      <!-- 1.0 -->
      <g transform="translate(34.696875 78.535219)scale(0.1 -0.1)">
       <use xlink:href="#DejaVuSans-31"/>
       <use xlink:href="#DejaVuSans-2e" x="63.623047"/>
       <use xlink:href="#DejaVuSans-30" x="95.410156"/>
      </g>
     </g>
    </g>
    <g id="ytick_9">
     <g id="line2d_31">
      <path d="M 57.6 41.472 
L 414.72 41.472 
" clip-path="url(#pa0da5c6936)" style="fill: none; stroke: #b0b0b0; stroke-width: 0.8; stroke-linecap: square"/>
     </g>
     <g id="line2d_32">
      <g>
       <use xlink:href="#mc59f148a79" x="57.6" y="41.472" style="stroke: #000000; stroke-width: 0.8"/>
      </g>
     </g>
     <g id="text_17">
      <!-- 1.1 -->
      <g transform="translate(34.696875 45.271219)scale(0.1 -0.1)">
       <use xlink:href="#DejaVuSans-31"/>
       <use xlink:href="#DejaVuSans-2e" x="63.623047"/>
       <use xlink:href="#DejaVuSans-31" x="95.410156"/>
      </g>
     </g>
    </g>
    <g id="text_18">
     <!-- f(x) -->
     <g transform="translate(28.617188 183.149094)rotate(-90)scale(0.1 -0.1)">
      <defs>
       <path id="DejaVuSans-66" d="M 2375 4863 
L 2375 4384 
L 1825 4384 
Q 1516 4384 1395 4259 
Q 1275 4134 1275 3809 
L 1275 3500 
L 2222 3500 
L 2222 3053 
L 1275 3053 
L 1275 0 
L 697 0 
L 697 3053 
L 147 3053 
L 147 3500 
L 697 3500 
L 697 3744 
Q 697 4328 969 4595 
Q 1241 4863 1831 4863 
L 2375 4863 
z
" transform="scale(0.015625)"/>
       <path id="DejaVuSans-28" d="M 1984 4856 
Q 1566 4138 1362 3434 
Q 1159 2731 1159 2009 
Q 1159 1288 1364 580 
Q 1569 -128 1984 -844 
L 1484 -844 
Q 1016 -109 783 600 
Q 550 1309 550 2009 
Q 550 2706 781 3412 
Q 1013 4119 1484 4856 
L 1984 4856 
z
" transform="scale(0.015625)"/>
       <path id="DejaVuSans-29" d="M 513 4856 
L 1013 4856 
Q 1481 4119 1714 3412 
Q 1947 2706 1947 2009 
Q 1947 1309 1714 600 
Q 1481 -109 1013 -844 
L 513 -844 
Q 928 -128 1133 580 
Q 1338 1288 1338 2009 
Q 1338 2731 1133 3434 
Q 928 4138 513 4856 
z
" transform="scale(0.015625)"/>
      </defs>
      <use xlink:href="#DejaVuSans-66"/>
      <use xlink:href="#DejaVuSans-28" x="35.205078"/>
      <use xlink:href="#DejaVuSans-78" x="74.21875"/>
      <use xlink:href="#DejaVuSans-29" x="133.398438"/>
     </g>
    </g>
   </g>
   <g id="line2d_33">
    <path d="M 73.832727 274.32 
L 77.112066 261.919141 
L 80.391405 248.916311 
L 83.670744 235.337347 
L 86.950083 221.231216 
L 90.229421 206.6756 
L 93.50876 191.782588 
L 96.788099 176.70389 
L 100.067438 161.634671 
L 103.346777 146.814904 
L 106.626116 132.526932 
L 109.905455 119.088 
L 113.184793 106.836923 
L 116.464132 96.114812 
L 119.743471 87.240991 
L 123.02281 80.486557 
L 126.302149 76.049174 
L 129.581488 74.033174 
L 132.860826 74.438557 
L 136.140165 77.160991 
L 139.419504 82.002812 
L 142.698843 88.692923 
L 145.978182 96.912 
L 149.257521 106.318932 
L 152.53686 116.574904 
L 155.816198 127.362671 
L 159.095537 138.39989 
L 162.374876 149.446588 
L 165.654215 160.3076 
L 168.933554 170.831216 
L 172.212893 180.905347 
L 175.492231 190.452311 
L 178.77157 199.423141 
L 182.050909 207.792 
L 185.330248 215.551073 
L 188.609587 222.706135 
L 191.888926 229.272828 
L 195.168264 235.273646 
L 198.447603 240.735553 
L 201.726942 245.688139 
L 205.006281 250.162232 
L 208.28562 254.188883 
L 211.564959 257.798634 
L 214.844298 261.02102 
L 218.123636 263.884235 
L 221.402975 266.414938 
L 224.682314 268.638144 
L 227.961653 270.577198 
L 231.240992 272.253779 
L 234.520331 273.687961 
L 237.799669 274.898272 
L 241.079008 275.901785 
L 244.358347 276.714206 
L 247.637686 277.349968 
L 250.917025 277.822327 
L 254.196364 278.143448 
L 257.475702 278.324497 
L 260.755041 278.375718 
L 264.03438 278.306515 
L 267.313719 278.125521 
L 270.593058 277.840665 
L 273.872397 277.459232 
L 277.151736 276.987919 
L 280.431074 276.432887 
L 283.710413 275.799809 
L 286.989752 275.093907 
L 290.269091 274.32 
L 293.54843 273.48253 
L 296.827769 272.585599 
L 300.107107 271.632999 
L 303.386446 270.628234 
L 306.665785 269.574551 
L 309.945124 268.474953 
L 313.224463 267.332228 
L 316.503802 266.148961 
L 319.78314 264.927552 
L 323.062479 263.670232 
L 326.341818 262.379077 
L 329.621157 261.056018 
L 332.900496 259.702854 
L 336.179835 258.321264 
L 339.459174 256.912812 
L 342.738512 255.478961 
L 346.017851 254.021077 
L 349.29719 252.540436 
L 352.576529 251.038235 
L 355.855868 249.515594 
L 359.135207 247.973562 
L 362.414545 246.413124 
L 365.693884 244.835202 
L 368.973223 243.240666 
L 372.252562 241.630331 
L 375.531901 240.004963 
L 378.81124 238.365284 
L 382.090579 236.711975 
L 385.369917 235.045676 
L 388.649256 233.36699 
L 391.928595 231.676487 
L 395.207934 229.974706 
L 398.487273 228.262154 
" clip-path="url(#pa0da5c6936)" style="fill: none; stroke: #808080; stroke-opacity: 0.5; stroke-width: 3; stroke-linecap: square"/>
   </g>
   <g id="line2d_34">
    <path d="M 73.832727 214.4448 
L 77.112066 215.6544 
L 80.391405 216.864 
L 83.670744 218.0736 
L 86.950083 219.2832 
L 90.229421 220.4928 
L 93.50876 221.7024 
L 96.788099 222.912 
L 100.067438 224.1216 
L 103.346777 225.3312 
L 106.626116 226.5408 
L 109.905455 227.7504 
L 113.184793 228.96 
L 116.464132 230.1696 
L 119.743471 231.3792 
L 123.02281 232.5888 
L 126.302149 233.7984 
L 129.581488 235.008 
L 132.860826 236.2176 
L 136.140165 237.4272 
L 139.419504 238.6368 
L 142.698843 239.8464 
L 145.978182 241.056 
L 149.257521 242.2656 
L 152.53686 243.4752 
L 155.816198 244.6848 
L 159.095537 245.8944 
L 162.374876 247.104 
L 165.654215 248.3136 
L 168.933554 249.5232 
L 172.212893 250.7328 
L 175.492231 251.9424 
L 178.77157 253.152 
L 182.050909 254.3616 
L 185.330248 255.5712 
L 188.609587 256.7808 
L 191.888926 257.9904 
L 195.168264 259.2 
L 198.447603 260.4096 
L 201.726942 261.6192 
L 205.006281 262.8288 
L 208.28562 264.0384 
L 211.564959 265.248 
L 214.844298 266.4576 
L 218.123636 267.6672 
L 221.402975 268.8768 
L 224.682314 270.0864 
L 227.961653 271.296 
L 231.240992 272.5056 
L 234.520331 273.7152 
L 237.799669 274.9248 
L 241.079008 276.1344 
L 244.358347 277.344 
L 247.637686 278.5536 
L 250.917025 279.7632 
L 254.196364 280.9728 
L 257.475702 282.1824 
L 260.755041 283.392 
L 264.03438 284.6016 
L 267.313719 285.8112 
L 270.593058 287.0208 
L 273.872397 288.2304 
L 277.151736 289.44 
L 280.431074 290.6496 
L 283.710413 291.8592 
L 286.989752 293.0688 
L 290.269091 294.2784 
L 293.54843 295.488 
L 296.827769 296.6976 
L 300.107107 297.9072 
L 303.386446 299.1168 
L 306.665785 300.3264 
L 309.945124 301.536 
L 313.224463 302.7456 
L 316.503802 303.9552 
L 319.78314 305.1648 
L 323.062479 306.3744 
L 326.341818 307.584 
L 329.621157 308.7936 
L 332.900496 310.0032 
L 336.179835 311.2128 
L 339.459174 312.4224 
L 342.738512 313.632 
L 346.017851 314.8416 
L 349.29719 316.0512 
L 352.576529 317.2608 
L 355.855868 318.4704 
L 359.135207 319.68 
L 362.414545 320.8896 
L 365.693884 322.0992 
L 368.973223 323.3088 
L 372.252562 324.5184 
L 375.531901 325.728 
L 378.81124 326.9376 
L 382.090579 328.1472 
L 385.369917 329.3568 
L 388.649256 330.5664 
L 391.928595 331.776 
L 395.207934 332.9856 
L 398.487273 334.1952 
" clip-path="url(#pa0da5c6936)" style="fill: none; stroke: #1f77b4; stroke-width: 1.5; stroke-linecap: square"/>
   </g>
   <g id="line2d_35">
    <path d="M 73.832727 174.528 
L 77.112066 176.544 
L 80.391405 178.56 
L 83.670744 180.576 
L 86.950083 182.592 
L 90.229421 184.608 
L 93.50876 186.624 
L 96.788099 188.64 
L 100.067438 190.656 
L 103.346777 192.672 
L 106.626116 194.688 
L 109.905455 196.704 
L 113.184793 198.72 
L 116.464132 200.736 
L 119.743471 202.752 
L 123.02281 204.768 
L 126.302149 206.784 
L 129.581488 208.8 
L 132.860826 210.816 
L 136.140165 212.832 
L 139.419504 214.848 
L 142.698843 216.864 
L 145.978182 218.88 
L 149.257521 220.896 
L 152.53686 222.912 
L 155.816198 224.928 
L 159.095537 226.944 
L 162.374876 228.96 
L 165.654215 230.976 
L 168.933554 232.992 
L 172.212893 235.008 
L 175.492231 237.024 
L 178.77157 239.04 
L 182.050909 241.056 
L 185.330248 243.072 
L 188.609587 245.088 
L 191.888926 247.104 
L 195.168264 249.12 
L 198.447603 251.136 
L 201.726942 253.152 
L 205.006281 255.168 
L 208.28562 257.184 
L 211.564959 259.2 
L 214.844298 261.216 
L 218.123636 263.232 
L 221.402975 265.248 
L 224.682314 267.264 
L 227.961653 269.28 
L 231.240992 271.296 
L 234.520331 273.312 
L 237.799669 275.328 
L 241.079008 277.344 
L 244.358347 279.36 
L 247.637686 281.376 
L 250.917025 283.392 
L 254.196364 285.408 
L 257.475702 287.424 
L 260.755041 289.44 
L 264.03438 291.456 
L 267.313719 293.472 
L 270.593058 295.488 
L 273.872397 297.504 
L 277.151736 299.52 
L 280.431074 301.536 
L 283.710413 303.552 
L 286.989752 305.568 
L 290.269091 307.584 
L 293.54843 309.6 
L 296.827769 311.616 
L 300.107107 313.632 
L 303.386446 315.648 
L 306.665785 317.664 
L 309.945124 319.68 
L 313.224463 321.696 
L 316.503802 323.712 
L 319.78314 325.728 
L 323.062479 327.744 
L 326.341818 329.76 
L 329.621157 331.776 
L 332.900496 333.792 
L 336.179835 335.808 
L 339.459174 337.824 
L 342.738512 339.84 
L 346.017851 341.856 
L 349.29719 343.872 
L 352.576529 345.888 
L 353.734708 346.6 
" clip-path="url(#pa0da5c6936)" style="fill: none; stroke: #d62728; stroke-width: 1.5; stroke-linecap: square"/>
   </g>
   <g id="line2d_36">
    <path d="M 73.832727 141.264 
L 77.112066 143.28 
L 80.391405 145.296 
L 83.670744 147.312 
L 86.950083 149.328 
L 90.229421 151.344 
L 93.50876 153.36 
L 96.788099 155.376 
L 100.067438 157.392 
L 103.346777 159.408 
L 106.626116 161.424 
L 109.905455 163.44 
L 113.184793 165.456 
L 116.464132 167.472 
L 119.743471 169.488 
L 123.02281 171.504 
L 126.302149 173.52 
L 129.581488 175.536 
L 132.860826 177.552 
L 136.140165 179.568 
L 139.419504 181.584 
L 142.698843 183.6 
L 145.978182 185.616 
L 149.257521 187.632 
L 152.53686 189.648 
L 155.816198 191.664 
L 159.095537 193.68 
L 162.374876 195.696 
L 165.654215 197.712 
L 168.933554 199.728 
L 172.212893 201.744 
L 175.492231 203.76 
L 178.77157 205.776 
L 182.050909 207.792 
L 185.330248 209.808 
L 188.609587 211.824 
L 191.888926 213.84 
L 195.168264 215.856 
L 198.447603 217.872 
L 201.726942 219.888 
L 205.006281 221.904 
L 208.28562 223.92 
L 211.564959 225.936 
L 214.844298 227.952 
L 218.123636 229.968 
L 221.402975 231.984 
L 224.682314 234 
L 227.961653 236.016 
L 231.240992 238.032 
L 234.520331 240.048 
L 237.799669 242.064 
L 241.079008 244.08 
L 244.358347 246.096 
L 247.637686 248.112 
L 250.917025 250.128 
L 254.196364 252.144 
L 257.475702 254.16 
L 260.755041 256.176 
L 264.03438 258.192 
L 267.313719 260.208 
L 270.593058 262.224 
L 273.872397 264.24 
L 277.151736 266.256 
L 280.431074 268.272 
L 283.710413 270.288 
L 286.989752 272.304 
L 290.269091 274.32 
L 293.54843 276.336 
L 296.827769 278.352 
L 300.107107 280.368 
L 303.386446 282.384 
L 306.665785 284.4 
L 309.945124 286.416 
L 313.224463 288.432 
L 316.503802 290.448 
L 319.78314 292.464 
L 323.062479 294.48 
L 326.341818 296.496 
L 329.621157 298.512 
L 332.900496 300.528 
L 336.179835 302.544 
L 339.459174 304.56 
L 342.738512 306.576 
L 346.017851 308.592 
L 349.29719 310.608 
L 352.576529 312.624 
L 355.855868 314.64 
L 359.135207 316.656 
L 362.414545 318.672 
L 365.693884 320.688 
L 368.973223 322.704 
L 372.252562 324.72 
L 375.531901 326.736 
L 378.81124 328.752 
L 382.090579 330.768 
L 385.369917 332.784 
L 388.649256 334.8 
L 391.928595 336.816 
L 395.207934 338.832 
L 398.487273 340.848 
" clip-path="url(#pa0da5c6936)" style="fill: none; stroke: #d62728; stroke-opacity: 0.3; stroke-width: 1.5; stroke-linecap: square"/>
   </g>
   <g id="patch_3">
    <path d="M 57.6 307.584 
L 57.6 41.472 
" style="fill: none; stroke: #000000; stroke-width: 0.8; stroke-linejoin: miter; stroke-linecap: square"/>
   </g>
   <g id="patch_4">
    <path d="M 414.72 307.584 
L 414.72 41.472 
" style="fill: none; stroke: #000000; stroke-width: 0.8; stroke-linejoin: miter; stroke-linecap: square"/>
   </g>
   <g id="patch_5">
    <path d="M 57.6 307.584 
L 414.72 307.584 
" style="fill: none; stroke: #000000; stroke-width: 0.8; stroke-linejoin: miter; stroke-linecap: square"/>
   </g>
   <g id="patch_6">
    <path d="M 57.6 41.472 
L 414.72 41.472 
" style="fill: none; stroke: #000000; stroke-width: 0.8; stroke-linejoin: miter; stroke-linecap: square"/>
   </g>
   <g id="PathCollection_1">
    <defs>
     <path id="m3939b60f26" d="M 0 3 
C 0.795609 3 1.55874 2.683901 2.12132 2.12132 
C 2.683901 1.55874 3 0.795609 3 0 
C 3 -0.795609 2.683901 -1.55874 2.12132 -2.12132 
C 1.55874 -2.683901 0.795609 -3 0 -3 
C -0.795609 -3 -1.55874 -2.683901 -2.12132 -2.12132 
C -2.683901 -1.55874 -3 -0.795609 -3 0 
C -3 0.795609 -2.683901 1.55874 -2.12132 2.12132 
C -1.55874 2.683901 -0.795609 3 0 3 
z
" style="stroke: #808080"/>
    </defs>
    <g clip-path="url(#pa0da5c6936)">
     <use xlink:href="#m3939b60f26" x="182.050909" y="207.792" style="fill: #808080; stroke: #808080"/>
     <use xlink:href="#m3939b60f26" x="236.16" y="274.32" style="fill: #808080; stroke: #808080"/>
     <use xlink:href="#m3939b60f26" x="290.269091" y="274.32" style="fill: #808080; stroke: #808080"/>
    </g>
   </g>
   <g id="PathCollection_2">
    <defs>
     <path id="m1708ad806e" d="M 0 3 
C 0.795609 3 1.55874 2.683901 2.12132 2.12132 
C 2.683901 1.55874 3 0.795609 3 0 
C 3 -0.795609 2.683901 -1.55874 2.12132 -2.12132 
C 1.55874 -2.683901 0.795609 -3 0 -3 
C -0.795609 -3 -1.55874 -2.683901 -2.12132 -2.12132 
C -2.683901 -1.55874 -3 -0.795609 -3 0 
C -3 0.795609 -2.683901 1.55874 -2.12132 2.12132 
C -1.55874 2.683901 -0.795609 3 0 3 
z
" style="stroke: #b22222"/>
    </defs>
    <g clip-path="url(#pa0da5c6936)">
     <use xlink:href="#m1708ad806e" x="236.16" y="274.32" style="fill: #b22222; stroke: #b22222"/>
    </g>
   </g>
   <g id="legend_1">
    <g id="patch_7">
     <path d="M 259.42 93.506375 
L 407.72 93.506375 
Q 409.72 93.506375 409.72 91.506375 
L 409.72 48.472 
Q 409.72 46.472 407.72 46.472 
L 259.42 46.472 
Q 257.42 46.472 257.42 48.472 
L 257.42 91.506375 
Q 257.42 93.506375 259.42 93.506375 
z
" style="fill: #ffffff; opacity: 0.8; stroke: #cccccc; stroke-linejoin: miter"/>
    </g>
    <g id="line2d_37">
     <path d="M 261.42 54.570438 
L 271.42 54.570438 
L 281.42 54.570438 
" style="fill: none; stroke: #808080; stroke-opacity: 0.5; stroke-width: 3; stroke-linecap: square"/>
    </g>
    <g id="text_19">
     <!-- $\sf f(x)$ -->
     <g transform="translate(289.42 58.070438)scale(0.1 -0.1)">
      <use xlink:href="#DejaVuSans-66" transform="translate(0 0.015625)"/>
      <use xlink:href="#DejaVuSans-28" transform="translate(35.205078 0.015625)"/>
      <use xlink:href="#DejaVuSans-78" transform="translate(74.21875 0.015625)"/>
      <use xlink:href="#DejaVuSans-29" transform="translate(133.398438 0.015625)"/>
     </g>
    </g>
    <g id="line2d_38">
     <path d="M 261.42 69.248563 
L 271.42 69.248563 
L 281.42 69.248563 
" style="fill: none; stroke: #1f77b4; stroke-width: 1.5; stroke-linecap: square"/>
    </g>
    <g id="text_20">
     <!-- exact $\sf f'(x_0)$ -->
     <g transform="translate(289.42 72.748563)scale(0.1 -0.1)">
      <defs>
       <path id="DejaVuSans-65" d="M 3597 1894 
L 3597 1613 
L 953 1613 
Q 991 1019 1311 708 
Q 1631 397 2203 397 
Q 2534 397 2845 478 
Q 3156 559 3463 722 
L 3463 178 
Q 3153 47 2828 -22 
Q 2503 -91 2169 -91 
Q 1331 -91 842 396 
Q 353 884 353 1716 
Q 353 2575 817 3079 
Q 1281 3584 2069 3584 
Q 2775 3584 3186 3129 
Q 3597 2675 3597 1894 
z
M 3022 2063 
Q 3016 2534 2758 2815 
Q 2500 3097 2075 3097 
Q 1594 3097 1305 2825 
Q 1016 2553 972 2059 
L 3022 2063 
z
" transform="scale(0.015625)"/>
       <path id="DejaVuSans-61" d="M 2194 1759 
Q 1497 1759 1228 1600 
Q 959 1441 959 1056 
Q 959 750 1161 570 
Q 1363 391 1709 391 
Q 2188 391 2477 730 
Q 2766 1069 2766 1631 
L 2766 1759 
L 2194 1759 
z
M 3341 1997 
L 3341 0 
L 2766 0 
L 2766 531 
Q 2569 213 2275 61 
Q 1981 -91 1556 -91 
Q 1019 -91 701 211 
Q 384 513 384 1019 
Q 384 1609 779 1909 
Q 1175 2209 1959 2209 
L 2766 2209 
L 2766 2266 
Q 2766 2663 2505 2880 
Q 2244 3097 1772 3097 
Q 1472 3097 1187 3025 
Q 903 2953 641 2809 
L 641 3341 
Q 956 3463 1253 3523 
Q 1550 3584 1831 3584 
Q 2591 3584 2966 3190 
Q 3341 2797 3341 1997 
z
" transform="scale(0.015625)"/>
       <path id="DejaVuSans-63" d="M 3122 3366 
L 3122 2828 
Q 2878 2963 2633 3030 
Q 2388 3097 2138 3097 
Q 1578 3097 1268 2742 
Q 959 2388 959 1747 
Q 959 1106 1268 751 
Q 1578 397 2138 397 
Q 2388 397 2633 464 
Q 2878 531 3122 666 
L 3122 134 
Q 2881 22 2623 -34 
Q 2366 -91 2075 -91 
Q 1284 -91 818 406 
Q 353 903 353 1747 
Q 353 2603 823 3093 
Q 1294 3584 2113 3584 
Q 2378 3584 2631 3529 
Q 2884 3475 3122 3366 
z
" transform="scale(0.015625)"/>
       <path id="DejaVuSans-74" d="M 1172 4494 
L 1172 3500 
L 2356 3500 
L 2356 3053 
L 1172 3053 
L 1172 1153 
Q 1172 725 1289 603 
Q 1406 481 1766 481 
L 2356 481 
L 2356 0 
L 1766 0 
Q 1100 0 847 248 
Q 594 497 594 1153 
L 594 3053 
L 172 3053 
L 172 3500 
L 594 3500 
L 594 4494 
L 1172 4494 
z
" transform="scale(0.015625)"/>
       <path id="DejaVuSans-20" transform="scale(0.015625)"/>
       <path id="Cmsy10-30" d="M 225 347 
Q 184 359 184 409 
L 966 3316 
Q 1003 3434 1093 3506 
Q 1184 3578 1300 3578 
Q 1450 3578 1564 3479 
Q 1678 3381 1678 3231 
Q 1678 3166 1644 3084 
L 488 319 
Q 466 275 428 275 
Q 394 275 320 306 
Q 247 338 225 347 
z
" transform="scale(0.015625)"/>
      </defs>
      <use xlink:href="#DejaVuSans-65" transform="translate(0 0.584375)"/>
      <use xlink:href="#DejaVuSans-78" transform="translate(61.523438 0.584375)"/>
      <use xlink:href="#DejaVuSans-61" transform="translate(120.703125 0.584375)"/>
      <use xlink:href="#DejaVuSans-63" transform="translate(181.982422 0.584375)"/>
      <use xlink:href="#DejaVuSans-74" transform="translate(236.962891 0.584375)"/>
      <use xlink:href="#DejaVuSans-20" transform="translate(276.171875 0.584375)"/>
      <use xlink:href="#DejaVuSans-66" transform="translate(307.958984 0.584375)"/>
      <use xlink:href="#Cmsy10-30" transform="translate(344.121094 38.865625)scale(0.7)"/>
      <use xlink:href="#DejaVuSans-28" transform="translate(366.098633 0.584375)"/>
      <use xlink:href="#DejaVuSans-78" transform="translate(405.112305 0.584375)"/>
      <use xlink:href="#DejaVuSans-30" transform="translate(465.249023 -15.821875)scale(0.7)"/>
      <use xlink:href="#DejaVuSans-29" transform="translate(512.519531 0.584375)"/>
     </g>
    </g>
    <g id="line2d_39">
     <path d="M 261.42 83.926688 
L 271.42 83.926688 
L 281.42 83.926688 
" style="fill: none; stroke: #d62728; stroke-width: 1.5; stroke-linecap: square"/>
    </g>
    <g id="text_21">
     <!-- central difference $\sf f'(x_0)$ -->
     <g transform="translate(289.42 87.426688)scale(0.1 -0.1)">
      <defs>
       <path id="DejaVuSans-6e" d="M 3513 2113 
L 3513 0 
L 2938 0 
L 2938 2094 
Q 2938 2591 2744 2837 
Q 2550 3084 2163 3084 
Q 1697 3084 1428 2787 
Q 1159 2491 1159 1978 
L 1159 0 
L 581 0 
L 581 3500 
L 1159 3500 
L 1159 2956 
Q 1366 3272 1645 3428 
Q 1925 3584 2291 3584 
Q 2894 3584 3203 3211 
Q 3513 2838 3513 2113 
z
" transform="scale(0.015625)"/>
       <path id="DejaVuSans-72" d="M 2631 2963 
Q 2534 3019 2420 3045 
Q 2306 3072 2169 3072 
Q 1681 3072 1420 2755 
Q 1159 2438 1159 1844 
L 1159 0 
L 581 0 
L 581 3500 
L 1159 3500 
L 1159 2956 
Q 1341 3275 1631 3429 
Q 1922 3584 2338 3584 
Q 2397 3584 2469 3576 
Q 2541 3569 2628 3553 
L 2631 2963 
z
" transform="scale(0.015625)"/>
       <path id="DejaVuSans-6c" d="M 603 4863 
L 1178 4863 
L 1178 0 
L 603 0 
L 603 4863 
z
" transform="scale(0.015625)"/>
       <path id="DejaVuSans-64" d="M 2906 2969 
L 2906 4863 
L 3481 4863 
L 3481 0 
L 2906 0 
L 2906 525 
Q 2725 213 2448 61 
Q 2172 -91 1784 -91 
Q 1150 -91 751 415 
Q 353 922 353 1747 
Q 353 2572 751 3078 
Q 1150 3584 1784 3584 
Q 2172 3584 2448 3432 
Q 2725 3281 2906 2969 
z
M 947 1747 
Q 947 1113 1208 752 
Q 1469 391 1925 391 
Q 2381 391 2643 752 
Q 2906 1113 2906 1747 
Q 2906 2381 2643 2742 
Q 2381 3103 1925 3103 
Q 1469 3103 1208 2742 
Q 947 2381 947 1747 
z
" transform="scale(0.015625)"/>
       <path id="DejaVuSans-69" d="M 603 3500 
L 1178 3500 
L 1178 0 
L 603 0 
L 603 3500 
z
M 603 4863 
L 1178 4863 
L 1178 4134 
L 603 4134 
L 603 4863 
z
" transform="scale(0.015625)"/>
      </defs>
      <use xlink:href="#DejaVuSans-63" transform="translate(0 0.584375)"/>
      <use xlink:href="#DejaVuSans-65" transform="translate(54.980469 0.584375)"/>
      <use xlink:href="#DejaVuSans-6e" transform="translate(116.503906 0.584375)"/>
      <use xlink:href="#DejaVuSans-74" transform="translate(179.882812 0.584375)"/>
      <use xlink:href="#DejaVuSans-72" transform="translate(219.091797 0.584375)"/>
      <use xlink:href="#DejaVuSans-61" transform="translate(260.205078 0.584375)"/>
      <use xlink:href="#DejaVuSans-6c" transform="translate(321.484375 0.584375)"/>
      <use xlink:href="#DejaVuSans-20" transform="translate(349.267578 0.584375)"/>
      <use xlink:href="#DejaVuSans-64" transform="translate(381.054688 0.584375)"/>
      <use xlink:href="#DejaVuSans-69" transform="translate(444.53125 0.584375)"/>
      <use xlink:href="#DejaVuSans-66" transform="translate(472.314453 0.584375)"/>
      <use xlink:href="#DejaVuSans-66" transform="translate(507.519531 0.584375)"/>
      <use xlink:href="#DejaVuSans-65" transform="translate(542.724609 0.584375)"/>
      <use xlink:href="#DejaVuSans-72" transform="translate(604.248047 0.584375)"/>
      <use xlink:href="#DejaVuSans-65" transform="translate(645.361328 0.584375)"/>
      <use xlink:href="#DejaVuSans-6e" transform="translate(706.884766 0.584375)"/>
      <use xlink:href="#DejaVuSans-63" transform="translate(770.263672 0.584375)"/>
      <use xlink:href="#DejaVuSans-65" transform="translate(825.244141 0.584375)"/>
      <use xlink:href="#DejaVuSans-20" transform="translate(886.767578 0.584375)"/>
      <use xlink:href="#DejaVuSans-66" transform="translate(918.554688 0.584375)"/>
      <use xlink:href="#Cmsy10-30" transform="translate(954.716797 38.865625)scale(0.7)"/>
      <use xlink:href="#DejaVuSans-28" transform="translate(976.694336 0.584375)"/>
      <use xlink:href="#DejaVuSans-78" transform="translate(1015.708008 0.584375)"/>
      <use xlink:href="#DejaVuSans-30" transform="translate(1075.844727 -15.821875)scale(0.7)"/>
      <use xlink:href="#DejaVuSans-29" transform="translate(1123.115234 0.584375)"/>
     </g>
    </g>
   </g>
  </g>
 </g>
 <defs>
  <clipPath id="pa0da5c6936">
   <rect x="57.6" y="41.472" width="357.12" height="266.112"/>
  </clipPath>
 </defs>
</svg>
