<?xml version="1.0" encoding="utf-8" standalone="no"?>
<!DOCTYPE svg PUBLIC "-//W3C//DTD SVG 1.1//EN"
  "http://www.w3.org/Graphics/SVG/1.1/DTD/svg11.dtd">
<svg xmlns:xlink="http://www.w3.org/1999/xlink" width="400.441563pt" height="266.51625pt" viewBox="0 0 400.441563 266.51625" xmlns="http://www.w3.org/2000/svg" version="1.1">
 <metadata>
  <rdf:RDF xmlns:dc="http://purl.org/dc/elements/1.1/" xmlns:cc="http://creativecommons.org/ns#" xmlns:rdf="http://www.w3.org/1999/02/22-rdf-syntax-ns#">
   <cc:Work>
    <dc:type rdf:resource="http://purl.org/dc/dcmitype/StillImage"/>
    <dc:date>2022-10-27T11:17:28.113886</dc:date>
    <dc:format>image/svg+xml</dc:format>
    <dc:creator>
     <cc:Agent>
      <dc:title>Matplotlib v3.6.0, https://matplotlib.org/</dc:title>
     </cc:Agent>
    </dc:creator>
   </cc:Work>
  </rdf:RDF>
 </metadata>
 <defs>
  <style type="text/css">*{stroke-linejoin: round; stroke-linecap: butt}</style>
 </defs>
 <g id="figure_1">
  <g id="patch_1">
   <path d="M 0 266.51625 
L 400.441563 266.51625 
L 400.441563 0 
L 0 0 
z
" style="fill: #ffffff"/>
  </g>
  <g id="axes_1">
   <g id="patch_2">
    <path d="M 58.441563 228.96 
L 393.241563 228.96 
L 393.241563 7.2 
L 58.441563 7.2 
z
" style="fill: #ffffff"/>
   </g>
   <g id="matplotlib.axis_1">
    <g id="xtick_1">
     <g id="line2d_1">
      <path d="M 73.659744 228.96 
L 73.659744 7.2 
" clip-path="url(#p692c72e7f6)" style="fill: none; stroke: #b0b0b0; stroke-width: 0.8; stroke-linecap: square"/>
     </g>
     <g id="line2d_2">
      <defs>
       <path id="m03a716c336" d="M 0 0 
L 0 3.5 
" style="stroke: #000000; stroke-width: 0.8"/>
      </defs>
      <g>
       <use xlink:href="#m03a716c336" x="73.659744" y="228.96" style="stroke: #000000; stroke-width: 0.8"/>
      </g>
     </g>
     <g id="text_1">
      <!-- 0 -->
      <g transform="translate(70.478494 243.558437) scale(0.1 -0.1)">
       <defs>
        <path id="DejaVuSans-30" d="M 2034 4250 
Q 1547 4250 1301 3770 
Q 1056 3291 1056 2328 
Q 1056 1369 1301 889 
Q 1547 409 2034 409 
Q 2525 409 2770 889 
Q 3016 1369 3016 2328 
Q 3016 3291 2770 3770 
Q 2525 4250 2034 4250 
z
M 2034 4750 
Q 2819 4750 3233 4129 
Q 3647 3509 3647 2328 
Q 3647 1150 3233 529 
Q 2819 -91 2034 -91 
Q 1250 -91 836 529 
Q 422 1150 422 2328 
Q 422 3509 836 4129 
Q 1250 4750 2034 4750 
z
" transform="scale(0.015625)"/>
       </defs>
       <use xlink:href="#DejaVuSans-30"/>
      </g>
     </g>
    </g>
    <g id="xtick_2">
     <g id="line2d_3">
      <path d="M 115.932472 228.96 
L 115.932472 7.2 
" clip-path="url(#p692c72e7f6)" style="fill: none; stroke: #b0b0b0; stroke-width: 0.8; stroke-linecap: square"/>
     </g>
     <g id="line2d_4">
      <g>
       <use xlink:href="#m03a716c336" x="115.932472" y="228.96" style="stroke: #000000; stroke-width: 0.8"/>
      </g>
     </g>
     <g id="text_2">
      <!-- 250 -->
      <g transform="translate(106.388722 243.558437) scale(0.1 -0.1)">
       <defs>
        <path id="DejaVuSans-32" d="M 1228 531 
L 3431 531 
L 3431 0 
L 469 0 
L 469 531 
Q 828 903 1448 1529 
Q 2069 2156 2228 2338 
Q 2531 2678 2651 2914 
Q 2772 3150 2772 3378 
Q 2772 3750 2511 3984 
Q 2250 4219 1831 4219 
Q 1534 4219 1204 4116 
Q 875 4013 500 3803 
L 500 4441 
Q 881 4594 1212 4672 
Q 1544 4750 1819 4750 
Q 2544 4750 2975 4387 
Q 3406 4025 3406 3419 
Q 3406 3131 3298 2873 
Q 3191 2616 2906 2266 
Q 2828 2175 2409 1742 
Q 1991 1309 1228 531 
z
" transform="scale(0.015625)"/>
        <path id="DejaVuSans-35" d="M 691 4666 
L 3169 4666 
L 3169 4134 
L 1269 4134 
L 1269 2991 
Q 1406 3038 1543 3061 
Q 1681 3084 1819 3084 
Q 2600 3084 3056 2656 
Q 3513 2228 3513 1497 
Q 3513 744 3044 326 
Q 2575 -91 1722 -91 
Q 1428 -91 1123 -41 
Q 819 9 494 109 
L 494 744 
Q 775 591 1075 516 
Q 1375 441 1709 441 
Q 2250 441 2565 725 
Q 2881 1009 2881 1497 
Q 2881 1984 2565 2268 
Q 2250 2553 1709 2553 
Q 1456 2553 1204 2497 
Q 953 2441 691 2322 
L 691 4666 
z
" transform="scale(0.015625)"/>
       </defs>
       <use xlink:href="#DejaVuSans-32"/>
       <use xlink:href="#DejaVuSans-35" x="63.623047"/>
       <use xlink:href="#DejaVuSans-30" x="127.246094"/>
      </g>
     </g>
    </g>
    <g id="xtick_3">
     <g id="line2d_5">
      <path d="M 158.205199 228.96 
L 158.205199 7.2 
" clip-path="url(#p692c72e7f6)" style="fill: none; stroke: #b0b0b0; stroke-width: 0.8; stroke-linecap: square"/>
     </g>
     <g id="line2d_6">
      <g>
       <use xlink:href="#m03a716c336" x="158.205199" y="228.96" style="stroke: #000000; stroke-width: 0.8"/>
      </g>
     </g>
     <g id="text_3">
      <!-- 500 -->
      <g transform="translate(148.661449 243.558437) scale(0.1 -0.1)">
       <use xlink:href="#DejaVuSans-35"/>
       <use xlink:href="#DejaVuSans-30" x="63.623047"/>
       <use xlink:href="#DejaVuSans-30" x="127.246094"/>
      </g>
     </g>
    </g>
    <g id="xtick_4">
     <g id="line2d_7">
      <path d="M 200.477926 228.96 
L 200.477926 7.2 
" clip-path="url(#p692c72e7f6)" style="fill: none; stroke: #b0b0b0; stroke-width: 0.8; stroke-linecap: square"/>
     </g>
     <g id="line2d_8">
      <g>
       <use xlink:href="#m03a716c336" x="200.477926" y="228.96" style="stroke: #000000; stroke-width: 0.8"/>
      </g>
     </g>
     <g id="text_4">
      <!-- 750 -->
      <g transform="translate(190.934176 243.558437) scale(0.1 -0.1)">
       <defs>
        <path id="DejaVuSans-37" d="M 525 4666 
L 3525 4666 
L 3525 4397 
L 1831 0 
L 1172 0 
L 2766 4134 
L 525 4134 
L 525 4666 
z
" transform="scale(0.015625)"/>
       </defs>
       <use xlink:href="#DejaVuSans-37"/>
       <use xlink:href="#DejaVuSans-35" x="63.623047"/>
       <use xlink:href="#DejaVuSans-30" x="127.246094"/>
      </g>
     </g>
    </g>
    <g id="xtick_5">
     <g id="line2d_9">
      <path d="M 242.750653 228.96 
L 242.750653 7.2 
" clip-path="url(#p692c72e7f6)" style="fill: none; stroke: #b0b0b0; stroke-width: 0.8; stroke-linecap: square"/>
     </g>
     <g id="line2d_10">
      <g>
       <use xlink:href="#m03a716c336" x="242.750653" y="228.96" style="stroke: #000000; stroke-width: 0.8"/>
      </g>
     </g>
     <g id="text_5">
      <!-- 1000 -->
      <g transform="translate(230.025653 243.558437) scale(0.1 -0.1)">
       <defs>
        <path id="DejaVuSans-31" d="M 794 531 
L 1825 531 
L 1825 4091 
L 703 3866 
L 703 4441 
L 1819 4666 
L 2450 4666 
L 2450 531 
L 3481 531 
L 3481 0 
L 794 0 
L 794 531 
z
" transform="scale(0.015625)"/>
       </defs>
       <use xlink:href="#DejaVuSans-31"/>
       <use xlink:href="#DejaVuSans-30" x="63.623047"/>
       <use xlink:href="#DejaVuSans-30" x="127.246094"/>
       <use xlink:href="#DejaVuSans-30" x="190.869141"/>
      </g>
     </g>
    </g>
    <g id="xtick_6">
     <g id="line2d_11">
      <path d="M 285.023381 228.96 
L 285.023381 7.2 
" clip-path="url(#p692c72e7f6)" style="fill: none; stroke: #b0b0b0; stroke-width: 0.8; stroke-linecap: square"/>
     </g>
     <g id="line2d_12">
      <g>
       <use xlink:href="#m03a716c336" x="285.023381" y="228.96" style="stroke: #000000; stroke-width: 0.8"/>
      </g>
     </g>
     <g id="text_6">
      <!-- 1250 -->
      <g transform="translate(272.298381 243.558437) scale(0.1 -0.1)">
       <use xlink:href="#DejaVuSans-31"/>
       <use xlink:href="#DejaVuSans-32" x="63.623047"/>
       <use xlink:href="#DejaVuSans-35" x="127.246094"/>
       <use xlink:href="#DejaVuSans-30" x="190.869141"/>
      </g>
     </g>
    </g>
    <g id="xtick_7">
     <g id="line2d_13">
      <path d="M 327.296108 228.96 
L 327.296108 7.2 
" clip-path="url(#p692c72e7f6)" style="fill: none; stroke: #b0b0b0; stroke-width: 0.8; stroke-linecap: square"/>
     </g>
     <g id="line2d_14">
      <g>
       <use xlink:href="#m03a716c336" x="327.296108" y="228.96" style="stroke: #000000; stroke-width: 0.8"/>
      </g>
     </g>
     <g id="text_7">
      <!-- 1500 -->
      <g transform="translate(314.571108 243.558437) scale(0.1 -0.1)">
       <use xlink:href="#DejaVuSans-31"/>
       <use xlink:href="#DejaVuSans-35" x="63.623047"/>
       <use xlink:href="#DejaVuSans-30" x="127.246094"/>
       <use xlink:href="#DejaVuSans-30" x="190.869141"/>
      </g>
     </g>
    </g>
    <g id="xtick_8">
     <g id="line2d_15">
      <path d="M 369.568835 228.96 
L 369.568835 7.2 
" clip-path="url(#p692c72e7f6)" style="fill: none; stroke: #b0b0b0; stroke-width: 0.8; stroke-linecap: square"/>
     </g>
     <g id="line2d_16">
      <g>
       <use xlink:href="#m03a716c336" x="369.568835" y="228.96" style="stroke: #000000; stroke-width: 0.8"/>
      </g>
     </g>
     <g id="text_8">
      <!-- 1750 -->
      <g transform="translate(356.843835 243.558437) scale(0.1 -0.1)">
       <use xlink:href="#DejaVuSans-31"/>
       <use xlink:href="#DejaVuSans-37" x="63.623047"/>
       <use xlink:href="#DejaVuSans-35" x="127.246094"/>
       <use xlink:href="#DejaVuSans-30" x="190.869141"/>
      </g>
     </g>
    </g>
    <g id="text_9">
     <!-- time / s -->
     <g transform="translate(207.078281 257.236562) scale(0.1 -0.1)">
      <defs>
       <path id="DejaVuSans-74" d="M 1172 4494 
L 1172 3500 
L 2356 3500 
L 2356 3053 
L 1172 3053 
L 1172 1153 
Q 1172 725 1289 603 
Q 1406 481 1766 481 
L 2356 481 
L 2356 0 
L 1766 0 
Q 1100 0 847 248 
Q 594 497 594 1153 
L 594 3053 
L 172 3053 
L 172 3500 
L 594 3500 
L 594 4494 
L 1172 4494 
z
" transform="scale(0.015625)"/>
       <path id="DejaVuSans-69" d="M 603 3500 
L 1178 3500 
L 1178 0 
L 603 0 
L 603 3500 
z
M 603 4863 
L 1178 4863 
L 1178 4134 
L 603 4134 
L 603 4863 
z
" transform="scale(0.015625)"/>
       <path id="DejaVuSans-6d" d="M 3328 2828 
Q 3544 3216 3844 3400 
Q 4144 3584 4550 3584 
Q 5097 3584 5394 3201 
Q 5691 2819 5691 2113 
L 5691 0 
L 5113 0 
L 5113 2094 
Q 5113 2597 4934 2840 
Q 4756 3084 4391 3084 
Q 3944 3084 3684 2787 
Q 3425 2491 3425 1978 
L 3425 0 
L 2847 0 
L 2847 2094 
Q 2847 2600 2669 2842 
Q 2491 3084 2119 3084 
Q 1678 3084 1418 2786 
Q 1159 2488 1159 1978 
L 1159 0 
L 581 0 
L 581 3500 
L 1159 3500 
L 1159 2956 
Q 1356 3278 1631 3431 
Q 1906 3584 2284 3584 
Q 2666 3584 2933 3390 
Q 3200 3197 3328 2828 
z
" transform="scale(0.015625)"/>
       <path id="DejaVuSans-65" d="M 3597 1894 
L 3597 1613 
L 953 1613 
Q 991 1019 1311 708 
Q 1631 397 2203 397 
Q 2534 397 2845 478 
Q 3156 559 3463 722 
L 3463 178 
Q 3153 47 2828 -22 
Q 2503 -91 2169 -91 
Q 1331 -91 842 396 
Q 353 884 353 1716 
Q 353 2575 817 3079 
Q 1281 3584 2069 3584 
Q 2775 3584 3186 3129 
Q 3597 2675 3597 1894 
z
M 3022 2063 
Q 3016 2534 2758 2815 
Q 2500 3097 2075 3097 
Q 1594 3097 1305 2825 
Q 1016 2553 972 2059 
L 3022 2063 
z
" transform="scale(0.015625)"/>
       <path id="DejaVuSans-20" transform="scale(0.015625)"/>
       <path id="DejaVuSans-2f" d="M 1625 4666 
L 2156 4666 
L 531 -594 
L 0 -594 
L 1625 4666 
z
" transform="scale(0.015625)"/>
       <path id="DejaVuSans-73" d="M 2834 3397 
L 2834 2853 
Q 2591 2978 2328 3040 
Q 2066 3103 1784 3103 
Q 1356 3103 1142 2972 
Q 928 2841 928 2578 
Q 928 2378 1081 2264 
Q 1234 2150 1697 2047 
L 1894 2003 
Q 2506 1872 2764 1633 
Q 3022 1394 3022 966 
Q 3022 478 2636 193 
Q 2250 -91 1575 -91 
Q 1294 -91 989 -36 
Q 684 19 347 128 
L 347 722 
Q 666 556 975 473 
Q 1284 391 1588 391 
Q 1994 391 2212 530 
Q 2431 669 2431 922 
Q 2431 1156 2273 1281 
Q 2116 1406 1581 1522 
L 1381 1569 
Q 847 1681 609 1914 
Q 372 2147 372 2553 
Q 372 3047 722 3315 
Q 1072 3584 1716 3584 
Q 2034 3584 2315 3537 
Q 2597 3491 2834 3397 
z
" transform="scale(0.015625)"/>
      </defs>
      <use xlink:href="#DejaVuSans-74"/>
      <use xlink:href="#DejaVuSans-69" x="39.208984"/>
      <use xlink:href="#DejaVuSans-6d" x="66.992188"/>
      <use xlink:href="#DejaVuSans-65" x="164.404297"/>
      <use xlink:href="#DejaVuSans-20" x="225.927734"/>
      <use xlink:href="#DejaVuSans-2f" x="257.714844"/>
      <use xlink:href="#DejaVuSans-20" x="291.40625"/>
      <use xlink:href="#DejaVuSans-73" x="323.193359"/>
     </g>
    </g>
   </g>
   <g id="matplotlib.axis_2">
    <g id="ytick_1">
     <g id="line2d_17">
      <path d="M 58.441563 218.88 
L 393.241563 218.88 
" clip-path="url(#p692c72e7f6)" style="fill: none; stroke: #b0b0b0; stroke-width: 0.8; stroke-linecap: square"/>
     </g>
     <g id="line2d_18">
      <defs>
       <path id="m107752bdb9" d="M 0 0 
L -3.5 0 
" style="stroke: #000000; stroke-width: 0.8"/>
      </defs>
      <g>
       <use xlink:href="#m107752bdb9" x="58.441563" y="218.88" style="stroke: #000000; stroke-width: 0.8"/>
      </g>
     </g>
     <g id="text_10">
      <!-- 20 -->
      <g transform="translate(38.716563 222.679219) scale(0.1 -0.1)">
       <use xlink:href="#DejaVuSans-32"/>
       <use xlink:href="#DejaVuSans-30" x="63.623047"/>
      </g>
     </g>
    </g>
    <g id="ytick_2">
     <g id="line2d_19">
      <path d="M 58.441563 186.018187 
L 393.241563 186.018187 
" clip-path="url(#p692c72e7f6)" style="fill: none; stroke: #b0b0b0; stroke-width: 0.8; stroke-linecap: square"/>
     </g>
     <g id="line2d_20">
      <g>
       <use xlink:href="#m107752bdb9" x="58.441563" y="186.018187" style="stroke: #000000; stroke-width: 0.8"/>
      </g>
     </g>
     <g id="text_11">
      <!-- 40 -->
      <g transform="translate(38.716563 189.817405) scale(0.1 -0.1)">
       <defs>
        <path id="DejaVuSans-34" d="M 2419 4116 
L 825 1625 
L 2419 1625 
L 2419 4116 
z
M 2253 4666 
L 3047 4666 
L 3047 1625 
L 3713 1625 
L 3713 1100 
L 3047 1100 
L 3047 0 
L 2419 0 
L 2419 1100 
L 313 1100 
L 313 1709 
L 2253 4666 
z
" transform="scale(0.015625)"/>
       </defs>
       <use xlink:href="#DejaVuSans-34"/>
       <use xlink:href="#DejaVuSans-30" x="63.623047"/>
      </g>
     </g>
    </g>
    <g id="ytick_3">
     <g id="line2d_21">
      <path d="M 58.441563 153.156373 
L 393.241563 153.156373 
" clip-path="url(#p692c72e7f6)" style="fill: none; stroke: #b0b0b0; stroke-width: 0.8; stroke-linecap: square"/>
     </g>
     <g id="line2d_22">
      <g>
       <use xlink:href="#m107752bdb9" x="58.441563" y="153.156373" style="stroke: #000000; stroke-width: 0.8"/>
      </g>
     </g>
     <g id="text_12">
      <!-- 60 -->
      <g transform="translate(38.716563 156.955592) scale(0.1 -0.1)">
       <defs>
        <path id="DejaVuSans-36" d="M 2113 2584 
Q 1688 2584 1439 2293 
Q 1191 2003 1191 1497 
Q 1191 994 1439 701 
Q 1688 409 2113 409 
Q 2538 409 2786 701 
Q 3034 994 3034 1497 
Q 3034 2003 2786 2293 
Q 2538 2584 2113 2584 
z
M 3366 4563 
L 3366 3988 
Q 3128 4100 2886 4159 
Q 2644 4219 2406 4219 
Q 1781 4219 1451 3797 
Q 1122 3375 1075 2522 
Q 1259 2794 1537 2939 
Q 1816 3084 2150 3084 
Q 2853 3084 3261 2657 
Q 3669 2231 3669 1497 
Q 3669 778 3244 343 
Q 2819 -91 2113 -91 
Q 1303 -91 875 529 
Q 447 1150 447 2328 
Q 447 3434 972 4092 
Q 1497 4750 2381 4750 
Q 2619 4750 2861 4703 
Q 3103 4656 3366 4563 
z
" transform="scale(0.015625)"/>
       </defs>
       <use xlink:href="#DejaVuSans-36"/>
       <use xlink:href="#DejaVuSans-30" x="63.623047"/>
      </g>
     </g>
    </g>
    <g id="ytick_4">
     <g id="line2d_23">
      <path d="M 58.441563 120.29456 
L 393.241563 120.29456 
" clip-path="url(#p692c72e7f6)" style="fill: none; stroke: #b0b0b0; stroke-width: 0.8; stroke-linecap: square"/>
     </g>
     <g id="line2d_24">
      <g>
       <use xlink:href="#m107752bdb9" x="58.441563" y="120.29456" style="stroke: #000000; stroke-width: 0.8"/>
      </g>
     </g>
     <g id="text_13">
      <!-- 80 -->
      <g transform="translate(38.716563 124.093778) scale(0.1 -0.1)">
       <defs>
        <path id="DejaVuSans-38" d="M 2034 2216 
Q 1584 2216 1326 1975 
Q 1069 1734 1069 1313 
Q 1069 891 1326 650 
Q 1584 409 2034 409 
Q 2484 409 2743 651 
Q 3003 894 3003 1313 
Q 3003 1734 2745 1975 
Q 2488 2216 2034 2216 
z
M 1403 2484 
Q 997 2584 770 2862 
Q 544 3141 544 3541 
Q 544 4100 942 4425 
Q 1341 4750 2034 4750 
Q 2731 4750 3128 4425 
Q 3525 4100 3525 3541 
Q 3525 3141 3298 2862 
Q 3072 2584 2669 2484 
Q 3125 2378 3379 2068 
Q 3634 1759 3634 1313 
Q 3634 634 3220 271 
Q 2806 -91 2034 -91 
Q 1263 -91 848 271 
Q 434 634 434 1313 
Q 434 1759 690 2068 
Q 947 2378 1403 2484 
z
M 1172 3481 
Q 1172 3119 1398 2916 
Q 1625 2713 2034 2713 
Q 2441 2713 2670 2916 
Q 2900 3119 2900 3481 
Q 2900 3844 2670 4047 
Q 2441 4250 2034 4250 
Q 1625 4250 1398 4047 
Q 1172 3844 1172 3481 
z
" transform="scale(0.015625)"/>
       </defs>
       <use xlink:href="#DejaVuSans-38"/>
       <use xlink:href="#DejaVuSans-30" x="63.623047"/>
      </g>
     </g>
    </g>
    <g id="ytick_5">
     <g id="line2d_25">
      <path d="M 58.441563 87.432746 
L 393.241563 87.432746 
" clip-path="url(#p692c72e7f6)" style="fill: none; stroke: #b0b0b0; stroke-width: 0.8; stroke-linecap: square"/>
     </g>
     <g id="line2d_26">
      <g>
       <use xlink:href="#m107752bdb9" x="58.441563" y="87.432746" style="stroke: #000000; stroke-width: 0.8"/>
      </g>
     </g>
     <g id="text_14">
      <!-- 100 -->
      <g transform="translate(32.354063 91.231965) scale(0.1 -0.1)">
       <use xlink:href="#DejaVuSans-31"/>
       <use xlink:href="#DejaVuSans-30" x="63.623047"/>
       <use xlink:href="#DejaVuSans-30" x="127.246094"/>
      </g>
     </g>
    </g>
    <g id="ytick_6">
     <g id="line2d_27">
      <path d="M 58.441563 54.570933 
L 393.241563 54.570933 
" clip-path="url(#p692c72e7f6)" style="fill: none; stroke: #b0b0b0; stroke-width: 0.8; stroke-linecap: square"/>
     </g>
     <g id="line2d_28">
      <g>
       <use xlink:href="#m107752bdb9" x="58.441563" y="54.570933" style="stroke: #000000; stroke-width: 0.8"/>
      </g>
     </g>
     <g id="text_15">
      <!-- 120 -->
      <g transform="translate(32.354063 58.370151) scale(0.1 -0.1)">
       <use xlink:href="#DejaVuSans-31"/>
       <use xlink:href="#DejaVuSans-32" x="63.623047"/>
       <use xlink:href="#DejaVuSans-30" x="127.246094"/>
      </g>
     </g>
    </g>
    <g id="ytick_7">
     <g id="line2d_29">
      <path d="M 58.441563 21.709119 
L 393.241563 21.709119 
" clip-path="url(#p692c72e7f6)" style="fill: none; stroke: #b0b0b0; stroke-width: 0.8; stroke-linecap: square"/>
     </g>
     <g id="line2d_30">
      <g>
       <use xlink:href="#m107752bdb9" x="58.441563" y="21.709119" style="stroke: #000000; stroke-width: 0.8"/>
      </g>
     </g>
     <g id="text_16">
      <!-- 140 -->
      <g transform="translate(32.354063 25.508338) scale(0.1 -0.1)">
       <use xlink:href="#DejaVuSans-31"/>
       <use xlink:href="#DejaVuSans-34" x="63.623047"/>
       <use xlink:href="#DejaVuSans-30" x="127.246094"/>
      </g>
     </g>
    </g>
    <g id="text_17">
     <!-- TEMPERATURE (Temp_Door_High) / C -->
     <g transform="translate(14.798438 210.121406) rotate(-90) scale(0.1 -0.1)">
      <defs>
       <path id="DejaVuSans-54" d="M -19 4666 
L 3928 4666 
L 3928 4134 
L 2272 4134 
L 2272 0 
L 1638 0 
L 1638 4134 
L -19 4134 
L -19 4666 
z
" transform="scale(0.015625)"/>
       <path id="DejaVuSans-45" d="M 628 4666 
L 3578 4666 
L 3578 4134 
L 1259 4134 
L 1259 2753 
L 3481 2753 
L 3481 2222 
L 1259 2222 
L 1259 531 
L 3634 531 
L 3634 0 
L 628 0 
L 628 4666 
z
" transform="scale(0.015625)"/>
       <path id="DejaVuSans-4d" d="M 628 4666 
L 1569 4666 
L 2759 1491 
L 3956 4666 
L 4897 4666 
L 4897 0 
L 4281 0 
L 4281 4097 
L 3078 897 
L 2444 897 
L 1241 4097 
L 1241 0 
L 628 0 
L 628 4666 
z
" transform="scale(0.015625)"/>
       <path id="DejaVuSans-50" d="M 1259 4147 
L 1259 2394 
L 2053 2394 
Q 2494 2394 2734 2622 
Q 2975 2850 2975 3272 
Q 2975 3691 2734 3919 
Q 2494 4147 2053 4147 
L 1259 4147 
z
M 628 4666 
L 2053 4666 
Q 2838 4666 3239 4311 
Q 3641 3956 3641 3272 
Q 3641 2581 3239 2228 
Q 2838 1875 2053 1875 
L 1259 1875 
L 1259 0 
L 628 0 
L 628 4666 
z
" transform="scale(0.015625)"/>
       <path id="DejaVuSans-52" d="M 2841 2188 
Q 3044 2119 3236 1894 
Q 3428 1669 3622 1275 
L 4263 0 
L 3584 0 
L 2988 1197 
Q 2756 1666 2539 1819 
Q 2322 1972 1947 1972 
L 1259 1972 
L 1259 0 
L 628 0 
L 628 4666 
L 2053 4666 
Q 2853 4666 3247 4331 
Q 3641 3997 3641 3322 
Q 3641 2881 3436 2590 
Q 3231 2300 2841 2188 
z
M 1259 4147 
L 1259 2491 
L 2053 2491 
Q 2509 2491 2742 2702 
Q 2975 2913 2975 3322 
Q 2975 3731 2742 3939 
Q 2509 4147 2053 4147 
L 1259 4147 
z
" transform="scale(0.015625)"/>
       <path id="DejaVuSans-41" d="M 2188 4044 
L 1331 1722 
L 3047 1722 
L 2188 4044 
z
M 1831 4666 
L 2547 4666 
L 4325 0 
L 3669 0 
L 3244 1197 
L 1141 1197 
L 716 0 
L 50 0 
L 1831 4666 
z
" transform="scale(0.015625)"/>
       <path id="DejaVuSans-55" d="M 556 4666 
L 1191 4666 
L 1191 1831 
Q 1191 1081 1462 751 
Q 1734 422 2344 422 
Q 2950 422 3222 751 
Q 3494 1081 3494 1831 
L 3494 4666 
L 4128 4666 
L 4128 1753 
Q 4128 841 3676 375 
Q 3225 -91 2344 -91 
Q 1459 -91 1007 375 
Q 556 841 556 1753 
L 556 4666 
z
" transform="scale(0.015625)"/>
       <path id="DejaVuSans-28" d="M 1984 4856 
Q 1566 4138 1362 3434 
Q 1159 2731 1159 2009 
Q 1159 1288 1364 580 
Q 1569 -128 1984 -844 
L 1484 -844 
Q 1016 -109 783 600 
Q 550 1309 550 2009 
Q 550 2706 781 3412 
Q 1013 4119 1484 4856 
L 1984 4856 
z
" transform="scale(0.015625)"/>
       <path id="DejaVuSans-70" d="M 1159 525 
L 1159 -1331 
L 581 -1331 
L 581 3500 
L 1159 3500 
L 1159 2969 
Q 1341 3281 1617 3432 
Q 1894 3584 2278 3584 
Q 2916 3584 3314 3078 
Q 3713 2572 3713 1747 
Q 3713 922 3314 415 
Q 2916 -91 2278 -91 
Q 1894 -91 1617 61 
Q 1341 213 1159 525 
z
M 3116 1747 
Q 3116 2381 2855 2742 
Q 2594 3103 2138 3103 
Q 1681 3103 1420 2742 
Q 1159 2381 1159 1747 
Q 1159 1113 1420 752 
Q 1681 391 2138 391 
Q 2594 391 2855 752 
Q 3116 1113 3116 1747 
z
" transform="scale(0.015625)"/>
       <path id="DejaVuSans-5f" d="M 3263 -1063 
L 3263 -1509 
L -63 -1509 
L -63 -1063 
L 3263 -1063 
z
" transform="scale(0.015625)"/>
       <path id="DejaVuSans-44" d="M 1259 4147 
L 1259 519 
L 2022 519 
Q 2988 519 3436 956 
Q 3884 1394 3884 2338 
Q 3884 3275 3436 3711 
Q 2988 4147 2022 4147 
L 1259 4147 
z
M 628 4666 
L 1925 4666 
Q 3281 4666 3915 4102 
Q 4550 3538 4550 2338 
Q 4550 1131 3912 565 
Q 3275 0 1925 0 
L 628 0 
L 628 4666 
z
" transform="scale(0.015625)"/>
       <path id="DejaVuSans-6f" d="M 1959 3097 
Q 1497 3097 1228 2736 
Q 959 2375 959 1747 
Q 959 1119 1226 758 
Q 1494 397 1959 397 
Q 2419 397 2687 759 
Q 2956 1122 2956 1747 
Q 2956 2369 2687 2733 
Q 2419 3097 1959 3097 
z
M 1959 3584 
Q 2709 3584 3137 3096 
Q 3566 2609 3566 1747 
Q 3566 888 3137 398 
Q 2709 -91 1959 -91 
Q 1206 -91 779 398 
Q 353 888 353 1747 
Q 353 2609 779 3096 
Q 1206 3584 1959 3584 
z
" transform="scale(0.015625)"/>
       <path id="DejaVuSans-72" d="M 2631 2963 
Q 2534 3019 2420 3045 
Q 2306 3072 2169 3072 
Q 1681 3072 1420 2755 
Q 1159 2438 1159 1844 
L 1159 0 
L 581 0 
L 581 3500 
L 1159 3500 
L 1159 2956 
Q 1341 3275 1631 3429 
Q 1922 3584 2338 3584 
Q 2397 3584 2469 3576 
Q 2541 3569 2628 3553 
L 2631 2963 
z
" transform="scale(0.015625)"/>
       <path id="DejaVuSans-48" d="M 628 4666 
L 1259 4666 
L 1259 2753 
L 3553 2753 
L 3553 4666 
L 4184 4666 
L 4184 0 
L 3553 0 
L 3553 2222 
L 1259 2222 
L 1259 0 
L 628 0 
L 628 4666 
z
" transform="scale(0.015625)"/>
       <path id="DejaVuSans-67" d="M 2906 1791 
Q 2906 2416 2648 2759 
Q 2391 3103 1925 3103 
Q 1463 3103 1205 2759 
Q 947 2416 947 1791 
Q 947 1169 1205 825 
Q 1463 481 1925 481 
Q 2391 481 2648 825 
Q 2906 1169 2906 1791 
z
M 3481 434 
Q 3481 -459 3084 -895 
Q 2688 -1331 1869 -1331 
Q 1566 -1331 1297 -1286 
Q 1028 -1241 775 -1147 
L 775 -588 
Q 1028 -725 1275 -790 
Q 1522 -856 1778 -856 
Q 2344 -856 2625 -561 
Q 2906 -266 2906 331 
L 2906 616 
Q 2728 306 2450 153 
Q 2172 0 1784 0 
Q 1141 0 747 490 
Q 353 981 353 1791 
Q 353 2603 747 3093 
Q 1141 3584 1784 3584 
Q 2172 3584 2450 3431 
Q 2728 3278 2906 2969 
L 2906 3500 
L 3481 3500 
L 3481 434 
z
" transform="scale(0.015625)"/>
       <path id="DejaVuSans-68" d="M 3513 2113 
L 3513 0 
L 2938 0 
L 2938 2094 
Q 2938 2591 2744 2837 
Q 2550 3084 2163 3084 
Q 1697 3084 1428 2787 
Q 1159 2491 1159 1978 
L 1159 0 
L 581 0 
L 581 4863 
L 1159 4863 
L 1159 2956 
Q 1366 3272 1645 3428 
Q 1925 3584 2291 3584 
Q 2894 3584 3203 3211 
Q 3513 2838 3513 2113 
z
" transform="scale(0.015625)"/>
       <path id="DejaVuSans-29" d="M 513 4856 
L 1013 4856 
Q 1481 4119 1714 3412 
Q 1947 2706 1947 2009 
Q 1947 1309 1714 600 
Q 1481 -109 1013 -844 
L 513 -844 
Q 928 -128 1133 580 
Q 1338 1288 1338 2009 
Q 1338 2731 1133 3434 
Q 928 4138 513 4856 
z
" transform="scale(0.015625)"/>
       <path id="DejaVuSans-43" d="M 4122 4306 
L 4122 3641 
Q 3803 3938 3442 4084 
Q 3081 4231 2675 4231 
Q 1875 4231 1450 3742 
Q 1025 3253 1025 2328 
Q 1025 1406 1450 917 
Q 1875 428 2675 428 
Q 3081 428 3442 575 
Q 3803 722 4122 1019 
L 4122 359 
Q 3791 134 3420 21 
Q 3050 -91 2638 -91 
Q 1578 -91 968 557 
Q 359 1206 359 2328 
Q 359 3453 968 4101 
Q 1578 4750 2638 4750 
Q 3056 4750 3426 4639 
Q 3797 4528 4122 4306 
z
" transform="scale(0.015625)"/>
      </defs>
      <use xlink:href="#DejaVuSans-54"/>
      <use xlink:href="#DejaVuSans-45" x="61.083984"/>
      <use xlink:href="#DejaVuSans-4d" x="124.267578"/>
      <use xlink:href="#DejaVuSans-50" x="210.546875"/>
      <use xlink:href="#DejaVuSans-45" x="270.849609"/>
      <use xlink:href="#DejaVuSans-52" x="334.033203"/>
      <use xlink:href="#DejaVuSans-41" x="399.515625"/>
      <use xlink:href="#DejaVuSans-54" x="460.173828"/>
      <use xlink:href="#DejaVuSans-55" x="521.257812"/>
      <use xlink:href="#DejaVuSans-52" x="594.451172"/>
      <use xlink:href="#DejaVuSans-45" x="663.933594"/>
      <use xlink:href="#DejaVuSans-20" x="727.117188"/>
      <use xlink:href="#DejaVuSans-28" x="758.904297"/>
      <use xlink:href="#DejaVuSans-54" x="797.917969"/>
      <use xlink:href="#DejaVuSans-65" x="842.001953"/>
      <use xlink:href="#DejaVuSans-6d" x="903.525391"/>
      <use xlink:href="#DejaVuSans-70" x="1000.9375"/>
      <use xlink:href="#DejaVuSans-5f" x="1064.414062"/>
      <use xlink:href="#DejaVuSans-44" x="1114.414062"/>
      <use xlink:href="#DejaVuSans-6f" x="1191.416016"/>
      <use xlink:href="#DejaVuSans-6f" x="1252.597656"/>
      <use xlink:href="#DejaVuSans-72" x="1313.779297"/>
      <use xlink:href="#DejaVuSans-5f" x="1354.892578"/>
      <use xlink:href="#DejaVuSans-48" x="1404.892578"/>
      <use xlink:href="#DejaVuSans-69" x="1480.087891"/>
      <use xlink:href="#DejaVuSans-67" x="1507.871094"/>
      <use xlink:href="#DejaVuSans-68" x="1571.347656"/>
      <use xlink:href="#DejaVuSans-29" x="1634.726562"/>
      <use xlink:href="#DejaVuSans-20" x="1673.740234"/>
      <use xlink:href="#DejaVuSans-2f" x="1705.527344"/>
      <use xlink:href="#DejaVuSans-20" x="1739.21875"/>
      <use xlink:href="#DejaVuSans-43" x="1771.005859"/>
     </g>
     <!--  -->
     <g transform="translate(26.274375 118.08) rotate(-90) scale(0.1 -0.1)"/>
    </g>
   </g>
   <g id="line2d_31">
    <path d="M 73.659744 218.88 
L 74.169451 218.783277 
L 74.506201 208.734042 
L 74.675686 182.566577 
L 75.013775 167.97519 
L 75.181752 170.463851 
L 75.691247 142.907853 
L 75.86003 149.46941 
L 76.028686 146.665167 
L 76.536265 130.293993 
L 76.872858 129.036754 
L 77.041852 118.358683 
L 77.211906 120.370915 
L 77.382644 107.61327 
L 77.550691 113.875685 
L 77.720072 114.324892 
L 77.890586 115.177276 
L 78.059257 114.267804 
L 78.394468 108.336096 
L 78.56685 107.62721 
L 78.735529 109.852675 
L 78.903581 109.805165 
L 79.243261 105.174194 
L 79.578109 99.121402 
L 79.748222 101.117588 
L 79.919089 94.970227 
L 80.086383 96.31316 
L 80.595063 89.106399 
L 80.933413 91.237784 
L 81.1027 89.928609 
L 81.271995 82.728366 
L 81.43962 84.527678 
L 81.610508 83.604367 
L 81.77674 81.029767 
L 81.948576 83.099889 
L 82.11846 80.973857 
L 82.28542 76.403435 
L 82.454772 85.764697 
L 82.621846 82.5914 
L 82.793194 82.738207 
L 83.132896 79.842778 
L 83.299799 76.051944 
L 83.470889 76.255274 
L 83.63903 75.897152 
L 83.808644 76.819059 
L 83.975315 63.95783 
L 84.147427 72.598573 
L 84.312761 70.126002 
L 84.652132 79.462092 
L 84.822779 67.669689 
L 84.989305 68.25412 
L 85.159025 60.964284 
L 85.327621 64.443228 
L 85.497806 70.387172 
L 85.667147 64.686598 
L 85.837555 63.719788 
L 86.004635 64.557718 
L 86.173755 62.131316 
L 86.342877 57.150534 
L 86.512217 67.284277 
L 86.680235 69.123063 
L 86.852434 61.562066 
L 87.189259 67.924893 
L 87.357798 68.339113 
L 87.528679 63.635911 
L 87.695082 67.833858 
L 88.034899 62.537463 
L 88.203392 69.285289 
L 88.541935 63.314393 
L 88.711937 61.884549 
L 89.047242 67.606421 
L 89.385461 63.338099 
L 89.554328 60.135995 
L 89.724328 60.573795 
L 89.896135 63.295214 
L 90.063241 67.784705 
L 90.234325 63.449767 
L 90.402192 65.419603 
L 90.570564 61.718901 
L 90.739198 62.771481 
L 90.908089 58.625583 
L 91.24544 60.784195 
L 91.417788 59.332363 
L 91.585513 61.285163 
L 91.752739 60.258231 
L 91.923409 63.603205 
L 92.262026 58.438862 
L 92.432645 60.864926 
L 92.770703 57.884442 
L 92.939507 60.824949 
L 93.10676 61.202239 
L 93.275366 60.864512 
L 93.445981 63.331843 
L 93.615128 60.667813 
L 93.784135 62.950367 
L 93.952859 61.032228 
L 94.122622 56.053891 
L 94.290782 54.650886 
L 94.459967 60.220549 
L 94.627451 57.404033 
L 94.796161 58.454394 
L 94.966141 58.691872 
L 95.303786 62.911769 
L 95.47525 60.232658 
L 95.644589 59.516376 
L 95.983529 52.734452 
L 96.149509 53.450334 
L 96.320019 58.578072 
L 96.490193 58.52314 
L 96.657842 57.377219 
L 96.827831 60.265013 
L 96.996823 59.945739 
L 97.164261 59.95311 
L 97.335532 58.087923 
L 97.671368 62.323402 
L 97.840931 53.61197 
L 98.011555 55.860828 
L 98.178646 53.800358 
L 98.349533 49.18344 
L 98.516688 54.068787 
L 98.68612 52.249142 
L 98.85743 52.601523 
L 99.026276 53.914647 
L 99.192931 58.004923 
L 99.363183 59.2272 
L 99.53425 56.466156 
L 99.700183 58.265768 
L 99.871297 54.565743 
L 100.039608 59.704062 
L 100.376232 57.939813 
L 100.54847 55.943589 
L 100.71809 48.701238 
L 100.886405 48.708158 
L 101.055385 48.110251 
L 101.394286 57.77859 
L 101.561636 54.815205 
L 101.730874 57.160751 
L 101.900132 56.406285 
L 102.070508 50.319746 
L 102.40893 53.616358 
L 102.575371 58.166886 
L 102.74667 51.931172 
L 102.916022 56.648113 
L 103.083621 58.197273 
L 103.25111 54.566721 
L 103.420787 54.967013 
L 103.588866 56.363676 
L 103.760749 51.01453 
L 104.097744 53.973126 
L 104.267232 54.793255 
L 104.43648 53.227084 
L 104.605367 56.411525 
L 104.773736 49.48999 
L 104.945051 54.049757 
L 105.111541 47.195477 
L 105.281597 53.889324 
L 105.448982 48.862486 
L 105.618091 54.917234 
L 105.790877 56.589069 
L 105.956676 55.584489 
L 106.12652 55.603217 
L 106.296645 57.114168 
L 106.635609 48.02655 
L 106.804901 57.911269 
L 106.971515 53.937374 
L 107.141576 55.950621 
L 107.309723 56.144049 
L 107.479061 55.962994 
L 107.649458 55.285824 
L 107.986006 51.05487 
L 108.15679 51.750744 
L 108.492941 55.268863 
L 108.833133 47.268461 
L 109.00058 54.387346 
L 109.170419 49.688193 
L 109.509024 54.12704 
L 109.678022 54.505057 
L 109.847364 48.778597 
L 110.01437 55.54366 
L 110.183716 55.567352 
L 110.354634 49.844414 
L 110.523389 54.364481 
L 110.86026 51.756874 
L 111.032729 51.660148 
L 111.197985 53.473149 
L 111.367293 49.444109 
L 111.537829 48.526728 
L 111.705279 50.739131 
L 112.045692 47.476442 
L 112.214889 55.538156 
L 112.383645 50.720328 
L 112.551938 50.268287 
L 112.891769 48.166349 
L 113.058538 44.946006 
L 113.227414 51.835486 
L 113.39624 47.102988 
L 113.566512 46.46691 
L 113.736119 48.090457 
L 113.906887 47.026733 
L 114.073243 47.823909 
L 114.242584 46.739726 
L 114.413602 44.152967 
L 114.582397 49.900525 
L 114.75109 47.305404 
L 114.918114 49.568376 
L 115.090258 53.650931 
L 115.258765 47.652319 
L 115.598108 53.32139 
L 115.763386 52.482997 
L 115.93501 54.239273 
L 116.102982 53.366783 
L 116.27351 48.005252 
L 116.442239 51.010155 
L 116.609676 48.772266 
L 116.779072 52.759562 
L 116.95097 52.483285 
L 117.118373 49.559326 
L 117.286293 54.622003 
L 117.455342 54.939071 
L 117.62528 54.478118 
L 117.793204 52.613883 
L 117.961929 52.915607 
L 118.131696 49.927865 
L 118.468887 39.731394 
L 118.809262 51.293063 
L 118.978404 52.569732 
L 119.145214 49.39176 
L 119.316302 50.142641 
L 119.485213 47.826391 
L 119.653602 50.227696 
L 119.822213 49.344964 
L 119.991799 49.33402 
L 120.162428 51.567346 
L 120.32964 48.209196 
L 120.669143 48.859315 
L 120.836608 49.276568 
L 121.007831 50.164365 
L 121.176973 54.425192 
L 121.346162 50.149686 
L 121.513029 55.58593 
L 121.683781 51.08631 
L 122.190347 47.700018 
L 122.360032 49.97085 
L 122.52871 48.049917 
L 122.69844 43.501256 
L 122.865395 45.288032 
L 123.035905 44.815909 
L 123.206415 43.554734 
L 123.542037 51.680381 
L 123.880947 50.129779 
L 124.048933 41.412167 
L 124.221115 49.160763 
L 124.390345 45.384056 
L 124.559158 46.601494 
L 124.728156 45.320525 
L 124.896581 48.198817 
L 125.066348 47.474386 
L 125.233674 42.465123 
L 125.404566 44.483009 
L 125.740869 49.741433 
L 126.07871 47.433958 
L 126.249592 45.264465 
L 126.417739 49.23352 
L 126.585199 50.496576 
L 127.094056 45.943102 
L 127.261728 52.483737 
L 127.434338 54.364945 
L 127.602015 47.687319 
L 127.770564 47.450957 
L 127.939763 48.096888 
L 128.110067 47.5756 
L 128.277439 47.639357 
L 128.44621 44.244027 
L 128.614976 48.722612 
L 128.786817 48.823074 
L 128.952755 49.590164 
L 129.124499 51.351868 
L 129.29184 51.098833 
L 129.460735 49.433805 
L 129.628892 45.358571 
L 129.798525 49.871254 
L 129.968152 41.709065 
L 130.13714 46.985077 
L 130.306969 43.15745 
L 130.476937 43.26359 
L 130.645115 49.540346 
L 130.813963 48.020106 
L 131.15182 50.469085 
L 131.491147 47.875794 
L 131.828059 46.04033 
L 131.999209 46.332627 
L 132.1662 45.285725 
L 132.334935 42.853068 
L 132.506033 44.456458 
L 132.675423 49.008215 
L 132.843111 47.123835 
L 133.013626 42.6279 
L 133.181215 48.103645 
L 133.348928 48.009238 
L 133.518256 48.418807 
L 133.689798 42.654965 
L 133.85954 41.556705 
L 134.195642 46.500594 
L 134.365244 46.195322 
L 134.533111 42.812715 
L 134.704798 45.396955 
L 134.87088 45.972085 
L 135.040075 44.700655 
L 135.209743 44.794335 
L 135.380372 45.37666 
L 135.548431 47.44 
L 135.71795 43.568648 
L 135.886154 47.001674 
L 136.056736 46.804687 
L 136.226601 41.953538 
L 136.393364 42.547045 
L 136.902985 47.628714 
L 137.070466 46.094948 
L 137.238865 49.232844 
L 137.409546 48.880199 
L 137.578492 49.767721 
L 137.746747 49.465696 
L 137.914997 45.992242 
L 138.253504 45.638708 
L 138.422791 42.80977 
L 138.591959 48.202101 
L 138.761127 45.92658 
L 138.930296 45.886215 
L 139.100635 44.463516 
L 139.271073 47.903298 
L 139.4365 48.122787 
L 139.608816 41.78972 
L 139.77494 47.517221 
L 139.944924 48.761485 
L 140.112534 48.310924 
L 140.284483 40.574225 
L 140.453693 40.999163 
L 140.622928 40.184838 
L 140.789042 44.124535 
L 140.958731 45.177529 
L 141.129489 43.893426 
L 141.29876 45.168691 
L 141.468393 42.490934 
L 141.63768 43.005566 
L 141.806637 46.239674 
L 142.481189 40.81055 
L 142.649434 43.232426 
L 142.819701 47.460534 
L 142.988266 45.094304 
L 143.156676 38.317959 
L 143.32524 39.236456 
L 143.497092 34.599067 
L 143.663577 41.539681 
L 143.835268 41.210817 
L 144.173915 43.96938 
L 144.341566 45.748296 
L 144.511493 43.390076 
L 144.680104 44.972193 
L 145.019844 41.465494 
L 145.187562 46.490051 
L 145.356736 41.40254 
L 145.526539 44.956899 
L 145.69356 44.99052 
L 145.864359 41.829684 
L 146.032723 46.354063 
L 146.202056 47.192907 
L 146.70986 38.540745 
L 146.876934 39.880921 
L 147.047727 45.074623 
L 147.385811 40.358008 
L 147.724777 46.121837 
L 147.8941 40.182732 
L 148.061401 45.197862 
L 148.231869 39.953027 
L 148.570624 42.633316 
L 148.738802 40.308717 
L 148.905478 42.124538 
L 149.074408 42.516332 
L 149.416435 45.515782 
L 149.582481 45.316075 
L 149.7512 44.173864 
L 149.920601 45.638934 
L 150.260047 43.513616 
L 150.429205 46.79808 
L 150.597057 46.972967 
L 150.766184 41.636846 
L 150.937933 40.611406 
L 151.104635 43.771051 
L 151.272704 41.679405 
L 151.442517 41.719269 
L 151.610767 38.77559 
L 151.949656 43.333577 
L 152.118365 40.55675 
L 152.456815 42.529294 
L 152.629121 38.378482 
L 152.963768 44.485892 
L 153.135093 45.509727 
L 153.302342 39.009132 
L 153.471959 41.965635 
L 153.641303 38.283661 
L 153.978767 44.682077 
L 154.149613 46.366436 
L 154.317259 40.389748 
L 154.486381 44.049872 
L 154.657613 43.087287 
L 154.826167 43.165861 
L 154.993834 41.678126 
L 155.331675 47.983803 
L 155.501545 45.966168 
L 155.672267 45.542722 
L 155.840986 44.332717 
L 156.176918 40.664282 
L 156.347691 43.153075 
L 156.514749 43.207317 
L 156.68513 42.954006 
L 156.853163 41.792102 
L 157.022987 44.14537 
L 157.191221 44.264322 
L 157.362753 41.982207 
L 157.529382 42.565071 
L 157.701084 42.565811 
L 157.870418 40.237915 
L 158.039694 40.230093 
L 158.20846 39.410302 
L 158.375729 40.866384 
L 158.545641 40.874282 
L 158.716084 42.900667 
L 159.051329 38.789781 
L 159.222551 42.094076 
L 159.39011 42.488615 
L 159.561605 43.800373 
L 159.89956 37.53728 
L 160.068708 39.851938 
L 160.405476 39.910831 
L 160.576156 37.682119 
L 160.912439 42.935554 
L 161.082263 43.179086 
L 161.420713 40.622663 
L 161.590154 39.19772 
L 161.759555 42.334375 
L 161.927862 42.726231 
L 162.26431 37.022812 
L 162.434887 43.043424 
L 162.602161 44.962214 
L 162.771479 44.014734 
L 163.110425 35.857435 
L 163.618378 41.699638 
L 163.785529 38.889265 
L 163.955281 37.992505 
L 164.125032 42.423743 
L 164.294494 43.35114 
L 164.463234 42.89569 
L 164.800198 40.273617 
L 164.971859 42.4265 
L 165.139784 35.514455 
L 165.307709 40.377012 
L 165.478492 34.585203 
L 165.815332 41.153153 
L 166.324834 36.094135 
L 166.491727 38.773459 
L 166.662562 35.501393 
L 166.831343 38.483231 
L 166.999103 38.48654 
L 167.168483 36.620237 
L 167.337873 41.753116 
L 167.508161 41.96912 
L 168.015196 36.944212 
L 168.185206 39.215647 
L 168.520952 36.679832 
L 168.861373 41.93432 
L 169.030423 39.54604 
L 169.3675 42.181338 
L 169.536478 41.846169 
L 169.705249 44.417271 
L 169.873555 41.316344 
L 170.044432 41.618845 
L 170.382304 44.462312 
L 170.721342 38.579907 
L 170.888844 39.091041 
L 171.226974 42.272323 
L 171.39495 41.817875 
L 171.565775 37.054502 
L 171.734949 38.618667 
L 171.901944 38.592016 
L 172.241726 35.512324 
L 172.4122 38.960844 
L 172.578783 36.365761 
L 172.750382 41.912195 
L 172.918007 41.9402 
L 173.256901 39.982762 
L 173.424929 40.490511 
L 173.595392 38.262776 
L 173.765226 40.040827 
L 174.101241 37.710625 
L 174.270631 37.573484 
L 174.441703 33.075819 
L 174.609989 40.116744 
L 174.778843 39.561885 
L 175.116591 40.700736 
L 175.453906 37.601564 
L 175.623451 37.296894 
L 175.79182 36.526269 
L 175.96186 38.321118 
L 176.132179 38.299807 
L 176.29901 40.36914 
L 176.467285 39.51969 
L 176.808956 44.138701 
L 176.976591 43.191509 
L 177.31434 39.934073 
L 177.482512 41.396598 
L 177.651913 39.935903 
L 177.822572 32.370982 
L 178.159381 39.396312 
L 178.499596 42.536527 
L 178.836509 40.142392 
L 179.004939 41.55772 
L 179.34439 38.988247 
L 179.512212 38.073235 
L 179.68024 35.317418 
L 179.850538 39.955283 
L 180.01804 40.015229 
L 180.525209 36.957124 
L 180.697035 40.555923 
L 180.866281 40.941122 
L 181.032998 38.643689 
L 181.203265 38.710404 
L 181.543346 41.67147 
L 181.709227 40.471833 
L 181.87902 42.275657 
L 182.04808 34.39175 
L 182.21973 41.161 
L 182.386489 36.762468 
L 182.556829 37.883794 
L 182.72498 33.714768 
L 182.895723 35.41808 
L 183.062904 33.173498 
L 183.233646 36.404346 
L 183.401685 37.108205 
L 183.571808 32.927194 
L 183.7387 32.075764 
L 183.908142 29.795855 
L 184.416746 41.243335 
L 184.753122 35.806865 
L 184.92437 38.056387 
L 185.259868 37.794464 
L 185.43123 40.117321 
L 185.601466 39.276771 
L 185.767925 39.988678 
L 185.93938 41.226989 
L 186.10683 37.311736 
L 186.275033 38.066967 
L 186.446436 32.851202 
L 186.615826 38.179689 
L 186.784277 35.986077 
L 186.950973 40.509465 
L 187.121189 40.004123 
L 187.292251 38.365996 
L 187.460145 40.026411 
L 187.796283 34.037088 
L 188.135879 36.367115 
L 188.305249 33.659209 
L 188.473318 36.902769 
L 188.643957 33.929029 
L 188.814699 36.758557 
L 189.14963 38.182873 
L 189.319949 39.373171 
L 189.657862 36.837533 
L 189.826953 35.051158 
L 190.16433 39.899248 
L 190.334278 35.481135 
L 190.504225 39.135092 
L 190.841808 38.872492 
L 191.009052 38.174148 
L 191.178907 35.926281 
L 191.516872 42.468307 
L 191.856024 40.037443 
L 192.194463 42.363809 
L 192.363936 40.52684 
L 192.532965 40.216278 
L 192.869145 34.187693 
L 193.037947 29.727786 
L 193.208813 30.116069 
L 193.379679 33.728206 
L 193.883732 37.767086 
L 194.053256 36.129236 
L 194.224875 33.045607 
L 194.39343 34.665657 
L 194.560343 34.545013 
L 194.898721 37.733766 
L 195.067657 35.721848 
L 195.237914 36.250381 
L 195.406809 31.264347 
L 195.744991 37.569221 
L 195.913813 37.938601 
L 196.08437 39.21319 
L 196.254193 32.100961 
L 196.422665 37.538108 
L 196.759691 34.559981 
L 197.09908 40.023754 
L 197.267222 39.071961 
L 197.437004 36.935412 
L 197.774123 35.963287 
L 197.94375 38.520412 
L 198.113399 35.964139 
L 198.283326 37.309104 
L 198.449042 36.902769 
L 198.789855 38.562607 
L 198.956748 34.873676 
L 199.126551 35.593456 
L 199.465115 37.904428 
L 199.63273 32.442586 
L 199.971293 38.303593 
L 200.141974 37.634257 
L 200.479196 34.248943 
L 200.649742 37.778394 
L 200.818595 38.719957 
L 200.988274 37.758336 
L 201.155962 35.126047 
L 201.323649 35.302525 
L 201.494959 36.80158 
L 201.664483 36.103913 
L 201.83312 35.884612 
L 202.000229 36.934083 
L 202.170992 37.062149 
L 202.341796 32.694881 
L 202.509752 33.122001 
L 202.678182 36.443984 
L 203.015126 31.080573 
L 203.355351 36.311055 
L 203.522615 36.156814 
L 203.694317 34.993694 
L 203.86058 40.007833 
L 204.032406 39.457863 
L 204.201394 36.75956 
L 204.367585 36.086789 
L 204.538709 38.482654 
L 204.874981 34.40401 
L 205.214412 39.114107 
L 205.382564 35.630988 
L 205.551572 34.809994 
L 205.719909 34.782315 
L 205.890063 30.480058 
L 206.059598 36.448321 
L 206.227822 35.58626 
L 206.397625 35.845726 
L 206.567583 35.43538 
L 206.735848 35.694018 
L 206.905476 36.515363 
L 207.073937 36.448698 
L 207.241614 37.877978 
L 207.412016 32.76992 
L 207.582417 39.688847 
L 207.749991 38.714115 
L 207.920878 35.755243 
L 208.087936 36.362376 
L 208.256418 31.185422 
L 208.428192 31.454039 
L 208.596787 32.636088 
L 208.767272 30.531781 
L 208.934154 33.972203 
L 209.102006 30.548153 
L 209.273223 33.701329 
L 209.440446 27.638672 
L 209.610187 33.071331 
L 209.949783 30.832615 
L 210.286406 31.653584 
L 210.457799 31.826176 
L 210.626208 31.400937 
L 210.792977 31.412495 
L 210.961655 31.747702 
L 211.132367 34.178266 
L 211.302717 34.073291 
L 211.469093 38.809788 
L 211.809969 30.606369 
L 211.977501 36.843299 
L 212.145601 37.671639 
L 212.483443 30.968077 
L 212.656146 33.358952 
L 212.993316 30.535843 
L 213.16024 30.48239 
L 213.328877 32.177855 
L 213.498225 30.096889 
L 214.175002 35.046896 
L 214.344836 34.960474 
L 214.514577 33.430431 
L 214.683534 34.889446 
L 214.853151 34.918103 
L 215.021746 35.303729 
L 215.192313 37.469662 
L 215.361002 36.697107 
L 215.52969 38.712811 
L 215.698409 36.354955 
L 215.866241 36.287487 
L 216.036127 35.671604 
L 216.206012 36.163283 
L 216.37308 34.458215 
L 216.543658 31.328831 
L 216.713461 32.88011 
L 216.883264 32.287343 
L 217.050951 37.845861 
L 217.388338 34.111927 
L 217.556872 32.943742 
L 217.727707 28.381392 
L 217.897014 28.889693 
L 218.065538 30.644779 
L 218.233184 34.676563 
L 218.404019 31.579372 
L 218.574204 33.302441 
L 218.743553 28.921985 
L 219.078772 35.0745 
L 219.250124 36.171632 
L 219.419534 32.623853 
L 219.58619 34.015301 
L 219.757087 28.965033 
L 219.924186 33.107258 
L 220.094309 32.985661 
L 220.262161 36.190034 
L 220.431985 37.267886 
L 220.600498 34.43896 
L 220.770136 34.767222 
L 220.94191 36.700893 
L 221.108679 32.627414 
L 221.276469 32.475354 
L 221.448677 35.167866 
L 221.61493 33.045407 
L 221.784186 32.765107 
L 221.954298 36.728371 
L 222.292036 38.345738 
L 222.46282 30.877618 
L 222.631694 33.470621 
L 222.799959 30.277831 
L 222.968152 33.338544 
L 223.138255 28.313874 
L 223.306695 34.030519 
L 223.474414 34.815535 
L 223.645651 36.723482 
L 223.812884 35.848208 
L 223.984917 32.970117 
L 224.321757 33.271778 
L 224.490703 28.731141 
L 224.657957 31.472466 
L 224.830361 31.523688 
L 224.998925 31.299473 
L 225.167542 34.11313 
L 225.335012 29.498531 
L 225.505569 35.371823 
L 225.674216 31.164387 
L 225.841872 34.513974 
L 226.011479 29.170344 
L 226.180219 34.681803 
L 226.350703 34.531951 
L 226.520867 36.052166 
L 226.687275 35.31649 
L 226.858864 33.366799 
L 227.027758 36.07483 
L 227.363432 35.447715 
L 227.535557 35.64197 
L 227.701862 35.469953 
L 227.873481 32.632052 
L 228.042913 25.845302 
L 228.211013 32.647972 
L 228.378927 30.867314 
L 228.887583 36.05891 
L 229.057634 34.402782 
L 229.225228 35.139836 
L 229.392637 34.664003 
L 229.563492 34.644622 
L 229.734348 36.26407 
L 229.902737 33.169561 
L 230.07093 32.39139 
L 230.239092 33.814076 
L 230.578864 34.894837 
L 230.745539 33.076972 
L 230.914455 34.622935 
L 231.084351 34.505701 
L 231.25273 31.346181 
L 231.423441 33.010908 
L 231.593842 32.912703 
L 231.760911 35.858061 
L 231.929929 33.355893 
L 232.098587 26.822943 
L 232.437873 34.825514 
L 232.60684 36.11675 
L 232.776715 32.26024 
L 232.945651 32.831321 
L 233.114577 34.656155 
L 233.284937 34.690428 
L 233.453141 36.623296 
L 233.959505 30.778059 
L 234.129226 33.119619 
L 234.297635 31.481041 
L 234.466035 34.945256 
L 234.635931 29.155201 
L 234.80496 34.519289 
L 234.97597 30.799119 
L 235.142347 31.379376 
L 235.31183 29.096007 
L 235.482562 30.944033 
L 235.652179 34.630357 
L 235.81837 35.185266 
L 235.988627 34.790163 
L 236.157862 32.269166 
L 236.495229 34.293645 
L 236.663866 33.691476 
L 236.832802 29.872674 
L 237.172718 31.639819 
L 237.340518 31.943411 
L 237.510786 32.690519 
L 237.681373 28.396911 
L 237.849907 32.984333 
L 238.019091 31.843425 
L 238.186262 33.667934 
L 238.526518 28.838096 
L 238.693369 28.388964 
L 238.862863 33.239712 
L 239.031778 31.985255 
L 239.202273 34.893683 
L 239.541414 32.641679 
L 239.710949 32.556511 
L 239.87747 31.067435 
L 240.048151 33.691978 
L 240.216798 24.837375 
L 240.38368 32.642858 
L 240.554009 32.562253 
L 240.723049 35.001742 
L 240.894039 32.519506 
L 241.228928 34.569508 
L 241.398267 30.925831 
L 241.568514 31.824622 
L 241.737646 34.50387 
L 241.906344 32.642256 
L 242.076612 35.113411 
L 242.41436 30.836952 
L 242.584752 29.105384 
L 242.754328 32.558768 
L 242.922871 32.514416 
L 243.091302 33.290782 
L 243.259175 31.513007 
L 243.430412 34.905342 
L 243.766716 31.417585 
L 243.93559 33.094898 
L 244.273132 32.880436 
L 244.443689 30.493697 
L 244.612377 29.99011 
L 244.952127 30.759331 
L 245.121239 29.812277 
L 245.290516 33.442089 
L 245.459978 32.576844 
L 245.628089 30.244411 
L 245.796622 34.191253 
L 245.963773 31.999672 
L 246.303503 35.913595 
L 246.470705 35.697453 
L 246.641943 31.70498 
L 246.809599 31.773576 
L 246.978917 33.33373 
L 247.149349 28.801893 
L 247.318502 32.370931 
L 247.486231 33.083165 
L 247.655508 30.013326 
L 247.995258 31.564028 
L 248.16375 31.220999 
L 248.333791 31.176998 
L 248.501829 32.33548 
L 248.672489 32.542822 
L 248.841435 33.769549 
L 249.177718 30.623217 
L 249.346706 33.224995 
L 249.514765 32.571078 
L 249.684681 33.716648 
L 249.855341 32.784437 
L 250.0234 32.611017 
L 250.191892 34.106135 
L 250.529454 31.28463 
L 250.699784 30.490463 
L 250.868008 33.124558 
L 251.036273 30.989463 
L 251.375652 35.45822 
L 251.546704 35.007207 
L 251.715155 35.229743 
L 251.883379 33.003813 
L 252.051727 34.349329 
L 252.222139 34.771986 
L 252.389578 35.84194 
L 252.897656 31.774754 
L 253.066499 34.422237 
L 253.406766 30.358812 
L 253.575361 31.00789 
L 253.911933 34.436428 
L 254.081169 34.179169 
L 254.249764 33.42118 
L 254.420609 27.920125 
L 254.589391 31.087167 
L 254.75906 23.260799 
L 254.927655 31.841946 
L 255.095487 30.558106 
L 255.265342 31.429494 
L 255.435341 30.448844 
L 255.603007 31.95552 
L 255.941375 31.179004 
L 256.109434 30.458196 
L 256.27871 31.476678 
L 256.449535 33.39691 
L 256.618358 31.301303 
L 256.955631 33.326585 
L 257.126188 31.090827 
L 257.295196 27.082835 
L 257.463833 30.366359 
L 257.631582 30.136352 
L 257.800075 27.478815 
L 257.970404 29.341057 
L 258.140568 28.907018 
L 258.309019 29.226856 
L 258.479328 30.55753 
L 258.646231 29.737363 
L 258.983773 33.249815 
L 259.155692 33.80307 
L 259.325113 31.427764 
L 259.494224 32.899967 
L 259.662861 32.253697 
L 259.829248 33.602949 
L 259.998834 31.225336 
L 260.17034 33.103272 
L 260.336624 29.941997 
L 260.505653 32.409166 
L 260.676684 31.531059 
L 260.844041 32.745074 
L 261.016166 31.338158 
L 261.182822 31.092482 
L 261.352325 34.492212 
L 261.520302 33.376978 
L 261.691023 34.387864 
L 261.857988 32.434613 
L 262.028978 31.784708 
L 262.199122 32.296218 
L 262.367676 25.878848 
L 262.537159 27.583539 
L 262.875134 34.371768 
L 263.045071 34.672978 
L 263.213977 33.647927 
L 263.380818 31.564253 
L 263.549578 31.81334 
L 263.718504 29.837023 
L 264.057099 31.199211 
L 264.228151 31.533215 
L 264.396622 30.972464 
L 264.566105 28.76421 
L 264.734639 32.897861 
L 264.90212 33.277595 
L 265.071727 33.018405 
L 265.241891 33.001206 
L 265.409434 32.087748 
L 265.580816 34.636048 
L 265.748049 30.585534 
L 265.918337 31.734063 
L 266.08716 31.883465 
L 266.257283 26.284656 
L 266.425011 25.57997 
L 266.595898 21.940254 
L 266.761666 22.460564 
L 266.931562 28.732595 
L 267.100116 28.515826 
L 267.270652 30.112885 
L 267.438071 33.012137 
L 267.778647 25.626252 
L 268.116478 26.954945 
L 268.285403 30.707959 
L 268.623338 27.773231 
L 269.129413 32.409792 
L 269.300093 27.730935 
L 269.469742 29.455759 
L 269.637429 28.403154 
L 269.806644 31.202546 
L 269.976086 29.091093 
L 270.145465 25.34021 
L 270.313545 30.172932 
L 270.484452 28.119469 
L 270.651541 29.293847 
L 270.822015 25.827902 
L 271.160362 29.669921 
L 271.329638 31.861452 
L 271.666004 29.903086 
L 272.172637 31.745195 
L 272.344782 29.196018 
L 272.511685 30.65759 
L 272.680983 28.756839 
L 272.85189 31.567137 
L 273.021703 29.075699 
L 273.189597 33.43359 
L 273.356273 32.23389 
L 273.528976 32.170459 
L 273.69687 31.579823 
L 273.863546 32.13067 
L 274.034432 28.891849 
L 274.203276 31.909715 
L 274.371252 31.961538 
L 274.541891 33.626842 
L 274.709867 33.136216 
L 274.878607 34.192933 
L 275.050072 32.627664 
L 275.219349 32.315247 
L 275.387985 34.862093 
L 275.555962 31.036998 
L 275.723917 32.481647 
L 276.231293 26.848692 
L 276.399744 29.065746 
L 276.570259 29.622209 
L 276.738958 27.619342 
L 276.909886 29.605211 
L 277.079699 29.176161 
L 277.247511 30.239823 
L 277.584702 30.833618 
L 277.754742 30.618428 
L 277.923916 28.209175 
L 278.092635 29.682832 
L 278.262717 28.606084 
L 278.430383 28.883551 
L 278.599165 32.547611 
L 278.767801 29.946711 
L 278.937512 29.291139 
L 279.105942 25.595414 
L 279.275962 31.269236 
L 279.44658 29.377962 
L 279.613359 31.802835 
L 279.782842 30.495076 
L 280.123026 26.001573 
L 280.289104 27.099106 
L 280.627058 22.139874 
L 280.797243 28.961122 
L 280.965942 24.622135 
L 281.137386 30.609127 
L 281.306704 25.377291 
L 281.474391 29.142741 
L 281.643069 27.764105 
L 281.811293 30.521727 
L 281.980425 29.290538 
L 282.318422 30.898202 
L 282.488235 29.281863 
L 282.656645 31.268384 
L 282.825653 31.585339 
L 282.997572 28.816584 
L 283.165527 31.460733 
L 283.332534 26.046752 
L 283.671066 30.31782 
L 284.011828 25.381127 
L 284.180424 26.01807 
L 284.349019 25.518494 
L 284.517615 26.704981 
L 284.687284 24.381599 
L 284.857716 28.436725 
L 285.024227 27.822271 
L 285.195237 29.024302 
L 285.362863 28.556041 
L 285.532387 22.715141 
L 285.700591 25.674264 
L 285.869 25.859167 
L 286.039949 22.951616 
L 286.207719 23.270928 
L 286.71751 29.342035 
L 286.886477 21.11209 
L 287.222822 24.639485 
L 287.39088 25.629687 
L 287.732014 28.993665 
L 287.89871 28.961874 
L 288.06871 27.413028 
L 288.238688 24.556272 
L 288.408357 29.77848 
L 288.575198 27.539062 
L 288.744846 27.987994 
L 288.91468 26.179757 
L 289.08212 27.211427 
L 289.253584 29.572693 
L 289.422324 25.240425 
L 289.588918 26.947123 
L 289.759846 31.453562 
L 290.096541 31.224534 
L 290.269203 28.4456 
L 290.435528 29.731371 
L 290.605156 28.789858 
L 290.775485 24.858736 
L 290.944886 29.535712 
L 291.113523 26.499369 
L 291.28249 27.502533 
L 291.451787 27.738181 
L 291.618071 26.860977 
L 291.790485 29.321802 
L 291.958399 26.994508 
L 292.126355 27.96375 
L 292.294682 30.357132 
L 292.466374 30.144375 
L 292.633359 26.797646 
L 292.972656 29.758072 
L 293.141602 30.747422 
L 293.311704 33.296348 
L 293.478814 34.034506 
L 293.650485 35.326343 
L 293.816707 33.642135 
L 293.986045 33.53177 
L 294.154352 33.193279 
L 294.326704 30.262863 
L 294.493029 30.806992 
L 294.66179 30.306488 
L 294.832305 26.989694 
L 295.003274 31.94499 
L 295.169062 30.492469 
L 295.340093 31.190562 
L 295.676583 30.118025 
L 295.847985 30.185568 
L 296.015363 31.464393 
L 296.184165 25.032707 
L 296.353173 28.954679 
L 296.52181 29.229513 
L 296.692119 30.412791 
L 297.031209 27.07945 
L 297.201373 29.335591 
L 297.367533 28.684081 
L 297.539534 28.66806 
L 297.706066 26.21072 
L 297.877365 26.931177 
L 298.046374 25.490013 
L 298.213978 26.662711 
L 298.382306 26.507392 
L 298.720818 25.741681 
L 298.890259 28.603752 
L 299.060362 27.638221 
L 299.228999 24.023501 
L 299.399803 23.752904 
L 299.567201 28.826287 
L 299.736416 26.442306 
L 299.905858 29.062837 
L 300.074949 25.322209 
L 300.242367 30.214575 
L 300.411789 25.384687 
L 300.58315 23.701031 
L 300.74964 24.604736 
L 300.920527 24.768904 
L 301.597118 29.284746 
L 301.766497 25.881806 
L 301.935981 25.048628 
L 302.104122 26.459606 
L 302.271768 24.988331 
L 302.442469 25.298491 
L 302.609764 32.106878 
L 302.779681 32.84348 
L 302.947884 32.417464 
L 303.11681 28.405411 
L 303.288894 29.726206 
L 303.457634 32.914759 
L 303.626353 32.717621 
L 303.794969 30.635903 
L 303.964762 30.190131 
L 304.471003 32.981625 
L 304.640795 32.391515 
L 305.146726 24.61336 
L 305.314496 27.658052 
L 305.486002 25.351141 
L 305.652884 25.629511 
L 305.825113 28.209175 
L 305.992449 28.535281 
L 306.161478 28.493011 
L 306.330796 28.974285 
L 306.499288 28.54862 
L 306.667822 29.49121 
L 306.836727 32.575114 
L 307.008089 28.73109 
L 307.344598 29.287805 
L 307.513731 25.463036 
L 307.851747 30.970609 
L 308.020054 29.661672 
L 308.191085 30.825469 
L 308.360052 28.238033 
L 308.698874 32.834806 
L 308.868047 32.718925 
L 309.20561 25.361997 
L 309.375609 29.662675 
L 309.541666 27.338665 
L 309.711603 27.373189 
L 309.880838 25.085057 
L 310.049702 25.507638 
L 310.221249 29.263485 
L 310.39034 29.31225 
L 310.557718 26.838187 
L 310.728151 28.484938 
L 310.89656 32.226118 
L 311.065486 30.980337 
L 311.235237 31.803612 
L 311.403854 30.87644 
L 311.572676 26.678456 
L 311.742531 29.186114 
L 311.910775 26.681239 
L 312.078525 27.658478 
L 312.247471 31.244766 
L 312.417099 29.094102 
L 312.58782 32.011255 
L 312.755074 25.274698 
L 312.925424 27.477186 
L 313.092843 25.153502 
L 313.262409 25.447491 
L 313.433378 24.556523 
L 313.602345 27.406183 
L 313.771622 27.961167 
L 313.93838 24.712844 
L 314.108544 28.295948 
L 314.276438 25.572674 
L 314.448357 27.242365 
L 314.785713 23.823204 
L 315.291809 32.231433 
L 315.462861 29.872449 
L 315.630115 22.780428 
L 316.137656 31.306543 
L 316.47592 29.986173 
L 316.814556 24.280711 
L 317.154493 28.59598 
L 317.320487 27.411523 
L 317.489124 25.113714 
L 317.659928 25.675317 
L 317.830898 27.229303 
L 318.000339 22.504941 
L 318.166417 30.272716 
L 318.334496 28.195587 
L 318.504186 24.050829 
L 318.673483 24.032326 
L 318.84375 28.388362 
L 319.012841 28.698573 
L 319.182118 27.241287 
L 319.3522 28.937429 
L 319.518834 29.453703 
L 319.687843 25.888927 
L 319.859307 27.131073 
L 320.026499 29.476218 
L 320.197159 27.566566 
L 320.364103 27.436444 
L 320.703482 23.335587 
L 320.870798 25.211392 
L 321.041375 30.221921 
L 321.208856 22.203455 
L 321.381125 25.848937 
L 321.549618 23.894884 
L 321.718399 25.502649 
L 322.05751 25.723705 
L 322.226312 25.197001 
L 322.39371 25.153979 
L 322.561728 26.838788 
L 322.732367 25.730926 
L 322.903336 26.613946 
L 323.071498 28.916068 
L 323.407616 26.197307 
L 323.579039 18.300012 
L 323.916086 28.015322 
L 324.086952 23.797005 
L 324.254102 24.554191 
L 324.424328 24.673758 
L 324.593316 27.666426 
L 324.762696 24.926529 
L 324.931209 24.417275 
L 325.098071 29.067726 
L 325.267244 28.790435 
L 325.439142 28.035078 
L 325.605963 27.835408 
L 325.777056 26.547406 
L 325.944165 27.17224 
L 326.284679 19.414443 
L 326.452243 18.642139 
L 326.620384 25.181432 
L 326.791209 26.398281 
L 326.961291 25.360242 
L 327.129349 25.546474 
L 327.296438 27.413203 
L 327.466231 21.507193 
L 327.636044 23.302368 
L 327.804537 23.746009 
L 327.974288 26.487861 
L 328.313791 22.113474 
L 328.47993 24.040475 
L 328.650569 29.64154 
L 328.820568 27.425438 
L 328.988813 31.513233 
L 329.495404 27.980849 
L 329.663959 27.470216 
L 329.83499 24.10012 
L 330.002429 27.613099 
L 330.172573 21.304514 
L 330.341664 20.314563 
L 330.509062 20.363879 
L 330.849329 23.249767 
L 331.016996 26.966052 
L 331.188357 26.5363 
L 331.356849 27.918145 
L 331.525961 27.995917 
L 331.694185 26.462414 
L 331.861872 28.403606 
L 332.032986 24.087584 
L 332.369186 30.014705 
L 332.541064 25.341564 
L 332.87906 23.213012 
L 333.048151 23.775568 
L 333.216086 20.411766 
L 333.385754 27.42263 
L 333.722925 24.463407 
L 333.894245 24.930541 
L 334.062964 24.395288 
L 334.23028 27.134482 
L 334.400589 26.333521 
L 334.567905 24.198526 
L 334.736252 23.632736 
L 334.906086 25.939822 
L 335.074641 19.970606 
L 335.245383 20.238571 
L 336.092241 24.170496 
L 336.430278 23.097182 
L 336.596335 23.674229 
L 336.767841 26.9392 
L 336.93429 22.329014 
L 337.103628 26.417435 
L 337.273896 26.336053 
L 337.441707 24.922618 
L 337.612201 21.576992 
L 337.951684 25.02664 
L 338.120093 25.577312 
L 338.290547 25.152324 
L 338.458812 22.595224 
L 338.625529 23.85665 
L 338.797634 20.9231 
L 338.964351 25.206955 
L 339.133669 25.931523 
L 339.302801 23.623735 
L 339.474472 23.508356 
L 339.640343 24.860691 
L 339.811003 27.931809 
L 340.147822 25.440547 
L 340.316397 26.073027 
L 340.488605 29.716378 
L 340.654888 29.392579 
L 340.992616 25.994453 
L 341.332284 31.215257 
L 341.502944 29.108618 
L 341.67253 30.109952 
L 341.84158 28.966337 
L 342.179617 28.166704 
L 342.346334 27.255052 
L 342.515962 27.832676 
L 342.854887 22.867702 
L 343.023627 29.389545 
L 343.191768 24.308064 
L 343.698029 29.913917 
L 343.868565 27.325478 
L 344.038998 29.454932 
L 344.20716 26.150599 
L 344.376065 27.812318 
L 344.544371 26.512983 
L 344.714309 26.371279 
L 344.88245 26.960335 
L 345.051685 25.297313 
L 345.221994 27.459059 
L 345.389434 26.129789 
L 345.55997 25.978056 
L 345.729845 21.992428 
L 346.066458 23.485064 
L 346.23462 23.554061 
L 346.406786 27.110013 
L 346.576125 26.787968 
L 346.912181 21.329987 
L 347.083047 23.548219 
L 347.24898 23.423864 
L 347.420775 23.607438 
L 347.589081 20.0999 
L 347.925632 22.119591 
L 348.096519 21.61302 
L 348.265837 24.375732 
L 348.434515 22.492155 
L 348.603957 22.324125 
L 348.772697 22.95277 
L 348.943439 26.314717 
L 349.109516 23.643717 
L 349.278256 24.319672 
L 349.449742 23.650486 
L 349.617573 23.635719 
L 349.786272 26.397704 
L 349.956787 21.190012 
L 350.295176 24.891304 
L 350.462429 24.473386 
L 350.632201 28.404508 
L 350.801375 29.227407 
L 350.971601 22.470292 
L 351.138153 24.61855 
L 351.309432 23.286598 
L 351.479803 24.410105 
L 351.647862 27.744474 
L 351.816725 27.225016 
L 351.984908 27.511935 
L 352.153958 27.541444 
L 352.32181 28.478118 
L 352.49088 25.711069 
L 352.662324 27.298802 
L 352.829351 27.258161 
L 353.168462 27.898564 
L 353.338585 27.373565 
L 353.50522 22.13506 
L 353.676065 24.141714 
L 353.844598 23.97243 
L 354.013483 24.019891 
L 354.183792 22.323874 
L 354.352243 26.35423 
L 354.689682 22.978618 
L 354.8603 25.590048 
L 355.199101 17.400143 
L 355.366871 23.847198 
L 355.706518 24.431967 
L 356.044411 21.282401 
L 356.213399 21.207788 
L 356.382345 22.327535 
L 356.550672 19.459397 
L 356.720692 23.125864 
L 356.887306 22.885051 
L 357.228336 19.983342 
L 357.394517 19.076905 
L 357.566023 21.535198 
L 357.735877 21.078369 
L 357.90212 24.202287 
L 358.073791 25.245013 
L 358.241086 24.9776 
L 358.409165 22.949084 
L 358.578215 25.090046 
L 358.750113 23.414112 
L 358.918626 25.747548 
L 359.087882 26.028701 
L 359.257654 23.780658 
L 359.423959 25.092202 
L 359.59468 23.610071 
L 359.762945 23.874175 
L 360.101726 27.185779 
L 360.26997 24.021796 
L 360.438876 26.537077 
L 360.609349 27.354235 
L 360.778606 26.003303 
L 360.946685 27.969541 
L 361.1172 28.15645 
L 361.286064 25.581098 
L 361.454536 26.26856 
L 361.624555 25.32251 
L 361.79247 23.567725 
L 361.960343 24.701788 
L 362.299371 28.046812 
L 362.468441 25.788991 
L 362.638296 26.498041 
L 362.807407 26.340942 
L 362.977943 27.209747 
L 363.145238 24.257946 
L 363.316331 25.211919 
L 363.484721 26.999497 
L 363.651809 26.645612 
L 363.822324 26.626307 
L 363.990714 24.275897 
L 364.159123 24.840734 
L 364.328544 22.149476 
L 364.496273 17.439932 
L 364.834517 24.459446 
L 365.003855 26.650225 
L 365.174102 24.008709 
L 365.34373 25.450249 
L 365.511231 24.759527 
L 365.682077 25.275826 
L 365.849847 22.363888 
L 366.021848 17.441987 
L 366.357367 21.626007 
L 366.52716 20.37466 
L 366.697489 26.471891 
L 366.865981 25.309071 
L 367.032575 23.204438 
L 367.371314 25.63074 
L 367.542634 25.387946 
L 367.878896 27.845788 
L 368.047554 25.704199 
L 368.216789 25.959779 
L 368.386004 22.560048 
L 368.556973 22.445672 
L 368.724124 25.098169 
L 368.895279 24.804481 
L 369.064473 25.697154 
L 369.230963 22.802165 
L 369.401499 24.129253 
L 369.572798 20.32226 
L 369.738339 22.339945 
L 369.910691 20.529552 
L 370.079431 23.349552 
L 370.245715 21.91606 
L 370.417076 21.646766 
L 370.583959 23.598137 
L 370.75307 27.043422 
L 371.093295 22.407363 
L 371.430466 25.77272 
L 371.598256 25.502448 
L 371.768689 26.322339 
L 371.937016 25.63089 
L 372.108708 25.592806 
L 372.2759 21.832346 
L 372.445899 22.08582 
L 372.615877 23.790937 
L 372.782347 27.074887 
L 372.952697 25.634124 
L 373.119744 25.946842 
L 373.460506 24.484242 
L 373.629308 24.707604 
L 373.796913 25.951932 
L 374.135962 22.972451 
L 374.303484 25.142571 
L 374.475898 17.28 
L 374.643482 23.532951 
L 374.814018 24.382877 
L 374.980549 26.161555 
L 375.149909 22.498322 
L 375.658771 28.151135 
L 375.826623 19.496101 
L 375.995508 24.088386 
L 376.164124 25.364003 
L 376.334247 20.605168 
L 376.504432 21.287942 
L 376.672201 24.72884 
L 377.009248 23.582843 
L 377.178731 23.873423 
L 377.349432 25.47156 
L 377.519245 22.578326 
L 377.689079 23.84281 
L 377.857056 23.867481 
L 378.023381 22.234619 
L 378.023381 22.234619 
" clip-path="url(#p692c72e7f6)" style="fill: none; stroke: #1f77b4; stroke-width: 1.5; stroke-linecap: square"/>
   </g>
   <g id="patch_3">
    <path d="M 58.441563 228.96 
L 58.441563 7.2 
" style="fill: none; stroke: #000000; stroke-width: 0.8; stroke-linejoin: miter; stroke-linecap: square"/>
   </g>
   <g id="patch_4">
    <path d="M 393.241563 228.96 
L 393.241563 7.2 
" style="fill: none; stroke: #000000; stroke-width: 0.8; stroke-linejoin: miter; stroke-linecap: square"/>
   </g>
   <g id="patch_5">
    <path d="M 58.441563 228.96 
L 393.241563 228.96 
" style="fill: none; stroke: #000000; stroke-width: 0.8; stroke-linejoin: miter; stroke-linecap: square"/>
   </g>
   <g id="patch_6">
    <path d="M 58.441563 7.2 
L 393.241563 7.2 
" style="fill: none; stroke: #000000; stroke-width: 0.8; stroke-linejoin: miter; stroke-linecap: square"/>
   </g>
  </g>
 </g>
 <defs>
  <clipPath id="p692c72e7f6">
   <rect x="58.441563" y="7.2" width="334.8" height="221.76"/>
  </clipPath>
 </defs>
</svg>
