<?xml version="1.0" encoding="utf-8" standalone="no"?>
<!DOCTYPE svg PUBLIC "-//W3C//DTD SVG 1.1//EN"
  "http://www.w3.org/Graphics/SVG/1.1/DTD/svg11.dtd">
<svg xmlns:xlink="http://www.w3.org/1999/xlink" width="460.8pt" height="345.6pt" viewBox="0 0 460.8 345.6" xmlns="http://www.w3.org/2000/svg" version="1.1">
 <metadata>
  <rdf:RDF xmlns:dc="http://purl.org/dc/elements/1.1/" xmlns:cc="http://creativecommons.org/ns#" xmlns:rdf="http://www.w3.org/1999/02/22-rdf-syntax-ns#">
   <cc:Work>
    <dc:type rdf:resource="http://purl.org/dc/dcmitype/StillImage"/>
    <dc:date>2022-10-26T16:05:18.393013</dc:date>
    <dc:format>image/svg+xml</dc:format>
    <dc:creator>
     <cc:Agent>
      <dc:title>Matplotlib v3.5.3, https://matplotlib.org/</dc:title>
     </cc:Agent>
    </dc:creator>
   </cc:Work>
  </rdf:RDF>
 </metadata>
 <defs>
  <style type="text/css">*{stroke-linejoin: round; stroke-linecap: butt}</style>
 </defs>
 <g id="figure_1">
  <g id="patch_1">
   <path d="M 0 345.6 
L 460.8 345.6 
L 460.8 0 
L 0 0 
z
" style="fill: #ffffff"/>
  </g>
  <g id="axes_1">
   <g id="patch_2">
    <path d="M 57.6 307.584 
L 414.72 307.584 
L 414.72 41.472 
L 57.6 41.472 
z
" style="fill: #ffffff"/>
   </g>
   <g id="matplotlib.axis_1">
    <g id="xtick_1">
     <g id="line2d_1">
      <path d="M 73.832727 307.584 
L 73.832727 41.472 
" clip-path="url(#p9f10941ee7)" style="fill: none; stroke: #b0b0b0; stroke-width: 0.8; stroke-linecap: square"/>
     </g>
     <g id="line2d_2">
      <defs>
       <path id="me1d5e1c5cd" d="M 0 0 
L 0 3.5 
" style="stroke: #000000; stroke-width: 0.8"/>
      </defs>
      <g>
       <use xlink:href="#me1d5e1c5cd" x="73.832727" y="307.584" style="stroke: #000000; stroke-width: 0.8"/>
      </g>
     </g>
     <g id="text_1">
      <!-- −1 -->
      <g transform="translate(66.461634 322.182437)scale(0.1 -0.1)">
       <defs>
        <path id="DejaVuSans-2212" d="M 678 2272 
L 4684 2272 
L 4684 1741 
L 678 1741 
L 678 2272 
z
" transform="scale(0.015625)"/>
        <path id="DejaVuSans-31" d="M 794 531 
L 1825 531 
L 1825 4091 
L 703 3866 
L 703 4441 
L 1819 4666 
L 2450 4666 
L 2450 531 
L 3481 531 
L 3481 0 
L 794 0 
L 794 531 
z
" transform="scale(0.015625)"/>
       </defs>
       <use xlink:href="#DejaVuSans-2212"/>
       <use xlink:href="#DejaVuSans-31" x="83.789062"/>
      </g>
     </g>
    </g>
    <g id="xtick_2">
     <g id="line2d_3">
      <path d="M 127.941818 307.584 
L 127.941818 41.472 
" clip-path="url(#p9f10941ee7)" style="fill: none; stroke: #b0b0b0; stroke-width: 0.8; stroke-linecap: square"/>
     </g>
     <g id="line2d_4">
      <g>
       <use xlink:href="#me1d5e1c5cd" x="127.941818" y="307.584" style="stroke: #000000; stroke-width: 0.8"/>
      </g>
     </g>
     <g id="text_2">
      <!-- 0 -->
      <g transform="translate(124.760568 322.182437)scale(0.1 -0.1)">
       <defs>
        <path id="DejaVuSans-30" d="M 2034 4250 
Q 1547 4250 1301 3770 
Q 1056 3291 1056 2328 
Q 1056 1369 1301 889 
Q 1547 409 2034 409 
Q 2525 409 2770 889 
Q 3016 1369 3016 2328 
Q 3016 3291 2770 3770 
Q 2525 4250 2034 4250 
z
M 2034 4750 
Q 2819 4750 3233 4129 
Q 3647 3509 3647 2328 
Q 3647 1150 3233 529 
Q 2819 -91 2034 -91 
Q 1250 -91 836 529 
Q 422 1150 422 2328 
Q 422 3509 836 4129 
Q 1250 4750 2034 4750 
z
" transform="scale(0.015625)"/>
       </defs>
       <use xlink:href="#DejaVuSans-30"/>
      </g>
     </g>
    </g>
    <g id="xtick_3">
     <g id="line2d_5">
      <path d="M 182.050909 307.584 
L 182.050909 41.472 
" clip-path="url(#p9f10941ee7)" style="fill: none; stroke: #b0b0b0; stroke-width: 0.8; stroke-linecap: square"/>
     </g>
     <g id="line2d_6">
      <g>
       <use xlink:href="#me1d5e1c5cd" x="182.050909" y="307.584" style="stroke: #000000; stroke-width: 0.8"/>
      </g>
     </g>
     <g id="text_3">
      <!-- 1 -->
      <g transform="translate(178.869659 322.182437)scale(0.1 -0.1)">
       <use xlink:href="#DejaVuSans-31"/>
      </g>
     </g>
    </g>
    <g id="xtick_4">
     <g id="line2d_7">
      <path d="M 236.16 307.584 
L 236.16 41.472 
" clip-path="url(#p9f10941ee7)" style="fill: none; stroke: #b0b0b0; stroke-width: 0.8; stroke-linecap: square"/>
     </g>
     <g id="line2d_8">
      <g>
       <use xlink:href="#me1d5e1c5cd" x="236.16" y="307.584" style="stroke: #000000; stroke-width: 0.8"/>
      </g>
     </g>
     <g id="text_4">
      <!-- 2 -->
      <g transform="translate(232.97875 322.182437)scale(0.1 -0.1)">
       <defs>
        <path id="DejaVuSans-32" d="M 1228 531 
L 3431 531 
L 3431 0 
L 469 0 
L 469 531 
Q 828 903 1448 1529 
Q 2069 2156 2228 2338 
Q 2531 2678 2651 2914 
Q 2772 3150 2772 3378 
Q 2772 3750 2511 3984 
Q 2250 4219 1831 4219 
Q 1534 4219 1204 4116 
Q 875 4013 500 3803 
L 500 4441 
Q 881 4594 1212 4672 
Q 1544 4750 1819 4750 
Q 2544 4750 2975 4387 
Q 3406 4025 3406 3419 
Q 3406 3131 3298 2873 
Q 3191 2616 2906 2266 
Q 2828 2175 2409 1742 
Q 1991 1309 1228 531 
z
" transform="scale(0.015625)"/>
       </defs>
       <use xlink:href="#DejaVuSans-32"/>
      </g>
     </g>
    </g>
    <g id="xtick_5">
     <g id="line2d_9">
      <path d="M 290.269091 307.584 
L 290.269091 41.472 
" clip-path="url(#p9f10941ee7)" style="fill: none; stroke: #b0b0b0; stroke-width: 0.8; stroke-linecap: square"/>
     </g>
     <g id="line2d_10">
      <g>
       <use xlink:href="#me1d5e1c5cd" x="290.269091" y="307.584" style="stroke: #000000; stroke-width: 0.8"/>
      </g>
     </g>
     <g id="text_5">
      <!-- 3 -->
      <g transform="translate(287.087841 322.182437)scale(0.1 -0.1)">
       <defs>
        <path id="DejaVuSans-33" d="M 2597 2516 
Q 3050 2419 3304 2112 
Q 3559 1806 3559 1356 
Q 3559 666 3084 287 
Q 2609 -91 1734 -91 
Q 1441 -91 1130 -33 
Q 819 25 488 141 
L 488 750 
Q 750 597 1062 519 
Q 1375 441 1716 441 
Q 2309 441 2620 675 
Q 2931 909 2931 1356 
Q 2931 1769 2642 2001 
Q 2353 2234 1838 2234 
L 1294 2234 
L 1294 2753 
L 1863 2753 
Q 2328 2753 2575 2939 
Q 2822 3125 2822 3475 
Q 2822 3834 2567 4026 
Q 2313 4219 1838 4219 
Q 1578 4219 1281 4162 
Q 984 4106 628 3988 
L 628 4550 
Q 988 4650 1302 4700 
Q 1616 4750 1894 4750 
Q 2613 4750 3031 4423 
Q 3450 4097 3450 3541 
Q 3450 3153 3228 2886 
Q 3006 2619 2597 2516 
z
" transform="scale(0.015625)"/>
       </defs>
       <use xlink:href="#DejaVuSans-33"/>
      </g>
     </g>
    </g>
    <g id="xtick_6">
     <g id="line2d_11">
      <path d="M 344.378182 307.584 
L 344.378182 41.472 
" clip-path="url(#p9f10941ee7)" style="fill: none; stroke: #b0b0b0; stroke-width: 0.8; stroke-linecap: square"/>
     </g>
     <g id="line2d_12">
      <g>
       <use xlink:href="#me1d5e1c5cd" x="344.378182" y="307.584" style="stroke: #000000; stroke-width: 0.8"/>
      </g>
     </g>
     <g id="text_6">
      <!-- 4 -->
      <g transform="translate(341.196932 322.182437)scale(0.1 -0.1)">
       <defs>
        <path id="DejaVuSans-34" d="M 2419 4116 
L 825 1625 
L 2419 1625 
L 2419 4116 
z
M 2253 4666 
L 3047 4666 
L 3047 1625 
L 3713 1625 
L 3713 1100 
L 3047 1100 
L 3047 0 
L 2419 0 
L 2419 1100 
L 313 1100 
L 313 1709 
L 2253 4666 
z
" transform="scale(0.015625)"/>
       </defs>
       <use xlink:href="#DejaVuSans-34"/>
      </g>
     </g>
    </g>
    <g id="xtick_7">
     <g id="line2d_13">
      <path d="M 398.487273 307.584 
L 398.487273 41.472 
" clip-path="url(#p9f10941ee7)" style="fill: none; stroke: #b0b0b0; stroke-width: 0.8; stroke-linecap: square"/>
     </g>
     <g id="line2d_14">
      <g>
       <use xlink:href="#me1d5e1c5cd" x="398.487273" y="307.584" style="stroke: #000000; stroke-width: 0.8"/>
      </g>
     </g>
     <g id="text_7">
      <!-- 5 -->
      <g transform="translate(395.306023 322.182437)scale(0.1 -0.1)">
       <defs>
        <path id="DejaVuSans-35" d="M 691 4666 
L 3169 4666 
L 3169 4134 
L 1269 4134 
L 1269 2991 
Q 1406 3038 1543 3061 
Q 1681 3084 1819 3084 
Q 2600 3084 3056 2656 
Q 3513 2228 3513 1497 
Q 3513 744 3044 326 
Q 2575 -91 1722 -91 
Q 1428 -91 1123 -41 
Q 819 9 494 109 
L 494 744 
Q 775 591 1075 516 
Q 1375 441 1709 441 
Q 2250 441 2565 725 
Q 2881 1009 2881 1497 
Q 2881 1984 2565 2268 
Q 2250 2553 1709 2553 
Q 1456 2553 1204 2497 
Q 953 2441 691 2322 
L 691 4666 
z
" transform="scale(0.015625)"/>
       </defs>
       <use xlink:href="#DejaVuSans-35"/>
      </g>
     </g>
    </g>
    <g id="text_8">
     <!-- x -->
     <g transform="translate(233.200625 335.860562)scale(0.1 -0.1)">
      <defs>
       <path id="DejaVuSans-78" d="M 3513 3500 
L 2247 1797 
L 3578 0 
L 2900 0 
L 1881 1375 
L 863 0 
L 184 0 
L 1544 1831 
L 300 3500 
L 978 3500 
L 1906 2253 
L 2834 3500 
L 3513 3500 
z
" transform="scale(0.015625)"/>
      </defs>
      <use xlink:href="#DejaVuSans-78"/>
     </g>
    </g>
   </g>
   <g id="matplotlib.axis_2">
    <g id="ytick_1">
     <g id="line2d_15">
      <path d="M 57.6 303.359247 
L 414.72 303.359247 
" clip-path="url(#p9f10941ee7)" style="fill: none; stroke: #b0b0b0; stroke-width: 0.8; stroke-linecap: square"/>
     </g>
     <g id="line2d_16">
      <defs>
       <path id="m802e3d1486" d="M 0 0 
L -3.5 0 
" style="stroke: #000000; stroke-width: 0.8"/>
      </defs>
      <g>
       <use xlink:href="#m802e3d1486" x="57.6" y="303.359247" style="stroke: #000000; stroke-width: 0.8"/>
      </g>
     </g>
     <g id="text_9">
      <!-- −0.6 -->
      <g transform="translate(26.317187 307.158466)scale(0.1 -0.1)">
       <defs>
        <path id="DejaVuSans-2e" d="M 684 794 
L 1344 794 
L 1344 0 
L 684 0 
L 684 794 
z
" transform="scale(0.015625)"/>
        <path id="DejaVuSans-36" d="M 2113 2584 
Q 1688 2584 1439 2293 
Q 1191 2003 1191 1497 
Q 1191 994 1439 701 
Q 1688 409 2113 409 
Q 2538 409 2786 701 
Q 3034 994 3034 1497 
Q 3034 2003 2786 2293 
Q 2538 2584 2113 2584 
z
M 3366 4563 
L 3366 3988 
Q 3128 4100 2886 4159 
Q 2644 4219 2406 4219 
Q 1781 4219 1451 3797 
Q 1122 3375 1075 2522 
Q 1259 2794 1537 2939 
Q 1816 3084 2150 3084 
Q 2853 3084 3261 2657 
Q 3669 2231 3669 1497 
Q 3669 778 3244 343 
Q 2819 -91 2113 -91 
Q 1303 -91 875 529 
Q 447 1150 447 2328 
Q 447 3434 972 4092 
Q 1497 4750 2381 4750 
Q 2619 4750 2861 4703 
Q 3103 4656 3366 4563 
z
" transform="scale(0.015625)"/>
       </defs>
       <use xlink:href="#DejaVuSans-2212"/>
       <use xlink:href="#DejaVuSans-30" x="83.789062"/>
       <use xlink:href="#DejaVuSans-2e" x="147.412109"/>
       <use xlink:href="#DejaVuSans-36" x="179.199219"/>
      </g>
     </g>
    </g>
    <g id="ytick_2">
     <g id="line2d_17">
      <path d="M 57.6 272.176519 
L 414.72 272.176519 
" clip-path="url(#p9f10941ee7)" style="fill: none; stroke: #b0b0b0; stroke-width: 0.8; stroke-linecap: square"/>
     </g>
     <g id="line2d_18">
      <g>
       <use xlink:href="#m802e3d1486" x="57.6" y="272.176519" style="stroke: #000000; stroke-width: 0.8"/>
      </g>
     </g>
     <g id="text_10">
      <!-- −0.4 -->
      <g transform="translate(26.317187 275.975738)scale(0.1 -0.1)">
       <use xlink:href="#DejaVuSans-2212"/>
       <use xlink:href="#DejaVuSans-30" x="83.789062"/>
       <use xlink:href="#DejaVuSans-2e" x="147.412109"/>
       <use xlink:href="#DejaVuSans-34" x="179.199219"/>
      </g>
     </g>
    </g>
    <g id="ytick_3">
     <g id="line2d_19">
      <path d="M 57.6 240.993792 
L 414.72 240.993792 
" clip-path="url(#p9f10941ee7)" style="fill: none; stroke: #b0b0b0; stroke-width: 0.8; stroke-linecap: square"/>
     </g>
     <g id="line2d_20">
      <g>
       <use xlink:href="#m802e3d1486" x="57.6" y="240.993792" style="stroke: #000000; stroke-width: 0.8"/>
      </g>
     </g>
     <g id="text_11">
      <!-- −0.2 -->
      <g transform="translate(26.317187 244.793011)scale(0.1 -0.1)">
       <use xlink:href="#DejaVuSans-2212"/>
       <use xlink:href="#DejaVuSans-30" x="83.789062"/>
       <use xlink:href="#DejaVuSans-2e" x="147.412109"/>
       <use xlink:href="#DejaVuSans-32" x="179.199219"/>
      </g>
     </g>
    </g>
    <g id="ytick_4">
     <g id="line2d_21">
      <path d="M 57.6 209.811064 
L 414.72 209.811064 
" clip-path="url(#p9f10941ee7)" style="fill: none; stroke: #b0b0b0; stroke-width: 0.8; stroke-linecap: square"/>
     </g>
     <g id="line2d_22">
      <g>
       <use xlink:href="#m802e3d1486" x="57.6" y="209.811064" style="stroke: #000000; stroke-width: 0.8"/>
      </g>
     </g>
     <g id="text_12">
      <!-- 0.0 -->
      <g transform="translate(34.696875 213.610283)scale(0.1 -0.1)">
       <use xlink:href="#DejaVuSans-30"/>
       <use xlink:href="#DejaVuSans-2e" x="63.623047"/>
       <use xlink:href="#DejaVuSans-30" x="95.410156"/>
      </g>
     </g>
    </g>
    <g id="ytick_5">
     <g id="line2d_23">
      <path d="M 57.6 178.628336 
L 414.72 178.628336 
" clip-path="url(#p9f10941ee7)" style="fill: none; stroke: #b0b0b0; stroke-width: 0.8; stroke-linecap: square"/>
     </g>
     <g id="line2d_24">
      <g>
       <use xlink:href="#m802e3d1486" x="57.6" y="178.628336" style="stroke: #000000; stroke-width: 0.8"/>
      </g>
     </g>
     <g id="text_13">
      <!-- 0.2 -->
      <g transform="translate(34.696875 182.427555)scale(0.1 -0.1)">
       <use xlink:href="#DejaVuSans-30"/>
       <use xlink:href="#DejaVuSans-2e" x="63.623047"/>
       <use xlink:href="#DejaVuSans-32" x="95.410156"/>
      </g>
     </g>
    </g>
    <g id="ytick_6">
     <g id="line2d_25">
      <path d="M 57.6 147.445609 
L 414.72 147.445609 
" clip-path="url(#p9f10941ee7)" style="fill: none; stroke: #b0b0b0; stroke-width: 0.8; stroke-linecap: square"/>
     </g>
     <g id="line2d_26">
      <g>
       <use xlink:href="#m802e3d1486" x="57.6" y="147.445609" style="stroke: #000000; stroke-width: 0.8"/>
      </g>
     </g>
     <g id="text_14">
      <!-- 0.4 -->
      <g transform="translate(34.696875 151.244827)scale(0.1 -0.1)">
       <use xlink:href="#DejaVuSans-30"/>
       <use xlink:href="#DejaVuSans-2e" x="63.623047"/>
       <use xlink:href="#DejaVuSans-34" x="95.410156"/>
      </g>
     </g>
    </g>
    <g id="ytick_7">
     <g id="line2d_27">
      <path d="M 57.6 116.262881 
L 414.72 116.262881 
" clip-path="url(#p9f10941ee7)" style="fill: none; stroke: #b0b0b0; stroke-width: 0.8; stroke-linecap: square"/>
     </g>
     <g id="line2d_28">
      <g>
       <use xlink:href="#m802e3d1486" x="57.6" y="116.262881" style="stroke: #000000; stroke-width: 0.8"/>
      </g>
     </g>
     <g id="text_15">
      <!-- 0.6 -->
      <g transform="translate(34.696875 120.0621)scale(0.1 -0.1)">
       <use xlink:href="#DejaVuSans-30"/>
       <use xlink:href="#DejaVuSans-2e" x="63.623047"/>
       <use xlink:href="#DejaVuSans-36" x="95.410156"/>
      </g>
     </g>
    </g>
    <g id="ytick_8">
     <g id="line2d_29">
      <path d="M 57.6 85.080153 
L 414.72 85.080153 
" clip-path="url(#p9f10941ee7)" style="fill: none; stroke: #b0b0b0; stroke-width: 0.8; stroke-linecap: square"/>
     </g>
     <g id="line2d_30">
      <g>
       <use xlink:href="#m802e3d1486" x="57.6" y="85.080153" style="stroke: #000000; stroke-width: 0.8"/>
      </g>
     </g>
     <g id="text_16">
      <!-- 0.8 -->
      <g transform="translate(34.696875 88.879372)scale(0.1 -0.1)">
       <defs>
        <path id="DejaVuSans-38" d="M 2034 2216 
Q 1584 2216 1326 1975 
Q 1069 1734 1069 1313 
Q 1069 891 1326 650 
Q 1584 409 2034 409 
Q 2484 409 2743 651 
Q 3003 894 3003 1313 
Q 3003 1734 2745 1975 
Q 2488 2216 2034 2216 
z
M 1403 2484 
Q 997 2584 770 2862 
Q 544 3141 544 3541 
Q 544 4100 942 4425 
Q 1341 4750 2034 4750 
Q 2731 4750 3128 4425 
Q 3525 4100 3525 3541 
Q 3525 3141 3298 2862 
Q 3072 2584 2669 2484 
Q 3125 2378 3379 2068 
Q 3634 1759 3634 1313 
Q 3634 634 3220 271 
Q 2806 -91 2034 -91 
Q 1263 -91 848 271 
Q 434 634 434 1313 
Q 434 1759 690 2068 
Q 947 2378 1403 2484 
z
M 1172 3481 
Q 1172 3119 1398 2916 
Q 1625 2713 2034 2713 
Q 2441 2713 2670 2916 
Q 2900 3119 2900 3481 
Q 2900 3844 2670 4047 
Q 2441 4250 2034 4250 
Q 1625 4250 1398 4047 
Q 1172 3844 1172 3481 
z
" transform="scale(0.015625)"/>
       </defs>
       <use xlink:href="#DejaVuSans-30"/>
       <use xlink:href="#DejaVuSans-2e" x="63.623047"/>
       <use xlink:href="#DejaVuSans-38" x="95.410156"/>
      </g>
     </g>
    </g>
    <g id="ytick_9">
     <g id="line2d_31">
      <path d="M 57.6 53.897426 
L 414.72 53.897426 
" clip-path="url(#p9f10941ee7)" style="fill: none; stroke: #b0b0b0; stroke-width: 0.8; stroke-linecap: square"/>
     </g>
     <g id="line2d_32">
      <g>
       <use xlink:href="#m802e3d1486" x="57.6" y="53.897426" style="stroke: #000000; stroke-width: 0.8"/>
      </g>
     </g>
     <g id="text_17">
      <!-- 1.0 -->
      <g transform="translate(34.696875 57.696644)scale(0.1 -0.1)">
       <use xlink:href="#DejaVuSans-31"/>
       <use xlink:href="#DejaVuSans-2e" x="63.623047"/>
       <use xlink:href="#DejaVuSans-30" x="95.410156"/>
      </g>
     </g>
    </g>
    <g id="text_18">
     <!-- f(x) -->
     <g transform="translate(20.2375 183.149094)rotate(-90)scale(0.1 -0.1)">
      <defs>
       <path id="DejaVuSans-66" d="M 2375 4863 
L 2375 4384 
L 1825 4384 
Q 1516 4384 1395 4259 
Q 1275 4134 1275 3809 
L 1275 3500 
L 2222 3500 
L 2222 3053 
L 1275 3053 
L 1275 0 
L 697 0 
L 697 3053 
L 147 3053 
L 147 3500 
L 697 3500 
L 697 3744 
Q 697 4328 969 4595 
Q 1241 4863 1831 4863 
L 2375 4863 
z
" transform="scale(0.015625)"/>
       <path id="DejaVuSans-28" d="M 1984 4856 
Q 1566 4138 1362 3434 
Q 1159 2731 1159 2009 
Q 1159 1288 1364 580 
Q 1569 -128 1984 -844 
L 1484 -844 
Q 1016 -109 783 600 
Q 550 1309 550 2009 
Q 550 2706 781 3412 
Q 1013 4119 1484 4856 
L 1984 4856 
z
" transform="scale(0.015625)"/>
       <path id="DejaVuSans-29" d="M 513 4856 
L 1013 4856 
Q 1481 4119 1714 3412 
Q 1947 2706 1947 2009 
Q 1947 1309 1714 600 
Q 1481 -109 1013 -844 
L 513 -844 
Q 928 -128 1133 580 
Q 1338 1288 1338 2009 
Q 1338 2731 1133 3434 
Q 928 4138 513 4856 
z
" transform="scale(0.015625)"/>
      </defs>
      <use xlink:href="#DejaVuSans-66"/>
      <use xlink:href="#DejaVuSans-28" x="35.205078"/>
      <use xlink:href="#DejaVuSans-78" x="74.21875"/>
      <use xlink:href="#DejaVuSans-29" x="133.398438"/>
     </g>
    </g>
   </g>
   <g id="line2d_33">
    <path d="M 73.832727 147.445609 
L 77.112066 141.63313 
L 80.391405 135.538497 
L 83.670744 129.173821 
L 86.950083 122.562054 
L 90.229421 115.739606 
L 93.50876 108.759016 
L 96.788099 101.691391 
L 100.067438 94.628209 
L 103.346777 87.68195 
L 106.626116 80.984951 
L 109.905455 74.685911 
L 113.184793 68.943637 
L 116.464132 63.918013 
L 119.743471 59.758713 
L 123.02281 56.592803 
L 126.302149 54.512931 
L 129.581488 53.568 
L 132.860826 53.758009 
L 136.140165 55.034057 
L 139.419504 57.303495 
L 142.698843 60.439257 
L 145.978182 64.291668 
L 149.257521 68.700846 
L 152.53686 73.507983 
L 155.816198 78.56438 
L 159.095537 83.737699 
L 162.374876 88.915462 
L 165.654215 94.00619 
L 168.933554 98.938776 
L 172.212893 103.66068 
L 175.492231 108.135494 
L 178.77157 112.340264 
L 182.050909 116.262881 
L 185.330248 119.899682 
L 188.609587 123.253372 
L 191.888926 126.331285 
L 195.168264 129.143964 
L 198.447603 131.704046 
L 201.726942 134.025402 
L 205.006281 136.12248 
L 208.28562 138.009835 
L 211.564959 139.701783 
L 214.844298 141.212166 
L 218.123636 142.5542 
L 221.402975 143.740381 
L 224.682314 144.782433 
L 227.961653 145.691298 
L 231.240992 146.477138 
L 234.520331 147.149362 
L 237.799669 147.716654 
L 241.079008 148.187016 
L 244.358347 148.567811 
L 247.637686 148.865803 
L 250.917025 149.087205 
L 254.196364 149.237719 
L 257.475702 149.32258 
L 260.755041 149.346588 
L 264.03438 149.314151 
L 267.313719 149.229317 
L 270.593058 149.0958 
L 273.872397 148.917016 
L 277.151736 148.696105 
L 280.431074 148.435952 
L 283.710413 148.139218 
L 286.989752 147.808351 
L 290.269091 147.445609 
L 293.54843 147.053073 
L 296.827769 146.632667 
L 300.107107 146.186168 
L 303.386446 145.71522 
L 306.665785 145.221341 
L 309.945124 144.705943 
L 313.224463 144.170329 
L 316.503802 143.615713 
L 319.78314 143.043219 
L 323.062479 142.453894 
L 326.341818 141.848709 
L 329.621157 141.22857 
L 332.900496 140.594321 
L 336.179835 139.946748 
L 339.459174 139.286584 
L 342.738512 138.614515 
L 346.017851 137.931182 
L 349.29719 137.237182 
L 352.576529 136.533077 
L 355.855868 135.819391 
L 359.135207 135.096616 
L 362.414545 134.365214 
L 365.693884 133.625617 
L 368.973223 132.878232 
L 372.252562 132.123443 
L 375.531901 131.361607 
L 378.81124 130.593064 
L 382.090579 129.818132 
L 385.369917 129.037111 
L 388.649256 128.250284 
L 391.928595 127.457919 
L 395.207934 126.660267 
L 398.487273 125.857566 
" clip-path="url(#p9f10941ee7)" style="fill: none; stroke: #1f77b4; stroke-opacity: 0.3; stroke-width: 2; stroke-linecap: square"/>
   </g>
   <g id="line2d_34">
    <path d="M 73.832727 116.262881 
L 77.112066 111.556942 
L 80.391405 106.97495 
L 83.670744 102.675269 
L 86.950083 98.857932 
L 90.229421 95.767206 
L 93.50876 93.69047 
L 96.788099 92.9514 
L 100.067438 93.895338 
L 103.346777 96.865106 
L 106.626116 102.166691 
L 109.905455 110.026335 
L 113.184793 120.543587 
L 116.464132 133.648046 
L 119.743471 149.06993 
L 123.02281 166.334582 
L 126.302149 184.787719 
L 129.581488 203.651681 
L 132.860826 222.104819 
L 136.140165 239.36947 
L 139.419504 254.791355 
L 142.698843 267.895814 
L 145.978182 278.413065 
L 149.257521 286.27271 
L 152.53686 291.574294 
L 155.816198 294.544063 
L 159.095537 295.488 
L 162.374876 294.74893 
L 165.654215 292.672195 
L 168.933554 289.581469 
L 172.212893 285.764131 
L 175.492231 281.46445 
L 178.77157 276.882459 
L 182.050909 272.176519 
L 185.330248 267.467951 
L 188.609587 262.846522 
L 191.888926 258.37603 
L 195.168264 254.099486 
L 198.447603 250.04368 
L 201.726942 246.223038 
L 205.006281 242.642788 
L 208.28562 239.30149 
L 211.564959 236.193024 
L 214.844298 233.308121 
L 218.123636 230.635515 
L 221.402975 228.162814 
L 224.682314 225.877121 
L 227.961653 223.76549 
L 231.240992 221.815235 
L 234.520331 220.014145 
L 237.799669 218.350611 
L 241.079008 216.813708 
L 244.358347 215.393233 
L 247.637686 214.079705 
L 250.917025 212.864362 
L 254.196364 211.739128 
L 257.475702 210.696583 
L 260.755041 209.729924 
L 264.03438 208.832921 
L 267.313719 207.999878 
L 270.593058 207.225588 
L 273.872397 206.5053 
L 277.151736 205.834671 
L 280.431074 205.209742 
L 283.710413 204.626894 
L 286.989752 204.082825 
L 290.269091 203.574519 
L 293.54843 203.099219 
L 296.827769 202.654406 
L 300.107107 202.237775 
L 303.386446 201.847217 
L 306.665785 201.480801 
L 309.945124 201.136757 
L 313.224463 200.813462 
L 316.503802 200.509426 
L 319.78314 200.223282 
L 323.062479 199.953773 
L 326.341818 199.699742 
L 329.621157 199.460124 
L 332.900496 199.23394 
L 336.179835 199.020286 
L 339.459174 198.818327 
L 342.738512 198.627293 
L 346.017851 198.446473 
L 349.29719 198.275208 
L 352.576529 198.112889 
L 355.855868 197.958952 
L 359.135207 197.812874 
L 362.414545 197.674169 
L 365.693884 197.542386 
L 368.973223 197.417108 
L 372.252562 197.297945 
L 375.531901 197.184536 
L 378.81124 197.076541 
L 382.090579 196.973649 
L 385.369917 196.875565 
L 388.649256 196.782017 
L 391.928595 196.692749 
L 395.207934 196.607522 
L 398.487273 196.526115 
" clip-path="url(#p9f10941ee7)" style="fill: none; stroke: #ff7f0e; stroke-opacity: 0.3; stroke-width: 2; stroke-linecap: square"/>
   </g>
   <g id="patch_3">
    <path d="M 57.6 307.584 
L 57.6 41.472 
" style="fill: none; stroke: #000000; stroke-width: 0.8; stroke-linejoin: miter; stroke-linecap: square"/>
   </g>
   <g id="patch_4">
    <path d="M 414.72 307.584 
L 414.72 41.472 
" style="fill: none; stroke: #000000; stroke-width: 0.8; stroke-linejoin: miter; stroke-linecap: square"/>
   </g>
   <g id="patch_5">
    <path d="M 57.6 307.584 
L 414.72 307.584 
" style="fill: none; stroke: #000000; stroke-width: 0.8; stroke-linejoin: miter; stroke-linecap: square"/>
   </g>
   <g id="patch_6">
    <path d="M 57.6 41.472 
L 414.72 41.472 
" style="fill: none; stroke: #000000; stroke-width: 0.8; stroke-linejoin: miter; stroke-linecap: square"/>
   </g>
   <g id="PathCollection_1">
    <defs>
     <path id="m2caf5b3957" d="M 0 3 
C 0.795609 3 1.55874 2.683901 2.12132 2.12132 
C 2.683901 1.55874 3 0.795609 3 0 
C 3 -0.795609 2.683901 -1.55874 2.12132 -2.12132 
C 1.55874 -2.683901 0.795609 -3 0 -3 
C -0.795609 -3 -1.55874 -2.683901 -2.12132 -2.12132 
C -2.683901 -1.55874 -3 -0.795609 -3 0 
C -3 0.795609 -2.683901 1.55874 -2.12132 2.12132 
C -1.55874 2.683901 -0.795609 3 0 3 
z
" style="stroke: #1f77b4"/>
    </defs>
    <g clip-path="url(#p9f10941ee7)">
     <use xlink:href="#m2caf5b3957" x="73.832727" y="147.445609" style="fill: #1f77b4; stroke: #1f77b4"/>
     <use xlink:href="#m2caf5b3957" x="90.919809" y="114.281059" style="fill: #1f77b4; stroke: #1f77b4"/>
     <use xlink:href="#m2caf5b3957" x="108.00689" y="78.275193" style="fill: #1f77b4; stroke: #1f77b4"/>
     <use xlink:href="#m2caf5b3957" x="125.093971" y="55.148724" style="fill: #1f77b4; stroke: #1f77b4"/>
     <use xlink:href="#m2caf5b3957" x="142.181053" y="59.892469" style="fill: #1f77b4; stroke: #1f77b4"/>
     <use xlink:href="#m2caf5b3957" x="159.268134" y="84.010992" style="fill: #1f77b4; stroke: #1f77b4"/>
     <use xlink:href="#m2caf5b3957" x="176.355215" y="109.26886" style="fill: #1f77b4; stroke: #1f77b4"/>
     <use xlink:href="#m2caf5b3957" x="193.442297" y="127.695933" style="fill: #1f77b4; stroke: #1f77b4"/>
     <use xlink:href="#m2caf5b3957" x="210.529378" y="139.187743" style="fill: #1f77b4; stroke: #1f77b4"/>
     <use xlink:href="#m2caf5b3957" x="227.616459" y="145.601591" style="fill: #1f77b4; stroke: #1f77b4"/>
     <use xlink:href="#m2caf5b3957" x="244.703541" y="148.602965" style="fill: #1f77b4; stroke: #1f77b4"/>
     <use xlink:href="#m2caf5b3957" x="261.790622" y="149.342244" style="fill: #1f77b4; stroke: #1f77b4"/>
     <use xlink:href="#m2caf5b3957" x="278.877703" y="148.5639" style="fill: #1f77b4; stroke: #1f77b4"/>
     <use xlink:href="#m2caf5b3957" x="295.964785" y="146.7459" style="fill: #1f77b4; stroke: #1f77b4"/>
     <use xlink:href="#m2caf5b3957" x="313.051866" y="144.199003" style="fill: #1f77b4; stroke: #1f77b4"/>
     <use xlink:href="#m2caf5b3957" x="330.138947" y="141.129343" style="fill: #1f77b4; stroke: #1f77b4"/>
     <use xlink:href="#m2caf5b3957" x="347.226029" y="137.676708" style="fill: #1f77b4; stroke: #1f77b4"/>
     <use xlink:href="#m2caf5b3957" x="364.31311" y="133.937998" style="fill: #1f77b4; stroke: #1f77b4"/>
     <use xlink:href="#m2caf5b3957" x="381.400191" y="129.981791" style="fill: #1f77b4; stroke: #1f77b4"/>
     <use xlink:href="#m2caf5b3957" x="398.487273" y="125.857566" style="fill: #1f77b4; stroke: #1f77b4"/>
    </g>
   </g>
   <g id="PathCollection_2">
    <defs>
     <path id="meae1a4c31d" d="M 0 3 
C 0.795609 3 1.55874 2.683901 2.12132 2.12132 
C 2.683901 1.55874 3 0.795609 3 0 
C 3 -0.795609 2.683901 -1.55874 2.12132 -2.12132 
C 1.55874 -2.683901 0.795609 -3 0 -3 
C -0.795609 -3 -1.55874 -2.683901 -2.12132 -2.12132 
C -2.683901 -1.55874 -3 -0.795609 -3 0 
C -3 0.795609 -2.683901 1.55874 -2.12132 2.12132 
C -1.55874 2.683901 -0.795609 3 0 3 
z
" style="stroke: #ff7f0e"/>
    </defs>
    <g clip-path="url(#p9f10941ee7)">
     <use xlink:href="#meae1a4c31d" x="73.832727" y="109.288741" style="fill: #ff7f0e; stroke: #ff7f0e"/>
     <use xlink:href="#meae1a4c31d" x="90.919809" y="100.29124" style="fill: #ff7f0e; stroke: #ff7f0e"/>
     <use xlink:href="#meae1a4c31d" x="108.00689" y="116.184867" style="fill: #ff7f0e; stroke: #ff7f0e"/>
     <use xlink:href="#meae1a4c31d" x="125.093971" y="180.705083" style="fill: #ff7f0e; stroke: #ff7f0e"/>
     <use xlink:href="#meae1a4c31d" x="142.181053" y="255.509655" style="fill: #ff7f0e; stroke: #ff7f0e"/>
     <use xlink:href="#meae1a4c31d" x="159.268134" y="287.990351" style="fill: #ff7f0e; stroke: #ff7f0e"/>
     <use xlink:href="#meae1a4c31d" x="176.355215" y="278.978887" style="fill: #ff7f0e; stroke: #ff7f0e"/>
     <use xlink:href="#meae1a4c31d" x="193.442297" y="257.182628" style="fill: #ff7f0e; stroke: #ff7f0e"/>
     <use xlink:href="#meae1a4c31d" x="210.529378" y="238.161689" style="fill: #ff7f0e; stroke: #ff7f0e"/>
     <use xlink:href="#meae1a4c31d" x="227.616459" y="224.7185" style="fill: #ff7f0e; stroke: #ff7f0e"/>
     <use xlink:href="#meae1a4c31d" x="244.703541" y="215.733764" style="fill: #ff7f0e; stroke: #ff7f0e"/>
     <use xlink:href="#meae1a4c31d" x="261.790622" y="209.749211" style="fill: #ff7f0e; stroke: #ff7f0e"/>
     <use xlink:href="#meae1a4c31d" x="278.877703" y="205.700187" style="fill: #ff7f0e; stroke: #ff7f0e"/>
     <use xlink:href="#meae1a4c31d" x="295.964785" y="202.899978" style="fill: #ff7f0e; stroke: #ff7f0e"/>
     <use xlink:href="#meae1a4c31d" x="313.051866" y="200.918181" style="fill: #ff7f0e; stroke: #ff7f0e"/>
     <use xlink:href="#meae1a4c31d" x="330.138947" y="199.484096" style="fill: #ff7f0e; stroke: #ff7f0e"/>
     <use xlink:href="#meae1a4c31d" x="347.226029" y="198.424768" style="fill: #ff7f0e; stroke: #ff7f0e"/>
     <use xlink:href="#meae1a4c31d" x="364.31311" y="197.627446" style="fill: #ff7f0e; stroke: #ff7f0e"/>
     <use xlink:href="#meae1a4c31d" x="381.400191" y="197.017047" style="fill: #ff7f0e; stroke: #ff7f0e"/>
     <use xlink:href="#meae1a4c31d" x="398.487273" y="196.484992" style="fill: #ff7f0e; stroke: #ff7f0e"/>
    </g>
   </g>
   <g id="legend_1">
    <g id="patch_7">
     <path d="M 277.82 108.406375 
L 407.72 108.406375 
Q 409.72 108.406375 409.72 106.406375 
L 409.72 48.472 
Q 409.72 46.472 407.72 46.472 
L 277.82 46.472 
Q 275.82 46.472 275.82 48.472 
L 275.82 106.406375 
Q 275.82 108.406375 277.82 108.406375 
z
" style="fill: #ffffff; opacity: 0.8; stroke: #cccccc; stroke-linejoin: miter"/>
    </g>
    <g id="line2d_35">
     <path d="M 279.82 54.570437 
L 289.82 54.570437 
L 299.82 54.570437 
" style="fill: none; stroke: #1f77b4; stroke-opacity: 0.3; stroke-width: 2; stroke-linecap: square"/>
    </g>
    <g id="text_19">
     <!-- exact $\sf f(x)$ -->
     <g transform="translate(307.82 58.070437)scale(0.1 -0.1)">
      <defs>
       <path id="DejaVuSans-65" d="M 3597 1894 
L 3597 1613 
L 953 1613 
Q 991 1019 1311 708 
Q 1631 397 2203 397 
Q 2534 397 2845 478 
Q 3156 559 3463 722 
L 3463 178 
Q 3153 47 2828 -22 
Q 2503 -91 2169 -91 
Q 1331 -91 842 396 
Q 353 884 353 1716 
Q 353 2575 817 3079 
Q 1281 3584 2069 3584 
Q 2775 3584 3186 3129 
Q 3597 2675 3597 1894 
z
M 3022 2063 
Q 3016 2534 2758 2815 
Q 2500 3097 2075 3097 
Q 1594 3097 1305 2825 
Q 1016 2553 972 2059 
L 3022 2063 
z
" transform="scale(0.015625)"/>
       <path id="DejaVuSans-61" d="M 2194 1759 
Q 1497 1759 1228 1600 
Q 959 1441 959 1056 
Q 959 750 1161 570 
Q 1363 391 1709 391 
Q 2188 391 2477 730 
Q 2766 1069 2766 1631 
L 2766 1759 
L 2194 1759 
z
M 3341 1997 
L 3341 0 
L 2766 0 
L 2766 531 
Q 2569 213 2275 61 
Q 1981 -91 1556 -91 
Q 1019 -91 701 211 
Q 384 513 384 1019 
Q 384 1609 779 1909 
Q 1175 2209 1959 2209 
L 2766 2209 
L 2766 2266 
Q 2766 2663 2505 2880 
Q 2244 3097 1772 3097 
Q 1472 3097 1187 3025 
Q 903 2953 641 2809 
L 641 3341 
Q 956 3463 1253 3523 
Q 1550 3584 1831 3584 
Q 2591 3584 2966 3190 
Q 3341 2797 3341 1997 
z
" transform="scale(0.015625)"/>
       <path id="DejaVuSans-63" d="M 3122 3366 
L 3122 2828 
Q 2878 2963 2633 3030 
Q 2388 3097 2138 3097 
Q 1578 3097 1268 2742 
Q 959 2388 959 1747 
Q 959 1106 1268 751 
Q 1578 397 2138 397 
Q 2388 397 2633 464 
Q 2878 531 3122 666 
L 3122 134 
Q 2881 22 2623 -34 
Q 2366 -91 2075 -91 
Q 1284 -91 818 406 
Q 353 903 353 1747 
Q 353 2603 823 3093 
Q 1294 3584 2113 3584 
Q 2378 3584 2631 3529 
Q 2884 3475 3122 3366 
z
" transform="scale(0.015625)"/>
       <path id="DejaVuSans-74" d="M 1172 4494 
L 1172 3500 
L 2356 3500 
L 2356 3053 
L 1172 3053 
L 1172 1153 
Q 1172 725 1289 603 
Q 1406 481 1766 481 
L 2356 481 
L 2356 0 
L 1766 0 
Q 1100 0 847 248 
Q 594 497 594 1153 
L 594 3053 
L 172 3053 
L 172 3500 
L 594 3500 
L 594 4494 
L 1172 4494 
z
" transform="scale(0.015625)"/>
       <path id="DejaVuSans-20" transform="scale(0.015625)"/>
      </defs>
      <use xlink:href="#DejaVuSans-65" transform="translate(0 0.015625)"/>
      <use xlink:href="#DejaVuSans-78" transform="translate(61.523438 0.015625)"/>
      <use xlink:href="#DejaVuSans-61" transform="translate(120.703125 0.015625)"/>
      <use xlink:href="#DejaVuSans-63" transform="translate(181.982422 0.015625)"/>
      <use xlink:href="#DejaVuSans-74" transform="translate(236.962891 0.015625)"/>
      <use xlink:href="#DejaVuSans-20" transform="translate(276.171875 0.015625)"/>
      <use xlink:href="#DejaVuSans-66" transform="translate(307.958984 0.015625)"/>
      <use xlink:href="#DejaVuSans-28" transform="translate(343.164062 0.015625)"/>
      <use xlink:href="#DejaVuSans-78" transform="translate(382.177734 0.015625)"/>
      <use xlink:href="#DejaVuSans-29" transform="translate(441.357422 0.015625)"/>
     </g>
    </g>
    <g id="PathCollection_3">
     <g>
      <use xlink:href="#m2caf5b3957" x="289.82" y="70.123562" style="fill: #1f77b4; stroke: #1f77b4"/>
     </g>
    </g>
    <g id="text_20">
     <!-- discretised $\sf f(x_i)$ -->
     <g transform="translate(307.82 72.748562)scale(0.1 -0.1)">
      <defs>
       <path id="DejaVuSans-64" d="M 2906 2969 
L 2906 4863 
L 3481 4863 
L 3481 0 
L 2906 0 
L 2906 525 
Q 2725 213 2448 61 
Q 2172 -91 1784 -91 
Q 1150 -91 751 415 
Q 353 922 353 1747 
Q 353 2572 751 3078 
Q 1150 3584 1784 3584 
Q 2172 3584 2448 3432 
Q 2725 3281 2906 2969 
z
M 947 1747 
Q 947 1113 1208 752 
Q 1469 391 1925 391 
Q 2381 391 2643 752 
Q 2906 1113 2906 1747 
Q 2906 2381 2643 2742 
Q 2381 3103 1925 3103 
Q 1469 3103 1208 2742 
Q 947 2381 947 1747 
z
" transform="scale(0.015625)"/>
       <path id="DejaVuSans-69" d="M 603 3500 
L 1178 3500 
L 1178 0 
L 603 0 
L 603 3500 
z
M 603 4863 
L 1178 4863 
L 1178 4134 
L 603 4134 
L 603 4863 
z
" transform="scale(0.015625)"/>
       <path id="DejaVuSans-73" d="M 2834 3397 
L 2834 2853 
Q 2591 2978 2328 3040 
Q 2066 3103 1784 3103 
Q 1356 3103 1142 2972 
Q 928 2841 928 2578 
Q 928 2378 1081 2264 
Q 1234 2150 1697 2047 
L 1894 2003 
Q 2506 1872 2764 1633 
Q 3022 1394 3022 966 
Q 3022 478 2636 193 
Q 2250 -91 1575 -91 
Q 1294 -91 989 -36 
Q 684 19 347 128 
L 347 722 
Q 666 556 975 473 
Q 1284 391 1588 391 
Q 1994 391 2212 530 
Q 2431 669 2431 922 
Q 2431 1156 2273 1281 
Q 2116 1406 1581 1522 
L 1381 1569 
Q 847 1681 609 1914 
Q 372 2147 372 2553 
Q 372 3047 722 3315 
Q 1072 3584 1716 3584 
Q 2034 3584 2315 3537 
Q 2597 3491 2834 3397 
z
" transform="scale(0.015625)"/>
       <path id="DejaVuSans-72" d="M 2631 2963 
Q 2534 3019 2420 3045 
Q 2306 3072 2169 3072 
Q 1681 3072 1420 2755 
Q 1159 2438 1159 1844 
L 1159 0 
L 581 0 
L 581 3500 
L 1159 3500 
L 1159 2956 
Q 1341 3275 1631 3429 
Q 1922 3584 2338 3584 
Q 2397 3584 2469 3576 
Q 2541 3569 2628 3553 
L 2631 2963 
z
" transform="scale(0.015625)"/>
      </defs>
      <use xlink:href="#DejaVuSans-64" transform="translate(0 0.015625)"/>
      <use xlink:href="#DejaVuSans-69" transform="translate(63.476562 0.015625)"/>
      <use xlink:href="#DejaVuSans-73" transform="translate(91.259766 0.015625)"/>
      <use xlink:href="#DejaVuSans-63" transform="translate(143.359375 0.015625)"/>
      <use xlink:href="#DejaVuSans-72" transform="translate(198.339844 0.015625)"/>
      <use xlink:href="#DejaVuSans-65" transform="translate(239.453125 0.015625)"/>
      <use xlink:href="#DejaVuSans-74" transform="translate(300.976562 0.015625)"/>
      <use xlink:href="#DejaVuSans-69" transform="translate(340.185547 0.015625)"/>
      <use xlink:href="#DejaVuSans-73" transform="translate(367.96875 0.015625)"/>
      <use xlink:href="#DejaVuSans-65" transform="translate(420.068359 0.015625)"/>
      <use xlink:href="#DejaVuSans-64" transform="translate(481.591797 0.015625)"/>
      <use xlink:href="#DejaVuSans-20" transform="translate(545.068359 0.015625)"/>
      <use xlink:href="#DejaVuSans-66" transform="translate(576.855469 0.015625)"/>
      <use xlink:href="#DejaVuSans-28" transform="translate(612.060547 0.015625)"/>
      <use xlink:href="#DejaVuSans-78" transform="translate(651.074219 0.015625)"/>
      <use xlink:href="#DejaVuSans-69" transform="translate(711.210938 -16.390625)scale(0.7)"/>
      <use xlink:href="#DejaVuSans-29" transform="translate(733.393555 0.015625)"/>
     </g>
    </g>
    <g id="line2d_36">
     <path d="M 279.82 83.926687 
L 289.82 83.926687 
L 299.82 83.926687 
" style="fill: none; stroke: #ff7f0e; stroke-opacity: 0.3; stroke-width: 2; stroke-linecap: square"/>
    </g>
    <g id="text_21">
     <!-- exact $\sf f'(x)$ -->
     <g transform="translate(307.82 87.426687)scale(0.1 -0.1)">
      <defs>
       <path id="Cmsy10-30" d="M 225 347 
Q 184 359 184 409 
L 966 3316 
Q 1003 3434 1093 3506 
Q 1184 3578 1300 3578 
Q 1450 3578 1564 3479 
Q 1678 3381 1678 3231 
Q 1678 3166 1644 3084 
L 488 319 
Q 466 275 428 275 
Q 394 275 320 306 
Q 247 338 225 347 
z
" transform="scale(0.015625)"/>
      </defs>
      <use xlink:href="#DejaVuSans-65" transform="translate(0 0.584375)"/>
      <use xlink:href="#DejaVuSans-78" transform="translate(61.523438 0.584375)"/>
      <use xlink:href="#DejaVuSans-61" transform="translate(120.703125 0.584375)"/>
      <use xlink:href="#DejaVuSans-63" transform="translate(181.982422 0.584375)"/>
      <use xlink:href="#DejaVuSans-74" transform="translate(236.962891 0.584375)"/>
      <use xlink:href="#DejaVuSans-20" transform="translate(276.171875 0.584375)"/>
      <use xlink:href="#DejaVuSans-66" transform="translate(307.958984 0.584375)"/>
      <use xlink:href="#Cmsy10-30" transform="translate(344.121094 38.865625)scale(0.7)"/>
      <use xlink:href="#DejaVuSans-28" transform="translate(366.098633 0.584375)"/>
      <use xlink:href="#DejaVuSans-78" transform="translate(405.112305 0.584375)"/>
      <use xlink:href="#DejaVuSans-29" transform="translate(464.291992 0.584375)"/>
     </g>
    </g>
    <g id="PathCollection_4">
     <g>
      <use xlink:href="#meae1a4c31d" x="289.82" y="99.681375" style="fill: #ff7f0e; stroke: #ff7f0e"/>
     </g>
    </g>
    <g id="text_22">
     <!-- approximation $\sf f'(x_i)$ -->
     <g transform="translate(307.82 102.306375)scale(0.1 -0.1)">
      <defs>
       <path id="DejaVuSans-70" d="M 1159 525 
L 1159 -1331 
L 581 -1331 
L 581 3500 
L 1159 3500 
L 1159 2969 
Q 1341 3281 1617 3432 
Q 1894 3584 2278 3584 
Q 2916 3584 3314 3078 
Q 3713 2572 3713 1747 
Q 3713 922 3314 415 
Q 2916 -91 2278 -91 
Q 1894 -91 1617 61 
Q 1341 213 1159 525 
z
M 3116 1747 
Q 3116 2381 2855 2742 
Q 2594 3103 2138 3103 
Q 1681 3103 1420 2742 
Q 1159 2381 1159 1747 
Q 1159 1113 1420 752 
Q 1681 391 2138 391 
Q 2594 391 2855 752 
Q 3116 1113 3116 1747 
z
" transform="scale(0.015625)"/>
       <path id="DejaVuSans-6f" d="M 1959 3097 
Q 1497 3097 1228 2736 
Q 959 2375 959 1747 
Q 959 1119 1226 758 
Q 1494 397 1959 397 
Q 2419 397 2687 759 
Q 2956 1122 2956 1747 
Q 2956 2369 2687 2733 
Q 2419 3097 1959 3097 
z
M 1959 3584 
Q 2709 3584 3137 3096 
Q 3566 2609 3566 1747 
Q 3566 888 3137 398 
Q 2709 -91 1959 -91 
Q 1206 -91 779 398 
Q 353 888 353 1747 
Q 353 2609 779 3096 
Q 1206 3584 1959 3584 
z
" transform="scale(0.015625)"/>
       <path id="DejaVuSans-6d" d="M 3328 2828 
Q 3544 3216 3844 3400 
Q 4144 3584 4550 3584 
Q 5097 3584 5394 3201 
Q 5691 2819 5691 2113 
L 5691 0 
L 5113 0 
L 5113 2094 
Q 5113 2597 4934 2840 
Q 4756 3084 4391 3084 
Q 3944 3084 3684 2787 
Q 3425 2491 3425 1978 
L 3425 0 
L 2847 0 
L 2847 2094 
Q 2847 2600 2669 2842 
Q 2491 3084 2119 3084 
Q 1678 3084 1418 2786 
Q 1159 2488 1159 1978 
L 1159 0 
L 581 0 
L 581 3500 
L 1159 3500 
L 1159 2956 
Q 1356 3278 1631 3431 
Q 1906 3584 2284 3584 
Q 2666 3584 2933 3390 
Q 3200 3197 3328 2828 
z
" transform="scale(0.015625)"/>
       <path id="DejaVuSans-6e" d="M 3513 2113 
L 3513 0 
L 2938 0 
L 2938 2094 
Q 2938 2591 2744 2837 
Q 2550 3084 2163 3084 
Q 1697 3084 1428 2787 
Q 1159 2491 1159 1978 
L 1159 0 
L 581 0 
L 581 3500 
L 1159 3500 
L 1159 2956 
Q 1366 3272 1645 3428 
Q 1925 3584 2291 3584 
Q 2894 3584 3203 3211 
Q 3513 2838 3513 2113 
z
" transform="scale(0.015625)"/>
      </defs>
      <use xlink:href="#DejaVuSans-61" transform="translate(0 0.584375)"/>
      <use xlink:href="#DejaVuSans-70" transform="translate(61.279297 0.584375)"/>
      <use xlink:href="#DejaVuSans-70" transform="translate(124.755859 0.584375)"/>
      <use xlink:href="#DejaVuSans-72" transform="translate(188.232422 0.584375)"/>
      <use xlink:href="#DejaVuSans-6f" transform="translate(229.345703 0.584375)"/>
      <use xlink:href="#DejaVuSans-78" transform="translate(290.527344 0.584375)"/>
      <use xlink:href="#DejaVuSans-69" transform="translate(349.707031 0.584375)"/>
      <use xlink:href="#DejaVuSans-6d" transform="translate(377.490234 0.584375)"/>
      <use xlink:href="#DejaVuSans-61" transform="translate(474.902344 0.584375)"/>
      <use xlink:href="#DejaVuSans-74" transform="translate(536.181641 0.584375)"/>
      <use xlink:href="#DejaVuSans-69" transform="translate(575.390625 0.584375)"/>
      <use xlink:href="#DejaVuSans-6f" transform="translate(603.173828 0.584375)"/>
      <use xlink:href="#DejaVuSans-6e" transform="translate(664.355469 0.584375)"/>
      <use xlink:href="#DejaVuSans-20" transform="translate(727.734375 0.584375)"/>
      <use xlink:href="#DejaVuSans-66" transform="translate(759.521484 0.584375)"/>
      <use xlink:href="#Cmsy10-30" transform="translate(795.683594 38.865625)scale(0.7)"/>
      <use xlink:href="#DejaVuSans-28" transform="translate(817.661133 0.584375)"/>
      <use xlink:href="#DejaVuSans-78" transform="translate(856.674805 0.584375)"/>
      <use xlink:href="#DejaVuSans-69" transform="translate(916.811523 -15.821875)scale(0.7)"/>
      <use xlink:href="#DejaVuSans-29" transform="translate(938.994141 0.584375)"/>
     </g>
    </g>
   </g>
  </g>
 </g>
 <defs>
  <clipPath id="p9f10941ee7">
   <rect x="57.6" y="41.472" width="357.12" height="266.112"/>
  </clipPath>
 </defs>
</svg>
