<?xml version="1.0" encoding="utf-8" standalone="no"?>
<!DOCTYPE svg PUBLIC "-//W3C//DTD SVG 1.1//EN"
  "http://www.w3.org/Graphics/SVG/1.1/DTD/svg11.dtd">
<svg height="288pt" version="1.1" viewBox="0 0 432 288" width="432pt" xmlns="http://www.w3.org/2000/svg" xmlns:xlink="http://www.w3.org/1999/xlink">
 <metadata>
  <rdf:RDF xmlns:cc="http://creativecommons.org/ns#" xmlns:dc="http://purl.org/dc/elements/1.1/" xmlns:rdf="http://www.w3.org/1999/02/22-rdf-syntax-ns#">
   <cc:Work>
    <dc:type rdf:resource="http://purl.org/dc/dcmitype/StillImage"/>
    <dc:date>2021-07-13T07:16:37.408892</dc:date>
    <dc:format>image/svg+xml</dc:format>
    <dc:creator>
     <cc:Agent>
      <dc:title>Matplotlib v3.4.2, https://matplotlib.org/</dc:title>
     </cc:Agent>
    </dc:creator>
   </cc:Work>
  </rdf:RDF>
 </metadata>
 <defs>
  <style type="text/css">*{stroke-linecap:butt;stroke-linejoin:round;}</style>
 </defs>
 <g id="figure_1">
  <g id="patch_1">
   <path d="M 0 288 
L 432 288 
L 432 0 
L 0 0 
z
" style="fill:none;"/>
  </g>
  <g id="axes_1">
   <g id="patch_2">
    <path d="M 54 252 
L 388.8 252 
L 388.8 34.56 
L 54 34.56 
z
" style="fill:#ffffff;"/>
   </g>
   <g id="matplotlib.axis_1">
    <g id="xtick_1">
     <g id="line2d_1">
      <path clip-path="url(#pd659939175)" d="M 69.218182 252 
L 69.218182 34.56 
" style="fill:none;stroke:#b0b0b0;stroke-linecap:square;stroke-width:0.8;"/>
     </g>
     <g id="line2d_2">
      <defs>
       <path d="M 0 0 
L 0 3.5 
" id="mb534c0f2bc" style="stroke:#000000;stroke-width:0.8;"/>
      </defs>
      <g>
       <use style="stroke:#000000;stroke-width:0.8;" x="69.218182" xlink:href="#mb534c0f2bc" y="252"/>
      </g>
     </g>
     <g id="text_1">
      <!-- −1 -->
      <g transform="translate(61.847088 266.598437)scale(0.1 -0.1)">
       <defs>
        <path d="M 678 2272 
L 4684 2272 
L 4684 1741 
L 678 1741 
L 678 2272 
z
" id="DejaVuSans-2212" transform="scale(0.015625)"/>
        <path d="M 794 531 
L 1825 531 
L 1825 4091 
L 703 3866 
L 703 4441 
L 1819 4666 
L 2450 4666 
L 2450 531 
L 3481 531 
L 3481 0 
L 794 0 
L 794 531 
z
" id="DejaVuSans-31" transform="scale(0.015625)"/>
       </defs>
       <use xlink:href="#DejaVuSans-2212"/>
       <use x="83.789062" xlink:href="#DejaVuSans-31"/>
      </g>
     </g>
    </g>
    <g id="xtick_2">
     <g id="line2d_3">
      <path clip-path="url(#pd659939175)" d="M 119.945455 252 
L 119.945455 34.56 
" style="fill:none;stroke:#b0b0b0;stroke-linecap:square;stroke-width:0.8;"/>
     </g>
     <g id="line2d_4">
      <g>
       <use style="stroke:#000000;stroke-width:0.8;" x="119.945455" xlink:href="#mb534c0f2bc" y="252"/>
      </g>
     </g>
     <g id="text_2">
      <!-- 0 -->
      <g transform="translate(116.764205 266.598437)scale(0.1 -0.1)">
       <defs>
        <path d="M 2034 4250 
Q 1547 4250 1301 3770 
Q 1056 3291 1056 2328 
Q 1056 1369 1301 889 
Q 1547 409 2034 409 
Q 2525 409 2770 889 
Q 3016 1369 3016 2328 
Q 3016 3291 2770 3770 
Q 2525 4250 2034 4250 
z
M 2034 4750 
Q 2819 4750 3233 4129 
Q 3647 3509 3647 2328 
Q 3647 1150 3233 529 
Q 2819 -91 2034 -91 
Q 1250 -91 836 529 
Q 422 1150 422 2328 
Q 422 3509 836 4129 
Q 1250 4750 2034 4750 
z
" id="DejaVuSans-30" transform="scale(0.015625)"/>
       </defs>
       <use xlink:href="#DejaVuSans-30"/>
      </g>
     </g>
    </g>
    <g id="xtick_3">
     <g id="line2d_5">
      <path clip-path="url(#pd659939175)" d="M 170.672727 252 
L 170.672727 34.56 
" style="fill:none;stroke:#b0b0b0;stroke-linecap:square;stroke-width:0.8;"/>
     </g>
     <g id="line2d_6">
      <g>
       <use style="stroke:#000000;stroke-width:0.8;" x="170.672727" xlink:href="#mb534c0f2bc" y="252"/>
      </g>
     </g>
     <g id="text_3">
      <!-- 1 -->
      <g transform="translate(167.491477 266.598437)scale(0.1 -0.1)">
       <use xlink:href="#DejaVuSans-31"/>
      </g>
     </g>
    </g>
    <g id="xtick_4">
     <g id="line2d_7">
      <path clip-path="url(#pd659939175)" d="M 221.4 252 
L 221.4 34.56 
" style="fill:none;stroke:#b0b0b0;stroke-linecap:square;stroke-width:0.8;"/>
     </g>
     <g id="line2d_8">
      <g>
       <use style="stroke:#000000;stroke-width:0.8;" x="221.4" xlink:href="#mb534c0f2bc" y="252"/>
      </g>
     </g>
     <g id="text_4">
      <!-- 2 -->
      <g transform="translate(218.21875 266.598437)scale(0.1 -0.1)">
       <defs>
        <path d="M 1228 531 
L 3431 531 
L 3431 0 
L 469 0 
L 469 531 
Q 828 903 1448 1529 
Q 2069 2156 2228 2338 
Q 2531 2678 2651 2914 
Q 2772 3150 2772 3378 
Q 2772 3750 2511 3984 
Q 2250 4219 1831 4219 
Q 1534 4219 1204 4116 
Q 875 4013 500 3803 
L 500 4441 
Q 881 4594 1212 4672 
Q 1544 4750 1819 4750 
Q 2544 4750 2975 4387 
Q 3406 4025 3406 3419 
Q 3406 3131 3298 2873 
Q 3191 2616 2906 2266 
Q 2828 2175 2409 1742 
Q 1991 1309 1228 531 
z
" id="DejaVuSans-32" transform="scale(0.015625)"/>
       </defs>
       <use xlink:href="#DejaVuSans-32"/>
      </g>
     </g>
    </g>
    <g id="xtick_5">
     <g id="line2d_9">
      <path clip-path="url(#pd659939175)" d="M 272.127273 252 
L 272.127273 34.56 
" style="fill:none;stroke:#b0b0b0;stroke-linecap:square;stroke-width:0.8;"/>
     </g>
     <g id="line2d_10">
      <g>
       <use style="stroke:#000000;stroke-width:0.8;" x="272.127273" xlink:href="#mb534c0f2bc" y="252"/>
      </g>
     </g>
     <g id="text_5">
      <!-- 3 -->
      <g transform="translate(268.946023 266.598437)scale(0.1 -0.1)">
       <defs>
        <path d="M 2597 2516 
Q 3050 2419 3304 2112 
Q 3559 1806 3559 1356 
Q 3559 666 3084 287 
Q 2609 -91 1734 -91 
Q 1441 -91 1130 -33 
Q 819 25 488 141 
L 488 750 
Q 750 597 1062 519 
Q 1375 441 1716 441 
Q 2309 441 2620 675 
Q 2931 909 2931 1356 
Q 2931 1769 2642 2001 
Q 2353 2234 1838 2234 
L 1294 2234 
L 1294 2753 
L 1863 2753 
Q 2328 2753 2575 2939 
Q 2822 3125 2822 3475 
Q 2822 3834 2567 4026 
Q 2313 4219 1838 4219 
Q 1578 4219 1281 4162 
Q 984 4106 628 3988 
L 628 4550 
Q 988 4650 1302 4700 
Q 1616 4750 1894 4750 
Q 2613 4750 3031 4423 
Q 3450 4097 3450 3541 
Q 3450 3153 3228 2886 
Q 3006 2619 2597 2516 
z
" id="DejaVuSans-33" transform="scale(0.015625)"/>
       </defs>
       <use xlink:href="#DejaVuSans-33"/>
      </g>
     </g>
    </g>
    <g id="xtick_6">
     <g id="line2d_11">
      <path clip-path="url(#pd659939175)" d="M 322.854545 252 
L 322.854545 34.56 
" style="fill:none;stroke:#b0b0b0;stroke-linecap:square;stroke-width:0.8;"/>
     </g>
     <g id="line2d_12">
      <g>
       <use style="stroke:#000000;stroke-width:0.8;" x="322.854545" xlink:href="#mb534c0f2bc" y="252"/>
      </g>
     </g>
     <g id="text_6">
      <!-- 4 -->
      <g transform="translate(319.673295 266.598437)scale(0.1 -0.1)">
       <defs>
        <path d="M 2419 4116 
L 825 1625 
L 2419 1625 
L 2419 4116 
z
M 2253 4666 
L 3047 4666 
L 3047 1625 
L 3713 1625 
L 3713 1100 
L 3047 1100 
L 3047 0 
L 2419 0 
L 2419 1100 
L 313 1100 
L 313 1709 
L 2253 4666 
z
" id="DejaVuSans-34" transform="scale(0.015625)"/>
       </defs>
       <use xlink:href="#DejaVuSans-34"/>
      </g>
     </g>
    </g>
    <g id="xtick_7">
     <g id="line2d_13">
      <path clip-path="url(#pd659939175)" d="M 373.581818 252 
L 373.581818 34.56 
" style="fill:none;stroke:#b0b0b0;stroke-linecap:square;stroke-width:0.8;"/>
     </g>
     <g id="line2d_14">
      <g>
       <use style="stroke:#000000;stroke-width:0.8;" x="373.581818" xlink:href="#mb534c0f2bc" y="252"/>
      </g>
     </g>
     <g id="text_7">
      <!-- 5 -->
      <g transform="translate(370.400568 266.598437)scale(0.1 -0.1)">
       <defs>
        <path d="M 691 4666 
L 3169 4666 
L 3169 4134 
L 1269 4134 
L 1269 2991 
Q 1406 3038 1543 3061 
Q 1681 3084 1819 3084 
Q 2600 3084 3056 2656 
Q 3513 2228 3513 1497 
Q 3513 744 3044 326 
Q 2575 -91 1722 -91 
Q 1428 -91 1123 -41 
Q 819 9 494 109 
L 494 744 
Q 775 591 1075 516 
Q 1375 441 1709 441 
Q 2250 441 2565 725 
Q 2881 1009 2881 1497 
Q 2881 1984 2565 2268 
Q 2250 2553 1709 2553 
Q 1456 2553 1204 2497 
Q 953 2441 691 2322 
L 691 4666 
z
" id="DejaVuSans-35" transform="scale(0.015625)"/>
       </defs>
       <use xlink:href="#DejaVuSans-35"/>
      </g>
     </g>
    </g>
    <g id="text_8">
     <!-- x -->
     <g transform="translate(218.440625 280.276563)scale(0.1 -0.1)">
      <defs>
       <path d="M 3513 3500 
L 2247 1797 
L 3578 0 
L 2900 0 
L 1881 1375 
L 863 0 
L 184 0 
L 1544 1831 
L 300 3500 
L 978 3500 
L 1906 2253 
L 2834 3500 
L 3513 3500 
z
" id="DejaVuSans-78" transform="scale(0.015625)"/>
      </defs>
      <use xlink:href="#DejaVuSans-78"/>
     </g>
    </g>
   </g>
   <g id="matplotlib.axis_2">
    <g id="ytick_1">
     <g id="line2d_15">
      <path clip-path="url(#pd659939175)" d="M 54 248.547956 
L 388.8 248.547956 
" style="fill:none;stroke:#b0b0b0;stroke-linecap:square;stroke-width:0.8;"/>
     </g>
     <g id="line2d_16">
      <defs>
       <path d="M 0 0 
L -3.5 0 
" id="m7c3a7b3bbb" style="stroke:#000000;stroke-width:0.8;"/>
      </defs>
      <g>
       <use style="stroke:#000000;stroke-width:0.8;" x="54" xlink:href="#m7c3a7b3bbb" y="248.547956"/>
      </g>
     </g>
     <g id="text_9">
      <!-- −0.6 -->
      <g transform="translate(22.717187 252.347175)scale(0.1 -0.1)">
       <defs>
        <path d="M 684 794 
L 1344 794 
L 1344 0 
L 684 0 
L 684 794 
z
" id="DejaVuSans-2e" transform="scale(0.015625)"/>
        <path d="M 2113 2584 
Q 1688 2584 1439 2293 
Q 1191 2003 1191 1497 
Q 1191 994 1439 701 
Q 1688 409 2113 409 
Q 2538 409 2786 701 
Q 3034 994 3034 1497 
Q 3034 2003 2786 2293 
Q 2538 2584 2113 2584 
z
M 3366 4563 
L 3366 3988 
Q 3128 4100 2886 4159 
Q 2644 4219 2406 4219 
Q 1781 4219 1451 3797 
Q 1122 3375 1075 2522 
Q 1259 2794 1537 2939 
Q 1816 3084 2150 3084 
Q 2853 3084 3261 2657 
Q 3669 2231 3669 1497 
Q 3669 778 3244 343 
Q 2819 -91 2113 -91 
Q 1303 -91 875 529 
Q 447 1150 447 2328 
Q 447 3434 972 4092 
Q 1497 4750 2381 4750 
Q 2619 4750 2861 4703 
Q 3103 4656 3366 4563 
z
" id="DejaVuSans-36" transform="scale(0.015625)"/>
       </defs>
       <use xlink:href="#DejaVuSans-2212"/>
       <use x="83.789062" xlink:href="#DejaVuSans-30"/>
       <use x="147.412109" xlink:href="#DejaVuSans-2e"/>
       <use x="179.199219" xlink:href="#DejaVuSans-36"/>
      </g>
     </g>
    </g>
    <g id="ytick_2">
     <g id="line2d_17">
      <path clip-path="url(#pd659939175)" d="M 54 223.068563 
L 388.8 223.068563 
" style="fill:none;stroke:#b0b0b0;stroke-linecap:square;stroke-width:0.8;"/>
     </g>
     <g id="line2d_18">
      <g>
       <use style="stroke:#000000;stroke-width:0.8;" x="54" xlink:href="#m7c3a7b3bbb" y="223.068563"/>
      </g>
     </g>
     <g id="text_10">
      <!-- −0.4 -->
      <g transform="translate(22.717187 226.867782)scale(0.1 -0.1)">
       <use xlink:href="#DejaVuSans-2212"/>
       <use x="83.789062" xlink:href="#DejaVuSans-30"/>
       <use x="147.412109" xlink:href="#DejaVuSans-2e"/>
       <use x="179.199219" xlink:href="#DejaVuSans-34"/>
      </g>
     </g>
    </g>
    <g id="ytick_3">
     <g id="line2d_19">
      <path clip-path="url(#pd659939175)" d="M 54 197.58917 
L 388.8 197.58917 
" style="fill:none;stroke:#b0b0b0;stroke-linecap:square;stroke-width:0.8;"/>
     </g>
     <g id="line2d_20">
      <g>
       <use style="stroke:#000000;stroke-width:0.8;" x="54" xlink:href="#m7c3a7b3bbb" y="197.58917"/>
      </g>
     </g>
     <g id="text_11">
      <!-- −0.2 -->
      <g transform="translate(22.717187 201.388388)scale(0.1 -0.1)">
       <use xlink:href="#DejaVuSans-2212"/>
       <use x="83.789062" xlink:href="#DejaVuSans-30"/>
       <use x="147.412109" xlink:href="#DejaVuSans-2e"/>
       <use x="179.199219" xlink:href="#DejaVuSans-32"/>
      </g>
     </g>
    </g>
    <g id="ytick_4">
     <g id="line2d_21">
      <path clip-path="url(#pd659939175)" d="M 54 172.109776 
L 388.8 172.109776 
" style="fill:none;stroke:#b0b0b0;stroke-linecap:square;stroke-width:0.8;"/>
     </g>
     <g id="line2d_22">
      <g>
       <use style="stroke:#000000;stroke-width:0.8;" x="54" xlink:href="#m7c3a7b3bbb" y="172.109776"/>
      </g>
     </g>
     <g id="text_12">
      <!-- 0.0 -->
      <g transform="translate(31.096875 175.908995)scale(0.1 -0.1)">
       <use xlink:href="#DejaVuSans-30"/>
       <use x="63.623047" xlink:href="#DejaVuSans-2e"/>
       <use x="95.410156" xlink:href="#DejaVuSans-30"/>
      </g>
     </g>
    </g>
    <g id="ytick_5">
     <g id="line2d_23">
      <path clip-path="url(#pd659939175)" d="M 54 146.630383 
L 388.8 146.630383 
" style="fill:none;stroke:#b0b0b0;stroke-linecap:square;stroke-width:0.8;"/>
     </g>
     <g id="line2d_24">
      <g>
       <use style="stroke:#000000;stroke-width:0.8;" x="54" xlink:href="#m7c3a7b3bbb" y="146.630383"/>
      </g>
     </g>
     <g id="text_13">
      <!-- 0.2 -->
      <g transform="translate(31.096875 150.429602)scale(0.1 -0.1)">
       <use xlink:href="#DejaVuSans-30"/>
       <use x="63.623047" xlink:href="#DejaVuSans-2e"/>
       <use x="95.410156" xlink:href="#DejaVuSans-32"/>
      </g>
     </g>
    </g>
    <g id="ytick_6">
     <g id="line2d_25">
      <path clip-path="url(#pd659939175)" d="M 54 121.15099 
L 388.8 121.15099 
" style="fill:none;stroke:#b0b0b0;stroke-linecap:square;stroke-width:0.8;"/>
     </g>
     <g id="line2d_26">
      <g>
       <use style="stroke:#000000;stroke-width:0.8;" x="54" xlink:href="#m7c3a7b3bbb" y="121.15099"/>
      </g>
     </g>
     <g id="text_14">
      <!-- 0.4 -->
      <g transform="translate(31.096875 124.950209)scale(0.1 -0.1)">
       <use xlink:href="#DejaVuSans-30"/>
       <use x="63.623047" xlink:href="#DejaVuSans-2e"/>
       <use x="95.410156" xlink:href="#DejaVuSans-34"/>
      </g>
     </g>
    </g>
    <g id="ytick_7">
     <g id="line2d_27">
      <path clip-path="url(#pd659939175)" d="M 54 95.671596 
L 388.8 95.671596 
" style="fill:none;stroke:#b0b0b0;stroke-linecap:square;stroke-width:0.8;"/>
     </g>
     <g id="line2d_28">
      <g>
       <use style="stroke:#000000;stroke-width:0.8;" x="54" xlink:href="#m7c3a7b3bbb" y="95.671596"/>
      </g>
     </g>
     <g id="text_15">
      <!-- 0.6 -->
      <g transform="translate(31.096875 99.470815)scale(0.1 -0.1)">
       <use xlink:href="#DejaVuSans-30"/>
       <use x="63.623047" xlink:href="#DejaVuSans-2e"/>
       <use x="95.410156" xlink:href="#DejaVuSans-36"/>
      </g>
     </g>
    </g>
    <g id="ytick_8">
     <g id="line2d_29">
      <path clip-path="url(#pd659939175)" d="M 54 70.192203 
L 388.8 70.192203 
" style="fill:none;stroke:#b0b0b0;stroke-linecap:square;stroke-width:0.8;"/>
     </g>
     <g id="line2d_30">
      <g>
       <use style="stroke:#000000;stroke-width:0.8;" x="54" xlink:href="#m7c3a7b3bbb" y="70.192203"/>
      </g>
     </g>
     <g id="text_16">
      <!-- 0.8 -->
      <g transform="translate(31.096875 73.991422)scale(0.1 -0.1)">
       <defs>
        <path d="M 2034 2216 
Q 1584 2216 1326 1975 
Q 1069 1734 1069 1313 
Q 1069 891 1326 650 
Q 1584 409 2034 409 
Q 2484 409 2743 651 
Q 3003 894 3003 1313 
Q 3003 1734 2745 1975 
Q 2488 2216 2034 2216 
z
M 1403 2484 
Q 997 2584 770 2862 
Q 544 3141 544 3541 
Q 544 4100 942 4425 
Q 1341 4750 2034 4750 
Q 2731 4750 3128 4425 
Q 3525 4100 3525 3541 
Q 3525 3141 3298 2862 
Q 3072 2584 2669 2484 
Q 3125 2378 3379 2068 
Q 3634 1759 3634 1313 
Q 3634 634 3220 271 
Q 2806 -91 2034 -91 
Q 1263 -91 848 271 
Q 434 634 434 1313 
Q 434 1759 690 2068 
Q 947 2378 1403 2484 
z
M 1172 3481 
Q 1172 3119 1398 2916 
Q 1625 2713 2034 2713 
Q 2441 2713 2670 2916 
Q 2900 3119 2900 3481 
Q 2900 3844 2670 4047 
Q 2441 4250 2034 4250 
Q 1625 4250 1398 4047 
Q 1172 3844 1172 3481 
z
" id="DejaVuSans-38" transform="scale(0.015625)"/>
       </defs>
       <use xlink:href="#DejaVuSans-30"/>
       <use x="63.623047" xlink:href="#DejaVuSans-2e"/>
       <use x="95.410156" xlink:href="#DejaVuSans-38"/>
      </g>
     </g>
    </g>
    <g id="ytick_9">
     <g id="line2d_31">
      <path clip-path="url(#pd659939175)" d="M 54 44.71281 
L 388.8 44.71281 
" style="fill:none;stroke:#b0b0b0;stroke-linecap:square;stroke-width:0.8;"/>
     </g>
     <g id="line2d_32">
      <g>
       <use style="stroke:#000000;stroke-width:0.8;" x="54" xlink:href="#m7c3a7b3bbb" y="44.71281"/>
      </g>
     </g>
     <g id="text_17">
      <!-- 1.0 -->
      <g transform="translate(31.096875 48.512029)scale(0.1 -0.1)">
       <use xlink:href="#DejaVuSans-31"/>
       <use x="63.623047" xlink:href="#DejaVuSans-2e"/>
       <use x="95.410156" xlink:href="#DejaVuSans-30"/>
      </g>
     </g>
    </g>
    <g id="text_18">
     <!-- f(x) -->
     <g transform="translate(16.6375 151.901094)rotate(-90)scale(0.1 -0.1)">
      <defs>
       <path d="M 2375 4863 
L 2375 4384 
L 1825 4384 
Q 1516 4384 1395 4259 
Q 1275 4134 1275 3809 
L 1275 3500 
L 2222 3500 
L 2222 3053 
L 1275 3053 
L 1275 0 
L 697 0 
L 697 3053 
L 147 3053 
L 147 3500 
L 697 3500 
L 697 3744 
Q 697 4328 969 4595 
Q 1241 4863 1831 4863 
L 2375 4863 
z
" id="DejaVuSans-66" transform="scale(0.015625)"/>
       <path d="M 1984 4856 
Q 1566 4138 1362 3434 
Q 1159 2731 1159 2009 
Q 1159 1288 1364 580 
Q 1569 -128 1984 -844 
L 1484 -844 
Q 1016 -109 783 600 
Q 550 1309 550 2009 
Q 550 2706 781 3412 
Q 1013 4119 1484 4856 
L 1984 4856 
z
" id="DejaVuSans-28" transform="scale(0.015625)"/>
       <path d="M 513 4856 
L 1013 4856 
Q 1481 4119 1714 3412 
Q 1947 2706 1947 2009 
Q 1947 1309 1714 600 
Q 1481 -109 1013 -844 
L 513 -844 
Q 928 -128 1133 580 
Q 1338 1288 1338 2009 
Q 1338 2731 1133 3434 
Q 928 4138 513 4856 
z
" id="DejaVuSans-29" transform="scale(0.015625)"/>
      </defs>
      <use xlink:href="#DejaVuSans-66"/>
      <use x="35.205078" xlink:href="#DejaVuSans-28"/>
      <use x="74.21875" xlink:href="#DejaVuSans-78"/>
      <use x="133.398438" xlink:href="#DejaVuSans-29"/>
     </g>
    </g>
   </g>
   <g id="line2d_33">
    <path clip-path="url(#pd659939175)" d="M 69.218182 121.15099 
L 72.292562 116.401616 
L 75.366942 111.421694 
L 78.441322 106.22112 
L 81.515702 100.818648 
L 84.590083 95.244029 
L 87.664463 89.540192 
L 90.738843 83.765238 
L 93.813223 77.993916 
L 96.887603 72.31813 
L 99.961983 66.846015 
L 103.036364 61.699072 
L 106.110744 57.007063 
L 109.185124 52.900628 
L 112.259504 49.502065 
L 115.333884 46.915201 
L 118.408264 45.215739 
L 121.482645 44.443636 
L 124.557025 44.598893 
L 127.631405 45.641551 
L 130.705785 47.495908 
L 133.780165 50.058137 
L 136.854545 53.205941 
L 139.928926 56.808678 
L 143.003306 60.736588 
L 146.077686 64.868168 
L 149.152066 69.095285 
L 152.226446 73.326032 
L 155.300826 77.485664 
L 158.375207 81.516078 
L 161.449587 85.374344 
L 164.523967 89.030712 
L 167.598347 92.466428 
L 170.672727 95.671596 
L 173.747107 98.643225 
L 176.821488 101.383524 
L 179.895868 103.898485 
L 182.970248 106.196724 
L 186.044628 108.288566 
L 189.119008 110.185344 
L 192.193388 111.898866 
L 195.267769 113.441023 
L 198.342149 114.823513 
L 201.416529 116.057646 
L 204.490909 117.154222 
L 207.565289 118.12345 
L 210.639669 118.97491 
L 213.71405 119.717543 
L 216.78843 120.359653 
L 219.86281 120.908927 
L 222.93719 121.372461 
L 226.01157 121.756794 
L 229.08595 122.067941 
L 232.160331 122.31143 
L 235.234711 122.492337 
L 238.309091 122.615323 
L 241.383471 122.684662 
L 244.457851 122.704279 
L 247.532231 122.677775 
L 250.606612 122.608457 
L 253.680992 122.499361 
L 256.755372 122.353276 
L 259.829752 122.172769 
L 262.904132 121.960199 
L 265.978512 121.717738 
L 269.052893 121.447387 
L 272.127273 121.15099 
L 275.201653 120.830249 
L 278.276033 120.486736 
L 281.350413 120.121902 
L 284.424793 119.73709 
L 287.499174 119.333542 
L 290.573554 118.91241 
L 293.647934 118.47476 
L 296.722314 118.021584 
L 299.796694 117.553799 
L 302.871074 117.072262 
L 305.945455 116.577765 
L 309.019835 116.07105 
L 312.094215 115.552805 
L 315.168595 115.023674 
L 318.242975 114.484254 
L 321.317355 113.935107 
L 324.391736 113.376756 
L 327.466116 112.809689 
L 330.540496 112.234365 
L 333.614876 111.651212 
L 336.689256 111.060633 
L 339.763636 110.463005 
L 342.838017 109.85868 
L 345.912397 109.247993 
L 348.986777 108.631255 
L 352.061157 108.008759 
L 355.135537 107.380783 
L 358.209917 106.747586 
L 361.284298 106.109414 
L 364.358678 105.466498 
L 367.433058 104.819057 
L 370.507438 104.167296 
L 373.581818 103.51141 
" style="fill:none;stroke:#1f77b4;stroke-linecap:square;stroke-opacity:0.3;stroke-width:2;"/>
   </g>
   <g id="line2d_34">
    <path clip-path="url(#pd659939175)" d="M 69.218182 95.671596 
L 72.292562 91.826376 
L 75.366942 88.082432 
L 78.441322 84.569165 
L 81.515702 81.45002 
L 84.590083 78.924589 
L 87.664463 77.22769 
L 90.738843 76.623796 
L 93.813223 77.395087 
L 96.887603 79.821683 
L 99.961983 84.153605 
L 103.036364 90.575718 
L 106.110744 99.169359 
L 109.185124 109.877007 
L 112.259504 122.478222 
L 115.333884 136.585161 
L 118.408264 151.663212 
L 121.482645 167.076947 
L 124.557025 182.154998 
L 127.631405 196.261937 
L 130.705785 208.863153 
L 133.780165 219.5708 
L 136.854545 228.164442 
L 139.928926 234.586554 
L 143.003306 238.918476 
L 146.077686 241.345073 
L 149.152066 242.116364 
L 152.226446 241.51247 
L 155.300826 239.81557 
L 158.375207 237.290139 
L 161.449587 234.170994 
L 164.523967 230.657727 
L 167.598347 226.913784 
L 170.672727 223.068563 
L 173.747107 219.221194 
L 176.821488 215.445026 
L 179.895868 211.792189 
L 182.970248 208.297827 
L 186.044628 204.983829 
L 189.119008 201.861985 
L 192.193388 198.936564 
L 195.267769 196.206391 
L 198.342149 193.666465 
L 201.416529 191.309211 
L 204.490909 189.125427 
L 207.565289 187.104983 
L 210.639669 185.237345 
L 213.71405 183.511932 
L 216.78843 181.91838 
L 219.86281 180.446709 
L 222.93719 179.087436 
L 226.01157 177.831634 
L 229.08595 176.670964 
L 232.160331 175.597681 
L 235.234711 174.604625 
L 238.309091 173.685197 
L 241.383471 172.833334 
L 244.457851 172.043477 
L 247.532231 171.310536 
L 250.606612 170.629857 
L 253.680992 169.997185 
L 256.755372 169.408638 
L 259.829752 168.860668 
L 262.904132 168.350038 
L 265.978512 167.873793 
L 269.052893 167.429235 
L 272.127273 167.013898 
L 275.201653 166.62553 
L 278.276033 166.262074 
L 281.350413 165.921645 
L 284.424793 165.60252 
L 287.499174 165.303122 
L 290.573554 165.022004 
L 293.647934 164.75784 
L 296.722314 164.509412 
L 299.796694 164.275604 
L 302.871074 164.055388 
L 305.945455 163.847819 
L 309.019835 163.652028 
L 312.094215 163.467213 
L 315.168595 163.292636 
L 318.242975 163.127616 
L 321.317355 162.971522 
L 324.391736 162.823774 
L 327.466116 162.683833 
L 330.540496 162.551203 
L 333.614876 162.425421 
L 336.689256 162.30606 
L 339.763636 162.192724 
L 342.838017 162.085045 
L 345.912397 161.982681 
L 348.986777 161.885313 
L 352.061157 161.792645 
L 355.135537 161.704403 
L 358.209917 161.62033 
L 361.284298 161.540186 
L 364.358678 161.463747 
L 367.433058 161.390807 
L 370.507438 161.321168 
L 373.581818 161.25465 
" style="fill:none;stroke:#ff7f0e;stroke-linecap:square;stroke-opacity:0.3;stroke-width:2;"/>
   </g>
   <g id="patch_3">
    <path d="M 54 252 
L 54 34.56 
" style="fill:none;stroke:#000000;stroke-linecap:square;stroke-linejoin:miter;stroke-width:0.8;"/>
   </g>
   <g id="patch_4">
    <path d="M 388.8 252 
L 388.8 34.56 
" style="fill:none;stroke:#000000;stroke-linecap:square;stroke-linejoin:miter;stroke-width:0.8;"/>
   </g>
   <g id="patch_5">
    <path d="M 54 252 
L 388.8 252 
" style="fill:none;stroke:#000000;stroke-linecap:square;stroke-linejoin:miter;stroke-width:0.8;"/>
   </g>
   <g id="patch_6">
    <path d="M 54 34.56 
L 388.8 34.56 
" style="fill:none;stroke:#000000;stroke-linecap:square;stroke-linejoin:miter;stroke-width:0.8;"/>
   </g>
   <g id="PathCollection_1">
    <defs>
     <path d="M 0 3 
C 0.795609 3 1.55874 2.683901 2.12132 2.12132 
C 2.683901 1.55874 3 0.795609 3 0 
C 3 -0.795609 2.683901 -1.55874 2.12132 -2.12132 
C 1.55874 -2.683901 0.795609 -3 0 -3 
C -0.795609 -3 -1.55874 -2.683901 -2.12132 -2.12132 
C -2.683901 -1.55874 -3 -0.795609 -3 0 
C -3 0.795609 -2.683901 1.55874 -2.12132 2.12132 
C -1.55874 2.683901 -0.795609 3 0 3 
z
" id="mdc60734691" style="stroke:#1f77b4;"/>
    </defs>
    <g clip-path="url(#pd659939175)">
     <use style="fill:#1f77b4;stroke:#1f77b4;" x="69.218182" xlink:href="#mdc60734691" y="121.15099"/>
     <use style="fill:#1f77b4;stroke:#1f77b4;" x="85.237321" xlink:href="#mdc60734691" y="94.052251"/>
     <use style="fill:#1f77b4;stroke:#1f77b4;" x="101.256459" xlink:href="#mdc60734691" y="64.631873"/>
     <use style="fill:#1f77b4;stroke:#1f77b4;" x="117.275598" xlink:href="#mdc60734691" y="45.735245"/>
     <use style="fill:#1f77b4;stroke:#1f77b4;" x="133.294737" xlink:href="#mdc60734691" y="49.611357"/>
     <use style="fill:#1f77b4;stroke:#1f77b4;" x="149.313876" xlink:href="#mdc60734691" y="69.318592"/>
     <use style="fill:#1f77b4;stroke:#1f77b4;" x="165.333014" xlink:href="#mdc60734691" y="89.956785"/>
     <use style="fill:#1f77b4;stroke:#1f77b4;" x="181.352153" xlink:href="#mdc60734691" y="105.013538"/>
     <use style="fill:#1f77b4;stroke:#1f77b4;" x="197.371292" xlink:href="#mdc60734691" y="114.403491"/>
     <use style="fill:#1f77b4;stroke:#1f77b4;" x="213.390431" xlink:href="#mdc60734691" y="119.644244"/>
     <use style="fill:#1f77b4;stroke:#1f77b4;" x="229.409569" xlink:href="#mdc60734691" y="122.096665"/>
     <use style="fill:#1f77b4;stroke:#1f77b4;" x="245.428708" xlink:href="#mdc60734691" y="122.70073"/>
     <use style="fill:#1f77b4;stroke:#1f77b4;" x="261.447847" xlink:href="#mdc60734691" y="122.064745"/>
     <use style="fill:#1f77b4;stroke:#1f77b4;" x="277.466986" xlink:href="#mdc60734691" y="120.579258"/>
     <use style="fill:#1f77b4;stroke:#1f77b4;" x="293.486124" xlink:href="#mdc60734691" y="118.49819"/>
     <use style="fill:#1f77b4;stroke:#1f77b4;" x="309.505263" xlink:href="#mdc60734691" y="115.989972"/>
     <use style="fill:#1f77b4;stroke:#1f77b4;" x="325.524402" xlink:href="#mdc60734691" y="113.168825"/>
     <use style="fill:#1f77b4;stroke:#1f77b4;" x="341.543541" xlink:href="#mdc60734691" y="110.113927"/>
     <use style="fill:#1f77b4;stroke:#1f77b4;" x="357.562679" xlink:href="#mdc60734691" y="106.881312"/>
     <use style="fill:#1f77b4;stroke:#1f77b4;" x="373.581818" xlink:href="#mdc60734691" y="103.51141"/>
    </g>
   </g>
   <g id="PathCollection_2">
    <defs>
     <path d="M 0 3 
C 0.795609 3 1.55874 2.683901 2.12132 2.12132 
C 2.683901 1.55874 3 0.795609 3 0 
C 3 -0.795609 2.683901 -1.55874 2.12132 -2.12132 
C 1.55874 -2.683901 0.795609 -3 0 -3 
C -0.795609 -3 -1.55874 -2.683901 -2.12132 -2.12132 
C -2.683901 -1.55874 -3 -0.795609 -3 0 
C -3 0.795609 -2.683901 1.55874 -2.12132 2.12132 
C -1.55874 2.683901 -0.795609 3 0 3 
z
" id="m0316538a43" style="stroke:#ff7f0e;"/>
    </defs>
    <g clip-path="url(#pd659939175)">
     <use style="fill:#ff7f0e;stroke:#ff7f0e;" x="69.218182" xlink:href="#m0316538a43" y="89.97303"/>
     <use style="fill:#ff7f0e;stroke:#ff7f0e;" x="85.237321" xlink:href="#m0316538a43" y="82.621175"/>
     <use style="fill:#ff7f0e;stroke:#ff7f0e;" x="101.256459" xlink:href="#m0316538a43" y="95.607851"/>
     <use style="fill:#ff7f0e;stroke:#ff7f0e;" x="117.275598" xlink:href="#m0316538a43" y="148.327292"/>
     <use style="fill:#ff7f0e;stroke:#ff7f0e;" x="133.294737" xlink:href="#m0316538a43" y="209.450075"/>
     <use style="fill:#ff7f0e;stroke:#ff7f0e;" x="149.313876" xlink:href="#m0316538a43" y="235.990038"/>
     <use style="fill:#ff7f0e;stroke:#ff7f0e;" x="165.333014" xlink:href="#m0316538a43" y="228.626775"/>
     <use style="fill:#ff7f0e;stroke:#ff7f0e;" x="181.352153" xlink:href="#m0316538a43" y="210.817061"/>
     <use style="fill:#ff7f0e;stroke:#ff7f0e;" x="197.371292" xlink:href="#m0316538a43" y="195.27506"/>
     <use style="fill:#ff7f0e;stroke:#ff7f0e;" x="213.390431" xlink:href="#m0316538a43" y="184.290636"/>
     <use style="fill:#ff7f0e;stroke:#ff7f0e;" x="229.409569" xlink:href="#m0316538a43" y="176.949212"/>
     <use style="fill:#ff7f0e;stroke:#ff7f0e;" x="245.428708" xlink:href="#m0316538a43" y="172.059236"/>
     <use style="fill:#ff7f0e;stroke:#ff7f0e;" x="261.447847" xlink:href="#m0316538a43" y="168.75078"/>
     <use style="fill:#ff7f0e;stroke:#ff7f0e;" x="277.466986" xlink:href="#m0316538a43" y="166.462731"/>
     <use style="fill:#ff7f0e;stroke:#ff7f0e;" x="293.486124" xlink:href="#m0316538a43" y="164.843406"/>
     <use style="fill:#ff7f0e;stroke:#ff7f0e;" x="309.505263" xlink:href="#m0316538a43" y="163.671615"/>
     <use style="fill:#ff7f0e;stroke:#ff7f0e;" x="325.524402" xlink:href="#m0316538a43" y="162.806039"/>
     <use style="fill:#ff7f0e;stroke:#ff7f0e;" x="341.543541" xlink:href="#m0316538a43" y="162.154547"/>
     <use style="fill:#ff7f0e;stroke:#ff7f0e;" x="357.562679" xlink:href="#m0316538a43" y="161.655791"/>
     <use style="fill:#ff7f0e;stroke:#ff7f0e;" x="373.581818" xlink:href="#m0316538a43" y="161.221049"/>
    </g>
   </g>
   <g id="legend_1">
    <g id="patch_7">
     <path d="M 251.9 101.494375 
L 381.8 101.494375 
Q 383.8 101.494375 383.8 99.494375 
L 383.8 41.56 
Q 383.8 39.56 381.8 39.56 
L 251.9 39.56 
Q 249.9 39.56 249.9 41.56 
L 249.9 99.494375 
Q 249.9 101.494375 251.9 101.494375 
z
" style="fill:#ffffff;opacity:0.8;stroke:#cccccc;stroke-linejoin:miter;"/>
    </g>
    <g id="line2d_35">
     <path d="M 253.9 47.658437 
L 273.9 47.658437 
" style="fill:none;stroke:#1f77b4;stroke-linecap:square;stroke-opacity:0.3;stroke-width:2;"/>
    </g>
    <g id="line2d_36"/>
    <g id="text_19">
     <!-- exact $\sf f(x)$ -->
     <g transform="translate(281.9 51.158437)scale(0.1 -0.1)">
      <defs>
       <path d="M 3597 1894 
L 3597 1613 
L 953 1613 
Q 991 1019 1311 708 
Q 1631 397 2203 397 
Q 2534 397 2845 478 
Q 3156 559 3463 722 
L 3463 178 
Q 3153 47 2828 -22 
Q 2503 -91 2169 -91 
Q 1331 -91 842 396 
Q 353 884 353 1716 
Q 353 2575 817 3079 
Q 1281 3584 2069 3584 
Q 2775 3584 3186 3129 
Q 3597 2675 3597 1894 
z
M 3022 2063 
Q 3016 2534 2758 2815 
Q 2500 3097 2075 3097 
Q 1594 3097 1305 2825 
Q 1016 2553 972 2059 
L 3022 2063 
z
" id="DejaVuSans-65" transform="scale(0.015625)"/>
       <path d="M 2194 1759 
Q 1497 1759 1228 1600 
Q 959 1441 959 1056 
Q 959 750 1161 570 
Q 1363 391 1709 391 
Q 2188 391 2477 730 
Q 2766 1069 2766 1631 
L 2766 1759 
L 2194 1759 
z
M 3341 1997 
L 3341 0 
L 2766 0 
L 2766 531 
Q 2569 213 2275 61 
Q 1981 -91 1556 -91 
Q 1019 -91 701 211 
Q 384 513 384 1019 
Q 384 1609 779 1909 
Q 1175 2209 1959 2209 
L 2766 2209 
L 2766 2266 
Q 2766 2663 2505 2880 
Q 2244 3097 1772 3097 
Q 1472 3097 1187 3025 
Q 903 2953 641 2809 
L 641 3341 
Q 956 3463 1253 3523 
Q 1550 3584 1831 3584 
Q 2591 3584 2966 3190 
Q 3341 2797 3341 1997 
z
" id="DejaVuSans-61" transform="scale(0.015625)"/>
       <path d="M 3122 3366 
L 3122 2828 
Q 2878 2963 2633 3030 
Q 2388 3097 2138 3097 
Q 1578 3097 1268 2742 
Q 959 2388 959 1747 
Q 959 1106 1268 751 
Q 1578 397 2138 397 
Q 2388 397 2633 464 
Q 2878 531 3122 666 
L 3122 134 
Q 2881 22 2623 -34 
Q 2366 -91 2075 -91 
Q 1284 -91 818 406 
Q 353 903 353 1747 
Q 353 2603 823 3093 
Q 1294 3584 2113 3584 
Q 2378 3584 2631 3529 
Q 2884 3475 3122 3366 
z
" id="DejaVuSans-63" transform="scale(0.015625)"/>
       <path d="M 1172 4494 
L 1172 3500 
L 2356 3500 
L 2356 3053 
L 1172 3053 
L 1172 1153 
Q 1172 725 1289 603 
Q 1406 481 1766 481 
L 2356 481 
L 2356 0 
L 1766 0 
Q 1100 0 847 248 
Q 594 497 594 1153 
L 594 3053 
L 172 3053 
L 172 3500 
L 594 3500 
L 594 4494 
L 1172 4494 
z
" id="DejaVuSans-74" transform="scale(0.015625)"/>
       <path id="DejaVuSans-20" transform="scale(0.015625)"/>
      </defs>
      <use transform="translate(0 0.015625)" xlink:href="#DejaVuSans-65"/>
      <use transform="translate(61.523438 0.015625)" xlink:href="#DejaVuSans-78"/>
      <use transform="translate(120.703125 0.015625)" xlink:href="#DejaVuSans-61"/>
      <use transform="translate(181.982422 0.015625)" xlink:href="#DejaVuSans-63"/>
      <use transform="translate(236.962891 0.015625)" xlink:href="#DejaVuSans-74"/>
      <use transform="translate(276.171875 0.015625)" xlink:href="#DejaVuSans-20"/>
      <use transform="translate(307.958984 0.015625)" xlink:href="#DejaVuSans-66"/>
      <use transform="translate(343.164062 0.015625)" xlink:href="#DejaVuSans-28"/>
      <use transform="translate(382.177734 0.015625)" xlink:href="#DejaVuSans-78"/>
      <use transform="translate(441.357422 0.015625)" xlink:href="#DejaVuSans-29"/>
     </g>
    </g>
    <g id="line2d_37">
     <path d="M 253.9 62.336562 
L 273.9 62.336562 
" style="fill:none;stroke:#ff7f0e;stroke-linecap:square;stroke-opacity:0.3;stroke-width:2;"/>
    </g>
    <g id="line2d_38"/>
    <g id="text_20">
     <!-- exact $\sf f'(x)$ -->
     <g transform="translate(281.9 65.836562)scale(0.1 -0.1)">
      <defs>
       <path d="M 225 347 
Q 184 359 184 409 
L 966 3316 
Q 1003 3434 1093 3506 
Q 1184 3578 1300 3578 
Q 1450 3578 1564 3479 
Q 1678 3381 1678 3231 
Q 1678 3166 1644 3084 
L 488 319 
Q 466 275 428 275 
Q 394 275 320 306 
Q 247 338 225 347 
z
" id="Cmsy10-30" transform="scale(0.015625)"/>
      </defs>
      <use transform="translate(0 0.584375)" xlink:href="#DejaVuSans-65"/>
      <use transform="translate(61.523438 0.584375)" xlink:href="#DejaVuSans-78"/>
      <use transform="translate(120.703125 0.584375)" xlink:href="#DejaVuSans-61"/>
      <use transform="translate(181.982422 0.584375)" xlink:href="#DejaVuSans-63"/>
      <use transform="translate(236.962891 0.584375)" xlink:href="#DejaVuSans-74"/>
      <use transform="translate(276.171875 0.584375)" xlink:href="#DejaVuSans-20"/>
      <use transform="translate(307.958984 0.584375)" xlink:href="#DejaVuSans-66"/>
      <use transform="translate(344.121094 38.865625)scale(0.7)" xlink:href="#Cmsy10-30"/>
      <use transform="translate(366.098633 0.584375)" xlink:href="#DejaVuSans-28"/>
      <use transform="translate(405.112305 0.584375)" xlink:href="#DejaVuSans-78"/>
      <use transform="translate(464.291992 0.584375)" xlink:href="#DejaVuSans-29"/>
     </g>
    </g>
    <g id="PathCollection_3">
     <g>
      <use style="fill:#1f77b4;stroke:#1f77b4;" x="263.9" xlink:href="#mdc60734691" y="77.889687"/>
     </g>
    </g>
    <g id="text_21">
     <!-- discretised $\sf f(x_i)$ -->
     <g transform="translate(281.9 80.514687)scale(0.1 -0.1)">
      <defs>
       <path d="M 2906 2969 
L 2906 4863 
L 3481 4863 
L 3481 0 
L 2906 0 
L 2906 525 
Q 2725 213 2448 61 
Q 2172 -91 1784 -91 
Q 1150 -91 751 415 
Q 353 922 353 1747 
Q 353 2572 751 3078 
Q 1150 3584 1784 3584 
Q 2172 3584 2448 3432 
Q 2725 3281 2906 2969 
z
M 947 1747 
Q 947 1113 1208 752 
Q 1469 391 1925 391 
Q 2381 391 2643 752 
Q 2906 1113 2906 1747 
Q 2906 2381 2643 2742 
Q 2381 3103 1925 3103 
Q 1469 3103 1208 2742 
Q 947 2381 947 1747 
z
" id="DejaVuSans-64" transform="scale(0.015625)"/>
       <path d="M 603 3500 
L 1178 3500 
L 1178 0 
L 603 0 
L 603 3500 
z
M 603 4863 
L 1178 4863 
L 1178 4134 
L 603 4134 
L 603 4863 
z
" id="DejaVuSans-69" transform="scale(0.015625)"/>
       <path d="M 2834 3397 
L 2834 2853 
Q 2591 2978 2328 3040 
Q 2066 3103 1784 3103 
Q 1356 3103 1142 2972 
Q 928 2841 928 2578 
Q 928 2378 1081 2264 
Q 1234 2150 1697 2047 
L 1894 2003 
Q 2506 1872 2764 1633 
Q 3022 1394 3022 966 
Q 3022 478 2636 193 
Q 2250 -91 1575 -91 
Q 1294 -91 989 -36 
Q 684 19 347 128 
L 347 722 
Q 666 556 975 473 
Q 1284 391 1588 391 
Q 1994 391 2212 530 
Q 2431 669 2431 922 
Q 2431 1156 2273 1281 
Q 2116 1406 1581 1522 
L 1381 1569 
Q 847 1681 609 1914 
Q 372 2147 372 2553 
Q 372 3047 722 3315 
Q 1072 3584 1716 3584 
Q 2034 3584 2315 3537 
Q 2597 3491 2834 3397 
z
" id="DejaVuSans-73" transform="scale(0.015625)"/>
       <path d="M 2631 2963 
Q 2534 3019 2420 3045 
Q 2306 3072 2169 3072 
Q 1681 3072 1420 2755 
Q 1159 2438 1159 1844 
L 1159 0 
L 581 0 
L 581 3500 
L 1159 3500 
L 1159 2956 
Q 1341 3275 1631 3429 
Q 1922 3584 2338 3584 
Q 2397 3584 2469 3576 
Q 2541 3569 2628 3553 
L 2631 2963 
z
" id="DejaVuSans-72" transform="scale(0.015625)"/>
      </defs>
      <use transform="translate(0 0.015625)" xlink:href="#DejaVuSans-64"/>
      <use transform="translate(63.476562 0.015625)" xlink:href="#DejaVuSans-69"/>
      <use transform="translate(91.259766 0.015625)" xlink:href="#DejaVuSans-73"/>
      <use transform="translate(143.359375 0.015625)" xlink:href="#DejaVuSans-63"/>
      <use transform="translate(198.339844 0.015625)" xlink:href="#DejaVuSans-72"/>
      <use transform="translate(239.453125 0.015625)" xlink:href="#DejaVuSans-65"/>
      <use transform="translate(300.976562 0.015625)" xlink:href="#DejaVuSans-74"/>
      <use transform="translate(340.185547 0.015625)" xlink:href="#DejaVuSans-69"/>
      <use transform="translate(367.96875 0.015625)" xlink:href="#DejaVuSans-73"/>
      <use transform="translate(420.068359 0.015625)" xlink:href="#DejaVuSans-65"/>
      <use transform="translate(481.591797 0.015625)" xlink:href="#DejaVuSans-64"/>
      <use transform="translate(545.068359 0.015625)" xlink:href="#DejaVuSans-20"/>
      <use transform="translate(576.855469 0.015625)" xlink:href="#DejaVuSans-66"/>
      <use transform="translate(612.060547 0.015625)" xlink:href="#DejaVuSans-28"/>
      <use transform="translate(651.074219 0.015625)" xlink:href="#DejaVuSans-78"/>
      <use transform="translate(711.210938 -16.390625)scale(0.7)" xlink:href="#DejaVuSans-69"/>
      <use transform="translate(733.393555 0.015625)" xlink:href="#DejaVuSans-29"/>
     </g>
    </g>
    <g id="PathCollection_4">
     <g>
      <use style="fill:#ff7f0e;stroke:#ff7f0e;" x="263.9" xlink:href="#m0316538a43" y="92.769375"/>
     </g>
    </g>
    <g id="text_22">
     <!-- approximation $\sf f'(x_i)$ -->
     <g transform="translate(281.9 95.394375)scale(0.1 -0.1)">
      <defs>
       <path d="M 1159 525 
L 1159 -1331 
L 581 -1331 
L 581 3500 
L 1159 3500 
L 1159 2969 
Q 1341 3281 1617 3432 
Q 1894 3584 2278 3584 
Q 2916 3584 3314 3078 
Q 3713 2572 3713 1747 
Q 3713 922 3314 415 
Q 2916 -91 2278 -91 
Q 1894 -91 1617 61 
Q 1341 213 1159 525 
z
M 3116 1747 
Q 3116 2381 2855 2742 
Q 2594 3103 2138 3103 
Q 1681 3103 1420 2742 
Q 1159 2381 1159 1747 
Q 1159 1113 1420 752 
Q 1681 391 2138 391 
Q 2594 391 2855 752 
Q 3116 1113 3116 1747 
z
" id="DejaVuSans-70" transform="scale(0.015625)"/>
       <path d="M 1959 3097 
Q 1497 3097 1228 2736 
Q 959 2375 959 1747 
Q 959 1119 1226 758 
Q 1494 397 1959 397 
Q 2419 397 2687 759 
Q 2956 1122 2956 1747 
Q 2956 2369 2687 2733 
Q 2419 3097 1959 3097 
z
M 1959 3584 
Q 2709 3584 3137 3096 
Q 3566 2609 3566 1747 
Q 3566 888 3137 398 
Q 2709 -91 1959 -91 
Q 1206 -91 779 398 
Q 353 888 353 1747 
Q 353 2609 779 3096 
Q 1206 3584 1959 3584 
z
" id="DejaVuSans-6f" transform="scale(0.015625)"/>
       <path d="M 3328 2828 
Q 3544 3216 3844 3400 
Q 4144 3584 4550 3584 
Q 5097 3584 5394 3201 
Q 5691 2819 5691 2113 
L 5691 0 
L 5113 0 
L 5113 2094 
Q 5113 2597 4934 2840 
Q 4756 3084 4391 3084 
Q 3944 3084 3684 2787 
Q 3425 2491 3425 1978 
L 3425 0 
L 2847 0 
L 2847 2094 
Q 2847 2600 2669 2842 
Q 2491 3084 2119 3084 
Q 1678 3084 1418 2786 
Q 1159 2488 1159 1978 
L 1159 0 
L 581 0 
L 581 3500 
L 1159 3500 
L 1159 2956 
Q 1356 3278 1631 3431 
Q 1906 3584 2284 3584 
Q 2666 3584 2933 3390 
Q 3200 3197 3328 2828 
z
" id="DejaVuSans-6d" transform="scale(0.015625)"/>
       <path d="M 3513 2113 
L 3513 0 
L 2938 0 
L 2938 2094 
Q 2938 2591 2744 2837 
Q 2550 3084 2163 3084 
Q 1697 3084 1428 2787 
Q 1159 2491 1159 1978 
L 1159 0 
L 581 0 
L 581 3500 
L 1159 3500 
L 1159 2956 
Q 1366 3272 1645 3428 
Q 1925 3584 2291 3584 
Q 2894 3584 3203 3211 
Q 3513 2838 3513 2113 
z
" id="DejaVuSans-6e" transform="scale(0.015625)"/>
      </defs>
      <use transform="translate(0 0.584375)" xlink:href="#DejaVuSans-61"/>
      <use transform="translate(61.279297 0.584375)" xlink:href="#DejaVuSans-70"/>
      <use transform="translate(124.755859 0.584375)" xlink:href="#DejaVuSans-70"/>
      <use transform="translate(188.232422 0.584375)" xlink:href="#DejaVuSans-72"/>
      <use transform="translate(229.345703 0.584375)" xlink:href="#DejaVuSans-6f"/>
      <use transform="translate(290.527344 0.584375)" xlink:href="#DejaVuSans-78"/>
      <use transform="translate(349.707031 0.584375)" xlink:href="#DejaVuSans-69"/>
      <use transform="translate(377.490234 0.584375)" xlink:href="#DejaVuSans-6d"/>
      <use transform="translate(474.902344 0.584375)" xlink:href="#DejaVuSans-61"/>
      <use transform="translate(536.181641 0.584375)" xlink:href="#DejaVuSans-74"/>
      <use transform="translate(575.390625 0.584375)" xlink:href="#DejaVuSans-69"/>
      <use transform="translate(603.173828 0.584375)" xlink:href="#DejaVuSans-6f"/>
      <use transform="translate(664.355469 0.584375)" xlink:href="#DejaVuSans-6e"/>
      <use transform="translate(727.734375 0.584375)" xlink:href="#DejaVuSans-20"/>
      <use transform="translate(759.521484 0.584375)" xlink:href="#DejaVuSans-66"/>
      <use transform="translate(795.683594 38.865625)scale(0.7)" xlink:href="#Cmsy10-30"/>
      <use transform="translate(817.661133 0.584375)" xlink:href="#DejaVuSans-28"/>
      <use transform="translate(856.674805 0.584375)" xlink:href="#DejaVuSans-78"/>
      <use transform="translate(916.811523 -15.821875)scale(0.7)" xlink:href="#DejaVuSans-69"/>
      <use transform="translate(938.994141 0.584375)" xlink:href="#DejaVuSans-29"/>
     </g>
    </g>
   </g>
  </g>
 </g>
 <defs>
  <clipPath id="pd659939175">
   <rect height="217.44" width="334.8" x="54" y="34.56"/>
  </clipPath>
 </defs>
</svg>
