<?xml version="1.0" encoding="utf-8" standalone="no"?>
<!DOCTYPE svg PUBLIC "-//W3C//DTD SVG 1.1//EN"
  "http://www.w3.org/Graphics/SVG/1.1/DTD/svg11.dtd">
<svg xmlns:xlink="http://www.w3.org/1999/xlink" width="424.42127pt" height="280.15625pt" viewBox="0 0 424.42127 280.15625" xmlns="http://www.w3.org/2000/svg" version="1.1">
 <metadata>
  <rdf:RDF xmlns:dc="http://purl.org/dc/elements/1.1/" xmlns:cc="http://creativecommons.org/ns#" xmlns:rdf="http://www.w3.org/1999/02/22-rdf-syntax-ns#">
   <cc:Work>
    <dc:type rdf:resource="http://purl.org/dc/dcmitype/StillImage"/>
    <dc:date>2024-04-19T09:47:07.830900</dc:date>
    <dc:format>image/svg+xml</dc:format>
    <dc:creator>
     <cc:Agent>
      <dc:title>Matplotlib v3.5.2, https://matplotlib.org/</dc:title>
     </cc:Agent>
    </dc:creator>
   </cc:Work>
  </rdf:RDF>
 </metadata>
 <defs>
  <style type="text/css">*{stroke-linejoin: round; stroke-linecap: butt}</style>
 </defs>
 <g id="figure_1">
  <g id="patch_1">
   <path d="M 0 280.15625 
L 424.42127 280.15625 
L 424.42127 0 
L 0 0 
z
" style="fill: #ffffff"/>
  </g>
  <g id="axes_1">
   <g id="patch_2">
    <path d="M 53.328125 242.6 
L 410.253125 242.6 
L 410.253125 7.2 
L 53.328125 7.2 
z
" style="fill: #ffffff"/>
   </g>
   <g id="matplotlib.axis_1">
    <g id="xtick_1">
     <g id="line2d_1">
      <path d="M 59.08498 242.6 
L 59.08498 7.2 
" clip-path="url(#p2c3f8ec4ac)" style="fill: none; stroke: #b0b0b0; stroke-width: 0.8; stroke-linecap: square"/>
     </g>
     <g id="line2d_2">
      <defs>
       <path id="mdf0985f23f" d="M 0 0 
L 0 3.5 
" style="stroke: #000000; stroke-width: 0.8"/>
      </defs>
      <g>
       <use xlink:href="#mdf0985f23f" x="59.08498" y="242.6" style="stroke: #000000; stroke-width: 0.8"/>
      </g>
     </g>
     <g id="text_1">
      <!-- 0 -->
      <g transform="translate(55.90373 257.198437)scale(0.1 -0.1)">
       <defs>
        <path id="DejaVuSans-30" d="M 2034 4250 
Q 1547 4250 1301 3770 
Q 1056 3291 1056 2328 
Q 1056 1369 1301 889 
Q 1547 409 2034 409 
Q 2525 409 2770 889 
Q 3016 1369 3016 2328 
Q 3016 3291 2770 3770 
Q 2525 4250 2034 4250 
z
M 2034 4750 
Q 2819 4750 3233 4129 
Q 3647 3509 3647 2328 
Q 3647 1150 3233 529 
Q 2819 -91 2034 -91 
Q 1250 -91 836 529 
Q 422 1150 422 2328 
Q 422 3509 836 4129 
Q 1250 4750 2034 4750 
z
" transform="scale(0.015625)"/>
       </defs>
       <use xlink:href="#DejaVuSans-30"/>
      </g>
     </g>
    </g>
    <g id="xtick_2">
     <g id="line2d_3">
      <path d="M 116.653528 242.6 
L 116.653528 7.2 
" clip-path="url(#p2c3f8ec4ac)" style="fill: none; stroke: #b0b0b0; stroke-width: 0.8; stroke-linecap: square"/>
     </g>
     <g id="line2d_4">
      <g>
       <use xlink:href="#mdf0985f23f" x="116.653528" y="242.6" style="stroke: #000000; stroke-width: 0.8"/>
      </g>
     </g>
     <g id="text_2">
      <!-- 200 -->
      <g transform="translate(107.109778 257.198437)scale(0.1 -0.1)">
       <defs>
        <path id="DejaVuSans-32" d="M 1228 531 
L 3431 531 
L 3431 0 
L 469 0 
L 469 531 
Q 828 903 1448 1529 
Q 2069 2156 2228 2338 
Q 2531 2678 2651 2914 
Q 2772 3150 2772 3378 
Q 2772 3750 2511 3984 
Q 2250 4219 1831 4219 
Q 1534 4219 1204 4116 
Q 875 4013 500 3803 
L 500 4441 
Q 881 4594 1212 4672 
Q 1544 4750 1819 4750 
Q 2544 4750 2975 4387 
Q 3406 4025 3406 3419 
Q 3406 3131 3298 2873 
Q 3191 2616 2906 2266 
Q 2828 2175 2409 1742 
Q 1991 1309 1228 531 
z
" transform="scale(0.015625)"/>
       </defs>
       <use xlink:href="#DejaVuSans-32"/>
       <use xlink:href="#DejaVuSans-30" x="63.623047"/>
       <use xlink:href="#DejaVuSans-30" x="127.246094"/>
      </g>
     </g>
    </g>
    <g id="xtick_3">
     <g id="line2d_5">
      <path d="M 174.222077 242.6 
L 174.222077 7.2 
" clip-path="url(#p2c3f8ec4ac)" style="fill: none; stroke: #b0b0b0; stroke-width: 0.8; stroke-linecap: square"/>
     </g>
     <g id="line2d_6">
      <g>
       <use xlink:href="#mdf0985f23f" x="174.222077" y="242.6" style="stroke: #000000; stroke-width: 0.8"/>
      </g>
     </g>
     <g id="text_3">
      <!-- 400 -->
      <g transform="translate(164.678327 257.198437)scale(0.1 -0.1)">
       <defs>
        <path id="DejaVuSans-34" d="M 2419 4116 
L 825 1625 
L 2419 1625 
L 2419 4116 
z
M 2253 4666 
L 3047 4666 
L 3047 1625 
L 3713 1625 
L 3713 1100 
L 3047 1100 
L 3047 0 
L 2419 0 
L 2419 1100 
L 313 1100 
L 313 1709 
L 2253 4666 
z
" transform="scale(0.015625)"/>
       </defs>
       <use xlink:href="#DejaVuSans-34"/>
       <use xlink:href="#DejaVuSans-30" x="63.623047"/>
       <use xlink:href="#DejaVuSans-30" x="127.246094"/>
      </g>
     </g>
    </g>
    <g id="xtick_4">
     <g id="line2d_7">
      <path d="M 231.790625 242.6 
L 231.790625 7.2 
" clip-path="url(#p2c3f8ec4ac)" style="fill: none; stroke: #b0b0b0; stroke-width: 0.8; stroke-linecap: square"/>
     </g>
     <g id="line2d_8">
      <g>
       <use xlink:href="#mdf0985f23f" x="231.790625" y="242.6" style="stroke: #000000; stroke-width: 0.8"/>
      </g>
     </g>
     <g id="text_4">
      <!-- 600 -->
      <g transform="translate(222.246875 257.198437)scale(0.1 -0.1)">
       <defs>
        <path id="DejaVuSans-36" d="M 2113 2584 
Q 1688 2584 1439 2293 
Q 1191 2003 1191 1497 
Q 1191 994 1439 701 
Q 1688 409 2113 409 
Q 2538 409 2786 701 
Q 3034 994 3034 1497 
Q 3034 2003 2786 2293 
Q 2538 2584 2113 2584 
z
M 3366 4563 
L 3366 3988 
Q 3128 4100 2886 4159 
Q 2644 4219 2406 4219 
Q 1781 4219 1451 3797 
Q 1122 3375 1075 2522 
Q 1259 2794 1537 2939 
Q 1816 3084 2150 3084 
Q 2853 3084 3261 2657 
Q 3669 2231 3669 1497 
Q 3669 778 3244 343 
Q 2819 -91 2113 -91 
Q 1303 -91 875 529 
Q 447 1150 447 2328 
Q 447 3434 972 4092 
Q 1497 4750 2381 4750 
Q 2619 4750 2861 4703 
Q 3103 4656 3366 4563 
z
" transform="scale(0.015625)"/>
       </defs>
       <use xlink:href="#DejaVuSans-36"/>
       <use xlink:href="#DejaVuSans-30" x="63.623047"/>
       <use xlink:href="#DejaVuSans-30" x="127.246094"/>
      </g>
     </g>
    </g>
    <g id="xtick_5">
     <g id="line2d_9">
      <path d="M 289.359173 242.6 
L 289.359173 7.2 
" clip-path="url(#p2c3f8ec4ac)" style="fill: none; stroke: #b0b0b0; stroke-width: 0.8; stroke-linecap: square"/>
     </g>
     <g id="line2d_10">
      <g>
       <use xlink:href="#mdf0985f23f" x="289.359173" y="242.6" style="stroke: #000000; stroke-width: 0.8"/>
      </g>
     </g>
     <g id="text_5">
      <!-- 800 -->
      <g transform="translate(279.815423 257.198437)scale(0.1 -0.1)">
       <defs>
        <path id="DejaVuSans-38" d="M 2034 2216 
Q 1584 2216 1326 1975 
Q 1069 1734 1069 1313 
Q 1069 891 1326 650 
Q 1584 409 2034 409 
Q 2484 409 2743 651 
Q 3003 894 3003 1313 
Q 3003 1734 2745 1975 
Q 2488 2216 2034 2216 
z
M 1403 2484 
Q 997 2584 770 2862 
Q 544 3141 544 3541 
Q 544 4100 942 4425 
Q 1341 4750 2034 4750 
Q 2731 4750 3128 4425 
Q 3525 4100 3525 3541 
Q 3525 3141 3298 2862 
Q 3072 2584 2669 2484 
Q 3125 2378 3379 2068 
Q 3634 1759 3634 1313 
Q 3634 634 3220 271 
Q 2806 -91 2034 -91 
Q 1263 -91 848 271 
Q 434 634 434 1313 
Q 434 1759 690 2068 
Q 947 2378 1403 2484 
z
M 1172 3481 
Q 1172 3119 1398 2916 
Q 1625 2713 2034 2713 
Q 2441 2713 2670 2916 
Q 2900 3119 2900 3481 
Q 2900 3844 2670 4047 
Q 2441 4250 2034 4250 
Q 1625 4250 1398 4047 
Q 1172 3844 1172 3481 
z
" transform="scale(0.015625)"/>
       </defs>
       <use xlink:href="#DejaVuSans-38"/>
       <use xlink:href="#DejaVuSans-30" x="63.623047"/>
       <use xlink:href="#DejaVuSans-30" x="127.246094"/>
      </g>
     </g>
    </g>
    <g id="xtick_6">
     <g id="line2d_11">
      <path d="M 346.927722 242.6 
L 346.927722 7.2 
" clip-path="url(#p2c3f8ec4ac)" style="fill: none; stroke: #b0b0b0; stroke-width: 0.8; stroke-linecap: square"/>
     </g>
     <g id="line2d_12">
      <g>
       <use xlink:href="#mdf0985f23f" x="346.927722" y="242.6" style="stroke: #000000; stroke-width: 0.8"/>
      </g>
     </g>
     <g id="text_6">
      <!-- 1000 -->
      <g transform="translate(334.202722 257.198437)scale(0.1 -0.1)">
       <defs>
        <path id="DejaVuSans-31" d="M 794 531 
L 1825 531 
L 1825 4091 
L 703 3866 
L 703 4441 
L 1819 4666 
L 2450 4666 
L 2450 531 
L 3481 531 
L 3481 0 
L 794 0 
L 794 531 
z
" transform="scale(0.015625)"/>
       </defs>
       <use xlink:href="#DejaVuSans-31"/>
       <use xlink:href="#DejaVuSans-30" x="63.623047"/>
       <use xlink:href="#DejaVuSans-30" x="127.246094"/>
       <use xlink:href="#DejaVuSans-30" x="190.869141"/>
      </g>
     </g>
    </g>
    <g id="xtick_7">
     <g id="line2d_13">
      <path d="M 404.49627 242.6 
L 404.49627 7.2 
" clip-path="url(#p2c3f8ec4ac)" style="fill: none; stroke: #b0b0b0; stroke-width: 0.8; stroke-linecap: square"/>
     </g>
     <g id="line2d_14">
      <g>
       <use xlink:href="#mdf0985f23f" x="404.49627" y="242.6" style="stroke: #000000; stroke-width: 0.8"/>
      </g>
     </g>
     <g id="text_7">
      <!-- 1200 -->
      <g transform="translate(391.77127 257.198437)scale(0.1 -0.1)">
       <use xlink:href="#DejaVuSans-31"/>
       <use xlink:href="#DejaVuSans-32" x="63.623047"/>
       <use xlink:href="#DejaVuSans-30" x="127.246094"/>
       <use xlink:href="#DejaVuSans-30" x="190.869141"/>
      </g>
     </g>
    </g>
    <g id="text_8">
     <!-- Time / s -->
     <g transform="translate(212.089844 270.876562)scale(0.1 -0.1)">
      <defs>
       <path id="DejaVuSans-54" d="M -19 4666 
L 3928 4666 
L 3928 4134 
L 2272 4134 
L 2272 0 
L 1638 0 
L 1638 4134 
L -19 4134 
L -19 4666 
z
" transform="scale(0.015625)"/>
       <path id="DejaVuSans-69" d="M 603 3500 
L 1178 3500 
L 1178 0 
L 603 0 
L 603 3500 
z
M 603 4863 
L 1178 4863 
L 1178 4134 
L 603 4134 
L 603 4863 
z
" transform="scale(0.015625)"/>
       <path id="DejaVuSans-6d" d="M 3328 2828 
Q 3544 3216 3844 3400 
Q 4144 3584 4550 3584 
Q 5097 3584 5394 3201 
Q 5691 2819 5691 2113 
L 5691 0 
L 5113 0 
L 5113 2094 
Q 5113 2597 4934 2840 
Q 4756 3084 4391 3084 
Q 3944 3084 3684 2787 
Q 3425 2491 3425 1978 
L 3425 0 
L 2847 0 
L 2847 2094 
Q 2847 2600 2669 2842 
Q 2491 3084 2119 3084 
Q 1678 3084 1418 2786 
Q 1159 2488 1159 1978 
L 1159 0 
L 581 0 
L 581 3500 
L 1159 3500 
L 1159 2956 
Q 1356 3278 1631 3431 
Q 1906 3584 2284 3584 
Q 2666 3584 2933 3390 
Q 3200 3197 3328 2828 
z
" transform="scale(0.015625)"/>
       <path id="DejaVuSans-65" d="M 3597 1894 
L 3597 1613 
L 953 1613 
Q 991 1019 1311 708 
Q 1631 397 2203 397 
Q 2534 397 2845 478 
Q 3156 559 3463 722 
L 3463 178 
Q 3153 47 2828 -22 
Q 2503 -91 2169 -91 
Q 1331 -91 842 396 
Q 353 884 353 1716 
Q 353 2575 817 3079 
Q 1281 3584 2069 3584 
Q 2775 3584 3186 3129 
Q 3597 2675 3597 1894 
z
M 3022 2063 
Q 3016 2534 2758 2815 
Q 2500 3097 2075 3097 
Q 1594 3097 1305 2825 
Q 1016 2553 972 2059 
L 3022 2063 
z
" transform="scale(0.015625)"/>
       <path id="DejaVuSans-20" transform="scale(0.015625)"/>
       <path id="DejaVuSans-2f" d="M 1625 4666 
L 2156 4666 
L 531 -594 
L 0 -594 
L 1625 4666 
z
" transform="scale(0.015625)"/>
       <path id="DejaVuSans-73" d="M 2834 3397 
L 2834 2853 
Q 2591 2978 2328 3040 
Q 2066 3103 1784 3103 
Q 1356 3103 1142 2972 
Q 928 2841 928 2578 
Q 928 2378 1081 2264 
Q 1234 2150 1697 2047 
L 1894 2003 
Q 2506 1872 2764 1633 
Q 3022 1394 3022 966 
Q 3022 478 2636 193 
Q 2250 -91 1575 -91 
Q 1294 -91 989 -36 
Q 684 19 347 128 
L 347 722 
Q 666 556 975 473 
Q 1284 391 1588 391 
Q 1994 391 2212 530 
Q 2431 669 2431 922 
Q 2431 1156 2273 1281 
Q 2116 1406 1581 1522 
L 1381 1569 
Q 847 1681 609 1914 
Q 372 2147 372 2553 
Q 372 3047 722 3315 
Q 1072 3584 1716 3584 
Q 2034 3584 2315 3537 
Q 2597 3491 2834 3397 
z
" transform="scale(0.015625)"/>
      </defs>
      <use xlink:href="#DejaVuSans-54"/>
      <use xlink:href="#DejaVuSans-69" x="57.958984"/>
      <use xlink:href="#DejaVuSans-6d" x="85.742188"/>
      <use xlink:href="#DejaVuSans-65" x="183.154297"/>
      <use xlink:href="#DejaVuSans-20" x="244.677734"/>
      <use xlink:href="#DejaVuSans-2f" x="276.464844"/>
      <use xlink:href="#DejaVuSans-20" x="310.15625"/>
      <use xlink:href="#DejaVuSans-73" x="341.943359"/>
     </g>
    </g>
   </g>
   <g id="matplotlib.axis_2">
    <g id="ytick_1">
     <g id="line2d_15">
      <path d="M 53.328125 237.666467 
L 410.253125 237.666467 
" clip-path="url(#p2c3f8ec4ac)" style="fill: none; stroke: #b0b0b0; stroke-width: 0.8; stroke-linecap: square"/>
     </g>
     <g id="line2d_16">
      <defs>
       <path id="ma3e508fc0c" d="M 0 0 
L -3.5 0 
" style="stroke: #000000; stroke-width: 0.8"/>
      </defs>
      <g>
       <use xlink:href="#ma3e508fc0c" x="53.328125" y="237.666467" style="stroke: #000000; stroke-width: 0.8"/>
      </g>
     </g>
     <g id="text_9">
      <!-- 0 -->
      <g transform="translate(39.965625 241.465686)scale(0.1 -0.1)">
       <use xlink:href="#DejaVuSans-30"/>
      </g>
     </g>
    </g>
    <g id="ytick_2">
     <g id="line2d_17">
      <path d="M 53.328125 202.426946 
L 410.253125 202.426946 
" clip-path="url(#p2c3f8ec4ac)" style="fill: none; stroke: #b0b0b0; stroke-width: 0.8; stroke-linecap: square"/>
     </g>
     <g id="line2d_18">
      <g>
       <use xlink:href="#ma3e508fc0c" x="53.328125" y="202.426946" style="stroke: #000000; stroke-width: 0.8"/>
      </g>
     </g>
     <g id="text_10">
      <!-- 500 -->
      <g transform="translate(27.240625 206.226165)scale(0.1 -0.1)">
       <defs>
        <path id="DejaVuSans-35" d="M 691 4666 
L 3169 4666 
L 3169 4134 
L 1269 4134 
L 1269 2991 
Q 1406 3038 1543 3061 
Q 1681 3084 1819 3084 
Q 2600 3084 3056 2656 
Q 3513 2228 3513 1497 
Q 3513 744 3044 326 
Q 2575 -91 1722 -91 
Q 1428 -91 1123 -41 
Q 819 9 494 109 
L 494 744 
Q 775 591 1075 516 
Q 1375 441 1709 441 
Q 2250 441 2565 725 
Q 2881 1009 2881 1497 
Q 2881 1984 2565 2268 
Q 2250 2553 1709 2553 
Q 1456 2553 1204 2497 
Q 953 2441 691 2322 
L 691 4666 
z
" transform="scale(0.015625)"/>
       </defs>
       <use xlink:href="#DejaVuSans-35"/>
       <use xlink:href="#DejaVuSans-30" x="63.623047"/>
       <use xlink:href="#DejaVuSans-30" x="127.246094"/>
      </g>
     </g>
    </g>
    <g id="ytick_3">
     <g id="line2d_19">
      <path d="M 53.328125 167.187425 
L 410.253125 167.187425 
" clip-path="url(#p2c3f8ec4ac)" style="fill: none; stroke: #b0b0b0; stroke-width: 0.8; stroke-linecap: square"/>
     </g>
     <g id="line2d_20">
      <g>
       <use xlink:href="#ma3e508fc0c" x="53.328125" y="167.187425" style="stroke: #000000; stroke-width: 0.8"/>
      </g>
     </g>
     <g id="text_11">
      <!-- 1000 -->
      <g transform="translate(20.878125 170.986644)scale(0.1 -0.1)">
       <use xlink:href="#DejaVuSans-31"/>
       <use xlink:href="#DejaVuSans-30" x="63.623047"/>
       <use xlink:href="#DejaVuSans-30" x="127.246094"/>
       <use xlink:href="#DejaVuSans-30" x="190.869141"/>
      </g>
     </g>
    </g>
    <g id="ytick_4">
     <g id="line2d_21">
      <path d="M 53.328125 131.947904 
L 410.253125 131.947904 
" clip-path="url(#p2c3f8ec4ac)" style="fill: none; stroke: #b0b0b0; stroke-width: 0.8; stroke-linecap: square"/>
     </g>
     <g id="line2d_22">
      <g>
       <use xlink:href="#ma3e508fc0c" x="53.328125" y="131.947904" style="stroke: #000000; stroke-width: 0.8"/>
      </g>
     </g>
     <g id="text_12">
      <!-- 1500 -->
      <g transform="translate(20.878125 135.747123)scale(0.1 -0.1)">
       <use xlink:href="#DejaVuSans-31"/>
       <use xlink:href="#DejaVuSans-35" x="63.623047"/>
       <use xlink:href="#DejaVuSans-30" x="127.246094"/>
       <use xlink:href="#DejaVuSans-30" x="190.869141"/>
      </g>
     </g>
    </g>
    <g id="ytick_5">
     <g id="line2d_23">
      <path d="M 53.328125 96.708383 
L 410.253125 96.708383 
" clip-path="url(#p2c3f8ec4ac)" style="fill: none; stroke: #b0b0b0; stroke-width: 0.8; stroke-linecap: square"/>
     </g>
     <g id="line2d_24">
      <g>
       <use xlink:href="#ma3e508fc0c" x="53.328125" y="96.708383" style="stroke: #000000; stroke-width: 0.8"/>
      </g>
     </g>
     <g id="text_13">
      <!-- 2000 -->
      <g transform="translate(20.878125 100.507602)scale(0.1 -0.1)">
       <use xlink:href="#DejaVuSans-32"/>
       <use xlink:href="#DejaVuSans-30" x="63.623047"/>
       <use xlink:href="#DejaVuSans-30" x="127.246094"/>
       <use xlink:href="#DejaVuSans-30" x="190.869141"/>
      </g>
     </g>
    </g>
    <g id="ytick_6">
     <g id="line2d_25">
      <path d="M 53.328125 61.468862 
L 410.253125 61.468862 
" clip-path="url(#p2c3f8ec4ac)" style="fill: none; stroke: #b0b0b0; stroke-width: 0.8; stroke-linecap: square"/>
     </g>
     <g id="line2d_26">
      <g>
       <use xlink:href="#ma3e508fc0c" x="53.328125" y="61.468862" style="stroke: #000000; stroke-width: 0.8"/>
      </g>
     </g>
     <g id="text_14">
      <!-- 2500 -->
      <g transform="translate(20.878125 65.268081)scale(0.1 -0.1)">
       <use xlink:href="#DejaVuSans-32"/>
       <use xlink:href="#DejaVuSans-35" x="63.623047"/>
       <use xlink:href="#DejaVuSans-30" x="127.246094"/>
       <use xlink:href="#DejaVuSans-30" x="190.869141"/>
      </g>
     </g>
    </g>
    <g id="ytick_7">
     <g id="line2d_27">
      <path d="M 53.328125 26.229341 
L 410.253125 26.229341 
" clip-path="url(#p2c3f8ec4ac)" style="fill: none; stroke: #b0b0b0; stroke-width: 0.8; stroke-linecap: square"/>
     </g>
     <g id="line2d_28">
      <g>
       <use xlink:href="#ma3e508fc0c" x="53.328125" y="26.229341" style="stroke: #000000; stroke-width: 0.8"/>
      </g>
     </g>
     <g id="text_15">
      <!-- 3000 -->
      <g transform="translate(20.878125 30.02856)scale(0.1 -0.1)">
       <defs>
        <path id="DejaVuSans-33" d="M 2597 2516 
Q 3050 2419 3304 2112 
Q 3559 1806 3559 1356 
Q 3559 666 3084 287 
Q 2609 -91 1734 -91 
Q 1441 -91 1130 -33 
Q 819 25 488 141 
L 488 750 
Q 750 597 1062 519 
Q 1375 441 1716 441 
Q 2309 441 2620 675 
Q 2931 909 2931 1356 
Q 2931 1769 2642 2001 
Q 2353 2234 1838 2234 
L 1294 2234 
L 1294 2753 
L 1863 2753 
Q 2328 2753 2575 2939 
Q 2822 3125 2822 3475 
Q 2822 3834 2567 4026 
Q 2313 4219 1838 4219 
Q 1578 4219 1281 4162 
Q 984 4106 628 3988 
L 628 4550 
Q 988 4650 1302 4700 
Q 1616 4750 1894 4750 
Q 2613 4750 3031 4423 
Q 3450 4097 3450 3541 
Q 3450 3153 3228 2886 
Q 3006 2619 2597 2516 
z
" transform="scale(0.015625)"/>
       </defs>
       <use xlink:href="#DejaVuSans-33"/>
       <use xlink:href="#DejaVuSans-30" x="63.623047"/>
       <use xlink:href="#DejaVuSans-30" x="127.246094"/>
       <use xlink:href="#DejaVuSans-30" x="190.869141"/>
      </g>
     </g>
    </g>
    <g id="text_16">
     <!-- Heat Release Rate / kW -->
     <g transform="translate(14.798438 183.639844)rotate(-90)scale(0.1 -0.1)">
      <defs>
       <path id="DejaVuSans-48" d="M 628 4666 
L 1259 4666 
L 1259 2753 
L 3553 2753 
L 3553 4666 
L 4184 4666 
L 4184 0 
L 3553 0 
L 3553 2222 
L 1259 2222 
L 1259 0 
L 628 0 
L 628 4666 
z
" transform="scale(0.015625)"/>
       <path id="DejaVuSans-61" d="M 2194 1759 
Q 1497 1759 1228 1600 
Q 959 1441 959 1056 
Q 959 750 1161 570 
Q 1363 391 1709 391 
Q 2188 391 2477 730 
Q 2766 1069 2766 1631 
L 2766 1759 
L 2194 1759 
z
M 3341 1997 
L 3341 0 
L 2766 0 
L 2766 531 
Q 2569 213 2275 61 
Q 1981 -91 1556 -91 
Q 1019 -91 701 211 
Q 384 513 384 1019 
Q 384 1609 779 1909 
Q 1175 2209 1959 2209 
L 2766 2209 
L 2766 2266 
Q 2766 2663 2505 2880 
Q 2244 3097 1772 3097 
Q 1472 3097 1187 3025 
Q 903 2953 641 2809 
L 641 3341 
Q 956 3463 1253 3523 
Q 1550 3584 1831 3584 
Q 2591 3584 2966 3190 
Q 3341 2797 3341 1997 
z
" transform="scale(0.015625)"/>
       <path id="DejaVuSans-74" d="M 1172 4494 
L 1172 3500 
L 2356 3500 
L 2356 3053 
L 1172 3053 
L 1172 1153 
Q 1172 725 1289 603 
Q 1406 481 1766 481 
L 2356 481 
L 2356 0 
L 1766 0 
Q 1100 0 847 248 
Q 594 497 594 1153 
L 594 3053 
L 172 3053 
L 172 3500 
L 594 3500 
L 594 4494 
L 1172 4494 
z
" transform="scale(0.015625)"/>
       <path id="DejaVuSans-52" d="M 2841 2188 
Q 3044 2119 3236 1894 
Q 3428 1669 3622 1275 
L 4263 0 
L 3584 0 
L 2988 1197 
Q 2756 1666 2539 1819 
Q 2322 1972 1947 1972 
L 1259 1972 
L 1259 0 
L 628 0 
L 628 4666 
L 2053 4666 
Q 2853 4666 3247 4331 
Q 3641 3997 3641 3322 
Q 3641 2881 3436 2590 
Q 3231 2300 2841 2188 
z
M 1259 4147 
L 1259 2491 
L 2053 2491 
Q 2509 2491 2742 2702 
Q 2975 2913 2975 3322 
Q 2975 3731 2742 3939 
Q 2509 4147 2053 4147 
L 1259 4147 
z
" transform="scale(0.015625)"/>
       <path id="DejaVuSans-6c" d="M 603 4863 
L 1178 4863 
L 1178 0 
L 603 0 
L 603 4863 
z
" transform="scale(0.015625)"/>
       <path id="DejaVuSans-6b" d="M 581 4863 
L 1159 4863 
L 1159 1991 
L 2875 3500 
L 3609 3500 
L 1753 1863 
L 3688 0 
L 2938 0 
L 1159 1709 
L 1159 0 
L 581 0 
L 581 4863 
z
" transform="scale(0.015625)"/>
       <path id="DejaVuSans-57" d="M 213 4666 
L 850 4666 
L 1831 722 
L 2809 4666 
L 3519 4666 
L 4500 722 
L 5478 4666 
L 6119 4666 
L 4947 0 
L 4153 0 
L 3169 4050 
L 2175 0 
L 1381 0 
L 213 4666 
z
" transform="scale(0.015625)"/>
      </defs>
      <use xlink:href="#DejaVuSans-48"/>
      <use xlink:href="#DejaVuSans-65" x="75.195312"/>
      <use xlink:href="#DejaVuSans-61" x="136.71875"/>
      <use xlink:href="#DejaVuSans-74" x="197.998047"/>
      <use xlink:href="#DejaVuSans-20" x="237.207031"/>
      <use xlink:href="#DejaVuSans-52" x="268.994141"/>
      <use xlink:href="#DejaVuSans-65" x="333.976562"/>
      <use xlink:href="#DejaVuSans-6c" x="395.5"/>
      <use xlink:href="#DejaVuSans-65" x="423.283203"/>
      <use xlink:href="#DejaVuSans-61" x="484.806641"/>
      <use xlink:href="#DejaVuSans-73" x="546.085938"/>
      <use xlink:href="#DejaVuSans-65" x="598.185547"/>
      <use xlink:href="#DejaVuSans-20" x="659.708984"/>
      <use xlink:href="#DejaVuSans-52" x="691.496094"/>
      <use xlink:href="#DejaVuSans-61" x="758.728516"/>
      <use xlink:href="#DejaVuSans-74" x="820.007812"/>
      <use xlink:href="#DejaVuSans-65" x="859.216797"/>
      <use xlink:href="#DejaVuSans-20" x="920.740234"/>
      <use xlink:href="#DejaVuSans-2f" x="952.527344"/>
      <use xlink:href="#DejaVuSans-20" x="986.21875"/>
      <use xlink:href="#DejaVuSans-6b" x="1018.005859"/>
      <use xlink:href="#DejaVuSans-57" x="1075.916016"/>
     </g>
    </g>
   </g>
   <g id="line2d_29">
    <path d="M 59.258129 235.495205 
L 61.235598 235.486599 
L 63.03016 234.602222 
L 64.87994 233.479095 
L 66.702111 233.494093 
L 68.524281 234.043313 
L 70.346452 234.418601 
L 72.319215 234.458146 
L 74.145402 232.988494 
L 77.800787 233.173765 
L 79.558538 232.499372 
L 80.534043 230.322228 
L 82.935995 227.030308 
L 84.758166 227.55054 
L 87.822726 225.598547 
L 88.56816 224.221902 
L 89.065115 223.023413 
L 89.810549 220.555183 
L 90.80446 218.981591 
L 94.105666 214.518857 
L 94.531628 213.09087 
L 96.022494 206.591914 
L 98.507273 196.9842 
L 99.335532 192.148144 
L 99.335532 190.983104 
L 99.722053 189.509424 
L 100.080966 187.417026 
L 100.633139 182.496107 
L 100.89266 180.484387 
L 101.820311 176.141822 
L 102.731396 172.378962 
L 102.84434 169.704519 
L 104.092108 160.419986 
L 104.111828 156.940282 
L 104.857262 152.424407 
L 105.464652 148.414455 
L 105.795956 146.678192 
L 106.375737 145.870731 
L 106.955519 143.702512 
L 107.825191 141.930276 
L 108.280734 140.148401 
L 108.694864 137.365372 
L 108.77769 139.032857 
L 109.108994 130.465224 
L 109.191819 133.394741 
L 109.274645 127.492504 
L 109.661166 123.087244 
L 109.808413 121.421703 
L 109.99247 117.756781 
L 110.576196 113.897204 
L 111.060005 106.529963 
L 111.42812 102.798584 
L 112.422031 97.630793 
L 112.587683 94.894953 
L 113.605259 91.31857 
L 114.761864 87.610537 
L 115.072461 85.804276 
L 115.190784 83.152805 
L 115.900721 77.220275 
L 116.232025 75.450823 
L 116.232025 73.830407 
L 116.434488 65.440501 
L 116.480502 72.928704 
L 116.563328 63.211142 
L 116.894632 56.199742 
L 116.977458 58.181169 
L 117.888544 48.312385 
L 118.302673 46.653398 
L 119.241367 40.570084 
L 119.379411 38.326281 
L 119.931583 34.065893 
L 120.663213 30.636505 
L 120.870277 28.873157 
L 121.390898 27.189228 
L 121.726146 25.304582 
L 122.582014 23.602196 
L 123.008693 21.819636 
L 123.68636 24.085899 
L 123.71949 25.751585 
L 123.970334 27.467164 
L 124.680271 30.109171 
L 124.956357 33.748373 
L 125.106233 35.441469 
L 125.147108 38.951485 
L 125.674182 37.038059 
L 125.757008 41.268856 
L 126.668094 44.386337 
L 128.004352 46.424482 
L 128.182625 47.694428 
L 128.683525 43.956385 
L 128.821568 41.935796 
L 129.576204 35.919662 
L 130.42287 30.632206 
L 130.809391 27.19971 
L 130.836999 28.714321 
L 131.037162 26.080339 
L 131.63765 19.932217 
L 132.830344 22.207528 
L 133.128517 23.204563 
L 134.430068 24.942447 
L 134.536558 26.030646 
L 136.507816 22.077192 
L 139.009159 31.573594 
L 139.423289 34.001926 
L 139.506115 35.55287 
L 139.754593 37.509563 
L 140.334374 40.300206 
L 140.682243 43.347064 
L 141.742415 47.007478 
L 142.239371 50.136036 
L 142.819152 52.987689 
L 143.100761 58.101686 
L 143.150456 56.523145 
L 143.260891 59.780026 
L 144.061542 63.935217 
L 144.392845 67.228099 
L 144.687338 69.40043 
L 144.696541 73.228563 
L 144.889801 74.900654 
L 144.922931 76.697688 
L 144.972627 70.66398 
L 145.138279 78.37364 
L 145.359148 81.561969 
L 145.812719 83.142433 
L 146.711972 84.675152 
L 147.469238 86.223773 
L 148.960105 90.437782 
L 149.461793 92.131384 
L 151.184573 102.664552 
L 151.255566 104.782664 
L 151.460659 106.558855 
L 152.045963 113.117442 
L 152.123267 111.055976 
L 152.273142 115.313335 
L 152.344136 109.546563 
L 152.344136 116.05507 
L 152.841092 118.267996 
L 153.117178 121.96414 
L 153.586525 126.95135 
L 153.868133 132.113667 
L 154.000655 129.830053 
L 154.166307 133.573398 
L 154.265698 128.782626 
L 154.862045 139.774492 
L 155.408696 143.458139 
L 155.574348 146.250829 
L 156.098912 151.545417 
L 156.319781 148.230933 
L 156.36711 153.150655 
L 156.551694 149.200768 
L 156.789128 156.315806 
L 157.148041 157.754591 
L 157.313693 159.355479 
L 157.893474 161.193558 
L 158.721734 162.55852 
L 159.41195 164.379297 
L 160.295427 165.825007 
L 160.863376 167.432575 
L 161.289338 169.034569 
L 161.869119 173.331418 
L 162.697379 175.778285 
L 162.807813 177.748269 
L 163.525638 181.083655 
L 163.856942 182.466692 
L 165.182157 186.740415 
L 165.467447 189.057127 
L 165.596287 191.319378 
L 166.019619 193.133746 
L 167.004328 194.042477 
L 169.240628 195.881391 
L 170.565843 197.427991 
L 171.394103 198.888616 
L 172.866564 202.482913 
L 174.541489 206.090254 
L 177.357571 210.936118 
L 178.848438 211.615562 
L 180.670609 211.245423 
L 182.299519 212.091129 
L 184.149298 213.387792 
L 187.79364 214.330936 
L 189.450159 215.204886 
L 192.266241 218.322464 
L 193.757108 217.131242 
L 195.247975 216.098867 
L 198.271122 218.575724 
L 199.756072 219.908277 
L 201.708398 219.794467 
L 203.659409 220.21022 
L 205.35274 221.12896 
L 207.103917 221.897397 
L 208.997081 221.285729 
L 210.487948 221.160811 
L 240.160342 218.08553 
L 241.464851 216.950809 
L 242.872892 218.313578 
L 242.955718 220.873747 
L 244.094575 219.785945 
L 244.752404 220.775166 
L 246.600059 219.468796 
L 246.931363 222.039857 
L 248.280243 220.438934 
L 248.661505 221.661619 
L 250.650248 221.411943 
L 252.397875 219.829935 
L 252.397875 221.759503 
L 253.681678 221.88506 
L 254.220046 219.888416 
L 257.864388 220.775653 
L 259.587167 221.248044 
L 261.508729 221.215634 
L 263.165248 219.772549 
L 264.834509 219.067804 
L 265.98133 220.934624 
L 266.40299 222.57869 
L 268.466108 222.607184 
L 270.288279 222.337988 
L 271.838308 223.59076 
L 273.766969 224.806482 
L 275.616748 225.394471 
L 279.233481 224.547093 
L 281.055652 225.090101 
L 282.877823 225.428118 
L 284.699993 225.927643 
L 286.646403 227.020932 
L 288.344335 227.2435 
L 290.166506 226.270808 
L 291.988676 225.782643 
L 293.877108 225.932375 
L 294.548751 228.298317 
L 295.964322 230.228631 
L 297.786492 230.224993 
L 299.715154 229.346154 
L 301.412428 227.873111 
L 303.188585 226.877503 
L 306.96834 226.80799 
L 308.35898 226.082117 
L 310.210384 225.783537 
L 313.109292 227.633108 
L 315.511244 228.381948 
L 319.155586 228.30013 
L 320.977757 229.464328 
L 322.799927 229.758861 
L 324.622098 229.326603 
L 326.742442 228.972019 
L 328.321657 228.377425 
L 330.180639 228.066563 
L 331.725641 228.482696 
L 333.158692 229.01023 
L 334.892515 229.50488 
L 339.199464 228.040629 
L 341.021635 228.194359 
L 342.567719 229.209584 
L 344.500324 230.200066 
L 346.074017 230.404247 
L 346.653799 232.193925 
L 348.630578 230.355069 
L 350.249419 230.200768 
L 352.120311 230.973764 
L 354.936393 230.378013 
L 358.580735 229.9856 
L 360.402906 230.485126 
L 362.225076 230.866625 
L 364.80201 231.886142 
L 367.18428 231.071462 
L 367.525937 230.387045 
L 368.979992 231.420492 
L 370.673323 232.408944 
L 372.465375 232.36064 
L 374.055382 231.220552 
L 379.452873 231.782651 
L 381.275043 232.058549 
L 382.752106 231.604254 
L 386.741556 230.985403 
L 388.632748 231.645091 
L 390.257057 231.780472 
L 393.450457 231.701906 
L 396.349365 231.922853 
L 398.171536 231.558926 
L 399.993706 231.816187 
L 401.815877 232.197687 
L 402.892614 232.127206 
L 402.892614 232.127206 
" clip-path="url(#p2c3f8ec4ac)" style="fill: none; stroke: #1f77b4; stroke-width: 1.5; stroke-linecap: square"/>
   </g>
   <g id="line2d_30">
    <path d="M 59.302993 236.249791 
L 61.235598 235.633613 
L 62.901096 235.668904 
L 64.342111 236.672328 
L 66.462582 236.6615 
L 68.193388 235.982625 
L 69.569983 236.977257 
L 71.151047 236.550074 
L 72.7981 235.218767 
L 76.30992 233.375522 
L 79.825421 232.694468 
L 81.91842 232.074915 
L 83.319089 230.83339 
L 84.426862 229.102399 
L 85.14126 227.714011 
L 86.271787 228.518734 
L 87.905552 228.109538 
L 90.141853 226.413887 
L 92.460979 224.041595 
L 94.862931 220.875363 
L 96.353798 217.930909 
L 97.205722 215.693815 
L 97.844665 212.441947 
L 99.004228 209.394031 
L 101.074877 207.508848 
L 102.068788 205.327112 
L 104.433929 189.029294 
L 104.849374 185.115172 
L 105.015025 181.581163 
L 106.103595 174.706866 
L 107.535301 170.16001 
L 108.413256 164.059052 
L 109.108994 156.883614 
L 109.162497 160.160518 
L 109.882036 152.916987 
L 110.434209 149.202296 
L 110.632991 145.493246 
L 111.455729 141.339369 
L 112.007902 140.324694 
L 112.836161 137.794801 
L 114.096956 134.793322 
L 114.717493 131.846267 
L 115.155287 129.060914 
L 115.436896 124.98442 
L 115.711404 121.960723 
L 116.255689 118.411316 
L 116.982647 114.82736 
L 117.722892 108.300312 
L 118.286108 104.178841 
L 118.385499 101.008094 
L 119.16643 94.401877 
L 119.627888 90.815216 
L 119.655497 87.056968 
L 120.042018 78.011478 
L 120.290496 83.741657 
L 120.456148 75.888981 
L 120.456148 80.706301 
L 121.118755 67.568385 
L 121.466624 64.6363 
L 121.781363 55.241327 
L 121.781363 58.584094 
L 121.96358 53.023629 
L 122.408474 49.892541 
L 122.609622 46.895346 
L 122.626187 44.408072 
L 123.106578 41.769545 
L 123.934837 39.512976 
L 125.364965 37.510957 
L 125.532195 35.985871 
L 127.441136 37.706598 
L 129.016542 38.641863 
L 130.149014 37.423202 
L 130.892217 39.123267 
L 131.259017 41.811839 
L 131.37957 45.017567 
L 131.708644 48.058328 
L 132.134606 54.119394 
L 132.65917 57.241613 
L 132.863746 60.312275 
L 133.627186 63.773871 
L 134.181454 61.519129 
L 134.46925 58.923532 
L 135.069011 56.460861 
L 135.395853 53.886528 
L 136.358729 50.265901 
L 136.66071 52.129579 
L 138.382048 70.358047 
L 138.80801 80.618416 
L 139.754593 86.907219 
L 140.514089 90.231968 
L 140.996982 93.121407 
L 141.24546 96.753831 
L 143.114959 112.99493 
L 143.706573 116.460936 
L 144.098353 122.466386 
L 144.345516 125.752647 
L 146.021756 135.154758 
L 146.353059 138.058155 
L 148.865446 150.89034 
L 150.413244 153.871454 
L 151.002356 156.850364 
L 151.563206 160.376089 
L 151.894509 163.64956 
L 152.49427 166.643782 
L 153.466888 173.891845 
L 154.249133 176.532553 
L 155.243044 178.012503 
L 156.071303 179.652202 
L 157.45568 182.940704 
L 158.473256 186.133118 
L 158.9334 189.52691 
L 159.549993 192.309229 
L 160.030655 193.952102 
L 161.675478 192.883834 
L 163.008309 191.740521 
L 163.655793 192.670344 
L 163.965663 193.799895 
L 164.142231 195.865791 
L 164.981008 198.642323 
L 165.264983 200.451961 
L 165.986752 202.827455 
L 169.40628 205.04626 
L 171.808233 207.333474 
L 175.369748 212.218848 
L 178.434308 214.426648 
L 181.001912 215.686263 
L 182.824083 218.247445 
L 184.182429 219.485317 
L 185.14321 220.877347 
L 186.431613 220.100359 
L 188.40103 220.107816 
L 189.781462 220.25311 
L 192.017763 221.239442 
L 194.419715 220.498538 
L 197.649927 220.795437 
L 199.886227 220.015521 
L 201.516851 220.426949 
L 202.205354 221.514169 
L 203.944699 223.176725 
L 206.346651 223.611732 
L 207.658714 222.122937 
L 209.317549 221.229309 
L 210.996416 221.451862 
L 211.927025 222.737139 
L 212.705589 224.243731 
L 214.261765 222.722482 
L 215.830317 222.712382 
L 217.494261 223.444048 
L 219.40973 222.018001 
L 221.516746 220.591572 
L 224.773043 221.53322 
L 226.880059 222.319137 
L 228.412434 221.367929 
L 229.944809 220.100672 
L 231.285638 219.623921 
L 232.626466 219.779269 
L 233.5842 221.041555 
L 235.308123 222.934411 
L 236.265857 220.404103 
L 237.989779 219.452512 
L 239.13906 221.030466 
L 240.671436 222.291605 
L 241.820717 221.499186 
L 243.736186 220.705239 
L 245.268561 221.650328 
L 247.375577 222.278221 
L 248.907952 221.010964 
L 250.440327 221.798028 
L 252.526716 221.756399 
L 254.13722 222.499128 
L 256.373521 222.971426 
L 258.427604 222.26621 
L 260.124353 222.685823 
L 261.840033 222.152139 
L 263.579378 222.791183 
L 265.857091 222.808844 
L 268.651753 223.227406 
L 271.64929 224.031476 
L 274.816097 224.752621 
L 276.416579 224.411276 
L 277.831533 222.059395 
L 279.172361 221.898694 
L 280.087636 222.867421 
L 281.780331 223.547349 
L 283.794049 222.933907 
L 285.999313 222.437452 
L 287.743799 223.646044 
L 289.324347 224.564848 
L 290.829113 223.964874 
L 292.789327 223.839829 
L 294.587317 225.288268 
L 296.709755 225.676933 
L 298.946056 224.973631 
L 300.6854 225.313676 
L 303.418657 226.113902 
L 305.240827 226.340992 
L 306.374115 225.548033 
L 308.049293 225.270776 
L 310.018837 225.46787 
L 311.841008 226.394471 
L 313.887856 226.073124 
L 316.0082 225.43652 
L 319.652541 226.180884 
L 321.474712 225.969148 
L 323.296883 225.614538 
L 324.953402 225.852115 
L 326.697888 227.003664 
L 328.533863 227.724044 
L 330.685882 228.179391 
L 332.739041 228.110794 
L 336.298462 226.942289 
L 337.532663 226.650165 
L 338.97174 226.814271 
L 340.0639 227.805679 
L 342.678154 227.912207 
L 344.396744 227.413862 
L 346.107895 227.079027 
L 347.394092 227.694973 
L 348.972925 228.872146 
L 350.758158 229.446502 
L 352.617267 228.717856 
L 354.108134 228.515212 
L 355.646221 228.700688 
L 358.772282 229.669168 
L 359.980371 229.317074 
L 361.728121 228.324292 
L 363.28106 229.042463 
L 365.840096 229.92207 
L 367.742148 229.559322 
L 369.561088 228.884586 
L 371.33593 229.245769 
L 373.104597 230.534378 
L 374.648944 231.320924 
L 375.560733 229.832919 
L 377.144028 229.420531 
L 378.852527 229.437569 
L 380.534751 229.840411 
L 382.517432 230.935937 
L 384.706404 231.339243 
L 385.512971 230.54108 
L 387.017642 231.105466 
L 389.037017 231.42924 
L 390.661984 230.37758 
L 392.539372 229.551305 
L 393.916377 229.317803 
L 395.355454 229.409022 
L 396.597843 229.782361 
L 397.911634 230.047014 
L 399.331099 229.630925 
L 401.015226 229.340781 
L 402.561311 229.235198 
L 402.561311 229.235198 
" clip-path="url(#p2c3f8ec4ac)" style="fill: none; stroke: #ff7f0e; stroke-width: 1.5; stroke-linecap: square"/>
   </g>
   <g id="line2d_31">
    <path d="M 62.574297 237.465119 
L 64.278417 237.241573 
L 65.717494 236.900531 
L 66.773478 237.0316 
L 68.212555 237.413107 
L 74.062161 237.249617 
L 75.501238 236.252728 
L 77.323408 235.910277 
L 79.145579 236.00603 
L 80.96775 234.996066 
L 88.007955 230.267187 
L 89.195127 228.61349 
L 90.658385 225.328413 
L 91.900774 223.821137 
L 93.557293 222.422916 
L 97.118809 219.828554 
L 97.864242 218.412619 
L 98.858154 214.825546 
L 99.785804 211.890026 
L 103.927101 194.170419 
L 104.076188 192.437936 
L 105.389571 187.350039 
L 105.594664 185.475414 
L 106.008793 183.572714 
L 106.146837 181.192249 
L 106.257271 182.549533 
L 106.312489 179.438095 
L 106.726618 177.410121 
L 106.809444 172.122881 
L 106.846256 174.093771 
L 106.975096 176.04301 
L 107.140748 170.422472 
L 107.140748 159.483852 
L 107.3064 157.242841 
L 107.361617 168.616959 
L 107.444443 167.045186 
L 107.472052 153.675074 
L 107.527269 154.96186 
L 107.637704 163.058838 
L 107.72053 149.973327 
L 108.962919 144.083011 
L 109.618291 141.985911 
L 109.936124 139.958444 
L 110.420655 138.003216 
L 110.619438 136.376547 
L 111.116393 134.817613 
L 111.475306 133.247566 
L 112.010913 131.586058 
L 112.375348 129.758621 
L 113.539052 125.601786 
L 114.595083 118.681186 
L 114.926387 115.349399 
L 114.953995 116.556521 
L 115.174864 113.74313 
L 115.920298 107.498206 
L 115.920298 106.054428 
L 116.301297 104.864712 
L 116.701228 100.644976 
L 116.914209 98.962442 
L 118.097437 95.136679 
L 119.781261 90.038503 
L 120.351486 95.385979 
L 120.392899 92.91028 
L 120.744909 99.228801 
L 121.0348 103.832009 
L 121.280184 105.550018 
L 121.38681 107.109475 
L 121.718114 108.684977 
L 121.751244 110.377693 
L 121.931095 112.631468 
L 122.21507 114.774536 
L 122.684417 120.675101 
L 123.043329 122.664112 
L 123.469291 124.264154 
L 124.202892 125.78549 
L 125.196804 127.450777 
L 125.610933 128.948672 
L 126.025063 133.161577 
L 126.190715 135.074508 
L 126.687671 136.907059 
L 127.081094 138.924879 
L 127.350278 140.903087 
L 127.764408 143.043292 
L 127.847234 144.951833 
L 128.244798 148.873226 
L 128.699158 150.77582 
L 128.708624 152.862818 
L 129.120659 154.511117 
L 129.148784 156.368285 
L 129.735665 160.144829 
L 130.755472 165.69895 
L 130.99462 167.487875 
L 131.049837 169.45797 
L 131.960922 174.706233 
L 132.733964 177.511946 
L 133.081833 179.188772 
L 133.621385 181.017008 
L 134.075745 183.177306 
L 136.047002 190.078196 
L 137.19 191.589441 
L 140.022647 194.517455 
L 141.016559 196.007359 
L 141.927644 197.811751 
L 142.258948 199.164039 
L 142.976773 200.684105 
L 146.234593 203.547494 
L 147.476982 205.105233 
L 148.470894 206.640692 
L 149.069081 208.362952 
L 150.049775 210.05836 
L 151.514747 213.834972 
L 152.761278 215.330636 
L 154.517188 216.319169 
L 155.842403 217.886889 
L 157.359165 220.262743 
L 158.989788 219.012412 
L 160.811959 218.025325 
L 162.251036 220.055711 
L 164.456301 220.349479 
L 169.922813 221.854267 
L 171.744984 222.925286 
L 173.567154 223.48693 
L 175.389325 223.542684 
L 177.413325 226.078549 
L 179.427042 225.69212 
L 180.68295 225.205242 
L 183.837571 226.957509 
L 186.513955 226.167726 
L 189.304084 226.573882 
L 191.126254 226.532973 
L 192.948425 226.305708 
L 194.770596 225.947992 
L 196.592767 225.453615 
L 198.464633 224.751041 
L 200.122426 223.989356 
L 202.059279 223.411414 
L 203.88145 223.590649 
L 205.70362 224.213755 
L 207.640473 224.243895 
L 209.219122 224.027029 
L 211.170133 224.480307 
L 214.814474 226.094334 
L 216.636645 226.662191 
L 218.458816 226.907028 
L 220.280987 226.903391 
L 223.925328 226.138265 
L 227.56967 225.199206 
L 229.39184 224.450142 
L 231.214011 224.129697 
L 233.036182 224.200602 
L 234.858353 224.128634 
L 236.680523 224.448015 
L 242.147036 226.952917 
L 243.969206 227.34684 
L 245.791377 227.225176 
L 247.613548 226.494748 
L 249.435719 226.416567 
L 251.257889 226.630346 
L 253.08006 227.229261 
L 255.285325 228.410573 
L 258.355025 226.93374 
L 260.368743 228.481936 
L 262.190914 229.242361 
L 264.013085 228.962672 
L 265.835255 230.07369 
L 267.657426 230.598063 
L 269.862691 229.588092 
L 271.301768 229.982023 
L 273.123938 230.220649 
L 276.76828 230.064288 
L 280.412621 230.098011 
L 282.426339 230.574034 
L 284.056963 230.037313 
L 285.879134 229.021138 
L 287.701304 228.812508 
L 293.167817 229.919735 
L 294.989987 230.506226 
L 296.812158 231.35983 
L 298.634329 232.362518 
L 300.4565 233.110519 
L 302.27867 233.361569 
L 304.100841 232.687047 
L 305.539918 232.031926 
L 309.567353 232.340692 
L 311.389524 232.268723 
L 313.211695 232.563256 
L 315.033866 232.683856 
L 316.856036 232.282658 
L 318.678207 231.682679 
L 320.500378 232.244323 
L 324.144719 232.317802 
L 325.96689 232.630971 
L 327.405967 233.016719 
L 328.56553 233.626511 
L 329.44558 234.492424 
L 331.102099 235.571367 
L 333.231909 235.761458 
L 334.912092 236.029652 
L 336.626808 236.068451 
L 338.494362 236.222138 
L 340.124986 236.029627 
L 341.372516 235.252693 
L 343.194686 234.621654 
L 346.839028 234.278937 
L 350.331263 232.883998 
L 354.127711 234.096665 
L 357.772052 235.157834 
L 359.594223 236.045159 
L 362.023784 236.067976 
L 364.090489 236.684936 
L 366.123668 236.670302 
L 375.165501 234.023607 
L 376.987671 233.72801 
L 380.632013 233.4412 
L 382.454184 233.549376 
L 384.276354 233.856333 
L 387.83787 234.745598 
L 387.83787 234.745598 
" clip-path="url(#p2c3f8ec4ac)" style="fill: none; stroke: #2ca02c; stroke-width: 1.5; stroke-linecap: square"/>
   </g>
   <g id="line2d_32">
    <path d="M 84.990827 237.666467 
L 85.754491 237.572211 
L 86.518155 237.289444 
L 87.28182 236.818165 
L 88.045484 236.158374 
L 88.809149 235.310072 
L 89.572813 234.273258 
L 90.336478 233.047932 
L 91.100142 231.634095 
L 91.863806 230.031746 
L 92.627471 228.240886 
L 93.391135 226.261514 
L 94.1548 224.09363 
L 94.918464 221.737235 
L 95.682128 219.192328 
L 96.445793 216.458909 
L 97.209457 213.536979 
L 97.973122 210.426538 
L 98.736786 207.127584 
L 99.500451 203.640119 
L 100.264115 199.964142 
L 101.027779 196.099654 
L 101.791444 192.046654 
L 102.555108 187.805143 
L 103.318773 183.37512 
L 104.082437 178.756585 
L 104.846101 173.949538 
L 105.609766 168.95398 
L 106.37343 163.769911 
L 107.137095 158.39733 
L 107.900759 152.836237 
L 108.664424 147.086632 
L 109.428088 141.148516 
L 110.191752 135.021888 
L 110.955417 128.706749 
L 111.719081 122.203098 
L 112.482746 115.510935 
L 113.24641 108.630261 
L 114.010074 101.561075 
L 114.773739 94.303378 
L 115.537403 86.857169 
L 116.301068 79.222448 
L 117.064732 71.399215 
L 117.828397 63.387471 
L 118.592061 55.187216 
L 119.355725 46.798449 
L 120.11939 38.22117 
L 120.883054 29.455379 
L 121.646719 20.501077 
L 122.410383 11.358263 
" clip-path="url(#p2c3f8ec4ac)" style="fill: none; stroke-dasharray: 9.6,2.4,1.5,2.4; stroke-dashoffset: 0; stroke: #000000; stroke-width: 1.5"/>
   </g>
   <g id="patch_3">
    <path d="M 53.328125 242.6 
L 53.328125 7.2 
" style="fill: none; stroke: #000000; stroke-width: 0.8; stroke-linejoin: miter; stroke-linecap: square"/>
   </g>
   <g id="patch_4">
    <path d="M 410.253125 242.6 
L 410.253125 7.2 
" style="fill: none; stroke: #000000; stroke-width: 0.8; stroke-linejoin: miter; stroke-linecap: square"/>
   </g>
   <g id="patch_5">
    <path d="M 53.328125 242.6 
L 410.253125 242.6 
" style="fill: none; stroke: #000000; stroke-width: 0.8; stroke-linejoin: miter; stroke-linecap: square"/>
   </g>
   <g id="patch_6">
    <path d="M 53.328125 7.2 
L 410.253125 7.2 
" style="fill: none; stroke: #000000; stroke-width: 0.8; stroke-linejoin: miter; stroke-linecap: square"/>
   </g>
   <g id="legend_1">
    <g id="patch_7">
     <path d="M 264.784375 73.9125 
L 403.253125 73.9125 
Q 405.253125 73.9125 405.253125 71.9125 
L 405.253125 14.2 
Q 405.253125 12.2 403.253125 12.2 
L 264.784375 12.2 
Q 262.784375 12.2 262.784375 14.2 
L 262.784375 71.9125 
Q 262.784375 73.9125 264.784375 73.9125 
z
" style="fill: #ffffff; opacity: 0.8; stroke: #cccccc; stroke-linejoin: miter"/>
    </g>
    <g id="line2d_33">
     <path d="M 266.784375 20.298437 
L 276.784375 20.298437 
L 286.784375 20.298437 
" style="fill: none; stroke: #1f77b4; stroke-width: 1.5; stroke-linecap: square"/>
    </g>
    <g id="text_17">
     <!-- Sofa (F32) -->
     <g transform="translate(294.784375 23.798437)scale(0.1 -0.1)">
      <defs>
       <path id="DejaVuSans-53" d="M 3425 4513 
L 3425 3897 
Q 3066 4069 2747 4153 
Q 2428 4238 2131 4238 
Q 1616 4238 1336 4038 
Q 1056 3838 1056 3469 
Q 1056 3159 1242 3001 
Q 1428 2844 1947 2747 
L 2328 2669 
Q 3034 2534 3370 2195 
Q 3706 1856 3706 1288 
Q 3706 609 3251 259 
Q 2797 -91 1919 -91 
Q 1588 -91 1214 -16 
Q 841 59 441 206 
L 441 856 
Q 825 641 1194 531 
Q 1563 422 1919 422 
Q 2459 422 2753 634 
Q 3047 847 3047 1241 
Q 3047 1584 2836 1778 
Q 2625 1972 2144 2069 
L 1759 2144 
Q 1053 2284 737 2584 
Q 422 2884 422 3419 
Q 422 4038 858 4394 
Q 1294 4750 2059 4750 
Q 2388 4750 2728 4690 
Q 3069 4631 3425 4513 
z
" transform="scale(0.015625)"/>
       <path id="DejaVuSans-6f" d="M 1959 3097 
Q 1497 3097 1228 2736 
Q 959 2375 959 1747 
Q 959 1119 1226 758 
Q 1494 397 1959 397 
Q 2419 397 2687 759 
Q 2956 1122 2956 1747 
Q 2956 2369 2687 2733 
Q 2419 3097 1959 3097 
z
M 1959 3584 
Q 2709 3584 3137 3096 
Q 3566 2609 3566 1747 
Q 3566 888 3137 398 
Q 2709 -91 1959 -91 
Q 1206 -91 779 398 
Q 353 888 353 1747 
Q 353 2609 779 3096 
Q 1206 3584 1959 3584 
z
" transform="scale(0.015625)"/>
       <path id="DejaVuSans-66" d="M 2375 4863 
L 2375 4384 
L 1825 4384 
Q 1516 4384 1395 4259 
Q 1275 4134 1275 3809 
L 1275 3500 
L 2222 3500 
L 2222 3053 
L 1275 3053 
L 1275 0 
L 697 0 
L 697 3053 
L 147 3053 
L 147 3500 
L 697 3500 
L 697 3744 
Q 697 4328 969 4595 
Q 1241 4863 1831 4863 
L 2375 4863 
z
" transform="scale(0.015625)"/>
       <path id="DejaVuSans-28" d="M 1984 4856 
Q 1566 4138 1362 3434 
Q 1159 2731 1159 2009 
Q 1159 1288 1364 580 
Q 1569 -128 1984 -844 
L 1484 -844 
Q 1016 -109 783 600 
Q 550 1309 550 2009 
Q 550 2706 781 3412 
Q 1013 4119 1484 4856 
L 1984 4856 
z
" transform="scale(0.015625)"/>
       <path id="DejaVuSans-46" d="M 628 4666 
L 3309 4666 
L 3309 4134 
L 1259 4134 
L 1259 2759 
L 3109 2759 
L 3109 2228 
L 1259 2228 
L 1259 0 
L 628 0 
L 628 4666 
z
" transform="scale(0.015625)"/>
       <path id="DejaVuSans-29" d="M 513 4856 
L 1013 4856 
Q 1481 4119 1714 3412 
Q 1947 2706 1947 2009 
Q 1947 1309 1714 600 
Q 1481 -109 1013 -844 
L 513 -844 
Q 928 -128 1133 580 
Q 1338 1288 1338 2009 
Q 1338 2731 1133 3434 
Q 928 4138 513 4856 
z
" transform="scale(0.015625)"/>
      </defs>
      <use xlink:href="#DejaVuSans-53"/>
      <use xlink:href="#DejaVuSans-6f" x="63.476562"/>
      <use xlink:href="#DejaVuSans-66" x="124.658203"/>
      <use xlink:href="#DejaVuSans-61" x="159.863281"/>
      <use xlink:href="#DejaVuSans-20" x="221.142578"/>
      <use xlink:href="#DejaVuSans-28" x="252.929688"/>
      <use xlink:href="#DejaVuSans-46" x="291.943359"/>
      <use xlink:href="#DejaVuSans-33" x="349.462891"/>
      <use xlink:href="#DejaVuSans-32" x="413.085938"/>
      <use xlink:href="#DejaVuSans-29" x="476.708984"/>
     </g>
    </g>
    <g id="line2d_34">
     <path d="M 266.784375 34.976562 
L 276.784375 34.976562 
L 286.784375 34.976562 
" style="fill: none; stroke: #ff7f0e; stroke-width: 1.5; stroke-linecap: square"/>
    </g>
    <g id="text_18">
     <!-- LoveSeat (F31) -->
     <g transform="translate(294.784375 38.476562)scale(0.1 -0.1)">
      <defs>
       <path id="DejaVuSans-4c" d="M 628 4666 
L 1259 4666 
L 1259 531 
L 3531 531 
L 3531 0 
L 628 0 
L 628 4666 
z
" transform="scale(0.015625)"/>
       <path id="DejaVuSans-76" d="M 191 3500 
L 800 3500 
L 1894 563 
L 2988 3500 
L 3597 3500 
L 2284 0 
L 1503 0 
L 191 3500 
z
" transform="scale(0.015625)"/>
      </defs>
      <use xlink:href="#DejaVuSans-4c"/>
      <use xlink:href="#DejaVuSans-6f" x="53.962891"/>
      <use xlink:href="#DejaVuSans-76" x="115.144531"/>
      <use xlink:href="#DejaVuSans-65" x="174.324219"/>
      <use xlink:href="#DejaVuSans-53" x="235.847656"/>
      <use xlink:href="#DejaVuSans-65" x="299.324219"/>
      <use xlink:href="#DejaVuSans-61" x="360.847656"/>
      <use xlink:href="#DejaVuSans-74" x="422.126953"/>
      <use xlink:href="#DejaVuSans-20" x="461.335938"/>
      <use xlink:href="#DejaVuSans-28" x="493.123047"/>
      <use xlink:href="#DejaVuSans-46" x="532.136719"/>
      <use xlink:href="#DejaVuSans-33" x="589.65625"/>
      <use xlink:href="#DejaVuSans-31" x="653.279297"/>
      <use xlink:href="#DejaVuSans-29" x="716.902344"/>
     </g>
    </g>
    <g id="line2d_35">
     <path d="M 266.784375 49.654687 
L 276.784375 49.654687 
L 286.784375 49.654687 
" style="fill: none; stroke: #2ca02c; stroke-width: 1.5; stroke-linecap: square"/>
    </g>
    <g id="text_19">
     <!-- SingleChair (F21) -->
     <g transform="translate(294.784375 53.154687)scale(0.1 -0.1)">
      <defs>
       <path id="DejaVuSans-6e" d="M 3513 2113 
L 3513 0 
L 2938 0 
L 2938 2094 
Q 2938 2591 2744 2837 
Q 2550 3084 2163 3084 
Q 1697 3084 1428 2787 
Q 1159 2491 1159 1978 
L 1159 0 
L 581 0 
L 581 3500 
L 1159 3500 
L 1159 2956 
Q 1366 3272 1645 3428 
Q 1925 3584 2291 3584 
Q 2894 3584 3203 3211 
Q 3513 2838 3513 2113 
z
" transform="scale(0.015625)"/>
       <path id="DejaVuSans-67" d="M 2906 1791 
Q 2906 2416 2648 2759 
Q 2391 3103 1925 3103 
Q 1463 3103 1205 2759 
Q 947 2416 947 1791 
Q 947 1169 1205 825 
Q 1463 481 1925 481 
Q 2391 481 2648 825 
Q 2906 1169 2906 1791 
z
M 3481 434 
Q 3481 -459 3084 -895 
Q 2688 -1331 1869 -1331 
Q 1566 -1331 1297 -1286 
Q 1028 -1241 775 -1147 
L 775 -588 
Q 1028 -725 1275 -790 
Q 1522 -856 1778 -856 
Q 2344 -856 2625 -561 
Q 2906 -266 2906 331 
L 2906 616 
Q 2728 306 2450 153 
Q 2172 0 1784 0 
Q 1141 0 747 490 
Q 353 981 353 1791 
Q 353 2603 747 3093 
Q 1141 3584 1784 3584 
Q 2172 3584 2450 3431 
Q 2728 3278 2906 2969 
L 2906 3500 
L 3481 3500 
L 3481 434 
z
" transform="scale(0.015625)"/>
       <path id="DejaVuSans-43" d="M 4122 4306 
L 4122 3641 
Q 3803 3938 3442 4084 
Q 3081 4231 2675 4231 
Q 1875 4231 1450 3742 
Q 1025 3253 1025 2328 
Q 1025 1406 1450 917 
Q 1875 428 2675 428 
Q 3081 428 3442 575 
Q 3803 722 4122 1019 
L 4122 359 
Q 3791 134 3420 21 
Q 3050 -91 2638 -91 
Q 1578 -91 968 557 
Q 359 1206 359 2328 
Q 359 3453 968 4101 
Q 1578 4750 2638 4750 
Q 3056 4750 3426 4639 
Q 3797 4528 4122 4306 
z
" transform="scale(0.015625)"/>
       <path id="DejaVuSans-68" d="M 3513 2113 
L 3513 0 
L 2938 0 
L 2938 2094 
Q 2938 2591 2744 2837 
Q 2550 3084 2163 3084 
Q 1697 3084 1428 2787 
Q 1159 2491 1159 1978 
L 1159 0 
L 581 0 
L 581 4863 
L 1159 4863 
L 1159 2956 
Q 1366 3272 1645 3428 
Q 1925 3584 2291 3584 
Q 2894 3584 3203 3211 
Q 3513 2838 3513 2113 
z
" transform="scale(0.015625)"/>
       <path id="DejaVuSans-72" d="M 2631 2963 
Q 2534 3019 2420 3045 
Q 2306 3072 2169 3072 
Q 1681 3072 1420 2755 
Q 1159 2438 1159 1844 
L 1159 0 
L 581 0 
L 581 3500 
L 1159 3500 
L 1159 2956 
Q 1341 3275 1631 3429 
Q 1922 3584 2338 3584 
Q 2397 3584 2469 3576 
Q 2541 3569 2628 3553 
L 2631 2963 
z
" transform="scale(0.015625)"/>
      </defs>
      <use xlink:href="#DejaVuSans-53"/>
      <use xlink:href="#DejaVuSans-69" x="63.476562"/>
      <use xlink:href="#DejaVuSans-6e" x="91.259766"/>
      <use xlink:href="#DejaVuSans-67" x="154.638672"/>
      <use xlink:href="#DejaVuSans-6c" x="218.115234"/>
      <use xlink:href="#DejaVuSans-65" x="245.898438"/>
      <use xlink:href="#DejaVuSans-43" x="307.421875"/>
      <use xlink:href="#DejaVuSans-68" x="377.246094"/>
      <use xlink:href="#DejaVuSans-61" x="440.625"/>
      <use xlink:href="#DejaVuSans-69" x="501.904297"/>
      <use xlink:href="#DejaVuSans-72" x="529.6875"/>
      <use xlink:href="#DejaVuSans-20" x="570.800781"/>
      <use xlink:href="#DejaVuSans-28" x="602.587891"/>
      <use xlink:href="#DejaVuSans-46" x="641.601562"/>
      <use xlink:href="#DejaVuSans-32" x="699.121094"/>
      <use xlink:href="#DejaVuSans-31" x="762.744141"/>
      <use xlink:href="#DejaVuSans-29" x="826.367188"/>
     </g>
    </g>
    <g id="line2d_36">
     <path d="M 266.784375 64.332812 
L 276.784375 64.332812 
L 286.784375 64.332812 
" style="fill: none; stroke-dasharray: 9.6,2.4,1.5,2.4; stroke-dashoffset: 0; stroke: #000000; stroke-width: 1.5"/>
    </g>
    <g id="text_20">
     <!-- Ultra fast: 0.19 kW/s -->
     <g transform="translate(294.784375 67.832812)scale(0.1 -0.1)">
      <defs>
       <path id="DejaVuSans-55" d="M 556 4666 
L 1191 4666 
L 1191 1831 
Q 1191 1081 1462 751 
Q 1734 422 2344 422 
Q 2950 422 3222 751 
Q 3494 1081 3494 1831 
L 3494 4666 
L 4128 4666 
L 4128 1753 
Q 4128 841 3676 375 
Q 3225 -91 2344 -91 
Q 1459 -91 1007 375 
Q 556 841 556 1753 
L 556 4666 
z
" transform="scale(0.015625)"/>
       <path id="DejaVuSans-3a" d="M 750 794 
L 1409 794 
L 1409 0 
L 750 0 
L 750 794 
z
M 750 3309 
L 1409 3309 
L 1409 2516 
L 750 2516 
L 750 3309 
z
" transform="scale(0.015625)"/>
       <path id="DejaVuSans-2e" d="M 684 794 
L 1344 794 
L 1344 0 
L 684 0 
L 684 794 
z
" transform="scale(0.015625)"/>
       <path id="DejaVuSans-39" d="M 703 97 
L 703 672 
Q 941 559 1184 500 
Q 1428 441 1663 441 
Q 2288 441 2617 861 
Q 2947 1281 2994 2138 
Q 2813 1869 2534 1725 
Q 2256 1581 1919 1581 
Q 1219 1581 811 2004 
Q 403 2428 403 3163 
Q 403 3881 828 4315 
Q 1253 4750 1959 4750 
Q 2769 4750 3195 4129 
Q 3622 3509 3622 2328 
Q 3622 1225 3098 567 
Q 2575 -91 1691 -91 
Q 1453 -91 1209 -44 
Q 966 3 703 97 
z
M 1959 2075 
Q 2384 2075 2632 2365 
Q 2881 2656 2881 3163 
Q 2881 3666 2632 3958 
Q 2384 4250 1959 4250 
Q 1534 4250 1286 3958 
Q 1038 3666 1038 3163 
Q 1038 2656 1286 2365 
Q 1534 2075 1959 2075 
z
" transform="scale(0.015625)"/>
       <path id="DejaVuSans-b2" d="M 838 2444 
L 2163 2444 
L 2163 2088 
L 294 2088 
L 294 2431 
Q 400 2528 597 2703 
Q 1672 3656 1672 3950 
Q 1672 4156 1509 4282 
Q 1347 4409 1081 4409 
Q 919 4409 728 4354 
Q 538 4300 313 4191 
L 313 4575 
Q 553 4663 761 4706 
Q 969 4750 1147 4750 
Q 1600 4750 1872 4544 
Q 2144 4338 2144 4000 
Q 2144 3566 1109 2678 
Q 934 2528 838 2444 
z
" transform="scale(0.015625)"/>
      </defs>
      <use xlink:href="#DejaVuSans-55"/>
      <use xlink:href="#DejaVuSans-6c" x="73.193359"/>
      <use xlink:href="#DejaVuSans-74" x="100.976562"/>
      <use xlink:href="#DejaVuSans-72" x="140.185547"/>
      <use xlink:href="#DejaVuSans-61" x="181.298828"/>
      <use xlink:href="#DejaVuSans-20" x="242.578125"/>
      <use xlink:href="#DejaVuSans-66" x="274.365234"/>
      <use xlink:href="#DejaVuSans-61" x="309.570312"/>
      <use xlink:href="#DejaVuSans-73" x="370.849609"/>
      <use xlink:href="#DejaVuSans-74" x="422.949219"/>
      <use xlink:href="#DejaVuSans-3a" x="462.158203"/>
      <use xlink:href="#DejaVuSans-20" x="495.849609"/>
      <use xlink:href="#DejaVuSans-30" x="527.636719"/>
      <use xlink:href="#DejaVuSans-2e" x="591.259766"/>
      <use xlink:href="#DejaVuSans-31" x="623.046875"/>
      <use xlink:href="#DejaVuSans-39" x="686.669922"/>
      <use xlink:href="#DejaVuSans-20" x="750.292969"/>
      <use xlink:href="#DejaVuSans-6b" x="782.080078"/>
      <use xlink:href="#DejaVuSans-57" x="839.990234"/>
      <use xlink:href="#DejaVuSans-2f" x="938.867188"/>
      <use xlink:href="#DejaVuSans-73" x="972.558594"/>
      <use xlink:href="#DejaVuSans-b2" x="1024.658203"/>
     </g>
    </g>
   </g>
  </g>
 </g>
 <defs>
  <clipPath id="p2c3f8ec4ac">
   <rect x="53.328125" y="7.2" width="356.925" height="235.4"/>
  </clipPath>
 </defs>
</svg>
