<?xml version="1.0" encoding="utf-8" standalone="no"?>
<!DOCTYPE svg PUBLIC "-//W3C//DTD SVG 1.1//EN"
  "http://www.w3.org/Graphics/SVG/1.1/DTD/svg11.dtd">
<svg height="262.19625pt" version="1.1" viewBox="0 0 395.328125 262.19625" width="395.328125pt" xmlns="http://www.w3.org/2000/svg" xmlns:xlink="http://www.w3.org/1999/xlink">
 <metadata>
  <rdf:RDF xmlns:cc="http://creativecommons.org/ns#" xmlns:dc="http://purl.org/dc/elements/1.1/" xmlns:rdf="http://www.w3.org/1999/02/22-rdf-syntax-ns#">
   <cc:Work>
    <dc:type rdf:resource="http://purl.org/dc/dcmitype/StillImage"/>
    <dc:date>2021-06-03T19:51:28.094903</dc:date>
    <dc:format>image/svg+xml</dc:format>
    <dc:creator>
     <cc:Agent>
      <dc:title>Matplotlib v3.4.1, https://matplotlib.org/</dc:title>
     </cc:Agent>
    </dc:creator>
   </cc:Work>
  </rdf:RDF>
 </metadata>
 <defs>
  <style type="text/css">*{stroke-linecap:butt;stroke-linejoin:round;}</style>
 </defs>
 <g id="figure_1">
  <g id="patch_1">
   <path d="M 0 262.19625 
L 395.328125 262.19625 
L 395.328125 0 
L 0 0 
z
" style="fill:none;"/>
  </g>
  <g id="axes_1">
   <g id="patch_2">
    <path d="M 53.328125 224.64 
L 388.128125 224.64 
L 388.128125 7.2 
L 53.328125 7.2 
z
" style="fill:#ffffff;"/>
   </g>
   <g id="matplotlib.axis_1">
    <g id="xtick_1">
     <g id="line2d_1">
      <path clip-path="url(#p1423d43ba2)" d="M 66.236291 224.64 
L 66.236291 7.2 
" style="fill:none;stroke:#b0b0b0;stroke-dasharray:2.96,1.28;stroke-dashoffset:0;stroke-opacity:0.5;stroke-width:0.8;"/>
     </g>
     <g id="line2d_2">
      <defs>
       <path d="M 0 0 
L 0 3.5 
" id="mc4d437d20b" style="stroke:#000000;stroke-width:0.8;"/>
      </defs>
      <g>
       <use style="stroke:#000000;stroke-width:0.8;" x="66.236291" xlink:href="#mc4d437d20b" y="224.64"/>
      </g>
     </g>
     <g id="text_1">
      <!-- 0 -->
      <g transform="translate(63.055041 239.238438)scale(0.1 -0.1)">
       <defs>
        <path d="M 2034 4250 
Q 1547 4250 1301 3770 
Q 1056 3291 1056 2328 
Q 1056 1369 1301 889 
Q 1547 409 2034 409 
Q 2525 409 2770 889 
Q 3016 1369 3016 2328 
Q 3016 3291 2770 3770 
Q 2525 4250 2034 4250 
z
M 2034 4750 
Q 2819 4750 3233 4129 
Q 3647 3509 3647 2328 
Q 3647 1150 3233 529 
Q 2819 -91 2034 -91 
Q 1250 -91 836 529 
Q 422 1150 422 2328 
Q 422 3509 836 4129 
Q 1250 4750 2034 4750 
z
" id="DejaVuSans-30" transform="scale(0.015625)"/>
       </defs>
       <use xlink:href="#DejaVuSans-30"/>
      </g>
     </g>
    </g>
    <g id="xtick_2">
     <g id="line2d_3">
      <path clip-path="url(#p1423d43ba2)" d="M 117.569971 224.64 
L 117.569971 7.2 
" style="fill:none;stroke:#b0b0b0;stroke-dasharray:2.96,1.28;stroke-dashoffset:0;stroke-opacity:0.5;stroke-width:0.8;"/>
     </g>
     <g id="line2d_4">
      <g>
       <use style="stroke:#000000;stroke-width:0.8;" x="117.569971" xlink:href="#mc4d437d20b" y="224.64"/>
      </g>
     </g>
     <g id="text_2">
      <!-- 5 -->
      <g transform="translate(114.388721 239.238438)scale(0.1 -0.1)">
       <defs>
        <path d="M 691 4666 
L 3169 4666 
L 3169 4134 
L 1269 4134 
L 1269 2991 
Q 1406 3038 1543 3061 
Q 1681 3084 1819 3084 
Q 2600 3084 3056 2656 
Q 3513 2228 3513 1497 
Q 3513 744 3044 326 
Q 2575 -91 1722 -91 
Q 1428 -91 1123 -41 
Q 819 9 494 109 
L 494 744 
Q 775 591 1075 516 
Q 1375 441 1709 441 
Q 2250 441 2565 725 
Q 2881 1009 2881 1497 
Q 2881 1984 2565 2268 
Q 2250 2553 1709 2553 
Q 1456 2553 1204 2497 
Q 953 2441 691 2322 
L 691 4666 
z
" id="DejaVuSans-35" transform="scale(0.015625)"/>
       </defs>
       <use xlink:href="#DejaVuSans-35"/>
      </g>
     </g>
    </g>
    <g id="xtick_3">
     <g id="line2d_5">
      <path clip-path="url(#p1423d43ba2)" d="M 168.903651 224.64 
L 168.903651 7.2 
" style="fill:none;stroke:#b0b0b0;stroke-dasharray:2.96,1.28;stroke-dashoffset:0;stroke-opacity:0.5;stroke-width:0.8;"/>
     </g>
     <g id="line2d_6">
      <g>
       <use style="stroke:#000000;stroke-width:0.8;" x="168.903651" xlink:href="#mc4d437d20b" y="224.64"/>
      </g>
     </g>
     <g id="text_3">
      <!-- 10 -->
      <g transform="translate(162.541151 239.238438)scale(0.1 -0.1)">
       <defs>
        <path d="M 794 531 
L 1825 531 
L 1825 4091 
L 703 3866 
L 703 4441 
L 1819 4666 
L 2450 4666 
L 2450 531 
L 3481 531 
L 3481 0 
L 794 0 
L 794 531 
z
" id="DejaVuSans-31" transform="scale(0.015625)"/>
       </defs>
       <use xlink:href="#DejaVuSans-31"/>
       <use x="63.623047" xlink:href="#DejaVuSans-30"/>
      </g>
     </g>
    </g>
    <g id="xtick_4">
     <g id="line2d_7">
      <path clip-path="url(#p1423d43ba2)" d="M 220.237331 224.64 
L 220.237331 7.2 
" style="fill:none;stroke:#b0b0b0;stroke-dasharray:2.96,1.28;stroke-dashoffset:0;stroke-opacity:0.5;stroke-width:0.8;"/>
     </g>
     <g id="line2d_8">
      <g>
       <use style="stroke:#000000;stroke-width:0.8;" x="220.237331" xlink:href="#mc4d437d20b" y="224.64"/>
      </g>
     </g>
     <g id="text_4">
      <!-- 15 -->
      <g transform="translate(213.874831 239.238438)scale(0.1 -0.1)">
       <use xlink:href="#DejaVuSans-31"/>
       <use x="63.623047" xlink:href="#DejaVuSans-35"/>
      </g>
     </g>
    </g>
    <g id="xtick_5">
     <g id="line2d_9">
      <path clip-path="url(#p1423d43ba2)" d="M 271.571011 224.64 
L 271.571011 7.2 
" style="fill:none;stroke:#b0b0b0;stroke-dasharray:2.96,1.28;stroke-dashoffset:0;stroke-opacity:0.5;stroke-width:0.8;"/>
     </g>
     <g id="line2d_10">
      <g>
       <use style="stroke:#000000;stroke-width:0.8;" x="271.571011" xlink:href="#mc4d437d20b" y="224.64"/>
      </g>
     </g>
     <g id="text_5">
      <!-- 20 -->
      <g transform="translate(265.208511 239.238438)scale(0.1 -0.1)">
       <defs>
        <path d="M 1228 531 
L 3431 531 
L 3431 0 
L 469 0 
L 469 531 
Q 828 903 1448 1529 
Q 2069 2156 2228 2338 
Q 2531 2678 2651 2914 
Q 2772 3150 2772 3378 
Q 2772 3750 2511 3984 
Q 2250 4219 1831 4219 
Q 1534 4219 1204 4116 
Q 875 4013 500 3803 
L 500 4441 
Q 881 4594 1212 4672 
Q 1544 4750 1819 4750 
Q 2544 4750 2975 4387 
Q 3406 4025 3406 3419 
Q 3406 3131 3298 2873 
Q 3191 2616 2906 2266 
Q 2828 2175 2409 1742 
Q 1991 1309 1228 531 
z
" id="DejaVuSans-32" transform="scale(0.015625)"/>
       </defs>
       <use xlink:href="#DejaVuSans-32"/>
       <use x="63.623047" xlink:href="#DejaVuSans-30"/>
      </g>
     </g>
    </g>
    <g id="xtick_6">
     <g id="line2d_11">
      <path clip-path="url(#p1423d43ba2)" d="M 322.904691 224.64 
L 322.904691 7.2 
" style="fill:none;stroke:#b0b0b0;stroke-dasharray:2.96,1.28;stroke-dashoffset:0;stroke-opacity:0.5;stroke-width:0.8;"/>
     </g>
     <g id="line2d_12">
      <g>
       <use style="stroke:#000000;stroke-width:0.8;" x="322.904691" xlink:href="#mc4d437d20b" y="224.64"/>
      </g>
     </g>
     <g id="text_6">
      <!-- 25 -->
      <g transform="translate(316.542191 239.238438)scale(0.1 -0.1)">
       <use xlink:href="#DejaVuSans-32"/>
       <use x="63.623047" xlink:href="#DejaVuSans-35"/>
      </g>
     </g>
    </g>
    <g id="xtick_7">
     <g id="line2d_13">
      <path clip-path="url(#p1423d43ba2)" d="M 374.238371 224.64 
L 374.238371 7.2 
" style="fill:none;stroke:#b0b0b0;stroke-dasharray:2.96,1.28;stroke-dashoffset:0;stroke-opacity:0.5;stroke-width:0.8;"/>
     </g>
     <g id="line2d_14">
      <g>
       <use style="stroke:#000000;stroke-width:0.8;" x="374.238371" xlink:href="#mc4d437d20b" y="224.64"/>
      </g>
     </g>
     <g id="text_7">
      <!-- 30 -->
      <g transform="translate(367.875871 239.238438)scale(0.1 -0.1)">
       <defs>
        <path d="M 2597 2516 
Q 3050 2419 3304 2112 
Q 3559 1806 3559 1356 
Q 3559 666 3084 287 
Q 2609 -91 1734 -91 
Q 1441 -91 1130 -33 
Q 819 25 488 141 
L 488 750 
Q 750 597 1062 519 
Q 1375 441 1716 441 
Q 2309 441 2620 675 
Q 2931 909 2931 1356 
Q 2931 1769 2642 2001 
Q 2353 2234 1838 2234 
L 1294 2234 
L 1294 2753 
L 1863 2753 
Q 2328 2753 2575 2939 
Q 2822 3125 2822 3475 
Q 2822 3834 2567 4026 
Q 2313 4219 1838 4219 
Q 1578 4219 1281 4162 
Q 984 4106 628 3988 
L 628 4550 
Q 988 4650 1302 4700 
Q 1616 4750 1894 4750 
Q 2613 4750 3031 4423 
Q 3450 4097 3450 3541 
Q 3450 3153 3228 2886 
Q 3006 2619 2597 2516 
z
" id="DejaVuSans-33" transform="scale(0.015625)"/>
       </defs>
       <use xlink:href="#DejaVuSans-33"/>
       <use x="63.623047" xlink:href="#DejaVuSans-30"/>
      </g>
     </g>
    </g>
    <g id="text_8">
     <!-- Time / s -->
     <g transform="translate(201.027344 252.916563)scale(0.1 -0.1)">
      <defs>
       <path d="M -19 4666 
L 3928 4666 
L 3928 4134 
L 2272 4134 
L 2272 0 
L 1638 0 
L 1638 4134 
L -19 4134 
L -19 4666 
z
" id="DejaVuSans-54" transform="scale(0.015625)"/>
       <path d="M 603 3500 
L 1178 3500 
L 1178 0 
L 603 0 
L 603 3500 
z
M 603 4863 
L 1178 4863 
L 1178 4134 
L 603 4134 
L 603 4863 
z
" id="DejaVuSans-69" transform="scale(0.015625)"/>
       <path d="M 3328 2828 
Q 3544 3216 3844 3400 
Q 4144 3584 4550 3584 
Q 5097 3584 5394 3201 
Q 5691 2819 5691 2113 
L 5691 0 
L 5113 0 
L 5113 2094 
Q 5113 2597 4934 2840 
Q 4756 3084 4391 3084 
Q 3944 3084 3684 2787 
Q 3425 2491 3425 1978 
L 3425 0 
L 2847 0 
L 2847 2094 
Q 2847 2600 2669 2842 
Q 2491 3084 2119 3084 
Q 1678 3084 1418 2786 
Q 1159 2488 1159 1978 
L 1159 0 
L 581 0 
L 581 3500 
L 1159 3500 
L 1159 2956 
Q 1356 3278 1631 3431 
Q 1906 3584 2284 3584 
Q 2666 3584 2933 3390 
Q 3200 3197 3328 2828 
z
" id="DejaVuSans-6d" transform="scale(0.015625)"/>
       <path d="M 3597 1894 
L 3597 1613 
L 953 1613 
Q 991 1019 1311 708 
Q 1631 397 2203 397 
Q 2534 397 2845 478 
Q 3156 559 3463 722 
L 3463 178 
Q 3153 47 2828 -22 
Q 2503 -91 2169 -91 
Q 1331 -91 842 396 
Q 353 884 353 1716 
Q 353 2575 817 3079 
Q 1281 3584 2069 3584 
Q 2775 3584 3186 3129 
Q 3597 2675 3597 1894 
z
M 3022 2063 
Q 3016 2534 2758 2815 
Q 2500 3097 2075 3097 
Q 1594 3097 1305 2825 
Q 1016 2553 972 2059 
L 3022 2063 
z
" id="DejaVuSans-65" transform="scale(0.015625)"/>
       <path id="DejaVuSans-20" transform="scale(0.015625)"/>
       <path d="M 1625 4666 
L 2156 4666 
L 531 -594 
L 0 -594 
L 1625 4666 
z
" id="DejaVuSans-2f" transform="scale(0.015625)"/>
       <path d="M 2834 3397 
L 2834 2853 
Q 2591 2978 2328 3040 
Q 2066 3103 1784 3103 
Q 1356 3103 1142 2972 
Q 928 2841 928 2578 
Q 928 2378 1081 2264 
Q 1234 2150 1697 2047 
L 1894 2003 
Q 2506 1872 2764 1633 
Q 3022 1394 3022 966 
Q 3022 478 2636 193 
Q 2250 -91 1575 -91 
Q 1294 -91 989 -36 
Q 684 19 347 128 
L 347 722 
Q 666 556 975 473 
Q 1284 391 1588 391 
Q 1994 391 2212 530 
Q 2431 669 2431 922 
Q 2431 1156 2273 1281 
Q 2116 1406 1581 1522 
L 1381 1569 
Q 847 1681 609 1914 
Q 372 2147 372 2553 
Q 372 3047 722 3315 
Q 1072 3584 1716 3584 
Q 2034 3584 2315 3537 
Q 2597 3491 2834 3397 
z
" id="DejaVuSans-73" transform="scale(0.015625)"/>
      </defs>
      <use xlink:href="#DejaVuSans-54"/>
      <use x="57.958984" xlink:href="#DejaVuSans-69"/>
      <use x="85.742188" xlink:href="#DejaVuSans-6d"/>
      <use x="183.154297" xlink:href="#DejaVuSans-65"/>
      <use x="244.677734" xlink:href="#DejaVuSans-20"/>
      <use x="276.464844" xlink:href="#DejaVuSans-2f"/>
      <use x="310.15625" xlink:href="#DejaVuSans-20"/>
      <use x="341.943359" xlink:href="#DejaVuSans-73"/>
     </g>
    </g>
   </g>
   <g id="matplotlib.axis_2">
    <g id="ytick_1">
     <g id="line2d_15">
      <path clip-path="url(#p1423d43ba2)" d="M 53.328125 218.203771 
L 388.128125 218.203771 
" style="fill:none;stroke:#b0b0b0;stroke-dasharray:2.96,1.28;stroke-dashoffset:0;stroke-opacity:0.5;stroke-width:0.8;"/>
     </g>
     <g id="line2d_16">
      <defs>
       <path d="M 0 0 
L -3.5 0 
" id="m8098c32e21" style="stroke:#000000;stroke-width:0.8;"/>
      </defs>
      <g>
       <use style="stroke:#000000;stroke-width:0.8;" x="53.328125" xlink:href="#m8098c32e21" y="218.203771"/>
      </g>
     </g>
     <g id="text_9">
      <!-- 0 -->
      <g transform="translate(39.965625 222.00299)scale(0.1 -0.1)">
       <use xlink:href="#DejaVuSans-30"/>
      </g>
     </g>
    </g>
    <g id="ytick_2">
     <g id="line2d_17">
      <path clip-path="url(#p1423d43ba2)" d="M 53.328125 183.732228 
L 388.128125 183.732228 
" style="fill:none;stroke:#b0b0b0;stroke-dasharray:2.96,1.28;stroke-dashoffset:0;stroke-opacity:0.5;stroke-width:0.8;"/>
     </g>
     <g id="line2d_18">
      <g>
       <use style="stroke:#000000;stroke-width:0.8;" x="53.328125" xlink:href="#m8098c32e21" y="183.732228"/>
      </g>
     </g>
     <g id="text_10">
      <!-- 200 -->
      <g transform="translate(27.240625 187.531447)scale(0.1 -0.1)">
       <use xlink:href="#DejaVuSans-32"/>
       <use x="63.623047" xlink:href="#DejaVuSans-30"/>
       <use x="127.246094" xlink:href="#DejaVuSans-30"/>
      </g>
     </g>
    </g>
    <g id="ytick_3">
     <g id="line2d_19">
      <path clip-path="url(#p1423d43ba2)" d="M 53.328125 149.260685 
L 388.128125 149.260685 
" style="fill:none;stroke:#b0b0b0;stroke-dasharray:2.96,1.28;stroke-dashoffset:0;stroke-opacity:0.5;stroke-width:0.8;"/>
     </g>
     <g id="line2d_20">
      <g>
       <use style="stroke:#000000;stroke-width:0.8;" x="53.328125" xlink:href="#m8098c32e21" y="149.260685"/>
      </g>
     </g>
     <g id="text_11">
      <!-- 400 -->
      <g transform="translate(27.240625 153.059904)scale(0.1 -0.1)">
       <defs>
        <path d="M 2419 4116 
L 825 1625 
L 2419 1625 
L 2419 4116 
z
M 2253 4666 
L 3047 4666 
L 3047 1625 
L 3713 1625 
L 3713 1100 
L 3047 1100 
L 3047 0 
L 2419 0 
L 2419 1100 
L 313 1100 
L 313 1709 
L 2253 4666 
z
" id="DejaVuSans-34" transform="scale(0.015625)"/>
       </defs>
       <use xlink:href="#DejaVuSans-34"/>
       <use x="63.623047" xlink:href="#DejaVuSans-30"/>
       <use x="127.246094" xlink:href="#DejaVuSans-30"/>
      </g>
     </g>
    </g>
    <g id="ytick_4">
     <g id="line2d_21">
      <path clip-path="url(#p1423d43ba2)" d="M 53.328125 114.789143 
L 388.128125 114.789143 
" style="fill:none;stroke:#b0b0b0;stroke-dasharray:2.96,1.28;stroke-dashoffset:0;stroke-opacity:0.5;stroke-width:0.8;"/>
     </g>
     <g id="line2d_22">
      <g>
       <use style="stroke:#000000;stroke-width:0.8;" x="53.328125" xlink:href="#m8098c32e21" y="114.789143"/>
      </g>
     </g>
     <g id="text_12">
      <!-- 600 -->
      <g transform="translate(27.240625 118.588361)scale(0.1 -0.1)">
       <defs>
        <path d="M 2113 2584 
Q 1688 2584 1439 2293 
Q 1191 2003 1191 1497 
Q 1191 994 1439 701 
Q 1688 409 2113 409 
Q 2538 409 2786 701 
Q 3034 994 3034 1497 
Q 3034 2003 2786 2293 
Q 2538 2584 2113 2584 
z
M 3366 4563 
L 3366 3988 
Q 3128 4100 2886 4159 
Q 2644 4219 2406 4219 
Q 1781 4219 1451 3797 
Q 1122 3375 1075 2522 
Q 1259 2794 1537 2939 
Q 1816 3084 2150 3084 
Q 2853 3084 3261 2657 
Q 3669 2231 3669 1497 
Q 3669 778 3244 343 
Q 2819 -91 2113 -91 
Q 1303 -91 875 529 
Q 447 1150 447 2328 
Q 447 3434 972 4092 
Q 1497 4750 2381 4750 
Q 2619 4750 2861 4703 
Q 3103 4656 3366 4563 
z
" id="DejaVuSans-36" transform="scale(0.015625)"/>
       </defs>
       <use xlink:href="#DejaVuSans-36"/>
       <use x="63.623047" xlink:href="#DejaVuSans-30"/>
       <use x="127.246094" xlink:href="#DejaVuSans-30"/>
      </g>
     </g>
    </g>
    <g id="ytick_5">
     <g id="line2d_23">
      <path clip-path="url(#p1423d43ba2)" d="M 53.328125 80.3176 
L 388.128125 80.3176 
" style="fill:none;stroke:#b0b0b0;stroke-dasharray:2.96,1.28;stroke-dashoffset:0;stroke-opacity:0.5;stroke-width:0.8;"/>
     </g>
     <g id="line2d_24">
      <g>
       <use style="stroke:#000000;stroke-width:0.8;" x="53.328125" xlink:href="#m8098c32e21" y="80.3176"/>
      </g>
     </g>
     <g id="text_13">
      <!-- 800 -->
      <g transform="translate(27.240625 84.116819)scale(0.1 -0.1)">
       <defs>
        <path d="M 2034 2216 
Q 1584 2216 1326 1975 
Q 1069 1734 1069 1313 
Q 1069 891 1326 650 
Q 1584 409 2034 409 
Q 2484 409 2743 651 
Q 3003 894 3003 1313 
Q 3003 1734 2745 1975 
Q 2488 2216 2034 2216 
z
M 1403 2484 
Q 997 2584 770 2862 
Q 544 3141 544 3541 
Q 544 4100 942 4425 
Q 1341 4750 2034 4750 
Q 2731 4750 3128 4425 
Q 3525 4100 3525 3541 
Q 3525 3141 3298 2862 
Q 3072 2584 2669 2484 
Q 3125 2378 3379 2068 
Q 3634 1759 3634 1313 
Q 3634 634 3220 271 
Q 2806 -91 2034 -91 
Q 1263 -91 848 271 
Q 434 634 434 1313 
Q 434 1759 690 2068 
Q 947 2378 1403 2484 
z
M 1172 3481 
Q 1172 3119 1398 2916 
Q 1625 2713 2034 2713 
Q 2441 2713 2670 2916 
Q 2900 3119 2900 3481 
Q 2900 3844 2670 4047 
Q 2441 4250 2034 4250 
Q 1625 4250 1398 4047 
Q 1172 3844 1172 3481 
z
" id="DejaVuSans-38" transform="scale(0.015625)"/>
       </defs>
       <use xlink:href="#DejaVuSans-38"/>
       <use x="63.623047" xlink:href="#DejaVuSans-30"/>
       <use x="127.246094" xlink:href="#DejaVuSans-30"/>
      </g>
     </g>
    </g>
    <g id="ytick_6">
     <g id="line2d_25">
      <path clip-path="url(#p1423d43ba2)" d="M 53.328125 45.846057 
L 388.128125 45.846057 
" style="fill:none;stroke:#b0b0b0;stroke-dasharray:2.96,1.28;stroke-dashoffset:0;stroke-opacity:0.5;stroke-width:0.8;"/>
     </g>
     <g id="line2d_26">
      <g>
       <use style="stroke:#000000;stroke-width:0.8;" x="53.328125" xlink:href="#m8098c32e21" y="45.846057"/>
      </g>
     </g>
     <g id="text_14">
      <!-- 1000 -->
      <g transform="translate(20.878125 49.645276)scale(0.1 -0.1)">
       <use xlink:href="#DejaVuSans-31"/>
       <use x="63.623047" xlink:href="#DejaVuSans-30"/>
       <use x="127.246094" xlink:href="#DejaVuSans-30"/>
       <use x="190.869141" xlink:href="#DejaVuSans-30"/>
      </g>
     </g>
    </g>
    <g id="ytick_7">
     <g id="line2d_27">
      <path clip-path="url(#p1423d43ba2)" d="M 53.328125 11.374514 
L 388.128125 11.374514 
" style="fill:none;stroke:#b0b0b0;stroke-dasharray:2.96,1.28;stroke-dashoffset:0;stroke-opacity:0.5;stroke-width:0.8;"/>
     </g>
     <g id="line2d_28">
      <g>
       <use style="stroke:#000000;stroke-width:0.8;" x="53.328125" xlink:href="#m8098c32e21" y="11.374514"/>
      </g>
     </g>
     <g id="text_15">
      <!-- 1200 -->
      <g transform="translate(20.878125 15.173733)scale(0.1 -0.1)">
       <use xlink:href="#DejaVuSans-31"/>
       <use x="63.623047" xlink:href="#DejaVuSans-32"/>
       <use x="127.246094" xlink:href="#DejaVuSans-30"/>
       <use x="190.869141" xlink:href="#DejaVuSans-30"/>
      </g>
     </g>
    </g>
    <g id="text_16">
     <!-- Temperature / $\sf ^\circ C$ -->
     <g transform="translate(14.778125 160.67)rotate(-90)scale(0.1 -0.1)">
      <defs>
       <path d="M 1159 525 
L 1159 -1331 
L 581 -1331 
L 581 3500 
L 1159 3500 
L 1159 2969 
Q 1341 3281 1617 3432 
Q 1894 3584 2278 3584 
Q 2916 3584 3314 3078 
Q 3713 2572 3713 1747 
Q 3713 922 3314 415 
Q 2916 -91 2278 -91 
Q 1894 -91 1617 61 
Q 1341 213 1159 525 
z
M 3116 1747 
Q 3116 2381 2855 2742 
Q 2594 3103 2138 3103 
Q 1681 3103 1420 2742 
Q 1159 2381 1159 1747 
Q 1159 1113 1420 752 
Q 1681 391 2138 391 
Q 2594 391 2855 752 
Q 3116 1113 3116 1747 
z
" id="DejaVuSans-70" transform="scale(0.015625)"/>
       <path d="M 2631 2963 
Q 2534 3019 2420 3045 
Q 2306 3072 2169 3072 
Q 1681 3072 1420 2755 
Q 1159 2438 1159 1844 
L 1159 0 
L 581 0 
L 581 3500 
L 1159 3500 
L 1159 2956 
Q 1341 3275 1631 3429 
Q 1922 3584 2338 3584 
Q 2397 3584 2469 3576 
Q 2541 3569 2628 3553 
L 2631 2963 
z
" id="DejaVuSans-72" transform="scale(0.015625)"/>
       <path d="M 2194 1759 
Q 1497 1759 1228 1600 
Q 959 1441 959 1056 
Q 959 750 1161 570 
Q 1363 391 1709 391 
Q 2188 391 2477 730 
Q 2766 1069 2766 1631 
L 2766 1759 
L 2194 1759 
z
M 3341 1997 
L 3341 0 
L 2766 0 
L 2766 531 
Q 2569 213 2275 61 
Q 1981 -91 1556 -91 
Q 1019 -91 701 211 
Q 384 513 384 1019 
Q 384 1609 779 1909 
Q 1175 2209 1959 2209 
L 2766 2209 
L 2766 2266 
Q 2766 2663 2505 2880 
Q 2244 3097 1772 3097 
Q 1472 3097 1187 3025 
Q 903 2953 641 2809 
L 641 3341 
Q 956 3463 1253 3523 
Q 1550 3584 1831 3584 
Q 2591 3584 2966 3190 
Q 3341 2797 3341 1997 
z
" id="DejaVuSans-61" transform="scale(0.015625)"/>
       <path d="M 1172 4494 
L 1172 3500 
L 2356 3500 
L 2356 3053 
L 1172 3053 
L 1172 1153 
Q 1172 725 1289 603 
Q 1406 481 1766 481 
L 2356 481 
L 2356 0 
L 1766 0 
Q 1100 0 847 248 
Q 594 497 594 1153 
L 594 3053 
L 172 3053 
L 172 3500 
L 594 3500 
L 594 4494 
L 1172 4494 
z
" id="DejaVuSans-74" transform="scale(0.015625)"/>
       <path d="M 544 1381 
L 544 3500 
L 1119 3500 
L 1119 1403 
Q 1119 906 1312 657 
Q 1506 409 1894 409 
Q 2359 409 2629 706 
Q 2900 1003 2900 1516 
L 2900 3500 
L 3475 3500 
L 3475 0 
L 2900 0 
L 2900 538 
Q 2691 219 2414 64 
Q 2138 -91 1772 -91 
Q 1169 -91 856 284 
Q 544 659 544 1381 
z
M 1991 3584 
L 1991 3584 
z
" id="DejaVuSans-75" transform="scale(0.015625)"/>
       <path d="M 2000 2619 
Q 1750 2619 1578 2445 
Q 1406 2272 1406 2022 
Q 1406 1775 1578 1605 
Q 1750 1435 2000 1435 
Q 2250 1435 2422 1605 
Q 2594 1775 2594 2022 
Q 2594 2269 2420 2444 
Q 2247 2619 2000 2619 
z
M 2000 3022 
Q 2200 3022 2384 2945 
Q 2569 2869 2703 2725 
Q 2847 2585 2919 2406 
Q 2991 2228 2991 2022 
Q 2991 1610 2702 1324 
Q 2413 1038 1994 1038 
Q 1572 1038 1290 1319 
Q 1009 1600 1009 2022 
Q 1009 2441 1296 2731 
Q 1584 3022 2000 3022 
z
" id="DejaVuSans-2218" transform="scale(0.015625)"/>
       <path d="M 4122 4306 
L 4122 3641 
Q 3803 3938 3442 4084 
Q 3081 4231 2675 4231 
Q 1875 4231 1450 3742 
Q 1025 3253 1025 2328 
Q 1025 1406 1450 917 
Q 1875 428 2675 428 
Q 3081 428 3442 575 
Q 3803 722 4122 1019 
L 4122 359 
Q 3791 134 3420 21 
Q 3050 -91 2638 -91 
Q 1578 -91 968 557 
Q 359 1206 359 2328 
Q 359 3453 968 4101 
Q 1578 4750 2638 4750 
Q 3056 4750 3426 4639 
Q 3797 4528 4122 4306 
z
" id="DejaVuSans-43" transform="scale(0.015625)"/>
      </defs>
      <use transform="translate(0 0.78125)" xlink:href="#DejaVuSans-54"/>
      <use transform="translate(61.083984 0.78125)" xlink:href="#DejaVuSans-65"/>
      <use transform="translate(122.607422 0.78125)" xlink:href="#DejaVuSans-6d"/>
      <use transform="translate(220.019531 0.78125)" xlink:href="#DejaVuSans-70"/>
      <use transform="translate(283.496094 0.78125)" xlink:href="#DejaVuSans-65"/>
      <use transform="translate(345.019531 0.78125)" xlink:href="#DejaVuSans-72"/>
      <use transform="translate(386.132812 0.78125)" xlink:href="#DejaVuSans-61"/>
      <use transform="translate(447.412109 0.78125)" xlink:href="#DejaVuSans-74"/>
      <use transform="translate(486.621094 0.78125)" xlink:href="#DejaVuSans-75"/>
      <use transform="translate(550 0.78125)" xlink:href="#DejaVuSans-72"/>
      <use transform="translate(591.113281 0.78125)" xlink:href="#DejaVuSans-65"/>
      <use transform="translate(652.636719 0.78125)" xlink:href="#DejaVuSans-20"/>
      <use transform="translate(684.423828 0.78125)" xlink:href="#DejaVuSans-2f"/>
      <use transform="translate(718.115234 0.78125)" xlink:href="#DejaVuSans-20"/>
      <use transform="translate(764.49707 39.0625)scale(0.7)" xlink:href="#DejaVuSans-2218"/>
      <use transform="translate(824.6875 0.78125)" xlink:href="#DejaVuSans-43"/>
     </g>
    </g>
   </g>
   <g id="line2d_29">
    <path clip-path="url(#p1423d43ba2)" d="M 76.608123 208.323199 
L 78.489239 203.890436 
L 81.769458 193.062634 
L 86.309899 176.654867 
L 87.164686 174.323939 
L 87.991862 172.725476 
L 88.791426 172.178288 
L 89.555428 172.292774 
L 90.283869 173.096198 
L 90.976748 173.512634 
L 91.65072 173.548734 
L 92.305786 173.130363 
L 92.935185 172.340641 
L 94.735113 169.418554 
L 95.305665 168.97125 
L 95.869456 169.002722 
L 96.426486 169.350881 
L 97.520261 170.352861 
L 98.057006 170.608573 
L 98.593752 170.649704 
L 99.130497 170.430173 
L 100.186156 169.566452 
L 102.226149 167.670906 
L 103.210482 167.085372 
L 104.648348 166.6293 
L 107.9895 165.960645 
L 109.89873 165.797742 
L 113.268519 165.922492 
L 115.282755 165.872621 
L 120.755083 165.480989 
L 122.487708 165.645368 
L 127.108043 166.180265 
L 129.41821 166.167777 
L 131.150836 165.972564 
L 134.038545 165.520214 
L 135.193629 165.654806 
L 136.348713 166.009865 
L 139.813963 167.398414 
L 140.969047 167.520554 
L 142.701673 167.35176 
L 145.589382 166.946196 
L 147.322007 167.005444 
L 151.942342 167.640816 
L 153.674967 167.557514 
L 157.71776 167.204128 
L 160.027927 167.192048 
L 164.07072 167.353542 
L 166.380887 167.162407 
L 170.42368 166.672872 
L 172.733847 166.640272 
L 177.354182 166.838188 
L 179.664349 166.625053 
L 182.552058 166.329214 
L 184.862225 166.356255 
L 190.637645 166.875449 
L 193.525353 166.598408 
L 196.413062 166.437973 
L 198.72323 166.557468 
L 201.610939 166.795107 
L 203.921105 166.738609 
L 207.963899 166.442989 
L 210.274066 166.502367 
L 214.8944 166.825017 
L 216.627026 166.689296 
L 219.601366 166.336821 
L 222.084795 166.345098 
L 227.802462 166.738899 
L 230.343645 166.546918 
L 232.884827 166.348655 
L 234.790717 166.417047 
L 236.696604 166.716983 
L 239.873085 167.297439 
L 241.778972 167.329652 
L 243.684861 167.0577 
L 246.226047 166.643606 
L 248.131936 166.516269 
L 250.037823 166.66783 
L 255.120189 167.448589 
L 256.390781 167.389104 
L 262.108446 166.745585 
L 267.190816 166.911677 
L 269.731998 166.563575 
L 272.27318 166.193059 
L 274.179071 166.111538 
L 276.084958 166.229569 
L 279.261439 166.525853 
L 281.167326 166.490592 
L 283.073213 166.203378 
L 286.884991 165.449472 
L 288.155583 165.364656 
L 290.06147 165.559547 
L 294.508543 166.318932 
L 297.049729 166.269257 
L 307.214463 165.885931 
L 311.026237 165.938797 
L 317.379199 165.66926 
L 321.190973 165.633966 
L 328.179232 165.324999 
L 330.720414 165.588285 
L 333.2616 165.876162 
L 335.167487 165.827972 
L 338.979263 165.533798 
L 340.88515 165.627655 
L 345.332223 166.04337 
L 347.873409 165.973118 
L 351.685181 165.698631 
L 353.59107 165.79892 
L 356.132258 166.259189 
L 358.038145 166.539015 
L 359.944032 166.56783 
L 363.120511 166.205589 
L 365.661697 166.055033 
L 367.567586 166.208224 
L 370.744061 166.820765 
L 371.951142 167.040344 
L 371.951142 167.040344 
" style="fill:none;stroke:#1f77b4;stroke-linecap:square;"/>
   </g>
   <g id="line2d_30">
    <path clip-path="url(#p1423d43ba2)" d="M 70.856322 214.753976 
L 79.755627 214.655909 
L 80.162587 214.409231 
L 80.537067 213.135626 
L 80.873016 210.30292 
L 81.19141 205.063558 
L 81.492249 196.795203 
L 82.057936 172.202304 
L 83.03559 115.232613 
L 83.457133 106.31175 
L 83.659069 106.699532 
L 83.856976 110.624266 
L 84.25101 127.503147 
L 84.840061 163.733549 
L 85.039316 169.161881 
L 85.240435 171.243428 
L 85.443415 170.987512 
L 85.648258 169.1337 
L 86.057943 161.509912 
L 86.467629 145.736471 
L 87.601654 89.223558 
L 88.090068 79.42734 
L 88.239204 79.937551 
L 88.384644 81.632998 
L 88.800934 89.031791 
L 88.935888 88.247451 
L 89.332759 82.064435 
L 89.596735 80.759597 
L 89.730654 80.566248 
L 89.865862 80.66713 
L 90.140139 82.391952 
L 90.561213 88.107897 
L 91.552732 104.574922 
L 91.836023 108.239029 
L 91.991833 108.631779 
L 92.161807 108.519821 
L 92.360111 108.767561 
L 92.799213 110.283242 
L 93.04001 110.254223 
L 93.573829 109.088847 
L 93.863894 108.340379 
L 94.177853 108.339997 
L 94.796903 109.100816 
L 95.100515 108.596773 
L 95.40117 107.062236 
L 95.711556 104.176351 
L 96.336145 89.746418 
L 97.249564 64.300259 
L 97.86961 55.44182 
L 98.488064 49.836244 
L 98.790945 48.806812 
L 99.101753 51.097411 
L 100.327524 68.194976 
L 100.641494 69.641007 
L 100.941192 71.590025 
L 102.173281 86.38411 
L 102.792767 93.06238 
L 103.103898 93.776399 
L 103.40859 92.175197 
L 104.029908 83.409394 
L 104.660251 71.274018 
L 105.587526 52.560807 
L 105.887431 47.678441 
L 106.199274 46.147146 
L 106.510123 47.40069 
L 107.420927 54.835852 
L 108.339191 61.176013 
L 108.95999 63.928564 
L 109.567855 66.892559 
L 109.878254 67.968676 
L 110.188653 69.658531 
L 110.796518 74.267926 
L 111.41861 81.424802 
L 112.655034 96.688668 
L 112.96802 99.007859 
L 113.273505 99.278347 
L 113.584422 97.467642 
L 113.900771 93.77256 
L 114.838435 76.078437 
L 115.460818 67.724511 
L 115.763781 65.503756 
L 116.066 66.199263 
L 116.992691 74.401334 
L 117.29441 77.660432 
L 117.59254 79.412364 
L 117.900937 80.237756 
L 118.205745 80.012099 
L 118.510552 78.276324 
L 120.048445 63.260242 
L 120.353253 62.346844 
L 120.957327 61.803171 
L 121.58911 62.39164 
L 121.909158 62.357896 
L 122.215045 61.502144 
L 122.8225 58.550007 
L 123.132671 57.684397 
L 123.451138 57.599555 
L 123.763129 58.543168 
L 125.578524 67.49366 
L 126.503888 69.360188 
L 126.818344 68.933724 
L 127.124518 67.417771 
L 127.435733 64.708679 
L 128.351615 53.572988 
L 128.671111 52.921818 
L 129.29162 54.087018 
L 129.909489 55.532735 
L 130.214463 56.536614 
L 130.519437 58.062216 
L 131.463404 64.731925 
L 131.768378 64.77633 
L 132.073352 63.710425 
L 132.6833 60.323452 
L 133.93224 52.588933 
L 134.237213 49.844886 
L 134.542187 48.122348 
L 134.847161 47.546601 
L 135.152135 47.755252 
L 135.762083 48.766114 
L 136.067057 48.835141 
L 136.386553 48.613924 
L 136.694432 50.406753 
L 137.603544 61.468036 
L 137.907066 62.702915 
L 138.213492 62.446716 
L 138.522822 61.736721 
L 139.150197 61.048773 
L 139.453719 60.745592 
L 139.757241 59.175785 
L 140.698005 50.496014 
L 141.012248 49.142487 
L 141.32299 49.317711 
L 141.63023 50.071207 
L 142.248428 50.362755 
L 143.170798 51.699477 
L 143.772796 51.76494 
L 144.077187 51.808338 
L 144.384423 51.346513 
L 144.694504 50.637856 
L 145.007429 50.352871 
L 145.308976 52.060812 
L 145.613367 56.074223 
L 146.230683 69.674801 
L 147.16946 92.829254 
L 147.801569 102.397425 
L 148.105106 105.821825 
L 148.411773 107.274177 
L 148.72157 106.560728 
L 149.034496 103.773184 
L 149.350551 98.865602 
L 150.575654 74.132544 
L 150.86824 71.453449 
L 151.173729 69.757959 
L 151.489966 68.872596 
L 151.801894 66.429718 
L 152.412827 59.066691 
L 152.729042 57.640301 
L 153.040949 58.178897 
L 153.348548 60.138277 
L 153.651838 60.711531 
L 154.284223 57.946181 
L 154.585359 57.608013 
L 154.886494 60.617438 
L 155.789902 78.283803 
L 157.00348 89.768792 
L 157.31365 92.955433 
L 157.626832 93.182542 
L 157.943025 91.790254 
L 158.859985 84.962139 
L 159.801037 80.030473 
L 160.413848 73.839517 
L 160.710247 72.022458 
L 161.955516 57.52433 
L 162.266053 56.913689 
L 162.573136 57.396905 
L 163.8018 62.798782 
L 164.113362 65.008524 
L 165.003542 74.511717 
L 165.315105 75.66369 
L 165.626668 74.901598 
L 166.561357 68.272938 
L 166.87292 67.930386 
L 167.184483 68.108835 
L 167.499014 67.956544 
L 167.816512 67.604534 
L 168.136977 66.650769 
L 169.039028 61.295418 
L 169.340206 58.091882 
L 169.644352 56.644583 
L 169.951465 57.117096 
L 171.160525 64.177004 
L 171.786661 70.460006 
L 172.102029 75.209381 
L 172.72679 88.597106 
L 173.03762 91.112264 
L 173.35253 90.537398 
L 173.65609 88.195232 
L 174.281313 80.026508 
L 174.588609 75.67204 
L 176.133131 62.126387 
L 176.428645 60.921565 
L 176.741544 61.438455 
L 177.054441 63.681826 
L 177.662855 70.166742 
L 177.958371 71.064816 
L 178.266693 70.574242 
L 178.869612 66.392886 
L 179.164206 64.287555 
L 179.774436 61.613375 
L 180.384577 57.180873 
L 181.008314 53.073308 
L 181.318458 51.820537 
L 181.624608 51.515217 
L 181.939867 51.554785 
L 182.558411 51.331222 
L 182.874795 52.193175 
L 183.490471 55.73785 
L 184.420535 62.708294 
L 185.35191 70.510593 
L 185.670228 71.404827 
L 185.978067 70.813098 
L 186.588503 68.359484 
L 187.196318 64.043523 
L 188.131623 56.369882 
L 188.434221 55.037771 
L 189.039417 53.77428 
L 189.659023 53.254692 
L 189.976032 53.744816 
L 190.898236 56.994374 
L 191.200834 57.429193 
L 191.820441 57.973841 
L 192.137448 59.21576 
L 192.454455 61.641571 
L 193.362251 71.692904 
L 193.967447 75.390213 
L 194.904062 78.908695 
L 195.517905 82.000767 
L 195.829148 82.695308 
L 196.143275 82.615271 
L 196.780173 80.287955 
L 197.102945 79.678207 
L 197.39834 79.994298 
L 197.696615 80.744539 
L 197.997772 80.693306 
L 198.298929 77.937755 
L 199.202402 63.914566 
L 199.804717 60.277353 
L 200.42288 57.111904 
L 200.739888 56.119561 
L 201.056896 56.229174 
L 201.373905 57.550127 
L 202.943094 67.891162 
L 203.545409 72.981998 
L 204.147724 76.260938 
L 204.750038 78.310386 
L 205.352354 80.963948 
L 205.970519 82.292522 
L 206.287527 82.324497 
L 206.604534 81.064663 
L 207.236272 75.317888 
L 207.852067 66.665264 
L 208.476784 56.389642 
L 209.999581 39.347534 
L 210.298181 37.835629 
L 210.610354 37.548066 
L 210.925241 39.231448 
L 211.22927 42.35034 
L 211.536013 44.220997 
L 212.157644 46.737436 
L 212.762987 51.528054 
L 213.379189 59.202703 
L 213.976389 67.1647 
L 214.274989 69.964032 
L 214.58852 71.847906 
L 214.90205 72.433012 
L 215.215579 72.146519 
L 215.529108 71.298958 
L 216.15617 68.801391 
L 216.4697 67.184734 
L 217.096758 62.505679 
L 218.007488 55.096171 
L 218.903288 49.322759 
L 219.515417 45.864615 
L 220.142476 44.483785 
L 220.769536 43.955185 
L 221.083066 45.43902 
L 222.023655 54.002062 
L 222.337185 54.706185 
L 223.830186 48.852305 
L 224.770777 47.293692 
L 225.084306 47.402011 
L 225.397835 48.785098 
L 226.024896 53.421165 
L 226.651956 55.797418 
L 226.965485 56.232973 
L 227.267071 56.174795 
L 227.571643 56.387479 
L 227.8792 57.076233 
L 228.48685 59.248724 
L 228.786944 60.486042 
L 229.705138 66.316779 
L 230.017174 67.060841 
L 230.329212 66.121411 
L 230.641249 62.879984 
L 231.232477 53.926564 
L 231.540753 51.633291 
L 231.85981 50.290787 
L 233.092584 41.654911 
L 233.398609 40.685616 
L 233.697951 43.376067 
L 235.537726 80.116873 
L 236.780423 96.198566 
L 237.094368 97.264631 
L 237.397848 96.652403 
L 238.641984 89.315681 
L 238.951088 89.361995 
L 239.58578 90.374509 
L 239.882457 89.957344 
L 240.184628 88.099999 
L 240.500513 84.199469 
L 241.130931 73.513291 
L 241.431073 73.268231 
L 241.729327 75.533269 
L 242.33001 83.094386 
L 243.258972 86.110856 
L 243.556411 88.937465 
L 243.868011 93.737747 
L 244.179612 96.629865 
L 244.491212 96.281467 
L 244.802815 93.78601 
L 245.413268 85.519004 
L 246.019474 80.832244 
L 246.637011 77.967248 
L 246.935866 76.651773 
L 247.237552 74.549946 
L 247.849423 67.579573 
L 248.471212 60.755114 
L 248.78593 59.528315 
L 249.103761 59.116522 
L 249.407572 58.349294 
L 250.044387 55.996077 
L 250.362058 55.43653 
L 250.677645 56.206855 
L 250.989563 58.324207 
L 251.602383 63.978863 
L 251.90017 65.13724 
L 252.209039 65.123937 
L 252.531007 64.34928 
L 252.83721 64.025188 
L 253.142983 64.9061 
L 253.448325 66.397833 
L 253.754826 67.149711 
L 254.064077 66.866328 
L 254.683812 65.206434 
L 254.992544 65.938918 
L 255.296016 67.48987 
L 255.595984 68.095686 
L 255.892446 66.703364 
L 256.198765 63.546995 
L 256.502916 61.636362 
L 256.806234 61.850388 
L 257.108719 63.798063 
L 257.718202 71.514332 
L 258.325013 82.136465 
L 258.948261 98.515143 
L 259.246855 107.563933 
L 259.549724 113.332041 
L 259.855534 115.400997 
L 260.164283 115.130441 
L 260.475974 112.946531 
L 260.790606 109.102417 
L 261.428689 97.032348 
L 262.371553 75.808639 
L 263.630846 55.033403 
L 264.252188 48.111547 
L 264.560154 46.369196 
L 264.866317 47.538996 
L 265.484554 54.809459 
L 266.711264 74.541517 
L 267.322099 79.978448 
L 267.630572 81.898177 
L 267.942098 82.372444 
L 268.540716 81.227968 
L 269.151549 80.98419 
L 269.461547 81.472674 
L 269.774601 79.993535 
L 270.678635 70.204878 
L 270.980998 69.834341 
L 271.298327 70.090195 
L 271.611993 69.087645 
L 272.228332 63.079168 
L 272.531007 59.921511 
L 272.830016 58.969274 
L 273.142161 59.652912 
L 273.45064 61.931447 
L 273.755458 63.120023 
L 274.056609 62.763163 
L 274.656746 60.082014 
L 274.960557 59.983686 
L 275.577157 61.018921 
L 275.889946 61.812878 
L 276.205729 63.059495 
L 276.524507 63.157594 
L 276.829813 61.544963 
L 277.138114 58.803931 
L 277.449407 57.596562 
L 277.762197 58.239107 
L 278.387775 61.554468 
L 278.700566 63.932771 
L 279.309685 72.163408 
L 280.544381 95.837608 
L 280.857172 96.230822 
L 281.171608 94.649981 
L 281.77414 88.396942 
L 283.92251 57.775654 
L 284.230363 58.79957 
L 284.538213 63.171233 
L 285.767557 88.889072 
L 287.307111 103.771276 
L 287.624387 103.776122 
L 287.93754 101.928304 
L 288.553539 95.74655 
L 288.858446 95.238601 
L 289.163355 97.544625 
L 289.774774 104.339594 
L 290.084496 104.293383 
L 290.397429 101.73991 
L 292.249341 78.637881 
L 293.183682 61.406836 
L 293.486369 57.604589 
L 293.79965 55.684393 
L 294.105871 55.208218 
L 294.405031 55.610898 
L 294.697133 55.264071 
L 295.013951 53.698252 
L 295.323708 53.473307 
L 295.628328 54.960102 
L 295.92973 57.994832 
L 296.530143 66.080797 
L 296.833781 68.365389 
L 297.140246 69.576733 
L 297.761645 70.748975 
L 298.06246 71.067934 
L 298.366098 70.168264 
L 299.306531 64.033844 
L 299.611018 63.462668 
L 299.918612 63.963036 
L 300.860034 68.544058 
L 301.469009 74.035915 
L 301.776602 75.391024 
L 302.084196 76.067086 
L 302.39179 75.876498 
L 302.699384 75.293891 
L 303.006978 73.075913 
L 303.915017 60.602638 
L 304.529984 52.695154 
L 304.844729 52.519604 
L 305.154561 55.151928 
L 306.707165 76.069557 
L 307.639196 81.287249 
L 307.934568 81.289717 
L 308.244068 78.005095 
L 309.176488 61.24506 
L 309.478912 60.02599 
L 310.095068 59.037718 
L 310.722794 57.059139 
L 311.040996 55.459415 
L 311.347628 54.861793 
L 311.657151 56.273941 
L 311.969568 58.870563 
L 312.889462 62.965139 
L 313.494046 67.50117 
L 313.796337 67.900959 
L 314.09863 67.246867 
L 314.400921 66.928702 
L 314.703214 66.97953 
L 315.005506 67.223108 
L 315.307799 66.56704 
L 315.626 64.794152 
L 316.898807 52.440429 
L 317.217009 51.383562 
L 317.519302 51.359725 
L 317.821593 52.030475 
L 318.123886 53.58287 
L 318.426177 56.405825 
L 318.72847 60.727155 
L 320.243112 90.841478 
L 320.550177 94.118981 
L 320.860424 94.790841 
L 321.810255 91.58381 
L 322.115729 91.471437 
L 322.424384 92.329486 
L 323.348762 99.637945 
L 323.663781 99.767529 
L 324.293822 97.386756 
L 324.591341 95.161126 
L 325.518901 81.946778 
L 326.113937 73.066717 
L 326.425317 69.544335 
L 326.733052 68.414797 
L 327.334019 69.032319 
L 327.641172 68.7316 
L 328.2616 67.273629 
L 328.560984 66.133338 
L 329.80336 58.891481 
L 330.117292 58.641004 
L 330.434004 58.656993 
L 330.753494 58.957802 
L 331.061871 60.691284 
L 331.690017 66.672484 
L 332.307882 74.146589 
L 332.608898 76.000524 
L 332.912969 76.029831 
L 333.53028 73.802428 
L 333.826712 73.172688 
L 334.126199 71.540096 
L 335.369989 61.849136 
L 335.672532 61.212084 
L 335.975076 62.027605 
L 336.580164 66.84041 
L 336.899515 67.794658 
L 337.218868 66.890207 
L 337.521412 65.332065 
L 337.823955 64.53162 
L 338.124494 65.807405 
L 338.421022 69.498683 
L 339.035661 82.391153 
L 339.64906 99.667377 
L 340.563118 129.489987 
L 340.873314 133.448021 
L 341.176514 133.06022 
L 341.488263 129.376317 
L 342.104174 115.330174 
L 343.347997 80.422345 
L 343.670389 75.260838 
L 344.28224 70.861051 
L 345.21312 65.297869 
L 345.519893 65.091667 
L 345.829645 65.905756 
L 346.140887 65.780977 
L 346.452127 64.063896 
L 347.058229 58.913345 
L 347.36559 58.173827 
L 347.683512 58.487159 
L 347.997554 59.19191 
L 348.307715 60.175065 
L 348.613999 60.52805 
L 348.916402 60.042242 
L 349.214924 60.217049 
L 349.509566 61.580067 
L 350.429011 67.994654 
L 351.938109 75.968999 
L 352.248593 76.433373 
L 352.561966 75.705118 
L 353.513636 72.085864 
L 354.149044 69.819381 
L 354.784451 65.48348 
L 355.403972 59.686849 
L 355.705792 58.257002 
L 356.007611 57.772497 
L 356.30943 57.994998 
L 356.913068 58.830128 
L 357.214887 58.881718 
L 357.516707 58.746214 
L 358.120341 57.883817 
L 358.438045 57.216863 
L 358.755748 56.099818 
L 359.708861 51.726645 
L 360.026565 52.209481 
L 360.328384 54.017041 
L 361.233842 61.688506 
L 361.535661 62.886493 
L 361.83748 63.217731 
L 362.139297 63.074527 
L 363.044749 60.449545 
L 363.680158 57.874071 
L 363.997862 57.530982 
L 364.315566 57.650313 
L 364.63327 58.917709 
L 364.950975 60.979737 
L 365.554613 67.447777 
L 366.158253 73.610565 
L 367.36553 83.209868 
L 368.286873 91.890044 
L 368.604577 93.293673 
L 368.920243 93.453882 
L 369.23183 93.15083 
L 369.539338 92.491525 
L 369.842768 89.999276 
L 370.465088 82.282838 
L 371.071096 71.197478 
L 371.688487 60.173364 
L 372.602339 48.025121 
L 372.909943 45.148621 
L 372.909943 45.148621 
" style="fill:none;stroke:#ff7f0e;stroke-linecap:square;"/>
   </g>
   <g id="line2d_31">
    <path clip-path="url(#p1423d43ba2)" d="M 68.546307 214.756364 
L 80.062857 214.645921 
L 81.795574 214.53586 
L 81.947217 214.432351 
L 82.120661 213.249339 
L 82.301692 207.591421 
L 82.919491 162.373383 
L 83.431041 131.330051 
L 84.60447 75.329963 
L 84.90642 64.890836 
L 85.221554 58.458054 
L 86.768685 42.486866 
L 87.071165 41.171144 
L 87.382915 42.089011 
L 87.694275 44.823839 
L 88.005245 43.905539 
L 88.61256 40.940538 
L 88.918345 41.807963 
L 89.523521 50.140279 
L 89.828237 51.167555 
L 90.445852 43.043494 
L 90.752099 44.797872 
L 91.367888 54.164275 
L 91.983038 62.064618 
L 92.909967 68.864285 
L 93.520267 79.440569 
L 93.826936 81.14189 
L 94.138205 81.397052 
L 94.44257 85.336433 
L 94.748146 91.041252 
L 95.053156 94.570917 
L 95.357014 94.742921 
L 95.666162 88.915711 
L 96.593482 67.544119 
L 96.902178 61.899809 
L 97.210148 58.945184 
L 97.827543 41.96022 
L 98.44837 25.417223 
L 98.759169 26.996869 
L 99.679951 43.020711 
L 99.98942 42.214895 
L 100.298889 38.678219 
L 100.608358 41.734155 
L 101.835181 71.99264 
L 102.14465 74.493634 
L 102.454119 74.268498 
L 102.763588 77.017728 
L 103.69089 94.477841 
L 103.998149 94.348327 
L 104.309386 89.149075 
L 104.614213 86.698909 
L 104.924843 86.661293 
L 105.235749 83.039866 
L 106.460251 60.792422 
L 106.769665 58.086183 
L 107.075431 57.68182 
L 107.383021 62.059213 
L 107.697298 64.420454 
L 108.312477 57.77262 
L 108.620067 60.677886 
L 108.927657 65.373087 
L 109.241934 67.067817 
L 109.549524 64.639964 
L 109.852971 64.106874 
L 110.164818 65.590118 
L 110.473803 66.433025 
L 110.779927 65.997016 
L 111.089876 68.013418 
L 111.396964 74.109166 
L 111.705835 76.22319 
L 112.014743 73.672213 
L 112.320478 73.654465 
L 112.939948 83.275193 
L 113.245282 84.11141 
L 113.550809 83.805608 
L 113.859052 80.48063 
L 114.165016 75.257591 
L 114.470921 67.436643 
L 114.77942 63.839512 
L 115.088012 67.443716 
L 115.393195 67.977136 
L 116.31514 52.399538 
L 116.626319 49.160341 
L 117.23705 51.132758 
L 117.549445 55.339627 
L 117.860253 57.615291 
L 118.167033 54.271965 
L 118.476498 52.400617 
L 118.781936 55.559803 
L 119.090059 56.943632 
L 119.708989 53.41945 
L 120.019126 51.592928 
L 120.32692 51.899192 
L 120.63081 49.407909 
L 121.552195 38.001048 
L 122.777607 25.045949 
L 123.084245 20.594925 
L 123.394987 21.384659 
L 124.007558 33.859474 
L 124.625924 51.074893 
L 125.243924 68.998751 
L 125.861897 79.712957 
L 126.173547 85.538966 
L 126.478893 88.85996 
L 126.786268 88.951464 
L 127.407871 78.561308 
L 128.3297 61.464754 
L 128.639427 62.886206 
L 128.948964 62.530195 
L 129.253454 61.165729 
L 129.561228 57.102792 
L 129.869612 51.295244 
L 130.176061 50.291654 
L 130.479906 51.321203 
L 130.787171 51.487517 
L 131.097856 50.634256 
L 131.406439 52.857825 
L 131.716481 56.020918 
L 132.330999 69.549511 
L 132.949022 87.85397 
L 133.253439 91.488254 
L 133.567498 92.898172 
L 133.877823 93.526651 
L 134.184416 91.474991 
L 134.492798 86.964037 
L 135.720367 60.60877 
L 136.03088 57.442678 
L 136.643443 62.925422 
L 136.952749 64.948156 
L 138.186649 80.637863 
L 138.493954 81.055777 
L 138.80695 78.693923 
L 139.420024 67.063915 
L 139.731138 66.91708 
L 140.348002 80.032664 
L 140.654594 83.112007 
L 140.964237 84.324372 
L 141.274123 80.344746 
L 141.580159 78.77399 
L 141.882345 81.757187 
L 142.503985 83.197714 
L 142.810903 81.919702 
L 143.742224 59.266208 
L 144.053495 58.759068 
L 144.670868 70.532823 
L 144.982744 72.803415 
L 145.599926 83.391727 
L 145.90604 86.296985 
L 146.21369 86.598547 
L 146.520363 83.290571 
L 146.826058 84.134159 
L 147.129676 86.345976 
L 147.434162 84.195057 
L 148.045744 72.060553 
L 149.274487 42.431697 
L 149.581946 42.571319 
L 150.51076 22.161273 
L 150.821139 24.89084 
L 151.743531 42.747135 
L 152.052662 45.729704 
L 152.666549 54.597829 
L 153.587573 65.070238 
L 153.897043 65.757264 
L 154.206215 65.131538 
L 154.514203 64.074611 
L 155.130619 69.335678 
L 155.441423 69.896339 
L 156.052964 73.956264 
L 156.36116 73.52566 
L 156.670759 69.157239 
L 157.282709 55.343593 
L 157.895555 46.603251 
L 158.510682 37.897096 
L 159.437387 23.754663 
L 160.05097 21.105288 
L 160.669003 17.083636 
L 160.977841 20.398151 
L 161.592678 35.965477 
L 162.519123 66.492585 
L 162.830238 71.471931 
L 163.440493 75.038629 
L 163.752315 77.354722 
L 164.055918 72.083529 
L 165.593939 35.206875 
L 165.903014 34.316906 
L 166.826928 44.154535 
L 167.440111 56.411291 
L 168.053294 59.804107 
L 168.358782 63.01834 
L 168.670064 64.718739 
L 168.974945 63.273022 
L 169.283966 65.170415 
L 169.591346 69.336712 
L 169.897757 70.879174 
L 170.21054 70.667773 
L 170.522353 72.885083 
L 171.144548 79.644821 
L 171.455893 79.790792 
L 171.759882 77.887039 
L 172.069703 77.453968 
L 172.684966 85.620626 
L 172.994416 86.202531 
L 173.605262 79.594559 
L 174.219548 65.771172 
L 174.525417 62.564963 
L 174.837139 64.175786 
L 175.142463 66.353831 
L 175.450321 63.64444 
L 176.07262 50.926808 
L 176.380552 49.009824 
L 176.686846 46.008769 
L 176.999228 46.913055 
L 177.615467 51.54121 
L 177.922223 52.55115 
L 178.230893 52.514121 
L 178.850317 41.328339 
L 179.158254 41.807709 
L 179.463374 40.824388 
L 180.077075 44.339619 
L 180.385658 41.110605 
L 181.304061 22.789202 
L 181.607635 22.86493 
L 181.910488 25.445299 
L 182.215071 23.927667 
L 182.527696 24.419592 
L 182.836505 27.826439 
L 183.147045 33.670411 
L 184.381207 80.304131 
L 185.310145 105.863402 
L 185.613515 106.858006 
L 185.922828 99.822325 
L 187.153138 63.705289 
L 187.460212 63.344302 
L 187.767654 60.595562 
L 188.077073 54.648425 
L 188.387175 55.595028 
L 189.618681 99.294423 
L 189.93108 102.483359 
L 190.54544 91.103855 
L 191.167805 86.03197 
L 191.77779 70.229937 
L 192.082982 60.44547 
L 192.392687 55.889238 
L 192.704189 56.053811 
L 193.010015 58.209283 
L 194.242903 77.104097 
L 194.550648 79.654495 
L 194.861609 80.771861 
L 195.17329 79.335506 
L 195.479994 73.650522 
L 195.788396 72.332108 
L 196.397614 77.093661 
L 196.703557 75.283597 
L 197.011287 71.998954 
L 197.319872 70.173083 
L 197.632343 65.540762 
L 197.940806 63.264839 
L 198.245264 65.392318 
L 198.552393 69.025489 
L 198.861894 67.852311 
L 199.1702 65.233319 
L 199.476345 64.4559 
L 199.785003 65.672003 
L 200.096174 64.053456 
L 200.402513 60.579499 
L 201.014435 66.681852 
L 201.321933 66.824355 
L 201.634359 67.318244 
L 202.253331 81.782741 
L 202.872647 96.036413 
L 203.178038 100.514581 
L 203.484881 102.593141 
L 203.792743 102.78719 
L 204.099484 102.128927 
L 204.720339 105.251079 
L 205.026602 101.22509 
L 205.948239 79.920893 
L 206.255976 79.10099 
L 206.560255 79.38165 
L 206.87118 78.427027 
L 207.181074 77.083925 
L 207.48335 74.627877 
L 208.099376 66.24891 
L 208.40654 64.689606 
L 208.713138 65.047175 
L 209.025033 61.747213 
L 209.337537 57.244831 
L 209.645956 55.419074 
L 209.952812 56.493756 
L 210.25899 58.958014 
L 210.571077 62.723398 
L 210.87951 62.772339 
L 211.184425 61.835 
L 211.803053 68.61117 
L 212.1109 74.391578 
L 212.723661 95.176913 
L 213.342874 115.74308 
L 214.265245 134.969918 
L 214.884455 132.652486 
L 215.497217 138.854154 
L 215.810048 139.538053 
L 216.119009 137.647326 
L 216.4241 135.053521 
L 216.732417 134.215793 
L 217.043312 133.712207 
L 217.66059 124.85797 
L 217.966863 122.030333 
L 218.586383 107.483933 
L 219.509766 66.794266 
L 219.811924 60.9001 
L 220.117658 57.227008 
L 220.422855 56.61894 
L 221.347862 44.905074 
L 221.654444 43.738684 
L 221.96305 52.719827 
L 222.572367 79.025606 
L 223.503481 100.931431 
L 223.81519 105.587724 
L 224.429016 107.646313 
L 224.737127 110.398366 
L 225.048236 108.688742 
L 225.666258 97.146318 
L 226.283679 82.847629 
L 226.9005 73.858036 
L 227.203816 73.947079 
L 227.513725 75.826472 
L 227.823635 76.248468 
L 228.437845 75.527161 
L 229.050521 71.205467 
L 229.668257 65.205808 
L 231.205544 74.658838 
L 231.818389 75.510493 
L 232.124811 77.653728 
L 232.740604 86.58311 
L 233.355808 97.661165 
L 233.664589 98.181528 
L 233.976317 97.057618 
L 234.285097 96.978911 
L 235.520807 104.578691 
L 235.825462 106.652784 
L 236.130117 106.622499 
L 237.060228 95.299825 
L 237.364766 90.469655 
L 237.672487 88.33702 
L 238.288509 87.669824 
L 238.592733 87.016424 
L 238.903053 86.625268 
L 239.212983 87.071478 
L 239.825273 93.389978 
L 240.439501 101.155061 
L 240.750982 101.120988 
L 241.058388 98.263635 
L 241.673202 91.492217 
L 241.980608 90.882966 
L 242.288014 88.901526 
L 242.909231 82.475119 
L 243.831453 62.260795 
L 244.138859 59.701084 
L 244.452671 60.293127 
L 244.760077 61.701355 
L 245.067483 60.190072 
L 245.374889 60.701617 
L 245.682295 66.773292 
L 246.300796 86.072229 
L 246.918532 106.223872 
L 247.225174 110.979746 
L 247.528421 111.848933 
L 248.148994 114.844233 
L 248.454191 110.178331 
L 249.065858 89.74302 
L 250.909092 54.05783 
L 251.219509 49.482091 
L 251.53346 53.684543 
L 252.148965 63.782735 
L 252.760585 66.000904 
L 253.068659 69.342292 
L 253.375759 71.073689 
L 253.68189 70.376539 
L 254.293277 75.239574 
L 254.595161 70.555014 
L 255.211648 57.238265 
L 255.834238 51.103769 
L 256.456832 47.321098 
L 256.769347 48.470819 
L 257.0782 48.629246 
L 257.390104 47.436616 
L 257.698346 49.602956 
L 258.311486 58.295531 
L 258.614249 56.480472 
L 259.230271 48.921542 
L 259.537526 47.379538 
L 259.843657 47.404051 
L 260.461085 45.066982 
L 261.084545 45.253289 
L 261.391587 43.762256 
L 261.703675 47.224405 
L 262.622979 67.31989 
L 262.931113 67.598283 
L 263.235449 69.367944 
L 263.542587 73.632559 
L 264.466855 80.498065 
L 265.081007 82.454404 
L 265.387792 86.270055 
L 265.998439 95.645755 
L 266.308146 92.796038 
L 266.929195 78.248581 
L 267.235395 74.982988 
L 267.859132 71.656361 
L 268.16317 67.968405 
L 268.786675 50.468228 
L 269.092639 47.26849 
L 269.397846 46.478279 
L 269.701013 48.991878 
L 270.005127 50.556133 
L 270.621517 55.468721 
L 270.928232 54.474788 
L 271.850797 46.365077 
L 272.15963 42.02458 
L 272.468885 41.202603 
L 272.780395 40.724422 
L 273.093576 38.665139 
L 273.710513 25.014451 
L 274.01983 21.290999 
L 274.326006 20.866459 
L 274.634601 24.354571 
L 275.556995 42.020825 
L 275.859864 43.614058 
L 276.468466 43.222197 
L 276.7773 41.189744 
L 277.082507 37.529042 
L 277.390733 37.457107 
L 278.633922 57.99787 
L 279.562232 68.98235 
L 280.489339 97.496701 
L 280.79455 98.183683 
L 281.102785 95.129669 
L 282.016535 76.820341 
L 282.636321 77.101184 
L 282.942027 76.420844 
L 283.247072 74.062271 
L 284.173459 52.320853 
L 284.483833 53.688465 
L 285.715265 86.16119 
L 286.028009 88.849636 
L 286.334238 89.277191 
L 286.946696 94.360295 
L 287.25944 93.718503 
L 287.566322 92.082755 
L 287.876459 88.915729 
L 288.802966 75.550908 
L 289.111149 72.970058 
L 289.421941 72.827672 
L 289.72882 75.107683 
L 290.038958 75.938234 
L 290.345187 77.167725 
L 290.961554 69.537724 
L 291.266616 70.184845 
L 291.886533 68.589093 
L 292.194223 73.008303 
L 292.813008 85.188298 
L 293.116938 86.662779 
L 293.424135 86.859037 
L 294.041154 98.146477 
L 294.34771 98.488856 
L 294.654906 99.078388 
L 294.965295 97.123073 
L 295.576686 84.526698 
L 295.886884 83.178719 
L 296.500926 92.336592 
L 296.808391 94.642413 
L 297.111548 93.820471 
L 297.423691 88.227808 
L 298.033343 73.747074 
L 298.338084 70.254517 
L 298.954999 60.6449 
L 299.266468 61.179109 
L 299.578962 62.495694 
L 299.88383 62.26201 
L 300.194706 59.716987 
L 300.504685 58.879436 
L 301.126452 64.608399 
L 301.43548 64.599705 
L 301.747754 63.339279 
L 302.048948 58.454821 
L 302.97155 28.024119 
L 303.280037 24.422993 
L 303.584923 25.256102 
L 304.504897 19.976389 
L 304.810041 19.626214 
L 305.121318 20.114668 
L 305.434879 25.054552 
L 306.351775 55.387167 
L 306.972769 57.280857 
L 307.281824 59.446831 
L 307.589919 59.286323 
L 307.903119 58.362225 
L 308.210825 59.516832 
L 308.518008 58.843479 
L 308.822128 54.538212 
L 309.440692 35.670315 
L 309.747869 32.90442 
L 311.587983 68.491808 
L 312.515697 74.665332 
L 312.818623 73.568242 
L 313.436529 65.10334 
L 313.745006 66.185628 
L 314.983152 57.119922 
L 315.291753 58.731634 
L 316.220161 80.26958 
L 316.533193 78.935889 
L 316.839633 76.863942 
L 317.147227 77.448937 
L 317.755436 81.014161 
L 318.058893 81.746065 
L 318.368286 80.28566 
L 318.98845 78.999864 
L 319.605864 82.867039 
L 319.915258 83.516653 
L 320.225339 78.635929 
L 320.532958 70.617372 
L 320.844032 69.789816 
L 321.462247 78.298153 
L 321.765768 77.644015 
L 322.068222 74.757879 
L 322.375444 73.558149 
L 322.681597 73.294375 
L 322.986684 70.59227 
L 323.29654 69.652339 
L 323.604289 71.195745 
L 323.910432 67.319839 
L 324.214969 60.018119 
L 324.524642 57.227575 
L 324.836329 60.806194 
L 325.144514 66.166587 
L 325.452992 69.233444 
L 325.760537 71.148867 
L 326.374046 78.894565 
L 326.989704 90.098513 
L 327.295395 93.779004 
L 327.599658 89.229652 
L 328.523331 60.544867 
L 328.833856 57.515719 
L 329.143127 56.7234 
L 329.448705 57.330977 
L 330.065166 59.354992 
L 330.372694 61.464171 
L 331.612471 85.369771 
L 331.91879 85.565821 
L 332.228323 83.504804 
L 332.536444 82.336614 
L 332.844564 79.633394 
L 333.460802 70.027994 
L 333.76288 65.254076 
L 334.070998 62.283853 
L 334.379117 62.498593 
L 334.687236 64.558616 
L 335.303476 72.091065 
L 336.227832 75.703305 
L 336.535951 76.375296 
L 337.146752 73.511482 
L 337.452455 68.978436 
L 338.066278 57.977747 
L 338.67946 51.188541 
L 338.991494 53.105031 
L 339.303173 57.380446 
L 339.918513 61.431047 
L 340.227764 63.616001 
L 340.537861 67.425107 
L 340.843122 73.252692 
L 341.155874 74.111231 
L 341.772954 68.081301 
L 342.38361 57.029217 
L 342.696468 58.402427 
L 343.006745 57.707573 
L 343.313975 55.009642 
L 343.618367 57.58932 
L 343.925597 62.22826 
L 344.233112 69.655525 
L 345.158268 105.806653 
L 345.470211 114.514946 
L 345.775567 118.110903 
L 346.086885 120.137582 
L 346.397415 121.33113 
L 347.023034 113.245413 
L 347.635937 101.883781 
L 348.555809 78.897583 
L 348.867634 76.530211 
L 349.17499 78.442806 
L 349.788251 86.230408 
L 350.092774 86.913281 
L 350.405945 87.172438 
L 350.714416 86.235353 
L 351.024417 86.860076 
L 351.332542 87.017591 
L 351.635356 88.749086 
L 351.940331 88.595539 
L 352.246843 86.091706 
L 352.551762 81.278683 
L 353.163305 68.003076 
L 353.465379 67.702557 
L 353.772742 71.383169 
L 354.082927 70.697362 
L 354.396485 68.470309 
L 355.009059 61.394954 
L 355.314977 56.950407 
L 355.624613 55.923097 
L 356.250004 60.890474 
L 356.557437 58.551315 
L 356.867232 54.31912 
L 357.476724 52.802701 
L 357.785549 51.553785 
L 358.097512 50.82809 
L 358.405709 51.957084 
L 358.712447 51.470274 
L 359.629564 41.952714 
L 359.934237 39.80563 
L 360.241846 39.56125 
L 360.545485 40.762442 
L 360.85817 42.854547 
L 361.478543 49.080804 
L 362.101852 48.765094 
L 362.413505 53.93217 
L 363.344185 73.136834 
L 363.962606 81.443699 
L 364.269983 81.289772 
L 364.573691 81.993644 
L 365.183555 94.760747 
L 365.48971 96.684596 
L 365.798919 96.885259 
L 366.108129 96.89574 
L 366.417338 95.000367 
L 367.956663 59.787682 
L 368.265871 54.804111 
L 368.875118 48.053698 
L 369.187188 47.326484 
L 369.495732 53.076742 
L 371.035589 113.0866 
L 371.343133 118.972085 
L 371.652977 120.129378 
L 371.96583 117.231934 
L 372.270381 111.241898 
L 372.877631 88.176652 
L 372.877631 88.176652 
" style="fill:none;stroke:#2ca02c;stroke-linecap:square;"/>
   </g>
   <g id="patch_3">
    <path d="M 53.328125 224.64 
L 53.328125 7.2 
" style="fill:none;stroke:#000000;stroke-linecap:square;stroke-linejoin:miter;stroke-width:0.8;"/>
   </g>
   <g id="patch_4">
    <path d="M 388.128125 224.64 
L 388.128125 7.2 
" style="fill:none;stroke:#000000;stroke-linecap:square;stroke-linejoin:miter;stroke-width:0.8;"/>
   </g>
   <g id="patch_5">
    <path d="M 53.328125 224.64 
L 388.128125 224.64 
" style="fill:none;stroke:#000000;stroke-linecap:square;stroke-linejoin:miter;stroke-width:0.8;"/>
   </g>
   <g id="patch_6">
    <path d="M 53.328125 7.2 
L 388.128125 7.2 
" style="fill:none;stroke:#000000;stroke-linecap:square;stroke-linejoin:miter;stroke-width:0.8;"/>
   </g>
   <g id="legend_1">
    <g id="patch_7">
     <path d="M 272.628125 219.64 
L 381.128125 219.64 
Q 383.128125 219.64 383.128125 217.64 
L 383.128125 174.605625 
Q 383.128125 172.605625 381.128125 172.605625 
L 272.628125 172.605625 
Q 270.628125 172.605625 270.628125 174.605625 
L 270.628125 217.64 
Q 270.628125 219.64 272.628125 219.64 
z
" style="fill:#ffffff;opacity:0.8;stroke:#cccccc;stroke-linejoin:miter;"/>
    </g>
    <g id="line2d_32">
     <path d="M 274.628125 180.704063 
L 294.628125 180.704063 
" style="fill:none;stroke:#1f77b4;stroke-linecap:square;"/>
    </g>
    <g id="line2d_33"/>
    <g id="text_17">
     <!-- $\sf N_{cells}$ = 2000 -->
     <g transform="translate(302.628125 184.204063)scale(0.1 -0.1)">
      <defs>
       <path d="M 628 4666 
L 1478 4666 
L 3547 763 
L 3547 4666 
L 4159 4666 
L 4159 0 
L 3309 0 
L 1241 3903 
L 1241 0 
L 628 0 
L 628 4666 
z
" id="DejaVuSans-4e" transform="scale(0.015625)"/>
       <path d="M 3122 3366 
L 3122 2828 
Q 2878 2963 2633 3030 
Q 2388 3097 2138 3097 
Q 1578 3097 1268 2742 
Q 959 2388 959 1747 
Q 959 1106 1268 751 
Q 1578 397 2138 397 
Q 2388 397 2633 464 
Q 2878 531 3122 666 
L 3122 134 
Q 2881 22 2623 -34 
Q 2366 -91 2075 -91 
Q 1284 -91 818 406 
Q 353 903 353 1747 
Q 353 2603 823 3093 
Q 1294 3584 2113 3584 
Q 2378 3584 2631 3529 
Q 2884 3475 3122 3366 
z
" id="DejaVuSans-63" transform="scale(0.015625)"/>
       <path d="M 603 4863 
L 1178 4863 
L 1178 0 
L 603 0 
L 603 4863 
z
" id="DejaVuSans-6c" transform="scale(0.015625)"/>
       <path d="M 678 2906 
L 4684 2906 
L 4684 2381 
L 678 2381 
L 678 2906 
z
M 678 1631 
L 4684 1631 
L 4684 1100 
L 678 1100 
L 678 1631 
z
" id="DejaVuSans-3d" transform="scale(0.015625)"/>
      </defs>
      <use transform="translate(0 0.78125)" xlink:href="#DejaVuSans-4e"/>
      <use transform="translate(75.761719 -15.625)scale(0.7)" xlink:href="#DejaVuSans-63"/>
      <use transform="translate(114.248047 -15.625)scale(0.7)" xlink:href="#DejaVuSans-65"/>
      <use transform="translate(157.314453 -15.625)scale(0.7)" xlink:href="#DejaVuSans-6c"/>
      <use transform="translate(176.762695 -15.625)scale(0.7)" xlink:href="#DejaVuSans-6c"/>
      <use transform="translate(196.210938 -15.625)scale(0.7)" xlink:href="#DejaVuSans-73"/>
      <use transform="translate(235.415039 0.78125)" xlink:href="#DejaVuSans-20"/>
      <use transform="translate(267.202148 0.78125)" xlink:href="#DejaVuSans-3d"/>
      <use transform="translate(350.991211 0.78125)" xlink:href="#DejaVuSans-20"/>
      <use transform="translate(382.77832 0.78125)" xlink:href="#DejaVuSans-32"/>
      <use transform="translate(446.401367 0.78125)" xlink:href="#DejaVuSans-30"/>
      <use transform="translate(510.024414 0.78125)" xlink:href="#DejaVuSans-30"/>
      <use transform="translate(573.647461 0.78125)" xlink:href="#DejaVuSans-30"/>
     </g>
    </g>
    <g id="line2d_34">
     <path d="M 274.628125 195.382188 
L 294.628125 195.382188 
" style="fill:none;stroke:#ff7f0e;stroke-linecap:square;"/>
    </g>
    <g id="line2d_35"/>
    <g id="text_18">
     <!-- $\sf N_{cells}$ = 31250 -->
     <g transform="translate(302.628125 198.882188)scale(0.1 -0.1)">
      <use transform="translate(0 0.78125)" xlink:href="#DejaVuSans-4e"/>
      <use transform="translate(75.761719 -15.625)scale(0.7)" xlink:href="#DejaVuSans-63"/>
      <use transform="translate(114.248047 -15.625)scale(0.7)" xlink:href="#DejaVuSans-65"/>
      <use transform="translate(157.314453 -15.625)scale(0.7)" xlink:href="#DejaVuSans-6c"/>
      <use transform="translate(176.762695 -15.625)scale(0.7)" xlink:href="#DejaVuSans-6c"/>
      <use transform="translate(196.210938 -15.625)scale(0.7)" xlink:href="#DejaVuSans-73"/>
      <use transform="translate(235.415039 0.78125)" xlink:href="#DejaVuSans-20"/>
      <use transform="translate(267.202148 0.78125)" xlink:href="#DejaVuSans-3d"/>
      <use transform="translate(350.991211 0.78125)" xlink:href="#DejaVuSans-20"/>
      <use transform="translate(382.77832 0.78125)" xlink:href="#DejaVuSans-33"/>
      <use transform="translate(446.401367 0.78125)" xlink:href="#DejaVuSans-31"/>
      <use transform="translate(510.024414 0.78125)" xlink:href="#DejaVuSans-32"/>
      <use transform="translate(573.647461 0.78125)" xlink:href="#DejaVuSans-35"/>
      <use transform="translate(637.270508 0.78125)" xlink:href="#DejaVuSans-30"/>
     </g>
    </g>
    <g id="line2d_36">
     <path d="M 274.628125 210.060313 
L 294.628125 210.060313 
" style="fill:none;stroke:#2ca02c;stroke-linecap:square;"/>
    </g>
    <g id="line2d_37"/>
    <g id="text_19">
     <!-- $\sf N_{cells}$ = 250000 -->
     <g transform="translate(302.628125 213.560313)scale(0.1 -0.1)">
      <use transform="translate(0 0.78125)" xlink:href="#DejaVuSans-4e"/>
      <use transform="translate(75.761719 -15.625)scale(0.7)" xlink:href="#DejaVuSans-63"/>
      <use transform="translate(114.248047 -15.625)scale(0.7)" xlink:href="#DejaVuSans-65"/>
      <use transform="translate(157.314453 -15.625)scale(0.7)" xlink:href="#DejaVuSans-6c"/>
      <use transform="translate(176.762695 -15.625)scale(0.7)" xlink:href="#DejaVuSans-6c"/>
      <use transform="translate(196.210938 -15.625)scale(0.7)" xlink:href="#DejaVuSans-73"/>
      <use transform="translate(235.415039 0.78125)" xlink:href="#DejaVuSans-20"/>
      <use transform="translate(267.202148 0.78125)" xlink:href="#DejaVuSans-3d"/>
      <use transform="translate(350.991211 0.78125)" xlink:href="#DejaVuSans-20"/>
      <use transform="translate(382.77832 0.78125)" xlink:href="#DejaVuSans-32"/>
      <use transform="translate(446.401367 0.78125)" xlink:href="#DejaVuSans-35"/>
      <use transform="translate(510.024414 0.78125)" xlink:href="#DejaVuSans-30"/>
      <use transform="translate(573.647461 0.78125)" xlink:href="#DejaVuSans-30"/>
      <use transform="translate(637.270508 0.78125)" xlink:href="#DejaVuSans-30"/>
      <use transform="translate(700.893555 0.78125)" xlink:href="#DejaVuSans-30"/>
     </g>
    </g>
   </g>
  </g>
 </g>
 <defs>
  <clipPath id="p1423d43ba2">
   <rect height="217.44" width="334.8" x="53.328125" y="7.2"/>
  </clipPath>
 </defs>
</svg>
