<?xml version="1.0" encoding="utf-8" standalone="no"?>
<!DOCTYPE svg PUBLIC "-//W3C//DTD SVG 1.1//EN"
  "http://www.w3.org/Graphics/SVG/1.1/DTD/svg11.dtd">
<svg height="262.19625pt" version="1.1" viewBox="0 0 401.690625 262.19625" width="401.690625pt" xmlns="http://www.w3.org/2000/svg" xmlns:xlink="http://www.w3.org/1999/xlink">
 <metadata>
  <rdf:RDF xmlns:cc="http://creativecommons.org/ns#" xmlns:dc="http://purl.org/dc/elements/1.1/" xmlns:rdf="http://www.w3.org/1999/02/22-rdf-syntax-ns#">
   <cc:Work>
    <dc:type rdf:resource="http://purl.org/dc/dcmitype/StillImage"/>
    <dc:date>2021-06-03T19:51:26.325355</dc:date>
    <dc:format>image/svg+xml</dc:format>
    <dc:creator>
     <cc:Agent>
      <dc:title>Matplotlib v3.4.1, https://matplotlib.org/</dc:title>
     </cc:Agent>
    </dc:creator>
   </cc:Work>
  </rdf:RDF>
 </metadata>
 <defs>
  <style type="text/css">*{stroke-linecap:butt;stroke-linejoin:round;}</style>
 </defs>
 <g id="figure_1">
  <g id="patch_1">
   <path d="M 0 262.19625 
L 401.690625 262.19625 
L 401.690625 0 
L 0 0 
z
" style="fill:none;"/>
  </g>
  <g id="axes_1">
   <g id="patch_2">
    <path d="M 59.690625 224.64 
L 394.490625 224.64 
L 394.490625 7.2 
L 59.690625 7.2 
z
" style="fill:#ffffff;"/>
   </g>
   <g id="matplotlib.axis_1">
    <g id="xtick_1">
     <g id="line2d_1">
      <path clip-path="url(#p0ce4eb7843)" d="M 74.908807 224.64 
L 74.908807 7.2 
" style="fill:none;stroke:#b0b0b0;stroke-dasharray:2.96,1.28;stroke-dashoffset:0;stroke-opacity:0.5;stroke-width:0.8;"/>
     </g>
     <g id="line2d_2">
      <defs>
       <path d="M 0 0 
L 0 3.5 
" id="mb9841d8bd1" style="stroke:#000000;stroke-width:0.8;"/>
      </defs>
      <g>
       <use style="stroke:#000000;stroke-width:0.8;" x="74.908807" xlink:href="#mb9841d8bd1" y="224.64"/>
      </g>
     </g>
     <g id="text_1">
      <!-- 0 -->
      <g transform="translate(71.727557 239.238437)scale(0.1 -0.1)">
       <defs>
        <path d="M 2034 4250 
Q 1547 4250 1301 3770 
Q 1056 3291 1056 2328 
Q 1056 1369 1301 889 
Q 1547 409 2034 409 
Q 2525 409 2770 889 
Q 3016 1369 3016 2328 
Q 3016 3291 2770 3770 
Q 2525 4250 2034 4250 
z
M 2034 4750 
Q 2819 4750 3233 4129 
Q 3647 3509 3647 2328 
Q 3647 1150 3233 529 
Q 2819 -91 2034 -91 
Q 1250 -91 836 529 
Q 422 1150 422 2328 
Q 422 3509 836 4129 
Q 1250 4750 2034 4750 
z
" id="DejaVuSans-30" transform="scale(0.015625)"/>
       </defs>
       <use xlink:href="#DejaVuSans-30"/>
      </g>
     </g>
    </g>
    <g id="xtick_2">
     <g id="line2d_3">
      <path clip-path="url(#p0ce4eb7843)" d="M 125.681999 224.64 
L 125.681999 7.2 
" style="fill:none;stroke:#b0b0b0;stroke-dasharray:2.96,1.28;stroke-dashoffset:0;stroke-opacity:0.5;stroke-width:0.8;"/>
     </g>
     <g id="line2d_4">
      <g>
       <use style="stroke:#000000;stroke-width:0.8;" x="125.681999" xlink:href="#mb9841d8bd1" y="224.64"/>
      </g>
     </g>
     <g id="text_2">
      <!-- 5 -->
      <g transform="translate(122.500749 239.238437)scale(0.1 -0.1)">
       <defs>
        <path d="M 691 4666 
L 3169 4666 
L 3169 4134 
L 1269 4134 
L 1269 2991 
Q 1406 3038 1543 3061 
Q 1681 3084 1819 3084 
Q 2600 3084 3056 2656 
Q 3513 2228 3513 1497 
Q 3513 744 3044 326 
Q 2575 -91 1722 -91 
Q 1428 -91 1123 -41 
Q 819 9 494 109 
L 494 744 
Q 775 591 1075 516 
Q 1375 441 1709 441 
Q 2250 441 2565 725 
Q 2881 1009 2881 1497 
Q 2881 1984 2565 2268 
Q 2250 2553 1709 2553 
Q 1456 2553 1204 2497 
Q 953 2441 691 2322 
L 691 4666 
z
" id="DejaVuSans-35" transform="scale(0.015625)"/>
       </defs>
       <use xlink:href="#DejaVuSans-35"/>
      </g>
     </g>
    </g>
    <g id="xtick_3">
     <g id="line2d_5">
      <path clip-path="url(#p0ce4eb7843)" d="M 176.455191 224.64 
L 176.455191 7.2 
" style="fill:none;stroke:#b0b0b0;stroke-dasharray:2.96,1.28;stroke-dashoffset:0;stroke-opacity:0.5;stroke-width:0.8;"/>
     </g>
     <g id="line2d_6">
      <g>
       <use style="stroke:#000000;stroke-width:0.8;" x="176.455191" xlink:href="#mb9841d8bd1" y="224.64"/>
      </g>
     </g>
     <g id="text_3">
      <!-- 10 -->
      <g transform="translate(170.092691 239.238437)scale(0.1 -0.1)">
       <defs>
        <path d="M 794 531 
L 1825 531 
L 1825 4091 
L 703 3866 
L 703 4441 
L 1819 4666 
L 2450 4666 
L 2450 531 
L 3481 531 
L 3481 0 
L 794 0 
L 794 531 
z
" id="DejaVuSans-31" transform="scale(0.015625)"/>
       </defs>
       <use xlink:href="#DejaVuSans-31"/>
       <use x="63.623047" xlink:href="#DejaVuSans-30"/>
      </g>
     </g>
    </g>
    <g id="xtick_4">
     <g id="line2d_7">
      <path clip-path="url(#p0ce4eb7843)" d="M 227.228383 224.64 
L 227.228383 7.2 
" style="fill:none;stroke:#b0b0b0;stroke-dasharray:2.96,1.28;stroke-dashoffset:0;stroke-opacity:0.5;stroke-width:0.8;"/>
     </g>
     <g id="line2d_8">
      <g>
       <use style="stroke:#000000;stroke-width:0.8;" x="227.228383" xlink:href="#mb9841d8bd1" y="224.64"/>
      </g>
     </g>
     <g id="text_4">
      <!-- 15 -->
      <g transform="translate(220.865883 239.238437)scale(0.1 -0.1)">
       <use xlink:href="#DejaVuSans-31"/>
       <use x="63.623047" xlink:href="#DejaVuSans-35"/>
      </g>
     </g>
    </g>
    <g id="xtick_5">
     <g id="line2d_9">
      <path clip-path="url(#p0ce4eb7843)" d="M 278.001575 224.64 
L 278.001575 7.2 
" style="fill:none;stroke:#b0b0b0;stroke-dasharray:2.96,1.28;stroke-dashoffset:0;stroke-opacity:0.5;stroke-width:0.8;"/>
     </g>
     <g id="line2d_10">
      <g>
       <use style="stroke:#000000;stroke-width:0.8;" x="278.001575" xlink:href="#mb9841d8bd1" y="224.64"/>
      </g>
     </g>
     <g id="text_5">
      <!-- 20 -->
      <g transform="translate(271.639075 239.238437)scale(0.1 -0.1)">
       <defs>
        <path d="M 1228 531 
L 3431 531 
L 3431 0 
L 469 0 
L 469 531 
Q 828 903 1448 1529 
Q 2069 2156 2228 2338 
Q 2531 2678 2651 2914 
Q 2772 3150 2772 3378 
Q 2772 3750 2511 3984 
Q 2250 4219 1831 4219 
Q 1534 4219 1204 4116 
Q 875 4013 500 3803 
L 500 4441 
Q 881 4594 1212 4672 
Q 1544 4750 1819 4750 
Q 2544 4750 2975 4387 
Q 3406 4025 3406 3419 
Q 3406 3131 3298 2873 
Q 3191 2616 2906 2266 
Q 2828 2175 2409 1742 
Q 1991 1309 1228 531 
z
" id="DejaVuSans-32" transform="scale(0.015625)"/>
       </defs>
       <use xlink:href="#DejaVuSans-32"/>
       <use x="63.623047" xlink:href="#DejaVuSans-30"/>
      </g>
     </g>
    </g>
    <g id="xtick_6">
     <g id="line2d_11">
      <path clip-path="url(#p0ce4eb7843)" d="M 328.774767 224.64 
L 328.774767 7.2 
" style="fill:none;stroke:#b0b0b0;stroke-dasharray:2.96,1.28;stroke-dashoffset:0;stroke-opacity:0.5;stroke-width:0.8;"/>
     </g>
     <g id="line2d_12">
      <g>
       <use style="stroke:#000000;stroke-width:0.8;" x="328.774767" xlink:href="#mb9841d8bd1" y="224.64"/>
      </g>
     </g>
     <g id="text_6">
      <!-- 25 -->
      <g transform="translate(322.412267 239.238437)scale(0.1 -0.1)">
       <use xlink:href="#DejaVuSans-32"/>
       <use x="63.623047" xlink:href="#DejaVuSans-35"/>
      </g>
     </g>
    </g>
    <g id="xtick_7">
     <g id="line2d_13">
      <path clip-path="url(#p0ce4eb7843)" d="M 379.547959 224.64 
L 379.547959 7.2 
" style="fill:none;stroke:#b0b0b0;stroke-dasharray:2.96,1.28;stroke-dashoffset:0;stroke-opacity:0.5;stroke-width:0.8;"/>
     </g>
     <g id="line2d_14">
      <g>
       <use style="stroke:#000000;stroke-width:0.8;" x="379.547959" xlink:href="#mb9841d8bd1" y="224.64"/>
      </g>
     </g>
     <g id="text_7">
      <!-- 30 -->
      <g transform="translate(373.185459 239.238437)scale(0.1 -0.1)">
       <defs>
        <path d="M 2597 2516 
Q 3050 2419 3304 2112 
Q 3559 1806 3559 1356 
Q 3559 666 3084 287 
Q 2609 -91 1734 -91 
Q 1441 -91 1130 -33 
Q 819 25 488 141 
L 488 750 
Q 750 597 1062 519 
Q 1375 441 1716 441 
Q 2309 441 2620 675 
Q 2931 909 2931 1356 
Q 2931 1769 2642 2001 
Q 2353 2234 1838 2234 
L 1294 2234 
L 1294 2753 
L 1863 2753 
Q 2328 2753 2575 2939 
Q 2822 3125 2822 3475 
Q 2822 3834 2567 4026 
Q 2313 4219 1838 4219 
Q 1578 4219 1281 4162 
Q 984 4106 628 3988 
L 628 4550 
Q 988 4650 1302 4700 
Q 1616 4750 1894 4750 
Q 2613 4750 3031 4423 
Q 3450 4097 3450 3541 
Q 3450 3153 3228 2886 
Q 3006 2619 2597 2516 
z
" id="DejaVuSans-33" transform="scale(0.015625)"/>
       </defs>
       <use xlink:href="#DejaVuSans-33"/>
       <use x="63.623047" xlink:href="#DejaVuSans-30"/>
      </g>
     </g>
    </g>
    <g id="text_8">
     <!-- Time / s -->
     <g transform="translate(207.389844 252.916562)scale(0.1 -0.1)">
      <defs>
       <path d="M -19 4666 
L 3928 4666 
L 3928 4134 
L 2272 4134 
L 2272 0 
L 1638 0 
L 1638 4134 
L -19 4134 
L -19 4666 
z
" id="DejaVuSans-54" transform="scale(0.015625)"/>
       <path d="M 603 3500 
L 1178 3500 
L 1178 0 
L 603 0 
L 603 3500 
z
M 603 4863 
L 1178 4863 
L 1178 4134 
L 603 4134 
L 603 4863 
z
" id="DejaVuSans-69" transform="scale(0.015625)"/>
       <path d="M 3328 2828 
Q 3544 3216 3844 3400 
Q 4144 3584 4550 3584 
Q 5097 3584 5394 3201 
Q 5691 2819 5691 2113 
L 5691 0 
L 5113 0 
L 5113 2094 
Q 5113 2597 4934 2840 
Q 4756 3084 4391 3084 
Q 3944 3084 3684 2787 
Q 3425 2491 3425 1978 
L 3425 0 
L 2847 0 
L 2847 2094 
Q 2847 2600 2669 2842 
Q 2491 3084 2119 3084 
Q 1678 3084 1418 2786 
Q 1159 2488 1159 1978 
L 1159 0 
L 581 0 
L 581 3500 
L 1159 3500 
L 1159 2956 
Q 1356 3278 1631 3431 
Q 1906 3584 2284 3584 
Q 2666 3584 2933 3390 
Q 3200 3197 3328 2828 
z
" id="DejaVuSans-6d" transform="scale(0.015625)"/>
       <path d="M 3597 1894 
L 3597 1613 
L 953 1613 
Q 991 1019 1311 708 
Q 1631 397 2203 397 
Q 2534 397 2845 478 
Q 3156 559 3463 722 
L 3463 178 
Q 3153 47 2828 -22 
Q 2503 -91 2169 -91 
Q 1331 -91 842 396 
Q 353 884 353 1716 
Q 353 2575 817 3079 
Q 1281 3584 2069 3584 
Q 2775 3584 3186 3129 
Q 3597 2675 3597 1894 
z
M 3022 2063 
Q 3016 2534 2758 2815 
Q 2500 3097 2075 3097 
Q 1594 3097 1305 2825 
Q 1016 2553 972 2059 
L 3022 2063 
z
" id="DejaVuSans-65" transform="scale(0.015625)"/>
       <path id="DejaVuSans-20" transform="scale(0.015625)"/>
       <path d="M 1625 4666 
L 2156 4666 
L 531 -594 
L 0 -594 
L 1625 4666 
z
" id="DejaVuSans-2f" transform="scale(0.015625)"/>
       <path d="M 2834 3397 
L 2834 2853 
Q 2591 2978 2328 3040 
Q 2066 3103 1784 3103 
Q 1356 3103 1142 2972 
Q 928 2841 928 2578 
Q 928 2378 1081 2264 
Q 1234 2150 1697 2047 
L 1894 2003 
Q 2506 1872 2764 1633 
Q 3022 1394 3022 966 
Q 3022 478 2636 193 
Q 2250 -91 1575 -91 
Q 1294 -91 989 -36 
Q 684 19 347 128 
L 347 722 
Q 666 556 975 473 
Q 1284 391 1588 391 
Q 1994 391 2212 530 
Q 2431 669 2431 922 
Q 2431 1156 2273 1281 
Q 2116 1406 1581 1522 
L 1381 1569 
Q 847 1681 609 1914 
Q 372 2147 372 2553 
Q 372 3047 722 3315 
Q 1072 3584 1716 3584 
Q 2034 3584 2315 3537 
Q 2597 3491 2834 3397 
z
" id="DejaVuSans-73" transform="scale(0.015625)"/>
      </defs>
      <use xlink:href="#DejaVuSans-54"/>
      <use x="57.958984" xlink:href="#DejaVuSans-69"/>
      <use x="85.742188" xlink:href="#DejaVuSans-6d"/>
      <use x="183.154297" xlink:href="#DejaVuSans-65"/>
      <use x="244.677734" xlink:href="#DejaVuSans-20"/>
      <use x="276.464844" xlink:href="#DejaVuSans-2f"/>
      <use x="310.15625" xlink:href="#DejaVuSans-20"/>
      <use x="341.943359" xlink:href="#DejaVuSans-73"/>
     </g>
    </g>
   </g>
   <g id="matplotlib.axis_2">
    <g id="ytick_1">
     <g id="line2d_15">
      <path clip-path="url(#p0ce4eb7843)" d="M 59.690625 214.756364 
L 394.490625 214.756364 
" style="fill:none;stroke:#b0b0b0;stroke-dasharray:2.96,1.28;stroke-dashoffset:0;stroke-opacity:0.5;stroke-width:0.8;"/>
     </g>
     <g id="line2d_16">
      <defs>
       <path d="M 0 0 
L -3.5 0 
" id="mf60003a664" style="stroke:#000000;stroke-width:0.8;"/>
      </defs>
      <g>
       <use style="stroke:#000000;stroke-width:0.8;" x="59.690625" xlink:href="#mf60003a664" y="214.756364"/>
      </g>
     </g>
     <g id="text_9">
      <!-- 0 -->
      <g transform="translate(46.328125 218.555582)scale(0.1 -0.1)">
       <use xlink:href="#DejaVuSans-30"/>
      </g>
     </g>
    </g>
    <g id="ytick_2">
     <g id="line2d_17">
      <path clip-path="url(#p0ce4eb7843)" d="M 59.690625 186.082029 
L 394.490625 186.082029 
" style="fill:none;stroke:#b0b0b0;stroke-dasharray:2.96,1.28;stroke-dashoffset:0;stroke-opacity:0.5;stroke-width:0.8;"/>
     </g>
     <g id="line2d_18">
      <g>
       <use style="stroke:#000000;stroke-width:0.8;" x="59.690625" xlink:href="#mf60003a664" y="186.082029"/>
      </g>
     </g>
     <g id="text_10">
      <!-- 2000 -->
      <g transform="translate(27.240625 189.881248)scale(0.1 -0.1)">
       <use xlink:href="#DejaVuSans-32"/>
       <use x="63.623047" xlink:href="#DejaVuSans-30"/>
       <use x="127.246094" xlink:href="#DejaVuSans-30"/>
       <use x="190.869141" xlink:href="#DejaVuSans-30"/>
      </g>
     </g>
    </g>
    <g id="ytick_3">
     <g id="line2d_19">
      <path clip-path="url(#p0ce4eb7843)" d="M 59.690625 157.407695 
L 394.490625 157.407695 
" style="fill:none;stroke:#b0b0b0;stroke-dasharray:2.96,1.28;stroke-dashoffset:0;stroke-opacity:0.5;stroke-width:0.8;"/>
     </g>
     <g id="line2d_20">
      <g>
       <use style="stroke:#000000;stroke-width:0.8;" x="59.690625" xlink:href="#mf60003a664" y="157.407695"/>
      </g>
     </g>
     <g id="text_11">
      <!-- 4000 -->
      <g transform="translate(27.240625 161.206913)scale(0.1 -0.1)">
       <defs>
        <path d="M 2419 4116 
L 825 1625 
L 2419 1625 
L 2419 4116 
z
M 2253 4666 
L 3047 4666 
L 3047 1625 
L 3713 1625 
L 3713 1100 
L 3047 1100 
L 3047 0 
L 2419 0 
L 2419 1100 
L 313 1100 
L 313 1709 
L 2253 4666 
z
" id="DejaVuSans-34" transform="scale(0.015625)"/>
       </defs>
       <use xlink:href="#DejaVuSans-34"/>
       <use x="63.623047" xlink:href="#DejaVuSans-30"/>
       <use x="127.246094" xlink:href="#DejaVuSans-30"/>
       <use x="190.869141" xlink:href="#DejaVuSans-30"/>
      </g>
     </g>
    </g>
    <g id="ytick_4">
     <g id="line2d_21">
      <path clip-path="url(#p0ce4eb7843)" d="M 59.690625 128.73336 
L 394.490625 128.73336 
" style="fill:none;stroke:#b0b0b0;stroke-dasharray:2.96,1.28;stroke-dashoffset:0;stroke-opacity:0.5;stroke-width:0.8;"/>
     </g>
     <g id="line2d_22">
      <g>
       <use style="stroke:#000000;stroke-width:0.8;" x="59.690625" xlink:href="#mf60003a664" y="128.73336"/>
      </g>
     </g>
     <g id="text_12">
      <!-- 6000 -->
      <g transform="translate(27.240625 132.532579)scale(0.1 -0.1)">
       <defs>
        <path d="M 2113 2584 
Q 1688 2584 1439 2293 
Q 1191 2003 1191 1497 
Q 1191 994 1439 701 
Q 1688 409 2113 409 
Q 2538 409 2786 701 
Q 3034 994 3034 1497 
Q 3034 2003 2786 2293 
Q 2538 2584 2113 2584 
z
M 3366 4563 
L 3366 3988 
Q 3128 4100 2886 4159 
Q 2644 4219 2406 4219 
Q 1781 4219 1451 3797 
Q 1122 3375 1075 2522 
Q 1259 2794 1537 2939 
Q 1816 3084 2150 3084 
Q 2853 3084 3261 2657 
Q 3669 2231 3669 1497 
Q 3669 778 3244 343 
Q 2819 -91 2113 -91 
Q 1303 -91 875 529 
Q 447 1150 447 2328 
Q 447 3434 972 4092 
Q 1497 4750 2381 4750 
Q 2619 4750 2861 4703 
Q 3103 4656 3366 4563 
z
" id="DejaVuSans-36" transform="scale(0.015625)"/>
       </defs>
       <use xlink:href="#DejaVuSans-36"/>
       <use x="63.623047" xlink:href="#DejaVuSans-30"/>
       <use x="127.246094" xlink:href="#DejaVuSans-30"/>
       <use x="190.869141" xlink:href="#DejaVuSans-30"/>
      </g>
     </g>
    </g>
    <g id="ytick_5">
     <g id="line2d_23">
      <path clip-path="url(#p0ce4eb7843)" d="M 59.690625 100.059026 
L 394.490625 100.059026 
" style="fill:none;stroke:#b0b0b0;stroke-dasharray:2.96,1.28;stroke-dashoffset:0;stroke-opacity:0.5;stroke-width:0.8;"/>
     </g>
     <g id="line2d_24">
      <g>
       <use style="stroke:#000000;stroke-width:0.8;" x="59.690625" xlink:href="#mf60003a664" y="100.059026"/>
      </g>
     </g>
     <g id="text_13">
      <!-- 8000 -->
      <g transform="translate(27.240625 103.858244)scale(0.1 -0.1)">
       <defs>
        <path d="M 2034 2216 
Q 1584 2216 1326 1975 
Q 1069 1734 1069 1313 
Q 1069 891 1326 650 
Q 1584 409 2034 409 
Q 2484 409 2743 651 
Q 3003 894 3003 1313 
Q 3003 1734 2745 1975 
Q 2488 2216 2034 2216 
z
M 1403 2484 
Q 997 2584 770 2862 
Q 544 3141 544 3541 
Q 544 4100 942 4425 
Q 1341 4750 2034 4750 
Q 2731 4750 3128 4425 
Q 3525 4100 3525 3541 
Q 3525 3141 3298 2862 
Q 3072 2584 2669 2484 
Q 3125 2378 3379 2068 
Q 3634 1759 3634 1313 
Q 3634 634 3220 271 
Q 2806 -91 2034 -91 
Q 1263 -91 848 271 
Q 434 634 434 1313 
Q 434 1759 690 2068 
Q 947 2378 1403 2484 
z
M 1172 3481 
Q 1172 3119 1398 2916 
Q 1625 2713 2034 2713 
Q 2441 2713 2670 2916 
Q 2900 3119 2900 3481 
Q 2900 3844 2670 4047 
Q 2441 4250 2034 4250 
Q 1625 4250 1398 4047 
Q 1172 3844 1172 3481 
z
" id="DejaVuSans-38" transform="scale(0.015625)"/>
       </defs>
       <use xlink:href="#DejaVuSans-38"/>
       <use x="63.623047" xlink:href="#DejaVuSans-30"/>
       <use x="127.246094" xlink:href="#DejaVuSans-30"/>
       <use x="190.869141" xlink:href="#DejaVuSans-30"/>
      </g>
     </g>
    </g>
    <g id="ytick_6">
     <g id="line2d_25">
      <path clip-path="url(#p0ce4eb7843)" d="M 59.690625 71.384691 
L 394.490625 71.384691 
" style="fill:none;stroke:#b0b0b0;stroke-dasharray:2.96,1.28;stroke-dashoffset:0;stroke-opacity:0.5;stroke-width:0.8;"/>
     </g>
     <g id="line2d_26">
      <g>
       <use style="stroke:#000000;stroke-width:0.8;" x="59.690625" xlink:href="#mf60003a664" y="71.384691"/>
      </g>
     </g>
     <g id="text_14">
      <!-- 10000 -->
      <g transform="translate(20.878125 75.18391)scale(0.1 -0.1)">
       <use xlink:href="#DejaVuSans-31"/>
       <use x="63.623047" xlink:href="#DejaVuSans-30"/>
       <use x="127.246094" xlink:href="#DejaVuSans-30"/>
       <use x="190.869141" xlink:href="#DejaVuSans-30"/>
       <use x="254.492188" xlink:href="#DejaVuSans-30"/>
      </g>
     </g>
    </g>
    <g id="ytick_7">
     <g id="line2d_27">
      <path clip-path="url(#p0ce4eb7843)" d="M 59.690625 42.710357 
L 394.490625 42.710357 
" style="fill:none;stroke:#b0b0b0;stroke-dasharray:2.96,1.28;stroke-dashoffset:0;stroke-opacity:0.5;stroke-width:0.8;"/>
     </g>
     <g id="line2d_28">
      <g>
       <use style="stroke:#000000;stroke-width:0.8;" x="59.690625" xlink:href="#mf60003a664" y="42.710357"/>
      </g>
     </g>
     <g id="text_15">
      <!-- 12000 -->
      <g transform="translate(20.878125 46.509575)scale(0.1 -0.1)">
       <use xlink:href="#DejaVuSans-31"/>
       <use x="63.623047" xlink:href="#DejaVuSans-32"/>
       <use x="127.246094" xlink:href="#DejaVuSans-30"/>
       <use x="190.869141" xlink:href="#DejaVuSans-30"/>
       <use x="254.492188" xlink:href="#DejaVuSans-30"/>
      </g>
     </g>
    </g>
    <g id="ytick_8">
     <g id="line2d_29">
      <path clip-path="url(#p0ce4eb7843)" d="M 59.690625 14.036022 
L 394.490625 14.036022 
" style="fill:none;stroke:#b0b0b0;stroke-dasharray:2.96,1.28;stroke-dashoffset:0;stroke-opacity:0.5;stroke-width:0.8;"/>
     </g>
     <g id="line2d_30">
      <g>
       <use style="stroke:#000000;stroke-width:0.8;" x="59.690625" xlink:href="#mf60003a664" y="14.036022"/>
      </g>
     </g>
     <g id="text_16">
      <!-- 14000 -->
      <g transform="translate(20.878125 17.835241)scale(0.1 -0.1)">
       <use xlink:href="#DejaVuSans-31"/>
       <use x="63.623047" xlink:href="#DejaVuSans-34"/>
       <use x="127.246094" xlink:href="#DejaVuSans-30"/>
       <use x="190.869141" xlink:href="#DejaVuSans-30"/>
       <use x="254.492188" xlink:href="#DejaVuSans-30"/>
      </g>
     </g>
    </g>
    <g id="text_17">
     <!-- HRR / kW -->
     <g transform="translate(14.798438 139.330156)rotate(-90)scale(0.1 -0.1)">
      <defs>
       <path d="M 628 4666 
L 1259 4666 
L 1259 2753 
L 3553 2753 
L 3553 4666 
L 4184 4666 
L 4184 0 
L 3553 0 
L 3553 2222 
L 1259 2222 
L 1259 0 
L 628 0 
L 628 4666 
z
" id="DejaVuSans-48" transform="scale(0.015625)"/>
       <path d="M 2841 2188 
Q 3044 2119 3236 1894 
Q 3428 1669 3622 1275 
L 4263 0 
L 3584 0 
L 2988 1197 
Q 2756 1666 2539 1819 
Q 2322 1972 1947 1972 
L 1259 1972 
L 1259 0 
L 628 0 
L 628 4666 
L 2053 4666 
Q 2853 4666 3247 4331 
Q 3641 3997 3641 3322 
Q 3641 2881 3436 2590 
Q 3231 2300 2841 2188 
z
M 1259 4147 
L 1259 2491 
L 2053 2491 
Q 2509 2491 2742 2702 
Q 2975 2913 2975 3322 
Q 2975 3731 2742 3939 
Q 2509 4147 2053 4147 
L 1259 4147 
z
" id="DejaVuSans-52" transform="scale(0.015625)"/>
       <path d="M 581 4863 
L 1159 4863 
L 1159 1991 
L 2875 3500 
L 3609 3500 
L 1753 1863 
L 3688 0 
L 2938 0 
L 1159 1709 
L 1159 0 
L 581 0 
L 581 4863 
z
" id="DejaVuSans-6b" transform="scale(0.015625)"/>
       <path d="M 213 4666 
L 850 4666 
L 1831 722 
L 2809 4666 
L 3519 4666 
L 4500 722 
L 5478 4666 
L 6119 4666 
L 4947 0 
L 4153 0 
L 3169 4050 
L 2175 0 
L 1381 0 
L 213 4666 
z
" id="DejaVuSans-57" transform="scale(0.015625)"/>
      </defs>
      <use xlink:href="#DejaVuSans-48"/>
      <use x="75.195312" xlink:href="#DejaVuSans-52"/>
      <use x="144.677734" xlink:href="#DejaVuSans-52"/>
      <use x="214.160156" xlink:href="#DejaVuSans-20"/>
      <use x="245.947266" xlink:href="#DejaVuSans-2f"/>
      <use x="279.638672" xlink:href="#DejaVuSans-20"/>
      <use x="311.425781" xlink:href="#DejaVuSans-6b"/>
      <use x="369.335938" xlink:href="#DejaVuSans-57"/>
     </g>
    </g>
   </g>
   <g id="line2d_31">
    <path clip-path="url(#p0ce4eb7843)" d="M 74.908807 214.756364 
L 75.924271 214.756364 
L 76.939735 206.440794 
L 77.955198 195.996439 
L 78.584438 197.697375 
L 79.14013 206.963452 
L 79.695821 209.161465 
L 80.307082 210.287339 
L 80.979469 208.385718 
L 81.719094 207.514919 
L 82.532683 206.904425 
L 83.253458 205.940503 
L 83.825738 203.210096 
L 84.27552 200.365008 
L 84.669841 199.315 
L 85.403549 196.874796 
L 86.047949 191.94617 
L 86.352962 186.74775 
L 86.962986 185.060649 
L 87.267999 179.236371 
L 87.531651 177.12906 
L 88.028381 175.774295 
L 88.673861 164.383367 
L 88.846488 162.95824 
L 89.019115 165.374777 
L 89.191743 159.314944 
L 89.536997 156.069368 
L 89.709624 153.850516 
L 90.054879 138.811017 
L 90.363976 135.585791 
L 90.982169 115.704193 
L 91.291265 100.285025 
L 91.445813 93.303812 
L 91.754909 90.696687 
L 92.064007 79.857271 
L 92.218555 81.044652 
L 92.373103 81.186749 
L 92.503458 79.665203 
L 93.385723 96.311859 
L 93.846693 101.775047 
L 94.178013 104.834093 
L 94.480518 108.770437 
L 95.388032 127.392058 
L 95.690538 130.784835 
L 96.023292 136.226434 
L 96.245129 136.682115 
L 96.844088 135.21572 
L 98.12109 120.00589 
L 98.389275 119.369881 
L 98.712658 116.934649 
L 99.036041 112.761581 
L 99.658554 96.158518 
L 100.281068 87.629318 
L 100.547861 85.073102 
L 100.814651 84.867383 
L 101.133819 84.363594 
L 101.753894 86.127163 
L 102.036533 89.81589 
L 102.389835 99.266722 
L 102.955115 117.492363 
L 103.308415 124.215206 
L 103.591056 123.626612 
L 105.123673 90.320925 
L 105.722165 73.592153 
L 106.064158 67.88344 
L 106.66265 52.007436 
L 107.508305 35.517677 
L 107.812968 35.018831 
L 108.117631 34.79456 
L 108.422294 35.18347 
L 108.72696 33.918117 
L 109.031623 34.519452 
L 109.640949 42.865993 
L 109.945612 43.325469 
L 110.250278 44.094565 
L 110.554941 44.557639 
L 110.859604 44.529105 
L 111.164267 42.787013 
L 111.468932 44.433211 
L 112.078258 57.73358 
L 112.748518 67.216118 
L 113.025 75.083498 
L 113.301482 78.354095 
L 113.670126 78.644492 
L 114.591734 69.615633 
L 114.868216 70.847355 
L 115.737653 92.372666 
L 116.064563 93.210662 
L 116.391474 92.850721 
L 118.229277 55.42279 
L 118.490412 56.819431 
L 118.842941 59.822172 
L 119.417443 68.591758 
L 119.704691 73.482748 
L 120.351002 80.11527 
L 120.63825 80.109362 
L 121.284565 80.640705 
L 121.56319 79.992382 
L 122.13191 74.280673 
L 122.454186 71.613512 
L 122.801738 72.810553 
L 123.079777 70.033973 
L 123.35782 70.302697 
L 123.705368 69.663993 
L 124.011215 66.900154 
L 124.317057 65.931471 
L 124.630549 65.382767 
L 125.244534 62.976335 
L 125.522088 64.853832 
L 125.799643 65.419954 
L 126.160414 63.896364 
L 126.410073 61.740272 
L 126.742949 61.047258 
L 127.075829 68.698475 
L 127.658364 87.582764 
L 128.240898 96.704871 
L 128.573774 97.554096 
L 128.90665 95.458951 
L 129.489184 89.612649 
L 130.105009 78.655777 
L 130.379634 76.271957 
L 130.983803 67.871693 
L 131.295959 62.7039 
L 131.613147 55.599554 
L 132.187082 30.670945 
L 132.569705 24.017463 
L 133.14364 19.581286 
L 133.430608 19.92297 
L 133.717575 21.40261 
L 134.387167 32.613533 
L 134.961102 38.439799 
L 135.248069 37.155334 
L 135.535037 32.497239 
L 136.204628 36.217944 
L 136.491595 42.500662 
L 136.778563 46.156163 
L 137.065531 51.770536 
L 137.448154 56.9798 
L 138.596024 85.432273 
L 138.978648 89.439301 
L 139.265615 89.494354 
L 139.552583 88.577181 
L 140.126513 94.808766 
L 140.413481 99.463816 
L 140.796104 102.133211 
L 141.083072 102.788604 
L 141.37004 104.76336 
L 141.657007 102.776038 
L 141.943975 102.530514 
L 142.24051 103.222051 
L 142.556172 100.169964 
L 142.934263 94.638106 
L 143.234411 93.866056 
L 143.534564 90.158372 
L 143.834717 83.818081 
L 144.384998 76.082396 
L 144.715162 75.651329 
L 145.045331 72.152374 
L 145.639632 67.897847 
L 146.002814 71.716938 
L 146.244939 71.724387 
L 146.850246 70.169728 
L 147.213429 68.173922 
L 147.455554 65.611979 
L 148.095913 57.623461 
L 148.416092 55.721672 
L 149.007735 43.831092 
L 149.291381 42.889123 
L 149.575022 37.853739 
L 149.858668 37.573493 
L 150.236861 38.390333 
L 150.520502 37.669988 
L 150.804148 40.545262 
L 151.141217 40.442424 
L 151.688951 46.723195 
L 152.337808 51.004884 
L 152.615891 50.298723 
L 152.98667 55.91367 
L 153.820917 80.308164 
L 154.191692 83.936069 
L 154.469775 81.358613 
L 154.757125 81.440156 
L 155.063015 82.257808 
L 155.368906 82.51739 
L 155.674796 85.506003 
L 155.980687 85.558143 
L 156.306972 86.626402 
L 156.64345 83.837207 
L 156.867766 83.056293 
L 157.47055 75.951793 
L 158.475172 63.480404 
L 158.776564 64.124218 
L 159.077956 64.174524 
L 159.680731 50.828568 
L 160.584898 29.868875 
L 160.88629 26.92396 
L 161.187673 29.288122 
L 161.489065 30.6408 
L 161.790448 34.648052 
L 162.694615 52.548566 
L 163.026144 63.139616 
L 163.910216 82.30369 
L 164.241746 82.99144 
L 164.573275 83.251105 
L 164.794298 84.494701 
L 165.125818 84.623175 
L 165.457348 86.06413 
L 165.810977 82.600332 
L 166.6619 70.6793 
L 167.026578 70.523173 
L 167.269701 69.722994 
L 167.634379 70.267694 
L 167.850715 72.044761 
L 168.499713 81.536988 
L 168.824211 88.601683 
L 169.062172 90.5098 
L 169.419122 94.959349 
L 169.747698 95.39365 
L 169.957294 95.127488 
L 170.303117 96.185624 
L 170.938295 99.664124 
L 171.217259 105.709459 
L 171.496232 109.289746 
L 171.914687 110.083618 
L 173.72798 75.964912 
L 174.006953 74.282381 
L 174.843853 66.728108 
L 175.262308 65.904155 
L 175.777761 60.388434 
L 176.404378 55.261329 
L 176.780348 48.590513 
L 177.362118 32.896846 
L 178.245106 18.925808 
L 178.576228 17.083636 
L 179.128093 26.085725 
L 179.459216 34.210321 
L 179.790339 38.000485 
L 180.673326 55.647844 
L 181.004449 60.632754 
L 181.335572 62.976685 
L 181.556324 63.406646 
L 181.887446 63.50877 
L 182.21856 61.623531 
L 182.549682 64.548845 
L 182.770434 69.342569 
L 183.101557 70.667105 
L 183.984544 79.89849 
L 184.315667 78.807059 
L 184.64679 79.598586 
L 185.198655 82.79093 
L 185.529778 86.553274 
L 186.192023 89.769742 
L 186.412765 93.215017 
L 186.743888 96.471598 
L 187.075011 101.546752 
L 187.406134 102.402319 
L 187.626876 104.363718 
L 187.957998 104.912857 
L 188.289121 105.068017 
L 188.620244 99.4857 
L 189.172109 94.379379 
L 189.503232 91.298414 
L 190.386229 79.38168 
L 190.717342 78.577455 
L 191.379587 70.476661 
L 191.931462 63.124313 
L 192.262575 59.947342 
L 192.604738 52.289769 
L 192.84756 51.389789 
L 193.11467 42.685883 
L 193.515326 40.948831 
L 194.049536 48.465903 
L 194.717292 59.600086 
L 195.251502 63.269253 
L 195.61865 65.938164 
L 195.852243 70.437598 
L 196.202638 72.644808 
L 197.13702 81.825201 
L 197.487404 82.769676 
L 197.732686 80.441077 
L 197.989638 81.841849 
L 198.37506 82.871002 
L 199.017453 82.759441 
L 199.852552 83.925274 
L 200.209406 83.652476 
L 200.447308 84.279293 
L 200.816054 84.495709 
L 201.339438 82.325098 
L 201.731978 78.382937 
L 202.909588 60.850724 
L 203.171275 58.673 
L 203.563815 53.848488 
L 203.825512 52.492925 
L 204.087199 53.601157 
L 204.780686 53.629468 
L 205.644266 58.430711 
L 205.93212 65.329744 
L 206.828162 77.489216 
L 207.216751 78.504803 
L 207.768296 81.71581 
L 208.071644 79.752836 
L 208.678351 72.037536 
L 208.981699 70.969767 
L 209.588406 61.127694 
L 209.891754 55.992524 
L 210.195103 53.270184 
L 210.498451 52.710195 
L 210.8018 54.238489 
L 211.087242 53.328191 
L 211.488517 55.709155 
L 211.756044 55.068687 
L 212.394408 56.128055 
L 212.631487 55.756157 
L 212.987111 56.25912 
L 213.579824 60.739107 
L 213.935448 61.567568 
L 214.76524 77.565592 
L 215.713577 95.787544 
L 216.30628 101.883787 
L 217.26647 108.113118 
L 217.527257 108.076442 
L 217.788052 105.875848 
L 218.179237 105.798905 
L 218.440033 99.005209 
L 219.613595 84.253405 
L 220.00478 83.97656 
L 220.265576 82.698158 
L 220.526362 80.825044 
L 220.943636 81.241648 
L 221.230501 80.362936 
L 221.517377 76.176007 
L 221.804243 74.626431 
L 222.968451 60.564764 
L 223.351239 61.815752 
L 223.677965 61.726761 
L 224.222518 56.874302 
L 224.549254 56.657858 
L 225.779934 40.277253 
L 226.019541 35.692705 
L 226.738352 40.044134 
L 226.977949 41.527358 
L 227.33736 45.176013 
L 227.576957 54.004012 
L 228.451509 71.657069 
L 228.846858 74.173158 
L 229.37398 81.194002 
L 229.769328 78.995655 
L 230.032884 79.902649 
L 230.296459 76.732889 
L 230.691798 75.342183 
L 230.955374 75.536813 
L 231.21892 75.203152 
L 231.614268 77.468719 
L 232.14139 81.898665 
L 232.536739 81.774867 
L 233.123457 88.355739 
L 233.35093 90.358168 
L 233.692134 89.855247 
L 233.942354 90.4564 
L 234.317676 88.585722 
L 234.567906 85.338493 
L 234.943218 88.24121 
L 235.193429 85.076084 
L 235.568761 83.517855 
L 235.818972 80.145862 
L 236.069193 78.799947 
L 236.48205 78.900181 
L 237.001308 74.65652 
L 237.367343 76.001889 
L 237.611375 75.40096 
L 237.9774 75.848675 
L 238.221423 71.538018 
L 238.624073 69.719886 
L 238.919345 65.237225 
L 239.214617 68.069879 
L 239.471888 66.790819 
L 239.729178 67.845819 
L 240.115094 71.483707 
L 240.372365 79.74634 
L 240.758301 86.619976 
L 241.272862 100.241461 
L 241.658778 107.591618 
L 241.916068 108.739438 
L 242.173339 113.340521 
L 242.559255 115.525035 
L 242.816546 114.999306 
L 243.073836 113.479517 
L 244.012895 102.190937 
L 244.295907 101.893007 
L 245.003436 91.324331 
L 245.286447 87.082797 
L 245.85247 85.740424 
L 246.135482 79.32576 
L 246.55998 74.310061 
L 246.842992 66.450031 
L 247.126003 62.11203 
L 247.409015 56.010418 
L 247.692026 46.6773 
L 248.258049 37.584903 
L 248.682567 35.727358 
L 248.965559 31.068927 
L 249.248571 30.00267 
L 249.531582 27.492994 
L 249.814594 27.035311 
L 250.522123 35.226831 
L 251.073232 45.947812 
L 252.212542 82.12379 
L 252.592318 89.223376 
L 252.870836 91.996819 
L 253.149335 92.684471 
L 253.427834 95.708564 
L 253.845591 98.574926 
L 254.402589 107.42366 
L 255.377344 109.706679 
L 255.655843 111.32547 
L 255.934342 109.693987 
L 256.240692 112.883405 
L 256.802009 107.801439 
L 257.210121 107.213573 
L 257.482209 107.526107 
L 258.026365 99.880644 
L 258.434497 99.137471 
L 258.720181 99.034324 
L 259.330035 89.090127 
L 259.560674 85.284267 
L 259.918177 81.820693 
L 260.552435 71.88533 
L 261.059849 60.28792 
L 261.694108 59.308162 
L 262.074678 55.342549 
L 262.582092 48.589743 
L 262.962643 50.632412 
L 263.482744 55.756913 
L 263.901354 58.181448 
L 264.459513 62.472826 
L 264.738593 62.54566 
L 265.017654 62.451404 
L 265.436283 61.384489 
L 265.715363 61.692066 
L 265.994423 60.7626 
L 266.552583 64.579115 
L 266.831663 63.959383 
L 267.250273 59.692829 
L 267.529352 58.685461 
L 267.808432 58.946709 
L 268.101457 61.253914 
L 268.408447 62.436773 
L 268.715437 63.029021 
L 269.022407 62.05317 
L 269.329397 61.526671 
L 269.636386 60.241968 
L 270.250346 55.554456 
L 270.557336 59.422061 
L 271.478286 50.880918 
L 271.785276 50.836912 
L 272.399255 47.047308 
L 272.706225 46.928956 
L 273.013215 48.394161 
L 273.320205 50.767299 
L 273.627175 51.631379 
L 273.934165 50.429143 
L 274.241155 45.737067 
L 274.82 50.781258 
L 275.091836 50.452203 
L 276.315185 68.412165 
L 277.212292 81.181723 
L 277.511321 81.590542 
L 277.81037 84.830224 
L 278.408448 94.348059 
L 279.156031 99.735221 
L 279.455079 100.261657 
L 279.754109 101.221568 
L 280.053157 96.336991 
L 280.352187 94.652864 
L 280.651216 93.636227 
L 280.950264 94.339546 
L 281.249294 94.195418 
L 281.548342 92.185611 
L 281.847372 92.336319 
L 282.14642 91.392432 
L 282.789336 93.140166 
L 283.11829 93.262802 
L 283.282747 91.684118 
L 283.611701 90.966951 
L 283.940635 87.165628 
L 284.231665 88.666186 
L 284.522714 86.960399 
L 284.813744 82.24826 
L 285.541339 74.61425 
L 285.832369 74.562432 
L 286.414429 77.061327 
L 286.705479 75.498758 
L 286.996509 72.451746 
L 287.60768 75.109792 
L 287.927821 75.563723 
L 288.247962 77.07411 
L 288.568103 77.630222 
L 288.888243 77.468579 
L 289.240381 75.710105 
L 289.416459 76.77121 
L 290.120773 70.599465 
L 290.296852 69.002355 
L 290.60144 62.917026 
L 290.906047 62.759219 
L 291.515262 57.562206 
L 291.81985 53.023358 
L 292.124457 50.490734 
L 292.429065 50.547635 
L 292.733672 48.629787 
L 293.342867 42.710497 
L 293.647475 42.822478 
L 293.952082 42.074285 
L 294.25667 43.086875 
L 294.561278 40.771339 
L 295.170492 43.206571 
L 296.084295 55.640297 
L 296.404126 63.781484 
L 296.7392 68.892782 
L 297.074255 72.278748 
L 297.409309 72.600494 
L 297.91192 80.891843 
L 298.564578 86.133128 
L 298.864731 89.296643 
L 299.164864 90.030681 
L 299.76515 85.952177 
L 300.065303 84.346624 
L 300.347191 81.500893 
L 300.742636 81.446582 
L 301.00628 79.174673 
L 301.269903 82.843126 
L 301.636044 83.347293 
L 301.870383 84.640256 
L 302.221881 85.045827 
L 302.57336 85.114167 
L 302.807699 85.54501 
L 303.709861 91.63818 
L 304.096514 90.565595 
L 304.612043 94.802648 
L 305.024455 96.009098 
L 305.591524 92.362781 
L 305.875078 91.130527 
L 306.158613 91.408547 
L 306.442147 87.722971 
L 306.867459 89.827567 
L 307.434528 89.210032 
L 307.718082 87.562462 
L 308.001616 89.124051 
L 308.568685 82.74208 
L 308.993997 81.948803 
L 309.561085 84.694273 
L 309.84462 84.861124 
L 310.128154 85.610353 
L 310.411689 85.77047 
L 310.837 85.818648 
L 311.404069 90.178477 
L 312.254692 100.945914 
L 312.538227 104.891001 
L 313.247073 106.356892 
L 313.530627 107.687813 
L 314.097696 108.654332 
L 314.38123 104.060047 
L 315.090076 101.978834 
L 315.373611 99.816239 
L 315.906998 90.022421 
L 316.906351 83.316449 
L 317.18119 79.041775 
L 317.483492 77.435746 
L 317.785795 77.462516 
L 318.3904 77.26258 
L 318.692722 76.112078 
L 318.995024 71.390544 
L 319.297327 70.08995 
L 319.599629 66.551022 
L 320.171908 62.028443 
L 320.576844 62.188799 
L 321.116759 58.61631 
L 321.791652 57.120876 
L 322.061609 57.241692 
L 322.601524 53.171966 
L 323.00646 52.291449 
L 323.276436 47.737788 
L 323.546393 48.338437 
L 323.816351 47.648825 
L 324.221287 49.210302 
L 324.491244 48.651782 
L 324.761201 50.571507 
L 325.031158 51.385561 
L 326.272966 58.782951 
L 326.569923 58.772688 
L 326.866879 56.230781 
L 327.163836 55.183328 
L 327.460793 56.188176 
L 327.906228 57.218058 
L 328.203185 58.629863 
L 328.797099 65.96002 
L 329.094036 67.885484 
L 329.390993 68.337693 
L 329.68795 71.390278 
L 329.984907 71.642578 
L 330.578821 70.215526 
L 330.875778 70.079743 
L 331.172734 70.158597 
L 331.469691 67.289358 
L 331.766629 65.969176 
L 332.063586 67.795331 
L 332.360542 71.208613 
L 332.657499 73.173281 
L 332.954456 70.773485 
L 333.251413 69.300216 
L 333.993805 63.078627 
L 334.257061 56.713387 
L 335.178476 49.182818 
L 335.441751 47.643112 
L 335.705006 51.45278 
L 336.113061 54.88173 
L 337.561006 79.400848 
L 337.850584 81.58476 
L 338.140181 85.580965 
L 338.429758 86.50021 
L 339.732924 97.715494 
L 340.022502 96.933509 
L 340.312099 95.442024 
L 340.601676 96.715413 
L 341.180851 93.313599 
L 341.470447 92.170111 
L 341.904823 92.048554 
L 342.19442 93.767361 
L 342.483998 92.589138 
L 342.773595 93.594377 
L 343.063191 95.854287 
L 343.352769 95.728949 
L 343.931943 93.493485 
L 344.945513 86.3784 
L 345.23509 86.57219 
L 345.524687 85.145684 
L 345.814265 84.649301 
L 346.103861 78.495212 
L 346.683036 71.692618 
L 347.986183 53.546021 
L 348.27578 54.506079 
L 348.565357 54.696145 
L 348.854954 54.41433 
L 349.144532 57.341114 
L 349.434128 58.715186 
L 349.723725 61.946439 
L 350.013303 63.383348 
L 350.737276 68.970979 
L 351.026872 70.34176 
L 351.31645 70.975634 
L 351.606047 68.089173 
L 352.185221 70.523943 
L 352.474799 70.068948 
L 353.777946 84.300155 
L 354.357139 93.043279 
L 354.646717 94.625897 
L 354.936314 94.696267 
L 355.515488 89.25625 
L 355.805065 90.370937 
L 356.094662 86.91764 
L 356.529038 89.86943 
L 356.818635 85.22528 
L 357.397809 79.310484 
L 357.687406 79.114777 
L 357.976984 78.107003 
L 358.556158 72.340577 
L 358.845755 71.502357 
L 359.280131 69.038674 
L 359.569728 65.648354 
L 360.728076 57.043282 
L 361.017673 52.316623 
L 361.307251 53.276233 
L 361.596848 51.310879 
L 361.886425 53.416062 
L 362.32082 53.048602 
L 362.624885 54.821245 
L 363.421238 61.192897 
L 363.739791 66.078063 
L 364.058343 68.775537 
L 364.376896 68.796525 
L 365.013982 73.867499 
L 365.332535 73.205119 
L 365.651087 73.185308 
L 365.96962 72.331112 
L 366.288173 73.144298 
L 366.765992 78.045439 
L 367.403098 80.232768 
L 367.721631 82.410841 
L 368.040184 82.065139 
L 368.358736 82.955751 
L 368.67727 82.258368 
L 368.995822 85.609793 
L 369.314375 85.349064 
L 369.632928 87.295503 
L 369.951461 87.219378 
L 370.110747 86.281372 
L 370.42928 86.237506 
L 370.779694 87.529742 
L 371.130088 87.083749 
L 371.65569 88.658822 
L 372.006103 88.486216 
L 372.356498 88.52217 
L 372.861026 84.799281 
L 373.169275 83.858727 
L 373.477523 84.347255 
L 373.785753 85.160749 
L 374.40225 83.330268 
L 375.001296 86.196315 
L 375.411326 89.926737 
L 376.231386 103.426867 
L 376.504752 105.691663 
L 376.94211 107.127291 
L 377.242805 107.11728 
L 377.844176 107.409015 
L 378.144871 107.786206 
L 378.776321 108.875971 
L 379.272443 104.872478 
L 379.272443 104.872478 
" style="fill:none;stroke:#1f77b4;stroke-linecap:square;"/>
   </g>
   <g id="line2d_32">
    <path clip-path="url(#p0ce4eb7843)" d="M 74.908807 71.384691 
L 379.272443 71.384691 
" style="fill:none;stroke:#ff7f0e;stroke-linecap:square;"/>
   </g>
   <g id="patch_3">
    <path d="M 59.690625 224.64 
L 59.690625 7.2 
" style="fill:none;stroke:#000000;stroke-linecap:square;stroke-linejoin:miter;stroke-width:0.8;"/>
   </g>
   <g id="patch_4">
    <path d="M 394.490625 224.64 
L 394.490625 7.2 
" style="fill:none;stroke:#000000;stroke-linecap:square;stroke-linejoin:miter;stroke-width:0.8;"/>
   </g>
   <g id="patch_5">
    <path d="M 59.690625 224.64 
L 394.490625 224.64 
" style="fill:none;stroke:#000000;stroke-linecap:square;stroke-linejoin:miter;stroke-width:0.8;"/>
   </g>
   <g id="patch_6">
    <path d="M 59.690625 7.2 
L 394.490625 7.2 
" style="fill:none;stroke:#000000;stroke-linecap:square;stroke-linejoin:miter;stroke-width:0.8;"/>
   </g>
   <g id="legend_1">
    <g id="patch_7">
     <path d="M 302.65625 44.55625 
L 387.490625 44.55625 
Q 389.490625 44.55625 389.490625 42.55625 
L 389.490625 14.2 
Q 389.490625 12.2 387.490625 12.2 
L 302.65625 12.2 
Q 300.65625 12.2 300.65625 14.2 
L 300.65625 42.55625 
Q 300.65625 44.55625 302.65625 44.55625 
z
" style="fill:#ffffff;opacity:0.8;stroke:#cccccc;stroke-linejoin:miter;"/>
    </g>
    <g id="line2d_33">
     <path d="M 304.65625 20.298437 
L 324.65625 20.298437 
" style="fill:none;stroke:#1f77b4;stroke-linecap:square;"/>
    </g>
    <g id="line2d_34"/>
    <g id="text_18">
     <!-- simulation -->
     <g transform="translate(332.65625 23.798437)scale(0.1 -0.1)">
      <defs>
       <path d="M 544 1381 
L 544 3500 
L 1119 3500 
L 1119 1403 
Q 1119 906 1312 657 
Q 1506 409 1894 409 
Q 2359 409 2629 706 
Q 2900 1003 2900 1516 
L 2900 3500 
L 3475 3500 
L 3475 0 
L 2900 0 
L 2900 538 
Q 2691 219 2414 64 
Q 2138 -91 1772 -91 
Q 1169 -91 856 284 
Q 544 659 544 1381 
z
M 1991 3584 
L 1991 3584 
z
" id="DejaVuSans-75" transform="scale(0.015625)"/>
       <path d="M 603 4863 
L 1178 4863 
L 1178 0 
L 603 0 
L 603 4863 
z
" id="DejaVuSans-6c" transform="scale(0.015625)"/>
       <path d="M 2194 1759 
Q 1497 1759 1228 1600 
Q 959 1441 959 1056 
Q 959 750 1161 570 
Q 1363 391 1709 391 
Q 2188 391 2477 730 
Q 2766 1069 2766 1631 
L 2766 1759 
L 2194 1759 
z
M 3341 1997 
L 3341 0 
L 2766 0 
L 2766 531 
Q 2569 213 2275 61 
Q 1981 -91 1556 -91 
Q 1019 -91 701 211 
Q 384 513 384 1019 
Q 384 1609 779 1909 
Q 1175 2209 1959 2209 
L 2766 2209 
L 2766 2266 
Q 2766 2663 2505 2880 
Q 2244 3097 1772 3097 
Q 1472 3097 1187 3025 
Q 903 2953 641 2809 
L 641 3341 
Q 956 3463 1253 3523 
Q 1550 3584 1831 3584 
Q 2591 3584 2966 3190 
Q 3341 2797 3341 1997 
z
" id="DejaVuSans-61" transform="scale(0.015625)"/>
       <path d="M 1172 4494 
L 1172 3500 
L 2356 3500 
L 2356 3053 
L 1172 3053 
L 1172 1153 
Q 1172 725 1289 603 
Q 1406 481 1766 481 
L 2356 481 
L 2356 0 
L 1766 0 
Q 1100 0 847 248 
Q 594 497 594 1153 
L 594 3053 
L 172 3053 
L 172 3500 
L 594 3500 
L 594 4494 
L 1172 4494 
z
" id="DejaVuSans-74" transform="scale(0.015625)"/>
       <path d="M 1959 3097 
Q 1497 3097 1228 2736 
Q 959 2375 959 1747 
Q 959 1119 1226 758 
Q 1494 397 1959 397 
Q 2419 397 2687 759 
Q 2956 1122 2956 1747 
Q 2956 2369 2687 2733 
Q 2419 3097 1959 3097 
z
M 1959 3584 
Q 2709 3584 3137 3096 
Q 3566 2609 3566 1747 
Q 3566 888 3137 398 
Q 2709 -91 1959 -91 
Q 1206 -91 779 398 
Q 353 888 353 1747 
Q 353 2609 779 3096 
Q 1206 3584 1959 3584 
z
" id="DejaVuSans-6f" transform="scale(0.015625)"/>
       <path d="M 3513 2113 
L 3513 0 
L 2938 0 
L 2938 2094 
Q 2938 2591 2744 2837 
Q 2550 3084 2163 3084 
Q 1697 3084 1428 2787 
Q 1159 2491 1159 1978 
L 1159 0 
L 581 0 
L 581 3500 
L 1159 3500 
L 1159 2956 
Q 1366 3272 1645 3428 
Q 1925 3584 2291 3584 
Q 2894 3584 3203 3211 
Q 3513 2838 3513 2113 
z
" id="DejaVuSans-6e" transform="scale(0.015625)"/>
      </defs>
      <use xlink:href="#DejaVuSans-73"/>
      <use x="52.099609" xlink:href="#DejaVuSans-69"/>
      <use x="79.882812" xlink:href="#DejaVuSans-6d"/>
      <use x="177.294922" xlink:href="#DejaVuSans-75"/>
      <use x="240.673828" xlink:href="#DejaVuSans-6c"/>
      <use x="268.457031" xlink:href="#DejaVuSans-61"/>
      <use x="329.736328" xlink:href="#DejaVuSans-74"/>
      <use x="368.945312" xlink:href="#DejaVuSans-69"/>
      <use x="396.728516" xlink:href="#DejaVuSans-6f"/>
      <use x="457.910156" xlink:href="#DejaVuSans-6e"/>
     </g>
    </g>
    <g id="line2d_35">
     <path d="M 304.65625 34.976562 
L 324.65625 34.976562 
" style="fill:none;stroke:#ff7f0e;stroke-linecap:square;"/>
    </g>
    <g id="line2d_36"/>
    <g id="text_19">
     <!-- prescribed -->
     <g transform="translate(332.65625 38.476562)scale(0.1 -0.1)">
      <defs>
       <path d="M 1159 525 
L 1159 -1331 
L 581 -1331 
L 581 3500 
L 1159 3500 
L 1159 2969 
Q 1341 3281 1617 3432 
Q 1894 3584 2278 3584 
Q 2916 3584 3314 3078 
Q 3713 2572 3713 1747 
Q 3713 922 3314 415 
Q 2916 -91 2278 -91 
Q 1894 -91 1617 61 
Q 1341 213 1159 525 
z
M 3116 1747 
Q 3116 2381 2855 2742 
Q 2594 3103 2138 3103 
Q 1681 3103 1420 2742 
Q 1159 2381 1159 1747 
Q 1159 1113 1420 752 
Q 1681 391 2138 391 
Q 2594 391 2855 752 
Q 3116 1113 3116 1747 
z
" id="DejaVuSans-70" transform="scale(0.015625)"/>
       <path d="M 2631 2963 
Q 2534 3019 2420 3045 
Q 2306 3072 2169 3072 
Q 1681 3072 1420 2755 
Q 1159 2438 1159 1844 
L 1159 0 
L 581 0 
L 581 3500 
L 1159 3500 
L 1159 2956 
Q 1341 3275 1631 3429 
Q 1922 3584 2338 3584 
Q 2397 3584 2469 3576 
Q 2541 3569 2628 3553 
L 2631 2963 
z
" id="DejaVuSans-72" transform="scale(0.015625)"/>
       <path d="M 3122 3366 
L 3122 2828 
Q 2878 2963 2633 3030 
Q 2388 3097 2138 3097 
Q 1578 3097 1268 2742 
Q 959 2388 959 1747 
Q 959 1106 1268 751 
Q 1578 397 2138 397 
Q 2388 397 2633 464 
Q 2878 531 3122 666 
L 3122 134 
Q 2881 22 2623 -34 
Q 2366 -91 2075 -91 
Q 1284 -91 818 406 
Q 353 903 353 1747 
Q 353 2603 823 3093 
Q 1294 3584 2113 3584 
Q 2378 3584 2631 3529 
Q 2884 3475 3122 3366 
z
" id="DejaVuSans-63" transform="scale(0.015625)"/>
       <path d="M 3116 1747 
Q 3116 2381 2855 2742 
Q 2594 3103 2138 3103 
Q 1681 3103 1420 2742 
Q 1159 2381 1159 1747 
Q 1159 1113 1420 752 
Q 1681 391 2138 391 
Q 2594 391 2855 752 
Q 3116 1113 3116 1747 
z
M 1159 2969 
Q 1341 3281 1617 3432 
Q 1894 3584 2278 3584 
Q 2916 3584 3314 3078 
Q 3713 2572 3713 1747 
Q 3713 922 3314 415 
Q 2916 -91 2278 -91 
Q 1894 -91 1617 61 
Q 1341 213 1159 525 
L 1159 0 
L 581 0 
L 581 4863 
L 1159 4863 
L 1159 2969 
z
" id="DejaVuSans-62" transform="scale(0.015625)"/>
       <path d="M 2906 2969 
L 2906 4863 
L 3481 4863 
L 3481 0 
L 2906 0 
L 2906 525 
Q 2725 213 2448 61 
Q 2172 -91 1784 -91 
Q 1150 -91 751 415 
Q 353 922 353 1747 
Q 353 2572 751 3078 
Q 1150 3584 1784 3584 
Q 2172 3584 2448 3432 
Q 2725 3281 2906 2969 
z
M 947 1747 
Q 947 1113 1208 752 
Q 1469 391 1925 391 
Q 2381 391 2643 752 
Q 2906 1113 2906 1747 
Q 2906 2381 2643 2742 
Q 2381 3103 1925 3103 
Q 1469 3103 1208 2742 
Q 947 2381 947 1747 
z
" id="DejaVuSans-64" transform="scale(0.015625)"/>
      </defs>
      <use xlink:href="#DejaVuSans-70"/>
      <use x="63.476562" xlink:href="#DejaVuSans-72"/>
      <use x="102.339844" xlink:href="#DejaVuSans-65"/>
      <use x="163.863281" xlink:href="#DejaVuSans-73"/>
      <use x="215.962891" xlink:href="#DejaVuSans-63"/>
      <use x="270.943359" xlink:href="#DejaVuSans-72"/>
      <use x="312.056641" xlink:href="#DejaVuSans-69"/>
      <use x="339.839844" xlink:href="#DejaVuSans-62"/>
      <use x="403.316406" xlink:href="#DejaVuSans-65"/>
      <use x="464.839844" xlink:href="#DejaVuSans-64"/>
     </g>
    </g>
   </g>
  </g>
 </g>
 <defs>
  <clipPath id="p0ce4eb7843">
   <rect height="217.44" width="334.8" x="59.690625" y="7.2"/>
  </clipPath>
 </defs>
</svg>
