<?xml version="1.0" encoding="utf-8" standalone="no"?>
<!DOCTYPE svg PUBLIC "-//W3C//DTD SVG 1.1//EN"
  "http://www.w3.org/Graphics/SVG/1.1/DTD/svg11.dtd">
<svg xmlns:xlink="http://www.w3.org/1999/xlink" width="424.62875pt" height="316.271687pt" viewBox="0 0 424.62875 316.271687" xmlns="http://www.w3.org/2000/svg" version="1.1">
 <metadata>
  <rdf:RDF xmlns:dc="http://purl.org/dc/elements/1.1/" xmlns:cc="http://creativecommons.org/ns#" xmlns:rdf="http://www.w3.org/1999/02/22-rdf-syntax-ns#">
   <cc:Work>
    <dc:type rdf:resource="http://purl.org/dc/dcmitype/StillImage"/>
    <dc:date>2023-05-26T11:48:45.548608</dc:date>
    <dc:format>image/svg+xml</dc:format>
    <dc:creator>
     <cc:Agent>
      <dc:title>Matplotlib v3.7.1, https://matplotlib.org/</dc:title>
     </cc:Agent>
    </dc:creator>
   </cc:Work>
  </rdf:RDF>
 </metadata>
 <defs>
  <style type="text/css">*{stroke-linejoin: round; stroke-linecap: butt}</style>
 </defs>
 <g id="figure_1">
  <g id="patch_1">
   <path d="M 0 316.271687 
L 424.62875 316.271687 
L 424.62875 0 
L 0 0 
z
" style="fill: #ffffff"/>
  </g>
  <g id="axes_1">
   <g id="patch_2">
    <path d="M 60.30875 273.312 
L 417.42875 273.312 
L 417.42875 7.2 
L 60.30875 7.2 
z
" style="fill: #ffffff"/>
   </g>
   <g id="matplotlib.axis_1">
    <g id="xtick_1">
     <g id="line2d_1">
      <path d="M 76.541477 273.312 
L 76.541477 7.2 
" clip-path="url(#pca5e31d8f1)" style="fill: none; stroke-dasharray: 3.7,1.6; stroke-dashoffset: 0; stroke: #cccccc; stroke-opacity: 0.5"/>
     </g>
     <g id="line2d_2">
      <defs>
       <path id="m800317ec4b" d="M 0 0 
L 0 6 
" style="stroke: #262626; stroke-width: 1.25"/>
      </defs>
      <g>
       <use xlink:href="#m800317ec4b" x="76.541477" y="273.312" style="fill: #262626; stroke: #262626; stroke-width: 1.25"/>
      </g>
     </g>
     <g id="text_1">
      <!-- 0 -->
      <g style="fill: #262626" transform="translate(73.042102 291.170281) scale(0.11 -0.11)">
       <defs>
        <path id="DejaVuSans-30" d="M 2034 4250 
Q 1547 4250 1301 3770 
Q 1056 3291 1056 2328 
Q 1056 1369 1301 889 
Q 1547 409 2034 409 
Q 2525 409 2770 889 
Q 3016 1369 3016 2328 
Q 3016 3291 2770 3770 
Q 2525 4250 2034 4250 
z
M 2034 4750 
Q 2819 4750 3233 4129 
Q 3647 3509 3647 2328 
Q 3647 1150 3233 529 
Q 2819 -91 2034 -91 
Q 1250 -91 836 529 
Q 422 1150 422 2328 
Q 422 3509 836 4129 
Q 1250 4750 2034 4750 
z
" transform="scale(0.015625)"/>
       </defs>
       <use xlink:href="#DejaVuSans-30"/>
      </g>
     </g>
    </g>
    <g id="xtick_2">
     <g id="line2d_3">
      <path d="M 130.650568 273.312 
L 130.650568 7.2 
" clip-path="url(#pca5e31d8f1)" style="fill: none; stroke-dasharray: 3.7,1.6; stroke-dashoffset: 0; stroke: #cccccc; stroke-opacity: 0.5"/>
     </g>
     <g id="line2d_4">
      <g>
       <use xlink:href="#m800317ec4b" x="130.650568" y="273.312" style="fill: #262626; stroke: #262626; stroke-width: 1.25"/>
      </g>
     </g>
     <g id="text_2">
      <!-- 5 -->
      <g style="fill: #262626" transform="translate(127.151193 291.170281) scale(0.11 -0.11)">
       <defs>
        <path id="DejaVuSans-35" d="M 691 4666 
L 3169 4666 
L 3169 4134 
L 1269 4134 
L 1269 2991 
Q 1406 3038 1543 3061 
Q 1681 3084 1819 3084 
Q 2600 3084 3056 2656 
Q 3513 2228 3513 1497 
Q 3513 744 3044 326 
Q 2575 -91 1722 -91 
Q 1428 -91 1123 -41 
Q 819 9 494 109 
L 494 744 
Q 775 591 1075 516 
Q 1375 441 1709 441 
Q 2250 441 2565 725 
Q 2881 1009 2881 1497 
Q 2881 1984 2565 2268 
Q 2250 2553 1709 2553 
Q 1456 2553 1204 2497 
Q 953 2441 691 2322 
L 691 4666 
z
" transform="scale(0.015625)"/>
       </defs>
       <use xlink:href="#DejaVuSans-35"/>
      </g>
     </g>
    </g>
    <g id="xtick_3">
     <g id="line2d_5">
      <path d="M 184.759659 273.312 
L 184.759659 7.2 
" clip-path="url(#pca5e31d8f1)" style="fill: none; stroke-dasharray: 3.7,1.6; stroke-dashoffset: 0; stroke: #cccccc; stroke-opacity: 0.5"/>
     </g>
     <g id="line2d_6">
      <g>
       <use xlink:href="#m800317ec4b" x="184.759659" y="273.312" style="fill: #262626; stroke: #262626; stroke-width: 1.25"/>
      </g>
     </g>
     <g id="text_3">
      <!-- 10 -->
      <g style="fill: #262626" transform="translate(177.760909 291.170281) scale(0.11 -0.11)">
       <defs>
        <path id="DejaVuSans-31" d="M 794 531 
L 1825 531 
L 1825 4091 
L 703 3866 
L 703 4441 
L 1819 4666 
L 2450 4666 
L 2450 531 
L 3481 531 
L 3481 0 
L 794 0 
L 794 531 
z
" transform="scale(0.015625)"/>
       </defs>
       <use xlink:href="#DejaVuSans-31"/>
       <use xlink:href="#DejaVuSans-30" x="63.623047"/>
      </g>
     </g>
    </g>
    <g id="xtick_4">
     <g id="line2d_7">
      <path d="M 238.86875 273.312 
L 238.86875 7.2 
" clip-path="url(#pca5e31d8f1)" style="fill: none; stroke-dasharray: 3.7,1.6; stroke-dashoffset: 0; stroke: #cccccc; stroke-opacity: 0.5"/>
     </g>
     <g id="line2d_8">
      <g>
       <use xlink:href="#m800317ec4b" x="238.86875" y="273.312" style="fill: #262626; stroke: #262626; stroke-width: 1.25"/>
      </g>
     </g>
     <g id="text_4">
      <!-- 15 -->
      <g style="fill: #262626" transform="translate(231.87 291.170281) scale(0.11 -0.11)">
       <use xlink:href="#DejaVuSans-31"/>
       <use xlink:href="#DejaVuSans-35" x="63.623047"/>
      </g>
     </g>
    </g>
    <g id="xtick_5">
     <g id="line2d_9">
      <path d="M 292.977841 273.312 
L 292.977841 7.2 
" clip-path="url(#pca5e31d8f1)" style="fill: none; stroke-dasharray: 3.7,1.6; stroke-dashoffset: 0; stroke: #cccccc; stroke-opacity: 0.5"/>
     </g>
     <g id="line2d_10">
      <g>
       <use xlink:href="#m800317ec4b" x="292.977841" y="273.312" style="fill: #262626; stroke: #262626; stroke-width: 1.25"/>
      </g>
     </g>
     <g id="text_5">
      <!-- 20 -->
      <g style="fill: #262626" transform="translate(285.979091 291.170281) scale(0.11 -0.11)">
       <defs>
        <path id="DejaVuSans-32" d="M 1228 531 
L 3431 531 
L 3431 0 
L 469 0 
L 469 531 
Q 828 903 1448 1529 
Q 2069 2156 2228 2338 
Q 2531 2678 2651 2914 
Q 2772 3150 2772 3378 
Q 2772 3750 2511 3984 
Q 2250 4219 1831 4219 
Q 1534 4219 1204 4116 
Q 875 4013 500 3803 
L 500 4441 
Q 881 4594 1212 4672 
Q 1544 4750 1819 4750 
Q 2544 4750 2975 4387 
Q 3406 4025 3406 3419 
Q 3406 3131 3298 2873 
Q 3191 2616 2906 2266 
Q 2828 2175 2409 1742 
Q 1991 1309 1228 531 
z
" transform="scale(0.015625)"/>
       </defs>
       <use xlink:href="#DejaVuSans-32"/>
       <use xlink:href="#DejaVuSans-30" x="63.623047"/>
      </g>
     </g>
    </g>
    <g id="xtick_6">
     <g id="line2d_11">
      <path d="M 347.086932 273.312 
L 347.086932 7.2 
" clip-path="url(#pca5e31d8f1)" style="fill: none; stroke-dasharray: 3.7,1.6; stroke-dashoffset: 0; stroke: #cccccc; stroke-opacity: 0.5"/>
     </g>
     <g id="line2d_12">
      <g>
       <use xlink:href="#m800317ec4b" x="347.086932" y="273.312" style="fill: #262626; stroke: #262626; stroke-width: 1.25"/>
      </g>
     </g>
     <g id="text_6">
      <!-- 25 -->
      <g style="fill: #262626" transform="translate(340.088182 291.170281) scale(0.11 -0.11)">
       <use xlink:href="#DejaVuSans-32"/>
       <use xlink:href="#DejaVuSans-35" x="63.623047"/>
      </g>
     </g>
    </g>
    <g id="xtick_7">
     <g id="line2d_13">
      <path d="M 401.196023 273.312 
L 401.196023 7.2 
" clip-path="url(#pca5e31d8f1)" style="fill: none; stroke-dasharray: 3.7,1.6; stroke-dashoffset: 0; stroke: #cccccc; stroke-opacity: 0.5"/>
     </g>
     <g id="line2d_14">
      <g>
       <use xlink:href="#m800317ec4b" x="401.196023" y="273.312" style="fill: #262626; stroke: #262626; stroke-width: 1.25"/>
      </g>
     </g>
     <g id="text_7">
      <!-- 30 -->
      <g style="fill: #262626" transform="translate(394.197273 291.170281) scale(0.11 -0.11)">
       <defs>
        <path id="DejaVuSans-33" d="M 2597 2516 
Q 3050 2419 3304 2112 
Q 3559 1806 3559 1356 
Q 3559 666 3084 287 
Q 2609 -91 1734 -91 
Q 1441 -91 1130 -33 
Q 819 25 488 141 
L 488 750 
Q 750 597 1062 519 
Q 1375 441 1716 441 
Q 2309 441 2620 675 
Q 2931 909 2931 1356 
Q 2931 1769 2642 2001 
Q 2353 2234 1838 2234 
L 1294 2234 
L 1294 2753 
L 1863 2753 
Q 2328 2753 2575 2939 
Q 2822 3125 2822 3475 
Q 2822 3834 2567 4026 
Q 2313 4219 1838 4219 
Q 1578 4219 1281 4162 
Q 984 4106 628 3988 
L 628 4550 
Q 988 4650 1302 4700 
Q 1616 4750 1894 4750 
Q 2613 4750 3031 4423 
Q 3450 4097 3450 3541 
Q 3450 3153 3228 2886 
Q 3006 2619 2597 2516 
z
" transform="scale(0.015625)"/>
       </defs>
       <use xlink:href="#DejaVuSans-33"/>
       <use xlink:href="#DejaVuSans-30" x="63.623047"/>
      </g>
     </g>
    </g>
    <g id="text_8">
     <!-- Time / s -->
     <g style="fill: #262626" transform="translate(215.227812 306.576062) scale(0.12 -0.12)">
      <defs>
       <path id="DejaVuSans-54" d="M -19 4666 
L 3928 4666 
L 3928 4134 
L 2272 4134 
L 2272 0 
L 1638 0 
L 1638 4134 
L -19 4134 
L -19 4666 
z
" transform="scale(0.015625)"/>
       <path id="DejaVuSans-69" d="M 603 3500 
L 1178 3500 
L 1178 0 
L 603 0 
L 603 3500 
z
M 603 4863 
L 1178 4863 
L 1178 4134 
L 603 4134 
L 603 4863 
z
" transform="scale(0.015625)"/>
       <path id="DejaVuSans-6d" d="M 3328 2828 
Q 3544 3216 3844 3400 
Q 4144 3584 4550 3584 
Q 5097 3584 5394 3201 
Q 5691 2819 5691 2113 
L 5691 0 
L 5113 0 
L 5113 2094 
Q 5113 2597 4934 2840 
Q 4756 3084 4391 3084 
Q 3944 3084 3684 2787 
Q 3425 2491 3425 1978 
L 3425 0 
L 2847 0 
L 2847 2094 
Q 2847 2600 2669 2842 
Q 2491 3084 2119 3084 
Q 1678 3084 1418 2786 
Q 1159 2488 1159 1978 
L 1159 0 
L 581 0 
L 581 3500 
L 1159 3500 
L 1159 2956 
Q 1356 3278 1631 3431 
Q 1906 3584 2284 3584 
Q 2666 3584 2933 3390 
Q 3200 3197 3328 2828 
z
" transform="scale(0.015625)"/>
       <path id="DejaVuSans-65" d="M 3597 1894 
L 3597 1613 
L 953 1613 
Q 991 1019 1311 708 
Q 1631 397 2203 397 
Q 2534 397 2845 478 
Q 3156 559 3463 722 
L 3463 178 
Q 3153 47 2828 -22 
Q 2503 -91 2169 -91 
Q 1331 -91 842 396 
Q 353 884 353 1716 
Q 353 2575 817 3079 
Q 1281 3584 2069 3584 
Q 2775 3584 3186 3129 
Q 3597 2675 3597 1894 
z
M 3022 2063 
Q 3016 2534 2758 2815 
Q 2500 3097 2075 3097 
Q 1594 3097 1305 2825 
Q 1016 2553 972 2059 
L 3022 2063 
z
" transform="scale(0.015625)"/>
       <path id="DejaVuSans-20" transform="scale(0.015625)"/>
       <path id="DejaVuSans-2f" d="M 1625 4666 
L 2156 4666 
L 531 -594 
L 0 -594 
L 1625 4666 
z
" transform="scale(0.015625)"/>
       <path id="DejaVuSans-73" d="M 2834 3397 
L 2834 2853 
Q 2591 2978 2328 3040 
Q 2066 3103 1784 3103 
Q 1356 3103 1142 2972 
Q 928 2841 928 2578 
Q 928 2378 1081 2264 
Q 1234 2150 1697 2047 
L 1894 2003 
Q 2506 1872 2764 1633 
Q 3022 1394 3022 966 
Q 3022 478 2636 193 
Q 2250 -91 1575 -91 
Q 1294 -91 989 -36 
Q 684 19 347 128 
L 347 722 
Q 666 556 975 473 
Q 1284 391 1588 391 
Q 1994 391 2212 530 
Q 2431 669 2431 922 
Q 2431 1156 2273 1281 
Q 2116 1406 1581 1522 
L 1381 1569 
Q 847 1681 609 1914 
Q 372 2147 372 2553 
Q 372 3047 722 3315 
Q 1072 3584 1716 3584 
Q 2034 3584 2315 3537 
Q 2597 3491 2834 3397 
z
" transform="scale(0.015625)"/>
      </defs>
      <use xlink:href="#DejaVuSans-54"/>
      <use xlink:href="#DejaVuSans-69" x="57.958984"/>
      <use xlink:href="#DejaVuSans-6d" x="85.742188"/>
      <use xlink:href="#DejaVuSans-65" x="183.154297"/>
      <use xlink:href="#DejaVuSans-20" x="244.677734"/>
      <use xlink:href="#DejaVuSans-2f" x="276.464844"/>
      <use xlink:href="#DejaVuSans-20" x="310.15625"/>
      <use xlink:href="#DejaVuSans-73" x="341.943359"/>
     </g>
    </g>
   </g>
   <g id="matplotlib.axis_2">
    <g id="ytick_1">
     <g id="line2d_15">
      <path d="M 60.30875 261.216 
L 417.42875 261.216 
" clip-path="url(#pca5e31d8f1)" style="fill: none; stroke-dasharray: 3.7,1.6; stroke-dashoffset: 0; stroke: #cccccc; stroke-opacity: 0.5"/>
     </g>
     <g id="line2d_16">
      <defs>
       <path id="m65cc3fd30d" d="M 0 0 
L -6 0 
" style="stroke: #262626; stroke-width: 1.25"/>
      </defs>
      <g>
       <use xlink:href="#m65cc3fd30d" x="60.30875" y="261.216" style="fill: #262626; stroke: #262626; stroke-width: 1.25"/>
      </g>
     </g>
     <g id="text_9">
      <!-- 0 -->
      <g style="fill: #262626" transform="translate(43.81 265.395141) scale(0.11 -0.11)">
       <use xlink:href="#DejaVuSans-30"/>
      </g>
     </g>
    </g>
    <g id="ytick_2">
     <g id="line2d_17">
      <path d="M 60.30875 217.268384 
L 417.42875 217.268384 
" clip-path="url(#pca5e31d8f1)" style="fill: none; stroke-dasharray: 3.7,1.6; stroke-dashoffset: 0; stroke: #cccccc; stroke-opacity: 0.5"/>
     </g>
     <g id="line2d_18">
      <g>
       <use xlink:href="#m65cc3fd30d" x="60.30875" y="217.268384" style="fill: #262626; stroke: #262626; stroke-width: 1.25"/>
      </g>
     </g>
     <g id="text_10">
      <!-- 200 -->
      <g style="fill: #262626" transform="translate(29.8125 221.447525) scale(0.11 -0.11)">
       <use xlink:href="#DejaVuSans-32"/>
       <use xlink:href="#DejaVuSans-30" x="63.623047"/>
       <use xlink:href="#DejaVuSans-30" x="127.246094"/>
      </g>
     </g>
    </g>
    <g id="ytick_3">
     <g id="line2d_19">
      <path d="M 60.30875 173.320769 
L 417.42875 173.320769 
" clip-path="url(#pca5e31d8f1)" style="fill: none; stroke-dasharray: 3.7,1.6; stroke-dashoffset: 0; stroke: #cccccc; stroke-opacity: 0.5"/>
     </g>
     <g id="line2d_20">
      <g>
       <use xlink:href="#m65cc3fd30d" x="60.30875" y="173.320769" style="fill: #262626; stroke: #262626; stroke-width: 1.25"/>
      </g>
     </g>
     <g id="text_11">
      <!-- 400 -->
      <g style="fill: #262626" transform="translate(29.8125 177.499909) scale(0.11 -0.11)">
       <defs>
        <path id="DejaVuSans-34" d="M 2419 4116 
L 825 1625 
L 2419 1625 
L 2419 4116 
z
M 2253 4666 
L 3047 4666 
L 3047 1625 
L 3713 1625 
L 3713 1100 
L 3047 1100 
L 3047 0 
L 2419 0 
L 2419 1100 
L 313 1100 
L 313 1709 
L 2253 4666 
z
" transform="scale(0.015625)"/>
       </defs>
       <use xlink:href="#DejaVuSans-34"/>
       <use xlink:href="#DejaVuSans-30" x="63.623047"/>
       <use xlink:href="#DejaVuSans-30" x="127.246094"/>
      </g>
     </g>
    </g>
    <g id="ytick_4">
     <g id="line2d_21">
      <path d="M 60.30875 129.373153 
L 417.42875 129.373153 
" clip-path="url(#pca5e31d8f1)" style="fill: none; stroke-dasharray: 3.7,1.6; stroke-dashoffset: 0; stroke: #cccccc; stroke-opacity: 0.5"/>
     </g>
     <g id="line2d_22">
      <g>
       <use xlink:href="#m65cc3fd30d" x="60.30875" y="129.373153" style="fill: #262626; stroke: #262626; stroke-width: 1.25"/>
      </g>
     </g>
     <g id="text_12">
      <!-- 600 -->
      <g style="fill: #262626" transform="translate(29.8125 133.552294) scale(0.11 -0.11)">
       <defs>
        <path id="DejaVuSans-36" d="M 2113 2584 
Q 1688 2584 1439 2293 
Q 1191 2003 1191 1497 
Q 1191 994 1439 701 
Q 1688 409 2113 409 
Q 2538 409 2786 701 
Q 3034 994 3034 1497 
Q 3034 2003 2786 2293 
Q 2538 2584 2113 2584 
z
M 3366 4563 
L 3366 3988 
Q 3128 4100 2886 4159 
Q 2644 4219 2406 4219 
Q 1781 4219 1451 3797 
Q 1122 3375 1075 2522 
Q 1259 2794 1537 2939 
Q 1816 3084 2150 3084 
Q 2853 3084 3261 2657 
Q 3669 2231 3669 1497 
Q 3669 778 3244 343 
Q 2819 -91 2113 -91 
Q 1303 -91 875 529 
Q 447 1150 447 2328 
Q 447 3434 972 4092 
Q 1497 4750 2381 4750 
Q 2619 4750 2861 4703 
Q 3103 4656 3366 4563 
z
" transform="scale(0.015625)"/>
       </defs>
       <use xlink:href="#DejaVuSans-36"/>
       <use xlink:href="#DejaVuSans-30" x="63.623047"/>
       <use xlink:href="#DejaVuSans-30" x="127.246094"/>
      </g>
     </g>
    </g>
    <g id="ytick_5">
     <g id="line2d_23">
      <path d="M 60.30875 85.425537 
L 417.42875 85.425537 
" clip-path="url(#pca5e31d8f1)" style="fill: none; stroke-dasharray: 3.7,1.6; stroke-dashoffset: 0; stroke: #cccccc; stroke-opacity: 0.5"/>
     </g>
     <g id="line2d_24">
      <g>
       <use xlink:href="#m65cc3fd30d" x="60.30875" y="85.425537" style="fill: #262626; stroke: #262626; stroke-width: 1.25"/>
      </g>
     </g>
     <g id="text_13">
      <!-- 800 -->
      <g style="fill: #262626" transform="translate(29.8125 89.604678) scale(0.11 -0.11)">
       <defs>
        <path id="DejaVuSans-38" d="M 2034 2216 
Q 1584 2216 1326 1975 
Q 1069 1734 1069 1313 
Q 1069 891 1326 650 
Q 1584 409 2034 409 
Q 2484 409 2743 651 
Q 3003 894 3003 1313 
Q 3003 1734 2745 1975 
Q 2488 2216 2034 2216 
z
M 1403 2484 
Q 997 2584 770 2862 
Q 544 3141 544 3541 
Q 544 4100 942 4425 
Q 1341 4750 2034 4750 
Q 2731 4750 3128 4425 
Q 3525 4100 3525 3541 
Q 3525 3141 3298 2862 
Q 3072 2584 2669 2484 
Q 3125 2378 3379 2068 
Q 3634 1759 3634 1313 
Q 3634 634 3220 271 
Q 2806 -91 2034 -91 
Q 1263 -91 848 271 
Q 434 634 434 1313 
Q 434 1759 690 2068 
Q 947 2378 1403 2484 
z
M 1172 3481 
Q 1172 3119 1398 2916 
Q 1625 2713 2034 2713 
Q 2441 2713 2670 2916 
Q 2900 3119 2900 3481 
Q 2900 3844 2670 4047 
Q 2441 4250 2034 4250 
Q 1625 4250 1398 4047 
Q 1172 3844 1172 3481 
z
" transform="scale(0.015625)"/>
       </defs>
       <use xlink:href="#DejaVuSans-38"/>
       <use xlink:href="#DejaVuSans-30" x="63.623047"/>
       <use xlink:href="#DejaVuSans-30" x="127.246094"/>
      </g>
     </g>
    </g>
    <g id="ytick_6">
     <g id="line2d_25">
      <path d="M 60.30875 41.477922 
L 417.42875 41.477922 
" clip-path="url(#pca5e31d8f1)" style="fill: none; stroke-dasharray: 3.7,1.6; stroke-dashoffset: 0; stroke: #cccccc; stroke-opacity: 0.5"/>
     </g>
     <g id="line2d_26">
      <g>
       <use xlink:href="#m65cc3fd30d" x="60.30875" y="41.477922" style="fill: #262626; stroke: #262626; stroke-width: 1.25"/>
      </g>
     </g>
     <g id="text_14">
      <!-- 1000 -->
      <g style="fill: #262626" transform="translate(22.81375 45.657062) scale(0.11 -0.11)">
       <use xlink:href="#DejaVuSans-31"/>
       <use xlink:href="#DejaVuSans-30" x="63.623047"/>
       <use xlink:href="#DejaVuSans-30" x="127.246094"/>
       <use xlink:href="#DejaVuSans-30" x="190.869141"/>
      </g>
     </g>
    </g>
    <g id="text_15">
     <!-- HRR / kW -->
     <g style="fill: #262626" transform="translate(16.318125 168.348187) rotate(-90) scale(0.12 -0.12)">
      <defs>
       <path id="DejaVuSans-48" d="M 628 4666 
L 1259 4666 
L 1259 2753 
L 3553 2753 
L 3553 4666 
L 4184 4666 
L 4184 0 
L 3553 0 
L 3553 2222 
L 1259 2222 
L 1259 0 
L 628 0 
L 628 4666 
z
" transform="scale(0.015625)"/>
       <path id="DejaVuSans-52" d="M 2841 2188 
Q 3044 2119 3236 1894 
Q 3428 1669 3622 1275 
L 4263 0 
L 3584 0 
L 2988 1197 
Q 2756 1666 2539 1819 
Q 2322 1972 1947 1972 
L 1259 1972 
L 1259 0 
L 628 0 
L 628 4666 
L 2053 4666 
Q 2853 4666 3247 4331 
Q 3641 3997 3641 3322 
Q 3641 2881 3436 2590 
Q 3231 2300 2841 2188 
z
M 1259 4147 
L 1259 2491 
L 2053 2491 
Q 2509 2491 2742 2702 
Q 2975 2913 2975 3322 
Q 2975 3731 2742 3939 
Q 2509 4147 2053 4147 
L 1259 4147 
z
" transform="scale(0.015625)"/>
       <path id="DejaVuSans-6b" d="M 581 4863 
L 1159 4863 
L 1159 1991 
L 2875 3500 
L 3609 3500 
L 1753 1863 
L 3688 0 
L 2938 0 
L 1159 1709 
L 1159 0 
L 581 0 
L 581 4863 
z
" transform="scale(0.015625)"/>
       <path id="DejaVuSans-57" d="M 213 4666 
L 850 4666 
L 1831 722 
L 2809 4666 
L 3519 4666 
L 4500 722 
L 5478 4666 
L 6119 4666 
L 4947 0 
L 4153 0 
L 3169 4050 
L 2175 0 
L 1381 0 
L 213 4666 
z
" transform="scale(0.015625)"/>
      </defs>
      <use xlink:href="#DejaVuSans-48"/>
      <use xlink:href="#DejaVuSans-52" x="75.195312"/>
      <use xlink:href="#DejaVuSans-52" x="144.677734"/>
      <use xlink:href="#DejaVuSans-20" x="214.160156"/>
      <use xlink:href="#DejaVuSans-2f" x="245.947266"/>
      <use xlink:href="#DejaVuSans-20" x="279.638672"/>
      <use xlink:href="#DejaVuSans-6b" x="311.425781"/>
      <use xlink:href="#DejaVuSans-57" x="369.335938"/>
     </g>
    </g>
   </g>
   <g id="line2d_27">
    <path d="M 76.541477 261.216 
L 77.634275 261.216 
L 78.727073 248.254928 
L 80.912669 214.218664 
L 84.191063 161.110948 
L 85.283861 145.286103 
L 86.376659 132.524461 
L 87.23388 154.195314 
L 88.091101 137.876815 
L 88.789459 116.423441 
L 89.317582 87.917152 
L 90.74123 53.391661 
L 91.499688 39.567431 
L 91.835556 42.341018 
L 92.130857 42.257649 
L 92.42616 47.72168 
L 92.673025 46.154414 
L 92.887562 43.312409 
L 93.102099 43.812252 
L 93.873053 55.261032 
L 94.429468 60.021073 
L 94.614938 60.820524 
L 94.80041 61.086539 
L 94.985883 61.107276 
L 95.171355 61.424861 
L 96.284186 57.261629 
L 96.655128 54.548384 
L 97.23009 45.413262 
L 97.61053 38.97627 
L 98.297845 54.45035 
L 98.771988 60.301053 
L 98.930039 60.923305 
L 99.088087 60.644235 
L 99.246134 60.066937 
L 100.036377 52.302644 
L 100.668572 44.825489 
L 100.984668 43.282428 
L 101.300764 42.456092 
L 102.565153 35.439937 
L 102.723201 35.534578 
L 103.513444 37.229374 
L 103.829539 36.926157 
L 104.262695 34.925728 
L 104.537803 34.507544 
L 104.812911 35.568945 
L 105.225571 37.645514 
L 105.775788 42.30898 
L 106.463556 43.979457 
L 106.738664 44.358506 
L 107.151323 44.667934 
L 107.426431 44.593063 
L 107.794811 42.936493 
L 108.040397 42.396205 
L 109.391123 41.078768 
L 110.005089 40.916996 
L 110.741848 41.025613 
L 112.952125 41.755684 
L 114.916815 41.727426 
L 115.530782 42.00312 
L 116.193864 43.450484 
L 116.599081 43.864871 
L 117.814735 46.112941 
L 118.490098 46.930689 
L 118.760242 46.998366 
L 119.16546 46.799635 
L 120.110964 44.951394 
L 120.786326 43.237749 
L 121.056476 42.228956 
L 122.407201 38.961262 
L 122.677345 38.072751 
L 123.352707 37.184877 
L 124.02807 37.262269 
L 125.243721 38.220481 
L 125.648939 38.872268 
L 125.919083 39.668994 
L 126.86459 41.201909 
L 127.269808 42.468169 
L 127.539952 43.942976 
L 127.94517 45.407794 
L 128.215314 47.059298 
L 128.890676 49.117033 
L 129.16082 49.022141 
L 129.836183 47.957477 
L 130.241402 46.965781 
L 130.78169 41.687119 
L 131.457052 37.975714 
L 131.862271 36.48789 
L 132.132415 35.071348 
L 132.429578 34.874946 
L 133.172473 31.069456 
L 133.469636 30.482338 
L 133.766794 31.406666 
L 134.361114 35.559167 
L 134.774713 38.104261 
L 135.304753 44.85697 
L 135.967308 50.506445 
L 136.364838 50.730914 
L 137.027393 47.318659 
L 137.981465 37.315291 
L 138.272988 36.188123 
L 138.899762 41.974286 
L 139.22044 43.403759 
L 139.541113 43.193885 
L 139.861786 41.426964 
L 140.182465 38.884463 
L 141.304828 32.946173 
L 141.625501 30.58812 
L 141.946174 30.537954 
L 142.266853 32.522628 
L 142.908204 38.618976 
L 143.228877 39.337541 
L 144.511579 46.535365 
L 144.832252 44.991529 
L 145.473604 36.963974 
L 145.794277 37.572495 
L 146.114956 41.379589 
L 146.435628 43.353929 
L 146.756301 42.935609 
L 147.07698 41.220345 
L 147.358451 37.583372 
L 148.062132 33.311905 
L 148.343604 33.778299 
L 148.625075 34.70377 
L 149.04728 35.304578 
L 149.328756 35.955069 
L 149.610227 36.945714 
L 150.032433 39.044037 
L 150.313904 41.256843 
L 150.890922 43.259365 
L 151.66497 43.9826 
L 151.97459 45.026435 
L 152.903449 50.103725 
L 153.213063 50.238244 
L 153.522683 49.404707 
L 153.832303 48.048917 
L 154.141923 45.495094 
L 154.621832 39.820503 
L 154.792125 35.170011 
L 155.132706 33.578799 
L 155.57257 30.896588 
L 155.865817 30.865913 
L 156.510955 35.073172 
L 157.156095 40.700444 
L 157.478667 40.068434 
L 158.123805 37.012734 
L 158.446378 38.238411 
L 158.768945 38.486056 
L 159.091516 39.60349 
L 159.414083 42.521708 
L 159.736656 44.034673 
L 160.039671 44.599532 
L 160.323133 44.160779 
L 161.031795 40.252508 
L 161.740456 44.565011 
L 162.023918 44.329098 
L 162.59085 35.452374 
L 163.016043 32.275181 
L 163.327851 34.491987 
L 163.639663 38.441867 
L 164.575093 54.992115 
L 164.886905 55.823386 
L 165.198718 53.139349 
L 165.822344 44.588424 
L 166.601861 37.564211 
L 167.225487 45.393749 
L 167.5373 47.637499 
L 167.849113 48.537258 
L 168.160915 48.285761 
L 168.784542 40.500659 
L 169.096354 35.490015 
L 169.782337 28.43884 
L 170.125328 22.861162 
L 170.468319 21.019516 
L 170.828452 24.613859 
L 171.017101 28.787389 
L 171.36583 31.464304 
L 171.686002 36.56137 
L 172.006165 38.6404 
L 172.326338 37.270992 
L 172.6465 34.667821 
L 172.966673 33.562099 
L 173.446926 36.871706 
L 174.087261 44.519767 
L 174.407423 47.454255 
L 174.727596 47.969332 
L 175.047758 47.473398 
L 175.736124 51.097556 
L 177.320949 37.651293 
L 177.849224 30.916958 
L 178.553597 27.05961 
L 178.905784 25.654429 
L 179.257971 27.495175 
L 180.138432 45.522656 
L 180.490609 50.710063 
L 180.842796 52.36212 
L 181.194982 49.412426 
L 181.547169 48.472789 
L 181.899345 47.138531 
L 182.075445 47.115361 
L 182.779807 49.483441 
L 183.484181 53.398185 
L 183.677886 56.252433 
L 184.065286 56.688598 
L 184.452686 53.813727 
L 184.840087 46.370049 
L 185.033787 40.36363 
L 185.421197 36.048963 
L 185.808607 35.895762 
L 186.002296 36.301134 
L 186.389695 36.57128 
L 186.777106 37.549466 
L 186.970805 37.071778 
L 187.358216 37.582032 
L 187.745615 37.476689 
L 188.276772 33.253565 
L 188.951685 34.341708 
L 189.289142 34.620621 
L 189.626609 34.447402 
L 190.265919 37.673574 
L 190.869636 46.015001 
L 191.171489 47.923191 
L 191.473353 48.205304 
L 191.926138 51.450495 
L 192.228001 54.561344 
L 192.529854 54.642096 
L 193.435424 49.012798 
L 193.88822 50.613664 
L 194.190073 49.064412 
L 194.491926 48.415686 
L 194.808875 44.448732 
L 195.140932 37.163189 
L 195.472967 33.130863 
L 195.805013 31.082663 
L 196.137048 33.292766 
L 196.469094 33.231855 
L 197.133185 25.0968 
L 197.797266 30.285848 
L 197.963295 33.716509 
L 198.29533 32.864607 
L 198.627375 32.925628 
L 199.291467 38.504448 
L 199.623502 39.245361 
L 199.955548 38.416157 
L 200.287605 35.164407 
L 200.61964 33.448934 
L 200.951686 35.41025 
L 201.615777 42.655971 
L 202.279858 46.198823 
L 203.325798 56.472365 
L 203.508416 58.278016 
L 203.873674 57.882762 
L 204.786786 49.761724 
L 205.152034 48.916614 
L 205.517281 50.346359 
L 205.882539 50.420319 
L 206.247775 48.892796 
L 206.430393 48.919185 
L 207.160898 53.394722 
L 207.708764 54.160975 
L 208.074022 53.031983 
L 208.439269 50.602033 
L 208.804516 47.198682 
L 209.352382 43.798189 
L 210.082876 39.908355 
L 210.448134 39.221871 
L 210.630752 37.702382 
L 210.995999 36.272107 
L 211.361247 33.684647 
L 211.726505 32.73606 
L 212.091741 32.657394 
L 212.25475 31.867589 
L 212.906743 32.470001 
L 213.232739 31.944146 
L 213.558736 30.861672 
L 213.884732 29.221481 
L 214.536725 32.053509 
L 215.514725 37.354361 
L 215.840733 38.21046 
L 216.492725 41.867796 
L 217.144729 42.788673 
L 217.470726 44.410012 
L 218.774711 55.172996 
L 219.100719 56.369831 
L 219.426715 55.666445 
L 219.752712 53.112644 
L 220.693863 38.451008 
L 221.12758 37.825655 
L 221.445634 39.852959 
L 221.763708 40.360905 
L 222.081772 40.146814 
L 222.71789 35.714917 
L 223.035954 35.500343 
L 223.672071 37.157805 
L 223.990146 36.146834 
L 224.308199 35.75636 
L 224.626263 35.594435 
L 224.944327 35.775675 
L 225.89852 40.98751 
L 226.216584 41.116892 
L 226.644738 40.263517 
L 226.930174 41.791802 
L 227.244148 45.540242 
L 227.558143 46.195307 
L 227.887819 45.676064 
L 228.233208 44.176587 
L 228.578586 43.99801 
L 229.787416 35.951971 
L 230.132794 36.598176 
L 230.478183 38.128872 
L 230.823561 40.388504 
L 231.514318 42.39624 
L 231.859707 42.263184 
L 232.377769 39.547391 
L 233.068526 35.886357 
L 233.413915 35.470942 
L 235.330773 51.495361 
L 235.710695 50.295117 
L 236.090616 47.662388 
L 236.280582 45.222404 
L 236.660493 43.58664 
L 237.040415 40.936817 
L 237.420336 39.645614 
L 237.610292 38.180005 
L 237.990213 38.352521 
L 238.370124 38.342128 
L 238.56009 38.136628 
L 238.940001 39.641065 
L 239.319922 40.655464 
L 239.699833 42.47526 
L 239.889799 44.208589 
L 240.26971 46.119491 
L 240.839598 51.511523 
L 241.219519 52.969355 
L 241.599441 54.955614 
L 241.937915 54.068446 
L 242.784138 50.16337 
L 244.476562 33.847671 
L 244.815047 31.199409 
L 245.153532 29.879091 
L 245.492017 30.338344 
L 246.168986 29.719166 
L 246.338229 28.697186 
L 246.676713 27.827243 
L 247.353694 31.572063 
L 249.046118 52.016351 
L 249.723077 56.229 
L 250.061573 57.807038 
L 250.400057 57.309417 
L 250.907785 55.489679 
L 251.263184 52.389387 
L 251.63553 46.408216 
L 252.566347 24.945488 
L 252.938694 20.491397 
L 253.311018 21.355407 
L 254.241868 34.778591 
L 254.800371 41.412967 
L 255.172685 42.124141 
L 255.545031 43.184236 
L 255.917356 45.148264 
L 256.103534 47.250654 
L 257.220519 54.829513 
L 257.406709 55.278928 
L 257.779022 55.422595 
L 258.12518 53.830529 
L 258.765106 48.006692 
L 259.085064 46.007743 
L 259.78898 45.415184 
L 260.140949 45.814637 
L 261.408 38.12863 
L 261.601592 34.092877 
L 261.988731 31.367048 
L 262.32134 27.295059 
L 262.653948 26.827325 
L 262.986535 28.37015 
L 263.701641 37.158596 
L 263.884562 39.108354 
L 264.61629 42.16909 
L 264.929636 41.989217 
L 265.242993 43.53075 
L 265.556317 44.35377 
L 265.869673 44.212683 
L 266.182997 44.784619 
L 266.496354 44.84764 
L 266.8097 43.772124 
L 267.123035 43.10461 
L 267.906394 39.486589 
L 268.21975 40.005896 
L 268.564414 42.99858 
L 269.426112 46.729972 
L 270.115462 48.791875 
L 270.460137 49.59714 
L 270.804823 50.702656 
L 271.149509 50.159241 
L 272.011185 44.670606 
L 272.355871 43.988385 
L 272.700556 44.251443 
L 273.045221 45.239589 
L 273.389906 45.684772 
L 273.734581 45.524932 
L 274.079267 43.581751 
L 274.423931 40.406699 
L 274.596279 41.241703 
L 274.940943 41.795703 
L 275.285629 41.571104 
L 275.630315 43.118825 
L 275.974979 43.299544 
L 276.66435 45.60882 
L 277.009004 41.835266 
L 277.181363 37.75813 
L 277.526049 33.084894 
L 277.870713 26.685132 
L 278.215387 27.760135 
L 278.560073 31.000832 
L 279.249423 43.944987 
L 279.800903 50.752295 
L 280.180067 50.142935 
L 281.197004 41.43538 
L 281.535965 37.917418 
L 281.908852 35.385464 
L 282.095302 35.249929 
L 282.468178 34.653868 
L 283.40038 30.576935 
L 283.773268 32.348728 
L 284.705448 44.474776 
L 285.078336 47.546485 
L 285.451212 47.983962 
L 286.010538 45.52867 
L 286.361803 42.010261 
L 287.350755 29.588685 
L 287.894692 28.741947 
L 288.619927 29.347105 
L 288.982555 31.366213 
L 290.251728 41.433623 
L 290.614345 43.636765 
L 290.976962 44.697801 
L 291.158271 44.881304 
L 291.5209 44.76481 
L 292.608763 39.124879 
L 292.790093 37.734574 
L 293.152711 36.632565 
L 293.515328 36.349784 
L 294.240574 39.493775 
L 294.421883 40.853382 
L 294.7845 40.663616 
L 295.691055 37.45076 
L 296.053672 37.826688 
L 296.4163 40.409709 
L 296.778918 44.93055 
L 297.377235 54.416043 
L 297.975562 56.467052 
L 298.374444 56.148614 
L 298.972771 56.768947 
L 299.371652 56.885365 
L 299.770545 54.982253 
L 299.969969 52.39919 
L 300.368861 49.541109 
L 300.927072 41.326676 
L 301.285881 36.945538 
L 301.644656 37.195402 
L 302.182825 41.354561 
L 302.658812 41.278268 
L 302.976151 42.215361 
L 303.309333 41.981893 
L 304.181994 28.766382 
L 304.531052 24.34646 
L 304.880109 27.035197 
L 305.229167 32.69064 
L 305.75277 37.504156 
L 306.101828 37.35535 
L 306.799954 42.233241 
L 307.110778 41.570614 
L 307.421635 41.303626 
L 308.043316 39.247031 
L 308.354151 39.950039 
L 309.038014 42.76738 
L 309.414127 44.151602 
L 309.79025 42.449716 
L 309.978311 40.90401 
L 310.354434 39.372172 
L 310.730547 39.039137 
L 311.420849 37.703854 
L 311.755665 38.314111 
L 311.923057 38.116588 
L 312.257884 36.560513 
L 312.5927 34.247748 
L 312.927516 33.816951 
L 313.597149 35.565319 
L 314.266781 39.781829 
L 314.953155 44.489045 
L 315.873908 46.952573 
L 316.242207 47.509528 
L 316.610506 47.542275 
L 317.16296 48.353656 
L 317.899558 50.697138 
L 318.267846 51.09493 
L 318.82031 52.178013 
L 319.188598 52.05606 
L 319.556897 51.062295 
L 320.845949 43.624842 
L 321.030093 41.213445 
L 321.398403 39.383093 
L 322.006102 37.579614 
L 322.411217 37.553553 
L 322.816342 38.635588 
L 323.424052 36.621469 
L 323.626604 35.424313 
L 324.031741 36.20212 
L 324.436866 37.28945 
L 324.615567 36.206142 
L 324.973012 37.303184 
L 325.687869 38.17038 
L 326.045313 38.081848 
L 326.224025 38.480211 
L 326.581459 39.676707 
L 326.938882 40.447438 
L 327.296315 39.522824 
L 327.653738 38.102723 
L 327.83245 38.43734 
L 328.225639 39.851223 
L 328.618806 38.518028 
L 328.815396 38.718231 
L 329.208563 39.450618 
L 329.798331 42.802255 
L 330.191509 44.257729 
L 330.539658 43.780693 
L 330.887806 44.246074 
L 331.235977 45.090906 
L 331.410046 46.2533 
L 331.758194 46.350609 
L 332.106365 47.755832 
L 332.454524 49.75876 
L 332.802673 50.235708 
L 333.150843 49.479293 
L 333.498992 47.781223 
L 333.673061 45.407247 
L 335.065688 35.743857 
L 335.413859 35.195346 
L 335.762007 36.313154 
L 336.284247 41.498959 
L 336.632395 42.071992 
L 336.980555 41.769308 
L 337.328725 37.920582 
L 338.025023 24.723926 
L 338.373182 21.464903 
L 338.547262 21.090799 
L 338.895411 22.85 
L 339.591741 31.86816 
L 340.288038 39.299988 
L 340.636208 41.197448 
L 340.810277 39.969684 
L 341.158426 39.451014 
L 341.506596 41.265457 
L 342.551075 49.811014 
L 342.899224 50.054596 
L 343.247383 49.155212 
L 343.421463 47.439422 
L 343.769612 45.460523 
L 344.46592 39.262698 
L 344.778281 35.418183 
L 345.09062 35.649677 
L 345.40296 37.486951 
L 345.715299 41.850648 
L 346.058892 43.385371 
L 346.436822 41.974508 
L 346.814763 42.77373 
L 347.003723 44.263618 
L 347.381664 45.725795 
L 347.759605 46.43409 
L 348.137536 48.127629 
L 348.326506 47.931034 
L 348.704437 48.070036 
L 349.082378 48.509433 
L 349.271348 49.529072 
L 349.649279 50.609513 
L 350.02722 49.281085 
L 350.594121 45.583225 
L 350.972062 44.631383 
L 351.349992 41.084964 
L 352.181476 19.296 
L 352.597207 20.030914 
L 353.553217 36.052259 
L 354.453722 52.705509 
L 354.79514 55.280936 
L 355.117781 55.101647 
L 355.440445 53.328759 
L 356.085717 45.973928 
L 356.731022 37.525295 
L 357.053653 35.481445 
L 357.376317 34.761474 
L 357.715094 34.937857 
L 358.069995 35.746933 
L 358.442644 37.648898 
L 359.714944 48.490564 
L 360.401621 56.102104 
L 361.122657 60.642191 
L 361.689168 58.641575 
L 362.066839 56.188964 
L 362.25568 53.767237 
L 363.289271 46.236018 
L 363.660979 45.562725 
L 364.032676 42.158855 
L 364.21853 38.993585 
L 364.961935 32.28986 
L 365.333621 31.802041 
L 365.519475 33.376003 
L 366.26288 35.885961 
L 366.820431 39.911805 
L 367.192117 39.079481 
L 367.563814 35.4727 
L 367.76826 32.285553 
L 368.586 24.545477 
L 368.790424 26.168199 
L 369.199304 28.465912 
L 369.403729 30.643934 
L 369.812609 32.727204 
L 371.468283 45.187114 
L 371.789896 46.936453 
L 372.111477 47.971059 
L 372.43308 47.950316 
L 372.770775 47.494917 
L 373.12454 45.872402 
L 373.301412 43.188141 
L 374.008921 38.393414 
L 374.716451 36.661681 
L 375.08791 37.30292 
L 375.282465 37.976681 
L 375.691053 37.822491 
L 375.905087 38.176093 
L 376.333134 37.922867 
L 376.547167 37.66028 
L 376.975214 38.568194 
L 377.831317 43.78805 
L 378.259352 44.389526 
L 378.640302 42.035949 
L 378.830777 41.911206 
L 379.592654 40.910514 
L 379.783129 39.964783 
L 380.164079 38.644795 
L 380.545007 38.325427 
L 380.925956 39.754186 
L 381.116431 41.346233 
L 381.497381 43.006681 
L 382.068795 46.802916 
L 382.759475 47.941963 
L 383.092971 47.573135 
L 383.759931 41.886112 
L 384.093427 41.23599 
L 384.426901 40.206649 
L 384.760376 41.269698 
L 385.127203 43.62331 
L 385.310622 44.027479 
L 385.677449 43.267932 
L 386.044287 39.929999 
L 386.411114 37.799704 
L 386.594533 36.053907 
L 386.96136 36.246244 
L 387.695025 42.737241 
L 388.245272 45.715568 
L 388.61211 45.579373 
L 388.978937 43.823041 
L 389.345764 42.78337 
L 389.529183 41.305493 
L 389.89601 39.828941 
L 390.262848 39.225365 
L 390.849769 41.570625 
L 391.253304 41.768873 
L 391.656817 42.978302 
L 392.262092 43.357267 
L 392.463833 43.069414 
L 392.867346 42.276052 
L 393.876134 37.391035 
L 394.077896 37.479524 
L 394.481409 38.797996 
L 395.691959 47.119352 
L 396.095473 48.286394 
L 396.700726 50.723021 
L 397.104261 50.600394 
L 397.306001 49.119878 
L 397.709514 47.366179 
L 398.113049 46.464058 
L 399.121826 53.246401 
L 399.323578 53.864959 
L 399.928853 53.485544 
L 400.263831 50.82489 
L 400.598821 49.27667 
L 400.933799 46.628936 
L 401.196023 42.369054 
L 401.196023 42.369054 
" clip-path="url(#pca5e31d8f1)" style="fill: none; stroke: #4c72b0; stroke-width: 1.5; stroke-linecap: round"/>
   </g>
   <g id="line2d_28">
    <path d="M 76.541477 41.477922 
L 401.196023 41.477922 
" clip-path="url(#pca5e31d8f1)" style="fill: none; stroke: #dd8452; stroke-width: 1.5; stroke-linecap: round"/>
   </g>
   <g id="patch_3">
    <path d="M 60.30875 273.312 
L 60.30875 7.2 
" style="fill: none; stroke: #262626; stroke-width: 1.25; stroke-linejoin: miter; stroke-linecap: square"/>
   </g>
   <g id="patch_4">
    <path d="M 417.42875 273.312 
L 417.42875 7.2 
" style="fill: none; stroke: #262626; stroke-width: 1.25; stroke-linejoin: miter; stroke-linecap: square"/>
   </g>
   <g id="patch_5">
    <path d="M 60.30875 273.312 
L 417.42875 273.312 
" style="fill: none; stroke: #262626; stroke-width: 1.25; stroke-linejoin: miter; stroke-linecap: square"/>
   </g>
   <g id="patch_6">
    <path d="M 60.30875 7.2 
L 417.42875 7.2 
" style="fill: none; stroke: #262626; stroke-width: 1.25; stroke-linejoin: miter; stroke-linecap: square"/>
   </g>
   <g id="legend_1">
    <g id="patch_7">
     <path d="M 316.410937 267.812 
L 409.72875 267.812 
Q 411.92875 267.812 411.92875 265.612 
L 411.92875 234.420125 
Q 411.92875 232.220125 409.72875 232.220125 
L 316.410937 232.220125 
Q 314.210938 232.220125 314.210938 234.420125 
L 314.210938 265.612 
Q 314.210938 267.812 316.410937 267.812 
z
" style="fill: #ffffff; opacity: 0.8; stroke: #cccccc; stroke-linejoin: miter"/>
    </g>
    <g id="line2d_29">
     <path d="M 318.610937 241.128406 
L 329.610937 241.128406 
L 340.610937 241.128406 
" style="fill: none; stroke: #4c72b0; stroke-width: 1.5; stroke-linecap: round"/>
    </g>
    <g id="text_16">
     <!-- simulation -->
     <g style="fill: #262626" transform="translate(349.410937 244.978406) scale(0.11 -0.11)">
      <defs>
       <path id="DejaVuSans-75" d="M 544 1381 
L 544 3500 
L 1119 3500 
L 1119 1403 
Q 1119 906 1312 657 
Q 1506 409 1894 409 
Q 2359 409 2629 706 
Q 2900 1003 2900 1516 
L 2900 3500 
L 3475 3500 
L 3475 0 
L 2900 0 
L 2900 538 
Q 2691 219 2414 64 
Q 2138 -91 1772 -91 
Q 1169 -91 856 284 
Q 544 659 544 1381 
z
M 1991 3584 
L 1991 3584 
z
" transform="scale(0.015625)"/>
       <path id="DejaVuSans-6c" d="M 603 4863 
L 1178 4863 
L 1178 0 
L 603 0 
L 603 4863 
z
" transform="scale(0.015625)"/>
       <path id="DejaVuSans-61" d="M 2194 1759 
Q 1497 1759 1228 1600 
Q 959 1441 959 1056 
Q 959 750 1161 570 
Q 1363 391 1709 391 
Q 2188 391 2477 730 
Q 2766 1069 2766 1631 
L 2766 1759 
L 2194 1759 
z
M 3341 1997 
L 3341 0 
L 2766 0 
L 2766 531 
Q 2569 213 2275 61 
Q 1981 -91 1556 -91 
Q 1019 -91 701 211 
Q 384 513 384 1019 
Q 384 1609 779 1909 
Q 1175 2209 1959 2209 
L 2766 2209 
L 2766 2266 
Q 2766 2663 2505 2880 
Q 2244 3097 1772 3097 
Q 1472 3097 1187 3025 
Q 903 2953 641 2809 
L 641 3341 
Q 956 3463 1253 3523 
Q 1550 3584 1831 3584 
Q 2591 3584 2966 3190 
Q 3341 2797 3341 1997 
z
" transform="scale(0.015625)"/>
       <path id="DejaVuSans-74" d="M 1172 4494 
L 1172 3500 
L 2356 3500 
L 2356 3053 
L 1172 3053 
L 1172 1153 
Q 1172 725 1289 603 
Q 1406 481 1766 481 
L 2356 481 
L 2356 0 
L 1766 0 
Q 1100 0 847 248 
Q 594 497 594 1153 
L 594 3053 
L 172 3053 
L 172 3500 
L 594 3500 
L 594 4494 
L 1172 4494 
z
" transform="scale(0.015625)"/>
       <path id="DejaVuSans-6f" d="M 1959 3097 
Q 1497 3097 1228 2736 
Q 959 2375 959 1747 
Q 959 1119 1226 758 
Q 1494 397 1959 397 
Q 2419 397 2687 759 
Q 2956 1122 2956 1747 
Q 2956 2369 2687 2733 
Q 2419 3097 1959 3097 
z
M 1959 3584 
Q 2709 3584 3137 3096 
Q 3566 2609 3566 1747 
Q 3566 888 3137 398 
Q 2709 -91 1959 -91 
Q 1206 -91 779 398 
Q 353 888 353 1747 
Q 353 2609 779 3096 
Q 1206 3584 1959 3584 
z
" transform="scale(0.015625)"/>
       <path id="DejaVuSans-6e" d="M 3513 2113 
L 3513 0 
L 2938 0 
L 2938 2094 
Q 2938 2591 2744 2837 
Q 2550 3084 2163 3084 
Q 1697 3084 1428 2787 
Q 1159 2491 1159 1978 
L 1159 0 
L 581 0 
L 581 3500 
L 1159 3500 
L 1159 2956 
Q 1366 3272 1645 3428 
Q 1925 3584 2291 3584 
Q 2894 3584 3203 3211 
Q 3513 2838 3513 2113 
z
" transform="scale(0.015625)"/>
      </defs>
      <use xlink:href="#DejaVuSans-73"/>
      <use xlink:href="#DejaVuSans-69" x="52.099609"/>
      <use xlink:href="#DejaVuSans-6d" x="79.882812"/>
      <use xlink:href="#DejaVuSans-75" x="177.294922"/>
      <use xlink:href="#DejaVuSans-6c" x="240.673828"/>
      <use xlink:href="#DejaVuSans-61" x="268.457031"/>
      <use xlink:href="#DejaVuSans-74" x="329.736328"/>
      <use xlink:href="#DejaVuSans-69" x="368.945312"/>
      <use xlink:href="#DejaVuSans-6f" x="396.728516"/>
      <use xlink:href="#DejaVuSans-6e" x="457.910156"/>
     </g>
    </g>
    <g id="line2d_30">
     <path d="M 318.610937 257.274344 
L 329.610937 257.274344 
L 340.610937 257.274344 
" style="fill: none; stroke: #dd8452; stroke-width: 1.5; stroke-linecap: round"/>
    </g>
    <g id="text_17">
     <!-- prescribed -->
     <g style="fill: #262626" transform="translate(349.410937 261.124344) scale(0.11 -0.11)">
      <defs>
       <path id="DejaVuSans-70" d="M 1159 525 
L 1159 -1331 
L 581 -1331 
L 581 3500 
L 1159 3500 
L 1159 2969 
Q 1341 3281 1617 3432 
Q 1894 3584 2278 3584 
Q 2916 3584 3314 3078 
Q 3713 2572 3713 1747 
Q 3713 922 3314 415 
Q 2916 -91 2278 -91 
Q 1894 -91 1617 61 
Q 1341 213 1159 525 
z
M 3116 1747 
Q 3116 2381 2855 2742 
Q 2594 3103 2138 3103 
Q 1681 3103 1420 2742 
Q 1159 2381 1159 1747 
Q 1159 1113 1420 752 
Q 1681 391 2138 391 
Q 2594 391 2855 752 
Q 3116 1113 3116 1747 
z
" transform="scale(0.015625)"/>
       <path id="DejaVuSans-72" d="M 2631 2963 
Q 2534 3019 2420 3045 
Q 2306 3072 2169 3072 
Q 1681 3072 1420 2755 
Q 1159 2438 1159 1844 
L 1159 0 
L 581 0 
L 581 3500 
L 1159 3500 
L 1159 2956 
Q 1341 3275 1631 3429 
Q 1922 3584 2338 3584 
Q 2397 3584 2469 3576 
Q 2541 3569 2628 3553 
L 2631 2963 
z
" transform="scale(0.015625)"/>
       <path id="DejaVuSans-63" d="M 3122 3366 
L 3122 2828 
Q 2878 2963 2633 3030 
Q 2388 3097 2138 3097 
Q 1578 3097 1268 2742 
Q 959 2388 959 1747 
Q 959 1106 1268 751 
Q 1578 397 2138 397 
Q 2388 397 2633 464 
Q 2878 531 3122 666 
L 3122 134 
Q 2881 22 2623 -34 
Q 2366 -91 2075 -91 
Q 1284 -91 818 406 
Q 353 903 353 1747 
Q 353 2603 823 3093 
Q 1294 3584 2113 3584 
Q 2378 3584 2631 3529 
Q 2884 3475 3122 3366 
z
" transform="scale(0.015625)"/>
       <path id="DejaVuSans-62" d="M 3116 1747 
Q 3116 2381 2855 2742 
Q 2594 3103 2138 3103 
Q 1681 3103 1420 2742 
Q 1159 2381 1159 1747 
Q 1159 1113 1420 752 
Q 1681 391 2138 391 
Q 2594 391 2855 752 
Q 3116 1113 3116 1747 
z
M 1159 2969 
Q 1341 3281 1617 3432 
Q 1894 3584 2278 3584 
Q 2916 3584 3314 3078 
Q 3713 2572 3713 1747 
Q 3713 922 3314 415 
Q 2916 -91 2278 -91 
Q 1894 -91 1617 61 
Q 1341 213 1159 525 
L 1159 0 
L 581 0 
L 581 4863 
L 1159 4863 
L 1159 2969 
z
" transform="scale(0.015625)"/>
       <path id="DejaVuSans-64" d="M 2906 2969 
L 2906 4863 
L 3481 4863 
L 3481 0 
L 2906 0 
L 2906 525 
Q 2725 213 2448 61 
Q 2172 -91 1784 -91 
Q 1150 -91 751 415 
Q 353 922 353 1747 
Q 353 2572 751 3078 
Q 1150 3584 1784 3584 
Q 2172 3584 2448 3432 
Q 2725 3281 2906 2969 
z
M 947 1747 
Q 947 1113 1208 752 
Q 1469 391 1925 391 
Q 2381 391 2643 752 
Q 2906 1113 2906 1747 
Q 2906 2381 2643 2742 
Q 2381 3103 1925 3103 
Q 1469 3103 1208 2742 
Q 947 2381 947 1747 
z
" transform="scale(0.015625)"/>
      </defs>
      <use xlink:href="#DejaVuSans-70"/>
      <use xlink:href="#DejaVuSans-72" x="63.476562"/>
      <use xlink:href="#DejaVuSans-65" x="102.339844"/>
      <use xlink:href="#DejaVuSans-73" x="163.863281"/>
      <use xlink:href="#DejaVuSans-63" x="215.962891"/>
      <use xlink:href="#DejaVuSans-72" x="270.943359"/>
      <use xlink:href="#DejaVuSans-69" x="312.056641"/>
      <use xlink:href="#DejaVuSans-62" x="339.839844"/>
      <use xlink:href="#DejaVuSans-65" x="403.316406"/>
      <use xlink:href="#DejaVuSans-64" x="464.839844"/>
     </g>
    </g>
   </g>
  </g>
 </g>
 <defs>
  <clipPath id="pca5e31d8f1">
   <rect x="60.30875" y="7.2" width="357.12" height="266.112"/>
  </clipPath>
 </defs>
</svg>
