<?xml version="1.0" encoding="utf-8" standalone="no"?>
<!DOCTYPE svg PUBLIC "-//W3C//DTD SVG 1.1//EN"
  "http://www.w3.org/Graphics/SVG/1.1/DTD/svg11.dtd">
<svg height="262.19625pt" version="1.1" viewBox="0 0 392.146875 262.19625" width="392.146875pt" xmlns="http://www.w3.org/2000/svg" xmlns:xlink="http://www.w3.org/1999/xlink">
 <metadata>
  <rdf:RDF xmlns:cc="http://creativecommons.org/ns#" xmlns:dc="http://purl.org/dc/elements/1.1/" xmlns:rdf="http://www.w3.org/1999/02/22-rdf-syntax-ns#">
   <cc:Work>
    <dc:type rdf:resource="http://purl.org/dc/dcmitype/StillImage"/>
    <dc:date>2021-06-30T17:16:47.742311</dc:date>
    <dc:format>image/svg+xml</dc:format>
    <dc:creator>
     <cc:Agent>
      <dc:title>Matplotlib v3.4.1, https://matplotlib.org/</dc:title>
     </cc:Agent>
    </dc:creator>
   </cc:Work>
  </rdf:RDF>
 </metadata>
 <defs>
  <style type="text/css">*{stroke-linecap:butt;stroke-linejoin:round;}</style>
 </defs>
 <g id="figure_1">
  <g id="patch_1">
   <path d="M 0 262.19625 
L 392.146875 262.19625 
L 392.146875 0 
L 0 0 
z
" style="fill:none;"/>
  </g>
  <g id="axes_1">
   <g id="patch_2">
    <path d="M 40.603125 224.64 
L 375.403125 224.64 
L 375.403125 7.2 
L 40.603125 7.2 
z
" style="fill:#ffffff;"/>
   </g>
   <g id="matplotlib.axis_1">
    <g id="xtick_1">
     <g id="line2d_1">
      <path clip-path="url(#pe968a73c70)" d="M 40.603125 224.64 
L 40.603125 7.2 
" style="fill:none;stroke:#b0b0b0;stroke-dasharray:2.96,1.28;stroke-dashoffset:0;stroke-opacity:0.5;stroke-width:0.8;"/>
     </g>
     <g id="line2d_2">
      <defs>
       <path d="M 0 0 
L 0 3.5 
" id="m989a47ef3b" style="stroke:#000000;stroke-width:0.8;"/>
      </defs>
      <g>
       <use style="stroke:#000000;stroke-width:0.8;" x="40.603125" xlink:href="#m989a47ef3b" y="224.64"/>
      </g>
     </g>
     <g id="text_1">
      <!-- 0 -->
      <g transform="translate(37.421875 239.238437)scale(0.1 -0.1)">
       <defs>
        <path d="M 2034 4250 
Q 1547 4250 1301 3770 
Q 1056 3291 1056 2328 
Q 1056 1369 1301 889 
Q 1547 409 2034 409 
Q 2525 409 2770 889 
Q 3016 1369 3016 2328 
Q 3016 3291 2770 3770 
Q 2525 4250 2034 4250 
z
M 2034 4750 
Q 2819 4750 3233 4129 
Q 3647 3509 3647 2328 
Q 3647 1150 3233 529 
Q 2819 -91 2034 -91 
Q 1250 -91 836 529 
Q 422 1150 422 2328 
Q 422 3509 836 4129 
Q 1250 4750 2034 4750 
z
" id="DejaVuSans-30" transform="scale(0.015625)"/>
       </defs>
       <use xlink:href="#DejaVuSans-30"/>
      </g>
     </g>
    </g>
    <g id="xtick_2">
     <g id="line2d_3">
      <path clip-path="url(#pe968a73c70)" d="M 96.403125 224.64 
L 96.403125 7.2 
" style="fill:none;stroke:#b0b0b0;stroke-dasharray:2.96,1.28;stroke-dashoffset:0;stroke-opacity:0.5;stroke-width:0.8;"/>
     </g>
     <g id="line2d_4">
      <g>
       <use style="stroke:#000000;stroke-width:0.8;" x="96.403125" xlink:href="#m989a47ef3b" y="224.64"/>
      </g>
     </g>
     <g id="text_2">
      <!-- 100 -->
      <g transform="translate(86.859375 239.238437)scale(0.1 -0.1)">
       <defs>
        <path d="M 794 531 
L 1825 531 
L 1825 4091 
L 703 3866 
L 703 4441 
L 1819 4666 
L 2450 4666 
L 2450 531 
L 3481 531 
L 3481 0 
L 794 0 
L 794 531 
z
" id="DejaVuSans-31" transform="scale(0.015625)"/>
       </defs>
       <use xlink:href="#DejaVuSans-31"/>
       <use x="63.623047" xlink:href="#DejaVuSans-30"/>
       <use x="127.246094" xlink:href="#DejaVuSans-30"/>
      </g>
     </g>
    </g>
    <g id="xtick_3">
     <g id="line2d_5">
      <path clip-path="url(#pe968a73c70)" d="M 152.203125 224.64 
L 152.203125 7.2 
" style="fill:none;stroke:#b0b0b0;stroke-dasharray:2.96,1.28;stroke-dashoffset:0;stroke-opacity:0.5;stroke-width:0.8;"/>
     </g>
     <g id="line2d_6">
      <g>
       <use style="stroke:#000000;stroke-width:0.8;" x="152.203125" xlink:href="#m989a47ef3b" y="224.64"/>
      </g>
     </g>
     <g id="text_3">
      <!-- 200 -->
      <g transform="translate(142.659375 239.238437)scale(0.1 -0.1)">
       <defs>
        <path d="M 1228 531 
L 3431 531 
L 3431 0 
L 469 0 
L 469 531 
Q 828 903 1448 1529 
Q 2069 2156 2228 2338 
Q 2531 2678 2651 2914 
Q 2772 3150 2772 3378 
Q 2772 3750 2511 3984 
Q 2250 4219 1831 4219 
Q 1534 4219 1204 4116 
Q 875 4013 500 3803 
L 500 4441 
Q 881 4594 1212 4672 
Q 1544 4750 1819 4750 
Q 2544 4750 2975 4387 
Q 3406 4025 3406 3419 
Q 3406 3131 3298 2873 
Q 3191 2616 2906 2266 
Q 2828 2175 2409 1742 
Q 1991 1309 1228 531 
z
" id="DejaVuSans-32" transform="scale(0.015625)"/>
       </defs>
       <use xlink:href="#DejaVuSans-32"/>
       <use x="63.623047" xlink:href="#DejaVuSans-30"/>
       <use x="127.246094" xlink:href="#DejaVuSans-30"/>
      </g>
     </g>
    </g>
    <g id="xtick_4">
     <g id="line2d_7">
      <path clip-path="url(#pe968a73c70)" d="M 208.003125 224.64 
L 208.003125 7.2 
" style="fill:none;stroke:#b0b0b0;stroke-dasharray:2.96,1.28;stroke-dashoffset:0;stroke-opacity:0.5;stroke-width:0.8;"/>
     </g>
     <g id="line2d_8">
      <g>
       <use style="stroke:#000000;stroke-width:0.8;" x="208.003125" xlink:href="#m989a47ef3b" y="224.64"/>
      </g>
     </g>
     <g id="text_4">
      <!-- 300 -->
      <g transform="translate(198.459375 239.238437)scale(0.1 -0.1)">
       <defs>
        <path d="M 2597 2516 
Q 3050 2419 3304 2112 
Q 3559 1806 3559 1356 
Q 3559 666 3084 287 
Q 2609 -91 1734 -91 
Q 1441 -91 1130 -33 
Q 819 25 488 141 
L 488 750 
Q 750 597 1062 519 
Q 1375 441 1716 441 
Q 2309 441 2620 675 
Q 2931 909 2931 1356 
Q 2931 1769 2642 2001 
Q 2353 2234 1838 2234 
L 1294 2234 
L 1294 2753 
L 1863 2753 
Q 2328 2753 2575 2939 
Q 2822 3125 2822 3475 
Q 2822 3834 2567 4026 
Q 2313 4219 1838 4219 
Q 1578 4219 1281 4162 
Q 984 4106 628 3988 
L 628 4550 
Q 988 4650 1302 4700 
Q 1616 4750 1894 4750 
Q 2613 4750 3031 4423 
Q 3450 4097 3450 3541 
Q 3450 3153 3228 2886 
Q 3006 2619 2597 2516 
z
" id="DejaVuSans-33" transform="scale(0.015625)"/>
       </defs>
       <use xlink:href="#DejaVuSans-33"/>
       <use x="63.623047" xlink:href="#DejaVuSans-30"/>
       <use x="127.246094" xlink:href="#DejaVuSans-30"/>
      </g>
     </g>
    </g>
    <g id="xtick_5">
     <g id="line2d_9">
      <path clip-path="url(#pe968a73c70)" d="M 263.803125 224.64 
L 263.803125 7.2 
" style="fill:none;stroke:#b0b0b0;stroke-dasharray:2.96,1.28;stroke-dashoffset:0;stroke-opacity:0.5;stroke-width:0.8;"/>
     </g>
     <g id="line2d_10">
      <g>
       <use style="stroke:#000000;stroke-width:0.8;" x="263.803125" xlink:href="#m989a47ef3b" y="224.64"/>
      </g>
     </g>
     <g id="text_5">
      <!-- 400 -->
      <g transform="translate(254.259375 239.238437)scale(0.1 -0.1)">
       <defs>
        <path d="M 2419 4116 
L 825 1625 
L 2419 1625 
L 2419 4116 
z
M 2253 4666 
L 3047 4666 
L 3047 1625 
L 3713 1625 
L 3713 1100 
L 3047 1100 
L 3047 0 
L 2419 0 
L 2419 1100 
L 313 1100 
L 313 1709 
L 2253 4666 
z
" id="DejaVuSans-34" transform="scale(0.015625)"/>
       </defs>
       <use xlink:href="#DejaVuSans-34"/>
       <use x="63.623047" xlink:href="#DejaVuSans-30"/>
       <use x="127.246094" xlink:href="#DejaVuSans-30"/>
      </g>
     </g>
    </g>
    <g id="xtick_6">
     <g id="line2d_11">
      <path clip-path="url(#pe968a73c70)" d="M 319.603125 224.64 
L 319.603125 7.2 
" style="fill:none;stroke:#b0b0b0;stroke-dasharray:2.96,1.28;stroke-dashoffset:0;stroke-opacity:0.5;stroke-width:0.8;"/>
     </g>
     <g id="line2d_12">
      <g>
       <use style="stroke:#000000;stroke-width:0.8;" x="319.603125" xlink:href="#m989a47ef3b" y="224.64"/>
      </g>
     </g>
     <g id="text_6">
      <!-- 500 -->
      <g transform="translate(310.059375 239.238437)scale(0.1 -0.1)">
       <defs>
        <path d="M 691 4666 
L 3169 4666 
L 3169 4134 
L 1269 4134 
L 1269 2991 
Q 1406 3038 1543 3061 
Q 1681 3084 1819 3084 
Q 2600 3084 3056 2656 
Q 3513 2228 3513 1497 
Q 3513 744 3044 326 
Q 2575 -91 1722 -91 
Q 1428 -91 1123 -41 
Q 819 9 494 109 
L 494 744 
Q 775 591 1075 516 
Q 1375 441 1709 441 
Q 2250 441 2565 725 
Q 2881 1009 2881 1497 
Q 2881 1984 2565 2268 
Q 2250 2553 1709 2553 
Q 1456 2553 1204 2497 
Q 953 2441 691 2322 
L 691 4666 
z
" id="DejaVuSans-35" transform="scale(0.015625)"/>
       </defs>
       <use xlink:href="#DejaVuSans-35"/>
       <use x="63.623047" xlink:href="#DejaVuSans-30"/>
       <use x="127.246094" xlink:href="#DejaVuSans-30"/>
      </g>
     </g>
    </g>
    <g id="xtick_7">
     <g id="line2d_13">
      <path clip-path="url(#pe968a73c70)" d="M 375.403125 224.64 
L 375.403125 7.2 
" style="fill:none;stroke:#b0b0b0;stroke-dasharray:2.96,1.28;stroke-dashoffset:0;stroke-opacity:0.5;stroke-width:0.8;"/>
     </g>
     <g id="line2d_14">
      <g>
       <use style="stroke:#000000;stroke-width:0.8;" x="375.403125" xlink:href="#m989a47ef3b" y="224.64"/>
      </g>
     </g>
     <g id="text_7">
      <!-- 600 -->
      <g transform="translate(365.859375 239.238437)scale(0.1 -0.1)">
       <defs>
        <path d="M 2113 2584 
Q 1688 2584 1439 2293 
Q 1191 2003 1191 1497 
Q 1191 994 1439 701 
Q 1688 409 2113 409 
Q 2538 409 2786 701 
Q 3034 994 3034 1497 
Q 3034 2003 2786 2293 
Q 2538 2584 2113 2584 
z
M 3366 4563 
L 3366 3988 
Q 3128 4100 2886 4159 
Q 2644 4219 2406 4219 
Q 1781 4219 1451 3797 
Q 1122 3375 1075 2522 
Q 1259 2794 1537 2939 
Q 1816 3084 2150 3084 
Q 2853 3084 3261 2657 
Q 3669 2231 3669 1497 
Q 3669 778 3244 343 
Q 2819 -91 2113 -91 
Q 1303 -91 875 529 
Q 447 1150 447 2328 
Q 447 3434 972 4092 
Q 1497 4750 2381 4750 
Q 2619 4750 2861 4703 
Q 3103 4656 3366 4563 
z
" id="DejaVuSans-36" transform="scale(0.015625)"/>
       </defs>
       <use xlink:href="#DejaVuSans-36"/>
       <use x="63.623047" xlink:href="#DejaVuSans-30"/>
       <use x="127.246094" xlink:href="#DejaVuSans-30"/>
      </g>
     </g>
    </g>
    <g id="text_8">
     <!-- Time / s -->
     <g transform="translate(188.302344 252.916562)scale(0.1 -0.1)">
      <defs>
       <path d="M -19 4666 
L 3928 4666 
L 3928 4134 
L 2272 4134 
L 2272 0 
L 1638 0 
L 1638 4134 
L -19 4134 
L -19 4666 
z
" id="DejaVuSans-54" transform="scale(0.015625)"/>
       <path d="M 603 3500 
L 1178 3500 
L 1178 0 
L 603 0 
L 603 3500 
z
M 603 4863 
L 1178 4863 
L 1178 4134 
L 603 4134 
L 603 4863 
z
" id="DejaVuSans-69" transform="scale(0.015625)"/>
       <path d="M 3328 2828 
Q 3544 3216 3844 3400 
Q 4144 3584 4550 3584 
Q 5097 3584 5394 3201 
Q 5691 2819 5691 2113 
L 5691 0 
L 5113 0 
L 5113 2094 
Q 5113 2597 4934 2840 
Q 4756 3084 4391 3084 
Q 3944 3084 3684 2787 
Q 3425 2491 3425 1978 
L 3425 0 
L 2847 0 
L 2847 2094 
Q 2847 2600 2669 2842 
Q 2491 3084 2119 3084 
Q 1678 3084 1418 2786 
Q 1159 2488 1159 1978 
L 1159 0 
L 581 0 
L 581 3500 
L 1159 3500 
L 1159 2956 
Q 1356 3278 1631 3431 
Q 1906 3584 2284 3584 
Q 2666 3584 2933 3390 
Q 3200 3197 3328 2828 
z
" id="DejaVuSans-6d" transform="scale(0.015625)"/>
       <path d="M 3597 1894 
L 3597 1613 
L 953 1613 
Q 991 1019 1311 708 
Q 1631 397 2203 397 
Q 2534 397 2845 478 
Q 3156 559 3463 722 
L 3463 178 
Q 3153 47 2828 -22 
Q 2503 -91 2169 -91 
Q 1331 -91 842 396 
Q 353 884 353 1716 
Q 353 2575 817 3079 
Q 1281 3584 2069 3584 
Q 2775 3584 3186 3129 
Q 3597 2675 3597 1894 
z
M 3022 2063 
Q 3016 2534 2758 2815 
Q 2500 3097 2075 3097 
Q 1594 3097 1305 2825 
Q 1016 2553 972 2059 
L 3022 2063 
z
" id="DejaVuSans-65" transform="scale(0.015625)"/>
       <path id="DejaVuSans-20" transform="scale(0.015625)"/>
       <path d="M 1625 4666 
L 2156 4666 
L 531 -594 
L 0 -594 
L 1625 4666 
z
" id="DejaVuSans-2f" transform="scale(0.015625)"/>
       <path d="M 2834 3397 
L 2834 2853 
Q 2591 2978 2328 3040 
Q 2066 3103 1784 3103 
Q 1356 3103 1142 2972 
Q 928 2841 928 2578 
Q 928 2378 1081 2264 
Q 1234 2150 1697 2047 
L 1894 2003 
Q 2506 1872 2764 1633 
Q 3022 1394 3022 966 
Q 3022 478 2636 193 
Q 2250 -91 1575 -91 
Q 1294 -91 989 -36 
Q 684 19 347 128 
L 347 722 
Q 666 556 975 473 
Q 1284 391 1588 391 
Q 1994 391 2212 530 
Q 2431 669 2431 922 
Q 2431 1156 2273 1281 
Q 2116 1406 1581 1522 
L 1381 1569 
Q 847 1681 609 1914 
Q 372 2147 372 2553 
Q 372 3047 722 3315 
Q 1072 3584 1716 3584 
Q 2034 3584 2315 3537 
Q 2597 3491 2834 3397 
z
" id="DejaVuSans-73" transform="scale(0.015625)"/>
      </defs>
      <use xlink:href="#DejaVuSans-54"/>
      <use x="57.958984" xlink:href="#DejaVuSans-69"/>
      <use x="85.742188" xlink:href="#DejaVuSans-6d"/>
      <use x="183.154297" xlink:href="#DejaVuSans-65"/>
      <use x="244.677734" xlink:href="#DejaVuSans-20"/>
      <use x="276.464844" xlink:href="#DejaVuSans-2f"/>
      <use x="310.15625" xlink:href="#DejaVuSans-20"/>
      <use x="341.943359" xlink:href="#DejaVuSans-73"/>
     </g>
    </g>
   </g>
   <g id="matplotlib.axis_2">
    <g id="ytick_1">
     <g id="line2d_15">
      <path clip-path="url(#pe968a73c70)" d="M 40.603125 214.655672 
L 375.403125 214.655672 
" style="fill:none;stroke:#b0b0b0;stroke-dasharray:2.96,1.28;stroke-dashoffset:0;stroke-opacity:0.5;stroke-width:0.8;"/>
     </g>
     <g id="line2d_16">
      <defs>
       <path d="M 0 0 
L -3.5 0 
" id="me396714c5e" style="stroke:#000000;stroke-width:0.8;"/>
      </defs>
      <g>
       <use style="stroke:#000000;stroke-width:0.8;" x="40.603125" xlink:href="#me396714c5e" y="214.655672"/>
      </g>
     </g>
     <g id="text_9">
      <!-- 20 -->
      <g transform="translate(20.878125 218.454891)scale(0.1 -0.1)">
       <use xlink:href="#DejaVuSans-32"/>
       <use x="63.623047" xlink:href="#DejaVuSans-30"/>
      </g>
     </g>
    </g>
    <g id="ytick_2">
     <g id="line2d_17">
      <path clip-path="url(#pe968a73c70)" d="M 40.603125 182.446145 
L 375.403125 182.446145 
" style="fill:none;stroke:#b0b0b0;stroke-dasharray:2.96,1.28;stroke-dashoffset:0;stroke-opacity:0.5;stroke-width:0.8;"/>
     </g>
     <g id="line2d_18">
      <g>
       <use style="stroke:#000000;stroke-width:0.8;" x="40.603125" xlink:href="#me396714c5e" y="182.446145"/>
      </g>
     </g>
     <g id="text_10">
      <!-- 21 -->
      <g transform="translate(20.878125 186.245364)scale(0.1 -0.1)">
       <use xlink:href="#DejaVuSans-32"/>
       <use x="63.623047" xlink:href="#DejaVuSans-31"/>
      </g>
     </g>
    </g>
    <g id="ytick_3">
     <g id="line2d_19">
      <path clip-path="url(#pe968a73c70)" d="M 40.603125 150.236618 
L 375.403125 150.236618 
" style="fill:none;stroke:#b0b0b0;stroke-dasharray:2.96,1.28;stroke-dashoffset:0;stroke-opacity:0.5;stroke-width:0.8;"/>
     </g>
     <g id="line2d_20">
      <g>
       <use style="stroke:#000000;stroke-width:0.8;" x="40.603125" xlink:href="#me396714c5e" y="150.236618"/>
      </g>
     </g>
     <g id="text_11">
      <!-- 22 -->
      <g transform="translate(20.878125 154.035837)scale(0.1 -0.1)">
       <use xlink:href="#DejaVuSans-32"/>
       <use x="63.623047" xlink:href="#DejaVuSans-32"/>
      </g>
     </g>
    </g>
    <g id="ytick_4">
     <g id="line2d_21">
      <path clip-path="url(#pe968a73c70)" d="M 40.603125 118.027091 
L 375.403125 118.027091 
" style="fill:none;stroke:#b0b0b0;stroke-dasharray:2.96,1.28;stroke-dashoffset:0;stroke-opacity:0.5;stroke-width:0.8;"/>
     </g>
     <g id="line2d_22">
      <g>
       <use style="stroke:#000000;stroke-width:0.8;" x="40.603125" xlink:href="#me396714c5e" y="118.027091"/>
      </g>
     </g>
     <g id="text_12">
      <!-- 23 -->
      <g transform="translate(20.878125 121.826309)scale(0.1 -0.1)">
       <use xlink:href="#DejaVuSans-32"/>
       <use x="63.623047" xlink:href="#DejaVuSans-33"/>
      </g>
     </g>
    </g>
    <g id="ytick_5">
     <g id="line2d_23">
      <path clip-path="url(#pe968a73c70)" d="M 40.603125 85.817564 
L 375.403125 85.817564 
" style="fill:none;stroke:#b0b0b0;stroke-dasharray:2.96,1.28;stroke-dashoffset:0;stroke-opacity:0.5;stroke-width:0.8;"/>
     </g>
     <g id="line2d_24">
      <g>
       <use style="stroke:#000000;stroke-width:0.8;" x="40.603125" xlink:href="#me396714c5e" y="85.817564"/>
      </g>
     </g>
     <g id="text_13">
      <!-- 24 -->
      <g transform="translate(20.878125 89.616782)scale(0.1 -0.1)">
       <use xlink:href="#DejaVuSans-32"/>
       <use x="63.623047" xlink:href="#DejaVuSans-34"/>
      </g>
     </g>
    </g>
    <g id="ytick_6">
     <g id="line2d_25">
      <path clip-path="url(#pe968a73c70)" d="M 40.603125 53.608036 
L 375.403125 53.608036 
" style="fill:none;stroke:#b0b0b0;stroke-dasharray:2.96,1.28;stroke-dashoffset:0;stroke-opacity:0.5;stroke-width:0.8;"/>
     </g>
     <g id="line2d_26">
      <g>
       <use style="stroke:#000000;stroke-width:0.8;" x="40.603125" xlink:href="#me396714c5e" y="53.608036"/>
      </g>
     </g>
     <g id="text_14">
      <!-- 25 -->
      <g transform="translate(20.878125 57.407255)scale(0.1 -0.1)">
       <use xlink:href="#DejaVuSans-32"/>
       <use x="63.623047" xlink:href="#DejaVuSans-35"/>
      </g>
     </g>
    </g>
    <g id="ytick_7">
     <g id="line2d_27">
      <path clip-path="url(#pe968a73c70)" d="M 40.603125 21.398509 
L 375.403125 21.398509 
" style="fill:none;stroke:#b0b0b0;stroke-dasharray:2.96,1.28;stroke-dashoffset:0;stroke-opacity:0.5;stroke-width:0.8;"/>
     </g>
     <g id="line2d_28">
      <g>
       <use style="stroke:#000000;stroke-width:0.8;" x="40.603125" xlink:href="#me396714c5e" y="21.398509"/>
      </g>
     </g>
     <g id="text_15">
      <!-- 26 -->
      <g transform="translate(20.878125 25.197728)scale(0.1 -0.1)">
       <use xlink:href="#DejaVuSans-32"/>
       <use x="63.623047" xlink:href="#DejaVuSans-36"/>
      </g>
     </g>
    </g>
    <g id="text_16">
     <!-- Temperature / $^\circ C$ -->
     <g transform="translate(14.778125 160.67)rotate(-90)scale(0.1 -0.1)">
      <defs>
       <path d="M 1159 525 
L 1159 -1331 
L 581 -1331 
L 581 3500 
L 1159 3500 
L 1159 2969 
Q 1341 3281 1617 3432 
Q 1894 3584 2278 3584 
Q 2916 3584 3314 3078 
Q 3713 2572 3713 1747 
Q 3713 922 3314 415 
Q 2916 -91 2278 -91 
Q 1894 -91 1617 61 
Q 1341 213 1159 525 
z
M 3116 1747 
Q 3116 2381 2855 2742 
Q 2594 3103 2138 3103 
Q 1681 3103 1420 2742 
Q 1159 2381 1159 1747 
Q 1159 1113 1420 752 
Q 1681 391 2138 391 
Q 2594 391 2855 752 
Q 3116 1113 3116 1747 
z
" id="DejaVuSans-70" transform="scale(0.015625)"/>
       <path d="M 2631 2963 
Q 2534 3019 2420 3045 
Q 2306 3072 2169 3072 
Q 1681 3072 1420 2755 
Q 1159 2438 1159 1844 
L 1159 0 
L 581 0 
L 581 3500 
L 1159 3500 
L 1159 2956 
Q 1341 3275 1631 3429 
Q 1922 3584 2338 3584 
Q 2397 3584 2469 3576 
Q 2541 3569 2628 3553 
L 2631 2963 
z
" id="DejaVuSans-72" transform="scale(0.015625)"/>
       <path d="M 2194 1759 
Q 1497 1759 1228 1600 
Q 959 1441 959 1056 
Q 959 750 1161 570 
Q 1363 391 1709 391 
Q 2188 391 2477 730 
Q 2766 1069 2766 1631 
L 2766 1759 
L 2194 1759 
z
M 3341 1997 
L 3341 0 
L 2766 0 
L 2766 531 
Q 2569 213 2275 61 
Q 1981 -91 1556 -91 
Q 1019 -91 701 211 
Q 384 513 384 1019 
Q 384 1609 779 1909 
Q 1175 2209 1959 2209 
L 2766 2209 
L 2766 2266 
Q 2766 2663 2505 2880 
Q 2244 3097 1772 3097 
Q 1472 3097 1187 3025 
Q 903 2953 641 2809 
L 641 3341 
Q 956 3463 1253 3523 
Q 1550 3584 1831 3584 
Q 2591 3584 2966 3190 
Q 3341 2797 3341 1997 
z
" id="DejaVuSans-61" transform="scale(0.015625)"/>
       <path d="M 1172 4494 
L 1172 3500 
L 2356 3500 
L 2356 3053 
L 1172 3053 
L 1172 1153 
Q 1172 725 1289 603 
Q 1406 481 1766 481 
L 2356 481 
L 2356 0 
L 1766 0 
Q 1100 0 847 248 
Q 594 497 594 1153 
L 594 3053 
L 172 3053 
L 172 3500 
L 594 3500 
L 594 4494 
L 1172 4494 
z
" id="DejaVuSans-74" transform="scale(0.015625)"/>
       <path d="M 544 1381 
L 544 3500 
L 1119 3500 
L 1119 1403 
Q 1119 906 1312 657 
Q 1506 409 1894 409 
Q 2359 409 2629 706 
Q 2900 1003 2900 1516 
L 2900 3500 
L 3475 3500 
L 3475 0 
L 2900 0 
L 2900 538 
Q 2691 219 2414 64 
Q 2138 -91 1772 -91 
Q 1169 -91 856 284 
Q 544 659 544 1381 
z
M 1991 3584 
L 1991 3584 
z
" id="DejaVuSans-75" transform="scale(0.015625)"/>
       <path d="M 2000 2619 
Q 1750 2619 1578 2445 
Q 1406 2272 1406 2022 
Q 1406 1775 1578 1605 
Q 1750 1435 2000 1435 
Q 2250 1435 2422 1605 
Q 2594 1775 2594 2022 
Q 2594 2269 2420 2444 
Q 2247 2619 2000 2619 
z
M 2000 3022 
Q 2200 3022 2384 2945 
Q 2569 2869 2703 2725 
Q 2847 2585 2919 2406 
Q 2991 2228 2991 2022 
Q 2991 1610 2702 1324 
Q 2413 1038 1994 1038 
Q 1572 1038 1290 1319 
Q 1009 1600 1009 2022 
Q 1009 2441 1296 2731 
Q 1584 3022 2000 3022 
z
" id="DejaVuSans-2218" transform="scale(0.015625)"/>
       <path d="M 4447 4306 
L 4319 3641 
Q 4019 3944 3683 4091 
Q 3347 4238 2956 4238 
Q 2422 4238 2017 3981 
Q 1613 3725 1319 3200 
Q 1131 2863 1032 2486 
Q 934 2109 934 1728 
Q 934 1091 1264 756 
Q 1594 422 2222 422 
Q 2656 422 3056 561 
Q 3456 700 3834 978 
L 3688 231 
Q 3316 72 2936 -9 
Q 2556 -91 2175 -91 
Q 1278 -91 773 396 
Q 269 884 269 1753 
Q 269 2309 461 2846 
Q 653 3384 1013 3828 
Q 1394 4300 1883 4525 
Q 2372 4750 3022 4750 
Q 3422 4750 3780 4639 
Q 4138 4528 4447 4306 
z
" id="DejaVuSans-Oblique-43" transform="scale(0.015625)"/>
      </defs>
      <use transform="translate(0 0.78125)" xlink:href="#DejaVuSans-54"/>
      <use transform="translate(61.083984 0.78125)" xlink:href="#DejaVuSans-65"/>
      <use transform="translate(122.607422 0.78125)" xlink:href="#DejaVuSans-6d"/>
      <use transform="translate(220.019531 0.78125)" xlink:href="#DejaVuSans-70"/>
      <use transform="translate(283.496094 0.78125)" xlink:href="#DejaVuSans-65"/>
      <use transform="translate(345.019531 0.78125)" xlink:href="#DejaVuSans-72"/>
      <use transform="translate(386.132812 0.78125)" xlink:href="#DejaVuSans-61"/>
      <use transform="translate(447.412109 0.78125)" xlink:href="#DejaVuSans-74"/>
      <use transform="translate(486.621094 0.78125)" xlink:href="#DejaVuSans-75"/>
      <use transform="translate(550 0.78125)" xlink:href="#DejaVuSans-72"/>
      <use transform="translate(591.113281 0.78125)" xlink:href="#DejaVuSans-65"/>
      <use transform="translate(652.636719 0.78125)" xlink:href="#DejaVuSans-20"/>
      <use transform="translate(684.423828 0.78125)" xlink:href="#DejaVuSans-2f"/>
      <use transform="translate(718.115234 0.78125)" xlink:href="#DejaVuSans-20"/>
      <use transform="translate(764.49707 39.0625)scale(0.7)" xlink:href="#DejaVuSans-2218"/>
      <use transform="translate(824.6875 0.78125)" xlink:href="#DejaVuSans-Oblique-43"/>
     </g>
    </g>
   </g>
   <g id="line2d_29">
    <path clip-path="url(#pe968a73c70)" d="M 40.603125 214.655672 
L 44.646384 214.542878 
L 46.314985 214.262059 
L 47.329873 213.932216 
L 48.336683 213.382129 
L 49.325214 212.417357 
L 49.991386 211.326397 
L 51.024808 209.036723 
L 51.68244 208.45002 
L 52.340073 208.151754 
L 53.331919 207.955102 
L 54.331386 207.795064 
L 55.043781 207.600561 
L 56.013666 206.888471 
L 56.703772 206.298512 
L 58.39853 205.526031 
L 59.062379 204.981104 
L 60.380703 203.801556 
L 61.067059 203.103288 
L 61.732156 202.558485 
L 62.39725 201.91901 
L 62.701359 201.705278 
L 64.071482 201.363885 
L 64.734043 200.58354 
L 65.413533 199.408354 
L 66.070228 198.24226 
L 66.727337 197.753116 
L 68.06395 197.967094 
L 68.400829 197.666677 
L 68.758466 197.643455 
L 69.088326 197.453744 
L 69.437294 197.010185 
L 70.435639 195.268693 
L 71.112839 194.684878 
L 71.433338 194.598194 
L 72.081408 195.089733 
L 72.423131 195.184712 
L 73.095363 195.161428 
L 73.418876 194.805536 
L 74.461697 193.082781 
L 75.097118 192.826537 
L 75.796081 191.997106 
L 76.771621 190.6695 
L 77.118008 190.36337 
L 77.464395 189.866055 
L 78.771067 186.30253 
L 79.13238 185.682653 
L 80.816788 184.362358 
L 81.477115 183.413866 
L 82.151749 182.059904 
L 82.455283 182.091912 
L 84.164001 183.659114 
L 85.160356 182.234563 
L 85.843437 181.873204 
L 86.140411 181.458212 
L 86.489762 180.350727 
L 87.166572 177.07318 
L 87.496407 176.824247 
L 87.821146 176.776266 
L 88.174111 175.953593 
L 89.173434 171.239762 
L 89.486014 170.956425 
L 89.828515 171.914685 
L 90.490067 174.725511 
L 90.827012 174.445798 
L 91.500897 171.72221 
L 91.837842 171.168498 
L 92.174782 171.373076 
L 92.537483 171.859578 
L 92.835262 172.051746 
L 93.17984 172.070361 
L 93.507397 172.605703 
L 93.88175 173.454425 
L 94.53687 173.90935 
L 94.864427 173.365222 
L 95.191985 172.528418 
L 95.519547 172.337909 
L 95.861145 172.434853 
L 96.221457 171.639641 
L 96.560416 171.342297 
L 96.883346 172.181496 
L 97.20628 173.420697 
L 97.529219 173.363072 
L 98.218617 170.479384 
L 98.563647 169.807594 
L 98.891736 169.614566 
L 99.554889 170.123123 
L 100.541445 170.775684 
L 100.873285 170.550156 
L 101.22883 170.135349 
L 101.541708 170.644459 
L 101.906742 170.999429 
L 102.21877 170.746011 
L 102.884894 167.757699 
L 103.242708 167.146976 
L 103.567183 167.594405 
L 103.916912 168.511811 
L 104.245832 168.807558 
L 105.225121 167.782826 
L 106.25679 166.058351 
L 106.572334 166.309251 
L 106.941139 166.249106 
L 107.240578 165.682186 
L 107.916315 163.508561 
L 108.238513 163.251825 
L 109.277602 164.891274 
L 109.601009 164.418165 
L 110.276993 161.915803 
L 111.918119 157.740571 
L 112.272902 157.763363 
L 112.621175 157.633367 
L 112.92943 158.373534 
L 113.589952 161.321483 
L 114.259287 160.256142 
L 114.598356 160.778706 
L 114.94645 161.667729 
L 115.264651 161.403744 
L 115.633103 160.702158 
L 115.955492 160.437313 
L 116.94456 159.314346 
L 117.317686 158.246917 
L 117.621574 156.494673 
L 117.963862 155.199628 
L 118.315268 154.494786 
L 118.637121 154.482991 
L 118.971456 155.537704 
L 119.295148 155.427674 
L 119.965683 149.810629 
L 120.307877 150.03118 
L 121.315582 158.2342 
L 121.639887 158.404313 
L 122.327868 156.779731 
L 122.664221 156.441962 
L 122.983111 155.050833 
L 123.336851 152.062337 
L 123.660083 150.636005 
L 123.998948 151.490256 
L 124.66004 155.271138 
L 125.012077 154.845948 
L 125.320111 153.265108 
L 125.680951 150.7985 
L 125.978445 147.86333 
L 126.312695 147.477888 
L 126.660832 149.107753 
L 127.004124 149.151065 
L 127.699299 144.297593 
L 128.010842 143.692829 
L 128.685855 145.903253 
L 129.672393 155.632129 
L 130.008806 154.071624 
L 130.339361 150.452008 
L 130.684671 148.671382 
L 131.035839 148.240294 
L 131.369663 147.266184 
L 131.696744 145.642708 
L 132.364197 144.310802 
L 132.706527 142.708152 
L 133.053361 142.379537 
L 133.350642 142.2512 
L 133.686365 139.950958 
L 134.038316 136.680661 
L 134.372677 134.789084 
L 134.713108 136.239436 
L 135.381497 142.91875 
L 135.701886 144.419971 
L 136.022266 143.227092 
L 136.385218 140.455154 
L 137.049801 138.043162 
L 137.382084 137.59051 
L 137.714368 137.768364 
L 138.046659 135.869845 
L 138.386682 136.277403 
L 139.042998 143.324957 
L 139.40234 142.125197 
L 139.710357 139.284145 
L 140.063219 137.543451 
L 140.377094 136.734478 
L 140.735815 137.341454 
L 141.408401 143.538628 
L 141.753669 144.568336 
L 142.751089 136.559635 
L 143.087885 135.128818 
L 143.424681 134.965832 
L 143.761485 134.44296 
L 144.081439 132.856775 
L 144.424135 129.989367 
L 144.729785 126.23521 
L 145.073606 124.997483 
L 145.40336 128.358396 
L 145.766091 133.237916 
L 146.089595 135.7917 
L 146.401401 136.012005 
L 146.761518 135.322522 
L 147.081983 133.728105 
L 147.404517 133.711825 
L 147.767393 134.838539 
L 148.094022 135.347649 
L 148.78741 135.837591 
L 149.464927 135.334072 
L 149.774263 135.410988 
L 150.107875 134.507344 
L 150.767137 127.289431 
L 151.098866 125.663313 
L 151.457408 125.843071 
L 151.76643 127.13867 
L 152.126955 129.607366 
L 152.435977 133.624341 
L 152.796511 135.878446 
L 153.126138 135.298685 
L 153.466058 132.553349 
L 153.805987 130.757609 
L 154.145916 130.203836 
L 154.442371 130.905729 
L 154.797677 132.116486 
L 155.10858 132.306626 
L 155.459851 131.439167 
L 156.141616 127.196541 
L 156.465581 124.711872 
L 156.782929 123.40024 
L 157.114336 122.748969 
L 157.830618 118.324435 
L 158.134344 120.234996 
L 158.472758 124.925911 
L 158.835344 127.104881 
L 159.154412 125.344958 
L 159.493652 124.68994 
L 159.806122 125.405901 
L 160.170675 125.485337 
L 160.483145 124.562217 
L 160.847689 125.315101 
L 161.160159 128.431319 
L 161.472629 129.479397 
L 161.837173 126.518363 
L 162.149644 122.927744 
L 162.484021 122.224193 
L 162.806334 123.190563 
L 163.174684 125.190818 
L 163.49377 125.173801 
L 164.16233 123.128452 
L 164.496614 122.741351 
L 164.841243 122.768813 
L 165.18588 121.74322 
L 165.825899 115.740672 
L 166.170537 114.86369 
L 166.515166 117.218486 
L 166.859795 121.663601 
L 167.204433 124.663339 
L 167.499831 122.973083 
L 167.84446 119.814966 
L 168.189098 121.364843 
L 168.533727 124.1076 
L 168.878356 125.283216 
L 169.19671 125.656432 
L 169.517762 126.804895 
L 169.866657 127.03976 
L 170.506336 121.242834 
L 170.884137 119.184215 
L 171.219434 117.996988 
L 171.884051 112.811829 
L 172.184933 112.804949 
L 172.535957 112.998161 
L 172.886972 112.943054 
L 173.187845 113.355834 
L 174.190765 118.438458 
L 174.561849 118.338442 
L 174.884323 120.161704 
L 175.205861 121.203945 
L 175.546327 119.414288 
L 175.886801 116.919483 
L 176.23693 116.720373 
L 176.575079 115.128658 
L 176.898405 111.379416 
L 177.22174 109.662252 
L 177.554049 110.522339 
L 177.915442 110.338956 
L 178.244431 108.441849 
L 178.546011 108.68937 
L 178.897851 109.987487 
L 179.238623 110.144945 
L 179.551758 109.302059 
L 179.882772 108.972462 
L 180.571647 109.124636 
L 180.91608 108.096463 
L 181.565585 104.376709 
L 181.890341 106.179206 
L 182.561923 116.182327 
L 182.935024 117.180703 
L 183.261492 114.363365 
L 183.914428 104.99247 
L 184.273531 104.044408 
L 184.581344 106.584184 
L 184.940465 108.205202 
L 185.248277 107.326562 
L 185.573085 104.374989 
L 185.919689 104.38703 
L 186.264659 106.961946 
L 186.579266 106.79638 
L 186.929293 103.944208 
L 187.274961 104.652858 
L 187.918463 114.379277 
L 188.25892 116.396181 
L 188.599377 116.206102 
L 188.956675 113.193647 
L 189.257744 109.428001 
L 189.629211 107.056495 
L 189.924593 106.315898 
L 190.2784 104.745502 
L 190.622127 101.912068 
L 190.942796 97.811909 
L 191.294407 94.743425 
L 191.646529 96.903841 
L 192.296637 111.645182 
L 192.62279 113.44172 
L 192.941706 109.711952 
L 193.277991 103.876568 
L 193.61133 102.370125 
L 193.973686 106.78913 
L 194.310601 108.906296 
L 194.615212 105.139975 
L 194.970569 98.130326 
L 195.294508 96.753142 
L 195.650325 98.423923 
L 196.321958 100.098942 
L 196.958001 103.411875 
L 197.334747 101.340417 
L 197.630231 100.396901 
L 198.000624 101.073483 
L 198.304026 100.877506 
L 199.313716 95.373316 
L 199.981603 88.987292 
L 200.65436 94.605197 
L 200.977822 92.186325 
L 201.326912 87.165443 
L 201.666773 87.082875 
L 202.338662 91.66419 
L 202.984786 97.772959 
L 203.653695 99.361049 
L 204.32262 102.085744 
L 204.677501 100.861102 
L 205.662549 92.020758 
L 206.030695 90.551053 
L 206.352454 88.791561 
L 206.675031 89.032569 
L 207.008064 90.085746 
L 207.347805 91.822754 
L 207.675525 92.211697 
L 208.020784 90.524698 
L 208.366026 89.918152 
L 208.711285 90.715821 
L 209.056544 91.05531 
L 209.705716 91.336067 
L 210.379955 88.321892 
L 210.713039 88.794387 
L 211.400645 91.164971 
L 211.706857 90.120457 
L 212.038152 87.071079 
L 212.402569 85.901484 
L 213.027288 93.609585 
L 213.396285 93.943729 
L 213.713123 93.752728 
L 214.055504 94.124838 
L 214.392623 93.853788 
L 215.388502 90.336523 
L 216.069382 85.711097 
L 216.720291 79.790933 
L 217.078356 77.434233 
L 217.38748 77.155319 
L 217.748116 79.875959 
L 218.057223 83.652233 
L 218.438464 84.864833 
L 218.755966 83.711149 
L 219.075188 83.879971 
L 219.39424 86.27298 
L 220.101191 95.836043 
L 220.422967 96.373843 
L 220.744761 95.121372 
L 221.066537 92.581842 
L 221.774459 76.794758 
L 222.069432 78.304764 
L 222.423393 83.958424 
L 222.748183 84.933271 
L 223.110079 83.766747 
L 223.420293 84.874355 
L 224.10446 90.238412 
L 224.417909 91.351794 
L 224.78929 86.911902 
L 225.095655 78.937542 
L 225.45309 73.478937 
L 225.77989 73.911868 
L 226.422557 79.902806 
L 226.7835 79.804387 
L 227.430169 73.324122 
L 227.758178 75.399512 
L 228.109618 79.894389 
L 228.470425 79.449724 
L 228.779685 77.781892 
L 229.119682 77.850023 
L 229.445307 81.817667 
L 229.788795 88.497349 
L 230.127106 91.933521 
L 230.443212 88.454468 
L 231.155306 68.605929 
L 231.452527 71.050973 
L 231.777453 80.831454 
L 232.132402 87.556906 
L 232.472076 87.203225 
L 232.807322 81.598037 
L 233.162543 79.227637 
L 233.790531 90.118368 
L 234.126748 89.206184 
L 234.837769 73.287998 
L 235.142482 74.399784 
L 235.812855 83.500919 
L 236.179486 82.466664 
L 236.510968 82.345392 
L 236.842434 85.152716 
L 237.505383 94.346802 
L 237.802638 92.455593 
L 238.480231 81.196438 
L 238.838381 79.710699 
L 239.182158 81.797025 
L 239.514373 82.446821 
L 239.827601 80.768975 
L 240.171379 78.177041 
L 240.498894 76.965055 
L 241.191728 80.692304 
L 241.521355 80.007798 
L 242.185597 75.784462 
L 242.501431 75.635913 
L 242.837307 75.266751 
L 243.522529 73.116964 
L 243.84623 73.376894 
L 244.177219 74.029762 
L 244.877256 73.795941 
L 245.839265 68.190569 
L 246.209641 69.250872 
L 246.547578 69.403414 
L 247.209913 63.820404 
L 247.522716 62.804641 
L 247.849958 60.63802 
L 248.558953 52.260587 
L 248.886195 48.206751 
L 249.213421 46.069004 
L 249.551085 50.834194 
L 250.221799 72.826377 
L 250.551766 76.895511 
L 250.900584 75.88411 
L 251.2117 73.727994 
L 251.885769 62.4963 
L 252.208941 64.084205 
L 252.55134 65.182598 
L 252.885973 62.578684 
L 253.214152 57.960446 
L 253.536507 51.587507 
L 253.886109 48.02859 
L 254.237447 52.583796 
L 254.553672 61.510702 
L 254.891847 66.045757 
L 255.546077 58.641942 
L 255.926943 67.652093 
L 256.231044 79.119143 
L 256.552701 81.732027 
L 256.920319 77.637397 
L 257.219021 72.96436 
L 257.572846 69.993803 
L 258.224913 67.72219 
L 258.580372 65.310935 
L 258.937143 61.143813 
L 259.2627 54.182145 
L 259.582313 50.017541 
L 259.917151 53.807454 
L 260.613936 67.4195 
L 261.240749 71.409322 
L 261.571176 70.934001 
L 262.590725 61.823159 
L 262.954971 53.197161 
L 263.293572 38.471854 
L 263.632173 35.135269 
L 263.970757 44.100756 
L 264.252924 48.308732 
L 264.930126 41.573513 
L 265.268726 43.32035 
L 265.607327 46.346566 
L 265.945928 43.734912 
L 266.284512 35.47445 
L 266.623113 30.965505 
L 267.299156 38.772024 
L 267.633602 38.40145 
L 267.968048 42.066957 
L 268.636088 56.577119 
L 268.956179 61.529869 
L 269.296278 64.091823 
L 269.626365 63.425686 
L 269.960265 60.77201 
L 270.320561 55.532666 
L 271.280356 31.561852 
L 271.616521 34.963988 
L 271.995072 44.782068 
L 272.33655 47.2335 
L 272.621119 47.389053 
L 273.304093 55.7131 
L 273.645572 55.914483 
L 273.987051 57.638098 
L 274.335562 58.458129 
L 274.967638 52.208982 
L 275.660029 50.904537 
L 275.979592 45.106136 
L 276.319044 32.220863 
L 276.658683 28.599159 
L 277.658411 59.291431 
L 278.007365 59.216419 
L 278.672698 70.924171 
L 279.030967 71.801706 
L 279.696299 60.592927 
L 280.010089 57.361395 
L 280.348162 59.178207 
L 280.662565 61.643094 
L 281.013188 59.74396 
L 281.363828 52.93766 
L 281.714452 51.522079 
L 282.006632 54.609055 
L 282.337995 56.099402 
L 283.031902 54.39987 
L 283.358685 55.996376 
L 284.012251 63.331138 
L 284.339051 62.524929 
L 284.720292 57.517747 
L 285.047075 51.325672 
L 285.373857 47.6985 
L 285.706004 45.483837 
L 286.024324 44.845223 
L 286.395705 47.019584 
L 286.681432 50.199634 
L 287.378267 60.193048 
L 287.719763 58.625355 
L 288.061259 55.518106 
L 288.402755 55.377912 
L 288.74425 55.510734 
L 289.028836 55.837812 
L 289.370331 56.551255 
L 289.711827 54.616734 
L 290.061054 51.171962 
L 290.390272 51.418807 
L 291.387751 55.083209 
L 292.07735 51.099899 
L 292.744709 53.380359 
L 293.398496 54.262624 
L 293.71622 53.566507 
L 294.056013 49.999049 
L 294.429778 43.953804 
L 294.750141 44.033792 
L 295.070521 45.913205 
L 295.414367 44.670072 
L 295.732924 40.807482 
L 296.076055 38.270409 
L 296.427087 37.340901 
L 296.73994 34.935483 
L 297.079614 34.893953 
L 298.450586 57.874806 
L 298.771068 67.336871 
L 299.091567 69.731476 
L 299.435175 67.473993 
L 299.740518 67.589552 
L 300.103624 69.052867 
L 300.434476 64.391625 
L 300.768956 56.563972 
L 301.127208 56.043926 
L 302.087718 72.705596 
L 302.453633 71.202041 
L 302.758551 69.240735 
L 303.134207 69.981516 
L 303.453957 71.089431 
L 303.778628 71.118244 
L 304.103316 72.120675 
L 304.429162 67.387554 
L 304.769313 58.132402 
L 305.1159 58.732804 
L 305.455472 64.564564 
L 305.795043 65.21135 
L 306.437744 56.788577 
L 306.791399 58.209257 
L 307.448183 71.256534 
L 307.801837 71.559039 
L 308.155491 67.178369 
L 308.812293 65.201581 
L 309.793918 48.371211 
L 310.118368 47.395688 
L 310.46957 49.511441 
L 310.804902 53.079267 
L 311.153839 52.41829 
L 311.477846 48.447083 
L 311.806843 47.222811 
L 312.158215 46.579158 
L 312.496612 48.594097 
L 312.834991 52.663784 
L 313.173387 51.97768 
L 313.817468 43.862205 
L 314.168602 43.104713 
L 314.495078 43.446107 
L 314.849141 39.865871 
L 315.483873 28.189696 
L 315.840916 25.773036 
L 316.479241 36.760526 
L 316.834445 36.907663 
L 317.151266 35.42051 
L 318.154518 37.419537 
L 318.524146 31.726928 
L 318.840967 24.221991 
L 319.157771 22.947588 
L 319.539284 25.178408 
L 319.84427 27.640469 
L 320.200104 36.156622 
L 320.50509 46.476931 
L 321.201211 54.482008 
L 321.502689 60.272852 
L 321.84725 64.75065 
L 322.178119 63.845715 
L 322.851251 54.173728 
L 323.186719 52.179555 
L 323.514506 57.149384 
L 323.848424 65.046397 
L 324.180333 66.780394 
L 324.54056 64.398444 
L 324.848867 65.825943 
L 325.225373 71.354706 
L 325.554796 70.218408 
L 326.213657 55.313774 
L 326.890672 49.006386 
L 327.550436 34.892171 
L 327.880148 34.924302 
L 328.566272 51.817888 
L 329.23278 59.863328 
L 329.556225 64.661692 
L 330.225151 57.275878 
L 330.55333 60.636116 
L 330.915499 60.12805 
L 331.585991 44.926317 
L 331.897278 45.333691 
L 332.56634 60.089899 
L 332.926601 61.141171 
L 333.253452 61.537856 
L 333.562934 63.293724 
L 333.924012 58.784041 
L 334.558506 36.630284 
L 335.268812 28.688117 
L 335.573355 24.407217 
L 335.901432 23.523355 
L 336.268777 26.114244 
L 336.578327 27.084546 
L 337.240032 21.97317 
L 337.588374 20.791841 
L 337.907698 18.610905 
L 338.274737 17.083636 
L 338.609046 21.351082 
L 338.952892 28.832427 
L 339.268095 31.486042 
L 339.583265 28.819034 
L 339.943662 27.439516 
L 340.925441 37.702567 
L 341.964607 42.023338 
L 342.262645 39.084789 
L 342.931912 26.872411 
L 343.266357 28.347706 
L 343.619262 33.70992 
L 343.965458 35.974775 
L 344.27385 35.727807 
L 344.639186 39.539529 
L 344.93937 45.858774 
L 345.305115 45.020496 
L 345.972644 26.355622 
L 346.324697 30.992044 
L 346.626448 40.267102 
L 346.978501 43.963572 
L 347.280252 41.022811 
L 348.000945 22.57173 
L 348.325548 30.490982 
L 348.626618 43.892246 
L 348.972371 53.899975 
L 349.310256 56.278976 
L 350.631181 41.933582 
L 351.017905 36.19078 
L 351.349388 28.69039 
L 351.680871 24.837384 
L 352.333415 33.326382 
L 352.662854 33.686268 
L 353.01392 32.10082 
L 353.316965 29.571549 
L 353.68322 31.634652 
L 355.012864 57.244608 
L 355.340294 55.499184 
L 355.995188 46.911889 
L 356.685638 41.851198 
L 357.341826 40.606652 
L 357.700997 36.503422 
L 358.026282 26.535257 
L 358.370195 20.910041 
L 358.676918 23.271533 
L 359.008469 27.444554 
L 359.374384 28.575384 
L 359.685773 32.363208 
L 360.004927 41.569335 
L 360.374452 45.26513 
L 361.704402 26.010112 
L 362.026792 25.069054 
L 362.371727 30.0336 
L 363.032479 43.056303 
L 363.381331 44.31461 
L 364.050836 30.241803 
L 364.358104 35.190744 
L 364.733657 43.92069 
L 365.055569 45.814725 
L 365.735836 37.953037 
L 366.074641 38.074985 
L 366.376801 38.012445 
L 366.729297 38.060425 
L 367.081827 41.454882 
L 367.406294 43.382399 
L 367.731885 41.394799 
L 369.42196 19.448876 
L 370.065411 19.668198 
L 370.382181 20.659019 
L 370.76332 24.374595 
L 371.416681 28.974526 
L 372.070042 43.150482 
L 372.414569 42.87722 
L 373.091464 34.58512 
L 373.748981 38.922908 
L 374.0681 35.30661 
L 374.754804 17.605156 
L 375.085129 19.068042 
L 375.403125 34.03018 
L 375.403125 34.03018 
" style="fill:none;stroke:#0000ff;stroke-linecap:square;"/>
   </g>
   <g id="line2d_30">
    <path clip-path="url(#pe968a73c70)" d="M 40.603125 214.655672 
L 167.204433 214.647993 
L 245.839265 214.733571 
L 375.403125 214.716922 
L 375.403125 214.716922 
" style="fill:none;stroke:#ff0000;stroke-linecap:square;"/>
   </g>
   <g id="line2d_31">
    <path clip-path="url(#pe968a73c70)" d="M 40.603125 214.655672 
L 375.403125 214.655672 
L 375.403125 214.655672 
" style="fill:none;stroke:#0000ff;stroke-dasharray:3.7,1.6;stroke-dashoffset:0;"/>
   </g>
   <g id="line2d_32">
    <path clip-path="url(#pe968a73c70)" d="M 40.603125 214.655672 
L 375.403125 214.655672 
L 375.403125 214.655672 
" style="fill:none;stroke:#ff0000;stroke-dasharray:3.7,1.6;stroke-dashoffset:0;"/>
   </g>
   <g id="patch_3">
    <path d="M 40.603125 224.64 
L 40.603125 7.2 
" style="fill:none;stroke:#000000;stroke-linecap:square;stroke-linejoin:miter;stroke-width:0.8;"/>
   </g>
   <g id="patch_4">
    <path d="M 375.403125 224.64 
L 375.403125 7.2 
" style="fill:none;stroke:#000000;stroke-linecap:square;stroke-linejoin:miter;stroke-width:0.8;"/>
   </g>
   <g id="patch_5">
    <path d="M 40.603125 224.64 
L 375.403125 224.64 
" style="fill:none;stroke:#000000;stroke-linecap:square;stroke-linejoin:miter;stroke-width:0.8;"/>
   </g>
   <g id="patch_6">
    <path d="M 40.603125 7.2 
L 375.403125 7.2 
" style="fill:none;stroke:#000000;stroke-linecap:square;stroke-linejoin:miter;stroke-width:0.8;"/>
   </g>
   <g id="legend_1">
    <g id="patch_7">
     <path d="M 47.603125 73.9125 
L 190.114063 73.9125 
Q 192.114063 73.9125 192.114063 71.9125 
L 192.114063 14.2 
Q 192.114063 12.2 190.114063 12.2 
L 47.603125 12.2 
Q 45.603125 12.2 45.603125 14.2 
L 45.603125 71.9125 
Q 45.603125 73.9125 47.603125 73.9125 
z
" style="fill:#ffffff;opacity:0.8;stroke:#cccccc;stroke-linejoin:miter;"/>
    </g>
    <g id="line2d_33">
     <path d="M 49.603125 20.298437 
L 69.603125 20.298437 
" style="fill:none;stroke:#0000ff;stroke-linecap:square;"/>
    </g>
    <g id="line2d_34"/>
    <g id="text_17">
     <!-- back. exposed, 1 cell -->
     <g transform="translate(77.603125 23.798437)scale(0.1 -0.1)">
      <defs>
       <path d="M 3116 1747 
Q 3116 2381 2855 2742 
Q 2594 3103 2138 3103 
Q 1681 3103 1420 2742 
Q 1159 2381 1159 1747 
Q 1159 1113 1420 752 
Q 1681 391 2138 391 
Q 2594 391 2855 752 
Q 3116 1113 3116 1747 
z
M 1159 2969 
Q 1341 3281 1617 3432 
Q 1894 3584 2278 3584 
Q 2916 3584 3314 3078 
Q 3713 2572 3713 1747 
Q 3713 922 3314 415 
Q 2916 -91 2278 -91 
Q 1894 -91 1617 61 
Q 1341 213 1159 525 
L 1159 0 
L 581 0 
L 581 4863 
L 1159 4863 
L 1159 2969 
z
" id="DejaVuSans-62" transform="scale(0.015625)"/>
       <path d="M 3122 3366 
L 3122 2828 
Q 2878 2963 2633 3030 
Q 2388 3097 2138 3097 
Q 1578 3097 1268 2742 
Q 959 2388 959 1747 
Q 959 1106 1268 751 
Q 1578 397 2138 397 
Q 2388 397 2633 464 
Q 2878 531 3122 666 
L 3122 134 
Q 2881 22 2623 -34 
Q 2366 -91 2075 -91 
Q 1284 -91 818 406 
Q 353 903 353 1747 
Q 353 2603 823 3093 
Q 1294 3584 2113 3584 
Q 2378 3584 2631 3529 
Q 2884 3475 3122 3366 
z
" id="DejaVuSans-63" transform="scale(0.015625)"/>
       <path d="M 581 4863 
L 1159 4863 
L 1159 1991 
L 2875 3500 
L 3609 3500 
L 1753 1863 
L 3688 0 
L 2938 0 
L 1159 1709 
L 1159 0 
L 581 0 
L 581 4863 
z
" id="DejaVuSans-6b" transform="scale(0.015625)"/>
       <path d="M 684 794 
L 1344 794 
L 1344 0 
L 684 0 
L 684 794 
z
" id="DejaVuSans-2e" transform="scale(0.015625)"/>
       <path d="M 3513 3500 
L 2247 1797 
L 3578 0 
L 2900 0 
L 1881 1375 
L 863 0 
L 184 0 
L 1544 1831 
L 300 3500 
L 978 3500 
L 1906 2253 
L 2834 3500 
L 3513 3500 
z
" id="DejaVuSans-78" transform="scale(0.015625)"/>
       <path d="M 1959 3097 
Q 1497 3097 1228 2736 
Q 959 2375 959 1747 
Q 959 1119 1226 758 
Q 1494 397 1959 397 
Q 2419 397 2687 759 
Q 2956 1122 2956 1747 
Q 2956 2369 2687 2733 
Q 2419 3097 1959 3097 
z
M 1959 3584 
Q 2709 3584 3137 3096 
Q 3566 2609 3566 1747 
Q 3566 888 3137 398 
Q 2709 -91 1959 -91 
Q 1206 -91 779 398 
Q 353 888 353 1747 
Q 353 2609 779 3096 
Q 1206 3584 1959 3584 
z
" id="DejaVuSans-6f" transform="scale(0.015625)"/>
       <path d="M 2906 2969 
L 2906 4863 
L 3481 4863 
L 3481 0 
L 2906 0 
L 2906 525 
Q 2725 213 2448 61 
Q 2172 -91 1784 -91 
Q 1150 -91 751 415 
Q 353 922 353 1747 
Q 353 2572 751 3078 
Q 1150 3584 1784 3584 
Q 2172 3584 2448 3432 
Q 2725 3281 2906 2969 
z
M 947 1747 
Q 947 1113 1208 752 
Q 1469 391 1925 391 
Q 2381 391 2643 752 
Q 2906 1113 2906 1747 
Q 2906 2381 2643 2742 
Q 2381 3103 1925 3103 
Q 1469 3103 1208 2742 
Q 947 2381 947 1747 
z
" id="DejaVuSans-64" transform="scale(0.015625)"/>
       <path d="M 750 794 
L 1409 794 
L 1409 256 
L 897 -744 
L 494 -744 
L 750 256 
L 750 794 
z
" id="DejaVuSans-2c" transform="scale(0.015625)"/>
       <path d="M 603 4863 
L 1178 4863 
L 1178 0 
L 603 0 
L 603 4863 
z
" id="DejaVuSans-6c" transform="scale(0.015625)"/>
      </defs>
      <use xlink:href="#DejaVuSans-62"/>
      <use x="63.476562" xlink:href="#DejaVuSans-61"/>
      <use x="124.755859" xlink:href="#DejaVuSans-63"/>
      <use x="179.736328" xlink:href="#DejaVuSans-6b"/>
      <use x="237.646484" xlink:href="#DejaVuSans-2e"/>
      <use x="269.433594" xlink:href="#DejaVuSans-20"/>
      <use x="301.220703" xlink:href="#DejaVuSans-65"/>
      <use x="360.994141" xlink:href="#DejaVuSans-78"/>
      <use x="420.173828" xlink:href="#DejaVuSans-70"/>
      <use x="483.650391" xlink:href="#DejaVuSans-6f"/>
      <use x="544.832031" xlink:href="#DejaVuSans-73"/>
      <use x="596.931641" xlink:href="#DejaVuSans-65"/>
      <use x="658.455078" xlink:href="#DejaVuSans-64"/>
      <use x="721.931641" xlink:href="#DejaVuSans-2c"/>
      <use x="753.71875" xlink:href="#DejaVuSans-20"/>
      <use x="785.505859" xlink:href="#DejaVuSans-31"/>
      <use x="849.128906" xlink:href="#DejaVuSans-20"/>
      <use x="880.916016" xlink:href="#DejaVuSans-63"/>
      <use x="935.896484" xlink:href="#DejaVuSans-65"/>
      <use x="997.419922" xlink:href="#DejaVuSans-6c"/>
      <use x="1025.203125" xlink:href="#DejaVuSans-6c"/>
     </g>
    </g>
    <g id="line2d_35">
     <path d="M 49.603125 34.976562 
L 69.603125 34.976562 
" style="fill:none;stroke:#ff0000;stroke-linecap:square;"/>
    </g>
    <g id="line2d_36"/>
    <g id="text_18">
     <!-- back. void, 1 cell -->
     <g transform="translate(77.603125 38.476562)scale(0.1 -0.1)">
      <defs>
       <path d="M 191 3500 
L 800 3500 
L 1894 563 
L 2988 3500 
L 3597 3500 
L 2284 0 
L 1503 0 
L 191 3500 
z
" id="DejaVuSans-76" transform="scale(0.015625)"/>
      </defs>
      <use xlink:href="#DejaVuSans-62"/>
      <use x="63.476562" xlink:href="#DejaVuSans-61"/>
      <use x="124.755859" xlink:href="#DejaVuSans-63"/>
      <use x="179.736328" xlink:href="#DejaVuSans-6b"/>
      <use x="237.646484" xlink:href="#DejaVuSans-2e"/>
      <use x="269.433594" xlink:href="#DejaVuSans-20"/>
      <use x="301.220703" xlink:href="#DejaVuSans-76"/>
      <use x="360.400391" xlink:href="#DejaVuSans-6f"/>
      <use x="421.582031" xlink:href="#DejaVuSans-69"/>
      <use x="449.365234" xlink:href="#DejaVuSans-64"/>
      <use x="512.841797" xlink:href="#DejaVuSans-2c"/>
      <use x="544.628906" xlink:href="#DejaVuSans-20"/>
      <use x="576.416016" xlink:href="#DejaVuSans-31"/>
      <use x="640.039062" xlink:href="#DejaVuSans-20"/>
      <use x="671.826172" xlink:href="#DejaVuSans-63"/>
      <use x="726.806641" xlink:href="#DejaVuSans-65"/>
      <use x="788.330078" xlink:href="#DejaVuSans-6c"/>
      <use x="816.113281" xlink:href="#DejaVuSans-6c"/>
     </g>
    </g>
    <g id="line2d_37">
     <path d="M 49.603125 49.654687 
L 69.603125 49.654687 
" style="fill:none;stroke:#0000ff;stroke-dasharray:3.7,1.6;stroke-dashoffset:0;"/>
    </g>
    <g id="line2d_38"/>
    <g id="text_19">
     <!-- back. exposed, 2 cells -->
     <g transform="translate(77.603125 53.154687)scale(0.1 -0.1)">
      <use xlink:href="#DejaVuSans-62"/>
      <use x="63.476562" xlink:href="#DejaVuSans-61"/>
      <use x="124.755859" xlink:href="#DejaVuSans-63"/>
      <use x="179.736328" xlink:href="#DejaVuSans-6b"/>
      <use x="237.646484" xlink:href="#DejaVuSans-2e"/>
      <use x="269.433594" xlink:href="#DejaVuSans-20"/>
      <use x="301.220703" xlink:href="#DejaVuSans-65"/>
      <use x="360.994141" xlink:href="#DejaVuSans-78"/>
      <use x="420.173828" xlink:href="#DejaVuSans-70"/>
      <use x="483.650391" xlink:href="#DejaVuSans-6f"/>
      <use x="544.832031" xlink:href="#DejaVuSans-73"/>
      <use x="596.931641" xlink:href="#DejaVuSans-65"/>
      <use x="658.455078" xlink:href="#DejaVuSans-64"/>
      <use x="721.931641" xlink:href="#DejaVuSans-2c"/>
      <use x="753.71875" xlink:href="#DejaVuSans-20"/>
      <use x="785.505859" xlink:href="#DejaVuSans-32"/>
      <use x="849.128906" xlink:href="#DejaVuSans-20"/>
      <use x="880.916016" xlink:href="#DejaVuSans-63"/>
      <use x="935.896484" xlink:href="#DejaVuSans-65"/>
      <use x="997.419922" xlink:href="#DejaVuSans-6c"/>
      <use x="1025.203125" xlink:href="#DejaVuSans-6c"/>
      <use x="1052.986328" xlink:href="#DejaVuSans-73"/>
     </g>
    </g>
    <g id="line2d_39">
     <path d="M 49.603125 64.332812 
L 69.603125 64.332812 
" style="fill:none;stroke:#ff0000;stroke-dasharray:3.7,1.6;stroke-dashoffset:0;"/>
    </g>
    <g id="line2d_40"/>
    <g id="text_20">
     <!-- back. void, 2 cells -->
     <g transform="translate(77.603125 67.832812)scale(0.1 -0.1)">
      <use xlink:href="#DejaVuSans-62"/>
      <use x="63.476562" xlink:href="#DejaVuSans-61"/>
      <use x="124.755859" xlink:href="#DejaVuSans-63"/>
      <use x="179.736328" xlink:href="#DejaVuSans-6b"/>
      <use x="237.646484" xlink:href="#DejaVuSans-2e"/>
      <use x="269.433594" xlink:href="#DejaVuSans-20"/>
      <use x="301.220703" xlink:href="#DejaVuSans-76"/>
      <use x="360.400391" xlink:href="#DejaVuSans-6f"/>
      <use x="421.582031" xlink:href="#DejaVuSans-69"/>
      <use x="449.365234" xlink:href="#DejaVuSans-64"/>
      <use x="512.841797" xlink:href="#DejaVuSans-2c"/>
      <use x="544.628906" xlink:href="#DejaVuSans-20"/>
      <use x="576.416016" xlink:href="#DejaVuSans-32"/>
      <use x="640.039062" xlink:href="#DejaVuSans-20"/>
      <use x="671.826172" xlink:href="#DejaVuSans-63"/>
      <use x="726.806641" xlink:href="#DejaVuSans-65"/>
      <use x="788.330078" xlink:href="#DejaVuSans-6c"/>
      <use x="816.113281" xlink:href="#DejaVuSans-6c"/>
      <use x="843.896484" xlink:href="#DejaVuSans-73"/>
     </g>
    </g>
   </g>
  </g>
 </g>
 <defs>
  <clipPath id="pe968a73c70">
   <rect height="217.44" width="334.8" x="40.603125" y="7.2"/>
  </clipPath>
 </defs>
</svg>
