<?xml version="1.0" encoding="utf-8" standalone="no"?>
<!DOCTYPE svg PUBLIC "-//W3C//DTD SVG 1.1//EN"
  "http://www.w3.org/Graphics/SVG/1.1/DTD/svg11.dtd">
<svg height="262.19625pt" version="1.1" viewBox="0 0 443.515138 262.19625" width="443.515138pt" xmlns="http://www.w3.org/2000/svg" xmlns:xlink="http://www.w3.org/1999/xlink">
 <metadata>
  <rdf:RDF xmlns:cc="http://creativecommons.org/ns#" xmlns:dc="http://purl.org/dc/elements/1.1/" xmlns:rdf="http://www.w3.org/1999/02/22-rdf-syntax-ns#">
   <cc:Work>
    <dc:type rdf:resource="http://purl.org/dc/dcmitype/StillImage"/>
    <dc:date>2021-05-19T11:44:36.246058</dc:date>
    <dc:format>image/svg+xml</dc:format>
    <dc:creator>
     <cc:Agent>
      <dc:title>Matplotlib v3.4.1, https://matplotlib.org/</dc:title>
     </cc:Agent>
    </dc:creator>
   </cc:Work>
  </rdf:RDF>
 </metadata>
 <defs>
  <style type="text/css">*{stroke-linecap:butt;stroke-linejoin:round;}</style>
 </defs>
 <g id="figure_1">
  <g id="patch_1">
   <path d="M 0 262.19625 
L 443.515138 262.19625 
L 443.515138 0 
L 0 0 
z
" style="fill:none;"/>
  </g>
  <g id="axes_1">
   <g id="patch_2">
    <path d="M 53.328125 224.64 
L 388.128125 224.64 
L 388.128125 7.2 
L 53.328125 7.2 
z
" style="fill:#ffffff;"/>
   </g>
   <g id="matplotlib.axis_1">
    <g id="xtick_1">
     <g id="line2d_1">
      <path clip-path="url(#p8dbfd51966)" d="M 103.761256 224.64 
L 103.761256 7.2 
" style="fill:none;stroke:#b0b0b0;stroke-dasharray:2.96,1.28;stroke-dashoffset:0;stroke-opacity:0.5;stroke-width:0.8;"/>
     </g>
     <g id="line2d_2">
      <defs>
       <path d="M 0 0 
L 0 3.5 
" id="m62ba75ba94" style="stroke:#000000;stroke-width:0.8;"/>
      </defs>
      <g>
       <use style="stroke:#000000;stroke-width:0.8;" x="103.761256" xlink:href="#m62ba75ba94" y="224.64"/>
      </g>
     </g>
     <g id="text_1">
      <!-- 5 -->
      <g transform="translate(100.580006 239.238437)scale(0.1 -0.1)">
       <defs>
        <path d="M 691 4666 
L 3169 4666 
L 3169 4134 
L 1269 4134 
L 1269 2991 
Q 1406 3038 1543 3061 
Q 1681 3084 1819 3084 
Q 2600 3084 3056 2656 
Q 3513 2228 3513 1497 
Q 3513 744 3044 326 
Q 2575 -91 1722 -91 
Q 1428 -91 1123 -41 
Q 819 9 494 109 
L 494 744 
Q 775 591 1075 516 
Q 1375 441 1709 441 
Q 2250 441 2565 725 
Q 2881 1009 2881 1497 
Q 2881 1984 2565 2268 
Q 2250 2553 1709 2553 
Q 1456 2553 1204 2497 
Q 953 2441 691 2322 
L 691 4666 
z
" id="DejaVuSans-35" transform="scale(0.015625)"/>
       </defs>
       <use xlink:href="#DejaVuSans-35"/>
      </g>
     </g>
    </g>
    <g id="xtick_2">
     <g id="line2d_3">
      <path clip-path="url(#p8dbfd51966)" d="M 160.972032 224.64 
L 160.972032 7.2 
" style="fill:none;stroke:#b0b0b0;stroke-dasharray:2.96,1.28;stroke-dashoffset:0;stroke-opacity:0.5;stroke-width:0.8;"/>
     </g>
     <g id="line2d_4">
      <g>
       <use style="stroke:#000000;stroke-width:0.8;" x="160.972032" xlink:href="#m62ba75ba94" y="224.64"/>
      </g>
     </g>
     <g id="text_2">
      <!-- 10 -->
      <g transform="translate(154.609532 239.238437)scale(0.1 -0.1)">
       <defs>
        <path d="M 794 531 
L 1825 531 
L 1825 4091 
L 703 3866 
L 703 4441 
L 1819 4666 
L 2450 4666 
L 2450 531 
L 3481 531 
L 3481 0 
L 794 0 
L 794 531 
z
" id="DejaVuSans-31" transform="scale(0.015625)"/>
        <path d="M 2034 4250 
Q 1547 4250 1301 3770 
Q 1056 3291 1056 2328 
Q 1056 1369 1301 889 
Q 1547 409 2034 409 
Q 2525 409 2770 889 
Q 3016 1369 3016 2328 
Q 3016 3291 2770 3770 
Q 2525 4250 2034 4250 
z
M 2034 4750 
Q 2819 4750 3233 4129 
Q 3647 3509 3647 2328 
Q 3647 1150 3233 529 
Q 2819 -91 2034 -91 
Q 1250 -91 836 529 
Q 422 1150 422 2328 
Q 422 3509 836 4129 
Q 1250 4750 2034 4750 
z
" id="DejaVuSans-30" transform="scale(0.015625)"/>
       </defs>
       <use xlink:href="#DejaVuSans-31"/>
       <use x="63.623047" xlink:href="#DejaVuSans-30"/>
      </g>
     </g>
    </g>
    <g id="xtick_3">
     <g id="line2d_5">
      <path clip-path="url(#p8dbfd51966)" d="M 218.182809 224.64 
L 218.182809 7.2 
" style="fill:none;stroke:#b0b0b0;stroke-dasharray:2.96,1.28;stroke-dashoffset:0;stroke-opacity:0.5;stroke-width:0.8;"/>
     </g>
     <g id="line2d_6">
      <g>
       <use style="stroke:#000000;stroke-width:0.8;" x="218.182809" xlink:href="#m62ba75ba94" y="224.64"/>
      </g>
     </g>
     <g id="text_3">
      <!-- 15 -->
      <g transform="translate(211.820309 239.238437)scale(0.1 -0.1)">
       <use xlink:href="#DejaVuSans-31"/>
       <use x="63.623047" xlink:href="#DejaVuSans-35"/>
      </g>
     </g>
    </g>
    <g id="xtick_4">
     <g id="line2d_7">
      <path clip-path="url(#p8dbfd51966)" d="M 275.393585 224.64 
L 275.393585 7.2 
" style="fill:none;stroke:#b0b0b0;stroke-dasharray:2.96,1.28;stroke-dashoffset:0;stroke-opacity:0.5;stroke-width:0.8;"/>
     </g>
     <g id="line2d_8">
      <g>
       <use style="stroke:#000000;stroke-width:0.8;" x="275.393585" xlink:href="#m62ba75ba94" y="224.64"/>
      </g>
     </g>
     <g id="text_4">
      <!-- 20 -->
      <g transform="translate(269.031085 239.238437)scale(0.1 -0.1)">
       <defs>
        <path d="M 1228 531 
L 3431 531 
L 3431 0 
L 469 0 
L 469 531 
Q 828 903 1448 1529 
Q 2069 2156 2228 2338 
Q 2531 2678 2651 2914 
Q 2772 3150 2772 3378 
Q 2772 3750 2511 3984 
Q 2250 4219 1831 4219 
Q 1534 4219 1204 4116 
Q 875 4013 500 3803 
L 500 4441 
Q 881 4594 1212 4672 
Q 1544 4750 1819 4750 
Q 2544 4750 2975 4387 
Q 3406 4025 3406 3419 
Q 3406 3131 3298 2873 
Q 3191 2616 2906 2266 
Q 2828 2175 2409 1742 
Q 1991 1309 1228 531 
z
" id="DejaVuSans-32" transform="scale(0.015625)"/>
       </defs>
       <use xlink:href="#DejaVuSans-32"/>
       <use x="63.623047" xlink:href="#DejaVuSans-30"/>
      </g>
     </g>
    </g>
    <g id="xtick_5">
     <g id="line2d_9">
      <path clip-path="url(#p8dbfd51966)" d="M 332.604361 224.64 
L 332.604361 7.2 
" style="fill:none;stroke:#b0b0b0;stroke-dasharray:2.96,1.28;stroke-dashoffset:0;stroke-opacity:0.5;stroke-width:0.8;"/>
     </g>
     <g id="line2d_10">
      <g>
       <use style="stroke:#000000;stroke-width:0.8;" x="332.604361" xlink:href="#m62ba75ba94" y="224.64"/>
      </g>
     </g>
     <g id="text_5">
      <!-- 25 -->
      <g transform="translate(326.241861 239.238437)scale(0.1 -0.1)">
       <use xlink:href="#DejaVuSans-32"/>
       <use x="63.623047" xlink:href="#DejaVuSans-35"/>
      </g>
     </g>
    </g>
    <g id="text_6">
     <!-- Time / s -->
     <g transform="translate(201.027344 252.916562)scale(0.1 -0.1)">
      <defs>
       <path d="M -19 4666 
L 3928 4666 
L 3928 4134 
L 2272 4134 
L 2272 0 
L 1638 0 
L 1638 4134 
L -19 4134 
L -19 4666 
z
" id="DejaVuSans-54" transform="scale(0.015625)"/>
       <path d="M 603 3500 
L 1178 3500 
L 1178 0 
L 603 0 
L 603 3500 
z
M 603 4863 
L 1178 4863 
L 1178 4134 
L 603 4134 
L 603 4863 
z
" id="DejaVuSans-69" transform="scale(0.015625)"/>
       <path d="M 3328 2828 
Q 3544 3216 3844 3400 
Q 4144 3584 4550 3584 
Q 5097 3584 5394 3201 
Q 5691 2819 5691 2113 
L 5691 0 
L 5113 0 
L 5113 2094 
Q 5113 2597 4934 2840 
Q 4756 3084 4391 3084 
Q 3944 3084 3684 2787 
Q 3425 2491 3425 1978 
L 3425 0 
L 2847 0 
L 2847 2094 
Q 2847 2600 2669 2842 
Q 2491 3084 2119 3084 
Q 1678 3084 1418 2786 
Q 1159 2488 1159 1978 
L 1159 0 
L 581 0 
L 581 3500 
L 1159 3500 
L 1159 2956 
Q 1356 3278 1631 3431 
Q 1906 3584 2284 3584 
Q 2666 3584 2933 3390 
Q 3200 3197 3328 2828 
z
" id="DejaVuSans-6d" transform="scale(0.015625)"/>
       <path d="M 3597 1894 
L 3597 1613 
L 953 1613 
Q 991 1019 1311 708 
Q 1631 397 2203 397 
Q 2534 397 2845 478 
Q 3156 559 3463 722 
L 3463 178 
Q 3153 47 2828 -22 
Q 2503 -91 2169 -91 
Q 1331 -91 842 396 
Q 353 884 353 1716 
Q 353 2575 817 3079 
Q 1281 3584 2069 3584 
Q 2775 3584 3186 3129 
Q 3597 2675 3597 1894 
z
M 3022 2063 
Q 3016 2534 2758 2815 
Q 2500 3097 2075 3097 
Q 1594 3097 1305 2825 
Q 1016 2553 972 2059 
L 3022 2063 
z
" id="DejaVuSans-65" transform="scale(0.015625)"/>
       <path id="DejaVuSans-20" transform="scale(0.015625)"/>
       <path d="M 1625 4666 
L 2156 4666 
L 531 -594 
L 0 -594 
L 1625 4666 
z
" id="DejaVuSans-2f" transform="scale(0.015625)"/>
       <path d="M 2834 3397 
L 2834 2853 
Q 2591 2978 2328 3040 
Q 2066 3103 1784 3103 
Q 1356 3103 1142 2972 
Q 928 2841 928 2578 
Q 928 2378 1081 2264 
Q 1234 2150 1697 2047 
L 1894 2003 
Q 2506 1872 2764 1633 
Q 3022 1394 3022 966 
Q 3022 478 2636 193 
Q 2250 -91 1575 -91 
Q 1294 -91 989 -36 
Q 684 19 347 128 
L 347 722 
Q 666 556 975 473 
Q 1284 391 1588 391 
Q 1994 391 2212 530 
Q 2431 669 2431 922 
Q 2431 1156 2273 1281 
Q 2116 1406 1581 1522 
L 1381 1569 
Q 847 1681 609 1914 
Q 372 2147 372 2553 
Q 372 3047 722 3315 
Q 1072 3584 1716 3584 
Q 2034 3584 2315 3537 
Q 2597 3491 2834 3397 
z
" id="DejaVuSans-73" transform="scale(0.015625)"/>
      </defs>
      <use xlink:href="#DejaVuSans-54"/>
      <use x="57.958984" xlink:href="#DejaVuSans-69"/>
      <use x="85.742188" xlink:href="#DejaVuSans-6d"/>
      <use x="183.154297" xlink:href="#DejaVuSans-65"/>
      <use x="244.677734" xlink:href="#DejaVuSans-20"/>
      <use x="276.464844" xlink:href="#DejaVuSans-2f"/>
      <use x="310.15625" xlink:href="#DejaVuSans-20"/>
      <use x="341.943359" xlink:href="#DejaVuSans-73"/>
     </g>
    </g>
   </g>
   <g id="matplotlib.axis_2">
    <g id="ytick_1">
     <g id="line2d_11">
      <path clip-path="url(#p8dbfd51966)" d="M 53.328125 200.593165 
L 388.128125 200.593165 
" style="fill:none;stroke:#b0b0b0;stroke-dasharray:2.96,1.28;stroke-dashoffset:0;stroke-opacity:0.5;stroke-width:0.8;"/>
     </g>
     <g id="line2d_12">
      <defs>
       <path d="M 0 0 
L -3.5 0 
" id="m18b38f5ba5" style="stroke:#000000;stroke-width:0.8;"/>
      </defs>
      <g>
       <use style="stroke:#000000;stroke-width:0.8;" x="53.328125" xlink:href="#m18b38f5ba5" y="200.593165"/>
      </g>
     </g>
     <g id="text_7">
      <!-- 200 -->
      <g transform="translate(27.240625 204.392384)scale(0.1 -0.1)">
       <use xlink:href="#DejaVuSans-32"/>
       <use x="63.623047" xlink:href="#DejaVuSans-30"/>
       <use x="127.246094" xlink:href="#DejaVuSans-30"/>
      </g>
     </g>
    </g>
    <g id="ytick_2">
     <g id="line2d_13">
      <path clip-path="url(#p8dbfd51966)" d="M 53.328125 166.098893 
L 388.128125 166.098893 
" style="fill:none;stroke:#b0b0b0;stroke-dasharray:2.96,1.28;stroke-dashoffset:0;stroke-opacity:0.5;stroke-width:0.8;"/>
     </g>
     <g id="line2d_14">
      <g>
       <use style="stroke:#000000;stroke-width:0.8;" x="53.328125" xlink:href="#m18b38f5ba5" y="166.098893"/>
      </g>
     </g>
     <g id="text_8">
      <!-- 400 -->
      <g transform="translate(27.240625 169.898112)scale(0.1 -0.1)">
       <defs>
        <path d="M 2419 4116 
L 825 1625 
L 2419 1625 
L 2419 4116 
z
M 2253 4666 
L 3047 4666 
L 3047 1625 
L 3713 1625 
L 3713 1100 
L 3047 1100 
L 3047 0 
L 2419 0 
L 2419 1100 
L 313 1100 
L 313 1709 
L 2253 4666 
z
" id="DejaVuSans-34" transform="scale(0.015625)"/>
       </defs>
       <use xlink:href="#DejaVuSans-34"/>
       <use x="63.623047" xlink:href="#DejaVuSans-30"/>
       <use x="127.246094" xlink:href="#DejaVuSans-30"/>
      </g>
     </g>
    </g>
    <g id="ytick_3">
     <g id="line2d_15">
      <path clip-path="url(#p8dbfd51966)" d="M 53.328125 131.604621 
L 388.128125 131.604621 
" style="fill:none;stroke:#b0b0b0;stroke-dasharray:2.96,1.28;stroke-dashoffset:0;stroke-opacity:0.5;stroke-width:0.8;"/>
     </g>
     <g id="line2d_16">
      <g>
       <use style="stroke:#000000;stroke-width:0.8;" x="53.328125" xlink:href="#m18b38f5ba5" y="131.604621"/>
      </g>
     </g>
     <g id="text_9">
      <!-- 600 -->
      <g transform="translate(27.240625 135.403839)scale(0.1 -0.1)">
       <defs>
        <path d="M 2113 2584 
Q 1688 2584 1439 2293 
Q 1191 2003 1191 1497 
Q 1191 994 1439 701 
Q 1688 409 2113 409 
Q 2538 409 2786 701 
Q 3034 994 3034 1497 
Q 3034 2003 2786 2293 
Q 2538 2584 2113 2584 
z
M 3366 4563 
L 3366 3988 
Q 3128 4100 2886 4159 
Q 2644 4219 2406 4219 
Q 1781 4219 1451 3797 
Q 1122 3375 1075 2522 
Q 1259 2794 1537 2939 
Q 1816 3084 2150 3084 
Q 2853 3084 3261 2657 
Q 3669 2231 3669 1497 
Q 3669 778 3244 343 
Q 2819 -91 2113 -91 
Q 1303 -91 875 529 
Q 447 1150 447 2328 
Q 447 3434 972 4092 
Q 1497 4750 2381 4750 
Q 2619 4750 2861 4703 
Q 3103 4656 3366 4563 
z
" id="DejaVuSans-36" transform="scale(0.015625)"/>
       </defs>
       <use xlink:href="#DejaVuSans-36"/>
       <use x="63.623047" xlink:href="#DejaVuSans-30"/>
       <use x="127.246094" xlink:href="#DejaVuSans-30"/>
      </g>
     </g>
    </g>
    <g id="ytick_4">
     <g id="line2d_17">
      <path clip-path="url(#p8dbfd51966)" d="M 53.328125 97.110348 
L 388.128125 97.110348 
" style="fill:none;stroke:#b0b0b0;stroke-dasharray:2.96,1.28;stroke-dashoffset:0;stroke-opacity:0.5;stroke-width:0.8;"/>
     </g>
     <g id="line2d_18">
      <g>
       <use style="stroke:#000000;stroke-width:0.8;" x="53.328125" xlink:href="#m18b38f5ba5" y="97.110348"/>
      </g>
     </g>
     <g id="text_10">
      <!-- 800 -->
      <g transform="translate(27.240625 100.909567)scale(0.1 -0.1)">
       <defs>
        <path d="M 2034 2216 
Q 1584 2216 1326 1975 
Q 1069 1734 1069 1313 
Q 1069 891 1326 650 
Q 1584 409 2034 409 
Q 2484 409 2743 651 
Q 3003 894 3003 1313 
Q 3003 1734 2745 1975 
Q 2488 2216 2034 2216 
z
M 1403 2484 
Q 997 2584 770 2862 
Q 544 3141 544 3541 
Q 544 4100 942 4425 
Q 1341 4750 2034 4750 
Q 2731 4750 3128 4425 
Q 3525 4100 3525 3541 
Q 3525 3141 3298 2862 
Q 3072 2584 2669 2484 
Q 3125 2378 3379 2068 
Q 3634 1759 3634 1313 
Q 3634 634 3220 271 
Q 2806 -91 2034 -91 
Q 1263 -91 848 271 
Q 434 634 434 1313 
Q 434 1759 690 2068 
Q 947 2378 1403 2484 
z
M 1172 3481 
Q 1172 3119 1398 2916 
Q 1625 2713 2034 2713 
Q 2441 2713 2670 2916 
Q 2900 3119 2900 3481 
Q 2900 3844 2670 4047 
Q 2441 4250 2034 4250 
Q 1625 4250 1398 4047 
Q 1172 3844 1172 3481 
z
" id="DejaVuSans-38" transform="scale(0.015625)"/>
       </defs>
       <use xlink:href="#DejaVuSans-38"/>
       <use x="63.623047" xlink:href="#DejaVuSans-30"/>
       <use x="127.246094" xlink:href="#DejaVuSans-30"/>
      </g>
     </g>
    </g>
    <g id="ytick_5">
     <g id="line2d_19">
      <path clip-path="url(#p8dbfd51966)" d="M 53.328125 62.616076 
L 388.128125 62.616076 
" style="fill:none;stroke:#b0b0b0;stroke-dasharray:2.96,1.28;stroke-dashoffset:0;stroke-opacity:0.5;stroke-width:0.8;"/>
     </g>
     <g id="line2d_20">
      <g>
       <use style="stroke:#000000;stroke-width:0.8;" x="53.328125" xlink:href="#m18b38f5ba5" y="62.616076"/>
      </g>
     </g>
     <g id="text_11">
      <!-- 1000 -->
      <g transform="translate(20.878125 66.415295)scale(0.1 -0.1)">
       <use xlink:href="#DejaVuSans-31"/>
       <use x="63.623047" xlink:href="#DejaVuSans-30"/>
       <use x="127.246094" xlink:href="#DejaVuSans-30"/>
       <use x="190.869141" xlink:href="#DejaVuSans-30"/>
      </g>
     </g>
    </g>
    <g id="ytick_6">
     <g id="line2d_21">
      <path clip-path="url(#p8dbfd51966)" d="M 53.328125 28.121804 
L 388.128125 28.121804 
" style="fill:none;stroke:#b0b0b0;stroke-dasharray:2.96,1.28;stroke-dashoffset:0;stroke-opacity:0.5;stroke-width:0.8;"/>
     </g>
     <g id="line2d_22">
      <g>
       <use style="stroke:#000000;stroke-width:0.8;" x="53.328125" xlink:href="#m18b38f5ba5" y="28.121804"/>
      </g>
     </g>
     <g id="text_12">
      <!-- 1200 -->
      <g transform="translate(20.878125 31.921022)scale(0.1 -0.1)">
       <use xlink:href="#DejaVuSans-31"/>
       <use x="63.623047" xlink:href="#DejaVuSans-32"/>
       <use x="127.246094" xlink:href="#DejaVuSans-30"/>
       <use x="190.869141" xlink:href="#DejaVuSans-30"/>
      </g>
     </g>
    </g>
    <g id="text_13">
     <!-- Temperature / $\sf ^\circ C$ -->
     <g transform="translate(14.778125 160.67)rotate(-90)scale(0.1 -0.1)">
      <defs>
       <path d="M 1159 525 
L 1159 -1331 
L 581 -1331 
L 581 3500 
L 1159 3500 
L 1159 2969 
Q 1341 3281 1617 3432 
Q 1894 3584 2278 3584 
Q 2916 3584 3314 3078 
Q 3713 2572 3713 1747 
Q 3713 922 3314 415 
Q 2916 -91 2278 -91 
Q 1894 -91 1617 61 
Q 1341 213 1159 525 
z
M 3116 1747 
Q 3116 2381 2855 2742 
Q 2594 3103 2138 3103 
Q 1681 3103 1420 2742 
Q 1159 2381 1159 1747 
Q 1159 1113 1420 752 
Q 1681 391 2138 391 
Q 2594 391 2855 752 
Q 3116 1113 3116 1747 
z
" id="DejaVuSans-70" transform="scale(0.015625)"/>
       <path d="M 2631 2963 
Q 2534 3019 2420 3045 
Q 2306 3072 2169 3072 
Q 1681 3072 1420 2755 
Q 1159 2438 1159 1844 
L 1159 0 
L 581 0 
L 581 3500 
L 1159 3500 
L 1159 2956 
Q 1341 3275 1631 3429 
Q 1922 3584 2338 3584 
Q 2397 3584 2469 3576 
Q 2541 3569 2628 3553 
L 2631 2963 
z
" id="DejaVuSans-72" transform="scale(0.015625)"/>
       <path d="M 2194 1759 
Q 1497 1759 1228 1600 
Q 959 1441 959 1056 
Q 959 750 1161 570 
Q 1363 391 1709 391 
Q 2188 391 2477 730 
Q 2766 1069 2766 1631 
L 2766 1759 
L 2194 1759 
z
M 3341 1997 
L 3341 0 
L 2766 0 
L 2766 531 
Q 2569 213 2275 61 
Q 1981 -91 1556 -91 
Q 1019 -91 701 211 
Q 384 513 384 1019 
Q 384 1609 779 1909 
Q 1175 2209 1959 2209 
L 2766 2209 
L 2766 2266 
Q 2766 2663 2505 2880 
Q 2244 3097 1772 3097 
Q 1472 3097 1187 3025 
Q 903 2953 641 2809 
L 641 3341 
Q 956 3463 1253 3523 
Q 1550 3584 1831 3584 
Q 2591 3584 2966 3190 
Q 3341 2797 3341 1997 
z
" id="DejaVuSans-61" transform="scale(0.015625)"/>
       <path d="M 1172 4494 
L 1172 3500 
L 2356 3500 
L 2356 3053 
L 1172 3053 
L 1172 1153 
Q 1172 725 1289 603 
Q 1406 481 1766 481 
L 2356 481 
L 2356 0 
L 1766 0 
Q 1100 0 847 248 
Q 594 497 594 1153 
L 594 3053 
L 172 3053 
L 172 3500 
L 594 3500 
L 594 4494 
L 1172 4494 
z
" id="DejaVuSans-74" transform="scale(0.015625)"/>
       <path d="M 544 1381 
L 544 3500 
L 1119 3500 
L 1119 1403 
Q 1119 906 1312 657 
Q 1506 409 1894 409 
Q 2359 409 2629 706 
Q 2900 1003 2900 1516 
L 2900 3500 
L 3475 3500 
L 3475 0 
L 2900 0 
L 2900 538 
Q 2691 219 2414 64 
Q 2138 -91 1772 -91 
Q 1169 -91 856 284 
Q 544 659 544 1381 
z
M 1991 3584 
L 1991 3584 
z
" id="DejaVuSans-75" transform="scale(0.015625)"/>
       <path d="M 2000 2619 
Q 1750 2619 1578 2445 
Q 1406 2272 1406 2022 
Q 1406 1775 1578 1605 
Q 1750 1435 2000 1435 
Q 2250 1435 2422 1605 
Q 2594 1775 2594 2022 
Q 2594 2269 2420 2444 
Q 2247 2619 2000 2619 
z
M 2000 3022 
Q 2200 3022 2384 2945 
Q 2569 2869 2703 2725 
Q 2847 2585 2919 2406 
Q 2991 2228 2991 2022 
Q 2991 1610 2702 1324 
Q 2413 1038 1994 1038 
Q 1572 1038 1290 1319 
Q 1009 1600 1009 2022 
Q 1009 2441 1296 2731 
Q 1584 3022 2000 3022 
z
" id="DejaVuSans-2218" transform="scale(0.015625)"/>
       <path d="M 4122 4306 
L 4122 3641 
Q 3803 3938 3442 4084 
Q 3081 4231 2675 4231 
Q 1875 4231 1450 3742 
Q 1025 3253 1025 2328 
Q 1025 1406 1450 917 
Q 1875 428 2675 428 
Q 3081 428 3442 575 
Q 3803 722 4122 1019 
L 4122 359 
Q 3791 134 3420 21 
Q 3050 -91 2638 -91 
Q 1578 -91 968 557 
Q 359 1206 359 2328 
Q 359 3453 968 4101 
Q 1578 4750 2638 4750 
Q 3056 4750 3426 4639 
Q 3797 4528 4122 4306 
z
" id="DejaVuSans-43" transform="scale(0.015625)"/>
      </defs>
      <use transform="translate(0 0.78125)" xlink:href="#DejaVuSans-54"/>
      <use transform="translate(61.083984 0.78125)" xlink:href="#DejaVuSans-65"/>
      <use transform="translate(122.607422 0.78125)" xlink:href="#DejaVuSans-6d"/>
      <use transform="translate(220.019531 0.78125)" xlink:href="#DejaVuSans-70"/>
      <use transform="translate(283.496094 0.78125)" xlink:href="#DejaVuSans-65"/>
      <use transform="translate(345.019531 0.78125)" xlink:href="#DejaVuSans-72"/>
      <use transform="translate(386.132812 0.78125)" xlink:href="#DejaVuSans-61"/>
      <use transform="translate(447.412109 0.78125)" xlink:href="#DejaVuSans-74"/>
      <use transform="translate(486.621094 0.78125)" xlink:href="#DejaVuSans-75"/>
      <use transform="translate(550 0.78125)" xlink:href="#DejaVuSans-72"/>
      <use transform="translate(591.113281 0.78125)" xlink:href="#DejaVuSans-65"/>
      <use transform="translate(652.636719 0.78125)" xlink:href="#DejaVuSans-20"/>
      <use transform="translate(684.423828 0.78125)" xlink:href="#DejaVuSans-2f"/>
      <use transform="translate(718.115234 0.78125)" xlink:href="#DejaVuSans-20"/>
      <use transform="translate(764.49707 39.0625)scale(0.7)" xlink:href="#DejaVuSans-2218"/>
      <use transform="translate(824.6875 0.78125)" xlink:href="#DejaVuSans-43"/>
     </g>
    </g>
   </g>
   <g id="line2d_23">
    <path clip-path="url(#p8dbfd51966)" d="M 68.546307 151.12973 
L 69.226426 148.172863 
L 73.909985 122.063375 
L 76.142109 112.94072 
L 76.394172 112.625633 
L 76.646974 112.49479 
L 76.900309 112.504121 
L 77.155893 112.284889 
L 77.669483 110.767132 
L 79.241969 104.251472 
L 80.312999 100.028569 
L 81.127615 97.78347 
L 81.402275 97.272249 
L 81.677535 97.016471 
L 81.953395 97.099905 
L 82.231732 97.399727 
L 83.074494 98.834594 
L 83.647165 99.206049 
L 84.226408 99.01916 
L 84.51885 98.82169 
L 85.109895 97.98806 
L 85.709151 97.257522 
L 86.011859 97.07637 
L 86.31622 97.039926 
L 86.622234 97.157314 
L 87.552853 97.853366 
L 87.866593 97.848072 
L 88.498602 97.440774 
L 89.462569 96.473756 
L 90.443212 95.49117 
L 91.438985 94.286476 
L 93.826666 90.622206 
L 95.542335 88.188566 
L 97.944491 85.716977 
L 98.286874 85.530722 
L 98.630844 85.660467 
L 99.660526 86.487939 
L 100.3462 86.276769 
L 101.377511 86.142335 
L 102.750489 85.962098 
L 103.781265 85.785537 
L 104.125685 85.524761 
L 104.813103 84.485808 
L 106.185339 82.173466 
L 106.529259 81.806549 
L 106.873421 81.671487 
L 107.560231 81.936117 
L 109.274178 82.364048 
L 109.962544 82.619427 
L 110.648619 82.886273 
L 110.991233 82.910568 
L 112.020258 82.500134 
L 113.05106 81.970886 
L 115.113432 80.210056 
L 116.144279 78.73164 
L 116.831075 77.555181 
L 117.5166 76.410447 
L 118.202439 75.919373 
L 118.545357 75.893741 
L 119.231192 76.30578 
L 120.948168 78.43333 
L 121.97897 78.695196 
L 122.665959 79.093799 
L 123.697421 79.810624 
L 124.04082 79.885661 
L 124.383422 79.814118 
L 125.070871 79.47663 
L 125.756996 79.609305 
L 126.446622 79.826892 
L 127.475659 79.41359 
L 129.193307 79.643991 
L 129.536931 79.677613 
L 130.223546 80.170391 
L 130.910209 80.713631 
L 131.596653 81.128107 
L 132.627018 82.005071 
L 133.314584 82.306863 
L 134.000423 83.083747 
L 134.688081 83.890713 
L 135.030974 84.048467 
L 135.718124 84.013764 
L 136.403208 83.754153 
L 137.434954 83.043893 
L 137.777942 83.002942 
L 138.464128 83.310038 
L 139.493931 84.035808 
L 140.522745 84.571815 
L 141.550605 85.864324 
L 141.894467 86.047341 
L 143.270616 86.101624 
L 143.955879 86.327951 
L 144.643231 86.297442 
L 145.673869 85.948033 
L 146.016962 85.648583 
L 146.360133 85.518881 
L 146.70338 85.708197 
L 147.731624 86.948917 
L 148.760624 88.204216 
L 149.791956 89.357541 
L 150.478346 90.04534 
L 151.163678 90.239106 
L 152.196006 90.30803 
L 153.226007 90.810524 
L 153.570115 90.793056 
L 153.912672 90.530394 
L 154.942668 89.127301 
L 155.969653 87.699349 
L 157.339728 86.166421 
L 158.024132 85.713457 
L 158.71039 85.527605 
L 159.395902 85.466677 
L 160.083524 85.043513 
L 160.425733 84.750344 
L 160.767505 84.655576 
L 161.110301 84.838097 
L 161.796044 85.411093 
L 163.168135 85.891753 
L 163.510796 86.088934 
L 163.854628 86.041453 
L 164.541858 85.283125 
L 165.228511 84.418007 
L 166.258679 83.275833 
L 166.945423 82.427966 
L 167.973785 81.706961 
L 169.004732 81.097615 
L 170.032965 80.843107 
L 170.719939 80.787031 
L 171.064793 80.916746 
L 172.779367 82.407095 
L 174.49638 82.30768 
L 175.184767 82.630402 
L 175.872405 82.981384 
L 176.903077 83.309604 
L 177.587789 83.564716 
L 177.930484 83.566956 
L 178.273074 83.433236 
L 178.957941 82.964237 
L 179.644207 82.94196 
L 179.988093 83.054373 
L 180.331874 83.359666 
L 180.675551 83.509906 
L 181.019122 83.464897 
L 182.051169 82.889105 
L 182.739253 82.558576 
L 183.767766 82.145231 
L 184.452743 81.834606 
L 185.138643 82.012822 
L 185.482049 82.261761 
L 186.510217 83.340029 
L 187.197829 83.588419 
L 187.884075 83.484116 
L 188.228368 83.316218 
L 188.571812 83.016352 
L 189.602012 81.709497 
L 190.632997 81.225179 
L 191.663953 80.80315 
L 192.351651 80.51891 
L 193.039298 80.647893 
L 194.412188 81.109374 
L 195.441396 81.747376 
L 196.4701 82.038763 
L 197.157728 81.793449 
L 197.845528 81.282557 
L 198.531457 81.168529 
L 200.248308 81.071178 
L 200.932649 80.770997 
L 201.617454 80.413198 
L 202.650524 80.242448 
L 203.67982 80.118056 
L 204.71016 80.234441 
L 205.053839 80.117859 
L 205.738333 79.550881 
L 206.423292 78.642571 
L 207.110378 77.784236 
L 207.799592 77.421873 
L 208.829466 77.111161 
L 209.172668 76.841292 
L 210.543758 75.252309 
L 211.917594 75.069143 
L 212.260882 75.089102 
L 213.635313 75.80422 
L 213.97924 75.693814 
L 214.665646 75.092089 
L 215.350313 74.62022 
L 216.37999 74.199058 
L 216.722469 73.984421 
L 217.750886 72.99759 
L 218.094121 73.011953 
L 218.781654 73.509341 
L 219.811241 74.37982 
L 220.498432 74.38588 
L 221.184613 74.389115 
L 221.527506 74.506958 
L 222.212316 75.118719 
L 222.898442 76.041578 
L 223.929818 77.730501 
L 224.959166 78.802577 
L 225.302899 79.001298 
L 225.646763 78.966759 
L 225.990759 79.116691 
L 226.675818 80.278937 
L 227.361772 81.620398 
L 228.048622 82.269494 
L 228.734789 82.744696 
L 229.42343 82.86187 
L 231.139346 83.039425 
L 231.824162 83.324563 
L 232.509557 83.627073 
L 233.538737 83.45054 
L 234.225582 83.344341 
L 234.569569 83.48295 
L 235.94692 84.481813 
L 236.633584 84.649899 
L 237.319369 85.087683 
L 237.661865 85.347976 
L 238.004097 85.454016 
L 239.036099 85.315701 
L 239.380185 85.50244 
L 240.412692 86.44866 
L 241.784994 87.396284 
L 242.127483 87.409037 
L 243.155985 86.888929 
L 243.499016 87.026605 
L 243.841995 87.349553 
L 244.527802 88.51343 
L 245.897608 91.29022 
L 246.584444 92.177071 
L 248.300554 93.012699 
L 249.333391 94.113198 
L 249.677085 94.233804 
L 250.019883 94.179189 
L 251.051098 93.671269 
L 252.083143 93.690196 
L 253.115211 93.342414 
L 255.865614 92.107941 
L 256.551964 91.995022 
L 257.582153 92.079647 
L 257.925661 91.757185 
L 258.953635 90.282863 
L 259.297902 90.280695 
L 259.640973 90.592019 
L 259.984223 91.123109 
L 260.32765 91.332923 
L 260.671255 91.092511 
L 261.015039 90.517342 
L 261.701562 88.901891 
L 262.387218 88.11899 
L 263.073586 87.825963 
L 264.101238 87.503002 
L 266.507548 85.78753 
L 266.851132 85.911745 
L 267.883058 86.873012 
L 268.912731 88.306612 
L 269.599341 89.29381 
L 270.285044 89.938838 
L 270.628455 90.118711 
L 270.970644 90.087516 
L 271.657936 89.558466 
L 272.001022 89.327582 
L 272.688119 89.27393 
L 273.374175 89.263981 
L 273.717192 89.20182 
L 274.060875 89.33278 
L 274.746202 90.142597 
L 275.432954 91.236604 
L 275.776679 91.541736 
L 276.462954 91.947339 
L 277.150147 93.043444 
L 277.493752 93.555866 
L 277.837661 93.864753 
L 278.181874 93.966686 
L 278.869421 93.665451 
L 279.556392 93.223297 
L 280.242628 92.9509 
L 282.306351 91.344782 
L 282.99168 91.28339 
L 283.676937 91.323679 
L 284.364398 91.031621 
L 284.706982 91.115793 
L 286.077751 91.898115 
L 286.763083 92.152321 
L 287.447493 92.02504 
L 288.816522 91.363892 
L 289.84341 91.142664 
L 290.528962 90.740122 
L 291.902488 89.78545 
L 292.244568 89.972523 
L 293.27671 91.394168 
L 293.618957 91.316661 
L 294.304414 90.695678 
L 296.706884 89.896642 
L 297.394239 89.325662 
L 297.738028 89.312227 
L 298.42365 89.665496 
L 299.109686 89.927343 
L 299.794021 89.937444 
L 300.824219 90.332681 
L 301.166994 90.184314 
L 301.851472 89.416474 
L 302.879139 87.89892 
L 303.909523 85.931262 
L 304.594689 85.185558 
L 305.279669 84.864838 
L 305.622429 84.881208 
L 306.651787 85.441493 
L 307.336907 85.540054 
L 308.366943 85.18368 
L 308.711321 84.806242 
L 309.398598 83.553915 
L 310.084624 82.243964 
L 312.141102 79.600701 
L 312.483715 79.599544 
L 313.170615 80.04054 
L 313.859154 80.48065 
L 316.26021 81.078512 
L 316.945412 81.711059 
L 317.631408 82.52702 
L 318.660698 82.953822 
L 319.348761 82.979814 
L 320.034409 82.748366 
L 321.407391 82.020021 
L 322.093932 82.15135 
L 322.780536 82.310562 
L 323.810376 81.720854 
L 324.154742 82.065509 
L 324.842066 83.464416 
L 325.86936 85.703812 
L 326.556585 86.449769 
L 326.899149 86.570501 
L 327.585276 86.630647 
L 328.958671 87.476477 
L 329.302124 87.483416 
L 329.989045 87.860385 
L 330.675986 88.051706 
L 331.364008 87.989256 
L 331.707601 87.77374 
L 332.737121 86.336228 
L 333.422899 85.914056 
L 334.452606 85.429458 
L 335.13782 85.017632 
L 335.825373 84.951158 
L 337.202083 85.415484 
L 337.888613 85.422646 
L 339.604839 85.084023 
L 340.293061 85.005436 
L 341.322384 84.387849 
L 341.665003 84.552009 
L 342.349979 85.18614 
L 343.034605 85.39659 
L 344.749957 85.4271 
L 345.436903 85.790422 
L 345.780245 86.22355 
L 346.1235 86.474272 
L 346.466668 86.37964 
L 346.809748 86.016102 
L 347.838464 84.511972 
L 348.523838 83.800262 
L 349.553016 82.163482 
L 349.897082 82.023889 
L 351.27247 82.516648 
L 351.616099 82.736078 
L 351.959641 83.169627 
L 353.675684 86.537023 
L 355.050064 87.981117 
L 355.394503 88.202459 
L 355.738934 88.254028 
L 356.427772 88.086836 
L 357.116576 87.712852 
L 357.805691 87.774529 
L 358.14904 87.608346 
L 358.491548 87.095624 
L 359.523314 84.706774 
L 360.209344 83.184793 
L 360.896655 82.429443 
L 361.926028 81.930137 
L 362.958316 81.052278 
L 363.300379 81.033299 
L 363.986314 81.216496 
L 364.673583 81.252021 
L 365.017172 81.409439 
L 365.360474 81.797974 
L 367.075755 84.553332 
L 367.761353 84.818741 
L 369.13558 85.821304 
L 369.479351 85.806781 
L 370.166017 85.614454 
L 370.85163 85.709236 
L 372.223107 85.674082 
L 372.909943 86.030889 
L 372.909943 86.030889 
" style="fill:none;stroke:#0000ff;stroke-linecap:square;"/>
   </g>
   <g id="line2d_24">
    <path clip-path="url(#p8dbfd51966)" d="M 53.328125 17.083636 
L 388.128125 17.083636 
" style="fill:none;stroke:#0000ff;stroke-dasharray:3.7,1.6;stroke-dashoffset:0;"/>
   </g>
   <g id="line2d_25">
    <path clip-path="url(#p8dbfd51966)" d="M 53.328125 84.69241 
L 388.128125 84.69241 
" style="fill:none;stroke:#0000ff;stroke-dasharray:1,1.65;stroke-dashoffset:0;"/>
   </g>
   <g id="line2d_26">
    <path clip-path="url(#p8dbfd51966)" d="M 68.546307 157.479903 
L 69.226426 154.895227 
L 69.874915 151.20678 
L 70.785869 145.639427 
L 75.890991 119.225399 
L 76.646974 114.044726 
L 77.155893 111.667626 
L 77.669483 110.398567 
L 78.189185 109.098466 
L 82.231732 93.538428 
L 82.511249 92.813689 
L 82.79209 92.418477 
L 83.074494 92.343592 
L 83.360048 92.396149 
L 83.647165 92.311228 
L 83.935846 91.937052 
L 84.51885 90.493696 
L 85.709151 86.956359 
L 86.011859 86.926242 
L 86.622234 87.302171 
L 87.240622 88.117074 
L 88.181842 90.365985 
L 88.818415 91.726809 
L 89.139737 92.081474 
L 89.462569 92.246309 
L 89.786911 92.275061 
L 90.443212 92.016938 
L 91.774237 91.010641 
L 93.138527 89.55198 
L 94.511437 87.842969 
L 95.542335 85.871644 
L 98.286874 80.618109 
L 98.630844 80.303599 
L 98.973662 80.408818 
L 100.003159 81.600013 
L 100.3462 81.634539 
L 101.03339 81.227343 
L 102.407028 80.181491 
L 103.437608 79.03391 
L 104.125685 78.239401 
L 104.813103 77.620574 
L 105.498624 76.4264 
L 106.185339 75.273557 
L 106.529259 74.799508 
L 106.873421 74.560953 
L 107.217678 74.731554 
L 107.560231 75.088779 
L 108.588377 75.547587 
L 109.274178 76.1884 
L 109.618743 76.307608 
L 110.648619 76.173698 
L 111.334524 76.071785 
L 111.677052 75.886027 
L 112.707262 74.942579 
L 113.05106 74.879404 
L 113.739249 74.93809 
L 114.426486 74.507204 
L 115.113432 74.015917 
L 116.831075 73.362477 
L 117.85952 72.987945 
L 118.202439 73.119398 
L 118.545357 73.381499 
L 119.231192 74.340983 
L 119.574109 74.354701 
L 120.26034 73.909531 
L 120.604054 73.961249 
L 121.63468 74.633567 
L 122.322091 74.69696 
L 123.009032 74.695629 
L 123.697421 74.732381 
L 124.383422 74.525046 
L 125.070871 74.316767 
L 125.4138 74.483538 
L 126.10183 75.288748 
L 126.789676 76.567188 
L 127.132688 77.25621 
L 128.506764 78.864896 
L 130.910209 82.928579 
L 131.596653 84.625102 
L 132.282814 86.286245 
L 132.627018 86.866248 
L 132.9705 87.15019 
L 133.314584 87.177846 
L 134.688081 86.793235 
L 135.374322 86.670492 
L 136.060535 86.122273 
L 137.090418 85.108862 
L 137.434954 84.981741 
L 137.777942 85.166765 
L 138.464128 86.155451 
L 139.493931 88.163761 
L 140.180816 89.500954 
L 140.864744 90.138537 
L 142.582402 91.061833 
L 143.613209 90.77447 
L 143.955879 91.039197 
L 144.643231 91.990815 
L 144.987913 92.247124 
L 145.330852 92.347025 
L 146.016962 92.234914 
L 146.360133 92.109719 
L 146.70338 92.259118 
L 148.073655 93.662426 
L 148.760624 95.154784 
L 149.44788 96.711047 
L 150.478346 98.532192 
L 151.5074 100.355627 
L 151.85151 100.665361 
L 152.196006 100.763247 
L 152.882286 100.64537 
L 154.255617 100.041469 
L 154.598949 99.590794 
L 155.627394 97.318373 
L 156.654674 94.745846 
L 157.339728 93.75914 
L 157.681547 93.50681 
L 158.024132 93.529825 
L 158.71039 94.103062 
L 159.395902 94.648082 
L 159.739201 94.724705 
L 160.083524 94.637395 
L 160.767505 94.004835 
L 161.452661 92.993007 
L 161.796044 92.862075 
L 162.481502 92.819931 
L 163.854628 92.245648 
L 164.541858 91.554498 
L 165.228511 90.428637 
L 165.914587 88.748417 
L 166.602291 87.129628 
L 167.288075 86.267566 
L 167.973785 86.139547 
L 168.661028 85.978721 
L 169.347956 85.685287 
L 170.376596 85.675537 
L 170.719939 85.759422 
L 171.064793 85.997147 
L 171.750908 86.656598 
L 172.436642 87.056412 
L 173.808575 88.364082 
L 174.49638 88.552299 
L 175.872405 88.218541 
L 176.215736 88.194101 
L 177.587789 87.460347 
L 178.61556 87.602907 
L 179.300217 87.405636 
L 179.644207 87.409733 
L 179.988093 87.573935 
L 180.331874 87.938263 
L 181.019122 88.877212 
L 181.362807 89.004825 
L 181.706823 89.012473 
L 182.051169 88.820725 
L 182.739253 87.868538 
L 185.138643 83.208381 
L 185.825113 81.578759 
L 186.167836 81.214115 
L 187.541123 80.791875 
L 189.945509 79.225913 
L 190.288666 79.352397 
L 190.976988 79.994631 
L 192.008439 79.823023 
L 193.382273 78.769461 
L 194.755336 78.600635 
L 195.098892 78.802776 
L 196.81444 80.56871 
L 197.501424 81.05773 
L 198.188434 81.073641 
L 199.217849 80.797321 
L 199.904706 80.673213 
L 200.248308 80.849175 
L 201.274994 81.934481 
L 201.961695 82.342142 
L 202.650524 82.677877 
L 203.67982 83.434056 
L 204.366598 83.893532 
L 205.053839 84.50898 
L 205.396028 84.413488 
L 206.765945 83.335868 
L 207.799592 81.641758 
L 208.486058 80.981827 
L 208.829466 80.862815 
L 209.172668 80.949868 
L 210.201043 81.567562 
L 211.917594 81.659295 
L 212.260882 81.434934 
L 212.947843 80.643034 
L 213.635313 80.325077 
L 213.97924 80.252251 
L 214.323294 80.058079 
L 215.008126 79.044642 
L 215.69383 77.971859 
L 216.037056 77.708856 
L 216.37999 77.66308 
L 218.094121 78.214608 
L 218.438196 78.648729 
L 219.124495 80.088401 
L 220.155145 82.894373 
L 220.841102 84.419116 
L 221.527506 85.193853 
L 222.212316 85.567596 
L 222.898442 85.87086 
L 223.586028 86.690007 
L 223.929818 87.093348 
L 224.274112 87.256149 
L 224.617144 87.155042 
L 226.333374 85.61865 
L 226.675818 85.686953 
L 227.018091 86.212656 
L 228.734789 90.088771 
L 229.42343 90.609643 
L 230.111387 90.670992 
L 231.824162 90.622104 
L 232.166787 90.800519 
L 233.538737 92.085214 
L 234.225582 92.35102 
L 234.569569 92.322192 
L 235.257109 91.927761 
L 237.319369 90.487717 
L 237.661865 90.655079 
L 239.036099 92.0308 
L 240.412692 92.275203 
L 241.10046 91.889678 
L 241.784994 91.632418 
L 242.812904 90.748764 
L 243.155985 90.409591 
L 243.499016 90.239736 
L 243.841995 90.269194 
L 244.527802 90.701342 
L 244.870296 91.127534 
L 245.555937 92.702873 
L 247.614278 98.561995 
L 248.300554 99.386734 
L 249.333391 100.362556 
L 249.677085 100.505561 
L 250.363404 100.38104 
L 251.395596 99.688717 
L 252.771186 100.44236 
L 254.83392 100.411018 
L 255.865614 99.618869 
L 256.551964 99.556861 
L 257.23886 99.70899 
L 257.925661 99.650169 
L 258.609584 99.372361 
L 258.953635 99.217734 
L 259.297902 99.32422 
L 259.984223 100.09685 
L 260.671255 101.585504 
L 261.015039 102.24984 
L 261.359001 102.599102 
L 261.701562 102.528978 
L 262.044301 102.11889 
L 263.415625 99.550272 
L 264.101238 98.67378 
L 265.133336 97.881909 
L 266.16416 97.111496 
L 266.851132 96.75501 
L 267.194912 96.797302 
L 267.538887 97.059624 
L 268.912731 99.014221 
L 269.599341 100.468335 
L 270.970644 104.136021 
L 271.313804 104.635353 
L 271.657936 104.618346 
L 272.001022 104.243255 
L 273.031823 102.459214 
L 273.717192 101.928847 
L 274.060875 101.836568 
L 274.403206 102.085369 
L 275.090059 103.536904 
L 276.462954 107.084018 
L 277.837661 109.408209 
L 278.869421 110.323997 
L 279.556392 110.727146 
L 280.242628 110.731221 
L 280.58706 110.691116 
L 280.931825 110.501969 
L 281.274955 110.101329 
L 282.648848 107.892566 
L 283.334436 107.268683 
L 284.020984 107.237155 
L 284.364398 106.975978 
L 284.706982 106.52821 
L 285.049295 106.364821 
L 286.077751 106.52286 
L 286.763083 106.51349 
L 287.447493 106.502044 
L 288.474199 106.266131 
L 289.158888 105.973823 
L 290.185226 106.208099 
L 291.216578 105.933052 
L 291.902488 105.540324 
L 292.588567 105.118773 
L 292.932615 105.079128 
L 293.27671 105.171993 
L 293.618957 105.075072 
L 293.961457 104.719306 
L 294.990518 102.821247 
L 295.676875 101.220025 
L 296.363485 99.627902 
L 296.706884 99.3096 
L 297.394239 99.192257 
L 297.738028 99.263759 
L 299.452028 100.399486 
L 299.794021 100.403536 
L 300.481034 100.121004 
L 301.509357 99.285626 
L 302.193502 98.177475 
L 302.879139 97.040703 
L 303.566268 95.994083 
L 305.279669 92.262209 
L 305.622429 91.765035 
L 305.964696 91.623988 
L 306.308488 91.631887 
L 306.994593 91.827114 
L 307.680745 91.590487 
L 308.024091 91.408873 
L 308.711321 91.387655 
L 309.055206 91.148394 
L 309.398598 90.57928 
L 310.084624 88.788709 
L 311.113035 85.851584 
L 312.483715 82.670477 
L 313.170615 81.882232 
L 313.859154 81.498194 
L 314.54736 81.287846 
L 314.890958 81.252464 
L 315.232388 81.386521 
L 315.575392 81.750728 
L 316.26021 82.995002 
L 319.004348 88.585117 
L 319.348761 88.649362 
L 320.377593 88.307016 
L 321.064301 87.879484 
L 321.750654 86.806076 
L 323.810376 82.245957 
L 324.154742 81.926826 
L 324.498753 82.10106 
L 324.842066 82.622101 
L 325.526596 84.470376 
L 327.929188 92.884607 
L 328.614915 94.53081 
L 329.302124 96.130723 
L 329.645582 96.498042 
L 330.675986 96.993964 
L 331.707601 96.904373 
L 332.050048 96.737394 
L 332.393221 96.384858 
L 333.422899 94.888052 
L 333.765985 94.652611 
L 334.452606 94.442297 
L 335.825373 93.816845 
L 336.514319 93.973022 
L 337.202083 94.193473 
L 337.888613 94.349017 
L 339.261696 94.966515 
L 339.949151 95.318864 
L 340.979678 96.015184 
L 342.349979 96.238971 
L 342.692336 96.358362 
L 343.034605 96.215977 
L 344.062661 95.268367 
L 344.749957 95.020289 
L 345.093473 95.113734 
L 346.1235 95.745051 
L 346.466668 95.749038 
L 346.809748 95.602982 
L 347.15274 95.182946 
L 348.181195 93.26372 
L 349.208863 92.263122 
L 349.553016 91.648202 
L 350.584951 89.222156 
L 350.928754 88.935467 
L 351.616099 88.80471 
L 351.959641 88.848137 
L 352.303095 89.040873 
L 352.646461 89.412873 
L 353.332933 91.006989 
L 354.019941 92.830141 
L 354.363757 93.483162 
L 355.050064 94.149987 
L 356.772178 95.118004 
L 357.460965 94.724641 
L 357.805691 94.950651 
L 358.14904 95.436976 
L 358.491548 95.517064 
L 358.834763 95.219432 
L 359.178685 94.662076 
L 359.866749 92.842745 
L 362.269417 85.263186 
L 363.643148 82.158961 
L 363.986314 82.109864 
L 365.360474 83.391186 
L 365.70332 83.657111 
L 366.04571 84.063754 
L 366.732863 85.443414 
L 367.418585 87.0871 
L 367.761353 87.471809 
L 368.792075 87.600334 
L 369.479351 88.381997 
L 369.823388 88.749755 
L 370.508913 88.933124 
L 371.879707 89.769451 
L 372.223107 89.635893 
L 372.909943 89.068113 
L 372.909943 89.068113 
" style="fill:none;stroke:#00bfbf;stroke-linecap:square;"/>
   </g>
   <g id="line2d_27">
    <path clip-path="url(#p8dbfd51966)" d="M 53.328125 103.146846 
L 388.128125 103.146846 
" style="fill:none;stroke:#00bfbf;stroke-dasharray:3.7,1.6;stroke-dashoffset:0;"/>
   </g>
   <g id="line2d_28">
    <path clip-path="url(#p8dbfd51966)" d="M 53.328125 110.908057 
L 388.128125 110.908057 
" style="fill:none;stroke:#00bfbf;stroke-dasharray:1,1.65;stroke-dashoffset:0;"/>
   </g>
   <g id="line2d_29">
    <path clip-path="url(#p8dbfd51966)" d="M 68.546307 173.518926 
L 69.554978 169.071087 
L 71.891893 156.236577 
L 74.157489 146.864268 
L 74.898898 142.190256 
L 75.642462 138.149818 
L 76.142109 135.320322 
L 76.646974 131.540139 
L 78.45004 121.27801 
L 78.976432 118.894887 
L 79.774843 116.315313 
L 81.677535 110.682694 
L 82.511249 107.571781 
L 84.226408 101.067767 
L 85.109895 98.472447 
L 86.011859 94.663278 
L 86.622234 93.678766 
L 86.929901 93.452868 
L 87.240622 93.366587 
L 87.552853 93.404997 
L 87.866593 93.592386 
L 88.498602 94.52015 
L 90.773627 98.948144 
L 91.105551 99.254451 
L 91.438985 99.342646 
L 91.774237 99.229499 
L 92.111308 98.937433 
L 93.482648 96.884408 
L 94.168624 96.700332 
L 94.855106 96.54891 
L 95.884811 96.027659 
L 96.913846 95.201762 
L 98.286874 93.918774 
L 98.630844 93.923744 
L 98.973662 94.099292 
L 99.31689 94.521775 
L 100.690032 97.369497 
L 101.03339 97.517942 
L 101.721157 97.341191 
L 102.750489 96.658068 
L 103.437608 95.902959 
L 104.469631 94.298715 
L 104.813103 93.981785 
L 105.156101 93.836337 
L 106.185339 94.046747 
L 106.873421 93.736725 
L 107.217678 93.709055 
L 107.560231 94.29554 
L 107.902729 95.278724 
L 108.588377 96.360639 
L 110.305243 98.113552 
L 110.648619 98.375572 
L 110.991233 98.381934 
L 111.677052 97.906802 
L 113.05106 96.564939 
L 113.739249 96.67456 
L 114.426486 96.864825 
L 114.769815 97.097421 
L 115.800088 98.302294 
L 117.173679 99.280586 
L 118.202439 100.909008 
L 118.888275 102.231476 
L 119.917025 105.393547 
L 120.26034 105.859807 
L 120.604054 106.061133 
L 120.948168 105.983314 
L 121.63468 105.507943 
L 122.322091 105.360942 
L 123.009032 105.530431 
L 123.697421 105.854087 
L 124.383422 106.508591 
L 125.070871 107.472284 
L 126.446622 108.878721 
L 128.162508 114.043895 
L 128.850364 115.840283 
L 130.223546 119.913529 
L 132.9705 126.73354 
L 133.657276 127.919765 
L 134.000423 128.077937 
L 134.344025 127.92124 
L 135.030974 127.092293 
L 135.718124 125.918328 
L 137.090418 123.142366 
L 137.434954 122.70701 
L 137.777942 122.57753 
L 138.121 122.755785 
L 138.807326 123.670507 
L 139.493931 125.006349 
L 140.864744 128.070083 
L 141.206813 128.549917 
L 141.550605 128.771624 
L 142.2384 128.607477 
L 143.270616 128.290086 
L 143.613209 128.431253 
L 144.643231 129.681388 
L 144.987913 130.148089 
L 145.673869 131.708677 
L 146.70338 134.494026 
L 147.046487 134.99395 
L 147.731624 135.349653 
L 148.417124 135.740337 
L 149.791956 136.761519 
L 151.85151 140.748283 
L 152.538952 141.497262 
L 152.882286 141.639784 
L 153.570115 141.507423 
L 153.912672 141.318713 
L 154.255617 140.960557 
L 154.942668 139.319477 
L 156.31144 135.705831 
L 157.681547 131.655603 
L 158.367719 130.453079 
L 159.053604 129.476526 
L 159.395902 129.180033 
L 159.739201 129.124206 
L 160.425733 129.479671 
L 160.767505 129.415592 
L 161.452661 128.611148 
L 162.138991 127.782992 
L 164.541858 125.278087 
L 165.571621 123.588559 
L 166.602291 121.879788 
L 167.973785 118.85779 
L 168.661028 118.187427 
L 169.347956 117.981529 
L 170.032965 118.175022 
L 171.064793 118.69345 
L 172.779367 120.073985 
L 173.808575 120.171017 
L 175.872405 120.417544 
L 176.215736 120.272205 
L 176.903077 119.576303 
L 177.587789 118.484884 
L 178.273074 116.977096 
L 178.957941 116.06324 
L 179.988093 115.385558 
L 181.019122 113.906141 
L 181.362807 113.84174 
L 182.395846 114.111505 
L 183.425293 114.160311 
L 183.767766 113.877261 
L 184.110249 113.266234 
L 186.167836 107.890556 
L 186.854194 105.813124 
L 188.914407 101.792717 
L 189.602012 101.084684 
L 189.945509 100.96217 
L 190.288666 101.021185 
L 190.632997 101.24062 
L 190.976988 101.621613 
L 192.008439 103.157182 
L 192.69527 103.754508 
L 193.382273 104.124496 
L 193.725657 104.045957 
L 195.441396 102.864107 
L 195.784308 102.747463 
L 196.126168 102.867208 
L 196.81444 103.71866 
L 197.845528 105.136557 
L 199.217849 106.716291 
L 199.561219 106.921796 
L 199.904706 106.918612 
L 200.590421 106.684219 
L 200.932649 106.82869 
L 205.738333 111.810022 
L 206.080754 111.888923 
L 207.799592 111.337563 
L 209.172668 110.317361 
L 209.858457 110.441689 
L 210.201043 110.633938 
L 210.543758 110.996554 
L 211.229569 112.257252 
L 212.260882 114.458594 
L 212.604299 114.742843 
L 212.947843 114.637561 
L 213.291514 114.303355 
L 213.97924 113.058315 
L 214.665646 111.944469 
L 215.69383 110.64151 
L 216.37999 109.696681 
L 217.064331 109.178803 
L 218.094121 108.647207 
L 218.438196 108.810043 
L 219.124495 109.760199 
L 219.811241 111.344788 
L 220.498432 113.64024 
L 221.870074 118.503988 
L 222.554486 120.487371 
L 223.586028 122.443182 
L 223.929818 122.821337 
L 224.274112 122.887125 
L 224.617144 122.768218 
L 225.302899 122.118808 
L 225.990759 120.619684 
L 227.361772 116.91254 
L 227.705283 116.633351 
L 228.048622 116.757325 
L 228.734789 117.774125 
L 230.111387 120.296565 
L 230.45511 120.468421 
L 231.139346 120.209089 
L 232.166787 119.699563 
L 232.852472 119.500412 
L 233.195532 119.554857 
L 233.882087 120.105239 
L 234.569569 120.742555 
L 235.257109 120.980313 
L 235.60197 120.863886 
L 237.319369 118.589368 
L 237.661865 118.278213 
L 238.004097 118.167163 
L 238.348056 118.354148 
L 238.692056 118.792125 
L 240.75675 122.45343 
L 241.10046 122.759653 
L 241.442157 122.811137 
L 244.184924 120.906753 
L 244.527802 120.830249 
L 245.212407 121.05203 
L 245.897608 121.489744 
L 246.584444 122.221832 
L 247.271055 123.609806 
L 248.988438 128.141903 
L 250.363404 130.392325 
L 250.707088 130.577594 
L 251.395596 130.472303 
L 251.739125 130.408318 
L 252.083143 130.57908 
L 253.115211 131.443738 
L 253.80327 131.744475 
L 254.490367 131.758153 
L 255.177961 131.62551 
L 256.551964 131.911314 
L 256.895945 132.055601 
L 257.925661 132.96537 
L 259.297902 133.511057 
L 259.640973 133.825983 
L 259.984223 134.509981 
L 261.701562 139.073615 
L 262.387218 139.6518 
L 263.073586 139.937689 
L 263.415625 139.953533 
L 264.101238 139.562761 
L 265.477971 138.331018 
L 266.16416 138.074115 
L 266.507548 138.16059 
L 268.570154 139.740743 
L 269.942067 142.169318 
L 270.970644 144.912589 
L 272.001022 147.72794 
L 272.34508 148.141407 
L 272.688119 148.001737 
L 273.374175 146.788164 
L 274.403206 144.449302 
L 274.746202 143.92327 
L 275.090059 143.645263 
L 275.432954 143.610512 
L 275.776679 143.80328 
L 276.119515 144.341329 
L 277.150147 146.66807 
L 277.837661 147.320305 
L 279.212754 148.351799 
L 280.242628 148.60518 
L 282.306351 149.729493 
L 282.648848 149.604899 
L 282.99168 149.170775 
L 283.676937 148.004745 
L 284.364398 147.056924 
L 285.391339 145.06943 
L 286.420552 144.090227 
L 287.105345 143.543197 
L 287.447493 143.44878 
L 287.789685 143.511171 
L 289.158888 144.158192 
L 289.501297 144.180112 
L 291.216578 143.598844 
L 292.244568 142.531211 
L 292.588567 142.537598 
L 293.618957 143.222441 
L 293.961457 142.937219 
L 294.304414 142.274097 
L 296.363485 137.018268 
L 297.394239 135.046064 
L 298.081165 134.102061 
L 298.42365 133.779487 
L 298.766994 133.624514 
L 299.452028 133.838972 
L 300.137141 134.145637 
L 300.481034 134.126952 
L 300.824219 133.854854 
L 301.509357 132.659228 
L 303.566268 128.361184 
L 304.594689 126.899693 
L 305.964696 124.320833 
L 306.651787 122.997643 
L 306.994593 122.86009 
L 309.398598 123.929541 
L 309.741744 123.998558 
L 310.084624 123.879509 
L 310.427466 123.379607 
L 311.113035 121.550858 
L 311.798452 119.509009 
L 312.826289 117.252375 
L 313.514904 116.365702 
L 314.203365 116.1326 
L 314.890958 115.796856 
L 316.602024 114.377333 
L 316.945412 114.538144 
L 317.288403 115.166953 
L 319.348761 120.926454 
L 319.691987 121.634535 
L 320.034409 121.97066 
L 320.377593 122.093808 
L 321.064301 121.997587 
L 322.093932 121.646246 
L 322.437226 121.315288 
L 322.780536 120.764211 
L 323.467204 118.965597 
L 324.498753 115.933065 
L 324.842066 115.471743 
L 325.18468 115.289289 
L 325.526596 115.360489 
L 325.86936 115.692355 
L 326.556585 117.007328 
L 327.929188 120.590819 
L 330.332513 129.528468 
L 331.019634 130.965113 
L 331.707601 131.522025 
L 333.079844 132.162221 
L 333.422899 132.18746 
L 333.765985 132.078965 
L 334.795019 131.370687 
L 335.13782 131.353589 
L 335.825373 131.49238 
L 336.514319 131.4031 
L 336.858441 131.507753 
L 338.231681 132.722104 
L 339.261696 133.955007 
L 340.293061 134.963287 
L 341.322384 136.458437 
L 341.665003 136.730847 
L 342.349979 136.788348 
L 343.034605 136.660596 
L 343.376787 136.496688 
L 343.718882 136.187798 
L 345.093473 134.219032 
L 345.436903 134.189391 
L 346.809748 134.979298 
L 347.15274 134.955582 
L 347.495646 134.706337 
L 348.181195 133.378917 
L 348.866395 131.967304 
L 349.553016 131.05289 
L 350.24106 130.334956 
L 350.928754 129.123827 
L 351.616099 127.677172 
L 352.303095 126.818802 
L 352.989741 126.357463 
L 353.332933 126.317899 
L 353.675684 126.681921 
L 355.394503 130.055825 
L 355.738934 130.254293 
L 356.083357 130.150878 
L 357.116576 129.276637 
L 357.805691 129.089888 
L 358.14904 129.166795 
L 359.178685 130.156863 
L 359.523314 130.254055 
L 359.866749 130.0954 
L 360.209344 129.728839 
L 360.896655 128.369052 
L 362.269417 124.459554 
L 362.958316 121.985214 
L 363.986314 118.229741 
L 364.673583 116.834809 
L 365.017172 116.469424 
L 365.360474 116.332895 
L 366.389515 116.331565 
L 366.732863 116.257167 
L 367.075755 116.317289 
L 367.761353 116.833753 
L 368.448837 117.827475 
L 369.13558 118.822802 
L 369.479351 118.998717 
L 369.823388 118.940681 
L 370.166017 119.026721 
L 370.508913 119.255245 
L 371.879707 120.870071 
L 372.223107 120.944541 
L 372.566825 120.798534 
L 372.909943 120.494588 
L 372.909943 120.494588 
" style="fill:none;stroke:#008000;stroke-linecap:square;"/>
   </g>
   <g id="line2d_30">
    <path clip-path="url(#p8dbfd51966)" d="M 53.328125 144.712444 
L 388.128125 144.712444 
" style="fill:none;stroke:#008000;stroke-dasharray:3.7,1.6;stroke-dashoffset:0;"/>
   </g>
   <g id="line2d_31">
    <path clip-path="url(#p8dbfd51966)" d="M 53.328125 140.573131 
L 388.128125 140.573131 
" style="fill:none;stroke:#008000;stroke-dasharray:1,1.65;stroke-dashoffset:0;"/>
   </g>
   <g id="line2d_32">
    <path clip-path="url(#p8dbfd51966)" d="M 68.546307 182.306067 
L 69.554978 177.228965 
L 71.891893 164.15687 
L 73.662505 157.690435 
L 74.652116 153.754237 
L 75.394346 149.111477 
L 77.155893 138.041492 
L 80.043621 124.933496 
L 81.127615 122.148144 
L 82.511249 118.401597 
L 83.647165 114.036283 
L 85.408496 106.789919 
L 86.31622 103.587537 
L 86.929901 102.642126 
L 87.552853 102.320848 
L 88.498602 102.15313 
L 88.818415 102.32221 
L 89.139737 102.71309 
L 91.105551 105.999378 
L 92.111308 107.167962 
L 92.451896 107.320034 
L 92.794302 107.142551 
L 93.482648 106.218271 
L 93.826666 105.667933 
L 94.168624 105.355501 
L 94.855106 105.580368 
L 96.913846 106.283379 
L 98.630844 107.255386 
L 99.31689 108.492196 
L 100.003159 110.540771 
L 100.690032 112.439945 
L 101.377511 113.502805 
L 101.721157 113.773569 
L 102.06433 113.853282 
L 102.750489 113.627618 
L 103.781265 113.078646 
L 104.469631 112.27603 
L 105.156101 111.420937 
L 105.498624 111.292472 
L 105.841663 111.510451 
L 107.217678 113.520386 
L 107.560231 113.7186 
L 107.902729 114.443955 
L 108.588377 116.349926 
L 109.274178 117.45555 
L 110.648619 119.331085 
L 110.991233 119.604583 
L 111.334524 119.663715 
L 112.020258 119.450858 
L 112.707262 118.711825 
L 113.395536 118.007443 
L 113.739249 117.910721 
L 114.083444 117.984889 
L 115.455896 118.86425 
L 115.800088 119.35878 
L 116.831075 121.434447 
L 117.85952 122.97396 
L 119.231192 126.423769 
L 120.26034 129.843846 
L 120.948168 130.803334 
L 121.63468 131.168653 
L 122.322091 131.051348 
L 123.697421 130.653762 
L 124.726773 130.561296 
L 125.070871 130.693234 
L 125.756996 131.330483 
L 126.789676 132.825727 
L 127.132688 133.51441 
L 127.818933 135.660504 
L 128.506764 137.902556 
L 129.193307 139.55735 
L 131.939359 147.440011 
L 132.9705 149.635799 
L 133.657276 150.485113 
L 134.344025 150.895097 
L 135.030974 150.851536 
L 135.718124 150.546025 
L 136.060535 150.280725 
L 136.745951 148.961223 
L 137.434954 147.513948 
L 137.777942 146.952897 
L 138.121 146.657953 
L 138.464128 146.702696 
L 139.150593 147.5997 
L 140.864744 150.184077 
L 141.550605 150.973315 
L 142.2384 151.368563 
L 142.582402 151.347992 
L 143.270616 150.901619 
L 143.955879 150.392252 
L 144.298627 150.352597 
L 144.643231 150.513085 
L 144.987913 150.878131 
L 145.673869 152.080003 
L 146.70338 154.247158 
L 147.731624 157.148101 
L 148.073655 157.802178 
L 148.417124 158.16123 
L 149.44788 158.826496 
L 150.134799 159.350441 
L 150.82066 159.691905 
L 151.163678 160.120123 
L 152.196006 161.982041 
L 153.226007 163.213578 
L 153.570115 163.412745 
L 153.912672 163.431778 
L 154.255617 163.267671 
L 154.598949 162.942899 
L 154.942668 162.361946 
L 155.627394 160.484715 
L 156.997437 156.235722 
L 157.681547 154.450899 
L 158.367719 153.288116 
L 159.053604 152.720396 
L 159.739201 152.203841 
L 160.767505 151.196475 
L 161.796044 150.772397 
L 163.854628 148.250344 
L 164.541858 147.27616 
L 165.571621 146.136491 
L 167.288075 143.305268 
L 168.316843 141.691175 
L 169.347956 140.264618 
L 170.376596 138.852012 
L 170.719939 138.768407 
L 171.407898 139.33388 
L 172.436642 140.313317 
L 173.121996 140.562398 
L 176.559294 140.876586 
L 177.24532 140.48752 
L 177.587789 140.09482 
L 179.300217 137.046485 
L 179.988093 136.296577 
L 180.675551 135.968395 
L 181.019122 135.629496 
L 182.395846 133.577453 
L 183.082991 133.335774 
L 184.110249 132.98127 
L 184.452743 132.848564 
L 184.794895 132.583622 
L 185.482049 131.526874 
L 186.510217 129.175159 
L 187.197829 127.157906 
L 188.914407 123.56508 
L 189.602012 122.792356 
L 189.945509 122.541619 
L 190.288666 122.489456 
L 190.632997 122.602268 
L 191.32064 123.411371 
L 192.008439 124.155827 
L 192.69527 124.659506 
L 194.069449 125.387989 
L 194.755336 125.810654 
L 195.441396 125.611484 
L 196.126168 125.49843 
L 196.81444 125.726678 
L 197.501424 126.355658 
L 198.188434 127.471138 
L 198.874595 128.573736 
L 200.248308 129.712194 
L 200.932649 130.096797 
L 201.617454 130.447554 
L 202.306051 131.141339 
L 202.993507 131.598418 
L 204.023151 132.751585 
L 205.738333 134.911614 
L 206.080754 135.063166 
L 206.423292 135.077083 
L 209.172668 134.123512 
L 209.858457 133.816913 
L 210.201043 133.865965 
L 210.886599 134.346996 
L 211.574433 135.274659 
L 212.260882 136.808771 
L 212.947843 138.364793 
L 213.291514 138.61607 
L 213.635313 138.530136 
L 213.97924 138.173442 
L 215.350313 136.096032 
L 216.37999 134.934272 
L 217.407034 133.855479 
L 219.124495 133.169074 
L 219.468177 133.327303 
L 219.811241 133.677404 
L 220.498432 134.927086 
L 221.184613 137.033233 
L 221.870074 139.101246 
L 224.274112 145.244327 
L 224.617144 145.897215 
L 224.959166 146.254771 
L 225.302899 146.152424 
L 225.990759 144.958377 
L 226.675818 143.202431 
L 227.361772 141.380617 
L 228.048622 140.264385 
L 228.734789 139.77482 
L 229.079195 139.783139 
L 229.42343 140.017374 
L 230.797155 141.394363 
L 231.139346 141.538889 
L 231.481681 141.546123 
L 232.166787 141.248494 
L 233.195532 140.566443 
L 233.538737 140.513104 
L 234.225582 140.719627 
L 234.914048 140.878122 
L 236.290296 141.059014 
L 236.976609 140.618569 
L 238.348056 139.493952 
L 238.692056 139.555113 
L 239.036099 139.79089 
L 239.380185 140.16898 
L 240.068481 141.387157 
L 241.10046 143.459556 
L 241.784994 144.365168 
L 242.127483 144.622725 
L 242.469623 144.699934 
L 243.155985 144.349858 
L 243.841995 144.051864 
L 244.870296 144.152485 
L 245.555937 144.312745 
L 246.584444 144.879312 
L 247.271055 145.433973 
L 247.614278 145.862246 
L 248.300554 147.295952 
L 249.333391 149.898902 
L 250.363404 151.366121 
L 251.395596 152.683485 
L 251.739125 152.777804 
L 252.427649 152.710145 
L 252.771186 152.929884 
L 253.80327 154.116175 
L 254.490367 154.502128 
L 255.177961 154.474324 
L 255.865614 154.328146 
L 256.551964 154.485204 
L 257.582153 154.9157 
L 258.267514 155.906464 
L 260.32765 159.627211 
L 261.015039 161.608026 
L 261.701562 163.692698 
L 262.044301 164.307678 
L 262.387218 164.691062 
L 263.073586 165.035856 
L 264.101238 165.153824 
L 264.788897 164.891225 
L 265.477971 164.227918 
L 266.16416 163.569075 
L 266.507548 163.347789 
L 266.851132 163.279383 
L 267.194912 163.357567 
L 267.883058 163.864969 
L 269.255157 165.159245 
L 270.970644 167.886931 
L 272.688119 171.323143 
L 273.031823 171.365893 
L 273.374175 171.098679 
L 274.060875 170.051624 
L 275.090059 168.101113 
L 275.432954 167.6553 
L 275.776679 167.391749 
L 276.119515 167.30758 
L 276.462954 167.348193 
L 276.806994 167.516882 
L 277.493752 168.403441 
L 278.181874 169.268406 
L 278.526391 169.383139 
L 280.58706 169.271389 
L 281.274955 169.51804 
L 282.648848 170.306406 
L 283.334436 170.712879 
L 283.676937 170.725351 
L 284.364398 170.027972 
L 285.049295 169.008317 
L 285.73468 167.397964 
L 286.420552 166.864175 
L 287.105345 166.315939 
L 288.13192 165.15242 
L 288.474199 165.061081 
L 289.158888 165.348961 
L 290.185226 165.99986 
L 290.872746 166.039534 
L 291.560457 165.743682 
L 292.244568 165.167896 
L 292.932615 164.036246 
L 293.618957 162.965368 
L 293.961457 162.791143 
L 294.304414 162.770668 
L 294.647435 162.628568 
L 294.990518 162.114331 
L 296.363485 158.774166 
L 297.394239 156.795013 
L 298.42365 155.594582 
L 299.109686 155.10759 
L 299.452028 155.039683 
L 300.137141 155.259012 
L 300.824219 155.591211 
L 301.166994 155.604082 
L 301.509357 155.485843 
L 301.851472 155.235224 
L 302.535446 154.246504 
L 304.25233 151.075709 
L 305.622429 149.208024 
L 306.308488 148.230652 
L 306.994593 146.996814 
L 307.336907 146.638614 
L 307.680745 146.509677 
L 309.055206 146.763976 
L 309.741744 147.330201 
L 310.084624 147.455633 
L 310.427466 147.377763 
L 310.77027 147.140403 
L 311.113035 146.728421 
L 311.798452 145.222859 
L 312.483715 143.680602 
L 313.514904 142.001914 
L 313.859154 141.567737 
L 314.203365 141.317613 
L 316.26021 140.612591 
L 317.631408 139.653525 
L 317.974426 139.828539 
L 318.660698 141.34103 
L 320.034409 144.835156 
L 320.377593 145.100974 
L 321.064301 145.173574 
L 322.780536 144.718031 
L 323.467204 143.922064 
L 324.154742 142.435851 
L 324.842066 140.781511 
L 325.18468 140.209122 
L 325.526596 139.920109 
L 325.86936 139.923734 
L 326.556585 140.409015 
L 327.242562 141.235916 
L 328.958671 143.891612 
L 329.645582 145.946495 
L 330.675986 148.944632 
L 331.707601 151.378541 
L 332.393221 152.243309 
L 333.422899 152.964678 
L 335.13782 153.604545 
L 335.825373 153.200344 
L 336.169962 153.005535 
L 336.858441 153.081653 
L 337.544998 153.283142 
L 337.888613 153.472295 
L 338.574385 154.192023 
L 340.63657 157.0645 
L 341.322384 157.920406 
L 342.349979 159.269978 
L 343.034605 160.004758 
L 343.376787 160.114428 
L 343.718882 159.925636 
L 344.406353 159.176255 
L 345.436903 157.865893 
L 345.780245 157.87087 
L 346.466668 158.294293 
L 347.15274 158.363069 
L 347.838464 158.288575 
L 348.523838 157.818285 
L 349.208863 157.094799 
L 350.584951 155.517714 
L 351.27247 154.828801 
L 351.959641 153.752677 
L 352.646461 152.622814 
L 353.332933 152.027646 
L 353.675684 151.91914 
L 354.019941 151.946021 
L 354.363757 152.239938 
L 355.050064 153.517539 
L 356.083357 155.651508 
L 356.427772 155.998032 
L 356.772178 155.94931 
L 357.805691 154.897427 
L 358.14904 154.555177 
L 358.491548 154.388278 
L 358.834763 154.349202 
L 359.866749 154.754628 
L 360.552646 154.62837 
L 360.896655 154.395302 
L 361.583346 153.487965 
L 362.269417 152.4219 
L 362.958316 150.665869 
L 364.673583 145.542166 
L 365.360474 144.475547 
L 366.04571 143.712837 
L 367.075755 143.008282 
L 367.761353 142.728565 
L 369.13558 142.898185 
L 369.479351 143.128942 
L 370.508913 144.288755 
L 371.194171 144.126227 
L 371.53678 144.31911 
L 372.566825 145.685907 
L 372.909943 145.770032 
L 372.909943 145.770032 
" style="fill:none;stroke:#ff0000;stroke-linecap:square;"/>
   </g>
   <g id="line2d_33">
    <path clip-path="url(#p8dbfd51966)" d="M 53.328125 168.341021 
L 388.128125 168.341021 
" style="fill:none;stroke:#ff0000;stroke-dasharray:3.7,1.6;stroke-dashoffset:0;"/>
   </g>
   <g id="line2d_34">
    <path clip-path="url(#p8dbfd51966)" d="M 53.328125 159.027567 
L 388.128125 159.027567 
" style="fill:none;stroke:#ff0000;stroke-dasharray:1,1.65;stroke-dashoffset:0;"/>
   </g>
   <g id="line2d_35">
    <path clip-path="url(#p8dbfd51966)" d="M 68.546307 214.756364 
L 69.554978 210.506572 
L 70.490361 205.769055 
L 71.625832 199.748159 
L 72.666119 195.845467 
L 73.415051 193.839637 
L 75.890991 188.126068 
L 76.646974 185.645251 
L 77.155893 182.98579 
L 77.92893 178.412581 
L 78.712936 175.699661 
L 81.677535 168.181832 
L 83.647165 163.80028 
L 84.51885 161.456869 
L 85.408496 158.247424 
L 86.31622 154.771345 
L 87.552853 150.743062 
L 88.181842 149.702096 
L 88.818415 149.322499 
L 89.462569 149.337173 
L 90.443212 149.730809 
L 92.111308 150.486289 
L 92.794302 150.886685 
L 94.168624 151.99543 
L 95.198292 153.191379 
L 96.913846 155.748592 
L 97.257241 155.956295 
L 97.600809 156.428252 
L 98.286874 157.88728 
L 101.377511 165.517558 
L 102.407028 167.004814 
L 104.469631 168.986753 
L 105.156101 169.55445 
L 105.841663 169.931269 
L 106.185339 169.943281 
L 107.217678 169.545576 
L 107.560231 169.567557 
L 107.902729 169.709025 
L 108.245376 170.014411 
L 108.588377 170.638545 
L 110.305243 176.235518 
L 110.991233 177.342339 
L 112.707262 179.192203 
L 113.395536 179.846519 
L 113.739249 179.968044 
L 114.426486 179.676188 
L 115.113432 179.331076 
L 115.800088 179.270241 
L 116.831075 179.501055 
L 117.5166 179.912455 
L 118.202439 180.793783 
L 118.888275 182.180846 
L 119.917025 184.797126 
L 121.97897 188.021236 
L 122.665959 188.461703 
L 124.726773 189.142208 
L 126.446622 189.33771 
L 127.475659 189.206671 
L 129.193307 188.886389 
L 129.879898 188.589377 
L 130.566537 188.223205 
L 130.910209 188.180041 
L 131.253224 188.37755 
L 133.314584 190.601843 
L 134.000423 191.661487 
L 134.688081 192.893592 
L 135.374322 193.649802 
L 136.403208 194.343316 
L 136.745951 194.391535 
L 137.434954 193.954956 
L 138.464128 193.176663 
L 139.150593 192.876379 
L 139.837339 192.760798 
L 140.180816 192.631745 
L 140.522745 192.622161 
L 141.206813 193.081024 
L 142.926474 194.447145 
L 143.270616 194.524717 
L 143.955879 194.346795 
L 144.643231 193.847432 
L 145.673869 193.074276 
L 147.046487 192.32045 
L 147.389235 192.269357 
L 147.731624 192.359421 
L 148.073655 192.603973 
L 149.104156 193.994319 
L 149.791956 194.843079 
L 150.478346 195.407448 
L 151.5074 195.929397 
L 154.598949 197.274686 
L 155.284837 197.802346 
L 155.627394 197.910325 
L 156.654674 197.804513 
L 156.997437 197.725538 
L 157.339728 197.448495 
L 158.367719 195.954854 
L 159.395902 194.082032 
L 160.083524 193.268028 
L 160.767505 192.779983 
L 161.452661 192.604115 
L 162.825036 192.748435 
L 164.885257 192.937137 
L 166.258679 192.518896 
L 166.945423 192.127916 
L 167.973785 191.238781 
L 170.719939 188.265466 
L 171.064793 188.200407 
L 172.093822 188.501269 
L 172.779367 188.433147 
L 173.46453 188.105399 
L 174.152525 187.702206 
L 175.184767 187.82685 
L 176.559294 187.860457 
L 177.587789 187.803101 
L 178.957941 188.154223 
L 179.300217 188.035526 
L 180.331874 187.275868 
L 181.706823 186.811752 
L 183.082991 185.749694 
L 184.452743 184.646285 
L 186.854194 183.324453 
L 188.228368 182.089687 
L 190.288666 180.829697 
L 191.663953 179.445805 
L 192.008439 179.374937 
L 192.69527 179.582797 
L 194.069449 180.549183 
L 194.755336 180.706815 
L 195.441396 180.697798 
L 196.4701 180.383877 
L 197.501424 179.920535 
L 198.188434 179.815435 
L 199.217849 179.931609 
L 202.650524 181.164609 
L 204.023151 182.066672 
L 205.053839 182.467958 
L 206.423292 182.683965 
L 207.110378 182.536543 
L 207.799592 182.358264 
L 209.172668 182.089834 
L 210.543758 181.75377 
L 212.947843 182.084801 
L 213.291514 182.26436 
L 213.635313 182.609627 
L 215.008126 184.536306 
L 216.37999 185.377925 
L 216.722469 185.514733 
L 217.064331 185.423662 
L 218.094121 184.866402 
L 218.781654 184.917408 
L 220.155145 185.259623 
L 220.841102 185.38661 
L 223.586028 186.441346 
L 224.274112 187.056139 
L 225.990759 188.930635 
L 228.048622 190.347541 
L 228.734789 190.790062 
L 230.111387 190.885738 
L 231.481681 190.783995 
L 234.225582 191.016092 
L 234.914048 191.229075 
L 236.633584 191.888192 
L 238.348056 191.984363 
L 239.036099 191.806477 
L 239.724312 191.361868 
L 240.412692 190.893207 
L 241.10046 190.65467 
L 241.784994 190.830017 
L 242.812904 191.604432 
L 245.212407 194.007641 
L 246.241054 194.422821 
L 248.643609 195.007052 
L 249.333391 195.252256 
L 250.707088 196.15867 
L 251.051098 196.424013 
L 251.739125 197.483298 
L 252.427649 198.558621 
L 252.771186 198.78983 
L 253.80327 198.873875 
L 254.490367 199.308393 
L 255.521373 199.975698 
L 257.582153 200.640904 
L 259.297902 200.533606 
L 259.984223 200.89198 
L 261.701562 202.526008 
L 262.387218 202.762821 
L 264.788897 203.165571 
L 267.194912 203.899349 
L 268.227425 204.076523 
L 268.912731 203.917662 
L 270.970644 202.874966 
L 271.657936 203.063837 
L 273.031823 203.873285 
L 274.746202 205.747483 
L 275.776679 206.838101 
L 276.462954 207.12743 
L 277.150147 207.054292 
L 280.58706 205.87957 
L 281.274955 206.011677 
L 281.962218 206.294576 
L 282.648848 206.305736 
L 285.391339 205.538488 
L 287.105345 205.426438 
L 287.789685 205.324338 
L 288.474199 204.953169 
L 290.872746 203.182402 
L 291.560457 203.010335 
L 292.244568 203.132444 
L 295.333665 204.273778 
L 296.020148 204.184133 
L 297.738028 203.693115 
L 298.42365 203.836289 
L 299.794021 204.37071 
L 300.481034 204.394176 
L 302.535446 203.868488 
L 303.222746 204.138581 
L 304.936417 205.20148 
L 305.964696 205.355975 
L 308.366943 205.476577 
L 309.055206 205.158983 
L 310.084624 204.384244 
L 311.113035 203.56962 
L 311.798452 203.388307 
L 312.826289 203.23221 
L 313.514904 202.850831 
L 315.232388 201.689403 
L 315.917999 201.509857 
L 316.602024 201.526693 
L 317.631408 201.723122 
L 318.660698 201.56202 
L 320.034409 201.299903 
L 320.72154 201.335267 
L 321.064301 201.46736 
L 322.437226 202.725725 
L 323.810376 202.536374 
L 325.18468 202.083394 
L 325.86936 201.43622 
L 326.899149 200.392777 
L 327.929188 199.648107 
L 328.958671 199.270548 
L 329.645582 199.270481 
L 330.332513 199.492391 
L 331.019634 199.939732 
L 332.393221 200.943738 
L 332.737121 201.000088 
L 333.422899 200.721971 
L 334.795019 200.016577 
L 335.825373 199.744751 
L 336.858441 199.465068 
L 337.888613 199.190489 
L 338.574385 199.267928 
L 339.261696 199.421186 
L 339.604839 199.265163 
L 340.63657 198.446122 
L 341.665003 197.904192 
L 342.007535 197.903247 
L 342.692336 198.244285 
L 343.718882 199.036924 
L 344.749957 199.543955 
L 346.1235 200.283231 
L 348.866395 201.069265 
L 349.208863 200.992401 
L 349.897082 200.414303 
L 351.616099 198.518984 
L 352.303095 198.205286 
L 353.332933 197.787507 
L 354.363757 197.193661 
L 355.394503 196.087291 
L 356.427772 194.931058 
L 356.772178 194.710043 
L 357.116576 194.740284 
L 358.14904 195.289128 
L 359.178685 196.347105 
L 360.209344 197.501907 
L 360.896655 197.501365 
L 361.926028 197.127028 
L 363.300379 196.315964 
L 364.673583 195.499355 
L 366.732863 194.727488 
L 367.418585 194.766637 
L 368.448837 194.894911 
L 370.166017 194.92472 
L 372.909943 194.292137 
L 372.909943 194.292137 
" style="fill:none;stroke:#bfbf00;stroke-linecap:square;"/>
   </g>
   <g id="line2d_36">
    <path clip-path="url(#p8dbfd51966)" d="M 53.328125 200.075751 
L 388.128125 200.075751 
" style="fill:none;stroke:#bfbf00;stroke-dasharray:3.7,1.6;stroke-dashoffset:0;"/>
   </g>
   <g id="line2d_37">
    <path clip-path="url(#p8dbfd51966)" d="M 53.328125 193.521839 
L 388.128125 193.521839 
" style="fill:none;stroke:#bfbf00;stroke-dasharray:1,1.65;stroke-dashoffset:0;"/>
   </g>
   <g id="patch_3">
    <path d="M 53.328125 224.64 
L 53.328125 7.2 
" style="fill:none;stroke:#000000;stroke-linecap:square;stroke-linejoin:miter;stroke-width:0.8;"/>
   </g>
   <g id="patch_4">
    <path d="M 388.128125 224.64 
L 388.128125 7.2 
" style="fill:none;stroke:#000000;stroke-linecap:square;stroke-linejoin:miter;stroke-width:0.8;"/>
   </g>
   <g id="patch_5">
    <path d="M 53.328125 224.64 
L 388.128125 224.64 
" style="fill:none;stroke:#000000;stroke-linecap:square;stroke-linejoin:miter;stroke-width:0.8;"/>
   </g>
   <g id="patch_6">
    <path d="M 53.328125 7.2 
L 388.128125 7.2 
" style="fill:none;stroke:#000000;stroke-linecap:square;stroke-linejoin:miter;stroke-width:0.8;"/>
   </g>
   <g id="text_14">
    <!-- $\sf z=1.0~m$ -->
    <g style="fill:#0000ff;" transform="translate(389.815138 29.156632)scale(0.1 -0.1)">
     <defs>
      <path d="M 353 3500 
L 3084 3500 
L 3084 2975 
L 922 459 
L 3084 459 
L 3084 0 
L 275 0 
L 275 525 
L 2438 3041 
L 353 3041 
L 353 3500 
z
" id="DejaVuSans-7a" transform="scale(0.015625)"/>
      <path d="M 678 2906 
L 4684 2906 
L 4684 2381 
L 678 2381 
L 678 2906 
z
M 678 1631 
L 4684 1631 
L 4684 1100 
L 678 1100 
L 678 1631 
z
" id="DejaVuSans-3d" transform="scale(0.015625)"/>
      <path d="M 684 794 
L 1344 794 
L 1344 0 
L 684 0 
L 684 794 
z
" id="DejaVuSans-2e" transform="scale(0.015625)"/>
     </defs>
     <use transform="translate(0 0.78125)" xlink:href="#DejaVuSans-7a"/>
     <use transform="translate(71.972656 0.78125)" xlink:href="#DejaVuSans-3d"/>
     <use transform="translate(175.244141 0.78125)" xlink:href="#DejaVuSans-31"/>
     <use transform="translate(238.867188 0.78125)" xlink:href="#DejaVuSans-2e"/>
     <use transform="translate(270.654297 0.78125)" xlink:href="#DejaVuSans-30"/>
     <use transform="translate(366.747722 0.78125)" xlink:href="#DejaVuSans-6d"/>
    </g>
   </g>
   <g id="text_15">
    <!-- $\sf z=1.5~m$ -->
    <g style="fill:#00bfbf;" transform="translate(389.815138 115.219841)scale(0.1 -0.1)">
     <use transform="translate(0 0.09375)" xlink:href="#DejaVuSans-7a"/>
     <use transform="translate(71.972656 0.09375)" xlink:href="#DejaVuSans-3d"/>
     <use transform="translate(175.244141 0.09375)" xlink:href="#DejaVuSans-31"/>
     <use transform="translate(238.867188 0.09375)" xlink:href="#DejaVuSans-2e"/>
     <use transform="translate(270.654297 0.09375)" xlink:href="#DejaVuSans-35"/>
     <use transform="translate(366.747722 0.09375)" xlink:href="#DejaVuSans-6d"/>
    </g>
   </g>
   <g id="text_16">
    <!-- $\sf z=2.0~m$ -->
    <g style="fill:#008000;" transform="translate(389.815138 156.785439)scale(0.1 -0.1)">
     <use transform="translate(0 0.78125)" xlink:href="#DejaVuSans-7a"/>
     <use transform="translate(71.972656 0.78125)" xlink:href="#DejaVuSans-3d"/>
     <use transform="translate(175.244141 0.78125)" xlink:href="#DejaVuSans-32"/>
     <use transform="translate(238.867188 0.78125)" xlink:href="#DejaVuSans-2e"/>
     <use transform="translate(270.654297 0.78125)" xlink:href="#DejaVuSans-30"/>
     <use transform="translate(366.747722 0.78125)" xlink:href="#DejaVuSans-6d"/>
    </g>
   </g>
   <g id="text_17">
    <!-- $\sf z=2.5~m$ -->
    <g style="fill:#ff0000;" transform="translate(389.815138 180.414016)scale(0.1 -0.1)">
     <use transform="translate(0 0.78125)" xlink:href="#DejaVuSans-7a"/>
     <use transform="translate(71.972656 0.78125)" xlink:href="#DejaVuSans-3d"/>
     <use transform="translate(175.244141 0.78125)" xlink:href="#DejaVuSans-32"/>
     <use transform="translate(238.867188 0.78125)" xlink:href="#DejaVuSans-2e"/>
     <use transform="translate(270.654297 0.78125)" xlink:href="#DejaVuSans-35"/>
     <use transform="translate(366.747722 0.78125)" xlink:href="#DejaVuSans-6d"/>
    </g>
   </g>
   <g id="text_18">
    <!-- $\sf z=4.0~m$ -->
    <g style="fill:#bfbf00;" transform="translate(389.815138 212.148747)scale(0.1 -0.1)">
     <use transform="translate(0 0.78125)" xlink:href="#DejaVuSans-7a"/>
     <use transform="translate(71.972656 0.78125)" xlink:href="#DejaVuSans-3d"/>
     <use transform="translate(175.244141 0.78125)" xlink:href="#DejaVuSans-34"/>
     <use transform="translate(238.867188 0.78125)" xlink:href="#DejaVuSans-2e"/>
     <use transform="translate(270.654297 0.78125)" xlink:href="#DejaVuSans-30"/>
     <use transform="translate(366.747722 0.78125)" xlink:href="#DejaVuSans-6d"/>
    </g>
   </g>
   <g id="legend_1">
    <g id="patch_7">
     <path d="M 297.057813 59.234375 
L 381.128125 59.234375 
Q 383.128125 59.234375 383.128125 57.234375 
L 383.128125 14.2 
Q 383.128125 12.2 381.128125 12.2 
L 297.057813 12.2 
Q 295.057813 12.2 295.057813 14.2 
L 295.057813 57.234375 
Q 295.057813 59.234375 297.057813 59.234375 
z
" style="fill:#ffffff;opacity:0.8;stroke:#cccccc;stroke-linejoin:miter;"/>
    </g>
    <g id="line2d_38">
     <path d="M 299.057813 20.298437 
L 319.057813 20.298437 
" style="fill:none;stroke:#000000;stroke-linecap:square;"/>
    </g>
    <g id="line2d_39"/>
    <g id="text_19">
     <!-- FDS -->
     <g transform="translate(327.057813 23.798437)scale(0.1 -0.1)">
      <defs>
       <path d="M 628 4666 
L 3309 4666 
L 3309 4134 
L 1259 4134 
L 1259 2759 
L 3109 2759 
L 3109 2228 
L 1259 2228 
L 1259 0 
L 628 0 
L 628 4666 
z
" id="DejaVuSans-46" transform="scale(0.015625)"/>
       <path d="M 1259 4147 
L 1259 519 
L 2022 519 
Q 2988 519 3436 956 
Q 3884 1394 3884 2338 
Q 3884 3275 3436 3711 
Q 2988 4147 2022 4147 
L 1259 4147 
z
M 628 4666 
L 1925 4666 
Q 3281 4666 3915 4102 
Q 4550 3538 4550 2338 
Q 4550 1131 3912 565 
Q 3275 0 1925 0 
L 628 0 
L 628 4666 
z
" id="DejaVuSans-44" transform="scale(0.015625)"/>
       <path d="M 3425 4513 
L 3425 3897 
Q 3066 4069 2747 4153 
Q 2428 4238 2131 4238 
Q 1616 4238 1336 4038 
Q 1056 3838 1056 3469 
Q 1056 3159 1242 3001 
Q 1428 2844 1947 2747 
L 2328 2669 
Q 3034 2534 3370 2195 
Q 3706 1856 3706 1288 
Q 3706 609 3251 259 
Q 2797 -91 1919 -91 
Q 1588 -91 1214 -16 
Q 841 59 441 206 
L 441 856 
Q 825 641 1194 531 
Q 1563 422 1919 422 
Q 2459 422 2753 634 
Q 3047 847 3047 1241 
Q 3047 1584 2836 1778 
Q 2625 1972 2144 2069 
L 1759 2144 
Q 1053 2284 737 2584 
Q 422 2884 422 3419 
Q 422 4038 858 4394 
Q 1294 4750 2059 4750 
Q 2388 4750 2728 4690 
Q 3069 4631 3425 4513 
z
" id="DejaVuSans-53" transform="scale(0.015625)"/>
      </defs>
      <use xlink:href="#DejaVuSans-46"/>
      <use x="57.519531" xlink:href="#DejaVuSans-44"/>
      <use x="134.521484" xlink:href="#DejaVuSans-53"/>
     </g>
    </g>
    <g id="line2d_40">
     <path d="M 299.057813 34.976562 
L 319.057813 34.976562 
" style="fill:none;stroke:#000000;stroke-dasharray:3.7,1.6;stroke-dashoffset:0;"/>
    </g>
    <g id="line2d_41"/>
    <g id="text_20">
     <!-- Heskestad -->
     <g transform="translate(327.057813 38.476562)scale(0.1 -0.1)">
      <defs>
       <path d="M 628 4666 
L 1259 4666 
L 1259 2753 
L 3553 2753 
L 3553 4666 
L 4184 4666 
L 4184 0 
L 3553 0 
L 3553 2222 
L 1259 2222 
L 1259 0 
L 628 0 
L 628 4666 
z
" id="DejaVuSans-48" transform="scale(0.015625)"/>
       <path d="M 581 4863 
L 1159 4863 
L 1159 1991 
L 2875 3500 
L 3609 3500 
L 1753 1863 
L 3688 0 
L 2938 0 
L 1159 1709 
L 1159 0 
L 581 0 
L 581 4863 
z
" id="DejaVuSans-6b" transform="scale(0.015625)"/>
       <path d="M 2906 2969 
L 2906 4863 
L 3481 4863 
L 3481 0 
L 2906 0 
L 2906 525 
Q 2725 213 2448 61 
Q 2172 -91 1784 -91 
Q 1150 -91 751 415 
Q 353 922 353 1747 
Q 353 2572 751 3078 
Q 1150 3584 1784 3584 
Q 2172 3584 2448 3432 
Q 2725 3281 2906 2969 
z
M 947 1747 
Q 947 1113 1208 752 
Q 1469 391 1925 391 
Q 2381 391 2643 752 
Q 2906 1113 2906 1747 
Q 2906 2381 2643 2742 
Q 2381 3103 1925 3103 
Q 1469 3103 1208 2742 
Q 947 2381 947 1747 
z
" id="DejaVuSans-64" transform="scale(0.015625)"/>
      </defs>
      <use xlink:href="#DejaVuSans-48"/>
      <use x="75.195312" xlink:href="#DejaVuSans-65"/>
      <use x="136.71875" xlink:href="#DejaVuSans-73"/>
      <use x="188.818359" xlink:href="#DejaVuSans-6b"/>
      <use x="243.103516" xlink:href="#DejaVuSans-65"/>
      <use x="304.626953" xlink:href="#DejaVuSans-73"/>
      <use x="356.726562" xlink:href="#DejaVuSans-74"/>
      <use x="395.935547" xlink:href="#DejaVuSans-61"/>
      <use x="457.214844" xlink:href="#DejaVuSans-64"/>
     </g>
    </g>
    <g id="line2d_42">
     <path d="M 299.057813 49.654687 
L 319.057813 49.654687 
" style="fill:none;stroke:#000000;stroke-dasharray:1,1.65;stroke-dashoffset:0;"/>
    </g>
    <g id="line2d_43"/>
    <g id="text_21">
     <!-- MCCaffrey -->
     <g transform="translate(327.057813 53.154687)scale(0.1 -0.1)">
      <defs>
       <path d="M 628 4666 
L 1569 4666 
L 2759 1491 
L 3956 4666 
L 4897 4666 
L 4897 0 
L 4281 0 
L 4281 4097 
L 3078 897 
L 2444 897 
L 1241 4097 
L 1241 0 
L 628 0 
L 628 4666 
z
" id="DejaVuSans-4d" transform="scale(0.015625)"/>
       <path d="M 2375 4863 
L 2375 4384 
L 1825 4384 
Q 1516 4384 1395 4259 
Q 1275 4134 1275 3809 
L 1275 3500 
L 2222 3500 
L 2222 3053 
L 1275 3053 
L 1275 0 
L 697 0 
L 697 3053 
L 147 3053 
L 147 3500 
L 697 3500 
L 697 3744 
Q 697 4328 969 4595 
Q 1241 4863 1831 4863 
L 2375 4863 
z
" id="DejaVuSans-66" transform="scale(0.015625)"/>
       <path d="M 2059 -325 
Q 1816 -950 1584 -1140 
Q 1353 -1331 966 -1331 
L 506 -1331 
L 506 -850 
L 844 -850 
Q 1081 -850 1212 -737 
Q 1344 -625 1503 -206 
L 1606 56 
L 191 3500 
L 800 3500 
L 1894 763 
L 2988 3500 
L 3597 3500 
L 2059 -325 
z
" id="DejaVuSans-79" transform="scale(0.015625)"/>
      </defs>
      <use xlink:href="#DejaVuSans-4d"/>
      <use x="86.279297" xlink:href="#DejaVuSans-43"/>
      <use x="156.103516" xlink:href="#DejaVuSans-43"/>
      <use x="225.927734" xlink:href="#DejaVuSans-61"/>
      <use x="287.207031" xlink:href="#DejaVuSans-66"/>
      <use x="322.412109" xlink:href="#DejaVuSans-66"/>
      <use x="357.617188" xlink:href="#DejaVuSans-72"/>
      <use x="396.480469" xlink:href="#DejaVuSans-65"/>
      <use x="458.003906" xlink:href="#DejaVuSans-79"/>
     </g>
    </g>
   </g>
  </g>
 </g>
 <defs>
  <clipPath id="p8dbfd51966">
   <rect height="217.44" width="334.8" x="53.328125" y="7.2"/>
  </clipPath>
 </defs>
</svg>
