<?xml version="1.0" encoding="utf-8" standalone="no"?>
<!DOCTYPE svg PUBLIC "-//W3C//DTD SVG 1.1//EN"
  "http://www.w3.org/Graphics/SVG/1.1/DTD/svg11.dtd">
<svg xmlns:xlink="http://www.w3.org/1999/xlink" width="431.6275pt" height="316.271687pt" viewBox="0 0 431.6275 316.271687" xmlns="http://www.w3.org/2000/svg" version="1.1">
 <metadata>
  <rdf:RDF xmlns:dc="http://purl.org/dc/elements/1.1/" xmlns:cc="http://creativecommons.org/ns#" xmlns:rdf="http://www.w3.org/1999/02/22-rdf-syntax-ns#">
   <cc:Work>
    <dc:type rdf:resource="http://purl.org/dc/dcmitype/StillImage"/>
    <dc:date>2023-05-26T11:49:00.478071</dc:date>
    <dc:format>image/svg+xml</dc:format>
    <dc:creator>
     <cc:Agent>
      <dc:title>Matplotlib v3.7.1, https://matplotlib.org/</dc:title>
     </cc:Agent>
    </dc:creator>
   </cc:Work>
  </rdf:RDF>
 </metadata>
 <defs>
  <style type="text/css">*{stroke-linejoin: round; stroke-linecap: butt}</style>
 </defs>
 <g id="figure_1">
  <g id="patch_1">
   <path d="M 0 316.271687 
L 431.6275 316.271687 
L 431.6275 0 
L 0 0 
z
" style="fill: #ffffff"/>
  </g>
  <g id="axes_1">
   <g id="patch_2">
    <path d="M 67.3075 273.312 
L 424.4275 273.312 
L 424.4275 7.2 
L 67.3075 7.2 
z
" style="fill: #ffffff"/>
   </g>
   <g id="matplotlib.axis_1">
    <g id="xtick_1">
     <g id="line2d_1">
      <path d="M 83.540227 273.312 
L 83.540227 7.2 
" clip-path="url(#p2f40841d26)" style="fill: none; stroke-dasharray: 3.7,1.6; stroke-dashoffset: 0; stroke: #cccccc; stroke-opacity: 0.5"/>
     </g>
     <g id="line2d_2">
      <defs>
       <path id="m800317ec4b" d="M 0 0 
L 0 6 
" style="stroke: #262626; stroke-width: 1.25"/>
      </defs>
      <g>
       <use xlink:href="#m800317ec4b" x="83.540227" y="273.312" style="fill: #262626; stroke: #262626; stroke-width: 1.25"/>
      </g>
     </g>
     <g id="text_1">
      <!-- 0 -->
      <g style="fill: #262626" transform="translate(80.040852 291.170281) scale(0.11 -0.11)">
       <defs>
        <path id="DejaVuSans-30" d="M 2034 4250 
Q 1547 4250 1301 3770 
Q 1056 3291 1056 2328 
Q 1056 1369 1301 889 
Q 1547 409 2034 409 
Q 2525 409 2770 889 
Q 3016 1369 3016 2328 
Q 3016 3291 2770 3770 
Q 2525 4250 2034 4250 
z
M 2034 4750 
Q 2819 4750 3233 4129 
Q 3647 3509 3647 2328 
Q 3647 1150 3233 529 
Q 2819 -91 2034 -91 
Q 1250 -91 836 529 
Q 422 1150 422 2328 
Q 422 3509 836 4129 
Q 1250 4750 2034 4750 
z
" transform="scale(0.015625)"/>
       </defs>
       <use xlink:href="#DejaVuSans-30"/>
      </g>
     </g>
    </g>
    <g id="xtick_2">
     <g id="line2d_3">
      <path d="M 137.649318 273.312 
L 137.649318 7.2 
" clip-path="url(#p2f40841d26)" style="fill: none; stroke-dasharray: 3.7,1.6; stroke-dashoffset: 0; stroke: #cccccc; stroke-opacity: 0.5"/>
     </g>
     <g id="line2d_4">
      <g>
       <use xlink:href="#m800317ec4b" x="137.649318" y="273.312" style="fill: #262626; stroke: #262626; stroke-width: 1.25"/>
      </g>
     </g>
     <g id="text_2">
      <!-- 5 -->
      <g style="fill: #262626" transform="translate(134.149943 291.170281) scale(0.11 -0.11)">
       <defs>
        <path id="DejaVuSans-35" d="M 691 4666 
L 3169 4666 
L 3169 4134 
L 1269 4134 
L 1269 2991 
Q 1406 3038 1543 3061 
Q 1681 3084 1819 3084 
Q 2600 3084 3056 2656 
Q 3513 2228 3513 1497 
Q 3513 744 3044 326 
Q 2575 -91 1722 -91 
Q 1428 -91 1123 -41 
Q 819 9 494 109 
L 494 744 
Q 775 591 1075 516 
Q 1375 441 1709 441 
Q 2250 441 2565 725 
Q 2881 1009 2881 1497 
Q 2881 1984 2565 2268 
Q 2250 2553 1709 2553 
Q 1456 2553 1204 2497 
Q 953 2441 691 2322 
L 691 4666 
z
" transform="scale(0.015625)"/>
       </defs>
       <use xlink:href="#DejaVuSans-35"/>
      </g>
     </g>
    </g>
    <g id="xtick_3">
     <g id="line2d_5">
      <path d="M 191.758409 273.312 
L 191.758409 7.2 
" clip-path="url(#p2f40841d26)" style="fill: none; stroke-dasharray: 3.7,1.6; stroke-dashoffset: 0; stroke: #cccccc; stroke-opacity: 0.5"/>
     </g>
     <g id="line2d_6">
      <g>
       <use xlink:href="#m800317ec4b" x="191.758409" y="273.312" style="fill: #262626; stroke: #262626; stroke-width: 1.25"/>
      </g>
     </g>
     <g id="text_3">
      <!-- 10 -->
      <g style="fill: #262626" transform="translate(184.759659 291.170281) scale(0.11 -0.11)">
       <defs>
        <path id="DejaVuSans-31" d="M 794 531 
L 1825 531 
L 1825 4091 
L 703 3866 
L 703 4441 
L 1819 4666 
L 2450 4666 
L 2450 531 
L 3481 531 
L 3481 0 
L 794 0 
L 794 531 
z
" transform="scale(0.015625)"/>
       </defs>
       <use xlink:href="#DejaVuSans-31"/>
       <use xlink:href="#DejaVuSans-30" x="63.623047"/>
      </g>
     </g>
    </g>
    <g id="xtick_4">
     <g id="line2d_7">
      <path d="M 245.8675 273.312 
L 245.8675 7.2 
" clip-path="url(#p2f40841d26)" style="fill: none; stroke-dasharray: 3.7,1.6; stroke-dashoffset: 0; stroke: #cccccc; stroke-opacity: 0.5"/>
     </g>
     <g id="line2d_8">
      <g>
       <use xlink:href="#m800317ec4b" x="245.8675" y="273.312" style="fill: #262626; stroke: #262626; stroke-width: 1.25"/>
      </g>
     </g>
     <g id="text_4">
      <!-- 15 -->
      <g style="fill: #262626" transform="translate(238.86875 291.170281) scale(0.11 -0.11)">
       <use xlink:href="#DejaVuSans-31"/>
       <use xlink:href="#DejaVuSans-35" x="63.623047"/>
      </g>
     </g>
    </g>
    <g id="xtick_5">
     <g id="line2d_9">
      <path d="M 299.976591 273.312 
L 299.976591 7.2 
" clip-path="url(#p2f40841d26)" style="fill: none; stroke-dasharray: 3.7,1.6; stroke-dashoffset: 0; stroke: #cccccc; stroke-opacity: 0.5"/>
     </g>
     <g id="line2d_10">
      <g>
       <use xlink:href="#m800317ec4b" x="299.976591" y="273.312" style="fill: #262626; stroke: #262626; stroke-width: 1.25"/>
      </g>
     </g>
     <g id="text_5">
      <!-- 20 -->
      <g style="fill: #262626" transform="translate(292.977841 291.170281) scale(0.11 -0.11)">
       <defs>
        <path id="DejaVuSans-32" d="M 1228 531 
L 3431 531 
L 3431 0 
L 469 0 
L 469 531 
Q 828 903 1448 1529 
Q 2069 2156 2228 2338 
Q 2531 2678 2651 2914 
Q 2772 3150 2772 3378 
Q 2772 3750 2511 3984 
Q 2250 4219 1831 4219 
Q 1534 4219 1204 4116 
Q 875 4013 500 3803 
L 500 4441 
Q 881 4594 1212 4672 
Q 1544 4750 1819 4750 
Q 2544 4750 2975 4387 
Q 3406 4025 3406 3419 
Q 3406 3131 3298 2873 
Q 3191 2616 2906 2266 
Q 2828 2175 2409 1742 
Q 1991 1309 1228 531 
z
" transform="scale(0.015625)"/>
       </defs>
       <use xlink:href="#DejaVuSans-32"/>
       <use xlink:href="#DejaVuSans-30" x="63.623047"/>
      </g>
     </g>
    </g>
    <g id="xtick_6">
     <g id="line2d_11">
      <path d="M 354.085682 273.312 
L 354.085682 7.2 
" clip-path="url(#p2f40841d26)" style="fill: none; stroke-dasharray: 3.7,1.6; stroke-dashoffset: 0; stroke: #cccccc; stroke-opacity: 0.5"/>
     </g>
     <g id="line2d_12">
      <g>
       <use xlink:href="#m800317ec4b" x="354.085682" y="273.312" style="fill: #262626; stroke: #262626; stroke-width: 1.25"/>
      </g>
     </g>
     <g id="text_6">
      <!-- 25 -->
      <g style="fill: #262626" transform="translate(347.086932 291.170281) scale(0.11 -0.11)">
       <use xlink:href="#DejaVuSans-32"/>
       <use xlink:href="#DejaVuSans-35" x="63.623047"/>
      </g>
     </g>
    </g>
    <g id="xtick_7">
     <g id="line2d_13">
      <path d="M 408.194773 273.312 
L 408.194773 7.2 
" clip-path="url(#p2f40841d26)" style="fill: none; stroke-dasharray: 3.7,1.6; stroke-dashoffset: 0; stroke: #cccccc; stroke-opacity: 0.5"/>
     </g>
     <g id="line2d_14">
      <g>
       <use xlink:href="#m800317ec4b" x="408.194773" y="273.312" style="fill: #262626; stroke: #262626; stroke-width: 1.25"/>
      </g>
     </g>
     <g id="text_7">
      <!-- 30 -->
      <g style="fill: #262626" transform="translate(401.196023 291.170281) scale(0.11 -0.11)">
       <defs>
        <path id="DejaVuSans-33" d="M 2597 2516 
Q 3050 2419 3304 2112 
Q 3559 1806 3559 1356 
Q 3559 666 3084 287 
Q 2609 -91 1734 -91 
Q 1441 -91 1130 -33 
Q 819 25 488 141 
L 488 750 
Q 750 597 1062 519 
Q 1375 441 1716 441 
Q 2309 441 2620 675 
Q 2931 909 2931 1356 
Q 2931 1769 2642 2001 
Q 2353 2234 1838 2234 
L 1294 2234 
L 1294 2753 
L 1863 2753 
Q 2328 2753 2575 2939 
Q 2822 3125 2822 3475 
Q 2822 3834 2567 4026 
Q 2313 4219 1838 4219 
Q 1578 4219 1281 4162 
Q 984 4106 628 3988 
L 628 4550 
Q 988 4650 1302 4700 
Q 1616 4750 1894 4750 
Q 2613 4750 3031 4423 
Q 3450 4097 3450 3541 
Q 3450 3153 3228 2886 
Q 3006 2619 2597 2516 
z
" transform="scale(0.015625)"/>
       </defs>
       <use xlink:href="#DejaVuSans-33"/>
       <use xlink:href="#DejaVuSans-30" x="63.623047"/>
      </g>
     </g>
    </g>
    <g id="text_8">
     <!-- Time / s -->
     <g style="fill: #262626" transform="translate(222.226562 306.576062) scale(0.12 -0.12)">
      <defs>
       <path id="DejaVuSans-54" d="M -19 4666 
L 3928 4666 
L 3928 4134 
L 2272 4134 
L 2272 0 
L 1638 0 
L 1638 4134 
L -19 4134 
L -19 4666 
z
" transform="scale(0.015625)"/>
       <path id="DejaVuSans-69" d="M 603 3500 
L 1178 3500 
L 1178 0 
L 603 0 
L 603 3500 
z
M 603 4863 
L 1178 4863 
L 1178 4134 
L 603 4134 
L 603 4863 
z
" transform="scale(0.015625)"/>
       <path id="DejaVuSans-6d" d="M 3328 2828 
Q 3544 3216 3844 3400 
Q 4144 3584 4550 3584 
Q 5097 3584 5394 3201 
Q 5691 2819 5691 2113 
L 5691 0 
L 5113 0 
L 5113 2094 
Q 5113 2597 4934 2840 
Q 4756 3084 4391 3084 
Q 3944 3084 3684 2787 
Q 3425 2491 3425 1978 
L 3425 0 
L 2847 0 
L 2847 2094 
Q 2847 2600 2669 2842 
Q 2491 3084 2119 3084 
Q 1678 3084 1418 2786 
Q 1159 2488 1159 1978 
L 1159 0 
L 581 0 
L 581 3500 
L 1159 3500 
L 1159 2956 
Q 1356 3278 1631 3431 
Q 1906 3584 2284 3584 
Q 2666 3584 2933 3390 
Q 3200 3197 3328 2828 
z
" transform="scale(0.015625)"/>
       <path id="DejaVuSans-65" d="M 3597 1894 
L 3597 1613 
L 953 1613 
Q 991 1019 1311 708 
Q 1631 397 2203 397 
Q 2534 397 2845 478 
Q 3156 559 3463 722 
L 3463 178 
Q 3153 47 2828 -22 
Q 2503 -91 2169 -91 
Q 1331 -91 842 396 
Q 353 884 353 1716 
Q 353 2575 817 3079 
Q 1281 3584 2069 3584 
Q 2775 3584 3186 3129 
Q 3597 2675 3597 1894 
z
M 3022 2063 
Q 3016 2534 2758 2815 
Q 2500 3097 2075 3097 
Q 1594 3097 1305 2825 
Q 1016 2553 972 2059 
L 3022 2063 
z
" transform="scale(0.015625)"/>
       <path id="DejaVuSans-20" transform="scale(0.015625)"/>
       <path id="DejaVuSans-2f" d="M 1625 4666 
L 2156 4666 
L 531 -594 
L 0 -594 
L 1625 4666 
z
" transform="scale(0.015625)"/>
       <path id="DejaVuSans-73" d="M 2834 3397 
L 2834 2853 
Q 2591 2978 2328 3040 
Q 2066 3103 1784 3103 
Q 1356 3103 1142 2972 
Q 928 2841 928 2578 
Q 928 2378 1081 2264 
Q 1234 2150 1697 2047 
L 1894 2003 
Q 2506 1872 2764 1633 
Q 3022 1394 3022 966 
Q 3022 478 2636 193 
Q 2250 -91 1575 -91 
Q 1294 -91 989 -36 
Q 684 19 347 128 
L 347 722 
Q 666 556 975 473 
Q 1284 391 1588 391 
Q 1994 391 2212 530 
Q 2431 669 2431 922 
Q 2431 1156 2273 1281 
Q 2116 1406 1581 1522 
L 1381 1569 
Q 847 1681 609 1914 
Q 372 2147 372 2553 
Q 372 3047 722 3315 
Q 1072 3584 1716 3584 
Q 2034 3584 2315 3537 
Q 2597 3491 2834 3397 
z
" transform="scale(0.015625)"/>
      </defs>
      <use xlink:href="#DejaVuSans-54"/>
      <use xlink:href="#DejaVuSans-69" x="57.958984"/>
      <use xlink:href="#DejaVuSans-6d" x="85.742188"/>
      <use xlink:href="#DejaVuSans-65" x="183.154297"/>
      <use xlink:href="#DejaVuSans-20" x="244.677734"/>
      <use xlink:href="#DejaVuSans-2f" x="276.464844"/>
      <use xlink:href="#DejaVuSans-20" x="310.15625"/>
      <use xlink:href="#DejaVuSans-73" x="341.943359"/>
     </g>
    </g>
   </g>
   <g id="matplotlib.axis_2">
    <g id="ytick_1">
     <g id="line2d_15">
      <path d="M 67.3075 261.216 
L 424.4275 261.216 
" clip-path="url(#p2f40841d26)" style="fill: none; stroke-dasharray: 3.7,1.6; stroke-dashoffset: 0; stroke: #cccccc; stroke-opacity: 0.5"/>
     </g>
     <g id="line2d_16">
      <defs>
       <path id="m65cc3fd30d" d="M 0 0 
L -6 0 
" style="stroke: #262626; stroke-width: 1.25"/>
      </defs>
      <g>
       <use xlink:href="#m65cc3fd30d" x="67.3075" y="261.216" style="fill: #262626; stroke: #262626; stroke-width: 1.25"/>
      </g>
     </g>
     <g id="text_9">
      <!-- 0 -->
      <g style="fill: #262626" transform="translate(50.80875 265.395141) scale(0.11 -0.11)">
       <use xlink:href="#DejaVuSans-30"/>
      </g>
     </g>
    </g>
    <g id="ytick_2">
     <g id="line2d_17">
      <path d="M 67.3075 223.993962 
L 424.4275 223.993962 
" clip-path="url(#p2f40841d26)" style="fill: none; stroke-dasharray: 3.7,1.6; stroke-dashoffset: 0; stroke: #cccccc; stroke-opacity: 0.5"/>
     </g>
     <g id="line2d_18">
      <g>
       <use xlink:href="#m65cc3fd30d" x="67.3075" y="223.993962" style="fill: #262626; stroke: #262626; stroke-width: 1.25"/>
      </g>
     </g>
     <g id="text_10">
      <!-- 2000 -->
      <g style="fill: #262626" transform="translate(29.8125 228.173103) scale(0.11 -0.11)">
       <use xlink:href="#DejaVuSans-32"/>
       <use xlink:href="#DejaVuSans-30" x="63.623047"/>
       <use xlink:href="#DejaVuSans-30" x="127.246094"/>
       <use xlink:href="#DejaVuSans-30" x="190.869141"/>
      </g>
     </g>
    </g>
    <g id="ytick_3">
     <g id="line2d_19">
      <path d="M 67.3075 186.771925 
L 424.4275 186.771925 
" clip-path="url(#p2f40841d26)" style="fill: none; stroke-dasharray: 3.7,1.6; stroke-dashoffset: 0; stroke: #cccccc; stroke-opacity: 0.5"/>
     </g>
     <g id="line2d_20">
      <g>
       <use xlink:href="#m65cc3fd30d" x="67.3075" y="186.771925" style="fill: #262626; stroke: #262626; stroke-width: 1.25"/>
      </g>
     </g>
     <g id="text_11">
      <!-- 4000 -->
      <g style="fill: #262626" transform="translate(29.8125 190.951065) scale(0.11 -0.11)">
       <defs>
        <path id="DejaVuSans-34" d="M 2419 4116 
L 825 1625 
L 2419 1625 
L 2419 4116 
z
M 2253 4666 
L 3047 4666 
L 3047 1625 
L 3713 1625 
L 3713 1100 
L 3047 1100 
L 3047 0 
L 2419 0 
L 2419 1100 
L 313 1100 
L 313 1709 
L 2253 4666 
z
" transform="scale(0.015625)"/>
       </defs>
       <use xlink:href="#DejaVuSans-34"/>
       <use xlink:href="#DejaVuSans-30" x="63.623047"/>
       <use xlink:href="#DejaVuSans-30" x="127.246094"/>
       <use xlink:href="#DejaVuSans-30" x="190.869141"/>
      </g>
     </g>
    </g>
    <g id="ytick_4">
     <g id="line2d_21">
      <path d="M 67.3075 149.549887 
L 424.4275 149.549887 
" clip-path="url(#p2f40841d26)" style="fill: none; stroke-dasharray: 3.7,1.6; stroke-dashoffset: 0; stroke: #cccccc; stroke-opacity: 0.5"/>
     </g>
     <g id="line2d_22">
      <g>
       <use xlink:href="#m65cc3fd30d" x="67.3075" y="149.549887" style="fill: #262626; stroke: #262626; stroke-width: 1.25"/>
      </g>
     </g>
     <g id="text_12">
      <!-- 6000 -->
      <g style="fill: #262626" transform="translate(29.8125 153.729027) scale(0.11 -0.11)">
       <defs>
        <path id="DejaVuSans-36" d="M 2113 2584 
Q 1688 2584 1439 2293 
Q 1191 2003 1191 1497 
Q 1191 994 1439 701 
Q 1688 409 2113 409 
Q 2538 409 2786 701 
Q 3034 994 3034 1497 
Q 3034 2003 2786 2293 
Q 2538 2584 2113 2584 
z
M 3366 4563 
L 3366 3988 
Q 3128 4100 2886 4159 
Q 2644 4219 2406 4219 
Q 1781 4219 1451 3797 
Q 1122 3375 1075 2522 
Q 1259 2794 1537 2939 
Q 1816 3084 2150 3084 
Q 2853 3084 3261 2657 
Q 3669 2231 3669 1497 
Q 3669 778 3244 343 
Q 2819 -91 2113 -91 
Q 1303 -91 875 529 
Q 447 1150 447 2328 
Q 447 3434 972 4092 
Q 1497 4750 2381 4750 
Q 2619 4750 2861 4703 
Q 3103 4656 3366 4563 
z
" transform="scale(0.015625)"/>
       </defs>
       <use xlink:href="#DejaVuSans-36"/>
       <use xlink:href="#DejaVuSans-30" x="63.623047"/>
       <use xlink:href="#DejaVuSans-30" x="127.246094"/>
       <use xlink:href="#DejaVuSans-30" x="190.869141"/>
      </g>
     </g>
    </g>
    <g id="ytick_5">
     <g id="line2d_23">
      <path d="M 67.3075 112.327849 
L 424.4275 112.327849 
" clip-path="url(#p2f40841d26)" style="fill: none; stroke-dasharray: 3.7,1.6; stroke-dashoffset: 0; stroke: #cccccc; stroke-opacity: 0.5"/>
     </g>
     <g id="line2d_24">
      <g>
       <use xlink:href="#m65cc3fd30d" x="67.3075" y="112.327849" style="fill: #262626; stroke: #262626; stroke-width: 1.25"/>
      </g>
     </g>
     <g id="text_13">
      <!-- 8000 -->
      <g style="fill: #262626" transform="translate(29.8125 116.50699) scale(0.11 -0.11)">
       <defs>
        <path id="DejaVuSans-38" d="M 2034 2216 
Q 1584 2216 1326 1975 
Q 1069 1734 1069 1313 
Q 1069 891 1326 650 
Q 1584 409 2034 409 
Q 2484 409 2743 651 
Q 3003 894 3003 1313 
Q 3003 1734 2745 1975 
Q 2488 2216 2034 2216 
z
M 1403 2484 
Q 997 2584 770 2862 
Q 544 3141 544 3541 
Q 544 4100 942 4425 
Q 1341 4750 2034 4750 
Q 2731 4750 3128 4425 
Q 3525 4100 3525 3541 
Q 3525 3141 3298 2862 
Q 3072 2584 2669 2484 
Q 3125 2378 3379 2068 
Q 3634 1759 3634 1313 
Q 3634 634 3220 271 
Q 2806 -91 2034 -91 
Q 1263 -91 848 271 
Q 434 634 434 1313 
Q 434 1759 690 2068 
Q 947 2378 1403 2484 
z
M 1172 3481 
Q 1172 3119 1398 2916 
Q 1625 2713 2034 2713 
Q 2441 2713 2670 2916 
Q 2900 3119 2900 3481 
Q 2900 3844 2670 4047 
Q 2441 4250 2034 4250 
Q 1625 4250 1398 4047 
Q 1172 3844 1172 3481 
z
" transform="scale(0.015625)"/>
       </defs>
       <use xlink:href="#DejaVuSans-38"/>
       <use xlink:href="#DejaVuSans-30" x="63.623047"/>
       <use xlink:href="#DejaVuSans-30" x="127.246094"/>
       <use xlink:href="#DejaVuSans-30" x="190.869141"/>
      </g>
     </g>
    </g>
    <g id="ytick_6">
     <g id="line2d_25">
      <path d="M 67.3075 75.105811 
L 424.4275 75.105811 
" clip-path="url(#p2f40841d26)" style="fill: none; stroke-dasharray: 3.7,1.6; stroke-dashoffset: 0; stroke: #cccccc; stroke-opacity: 0.5"/>
     </g>
     <g id="line2d_26">
      <g>
       <use xlink:href="#m65cc3fd30d" x="67.3075" y="75.105811" style="fill: #262626; stroke: #262626; stroke-width: 1.25"/>
      </g>
     </g>
     <g id="text_14">
      <!-- 10000 -->
      <g style="fill: #262626" transform="translate(22.81375 79.284952) scale(0.11 -0.11)">
       <use xlink:href="#DejaVuSans-31"/>
       <use xlink:href="#DejaVuSans-30" x="63.623047"/>
       <use xlink:href="#DejaVuSans-30" x="127.246094"/>
       <use xlink:href="#DejaVuSans-30" x="190.869141"/>
       <use xlink:href="#DejaVuSans-30" x="254.492188"/>
      </g>
     </g>
    </g>
    <g id="ytick_7">
     <g id="line2d_27">
      <path d="M 67.3075 37.883774 
L 424.4275 37.883774 
" clip-path="url(#p2f40841d26)" style="fill: none; stroke-dasharray: 3.7,1.6; stroke-dashoffset: 0; stroke: #cccccc; stroke-opacity: 0.5"/>
     </g>
     <g id="line2d_28">
      <g>
       <use xlink:href="#m65cc3fd30d" x="67.3075" y="37.883774" style="fill: #262626; stroke: #262626; stroke-width: 1.25"/>
      </g>
     </g>
     <g id="text_15">
      <!-- 12000 -->
      <g style="fill: #262626" transform="translate(22.81375 42.062914) scale(0.11 -0.11)">
       <use xlink:href="#DejaVuSans-31"/>
       <use xlink:href="#DejaVuSans-32" x="63.623047"/>
       <use xlink:href="#DejaVuSans-30" x="127.246094"/>
       <use xlink:href="#DejaVuSans-30" x="190.869141"/>
       <use xlink:href="#DejaVuSans-30" x="254.492188"/>
      </g>
     </g>
    </g>
    <g id="text_16">
     <!-- HRR / kW -->
     <g style="fill: #262626" transform="translate(16.318125 168.348187) rotate(-90) scale(0.12 -0.12)">
      <defs>
       <path id="DejaVuSans-48" d="M 628 4666 
L 1259 4666 
L 1259 2753 
L 3553 2753 
L 3553 4666 
L 4184 4666 
L 4184 0 
L 3553 0 
L 3553 2222 
L 1259 2222 
L 1259 0 
L 628 0 
L 628 4666 
z
" transform="scale(0.015625)"/>
       <path id="DejaVuSans-52" d="M 2841 2188 
Q 3044 2119 3236 1894 
Q 3428 1669 3622 1275 
L 4263 0 
L 3584 0 
L 2988 1197 
Q 2756 1666 2539 1819 
Q 2322 1972 1947 1972 
L 1259 1972 
L 1259 0 
L 628 0 
L 628 4666 
L 2053 4666 
Q 2853 4666 3247 4331 
Q 3641 3997 3641 3322 
Q 3641 2881 3436 2590 
Q 3231 2300 2841 2188 
z
M 1259 4147 
L 1259 2491 
L 2053 2491 
Q 2509 2491 2742 2702 
Q 2975 2913 2975 3322 
Q 2975 3731 2742 3939 
Q 2509 4147 2053 4147 
L 1259 4147 
z
" transform="scale(0.015625)"/>
       <path id="DejaVuSans-6b" d="M 581 4863 
L 1159 4863 
L 1159 1991 
L 2875 3500 
L 3609 3500 
L 1753 1863 
L 3688 0 
L 2938 0 
L 1159 1709 
L 1159 0 
L 581 0 
L 581 4863 
z
" transform="scale(0.015625)"/>
       <path id="DejaVuSans-57" d="M 213 4666 
L 850 4666 
L 1831 722 
L 2809 4666 
L 3519 4666 
L 4500 722 
L 5478 4666 
L 6119 4666 
L 4947 0 
L 4153 0 
L 3169 4050 
L 2175 0 
L 1381 0 
L 213 4666 
z
" transform="scale(0.015625)"/>
      </defs>
      <use xlink:href="#DejaVuSans-48"/>
      <use xlink:href="#DejaVuSans-52" x="75.195312"/>
      <use xlink:href="#DejaVuSans-52" x="144.677734"/>
      <use xlink:href="#DejaVuSans-20" x="214.160156"/>
      <use xlink:href="#DejaVuSans-2f" x="245.947266"/>
      <use xlink:href="#DejaVuSans-20" x="279.638672"/>
      <use xlink:href="#DejaVuSans-6b" x="311.425781"/>
      <use xlink:href="#DejaVuSans-57" x="369.335938"/>
     </g>
    </g>
   </g>
   <g id="line2d_29">
    <path d="M 83.540227 261.216 
L 84.633025 261.216 
L 85.725823 250.235253 
L 86.818621 236.479615 
L 87.46979 232.243618 
L 88.186076 249.319984 
L 88.97399 245.609067 
L 90.554235 246.351226 
L 91.164759 236.454127 
L 91.775283 242.782968 
L 92.667087 223.708227 
L 93.064566 217.800533 
L 93.462045 216.277709 
L 93.859523 211.834723 
L 94.168226 204.413289 
L 95.007296 191.066458 
L 95.537664 170.905398 
L 96.068033 163.863195 
L 96.802375 144.923627 
L 97.423819 120.254077 
L 97.606685 116.449323 
L 97.789552 115.249837 
L 98.424245 85.432751 
L 98.713782 77.273571 
L 99.00332 66.701019 
L 99.292856 57.840667 
L 99.437625 53.447052 
L 99.727162 55.294531 
L 100.161466 37.82567 
L 100.306236 41.410059 
L 101.515618 97.187836 
L 101.773978 108.378786 
L 102.161516 113.768426 
L 102.419875 121.097047 
L 102.807413 122.751557 
L 103.047174 120.47933 
L 103.710656 101.291143 
L 104.042398 101.691242 
L 104.374139 106.111974 
L 104.6822 107.782834 
L 105.373382 103.342397 
L 105.6696 102.042313 
L 105.965821 102.657914 
L 106.597756 108.622096 
L 107.24944 111.603415 
L 107.575281 112.326304 
L 108.245778 115.251733 
L 108.628918 113.35338 
L 109.193828 100.532453 
L 109.537766 98.327545 
L 109.881705 99.450016 
L 110.225643 99.69189 
L 110.535682 97.455373 
L 110.876326 98.318358 
L 111.474728 111.711201 
L 111.807175 115.780666 
L 112.139621 116.973124 
L 112.498663 116.213741 
L 113.164221 107.912188 
L 115.08571 65.033435 
L 115.716285 65.689622 
L 116.061665 63.173841 
L 116.337971 60.083723 
L 116.683348 60.455701 
L 117.650414 63.480569 
L 117.995795 64.248348 
L 118.341173 66.744606 
L 118.645348 70.39942 
L 119.253698 85.743524 
L 119.618705 85.843193 
L 119.92288 82.530417 
L 120.227053 80.718098 
L 120.592064 79.344895 
L 120.908405 75.451109 
L 121.242995 69.628086 
L 121.851953 64.232956 
L 122.175836 59.956796 
L 122.823607 46.552098 
L 123.228461 42.821333 
L 123.552347 42.172609 
L 123.876232 42.681006 
L 125.489051 65.290211 
L 126.102865 77.714334 
L 126.738343 86.922552 
L 127.373825 92.221424 
L 127.699509 93.940088 
L 128.049022 93.779655 
L 128.74805 87.311548 
L 129.010186 86.218633 
L 129.359699 83.796472 
L 129.709213 79.995678 
L 130.320862 68.995646 
L 130.670375 63.706283 
L 131.01989 62.75057 
L 132.312608 77.184223 
L 132.627012 77.257191 
L 133.88462 63.83723 
L 134.2226 62.329366 
L 134.91429 57.568648 
L 135.519515 51.825753 
L 135.865354 48.593075 
L 136.211199 48.219087 
L 136.470579 49.361692 
L 137.162263 49.538608 
L 137.508109 54.703221 
L 137.767488 61.480685 
L 138.459178 72.929811 
L 138.805017 75.101326 
L 139.064402 76.01062 
L 139.410241 76.070608 
L 139.756086 75.116433 
L 140.101926 74.813898 
L 140.361311 75.045921 
L 140.707151 73.624709 
L 141.052995 73.23693 
L 141.65822 71.69979 
L 142.004064 69.766329 
L 142.695748 68.973797 
L 142.955129 70.378613 
L 143.300974 72.896535 
L 143.646813 73.981966 
L 143.992658 73.002282 
L 144.252037 71.10139 
L 144.597882 72.41704 
L 145.635411 90.158668 
L 145.894792 91.502257 
L 146.586476 87.746957 
L 147.1917 85.095408 
L 147.546188 84.50917 
L 147.831508 82.963049 
L 148.211938 79.452873 
L 148.497257 71.464584 
L 149.163007 61.848606 
L 149.828751 56.499427 
L 150.11407 56.675859 
L 150.494499 58.931496 
L 150.77982 64.698083 
L 151.445568 71.003329 
L 151.730889 72.815186 
L 152.111312 71.534357 
L 152.396633 68.348672 
L 153.062381 64.904107 
L 153.347702 65.35762 
L 154.013446 72.974236 
L 154.393874 73.909142 
L 154.679195 72.959514 
L 155.658795 66.172969 
L 156.286498 57.844445 
L 156.600349 58.185622 
L 158.254311 74.251491 
L 158.618867 76.456493 
L 158.892277 75.59355 
L 159.256828 73.14501 
L 159.894794 63.49516 
L 160.168209 60.373012 
L 160.897311 57.308578 
L 161.489707 56.825901 
L 161.790461 57.713033 
L 162.191469 58.365833 
L 162.492224 64.872375 
L 163.093733 80.006856 
L 163.739439 85.612223 
L 164.095605 86.323698 
L 164.781221 78.25492 
L 165.368885 59.665254 
L 166.00553 51.630338 
L 166.328748 49.798641 
L 166.651964 50.594969 
L 167.082922 50.852527 
L 167.40614 54.953614 
L 167.987932 67.763671 
L 168.936039 86.122089 
L 169.29158 89.041573 
L 169.647121 88.364647 
L 170.002657 85.143223 
L 170.239681 81.264953 
L 170.595222 78.685164 
L 171.52804 63.751508 
L 173.158905 77.151598 
L 173.499521 80.975282 
L 174.838141 88.519119 
L 175.141284 89.278097 
L 175.464647 87.769592 
L 175.798111 85.502128 
L 176.131567 80.751516 
L 176.465032 78.782321 
L 176.798487 73.580452 
L 177.131952 71.142614 
L 177.465418 72.494127 
L 177.798873 73.056254 
L 178.021187 71.540443 
L 178.354641 68.399256 
L 178.746325 68.506288 
L 179.040077 69.245834 
L 179.333829 67.405707 
L 179.725513 61.927833 
L 180.019264 60.322912 
L 180.313027 57.830878 
L 180.7047 57.176347 
L 181.585966 54.002833 
L 181.977639 54.98998 
L 182.271402 57.287361 
L 182.574948 62.463142 
L 183.221217 79.16807 
L 183.544342 84.432362 
L 184.190611 89.650687 
L 184.513745 90.456865 
L 184.836879 90.905159 
L 185.160003 91.097568 
L 185.483139 93.839972 
L 186.211827 98.426706 
L 187.16251 110.820954 
L 187.447716 111.097408 
L 187.827984 108.523753 
L 189.092389 89.99699 
L 190.033566 77.954379 
L 190.451866 73.933671 
L 191.006117 65.392013 
L 191.351214 63.5115 
L 191.69631 60.508929 
L 192.04141 58.512283 
L 192.421018 54.735884 
L 192.674086 50.805907 
L 193.306762 50.358907 
L 193.68637 51.86612 
L 194.627944 66.321578 
L 195.302295 81.290428 
L 195.63947 84.770782 
L 195.976646 85.607123 
L 196.875787 90.886893 
L 197.212963 94.577009 
L 197.583859 95.148745 
L 197.831116 95.96155 
L 198.202023 95.3661 
L 198.572919 95.186931 
L 199.450698 83.721395 
L 200.538659 66.626371 
L 201.405486 55.616371 
L 201.74962 54.939544 
L 202.093765 56.061026 
L 202.437899 59.162924 
L 203.699734 78.045917 
L 204.043867 78.79662 
L 204.388001 78.16579 
L 204.732146 74.62239 
L 204.961568 70.563569 
L 205.305713 66.723409 
L 205.672789 65.013763 
L 206.051336 65.715566 
L 206.682259 70.988421 
L 206.934624 71.412511 
L 207.313171 71.185717 
L 207.565536 72.972486 
L 207.944094 73.673749 
L 208.322641 73.31679 
L 208.575006 73.772499 
L 208.953564 76.041525 
L 209.205929 81.803361 
L 210.593957 95.071398 
L 210.846322 94.432752 
L 211.211147 94.08713 
L 211.885963 89.596838 
L 212.110905 84.518759 
L 212.78571 74.416831 
L 214.135332 54.21833 
L 214.472735 51.502089 
L 214.810137 54.439876 
L 215.372482 63.300209 
L 216.114772 81.062164 
L 216.362202 85.400245 
L 216.733347 88.448697 
L 216.980777 89.385184 
L 217.351923 89.875726 
L 217.723068 87.333318 
L 218.341654 81.448728 
L 218.712799 79.652818 
L 218.960218 79.489306 
L 219.331363 83.785693 
L 219.578793 88.85344 
L 220.642751 100.487571 
L 220.91492 100.977646 
L 221.323173 98.920802 
L 221.595352 96.367544 
L 221.867532 91.111965 
L 222.275785 87.966349 
L 222.820133 77.592558 
L 223.468144 63.852882 
L 223.827763 63.385895 
L 224.187394 63.753146 
L 224.559005 65.495658 
L 224.822732 67.852948 
L 225.218313 68.595975 
L 225.495222 66.453028 
L 225.785322 65.18638 
L 226.075423 65.084597 
L 226.800658 72.942746 
L 227.090758 73.456131 
L 227.380859 73.514811 
L 227.767273 71.735077 
L 228.024876 71.167255 
L 228.41128 73.877391 
L 229.055297 80.681702 
L 229.312899 86.534875 
L 229.699303 91.16131 
L 230.085718 93.065794 
L 230.34332 92.82684 
L 230.613801 92.303495 
L 231.024478 89.411156 
L 231.673755 82.284063 
L 232.233903 72.539668 
L 233.214176 63.258521 
L 233.634289 61.607965 
L 234.194448 56.14833 
L 234.614562 55.606749 
L 234.894642 51.430883 
L 235.174721 49.396476 
L 235.594835 51.817025 
L 236.505091 67.668253 
L 236.813177 72.799218 
L 237.429339 80.069774 
L 237.891474 81.763237 
L 238.18389 84.500795 
L 238.460636 84.906759 
L 239.152519 83.346002 
L 239.706011 77.415335 
L 240.121136 75.346962 
L 240.674629 74.932133 
L 241.089754 76.580446 
L 241.3665 78.586357 
L 241.721391 77.931753 
L 242.076282 80.976745 
L 242.679609 90.500535 
L 243.369272 94.367386 
L 243.655553 94.875556 
L 244.371254 87.584146 
L 244.943815 78.603403 
L 245.230095 75.89868 
L 245.659515 73.192692 
L 245.945796 68.690035 
L 246.518357 66.89798 
L 246.947777 64.123133 
L 247.215563 58.335348 
L 247.589522 53.903134 
L 247.838824 52.752973 
L 248.212783 53.009302 
L 248.586742 50.852732 
L 248.836044 50.569584 
L 249.459294 58.096606 
L 249.833263 62.585863 
L 251.453733 90.00733 
L 251.827681 94.94022 
L 252.076994 96.567234 
L 252.450953 98.267044 
L 252.700255 98.375527 
L 253.385839 95.872543 
L 253.660075 96.317342 
L 254.112557 94.007787 
L 254.414215 88.644764 
L 255.017531 82.718699 
L 255.319189 78.75201 
L 255.620848 77.647217 
L 256.07334 77.847551 
L 256.374998 78.966077 
L 256.676657 77.198969 
L 257.973781 64.728307 
L 258.969259 59.001027 
L 259.282237 60.278636 
L 260.574199 72.876602 
L 260.836726 76.016776 
L 261.230543 77.577904 
L 261.506218 80.35788 
L 261.795009 81.275636 
L 262.228206 81.752513 
L 262.516986 80.472315 
L 262.805799 77.895962 
L 263.443085 69.659799 
L 264.080382 70.062244 
L 264.462728 69.127934 
L 264.717646 67.741152 
L 265.100024 67.71076 
L 265.354943 70.10987 
L 265.737311 71.35169 
L 266.678722 75.821999 
L 267.02199 76.078079 
L 267.365226 75.238765 
L 267.708461 72.522993 
L 268.314873 65.054298 
L 268.692435 64.34358 
L 268.944162 62.054109 
L 269.321746 61.147957 
L 270.328586 66.580457 
L 271.631219 87.344185 
L 271.935799 90.040402 
L 272.240379 91.094889 
L 272.544959 92.666793 
L 272.849518 93.504173 
L 273.154087 90.288308 
L 274.182051 75.416007 
L 274.448571 73.910184 
L 275.114881 68.052533 
L 275.514661 67.095089 
L 276.180949 71.739785 
L 276.44748 73.959038 
L 277.780068 72.657309 
L 278.046598 72.731138 
L 278.446378 73.107937 
L 278.72623 74.132548 
L 279.019393 74.135098 
L 279.312556 74.887169 
L 280.074802 79.49616 
L 280.397303 84.566116 
L 280.719793 86.950409 
L 281.042294 85.844261 
L 281.323542 83.887655 
L 281.604823 84.389038 
L 282.026722 87.243607 
L 282.589273 88.07999 
L 283.292442 83.716949 
L 283.573723 82.216858 
L 283.854993 83.184938 
L 284.276892 83.754575 
L 285.261342 92.602985 
L 285.542623 90.903797 
L 285.823871 87.697962 
L 286.527051 82.592393 
L 286.808332 82.552073 
L 287.230231 83.714558 
L 287.511501 82.820758 
L 287.80684 81.498186 
L 288.425631 71.746001 
L 289.199131 58.547048 
L 289.817923 39.983152 
L 290.436725 23.887189 
L 290.746132 19.296 
L 291.016504 19.591543 
L 291.422084 25.988857 
L 291.692478 34.315371 
L 292.098048 39.171396 
L 292.368452 45.804549 
L 293.720368 92.785423 
L 293.990773 98.082078 
L 294.261145 99.604465 
L 294.666736 99.924275 
L 294.937119 100.305444 
L 295.234557 99.042532 
L 295.680686 98.273035 
L 296.27554 99.756741 
L 296.572956 100.197744 
L 296.870394 101.196377 
L 297.580586 98.424627 
L 297.844671 101.460252 
L 298.504824 113.740991 
L 298.900924 116.513523 
L 299.164987 115.170712 
L 299.455466 111.988965 
L 299.891174 105.210893 
L 300.472122 100.484072 
L 302.069715 69.708448 
L 303.028279 57.894769 
L 303.347804 55.654654 
L 303.667318 56.393381 
L 303.986843 57.988978 
L 304.753309 58.216703 
L 305.040488 59.103332 
L 305.614877 66.167721 
L 306.602617 84.628076 
L 306.981132 85.666669 
L 307.246093 88.159811 
L 307.662463 88.041741 
L 307.940042 85.379526 
L 308.217622 83.789421 
L 308.675645 84.456689 
L 308.980971 83.917401 
L 309.286309 83.621469 
L 309.591657 84.800788 
L 309.896995 85.028127 
L 310.180916 84.12524 
L 310.574679 84.453032 
L 310.837194 87.834963 
L 311.230957 88.178184 
L 311.493473 91.214906 
L 312.162878 92.978045 
L 312.451647 91.238792 
L 312.88478 89.366 
L 313.173549 86.54998 
L 313.751056 79.455977 
L 314.18421 79.001083 
L 314.761727 75.707776 
L 315.050496 75.352927 
L 315.48364 76.9464 
L 316.061157 75.741316 
L 316.349926 76.761855 
L 316.667568 75.312377 
L 318.096935 66.090336 
L 318.414577 66.835186 
L 319.049851 68.729769 
L 319.367493 68.402253 
L 319.685113 66.554867 
L 320.002755 65.683499 
L 320.320408 61.380018 
L 320.95567 57.92799 
L 321.251171 56.326698 
L 321.524541 56.219573 
L 321.93459 57.246585 
L 323.219411 51.72879 
L 323.520106 55.237432 
L 324.121507 58.003458 
L 324.587591 58.617305 
L 324.918371 60.426091 
L 325.083739 62.98827 
L 325.414519 66.257296 
L 326.406826 82.247719 
L 327.455222 93.137711 
L 327.780093 95.772159 
L 328.104942 96.723628 
L 329.079501 91.388938 
L 329.729221 87.705324 
L 330.016963 83.84996 
L 330.736256 79.479265 
L 331.023965 73.64159 
L 331.599415 70.131458 
L 332.031 69.286406 
L 332.318731 69.213042 
L 332.606451 69.380001 
L 332.89417 67.360352 
L 333.325744 65.713947 
L 333.613486 65.931305 
L 333.915588 69.452231 
L 334.232072 75.570774 
L 334.548577 78.380292 
L 334.865072 78.206809 
L 335.181556 79.051999 
L 335.498062 78.376093 
L 336.178516 84.163042 
L 337.435265 102.687522 
L 337.889554 105.892799 
L 338.858702 117.470381 
L 339.191852 119.596567 
L 339.525023 120.30195 
L 339.858162 120.007868 
L 340.357881 114.445279 
L 341.024169 107.759017 
L 341.690479 99.377284 
L 343.689378 64.215965 
L 344.355666 60.095839 
L 344.688816 59.268225 
L 345.021955 61.740885 
L 345.355126 59.828715 
L 345.688276 60.167956 
L 346.021414 59.749525 
L 346.187984 58.300471 
L 346.854283 61.181159 
L 347.187422 61.572548 
L 347.870398 68.02309 
L 348.236857 73.0334 
L 348.78654 82.821335 
L 349.519481 88.930728 
L 349.88594 93.780616 
L 350.435634 97.807234 
L 350.802093 98.275778 
L 351.168574 97.758641 
L 351.535033 97.718975 
L 351.718268 98.654455 
L 352.084728 98.822265 
L 352.817646 92.853733 
L 353.367351 83.8869 
L 353.73381 80.304416 
L 354.10027 79.72885 
L 355.016445 73.641925 
L 355.382904 71.632437 
L 355.932598 74.473632 
L 356.299057 74.641988 
L 357.031998 78.345327 
L 357.581681 79.823872 
L 357.948151 78.528575 
L 358.31461 78.162811 
L 358.68107 76.030587 
L 359.010561 75.392125 
L 359.175313 74.45182 
L 360.163767 71.717731 
L 360.822751 66.513886 
L 361.481734 64.134206 
L 362.47021 54.478121 
L 362.799702 53.448392 
L 363.129172 53.385096 
L 363.458664 53.070681 
L 363.788156 53.975698 
L 364.117648 55.764143 
L 364.776632 63.956713 
L 365.106124 65.955369 
L 365.723249 72.388733 
L 366.010903 74.911419 
L 366.442358 77.550873 
L 367.017646 85.83495 
L 368.024389 106.987909 
L 368.312022 110.693673 
L 368.599677 112.491473 
L 369.031132 113.363405 
L 369.318765 112.784256 
L 369.60642 110.410129 
L 369.894053 106.833517 
L 370.32553 104.204659 
L 370.613163 103.14899 
L 370.900818 99.819147 
L 373.28823 62.421062 
L 373.604638 59.976188 
L 373.921046 58.752309 
L 374.785731 52.418998 
L 375.209622 51.250487 
L 375.492212 50.119849 
L 375.774791 49.605533 
L 376.057382 49.945352 
L 376.481272 49.42281 
L 377.470343 56.659537 
L 378.035534 64.178501 
L 378.459414 65.598875 
L 379.024605 70.845954 
L 379.307206 74.254953 
L 380.013687 79.069115 
L 380.296277 78.931883 
L 381.002758 72.312149 
L 381.709238 64.370231 
L 382.316808 58.152625 
L 382.627654 57.934355 
L 383.560213 60.239255 
L 384.648185 64.864224 
L 384.95903 64.749412 
L 385.269887 65.292835 
L 385.89159 69.048799 
L 386.202447 69.40976 
L 386.513303 70.519628 
L 386.82416 71.010382 
L 387.445863 74.410783 
L 387.756698 74.655034 
L 388.067544 72.877477 
L 388.87576 66.94179 
L 389.046734 67.283005 
L 389.388671 67.468854 
L 389.730608 67.865809 
L 390.414493 73.16779 
L 391.098345 86.045969 
L 392.124156 113.652395 
L 392.29513 119.255066 
L 392.637067 124.719914 
L 393.320941 130.445086 
L 393.662878 131.143554 
L 394.004826 131.252257 
L 394.346763 134.023806 
L 394.688678 133.009336 
L 395.030615 130.344802 
L 395.372552 126.340893 
L 395.543526 122.320088 
L 395.885463 119.514643 
L 396.911274 105.146307 
L 397.937074 94.774418 
L 398.233516 89.407384 
L 398.529969 86.831663 
L 399.122832 77.299838 
L 399.5675 76.664551 
L 399.863953 77.285742 
L 400.160374 76.13499 
L 400.486457 77.593892 
L 400.81255 77.693089 
L 401.138633 81.78252 
L 401.79081 85.553235 
L 402.116893 89.074602 
L 402.442976 90.529202 
L 402.769049 91.126404 
L 403.095132 90.327727 
L 403.747298 85.314817 
L 404.073391 84.158323 
L 404.399475 82.256103 
L 404.725558 81.061948 
L 405.051651 78.92767 
L 405.703817 65.823026 
L 406.355973 60.914593 
L 407.008139 51.786651 
L 407.334233 44.166649 
L 407.660316 40.702319 
L 408.002707 38.521666 
L 408.194773 34.388345 
L 408.194773 34.388345 
" clip-path="url(#p2f40841d26)" style="fill: none; stroke: #4c72b0; stroke-width: 1.5; stroke-linecap: round"/>
   </g>
   <g id="line2d_30">
    <path d="M 83.540227 75.105811 
L 408.194773 75.105811 
" clip-path="url(#p2f40841d26)" style="fill: none; stroke: #dd8452; stroke-width: 1.5; stroke-linecap: round"/>
   </g>
   <g id="patch_3">
    <path d="M 67.3075 273.312 
L 67.3075 7.2 
" style="fill: none; stroke: #262626; stroke-width: 1.25; stroke-linejoin: miter; stroke-linecap: square"/>
   </g>
   <g id="patch_4">
    <path d="M 424.4275 273.312 
L 424.4275 7.2 
" style="fill: none; stroke: #262626; stroke-width: 1.25; stroke-linejoin: miter; stroke-linecap: square"/>
   </g>
   <g id="patch_5">
    <path d="M 67.3075 273.312 
L 424.4275 273.312 
" style="fill: none; stroke: #262626; stroke-width: 1.25; stroke-linejoin: miter; stroke-linecap: square"/>
   </g>
   <g id="patch_6">
    <path d="M 67.3075 7.2 
L 424.4275 7.2 
" style="fill: none; stroke: #262626; stroke-width: 1.25; stroke-linejoin: miter; stroke-linecap: square"/>
   </g>
   <g id="legend_1">
    <g id="patch_7">
     <path d="M 323.409687 267.812 
L 416.7275 267.812 
Q 418.9275 267.812 418.9275 265.612 
L 418.9275 234.420125 
Q 418.9275 232.220125 416.7275 232.220125 
L 323.409687 232.220125 
Q 321.209687 232.220125 321.209687 234.420125 
L 321.209687 265.612 
Q 321.209687 267.812 323.409687 267.812 
z
" style="fill: #ffffff; opacity: 0.8; stroke: #cccccc; stroke-linejoin: miter"/>
    </g>
    <g id="line2d_31">
     <path d="M 325.609687 241.128406 
L 336.609687 241.128406 
L 347.609687 241.128406 
" style="fill: none; stroke: #4c72b0; stroke-width: 1.5; stroke-linecap: round"/>
    </g>
    <g id="text_17">
     <!-- simulation -->
     <g style="fill: #262626" transform="translate(356.409687 244.978406) scale(0.11 -0.11)">
      <defs>
       <path id="DejaVuSans-75" d="M 544 1381 
L 544 3500 
L 1119 3500 
L 1119 1403 
Q 1119 906 1312 657 
Q 1506 409 1894 409 
Q 2359 409 2629 706 
Q 2900 1003 2900 1516 
L 2900 3500 
L 3475 3500 
L 3475 0 
L 2900 0 
L 2900 538 
Q 2691 219 2414 64 
Q 2138 -91 1772 -91 
Q 1169 -91 856 284 
Q 544 659 544 1381 
z
M 1991 3584 
L 1991 3584 
z
" transform="scale(0.015625)"/>
       <path id="DejaVuSans-6c" d="M 603 4863 
L 1178 4863 
L 1178 0 
L 603 0 
L 603 4863 
z
" transform="scale(0.015625)"/>
       <path id="DejaVuSans-61" d="M 2194 1759 
Q 1497 1759 1228 1600 
Q 959 1441 959 1056 
Q 959 750 1161 570 
Q 1363 391 1709 391 
Q 2188 391 2477 730 
Q 2766 1069 2766 1631 
L 2766 1759 
L 2194 1759 
z
M 3341 1997 
L 3341 0 
L 2766 0 
L 2766 531 
Q 2569 213 2275 61 
Q 1981 -91 1556 -91 
Q 1019 -91 701 211 
Q 384 513 384 1019 
Q 384 1609 779 1909 
Q 1175 2209 1959 2209 
L 2766 2209 
L 2766 2266 
Q 2766 2663 2505 2880 
Q 2244 3097 1772 3097 
Q 1472 3097 1187 3025 
Q 903 2953 641 2809 
L 641 3341 
Q 956 3463 1253 3523 
Q 1550 3584 1831 3584 
Q 2591 3584 2966 3190 
Q 3341 2797 3341 1997 
z
" transform="scale(0.015625)"/>
       <path id="DejaVuSans-74" d="M 1172 4494 
L 1172 3500 
L 2356 3500 
L 2356 3053 
L 1172 3053 
L 1172 1153 
Q 1172 725 1289 603 
Q 1406 481 1766 481 
L 2356 481 
L 2356 0 
L 1766 0 
Q 1100 0 847 248 
Q 594 497 594 1153 
L 594 3053 
L 172 3053 
L 172 3500 
L 594 3500 
L 594 4494 
L 1172 4494 
z
" transform="scale(0.015625)"/>
       <path id="DejaVuSans-6f" d="M 1959 3097 
Q 1497 3097 1228 2736 
Q 959 2375 959 1747 
Q 959 1119 1226 758 
Q 1494 397 1959 397 
Q 2419 397 2687 759 
Q 2956 1122 2956 1747 
Q 2956 2369 2687 2733 
Q 2419 3097 1959 3097 
z
M 1959 3584 
Q 2709 3584 3137 3096 
Q 3566 2609 3566 1747 
Q 3566 888 3137 398 
Q 2709 -91 1959 -91 
Q 1206 -91 779 398 
Q 353 888 353 1747 
Q 353 2609 779 3096 
Q 1206 3584 1959 3584 
z
" transform="scale(0.015625)"/>
       <path id="DejaVuSans-6e" d="M 3513 2113 
L 3513 0 
L 2938 0 
L 2938 2094 
Q 2938 2591 2744 2837 
Q 2550 3084 2163 3084 
Q 1697 3084 1428 2787 
Q 1159 2491 1159 1978 
L 1159 0 
L 581 0 
L 581 3500 
L 1159 3500 
L 1159 2956 
Q 1366 3272 1645 3428 
Q 1925 3584 2291 3584 
Q 2894 3584 3203 3211 
Q 3513 2838 3513 2113 
z
" transform="scale(0.015625)"/>
      </defs>
      <use xlink:href="#DejaVuSans-73"/>
      <use xlink:href="#DejaVuSans-69" x="52.099609"/>
      <use xlink:href="#DejaVuSans-6d" x="79.882812"/>
      <use xlink:href="#DejaVuSans-75" x="177.294922"/>
      <use xlink:href="#DejaVuSans-6c" x="240.673828"/>
      <use xlink:href="#DejaVuSans-61" x="268.457031"/>
      <use xlink:href="#DejaVuSans-74" x="329.736328"/>
      <use xlink:href="#DejaVuSans-69" x="368.945312"/>
      <use xlink:href="#DejaVuSans-6f" x="396.728516"/>
      <use xlink:href="#DejaVuSans-6e" x="457.910156"/>
     </g>
    </g>
    <g id="line2d_32">
     <path d="M 325.609687 257.274344 
L 336.609687 257.274344 
L 347.609687 257.274344 
" style="fill: none; stroke: #dd8452; stroke-width: 1.5; stroke-linecap: round"/>
    </g>
    <g id="text_18">
     <!-- prescribed -->
     <g style="fill: #262626" transform="translate(356.409687 261.124344) scale(0.11 -0.11)">
      <defs>
       <path id="DejaVuSans-70" d="M 1159 525 
L 1159 -1331 
L 581 -1331 
L 581 3500 
L 1159 3500 
L 1159 2969 
Q 1341 3281 1617 3432 
Q 1894 3584 2278 3584 
Q 2916 3584 3314 3078 
Q 3713 2572 3713 1747 
Q 3713 922 3314 415 
Q 2916 -91 2278 -91 
Q 1894 -91 1617 61 
Q 1341 213 1159 525 
z
M 3116 1747 
Q 3116 2381 2855 2742 
Q 2594 3103 2138 3103 
Q 1681 3103 1420 2742 
Q 1159 2381 1159 1747 
Q 1159 1113 1420 752 
Q 1681 391 2138 391 
Q 2594 391 2855 752 
Q 3116 1113 3116 1747 
z
" transform="scale(0.015625)"/>
       <path id="DejaVuSans-72" d="M 2631 2963 
Q 2534 3019 2420 3045 
Q 2306 3072 2169 3072 
Q 1681 3072 1420 2755 
Q 1159 2438 1159 1844 
L 1159 0 
L 581 0 
L 581 3500 
L 1159 3500 
L 1159 2956 
Q 1341 3275 1631 3429 
Q 1922 3584 2338 3584 
Q 2397 3584 2469 3576 
Q 2541 3569 2628 3553 
L 2631 2963 
z
" transform="scale(0.015625)"/>
       <path id="DejaVuSans-63" d="M 3122 3366 
L 3122 2828 
Q 2878 2963 2633 3030 
Q 2388 3097 2138 3097 
Q 1578 3097 1268 2742 
Q 959 2388 959 1747 
Q 959 1106 1268 751 
Q 1578 397 2138 397 
Q 2388 397 2633 464 
Q 2878 531 3122 666 
L 3122 134 
Q 2881 22 2623 -34 
Q 2366 -91 2075 -91 
Q 1284 -91 818 406 
Q 353 903 353 1747 
Q 353 2603 823 3093 
Q 1294 3584 2113 3584 
Q 2378 3584 2631 3529 
Q 2884 3475 3122 3366 
z
" transform="scale(0.015625)"/>
       <path id="DejaVuSans-62" d="M 3116 1747 
Q 3116 2381 2855 2742 
Q 2594 3103 2138 3103 
Q 1681 3103 1420 2742 
Q 1159 2381 1159 1747 
Q 1159 1113 1420 752 
Q 1681 391 2138 391 
Q 2594 391 2855 752 
Q 3116 1113 3116 1747 
z
M 1159 2969 
Q 1341 3281 1617 3432 
Q 1894 3584 2278 3584 
Q 2916 3584 3314 3078 
Q 3713 2572 3713 1747 
Q 3713 922 3314 415 
Q 2916 -91 2278 -91 
Q 1894 -91 1617 61 
Q 1341 213 1159 525 
L 1159 0 
L 581 0 
L 581 4863 
L 1159 4863 
L 1159 2969 
z
" transform="scale(0.015625)"/>
       <path id="DejaVuSans-64" d="M 2906 2969 
L 2906 4863 
L 3481 4863 
L 3481 0 
L 2906 0 
L 2906 525 
Q 2725 213 2448 61 
Q 2172 -91 1784 -91 
Q 1150 -91 751 415 
Q 353 922 353 1747 
Q 353 2572 751 3078 
Q 1150 3584 1784 3584 
Q 2172 3584 2448 3432 
Q 2725 3281 2906 2969 
z
M 947 1747 
Q 947 1113 1208 752 
Q 1469 391 1925 391 
Q 2381 391 2643 752 
Q 2906 1113 2906 1747 
Q 2906 2381 2643 2742 
Q 2381 3103 1925 3103 
Q 1469 3103 1208 2742 
Q 947 2381 947 1747 
z
" transform="scale(0.015625)"/>
      </defs>
      <use xlink:href="#DejaVuSans-70"/>
      <use xlink:href="#DejaVuSans-72" x="63.476562"/>
      <use xlink:href="#DejaVuSans-65" x="102.339844"/>
      <use xlink:href="#DejaVuSans-73" x="163.863281"/>
      <use xlink:href="#DejaVuSans-63" x="215.962891"/>
      <use xlink:href="#DejaVuSans-72" x="270.943359"/>
      <use xlink:href="#DejaVuSans-69" x="312.056641"/>
      <use xlink:href="#DejaVuSans-62" x="339.839844"/>
      <use xlink:href="#DejaVuSans-65" x="403.316406"/>
      <use xlink:href="#DejaVuSans-64" x="464.839844"/>
     </g>
    </g>
   </g>
  </g>
 </g>
 <defs>
  <clipPath id="p2f40841d26">
   <rect x="67.3075" y="7.2" width="357.12" height="266.112"/>
  </clipPath>
 </defs>
</svg>
