<?xml version="1.0" encoding="utf-8" standalone="no"?>
<!DOCTYPE svg PUBLIC "-//W3C//DTD SVG 1.1//EN"
  "http://www.w3.org/Graphics/SVG/1.1/DTD/svg11.dtd">
<svg height="264.430312pt" version="1.1" viewBox="0 0 395.328125 264.430312" width="395.328125pt" xmlns="http://www.w3.org/2000/svg" xmlns:xlink="http://www.w3.org/1999/xlink">
 <metadata>
  <rdf:RDF xmlns:cc="http://creativecommons.org/ns#" xmlns:dc="http://purl.org/dc/elements/1.1/" xmlns:rdf="http://www.w3.org/1999/02/22-rdf-syntax-ns#">
   <cc:Work>
    <dc:type rdf:resource="http://purl.org/dc/dcmitype/StillImage"/>
    <dc:date>2021-04-06T18:08:54.284801</dc:date>
    <dc:format>image/svg+xml</dc:format>
    <dc:creator>
     <cc:Agent>
      <dc:title>Matplotlib v3.4.1, https://matplotlib.org/</dc:title>
     </cc:Agent>
    </dc:creator>
   </cc:Work>
  </rdf:RDF>
 </metadata>
 <defs>
  <style type="text/css">*{stroke-linecap:butt;stroke-linejoin:round;}</style>
 </defs>
 <g id="figure_1">
  <g id="patch_1">
   <path d="M 0 264.430312 
L 395.328125 264.430312 
L 395.328125 0 
L 0 0 
z
" style="fill:none;"/>
  </g>
  <g id="axes_1">
   <g id="patch_2">
    <path d="M 53.328125 226.874062 
L 388.128125 226.874062 
L 388.128125 9.434062 
L 53.328125 9.434062 
z
" style="fill:#ffffff;"/>
   </g>
   <g id="matplotlib.axis_1">
    <g id="xtick_1">
     <g id="line2d_1">
      <defs>
       <path d="M 0 0 
L 0 3.5 
" id="mb48105bdf3" style="stroke:#000000;stroke-width:0.8;"/>
      </defs>
      <g>
       <use style="stroke:#000000;stroke-width:0.8;" x="68.546307" xlink:href="#mb48105bdf3" y="226.874062"/>
      </g>
     </g>
     <g id="text_1">
      <!-- 0 -->
      <g transform="translate(65.365057 241.472499)scale(0.1 -0.1)">
       <defs>
        <path d="M 2034 4250 
Q 1547 4250 1301 3770 
Q 1056 3291 1056 2328 
Q 1056 1369 1301 889 
Q 1547 409 2034 409 
Q 2525 409 2770 889 
Q 3016 1369 3016 2328 
Q 3016 3291 2770 3770 
Q 2525 4250 2034 4250 
z
M 2034 4750 
Q 2819 4750 3233 4129 
Q 3647 3509 3647 2328 
Q 3647 1150 3233 529 
Q 2819 -91 2034 -91 
Q 1250 -91 836 529 
Q 422 1150 422 2328 
Q 422 3509 836 4129 
Q 1250 4750 2034 4750 
z
" id="DejaVuSans-30" transform="scale(0.015625)"/>
       </defs>
       <use xlink:href="#DejaVuSans-30"/>
      </g>
     </g>
    </g>
    <g id="xtick_2">
     <g id="line2d_2">
      <g>
       <use style="stroke:#000000;stroke-width:0.8;" x="119.312938" xlink:href="#mb48105bdf3" y="226.874062"/>
      </g>
     </g>
     <g id="text_2">
      <!-- 5 -->
      <g transform="translate(116.131688 241.472499)scale(0.1 -0.1)">
       <defs>
        <path d="M 691 4666 
L 3169 4666 
L 3169 4134 
L 1269 4134 
L 1269 2991 
Q 1406 3038 1543 3061 
Q 1681 3084 1819 3084 
Q 2600 3084 3056 2656 
Q 3513 2228 3513 1497 
Q 3513 744 3044 326 
Q 2575 -91 1722 -91 
Q 1428 -91 1123 -41 
Q 819 9 494 109 
L 494 744 
Q 775 591 1075 516 
Q 1375 441 1709 441 
Q 2250 441 2565 725 
Q 2881 1009 2881 1497 
Q 2881 1984 2565 2268 
Q 2250 2553 1709 2553 
Q 1456 2553 1204 2497 
Q 953 2441 691 2322 
L 691 4666 
z
" id="DejaVuSans-35" transform="scale(0.015625)"/>
       </defs>
       <use xlink:href="#DejaVuSans-35"/>
      </g>
     </g>
    </g>
    <g id="xtick_3">
     <g id="line2d_3">
      <g>
       <use style="stroke:#000000;stroke-width:0.8;" x="170.079568" xlink:href="#mb48105bdf3" y="226.874062"/>
      </g>
     </g>
     <g id="text_3">
      <!-- 10 -->
      <g transform="translate(163.717068 241.472499)scale(0.1 -0.1)">
       <defs>
        <path d="M 794 531 
L 1825 531 
L 1825 4091 
L 703 3866 
L 703 4441 
L 1819 4666 
L 2450 4666 
L 2450 531 
L 3481 531 
L 3481 0 
L 794 0 
L 794 531 
z
" id="DejaVuSans-31" transform="scale(0.015625)"/>
       </defs>
       <use xlink:href="#DejaVuSans-31"/>
       <use x="63.623047" xlink:href="#DejaVuSans-30"/>
      </g>
     </g>
    </g>
    <g id="xtick_4">
     <g id="line2d_4">
      <g>
       <use style="stroke:#000000;stroke-width:0.8;" x="220.846199" xlink:href="#mb48105bdf3" y="226.874062"/>
      </g>
     </g>
     <g id="text_4">
      <!-- 15 -->
      <g transform="translate(214.483699 241.472499)scale(0.1 -0.1)">
       <use xlink:href="#DejaVuSans-31"/>
       <use x="63.623047" xlink:href="#DejaVuSans-35"/>
      </g>
     </g>
    </g>
    <g id="xtick_5">
     <g id="line2d_5">
      <g>
       <use style="stroke:#000000;stroke-width:0.8;" x="271.61283" xlink:href="#mb48105bdf3" y="226.874062"/>
      </g>
     </g>
     <g id="text_5">
      <!-- 20 -->
      <g transform="translate(265.25033 241.472499)scale(0.1 -0.1)">
       <defs>
        <path d="M 1228 531 
L 3431 531 
L 3431 0 
L 469 0 
L 469 531 
Q 828 903 1448 1529 
Q 2069 2156 2228 2338 
Q 2531 2678 2651 2914 
Q 2772 3150 2772 3378 
Q 2772 3750 2511 3984 
Q 2250 4219 1831 4219 
Q 1534 4219 1204 4116 
Q 875 4013 500 3803 
L 500 4441 
Q 881 4594 1212 4672 
Q 1544 4750 1819 4750 
Q 2544 4750 2975 4387 
Q 3406 4025 3406 3419 
Q 3406 3131 3298 2873 
Q 3191 2616 2906 2266 
Q 2828 2175 2409 1742 
Q 1991 1309 1228 531 
z
" id="DejaVuSans-32" transform="scale(0.015625)"/>
       </defs>
       <use xlink:href="#DejaVuSans-32"/>
       <use x="63.623047" xlink:href="#DejaVuSans-30"/>
      </g>
     </g>
    </g>
    <g id="xtick_6">
     <g id="line2d_6">
      <g>
       <use style="stroke:#000000;stroke-width:0.8;" x="322.379461" xlink:href="#mb48105bdf3" y="226.874062"/>
      </g>
     </g>
     <g id="text_6">
      <!-- 25 -->
      <g transform="translate(316.016961 241.472499)scale(0.1 -0.1)">
       <use xlink:href="#DejaVuSans-32"/>
       <use x="63.623047" xlink:href="#DejaVuSans-35"/>
      </g>
     </g>
    </g>
    <g id="xtick_7">
     <g id="line2d_7">
      <g>
       <use style="stroke:#000000;stroke-width:0.8;" x="373.146091" xlink:href="#mb48105bdf3" y="226.874062"/>
      </g>
     </g>
     <g id="text_7">
      <!-- 30 -->
      <g transform="translate(366.783591 241.472499)scale(0.1 -0.1)">
       <defs>
        <path d="M 2597 2516 
Q 3050 2419 3304 2112 
Q 3559 1806 3559 1356 
Q 3559 666 3084 287 
Q 2609 -91 1734 -91 
Q 1441 -91 1130 -33 
Q 819 25 488 141 
L 488 750 
Q 750 597 1062 519 
Q 1375 441 1716 441 
Q 2309 441 2620 675 
Q 2931 909 2931 1356 
Q 2931 1769 2642 2001 
Q 2353 2234 1838 2234 
L 1294 2234 
L 1294 2753 
L 1863 2753 
Q 2328 2753 2575 2939 
Q 2822 3125 2822 3475 
Q 2822 3834 2567 4026 
Q 2313 4219 1838 4219 
Q 1578 4219 1281 4162 
Q 984 4106 628 3988 
L 628 4550 
Q 988 4650 1302 4700 
Q 1616 4750 1894 4750 
Q 2613 4750 3031 4423 
Q 3450 4097 3450 3541 
Q 3450 3153 3228 2886 
Q 3006 2619 2597 2516 
z
" id="DejaVuSans-33" transform="scale(0.015625)"/>
       </defs>
       <use xlink:href="#DejaVuSans-33"/>
       <use x="63.623047" xlink:href="#DejaVuSans-30"/>
      </g>
     </g>
    </g>
    <g id="text_8">
     <!-- time / s -->
     <g transform="translate(201.964844 255.150624)scale(0.1 -0.1)">
      <defs>
       <path d="M 1172 4494 
L 1172 3500 
L 2356 3500 
L 2356 3053 
L 1172 3053 
L 1172 1153 
Q 1172 725 1289 603 
Q 1406 481 1766 481 
L 2356 481 
L 2356 0 
L 1766 0 
Q 1100 0 847 248 
Q 594 497 594 1153 
L 594 3053 
L 172 3053 
L 172 3500 
L 594 3500 
L 594 4494 
L 1172 4494 
z
" id="DejaVuSans-74" transform="scale(0.015625)"/>
       <path d="M 603 3500 
L 1178 3500 
L 1178 0 
L 603 0 
L 603 3500 
z
M 603 4863 
L 1178 4863 
L 1178 4134 
L 603 4134 
L 603 4863 
z
" id="DejaVuSans-69" transform="scale(0.015625)"/>
       <path d="M 3328 2828 
Q 3544 3216 3844 3400 
Q 4144 3584 4550 3584 
Q 5097 3584 5394 3201 
Q 5691 2819 5691 2113 
L 5691 0 
L 5113 0 
L 5113 2094 
Q 5113 2597 4934 2840 
Q 4756 3084 4391 3084 
Q 3944 3084 3684 2787 
Q 3425 2491 3425 1978 
L 3425 0 
L 2847 0 
L 2847 2094 
Q 2847 2600 2669 2842 
Q 2491 3084 2119 3084 
Q 1678 3084 1418 2786 
Q 1159 2488 1159 1978 
L 1159 0 
L 581 0 
L 581 3500 
L 1159 3500 
L 1159 2956 
Q 1356 3278 1631 3431 
Q 1906 3584 2284 3584 
Q 2666 3584 2933 3390 
Q 3200 3197 3328 2828 
z
" id="DejaVuSans-6d" transform="scale(0.015625)"/>
       <path d="M 3597 1894 
L 3597 1613 
L 953 1613 
Q 991 1019 1311 708 
Q 1631 397 2203 397 
Q 2534 397 2845 478 
Q 3156 559 3463 722 
L 3463 178 
Q 3153 47 2828 -22 
Q 2503 -91 2169 -91 
Q 1331 -91 842 396 
Q 353 884 353 1716 
Q 353 2575 817 3079 
Q 1281 3584 2069 3584 
Q 2775 3584 3186 3129 
Q 3597 2675 3597 1894 
z
M 3022 2063 
Q 3016 2534 2758 2815 
Q 2500 3097 2075 3097 
Q 1594 3097 1305 2825 
Q 1016 2553 972 2059 
L 3022 2063 
z
" id="DejaVuSans-65" transform="scale(0.015625)"/>
       <path id="DejaVuSans-20" transform="scale(0.015625)"/>
       <path d="M 1625 4666 
L 2156 4666 
L 531 -594 
L 0 -594 
L 1625 4666 
z
" id="DejaVuSans-2f" transform="scale(0.015625)"/>
       <path d="M 2834 3397 
L 2834 2853 
Q 2591 2978 2328 3040 
Q 2066 3103 1784 3103 
Q 1356 3103 1142 2972 
Q 928 2841 928 2578 
Q 928 2378 1081 2264 
Q 1234 2150 1697 2047 
L 1894 2003 
Q 2506 1872 2764 1633 
Q 3022 1394 3022 966 
Q 3022 478 2636 193 
Q 2250 -91 1575 -91 
Q 1294 -91 989 -36 
Q 684 19 347 128 
L 347 722 
Q 666 556 975 473 
Q 1284 391 1588 391 
Q 1994 391 2212 530 
Q 2431 669 2431 922 
Q 2431 1156 2273 1281 
Q 2116 1406 1581 1522 
L 1381 1569 
Q 847 1681 609 1914 
Q 372 2147 372 2553 
Q 372 3047 722 3315 
Q 1072 3584 1716 3584 
Q 2034 3584 2315 3537 
Q 2597 3491 2834 3397 
z
" id="DejaVuSans-73" transform="scale(0.015625)"/>
      </defs>
      <use xlink:href="#DejaVuSans-74"/>
      <use x="39.208984" xlink:href="#DejaVuSans-69"/>
      <use x="66.992188" xlink:href="#DejaVuSans-6d"/>
      <use x="164.404297" xlink:href="#DejaVuSans-65"/>
      <use x="225.927734" xlink:href="#DejaVuSans-20"/>
      <use x="257.714844" xlink:href="#DejaVuSans-2f"/>
      <use x="291.40625" xlink:href="#DejaVuSans-20"/>
      <use x="323.193359" xlink:href="#DejaVuSans-73"/>
     </g>
    </g>
   </g>
   <g id="matplotlib.axis_2">
    <g id="ytick_1">
     <g id="line2d_8">
      <defs>
       <path d="M 0 0 
L -3.5 0 
" id="mc1a1bb2702" style="stroke:#000000;stroke-width:0.8;"/>
      </defs>
      <g>
       <use style="stroke:#000000;stroke-width:0.8;" x="53.328125" xlink:href="#mc1a1bb2702" y="216.990425"/>
      </g>
     </g>
     <g id="text_9">
      <!-- 0 -->
      <g transform="translate(39.965625 220.789644)scale(0.1 -0.1)">
       <use xlink:href="#DejaVuSans-30"/>
      </g>
     </g>
    </g>
    <g id="ytick_2">
     <g id="line2d_9">
      <g>
       <use style="stroke:#000000;stroke-width:0.8;" x="53.328125" xlink:href="#mc1a1bb2702" y="187.56311"/>
      </g>
     </g>
     <g id="text_10">
      <!-- 200 -->
      <g transform="translate(27.240625 191.362329)scale(0.1 -0.1)">
       <use xlink:href="#DejaVuSans-32"/>
       <use x="63.623047" xlink:href="#DejaVuSans-30"/>
       <use x="127.246094" xlink:href="#DejaVuSans-30"/>
      </g>
     </g>
    </g>
    <g id="ytick_3">
     <g id="line2d_10">
      <g>
       <use style="stroke:#000000;stroke-width:0.8;" x="53.328125" xlink:href="#mc1a1bb2702" y="158.135795"/>
      </g>
     </g>
     <g id="text_11">
      <!-- 400 -->
      <g transform="translate(27.240625 161.935013)scale(0.1 -0.1)">
       <defs>
        <path d="M 2419 4116 
L 825 1625 
L 2419 1625 
L 2419 4116 
z
M 2253 4666 
L 3047 4666 
L 3047 1625 
L 3713 1625 
L 3713 1100 
L 3047 1100 
L 3047 0 
L 2419 0 
L 2419 1100 
L 313 1100 
L 313 1709 
L 2253 4666 
z
" id="DejaVuSans-34" transform="scale(0.015625)"/>
       </defs>
       <use xlink:href="#DejaVuSans-34"/>
       <use x="63.623047" xlink:href="#DejaVuSans-30"/>
       <use x="127.246094" xlink:href="#DejaVuSans-30"/>
      </g>
     </g>
    </g>
    <g id="ytick_4">
     <g id="line2d_11">
      <g>
       <use style="stroke:#000000;stroke-width:0.8;" x="53.328125" xlink:href="#mc1a1bb2702" y="128.70848"/>
      </g>
     </g>
     <g id="text_12">
      <!-- 600 -->
      <g transform="translate(27.240625 132.507698)scale(0.1 -0.1)">
       <defs>
        <path d="M 2113 2584 
Q 1688 2584 1439 2293 
Q 1191 2003 1191 1497 
Q 1191 994 1439 701 
Q 1688 409 2113 409 
Q 2538 409 2786 701 
Q 3034 994 3034 1497 
Q 3034 2003 2786 2293 
Q 2538 2584 2113 2584 
z
M 3366 4563 
L 3366 3988 
Q 3128 4100 2886 4159 
Q 2644 4219 2406 4219 
Q 1781 4219 1451 3797 
Q 1122 3375 1075 2522 
Q 1259 2794 1537 2939 
Q 1816 3084 2150 3084 
Q 2853 3084 3261 2657 
Q 3669 2231 3669 1497 
Q 3669 778 3244 343 
Q 2819 -91 2113 -91 
Q 1303 -91 875 529 
Q 447 1150 447 2328 
Q 447 3434 972 4092 
Q 1497 4750 2381 4750 
Q 2619 4750 2861 4703 
Q 3103 4656 3366 4563 
z
" id="DejaVuSans-36" transform="scale(0.015625)"/>
       </defs>
       <use xlink:href="#DejaVuSans-36"/>
       <use x="63.623047" xlink:href="#DejaVuSans-30"/>
       <use x="127.246094" xlink:href="#DejaVuSans-30"/>
      </g>
     </g>
    </g>
    <g id="ytick_5">
     <g id="line2d_12">
      <g>
       <use style="stroke:#000000;stroke-width:0.8;" x="53.328125" xlink:href="#mc1a1bb2702" y="99.281164"/>
      </g>
     </g>
     <g id="text_13">
      <!-- 800 -->
      <g transform="translate(27.240625 103.080383)scale(0.1 -0.1)">
       <defs>
        <path d="M 2034 2216 
Q 1584 2216 1326 1975 
Q 1069 1734 1069 1313 
Q 1069 891 1326 650 
Q 1584 409 2034 409 
Q 2484 409 2743 651 
Q 3003 894 3003 1313 
Q 3003 1734 2745 1975 
Q 2488 2216 2034 2216 
z
M 1403 2484 
Q 997 2584 770 2862 
Q 544 3141 544 3541 
Q 544 4100 942 4425 
Q 1341 4750 2034 4750 
Q 2731 4750 3128 4425 
Q 3525 4100 3525 3541 
Q 3525 3141 3298 2862 
Q 3072 2584 2669 2484 
Q 3125 2378 3379 2068 
Q 3634 1759 3634 1313 
Q 3634 634 3220 271 
Q 2806 -91 2034 -91 
Q 1263 -91 848 271 
Q 434 634 434 1313 
Q 434 1759 690 2068 
Q 947 2378 1403 2484 
z
M 1172 3481 
Q 1172 3119 1398 2916 
Q 1625 2713 2034 2713 
Q 2441 2713 2670 2916 
Q 2900 3119 2900 3481 
Q 2900 3844 2670 4047 
Q 2441 4250 2034 4250 
Q 1625 4250 1398 4047 
Q 1172 3844 1172 3481 
z
" id="DejaVuSans-38" transform="scale(0.015625)"/>
       </defs>
       <use xlink:href="#DejaVuSans-38"/>
       <use x="63.623047" xlink:href="#DejaVuSans-30"/>
       <use x="127.246094" xlink:href="#DejaVuSans-30"/>
      </g>
     </g>
    </g>
    <g id="ytick_6">
     <g id="line2d_13">
      <g>
       <use style="stroke:#000000;stroke-width:0.8;" x="53.328125" xlink:href="#mc1a1bb2702" y="69.853849"/>
      </g>
     </g>
     <g id="text_14">
      <!-- 1000 -->
      <g transform="translate(20.878125 73.653068)scale(0.1 -0.1)">
       <use xlink:href="#DejaVuSans-31"/>
       <use x="63.623047" xlink:href="#DejaVuSans-30"/>
       <use x="127.246094" xlink:href="#DejaVuSans-30"/>
       <use x="190.869141" xlink:href="#DejaVuSans-30"/>
      </g>
     </g>
    </g>
    <g id="ytick_7">
     <g id="line2d_14">
      <g>
       <use style="stroke:#000000;stroke-width:0.8;" x="53.328125" xlink:href="#mc1a1bb2702" y="40.426534"/>
      </g>
     </g>
     <g id="text_15">
      <!-- 1200 -->
      <g transform="translate(20.878125 44.225753)scale(0.1 -0.1)">
       <use xlink:href="#DejaVuSans-31"/>
       <use x="63.623047" xlink:href="#DejaVuSans-32"/>
       <use x="127.246094" xlink:href="#DejaVuSans-30"/>
       <use x="190.869141" xlink:href="#DejaVuSans-30"/>
      </g>
     </g>
    </g>
    <g id="ytick_8">
     <g id="line2d_15">
      <g>
       <use style="stroke:#000000;stroke-width:0.8;" x="53.328125" xlink:href="#mc1a1bb2702" y="10.999219"/>
      </g>
     </g>
     <g id="text_16">
      <!-- 1400 -->
      <g transform="translate(20.878125 14.798437)scale(0.1 -0.1)">
       <use xlink:href="#DejaVuSans-31"/>
       <use x="63.623047" xlink:href="#DejaVuSans-34"/>
       <use x="127.246094" xlink:href="#DejaVuSans-30"/>
       <use x="190.869141" xlink:href="#DejaVuSans-30"/>
      </g>
     </g>
    </g>
    <g id="text_17">
     <!-- heat release rate / kW -->
     <g transform="translate(14.798438 173.689999)rotate(-90)scale(0.1 -0.1)">
      <defs>
       <path d="M 3513 2113 
L 3513 0 
L 2938 0 
L 2938 2094 
Q 2938 2591 2744 2837 
Q 2550 3084 2163 3084 
Q 1697 3084 1428 2787 
Q 1159 2491 1159 1978 
L 1159 0 
L 581 0 
L 581 4863 
L 1159 4863 
L 1159 2956 
Q 1366 3272 1645 3428 
Q 1925 3584 2291 3584 
Q 2894 3584 3203 3211 
Q 3513 2838 3513 2113 
z
" id="DejaVuSans-68" transform="scale(0.015625)"/>
       <path d="M 2194 1759 
Q 1497 1759 1228 1600 
Q 959 1441 959 1056 
Q 959 750 1161 570 
Q 1363 391 1709 391 
Q 2188 391 2477 730 
Q 2766 1069 2766 1631 
L 2766 1759 
L 2194 1759 
z
M 3341 1997 
L 3341 0 
L 2766 0 
L 2766 531 
Q 2569 213 2275 61 
Q 1981 -91 1556 -91 
Q 1019 -91 701 211 
Q 384 513 384 1019 
Q 384 1609 779 1909 
Q 1175 2209 1959 2209 
L 2766 2209 
L 2766 2266 
Q 2766 2663 2505 2880 
Q 2244 3097 1772 3097 
Q 1472 3097 1187 3025 
Q 903 2953 641 2809 
L 641 3341 
Q 956 3463 1253 3523 
Q 1550 3584 1831 3584 
Q 2591 3584 2966 3190 
Q 3341 2797 3341 1997 
z
" id="DejaVuSans-61" transform="scale(0.015625)"/>
       <path d="M 2631 2963 
Q 2534 3019 2420 3045 
Q 2306 3072 2169 3072 
Q 1681 3072 1420 2755 
Q 1159 2438 1159 1844 
L 1159 0 
L 581 0 
L 581 3500 
L 1159 3500 
L 1159 2956 
Q 1341 3275 1631 3429 
Q 1922 3584 2338 3584 
Q 2397 3584 2469 3576 
Q 2541 3569 2628 3553 
L 2631 2963 
z
" id="DejaVuSans-72" transform="scale(0.015625)"/>
       <path d="M 603 4863 
L 1178 4863 
L 1178 0 
L 603 0 
L 603 4863 
z
" id="DejaVuSans-6c" transform="scale(0.015625)"/>
       <path d="M 581 4863 
L 1159 4863 
L 1159 1991 
L 2875 3500 
L 3609 3500 
L 1753 1863 
L 3688 0 
L 2938 0 
L 1159 1709 
L 1159 0 
L 581 0 
L 581 4863 
z
" id="DejaVuSans-6b" transform="scale(0.015625)"/>
       <path d="M 213 4666 
L 850 4666 
L 1831 722 
L 2809 4666 
L 3519 4666 
L 4500 722 
L 5478 4666 
L 6119 4666 
L 4947 0 
L 4153 0 
L 3169 4050 
L 2175 0 
L 1381 0 
L 213 4666 
z
" id="DejaVuSans-57" transform="scale(0.015625)"/>
      </defs>
      <use xlink:href="#DejaVuSans-68"/>
      <use x="63.378906" xlink:href="#DejaVuSans-65"/>
      <use x="124.902344" xlink:href="#DejaVuSans-61"/>
      <use x="186.181641" xlink:href="#DejaVuSans-74"/>
      <use x="225.390625" xlink:href="#DejaVuSans-20"/>
      <use x="257.177734" xlink:href="#DejaVuSans-72"/>
      <use x="296.041016" xlink:href="#DejaVuSans-65"/>
      <use x="357.564453" xlink:href="#DejaVuSans-6c"/>
      <use x="385.347656" xlink:href="#DejaVuSans-65"/>
      <use x="446.871094" xlink:href="#DejaVuSans-61"/>
      <use x="508.150391" xlink:href="#DejaVuSans-73"/>
      <use x="560.25" xlink:href="#DejaVuSans-65"/>
      <use x="621.773438" xlink:href="#DejaVuSans-20"/>
      <use x="653.560547" xlink:href="#DejaVuSans-72"/>
      <use x="694.673828" xlink:href="#DejaVuSans-61"/>
      <use x="755.953125" xlink:href="#DejaVuSans-74"/>
      <use x="795.162109" xlink:href="#DejaVuSans-65"/>
      <use x="856.685547" xlink:href="#DejaVuSans-20"/>
      <use x="888.472656" xlink:href="#DejaVuSans-2f"/>
      <use x="922.164062" xlink:href="#DejaVuSans-20"/>
      <use x="953.951172" xlink:href="#DejaVuSans-6b"/>
      <use x="1011.861328" xlink:href="#DejaVuSans-57"/>
     </g>
    </g>
   </g>
   <g id="line2d_16">
    <path clip-path="url(#pf2f51083ee)" d="M 68.546307 216.990425 
L 69.561639 216.990425 
L 70.576972 208.456595 
L 72.607637 185.960063 
L 75.653635 150.70709 
L 76.668968 145.847452 
L 77.6843 168.580139 
L 78.490503 164.956977 
L 79.198129 158.328961 
L 79.822407 159.63654 
L 80.446685 162.81827 
L 81.070962 121.424061 
L 81.466618 109.507677 
L 81.862273 102.5238 
L 82.193564 46.823221 
L 82.524856 71.106665 
L 82.856147 59.781711 
L 83.220568 52.499834 
L 83.521644 42.520446 
L 83.82272 50.606348 
L 84.091771 46.536851 
L 84.588184 62.754294 
L 84.815547 62.214709 
L 85.243389 68.429685 
L 85.644345 81.421511 
L 86.245779 108.297932 
L 86.646735 117.194019 
L 87.047691 91.902306 
L 87.448647 106.369512 
L 87.649124 106.85163 
L 88.05008 121.524337 
L 88.250559 122.922125 
L 88.651515 129.348861 
L 88.851993 128.624036 
L 89.252948 125.618028 
L 89.612878 121.998939 
L 89.931784 120.117963 
L 90.091236 114.19506 
L 90.230758 116.236041 
L 90.370282 122.837601 
L 90.509804 108.466666 
L 90.649329 121.389647 
L 90.78885 103.981776 
L 90.928375 117.926154 
L 91.067899 112.095975 
L 91.207421 115.27748 
L 91.346945 102.519597 
L 91.486467 102.785797 
L 91.765513 98.890315 
L 91.905037 86.162076 
L 92.044559 97.868935 
L 92.198034 94.743046 
L 92.351509 80.84384 
L 92.504984 88.948951 
L 92.658462 85.811594 
L 92.794442 87.640321 
L 92.930422 86.398542 
L 93.066403 79.760575 
L 93.202383 93.41967 
L 93.338363 81.431308 
L 93.474346 88.095659 
L 93.610326 76.063266 
L 93.759904 87.557548 
L 93.909484 75.930633 
L 94.059062 77.456609 
L 94.358219 71.585129 
L 94.657377 69.048936 
L 94.806955 49.09818 
L 95.106112 55.878191 
L 95.40527 57.541542 
L 95.704428 41.276108 
L 96.003585 41.357507 
L 96.285875 43.281598 
L 96.684007 41.192122 
L 97.214852 31.99684 
L 97.878406 27.290517 
L 98.143828 30.161477 
L 98.409251 35.022426 
L 98.807383 39.615056 
L 99.072805 45.129678 
L 99.338227 40.45511 
L 99.736359 36.317019 
L 99.988433 36.092722 
L 100.22716 38.233531 
L 100.58525 36.378446 
L 100.943338 49.973438 
L 101.182065 70.677442 
L 101.540155 77.367702 
L 102.13697 94.396965 
L 102.375696 97.015904 
L 102.972513 99.808697 
L 103.330601 97.917268 
L 103.688692 97.741789 
L 103.927418 99.641085 
L 104.285506 96.931398 
L 104.524233 92.058738 
L 104.882323 87.063638 
L 105.121049 80.834473 
L 105.479138 83.268836 
L 105.717864 86.698266 
L 106.326618 78.888901 
L 106.720516 76.660972 
L 107.87595 49.810262 
L 108.16481 48.189048 
L 108.855743 68.700034 
L 109.113385 81.972626 
L 109.371029 85.661727 
L 110.916891 95.627428 
L 111.303357 92.38922 
L 111.561002 92.559356 
L 111.818646 85.825163 
L 112.205113 80.568057 
L 112.462757 80.505086 
L 112.720401 85.478857 
L 113.750974 60.694023 
L 114.008618 59.13806 
L 114.266263 31.316064 
L 114.549669 31.087205 
L 114.974785 32.403657 
L 115.258191 23.091162 
L 115.541596 25.056455 
L 115.825007 19.317698 
L 116.108413 21.050289 
L 116.391824 31.070214 
L 116.67523 30.768541 
L 117.29873 43.514965 
L 117.610478 39.995829 
L 117.922226 51.454162 
L 118.233974 56.680007 
L 118.545727 72.505298 
L 119.211876 92.730964 
L 119.451569 93.80356 
L 119.811112 96.450923 
L 120.050804 92.460319 
L 120.410342 89.638977 
L 120.650034 95.883454 
L 121.009577 86.352292 
L 121.261257 85.774666 
L 121.656748 90.678039 
L 121.92041 83.153185 
L 122.184073 81.699762 
L 122.579569 82.386654 
L 122.843231 79.39321 
L 123.396922 78.786927 
L 123.686951 73.222239 
L 124.121997 70.465835 
L 124.716556 77.655375 
L 125.035585 76.622679 
L 125.35462 77.508894 
L 125.514137 74.35398 
L 125.833166 73.198503 
L 126.152196 82.397224 
L 126.47123 85.83973 
L 126.79026 76.808378 
L 127.109294 76.81189 
L 127.428324 84.851048 
L 127.747358 80.280924 
L 128.066388 77.945175 
L 128.385422 77.452334 
L 128.704452 71.030071 
L 128.863969 77.568991 
L 129.183003 78.627236 
L 129.484395 63.276133 
L 129.910034 55.086057 
L 130.477548 41.786092 
L 130.761302 40.554794 
L 131.045062 48.692836 
L 131.328816 48.019963 
L 131.612576 45.856183 
L 132.03821 47.283777 
L 132.321969 60.775332 
L 132.634104 59.694977 
L 132.946235 57.897116 
L 133.25837 50.404682 
L 133.5705 59.720967 
L 134.038701 66.119271 
L 134.975102 76.449535 
L 135.287232 90.301765 
L 135.599367 86.365763 
L 135.895894 86.856952 
L 136.176811 92.800132 
L 136.59819 95.188812 
L 137.160029 85.456648 
L 137.440951 80.090411 
L 137.721869 82.59749 
L 138.002791 86.203395 
L 138.45226 84.280274 
L 138.915779 75.586284 
L 139.255689 75.627155 
L 139.595605 78.75123 
L 140.445387 68.20096 
L 141.125209 55.372302 
L 141.465125 57.892985 
L 142.314907 41.662233 
L 142.637127 34.728512 
L 142.941651 34.822628 
L 143.246175 39.593466 
L 143.5507 41.307485 
L 143.855229 49.060157 
L 144.159754 51.310977 
L 144.464278 66.870364 
L 144.768807 74.025545 
L 145.073332 90.341926 
L 145.377856 94.257363 
L 145.682386 94.585088 
L 145.98691 97.766414 
L 146.291435 93.310207 
L 146.595964 98.669987 
L 146.900488 81.143061 
L 147.205013 81.684532 
L 147.509542 74.361514 
L 147.814066 78.060548 
L 148.118591 73.075731 
L 148.42312 75.416463 
L 149.641223 62.97076 
L 149.945747 55.65235 
L 150.250277 56.946925 
L 150.570028 51.994734 
L 150.90501 65.329435 
L 151.407478 72.405354 
L 151.742451 87.683867 
L 152.077433 86.668541 
L 152.412406 86.146621 
L 152.747388 83.968803 
L 153.08237 81.002094 
L 153.249856 74.311592 
L 153.902285 60.583293 
L 154.202195 50.206698 
L 154.502116 49.691792 
L 154.802026 44.301532 
L 155.101946 53.0084 
L 155.401857 53.773664 
L 155.701777 58.162832 
L 156.001687 55.870738 
L 156.331596 69.764287 
L 156.661504 71.326706 
L 156.991403 64.383627 
L 157.321311 79.362299 
L 157.65122 79.910137 
L 157.816179 78.383424 
L 158.146077 83.023893 
L 158.475986 71.680493 
L 158.805894 74.884709 
L 159.135802 75.746461 
L 159.465711 67.029193 
L 159.63066 75.683094 
L 159.960568 75.142441 
L 160.290477 73.590143 
L 160.620375 80.874768 
L 160.950284 76.639419 
L 161.280192 79.776893 
L 161.6101 74.641814 
L 161.77505 85.58339 
L 162.104958 69.592166 
L 162.434866 74.189861 
L 162.764775 62.251727 
L 163.094683 68.270955 
L 163.424582 68.755839 
L 163.589541 71.861369 
L 163.919449 71.472307 
L 164.249348 52.26934 
L 164.579256 63.670251 
L 164.909164 60.130424 
L 165.239073 64.574588 
L 165.568981 65.877767 
L 166.063839 51.509751 
L 166.393747 57.235002 
L 166.723656 45.273294 
L 167.053554 52.44173 
L 167.383463 50.747073 
L 167.548422 40.354331 
L 167.87832 58.953206 
L 168.208229 51.683165 
L 168.538137 60.373868 
L 168.868045 61.472165 
L 169.197954 77.580432 
L 169.692811 63.985683 
L 170.02272 73.358428 
L 170.352628 79.5567 
L 170.682527 88.797432 
L 171.012435 89.851348 
L 171.342343 99.126394 
L 171.507293 98.966811 
L 172.167109 110.675035 
L 172.826926 83.846776 
L 173.156825 90.950786 
L 173.486733 83.470754 
L 173.651692 85.733104 
L 173.981591 86.306725 
L 174.311499 72.42371 
L 174.641407 78.130308 
L 174.971316 67.671551 
L 175.301224 70.155549 
L 175.466173 77.746724 
L 175.796082 65.908804 
L 176.12599 65.318461 
L 176.455899 60.379831 
L 176.785797 50.961509 
L 177.115706 49.30026 
L 177.445614 43.426902 
L 177.610563 58.662507 
L 177.940481 50.969663 
L 178.27038 50.857533 
L 178.930197 69.836517 
L 179.260105 68.420139 
L 179.425054 76.231722 
L 179.754963 75.536676 
L 180.084871 75.639251 
L 180.41477 80.150374 
L 180.744688 75.598561 
L 181.074586 73.287239 
L 181.404495 72.814533 
L 181.569444 67.485888 
L 181.899352 66.082271 
L 182.192456 63.469016 
L 182.485569 66.524417 
L 182.778672 72.400109 
L 183.218327 68.58793 
L 183.51144 71.306203 
L 183.804544 69.07497 
L 184.097647 72.028649 
L 184.390751 55.916359 
L 184.683864 60.659915 
L 184.976967 54.347339 
L 185.299381 59.074604 
L 185.621804 57.29465 
L 185.944218 56.961186 
L 186.266632 55.443284 
L 186.427843 72.066681 
L 186.750257 66.111996 
L 187.07268 75.593496 
L 187.395094 80.610338 
L 187.717508 76.608302 
L 188.039931 78.933237 
L 188.362345 67.93626 
L 188.684759 75.172005 
L 189.168384 80.247938 
L 189.490798 81.572994 
L 189.813221 75.484805 
L 190.135635 58.42499 
L 190.458049 63.397028 
L 190.780472 58.000662 
L 191.102886 61.530018 
L 191.4253 73.215476 
L 192.070137 83.476887 
L 192.231349 90.993443 
L 192.553762 86.779342 
L 192.876176 88.997984 
L 193.214712 82.098407 
L 193.56937 80.030323 
L 193.881229 70.701178 
L 194.193079 65.40198 
L 194.349004 53.802114 
L 194.660853 58.366743 
L 194.972703 53.526521 
L 195.284562 55.127655 
L 195.970629 69.693044 
L 196.313668 67.079691 
L 196.485182 67.926929 
L 196.828221 58.339029 
L 197.205566 60.336652 
L 197.394229 67.820232 
L 197.771574 70.638341 
L 198.14891 69.096451 
L 198.337582 71.60467 
L 198.714927 61.200343 
L 199.280945 76.380906 
L 199.658271 70.469283 
L 199.846944 75.755639 
L 200.184453 70.444641 
L 200.521953 74.76781 
L 200.859443 70.83452 
L 201.196962 72.938787 
L 201.365707 76.999043 
L 201.703217 66.063394 
L 202.040716 78.682044 
L 202.378216 75.910615 
L 202.715716 74.594989 
L 202.884471 69.362517 
L 203.221971 66.793455 
L 203.55948 67.116681 
L 203.89698 62.402384 
L 204.23448 69.225986 
L 204.403234 64.302012 
L 205.078244 83.663727 
L 205.415743 88.883869 
L 205.753243 90.136398 
L 205.921998 79.207116 
L 206.259498 80.37838 
L 206.597007 83.178331 
L 206.887186 83.08461 
L 207.496574 72.684863 
L 207.815783 76.899926 
L 208.134982 73.228821 
L 208.45419 86.316199 
L 208.805314 82.325434 
L 208.980876 83.428375 
L 209.349555 84.587614 
L 209.735789 82.212316 
L 209.928906 78.252183 
L 210.31514 74.217404 
L 210.508258 62.556381 
L 210.894501 71.480452 
L 211.280745 55.126128 
L 211.473853 59.528658 
L 211.860087 62.10389 
L 212.053204 62.166143 
L 212.632555 45.386736 
L 212.977114 53.260824 
L 213.321672 53.600807 
L 214.01078 59.404674 
L 214.183059 52.34862 
L 214.527608 67.734711 
L 214.837405 71.278418 
L 215.457018 74.603252 
L 215.766825 76.418086 
L 216.076622 69.385264 
L 216.386428 82.762443 
L 216.696215 81.627047 
L 216.9676 84.151224 
L 217.238975 85.239608 
L 217.917412 77.336863 
L 218.202352 79.15158 
L 218.500868 76.534105 
L 219.112813 51.468854 
L 219.441172 56.087204 
L 219.933734 70.335734 
L 220.262084 69.589221 
L 220.590443 67.727508 
L 220.918812 66.879443 
L 221.57553 57.711058 
L 222.084496 67.666091 
L 222.44569 69.583778 
L 222.806893 69.018258 
L 222.98749 64.522232 
L 223.348694 64.063849 
L 223.709888 65.827728 
L 224.048317 69.916524 
L 224.20614 69.288473 
L 224.521795 61.740575 
L 224.83745 61.888232 
L 225.168888 61.244707 
L 225.51611 64.221133 
L 225.863331 45.958596 
L 226.036937 54.156826 
L 226.384159 51.774227 
L 226.73138 53.233846 
L 227.252208 43.696533 
L 227.599429 45.036963 
L 227.946651 37.725611 
L 228.293882 56.348249 
L 228.467478 49.450252 
L 229.092184 68.621724 
L 229.392918 71.816511 
L 229.994375 92.10778 
L 230.295109 99.438045 
L 230.595833 98.318616 
L 231.046933 95.647194 
L 231.347667 94.94359 
L 231.6484 87.992087 
L 231.949114 94.087667 
L 232.249848 87.857047 
L 232.550582 87.920486 
L 232.851315 88.137311 
L 233.347528 69.494449 
L 233.678318 69.75069 
L 234.009127 64.000159 
L 234.339936 61.378391 
L 234.670725 52.572181 
L 235.001534 52.526434 
L 235.166938 52.36967 
L 235.497747 51.565933 
L 235.861633 40.912649 
L 236.2255 34.049047 
L 236.407443 49.155153 
L 236.771328 37.384406 
L 237.135214 42.251462 
L 237.317157 36.480357 
L 237.681043 39.506751 
L 238.330422 46.471455 
L 238.655111 49.801964 
L 238.941707 54.102099 
L 239.228284 66.564246 
L 239.514861 73.528887 
L 239.801439 75.73863 
L 240.088016 86.02718 
L 240.374593 83.392381 
L 240.66117 93.464501 
L 241.091055 90.641057 
L 241.377632 92.447728 
L 241.664209 90.517701 
L 241.979448 87.027895 
L 242.294686 90.728986 
L 242.925163 83.550276 
L 243.082783 83.703061 
L 243.398021 81.28762 
L 243.71326 87.629221 
L 244.028479 82.052777 
L 244.359482 86.298167 
L 244.706248 84.448174 
L 245.053015 83.988965 
L 245.226398 69.523672 
L 245.573145 84.322537 
L 245.919911 82.161971 
L 246.266678 82.78256 
L 246.440061 93.746803 
L 246.786808 78.504041 
L 247.133574 83.574865 
L 247.480341 75.584776 
L 247.653724 78.104229 
L 248.00049 79.442288 
L 248.347237 78.633315 
L 248.694004 72.133002 
L 249.214153 56.469073 
L 249.5609 52.467127 
L 249.907667 45.59406 
L 250.254433 51.712207 
L 250.427816 58.585885 
L 251.12133 64.025143 
L 251.468096 66.147254 
L 251.641479 69.603392 
L 251.953097 67.045322 
L 252.264714 52.445663 
L 252.591921 60.164263 
L 253.277475 52.508203 
L 253.791659 41.933013 
L 254.134436 40.890449 
L 254.477213 38.691034 
L 254.81999 37.955207 
L 254.991379 39.401571 
L 255.334175 36.445351 
L 255.676952 34.993455 
L 256.019729 35.113776 
L 256.191118 37.426758 
L 256.533914 39.005854 
L 256.841774 41.214591 
L 257.149654 46.858766 
L 257.457534 57.309684 
L 257.765413 51.849753 
L 258.073274 58.430379 
L 258.381153 62.138357 
L 258.689033 64.369886 
L 259.612652 79.705668 
L 259.920532 79.786313 
L 260.228392 85.7911 
L 260.536272 81.52643 
L 260.844151 81.818125 
L 261.152031 85.244592 
L 261.459891 92.271944 
L 261.767771 91.826017 
L 262.07565 90.134422 
L 262.38353 92.141412 
L 262.891518 99.035637 
L 263.23017 98.824811 
L 263.568841 99.20236 
L 264.246165 80.155286 
L 264.4155 86.507834 
L 264.754152 74.447143 
L 265.092824 70.306323 
L 265.431476 58.013863 
L 265.770147 52.649251 
L 265.939483 54.487542 
L 266.29508 52.716461 
L 266.667603 44.174332 
L 266.853865 48.13829 
L 267.226388 40.492235 
L 267.598911 40.889515 
L 267.785192 45.490065 
L 268.157715 48.545053 
L 268.530238 48.971645 
L 268.7165 62.884852 
L 269.089042 68.447772 
L 269.647827 93.299421 
L 270.02035 98.290372 
L 270.206611 94.746172 
L 270.579154 110.777583 
L 270.951677 108.726095 
L 271.137938 114.133203 
L 271.510462 111.129835 
L 271.883004 104.718716 
L 272.069266 106.053659 
L 272.441789 104.132163 
L 272.814312 96.186267 
L 273.000573 101.152127 
L 273.373116 89.569818 
L 273.559377 91.863241 
L 273.9319 85.542475 
L 274.304423 82.363835 
L 274.490685 89.98998 
L 274.863227 75.000711 
L 275.23575 70.452624 
L 275.422012 80.249052 
L 275.794535 66.240921 
L 275.980816 65.49764 
L 276.353339 51.375313 
L 276.725862 49.930547 
L 276.912124 54.158676 
L 277.284666 51.744519 
L 277.657189 42.526014 
L 277.843451 57.078238 
L 278.215974 52.402503 
L 278.588497 55.782513 
L 278.774778 37.287345 
L 279.401905 48.818976 
L 279.72365 51.556575 
L 280.32078 39.285758 
L 280.619344 33.890829 
L 280.917928 36.802398 
L 281.216493 42.858203 
L 281.515057 45.904785 
L 281.813622 51.335439 
L 282.112186 58.969425 
L 282.410751 60.277489 
L 283.052674 81.337902 
L 283.709527 86.802682 
L 284.037954 92.251711 
L 284.366381 85.950891 
L 284.530585 80.610311 
L 284.859012 82.254919 
L 285.187439 83.309266 
L 285.515865 86.386687 
L 285.844292 87.468174 
L 286.205564 95.572935 
L 286.38619 95.602597 
L 286.747461 87.90345 
L 287.108733 87.685349 
L 287.289359 90.36955 
L 287.65063 85.742004 
L 288.011882 83.703223 
L 288.192528 73.308945 
L 288.553799 75.670962 
L 288.915051 72.022066 
L 289.095697 78.383666 
L 289.456968 77.931983 
L 289.81822 81.519407 
L 289.998866 58.748432 
L 290.360118 79.035193 
L 290.721389 76.560938 
L 291.082661 75.487319 
L 291.263287 75.363011 
L 291.624558 67.125231 
L 291.98583 73.806807 
L 292.166456 63.006879 
L 292.527727 62.036805 
L 292.847653 68.164078 
L 293.167597 69.765688 
L 293.487522 68.317806 
L 293.647485 64.02191 
L 293.96741 62.066226 
L 294.287355 59.144814 
L 294.927205 66.303658 
L 295.24715 62.54036 
L 295.567075 62.591387 
L 295.887 62.151109 
L 296.206945 66.072931 
L 296.52687 65.875935 
L 297.006758 55.010351 
L 297.326702 53.736826 
L 297.646628 51.371254 
L 297.966553 62.562219 
L 298.302474 52.617335 
L 298.83037 66.72611 
L 299.182288 67.082529 
L 299.534225 71.345439 
L 299.886143 71.908696 
L 300.062102 70.440653 
L 300.414019 70.49045 
L 301.064986 68.579911 
L 301.381658 68.635159 
L 301.698329 67.196823 
L 302.015001 74.202721 
L 302.331673 72.559792 
L 302.490009 78.925918 
L 302.80668 80.310353 
L 303.123352 69.514108 
L 303.440024 77.276155 
L 303.756696 77.947142 
L 304.089189 77.822618 
L 304.437524 80.479985 
L 304.611701 80.673435 
L 305.308372 64.778248 
L 305.830884 60.420979 
L 306.179219 62.483244 
L 306.527554 57.671311 
L 307.050047 62.458727 
L 307.398401 59.051578 
L 307.746736 59.766175 
L 308.095071 56.616227 
L 308.269229 41.389621 
L 308.617564 46.712384 
L 308.965899 43.163756 
L 309.314253 35.189715 
L 309.488411 34.700008 
L 309.836746 37.797258 
L 310.185081 44.264604 
L 310.533416 54.986284 
L 310.707594 65.891112 
L 311.678311 93.10978 
L 311.989502 98.457706 
L 312.300693 97.372906 
L 312.611884 101.635682 
L 313.234247 96.255462 
L 313.545439 89.5868 
L 313.85663 79.522412 
L 314.183391 73.467442 
L 314.525684 76.227465 
L 314.69684 68.205505 
L 315.039152 72.469502 
L 315.381465 71.560621 
L 315.723777 68.776763 
L 315.894933 78.863764 
L 316.237226 67.372787 
L 316.596658 67.083373 
L 316.973189 61.050064 
L 317.161465 60.332611 
L 317.537997 66.19961 
L 317.726272 63.838241 
L 318.102804 67.978316 
L 318.479355 65.732355 
L 318.667612 65.95103 
L 319.670322 82.339767 
L 320.004558 78.614447 
L 320.171686 57.446978 
L 321.174396 73.805639 
L 321.508633 66.684082 
L 321.675741 73.637767 
L 322.009978 71.394769 
L 322.678451 77.205308 
L 323.012688 77.515189 
L 323.346925 79.382595 
L 323.514053 77.61023 
L 323.848289 83.252581 
L 324.199219 84.41421 
L 324.750722 94.393022 
L 325.118384 82.78529 
L 325.486027 90.495421 
L 325.669868 84.154529 
L 326.03753 84.954171 
L 326.589014 66.69634 
L 327.324339 67.687832 
L 327.50816 70.509911 
L 327.8942 71.276918 
L 328.09642 79.634947 
L 328.500838 77.014804 
L 328.703057 51.178281 
L 329.107476 70.070962 
L 329.309695 54.263551 
L 329.714114 62.854301 
L 329.916333 47.549043 
L 330.298055 62.963342 
L 330.657041 56.061879 
L 330.836544 58.439072 
L 331.19555 58.576599 
L 331.554536 53.990813 
L 331.734039 57.974475 
L 332.051737 47.897487 
L 332.369435 52.611587 
L 332.687114 54.884732 
L 333.004812 59.147418 
L 333.32251 59.933805 
L 333.640208 62.18308 
L 333.957906 62.438791 
L 334.291485 63.629318 
L 334.466204 59.680303 
L 334.815682 55.719506 
L 335.16514 57.963464 
L 335.514598 59.31688 
L 335.689337 46.768674 
L 336.038795 57.271068 
L 336.388273 55.079914 
L 336.737731 40.962832 
L 336.91247 48.653717 
L 337.261928 41.836329 
L 337.611386 48.422469 
L 337.960845 49.803743 
L 338.135583 36.939853 
L 338.485042 52.069865 
L 338.834519 52.736147 
L 339.708175 80.21137 
L 340.057633 89.089981 
L 340.407111 94.338609 
L 340.58183 94.04025 
L 340.931308 89.726205 
L 341.280766 91.983373 
L 341.804963 90.08115 
L 342.154421 90.186788 
L 342.503879 82.759004 
L 342.853357 83.887189 
L 343.028077 87.881798 
L 343.377554 91.353553 
L 344.076471 92.801147 
L 344.251209 91.236186 
L 344.600668 84.357785 
L 344.950145 71.75759 
L 345.294491 64.901227 
L 345.466674 53.225979 
L 345.811039 54.36318 
L 346.155404 51.692846 
L 346.499769 56.884205 
L 346.671951 53.17488 
L 347.050749 49.369787 
L 347.429546 36.474807 
L 347.618945 40.847235 
L 347.997743 33.496962 
L 348.187142 48.065386 
L 348.565939 43.001981 
L 349.134155 57.887813 
L 349.512953 59.289579 
L 349.702352 60.43736 
L 350.015053 57.653583 
L 350.327755 58.643791 
L 350.671733 59.210892 
L 351.01571 57.223525 
L 351.359688 61.089686 
L 351.531696 67.312331 
L 352.563629 79.686495 
L 352.907607 79.173313 
L 353.079596 77.453349 
L 353.423574 82.162231 
L 353.767551 84.454999 
L 354.128726 82.03795 
L 354.317912 86.008788 
L 354.885469 85.015005 
L 355.26386 80.722899 
L 355.642232 81.410168 
L 355.831418 82.967854 
L 356.209789 71.001468 
L 356.398975 69.99672 
L 356.777366 67.207816 
L 357.155738 70.634623 
L 357.363844 71.15736 
L 357.780056 73.987988 
L 357.988163 76.826232 
L 358.404375 77.351456 
L 359.028694 65.50795 
L 359.236801 71.274538 
L 359.86112 68.122139 
L 360.233953 63.758979 
L 360.420369 39.015104 
L 360.979599 56.548514 
L 361.352413 56.852163 
L 361.725246 51.605735 
L 361.911662 40.706492 
L 362.843706 67.654227 
L 363.216539 69.180976 
L 363.402955 65.561043 
L 364.148602 78.168934 
L 364.334999 87.322366 
L 365.267062 99.122335 
L 365.639895 100.22251 
L 366.012708 98.317413 
L 366.571938 87.438924 
L 366.758355 90.499668 
L 367.131188 72.657527 
L 367.504001 71.968515 
L 367.690418 77.558511 
L 368.063231 70.231892 
L 368.436064 79.501578 
L 368.622481 78.06493 
L 368.995294 93.768302 
L 369.368127 96.127975 
L 369.554524 100.992399 
L 369.927357 98.851106 
L 370.113774 100.773976 
L 370.486587 97.796472 
L 370.85942 93.371939 
L 371.045837 79.574921 
L 371.41865 76.674201 
L 371.791483 79.126713 
L 371.97788 81.235057 
L 372.350713 66.165538 
L 372.53713 66.481903 
L 372.909943 61.953107 
L 372.909943 61.953107 
" style="fill:none;stroke:#1f77b4;stroke-linecap:square;stroke-width:1.5;"/>
   </g>
   <g id="line2d_17">
    <path clip-path="url(#pf2f51083ee)" d="M 68.546307 69.853849 
L 372.909943 69.853849 
" style="fill:none;stroke:#ff7f0e;stroke-linecap:square;stroke-width:1.5;"/>
   </g>
   <g id="patch_3">
    <path d="M 53.328125 226.874062 
L 53.328125 9.434062 
" style="fill:none;stroke:#000000;stroke-linecap:square;stroke-linejoin:miter;stroke-width:0.8;"/>
   </g>
   <g id="patch_4">
    <path d="M 388.128125 226.874062 
L 388.128125 9.434062 
" style="fill:none;stroke:#000000;stroke-linecap:square;stroke-linejoin:miter;stroke-width:0.8;"/>
   </g>
   <g id="patch_5">
    <path d="M 53.328125 226.874062 
L 388.128125 226.874062 
" style="fill:none;stroke:#000000;stroke-linecap:square;stroke-linejoin:miter;stroke-width:0.8;"/>
   </g>
   <g id="patch_6">
    <path d="M 53.328125 9.434062 
L 388.128125 9.434062 
" style="fill:none;stroke:#000000;stroke-linecap:square;stroke-linejoin:miter;stroke-width:0.8;"/>
   </g>
   <g id="legend_1">
    <g id="patch_7">
     <path d="M 296.29375 221.874062 
L 381.128125 221.874062 
Q 383.128125 221.874062 383.128125 219.874062 
L 383.128125 191.517812 
Q 383.128125 189.517812 381.128125 189.517812 
L 296.29375 189.517812 
Q 294.29375 189.517812 294.29375 191.517812 
L 294.29375 219.874062 
Q 294.29375 221.874062 296.29375 221.874062 
z
" style="fill:#ffffff;opacity:0.8;stroke:#cccccc;stroke-linejoin:miter;"/>
    </g>
    <g id="line2d_18">
     <path d="M 298.29375 197.616249 
L 318.29375 197.616249 
" style="fill:none;stroke:#1f77b4;stroke-linecap:square;stroke-width:1.5;"/>
    </g>
    <g id="line2d_19"/>
    <g id="text_18">
     <!-- simulation -->
     <g transform="translate(326.29375 201.116249)scale(0.1 -0.1)">
      <defs>
       <path d="M 544 1381 
L 544 3500 
L 1119 3500 
L 1119 1403 
Q 1119 906 1312 657 
Q 1506 409 1894 409 
Q 2359 409 2629 706 
Q 2900 1003 2900 1516 
L 2900 3500 
L 3475 3500 
L 3475 0 
L 2900 0 
L 2900 538 
Q 2691 219 2414 64 
Q 2138 -91 1772 -91 
Q 1169 -91 856 284 
Q 544 659 544 1381 
z
M 1991 3584 
L 1991 3584 
z
" id="DejaVuSans-75" transform="scale(0.015625)"/>
       <path d="M 1959 3097 
Q 1497 3097 1228 2736 
Q 959 2375 959 1747 
Q 959 1119 1226 758 
Q 1494 397 1959 397 
Q 2419 397 2687 759 
Q 2956 1122 2956 1747 
Q 2956 2369 2687 2733 
Q 2419 3097 1959 3097 
z
M 1959 3584 
Q 2709 3584 3137 3096 
Q 3566 2609 3566 1747 
Q 3566 888 3137 398 
Q 2709 -91 1959 -91 
Q 1206 -91 779 398 
Q 353 888 353 1747 
Q 353 2609 779 3096 
Q 1206 3584 1959 3584 
z
" id="DejaVuSans-6f" transform="scale(0.015625)"/>
       <path d="M 3513 2113 
L 3513 0 
L 2938 0 
L 2938 2094 
Q 2938 2591 2744 2837 
Q 2550 3084 2163 3084 
Q 1697 3084 1428 2787 
Q 1159 2491 1159 1978 
L 1159 0 
L 581 0 
L 581 3500 
L 1159 3500 
L 1159 2956 
Q 1366 3272 1645 3428 
Q 1925 3584 2291 3584 
Q 2894 3584 3203 3211 
Q 3513 2838 3513 2113 
z
" id="DejaVuSans-6e" transform="scale(0.015625)"/>
      </defs>
      <use xlink:href="#DejaVuSans-73"/>
      <use x="52.099609" xlink:href="#DejaVuSans-69"/>
      <use x="79.882812" xlink:href="#DejaVuSans-6d"/>
      <use x="177.294922" xlink:href="#DejaVuSans-75"/>
      <use x="240.673828" xlink:href="#DejaVuSans-6c"/>
      <use x="268.457031" xlink:href="#DejaVuSans-61"/>
      <use x="329.736328" xlink:href="#DejaVuSans-74"/>
      <use x="368.945312" xlink:href="#DejaVuSans-69"/>
      <use x="396.728516" xlink:href="#DejaVuSans-6f"/>
      <use x="457.910156" xlink:href="#DejaVuSans-6e"/>
     </g>
    </g>
    <g id="line2d_20">
     <path d="M 298.29375 212.294374 
L 318.29375 212.294374 
" style="fill:none;stroke:#ff7f0e;stroke-linecap:square;stroke-width:1.5;"/>
    </g>
    <g id="line2d_21"/>
    <g id="text_19">
     <!-- prescribed -->
     <g transform="translate(326.29375 215.794374)scale(0.1 -0.1)">
      <defs>
       <path d="M 1159 525 
L 1159 -1331 
L 581 -1331 
L 581 3500 
L 1159 3500 
L 1159 2969 
Q 1341 3281 1617 3432 
Q 1894 3584 2278 3584 
Q 2916 3584 3314 3078 
Q 3713 2572 3713 1747 
Q 3713 922 3314 415 
Q 2916 -91 2278 -91 
Q 1894 -91 1617 61 
Q 1341 213 1159 525 
z
M 3116 1747 
Q 3116 2381 2855 2742 
Q 2594 3103 2138 3103 
Q 1681 3103 1420 2742 
Q 1159 2381 1159 1747 
Q 1159 1113 1420 752 
Q 1681 391 2138 391 
Q 2594 391 2855 752 
Q 3116 1113 3116 1747 
z
" id="DejaVuSans-70" transform="scale(0.015625)"/>
       <path d="M 3122 3366 
L 3122 2828 
Q 2878 2963 2633 3030 
Q 2388 3097 2138 3097 
Q 1578 3097 1268 2742 
Q 959 2388 959 1747 
Q 959 1106 1268 751 
Q 1578 397 2138 397 
Q 2388 397 2633 464 
Q 2878 531 3122 666 
L 3122 134 
Q 2881 22 2623 -34 
Q 2366 -91 2075 -91 
Q 1284 -91 818 406 
Q 353 903 353 1747 
Q 353 2603 823 3093 
Q 1294 3584 2113 3584 
Q 2378 3584 2631 3529 
Q 2884 3475 3122 3366 
z
" id="DejaVuSans-63" transform="scale(0.015625)"/>
       <path d="M 3116 1747 
Q 3116 2381 2855 2742 
Q 2594 3103 2138 3103 
Q 1681 3103 1420 2742 
Q 1159 2381 1159 1747 
Q 1159 1113 1420 752 
Q 1681 391 2138 391 
Q 2594 391 2855 752 
Q 3116 1113 3116 1747 
z
M 1159 2969 
Q 1341 3281 1617 3432 
Q 1894 3584 2278 3584 
Q 2916 3584 3314 3078 
Q 3713 2572 3713 1747 
Q 3713 922 3314 415 
Q 2916 -91 2278 -91 
Q 1894 -91 1617 61 
Q 1341 213 1159 525 
L 1159 0 
L 581 0 
L 581 4863 
L 1159 4863 
L 1159 2969 
z
" id="DejaVuSans-62" transform="scale(0.015625)"/>
       <path d="M 2906 2969 
L 2906 4863 
L 3481 4863 
L 3481 0 
L 2906 0 
L 2906 525 
Q 2725 213 2448 61 
Q 2172 -91 1784 -91 
Q 1150 -91 751 415 
Q 353 922 353 1747 
Q 353 2572 751 3078 
Q 1150 3584 1784 3584 
Q 2172 3584 2448 3432 
Q 2725 3281 2906 2969 
z
M 947 1747 
Q 947 1113 1208 752 
Q 1469 391 1925 391 
Q 2381 391 2643 752 
Q 2906 1113 2906 1747 
Q 2906 2381 2643 2742 
Q 2381 3103 1925 3103 
Q 1469 3103 1208 2742 
Q 947 2381 947 1747 
z
" id="DejaVuSans-64" transform="scale(0.015625)"/>
      </defs>
      <use xlink:href="#DejaVuSans-70"/>
      <use x="63.476562" xlink:href="#DejaVuSans-72"/>
      <use x="102.339844" xlink:href="#DejaVuSans-65"/>
      <use x="163.863281" xlink:href="#DejaVuSans-73"/>
      <use x="215.962891" xlink:href="#DejaVuSans-63"/>
      <use x="270.943359" xlink:href="#DejaVuSans-72"/>
      <use x="312.056641" xlink:href="#DejaVuSans-69"/>
      <use x="339.839844" xlink:href="#DejaVuSans-62"/>
      <use x="403.316406" xlink:href="#DejaVuSans-65"/>
      <use x="464.839844" xlink:href="#DejaVuSans-64"/>
     </g>
    </g>
   </g>
  </g>
 </g>
 <defs>
  <clipPath id="pf2f51083ee">
   <rect height="217.44" width="334.8" x="53.328125" y="9.434062"/>
  </clipPath>
 </defs>
</svg>
