<?xml version="1.0" encoding="utf-8" standalone="no"?>
<!DOCTYPE svg PUBLIC "-//W3C//DTD SVG 1.1//EN"
  "http://www.w3.org/Graphics/SVG/1.1/DTD/svg11.dtd">
<svg height="262.19625pt" version="1.1" viewBox="0 0 395.328125 262.19625" width="395.328125pt" xmlns="http://www.w3.org/2000/svg" xmlns:xlink="http://www.w3.org/1999/xlink">
 <metadata>
  <rdf:RDF xmlns:cc="http://creativecommons.org/ns#" xmlns:dc="http://purl.org/dc/elements/1.1/" xmlns:rdf="http://www.w3.org/1999/02/22-rdf-syntax-ns#">
   <cc:Work>
    <dc:type rdf:resource="http://purl.org/dc/dcmitype/StillImage"/>
    <dc:date>2021-06-03T19:51:27.015084</dc:date>
    <dc:format>image/svg+xml</dc:format>
    <dc:creator>
     <cc:Agent>
      <dc:title>Matplotlib v3.4.1, https://matplotlib.org/</dc:title>
     </cc:Agent>
    </dc:creator>
   </cc:Work>
  </rdf:RDF>
 </metadata>
 <defs>
  <style type="text/css">*{stroke-linecap:butt;stroke-linejoin:round;}</style>
 </defs>
 <g id="figure_1">
  <g id="patch_1">
   <path d="M 0 262.19625 
L 395.328125 262.19625 
L 395.328125 0 
L 0 0 
z
" style="fill:none;"/>
  </g>
  <g id="axes_1">
   <g id="patch_2">
    <path d="M 53.328125 224.64 
L 388.128125 224.64 
L 388.128125 7.2 
L 53.328125 7.2 
z
" style="fill:#ffffff;"/>
   </g>
   <g id="matplotlib.axis_1">
    <g id="xtick_1">
     <g id="line2d_1">
      <path clip-path="url(#p9270faf6e3)" d="M 68.546307 224.64 
L 68.546307 7.2 
" style="fill:none;stroke:#b0b0b0;stroke-dasharray:2.96,1.28;stroke-dashoffset:0;stroke-opacity:0.5;stroke-width:0.8;"/>
     </g>
     <g id="line2d_2">
      <defs>
       <path d="M 0 0 
L 0 3.5 
" id="m622db33dd4" style="stroke:#000000;stroke-width:0.8;"/>
      </defs>
      <g>
       <use style="stroke:#000000;stroke-width:0.8;" x="68.546307" xlink:href="#m622db33dd4" y="224.64"/>
      </g>
     </g>
     <g id="text_1">
      <!-- 0 -->
      <g transform="translate(65.365057 239.238437)scale(0.1 -0.1)">
       <defs>
        <path d="M 2034 4250 
Q 1547 4250 1301 3770 
Q 1056 3291 1056 2328 
Q 1056 1369 1301 889 
Q 1547 409 2034 409 
Q 2525 409 2770 889 
Q 3016 1369 3016 2328 
Q 3016 3291 2770 3770 
Q 2525 4250 2034 4250 
z
M 2034 4750 
Q 2819 4750 3233 4129 
Q 3647 3509 3647 2328 
Q 3647 1150 3233 529 
Q 2819 -91 2034 -91 
Q 1250 -91 836 529 
Q 422 1150 422 2328 
Q 422 3509 836 4129 
Q 1250 4750 2034 4750 
z
" id="DejaVuSans-30" transform="scale(0.015625)"/>
       </defs>
       <use xlink:href="#DejaVuSans-30"/>
      </g>
     </g>
    </g>
    <g id="xtick_2">
     <g id="line2d_3">
      <path clip-path="url(#p9270faf6e3)" d="M 122.896956 224.64 
L 122.896956 7.2 
" style="fill:none;stroke:#b0b0b0;stroke-dasharray:2.96,1.28;stroke-dashoffset:0;stroke-opacity:0.5;stroke-width:0.8;"/>
     </g>
     <g id="line2d_4">
      <g>
       <use style="stroke:#000000;stroke-width:0.8;" x="122.896956" xlink:href="#m622db33dd4" y="224.64"/>
      </g>
     </g>
     <g id="text_2">
      <!-- 50 -->
      <g transform="translate(116.534456 239.238437)scale(0.1 -0.1)">
       <defs>
        <path d="M 691 4666 
L 3169 4666 
L 3169 4134 
L 1269 4134 
L 1269 2991 
Q 1406 3038 1543 3061 
Q 1681 3084 1819 3084 
Q 2600 3084 3056 2656 
Q 3513 2228 3513 1497 
Q 3513 744 3044 326 
Q 2575 -91 1722 -91 
Q 1428 -91 1123 -41 
Q 819 9 494 109 
L 494 744 
Q 775 591 1075 516 
Q 1375 441 1709 441 
Q 2250 441 2565 725 
Q 2881 1009 2881 1497 
Q 2881 1984 2565 2268 
Q 2250 2553 1709 2553 
Q 1456 2553 1204 2497 
Q 953 2441 691 2322 
L 691 4666 
z
" id="DejaVuSans-35" transform="scale(0.015625)"/>
       </defs>
       <use xlink:href="#DejaVuSans-35"/>
       <use x="63.623047" xlink:href="#DejaVuSans-30"/>
      </g>
     </g>
    </g>
    <g id="xtick_3">
     <g id="line2d_5">
      <path clip-path="url(#p9270faf6e3)" d="M 177.247606 224.64 
L 177.247606 7.2 
" style="fill:none;stroke:#b0b0b0;stroke-dasharray:2.96,1.28;stroke-dashoffset:0;stroke-opacity:0.5;stroke-width:0.8;"/>
     </g>
     <g id="line2d_6">
      <g>
       <use style="stroke:#000000;stroke-width:0.8;" x="177.247606" xlink:href="#m622db33dd4" y="224.64"/>
      </g>
     </g>
     <g id="text_3">
      <!-- 100 -->
      <g transform="translate(167.703856 239.238437)scale(0.1 -0.1)">
       <defs>
        <path d="M 794 531 
L 1825 531 
L 1825 4091 
L 703 3866 
L 703 4441 
L 1819 4666 
L 2450 4666 
L 2450 531 
L 3481 531 
L 3481 0 
L 794 0 
L 794 531 
z
" id="DejaVuSans-31" transform="scale(0.015625)"/>
       </defs>
       <use xlink:href="#DejaVuSans-31"/>
       <use x="63.623047" xlink:href="#DejaVuSans-30"/>
       <use x="127.246094" xlink:href="#DejaVuSans-30"/>
      </g>
     </g>
    </g>
    <g id="xtick_4">
     <g id="line2d_7">
      <path clip-path="url(#p9270faf6e3)" d="M 231.598255 224.64 
L 231.598255 7.2 
" style="fill:none;stroke:#b0b0b0;stroke-dasharray:2.96,1.28;stroke-dashoffset:0;stroke-opacity:0.5;stroke-width:0.8;"/>
     </g>
     <g id="line2d_8">
      <g>
       <use style="stroke:#000000;stroke-width:0.8;" x="231.598255" xlink:href="#m622db33dd4" y="224.64"/>
      </g>
     </g>
     <g id="text_4">
      <!-- 150 -->
      <g transform="translate(222.054505 239.238437)scale(0.1 -0.1)">
       <use xlink:href="#DejaVuSans-31"/>
       <use x="63.623047" xlink:href="#DejaVuSans-35"/>
       <use x="127.246094" xlink:href="#DejaVuSans-30"/>
      </g>
     </g>
    </g>
    <g id="xtick_5">
     <g id="line2d_9">
      <path clip-path="url(#p9270faf6e3)" d="M 285.948904 224.64 
L 285.948904 7.2 
" style="fill:none;stroke:#b0b0b0;stroke-dasharray:2.96,1.28;stroke-dashoffset:0;stroke-opacity:0.5;stroke-width:0.8;"/>
     </g>
     <g id="line2d_10">
      <g>
       <use style="stroke:#000000;stroke-width:0.8;" x="285.948904" xlink:href="#m622db33dd4" y="224.64"/>
      </g>
     </g>
     <g id="text_5">
      <!-- 200 -->
      <g transform="translate(276.405154 239.238437)scale(0.1 -0.1)">
       <defs>
        <path d="M 1228 531 
L 3431 531 
L 3431 0 
L 469 0 
L 469 531 
Q 828 903 1448 1529 
Q 2069 2156 2228 2338 
Q 2531 2678 2651 2914 
Q 2772 3150 2772 3378 
Q 2772 3750 2511 3984 
Q 2250 4219 1831 4219 
Q 1534 4219 1204 4116 
Q 875 4013 500 3803 
L 500 4441 
Q 881 4594 1212 4672 
Q 1544 4750 1819 4750 
Q 2544 4750 2975 4387 
Q 3406 4025 3406 3419 
Q 3406 3131 3298 2873 
Q 3191 2616 2906 2266 
Q 2828 2175 2409 1742 
Q 1991 1309 1228 531 
z
" id="DejaVuSans-32" transform="scale(0.015625)"/>
       </defs>
       <use xlink:href="#DejaVuSans-32"/>
       <use x="63.623047" xlink:href="#DejaVuSans-30"/>
       <use x="127.246094" xlink:href="#DejaVuSans-30"/>
      </g>
     </g>
    </g>
    <g id="xtick_6">
     <g id="line2d_11">
      <path clip-path="url(#p9270faf6e3)" d="M 340.299554 224.64 
L 340.299554 7.2 
" style="fill:none;stroke:#b0b0b0;stroke-dasharray:2.96,1.28;stroke-dashoffset:0;stroke-opacity:0.5;stroke-width:0.8;"/>
     </g>
     <g id="line2d_12">
      <g>
       <use style="stroke:#000000;stroke-width:0.8;" x="340.299554" xlink:href="#m622db33dd4" y="224.64"/>
      </g>
     </g>
     <g id="text_6">
      <!-- 250 -->
      <g transform="translate(330.755804 239.238437)scale(0.1 -0.1)">
       <use xlink:href="#DejaVuSans-32"/>
       <use x="63.623047" xlink:href="#DejaVuSans-35"/>
       <use x="127.246094" xlink:href="#DejaVuSans-30"/>
      </g>
     </g>
    </g>
    <g id="text_7">
     <!-- Time / s -->
     <g transform="translate(201.027344 252.916562)scale(0.1 -0.1)">
      <defs>
       <path d="M -19 4666 
L 3928 4666 
L 3928 4134 
L 2272 4134 
L 2272 0 
L 1638 0 
L 1638 4134 
L -19 4134 
L -19 4666 
z
" id="DejaVuSans-54" transform="scale(0.015625)"/>
       <path d="M 603 3500 
L 1178 3500 
L 1178 0 
L 603 0 
L 603 3500 
z
M 603 4863 
L 1178 4863 
L 1178 4134 
L 603 4134 
L 603 4863 
z
" id="DejaVuSans-69" transform="scale(0.015625)"/>
       <path d="M 3328 2828 
Q 3544 3216 3844 3400 
Q 4144 3584 4550 3584 
Q 5097 3584 5394 3201 
Q 5691 2819 5691 2113 
L 5691 0 
L 5113 0 
L 5113 2094 
Q 5113 2597 4934 2840 
Q 4756 3084 4391 3084 
Q 3944 3084 3684 2787 
Q 3425 2491 3425 1978 
L 3425 0 
L 2847 0 
L 2847 2094 
Q 2847 2600 2669 2842 
Q 2491 3084 2119 3084 
Q 1678 3084 1418 2786 
Q 1159 2488 1159 1978 
L 1159 0 
L 581 0 
L 581 3500 
L 1159 3500 
L 1159 2956 
Q 1356 3278 1631 3431 
Q 1906 3584 2284 3584 
Q 2666 3584 2933 3390 
Q 3200 3197 3328 2828 
z
" id="DejaVuSans-6d" transform="scale(0.015625)"/>
       <path d="M 3597 1894 
L 3597 1613 
L 953 1613 
Q 991 1019 1311 708 
Q 1631 397 2203 397 
Q 2534 397 2845 478 
Q 3156 559 3463 722 
L 3463 178 
Q 3153 47 2828 -22 
Q 2503 -91 2169 -91 
Q 1331 -91 842 396 
Q 353 884 353 1716 
Q 353 2575 817 3079 
Q 1281 3584 2069 3584 
Q 2775 3584 3186 3129 
Q 3597 2675 3597 1894 
z
M 3022 2063 
Q 3016 2534 2758 2815 
Q 2500 3097 2075 3097 
Q 1594 3097 1305 2825 
Q 1016 2553 972 2059 
L 3022 2063 
z
" id="DejaVuSans-65" transform="scale(0.015625)"/>
       <path id="DejaVuSans-20" transform="scale(0.015625)"/>
       <path d="M 1625 4666 
L 2156 4666 
L 531 -594 
L 0 -594 
L 1625 4666 
z
" id="DejaVuSans-2f" transform="scale(0.015625)"/>
       <path d="M 2834 3397 
L 2834 2853 
Q 2591 2978 2328 3040 
Q 2066 3103 1784 3103 
Q 1356 3103 1142 2972 
Q 928 2841 928 2578 
Q 928 2378 1081 2264 
Q 1234 2150 1697 2047 
L 1894 2003 
Q 2506 1872 2764 1633 
Q 3022 1394 3022 966 
Q 3022 478 2636 193 
Q 2250 -91 1575 -91 
Q 1294 -91 989 -36 
Q 684 19 347 128 
L 347 722 
Q 666 556 975 473 
Q 1284 391 1588 391 
Q 1994 391 2212 530 
Q 2431 669 2431 922 
Q 2431 1156 2273 1281 
Q 2116 1406 1581 1522 
L 1381 1569 
Q 847 1681 609 1914 
Q 372 2147 372 2553 
Q 372 3047 722 3315 
Q 1072 3584 1716 3584 
Q 2034 3584 2315 3537 
Q 2597 3491 2834 3397 
z
" id="DejaVuSans-73" transform="scale(0.015625)"/>
      </defs>
      <use xlink:href="#DejaVuSans-54"/>
      <use x="57.958984" xlink:href="#DejaVuSans-69"/>
      <use x="85.742188" xlink:href="#DejaVuSans-6d"/>
      <use x="183.154297" xlink:href="#DejaVuSans-65"/>
      <use x="244.677734" xlink:href="#DejaVuSans-20"/>
      <use x="276.464844" xlink:href="#DejaVuSans-2f"/>
      <use x="310.15625" xlink:href="#DejaVuSans-20"/>
      <use x="341.943359" xlink:href="#DejaVuSans-73"/>
     </g>
    </g>
   </g>
   <g id="matplotlib.axis_2">
    <g id="ytick_1">
     <g id="line2d_13">
      <path clip-path="url(#p9270faf6e3)" d="M 53.328125 214.756364 
L 388.128125 214.756364 
" style="fill:none;stroke:#b0b0b0;stroke-dasharray:2.96,1.28;stroke-dashoffset:0;stroke-opacity:0.5;stroke-width:0.8;"/>
     </g>
     <g id="line2d_14">
      <defs>
       <path d="M 0 0 
L -3.5 0 
" id="m61985c8c81" style="stroke:#000000;stroke-width:0.8;"/>
      </defs>
      <g>
       <use style="stroke:#000000;stroke-width:0.8;" x="53.328125" xlink:href="#m61985c8c81" y="214.756364"/>
      </g>
     </g>
     <g id="text_8">
      <!-- 0 -->
      <g transform="translate(39.965625 218.555582)scale(0.1 -0.1)">
       <use xlink:href="#DejaVuSans-30"/>
      </g>
     </g>
    </g>
    <g id="ytick_2">
     <g id="line2d_15">
      <path clip-path="url(#p9270faf6e3)" d="M 53.328125 187.622353 
L 388.128125 187.622353 
" style="fill:none;stroke:#b0b0b0;stroke-dasharray:2.96,1.28;stroke-dashoffset:0;stroke-opacity:0.5;stroke-width:0.8;"/>
     </g>
     <g id="line2d_16">
      <g>
       <use style="stroke:#000000;stroke-width:0.8;" x="53.328125" xlink:href="#m61985c8c81" y="187.622353"/>
      </g>
     </g>
     <g id="text_9">
      <!-- 200 -->
      <g transform="translate(27.240625 191.421571)scale(0.1 -0.1)">
       <use xlink:href="#DejaVuSans-32"/>
       <use x="63.623047" xlink:href="#DejaVuSans-30"/>
       <use x="127.246094" xlink:href="#DejaVuSans-30"/>
      </g>
     </g>
    </g>
    <g id="ytick_3">
     <g id="line2d_17">
      <path clip-path="url(#p9270faf6e3)" d="M 53.328125 160.488342 
L 388.128125 160.488342 
" style="fill:none;stroke:#b0b0b0;stroke-dasharray:2.96,1.28;stroke-dashoffset:0;stroke-opacity:0.5;stroke-width:0.8;"/>
     </g>
     <g id="line2d_18">
      <g>
       <use style="stroke:#000000;stroke-width:0.8;" x="53.328125" xlink:href="#m61985c8c81" y="160.488342"/>
      </g>
     </g>
     <g id="text_10">
      <!-- 400 -->
      <g transform="translate(27.240625 164.28756)scale(0.1 -0.1)">
       <defs>
        <path d="M 2419 4116 
L 825 1625 
L 2419 1625 
L 2419 4116 
z
M 2253 4666 
L 3047 4666 
L 3047 1625 
L 3713 1625 
L 3713 1100 
L 3047 1100 
L 3047 0 
L 2419 0 
L 2419 1100 
L 313 1100 
L 313 1709 
L 2253 4666 
z
" id="DejaVuSans-34" transform="scale(0.015625)"/>
       </defs>
       <use xlink:href="#DejaVuSans-34"/>
       <use x="63.623047" xlink:href="#DejaVuSans-30"/>
       <use x="127.246094" xlink:href="#DejaVuSans-30"/>
      </g>
     </g>
    </g>
    <g id="ytick_4">
     <g id="line2d_19">
      <path clip-path="url(#p9270faf6e3)" d="M 53.328125 133.354331 
L 388.128125 133.354331 
" style="fill:none;stroke:#b0b0b0;stroke-dasharray:2.96,1.28;stroke-dashoffset:0;stroke-opacity:0.5;stroke-width:0.8;"/>
     </g>
     <g id="line2d_20">
      <g>
       <use style="stroke:#000000;stroke-width:0.8;" x="53.328125" xlink:href="#m61985c8c81" y="133.354331"/>
      </g>
     </g>
     <g id="text_11">
      <!-- 600 -->
      <g transform="translate(27.240625 137.153549)scale(0.1 -0.1)">
       <defs>
        <path d="M 2113 2584 
Q 1688 2584 1439 2293 
Q 1191 2003 1191 1497 
Q 1191 994 1439 701 
Q 1688 409 2113 409 
Q 2538 409 2786 701 
Q 3034 994 3034 1497 
Q 3034 2003 2786 2293 
Q 2538 2584 2113 2584 
z
M 3366 4563 
L 3366 3988 
Q 3128 4100 2886 4159 
Q 2644 4219 2406 4219 
Q 1781 4219 1451 3797 
Q 1122 3375 1075 2522 
Q 1259 2794 1537 2939 
Q 1816 3084 2150 3084 
Q 2853 3084 3261 2657 
Q 3669 2231 3669 1497 
Q 3669 778 3244 343 
Q 2819 -91 2113 -91 
Q 1303 -91 875 529 
Q 447 1150 447 2328 
Q 447 3434 972 4092 
Q 1497 4750 2381 4750 
Q 2619 4750 2861 4703 
Q 3103 4656 3366 4563 
z
" id="DejaVuSans-36" transform="scale(0.015625)"/>
       </defs>
       <use xlink:href="#DejaVuSans-36"/>
       <use x="63.623047" xlink:href="#DejaVuSans-30"/>
       <use x="127.246094" xlink:href="#DejaVuSans-30"/>
      </g>
     </g>
    </g>
    <g id="ytick_5">
     <g id="line2d_21">
      <path clip-path="url(#p9270faf6e3)" d="M 53.328125 106.22032 
L 388.128125 106.22032 
" style="fill:none;stroke:#b0b0b0;stroke-dasharray:2.96,1.28;stroke-dashoffset:0;stroke-opacity:0.5;stroke-width:0.8;"/>
     </g>
     <g id="line2d_22">
      <g>
       <use style="stroke:#000000;stroke-width:0.8;" x="53.328125" xlink:href="#m61985c8c81" y="106.22032"/>
      </g>
     </g>
     <g id="text_12">
      <!-- 800 -->
      <g transform="translate(27.240625 110.019539)scale(0.1 -0.1)">
       <defs>
        <path d="M 2034 2216 
Q 1584 2216 1326 1975 
Q 1069 1734 1069 1313 
Q 1069 891 1326 650 
Q 1584 409 2034 409 
Q 2484 409 2743 651 
Q 3003 894 3003 1313 
Q 3003 1734 2745 1975 
Q 2488 2216 2034 2216 
z
M 1403 2484 
Q 997 2584 770 2862 
Q 544 3141 544 3541 
Q 544 4100 942 4425 
Q 1341 4750 2034 4750 
Q 2731 4750 3128 4425 
Q 3525 4100 3525 3541 
Q 3525 3141 3298 2862 
Q 3072 2584 2669 2484 
Q 3125 2378 3379 2068 
Q 3634 1759 3634 1313 
Q 3634 634 3220 271 
Q 2806 -91 2034 -91 
Q 1263 -91 848 271 
Q 434 634 434 1313 
Q 434 1759 690 2068 
Q 947 2378 1403 2484 
z
M 1172 3481 
Q 1172 3119 1398 2916 
Q 1625 2713 2034 2713 
Q 2441 2713 2670 2916 
Q 2900 3119 2900 3481 
Q 2900 3844 2670 4047 
Q 2441 4250 2034 4250 
Q 1625 4250 1398 4047 
Q 1172 3844 1172 3481 
z
" id="DejaVuSans-38" transform="scale(0.015625)"/>
       </defs>
       <use xlink:href="#DejaVuSans-38"/>
       <use x="63.623047" xlink:href="#DejaVuSans-30"/>
       <use x="127.246094" xlink:href="#DejaVuSans-30"/>
      </g>
     </g>
    </g>
    <g id="ytick_6">
     <g id="line2d_23">
      <path clip-path="url(#p9270faf6e3)" d="M 53.328125 79.086309 
L 388.128125 79.086309 
" style="fill:none;stroke:#b0b0b0;stroke-dasharray:2.96,1.28;stroke-dashoffset:0;stroke-opacity:0.5;stroke-width:0.8;"/>
     </g>
     <g id="line2d_24">
      <g>
       <use style="stroke:#000000;stroke-width:0.8;" x="53.328125" xlink:href="#m61985c8c81" y="79.086309"/>
      </g>
     </g>
     <g id="text_13">
      <!-- 1000 -->
      <g transform="translate(20.878125 82.885528)scale(0.1 -0.1)">
       <use xlink:href="#DejaVuSans-31"/>
       <use x="63.623047" xlink:href="#DejaVuSans-30"/>
       <use x="127.246094" xlink:href="#DejaVuSans-30"/>
       <use x="190.869141" xlink:href="#DejaVuSans-30"/>
      </g>
     </g>
    </g>
    <g id="ytick_7">
     <g id="line2d_25">
      <path clip-path="url(#p9270faf6e3)" d="M 53.328125 51.952298 
L 388.128125 51.952298 
" style="fill:none;stroke:#b0b0b0;stroke-dasharray:2.96,1.28;stroke-dashoffset:0;stroke-opacity:0.5;stroke-width:0.8;"/>
     </g>
     <g id="line2d_26">
      <g>
       <use style="stroke:#000000;stroke-width:0.8;" x="53.328125" xlink:href="#m61985c8c81" y="51.952298"/>
      </g>
     </g>
     <g id="text_14">
      <!-- 1200 -->
      <g transform="translate(20.878125 55.751517)scale(0.1 -0.1)">
       <use xlink:href="#DejaVuSans-31"/>
       <use x="63.623047" xlink:href="#DejaVuSans-32"/>
       <use x="127.246094" xlink:href="#DejaVuSans-30"/>
       <use x="190.869141" xlink:href="#DejaVuSans-30"/>
      </g>
     </g>
    </g>
    <g id="ytick_8">
     <g id="line2d_27">
      <path clip-path="url(#p9270faf6e3)" d="M 53.328125 24.818287 
L 388.128125 24.818287 
" style="fill:none;stroke:#b0b0b0;stroke-dasharray:2.96,1.28;stroke-dashoffset:0;stroke-opacity:0.5;stroke-width:0.8;"/>
     </g>
     <g id="line2d_28">
      <g>
       <use style="stroke:#000000;stroke-width:0.8;" x="53.328125" xlink:href="#m61985c8c81" y="24.818287"/>
      </g>
     </g>
     <g id="text_15">
      <!-- 1400 -->
      <g transform="translate(20.878125 28.617506)scale(0.1 -0.1)">
       <use xlink:href="#DejaVuSans-31"/>
       <use x="63.623047" xlink:href="#DejaVuSans-34"/>
       <use x="127.246094" xlink:href="#DejaVuSans-30"/>
       <use x="190.869141" xlink:href="#DejaVuSans-30"/>
      </g>
     </g>
    </g>
    <g id="text_16">
     <!-- HRR / kW -->
     <g transform="translate(14.798438 139.330156)rotate(-90)scale(0.1 -0.1)">
      <defs>
       <path d="M 628 4666 
L 1259 4666 
L 1259 2753 
L 3553 2753 
L 3553 4666 
L 4184 4666 
L 4184 0 
L 3553 0 
L 3553 2222 
L 1259 2222 
L 1259 0 
L 628 0 
L 628 4666 
z
" id="DejaVuSans-48" transform="scale(0.015625)"/>
       <path d="M 2841 2188 
Q 3044 2119 3236 1894 
Q 3428 1669 3622 1275 
L 4263 0 
L 3584 0 
L 2988 1197 
Q 2756 1666 2539 1819 
Q 2322 1972 1947 1972 
L 1259 1972 
L 1259 0 
L 628 0 
L 628 4666 
L 2053 4666 
Q 2853 4666 3247 4331 
Q 3641 3997 3641 3322 
Q 3641 2881 3436 2590 
Q 3231 2300 2841 2188 
z
M 1259 4147 
L 1259 2491 
L 2053 2491 
Q 2509 2491 2742 2702 
Q 2975 2913 2975 3322 
Q 2975 3731 2742 3939 
Q 2509 4147 2053 4147 
L 1259 4147 
z
" id="DejaVuSans-52" transform="scale(0.015625)"/>
       <path d="M 581 4863 
L 1159 4863 
L 1159 1991 
L 2875 3500 
L 3609 3500 
L 1753 1863 
L 3688 0 
L 2938 0 
L 1159 1709 
L 1159 0 
L 581 0 
L 581 4863 
z
" id="DejaVuSans-6b" transform="scale(0.015625)"/>
       <path d="M 213 4666 
L 850 4666 
L 1831 722 
L 2809 4666 
L 3519 4666 
L 4500 722 
L 5478 4666 
L 6119 4666 
L 4947 0 
L 4153 0 
L 3169 4050 
L 2175 0 
L 1381 0 
L 213 4666 
z
" id="DejaVuSans-57" transform="scale(0.015625)"/>
      </defs>
      <use xlink:href="#DejaVuSans-48"/>
      <use x="75.195312" xlink:href="#DejaVuSans-52"/>
      <use x="144.677734" xlink:href="#DejaVuSans-52"/>
      <use x="214.160156" xlink:href="#DejaVuSans-20"/>
      <use x="245.947266" xlink:href="#DejaVuSans-2f"/>
      <use x="279.638672" xlink:href="#DejaVuSans-20"/>
      <use x="311.425781" xlink:href="#DejaVuSans-6b"/>
      <use x="369.335938" xlink:href="#DejaVuSans-57"/>
     </g>
    </g>
   </g>
   <g id="line2d_29">
    <path clip-path="url(#p9270faf6e3)" d="M 68.546307 214.756364 
L 68.872411 214.690426 
L 69.850722 213.87476 
L 70.394229 213.386239 
L 74.645638 209.444778 
L 75.292894 208.9406 
L 76.483478 207.825998 
L 78.017169 206.45603 
L 79.827672 204.812634 
L 84.417299 200.629557 
L 84.690936 200.263372 
L 85.317715 199.79154 
L 87.741488 197.574107 
L 88.339125 197.037601 
L 88.657865 196.60213 
L 88.976604 196.3999 
L 89.255502 196.361812 
L 89.574243 196.062717 
L 89.859852 195.546384 
L 90.791655 194.88199 
L 91.105826 194.613122 
L 91.392839 194.159848 
L 92.608917 193.138356 
L 93.206199 192.495726 
L 93.84015 192.267769 
L 94.731662 191.102309 
L 95.03919 191.00176 
L 96.269303 189.467201 
L 96.872059 187.840272 
L 98.089873 184.584029 
L 98.698778 183.047219 
L 99.005475 182.238417 
L 99.603072 180.283496 
L 100.200671 179.013842 
L 101.122796 176.456187 
L 101.437869 175.302656 
L 101.746396 175.273902 
L 102.048532 173.54564 
L 102.652805 173.507078 
L 102.954941 171.600178 
L 103.257076 170.494575 
L 103.559214 170.614264 
L 103.856672 167.265477 
L 104.182 169.333344 
L 104.47359 168.795826 
L 105.085782 164.82419 
L 105.392694 164.114145 
L 105.699611 164.904802 
L 106.006523 164.0682 
L 106.287859 162.731899 
L 106.594776 160.711853 
L 106.901688 161.487099 
L 107.515518 159.299038 
L 107.82243 159.333221 
L 108.129343 156.470988 
L 108.436255 157.11198 
L 108.733651 155.740809 
L 109.034953 156.211381 
L 109.344926 155.835548 
L 109.654898 153.413853 
L 109.941028 153.092394 
L 110.251001 151.068808 
L 110.560973 150.519487 
L 110.869727 151.635999 
L 111.164556 151.994261 
L 111.480442 151.800163 
L 111.775267 146.607156 
L 112.091153 147.421578 
L 112.394404 147.009198 
L 112.695548 147.301877 
L 112.996693 139.582641 
L 113.297837 146.522039 
L 113.598986 143.117449 
L 113.900131 147.391834 
L 114.205322 141.348869 
L 114.82652 137.553312 
L 115.118729 136.877562 
L 115.433412 138.958513 
L 115.736207 139.120027 
L 116.339188 136.104432 
L 116.654746 139.30018 
L 116.942166 138.82064 
L 117.251695 132.064231 
L 117.567966 133.770748 
L 117.855323 137.633121 
L 118.177864 139.525745 
L 118.478905 130.892968 
L 118.779946 127.317841 
L 119.080983 127.257972 
L 119.382023 123.132995 
L 119.683064 116.813655 
L 119.997972 133.497544 
L 120.303167 133.540952 
L 120.608363 123.44722 
L 120.915466 125.377811 
L 121.209217 124.737866 
L 121.52395 121.923814 
L 121.817702 122.620912 
L 122.132435 127.409599 
L 122.426186 124.998905 
L 122.740919 124.797984 
L 123.03467 114.031144 
L 123.349403 111.559852 
L 123.643154 117.161674 
L 123.943685 108.023678 
L 124.556162 126.286843 
L 125.171376 116.028087 
L 125.465173 117.725892 
L 125.768673 107.486695 
L 126.082767 107.455535 
L 126.377231 125.207263 
L 126.691326 125.504819 
L 126.991682 112.941941 
L 127.293996 108.672773 
L 127.606975 114.765513 
L 127.909115 116.323814 
L 128.211251 114.437906 
L 128.517168 123.518707 
L 128.828745 117.78567 
L 129.119552 116.678581 
L 129.436379 114.577236 
L 130.028489 108.080748 
L 130.348596 114.430685 
L 130.951059 120.761477 
L 131.550371 114.450915 
L 131.871431 110.729668 
L 132.171091 111.407704 
L 132.470747 118.388153 
L 133.087927 89.741261 
L 133.376209 115.130532 
L 133.683706 123.19038 
L 133.991207 123.32388 
L 134.306392 109.161381 
L 134.598086 110.07192 
L 134.902163 119.802346 
L 135.206235 108.420114 
L 135.510311 101.617748 
L 136.118459 120.401004 
L 136.424447 100.110704 
L 136.730273 91.413462 
L 137.045039 116.403449 
L 137.348 122.693591 
L 137.650961 121.729476 
L 137.953921 112.598791 
L 138.24793 95.665547 
L 138.558329 97.432123 
L 138.854904 108.721041 
L 139.161282 114.630836 
L 139.467659 107.89368 
L 139.783616 107.926944 
L 140.078499 111.804901 
L 140.394455 119.640509 
L 140.689338 106.588204 
L 141.005294 101.410517 
L 141.306132 102.791695 
L 141.612535 111.266212 
L 141.898511 108.942308 
L 142.204922 97.979134 
L 142.511324 105.699418 
L 142.817735 117.238601 
L 143.124137 105.919409 
L 143.430548 103.342026 
L 143.730432 102.839987 
L 144.043228 106.77928 
L 144.334711 113.523648 
L 144.645799 102.635224 
L 144.956888 100.974218 
L 145.254143 116.777171 
L 145.562121 110.405837 
L 145.854889 99.007383 
L 146.168573 107.475351 
L 146.479089 108.730017 
L 146.778641 103.948525 
L 147.080018 108.677302 
L 147.381403 96.921472 
L 147.696795 99.197076 
L 148.001282 113.300145 
L 148.605362 100.245695 
L 148.917031 98.661169 
L 149.215273 106.128247 
L 149.512536 92.718798 
L 149.8115 93.514534 
L 150.129148 99.327148 
L 150.727074 115.875715 
L 151.343686 102.005166 
L 152.259261 129.615571 
L 152.87331 88.159434 
L 153.479405 98.434122 
L 153.782449 98.120451 
L 154.085501 108.29819 
L 154.388545 113.029112 
L 154.689532 114.875745 
L 154.988918 114.701131 
L 155.310248 110.77657 
L 155.595661 101.66036 
L 155.914213 123.764916 
L 156.208474 100.182795 
L 156.510589 116.914315 
L 156.812695 119.336891 
L 157.122133 104.31289 
L 157.425185 109.737871 
L 157.734266 128.493742 
L 158.035568 125.226515 
L 158.336157 123.559166 
L 158.649692 127.886846 
L 158.958707 112.001798 
L 159.249601 115.256547 
L 159.557479 115.93257 
L 159.865366 126.358065 
L 160.159777 128.373955 
L 160.477284 121.747925 
L 160.773618 109.452188 
L 161.386025 128.284424 
L 161.692411 123.894292 
L 161.998797 125.141564 
L 162.305191 130.481386 
L 162.611577 132.326471 
L 162.917963 127.441571 
L 163.20393 133.336825 
L 163.818751 120.572645 
L 164.133305 131.162411 
L 164.425394 132.724132 
L 164.739957 136.926534 
L 165.032045 130.476998 
L 165.346608 126.504119 
L 165.638696 127.183024 
L 165.960707 137.051878 
L 166.254478 131.31817 
L 166.565882 129.432486 
L 166.867491 137.539318 
L 167.1691 140.707798 
L 167.470709 141.832012 
L 167.772318 141.040382 
L 168.073918 135.373624 
L 168.384144 137.654063 
L 168.692222 144.235833 
L 169.000291 129.83278 
L 169.290878 136.796727 
L 169.608883 140.93304 
L 169.905682 142.266977 
L 170.206727 146.967741 
L 170.509886 144.630207 
L 170.822683 140.02366 
L 171.117558 139.203131 
L 171.439999 141.822638 
L 171.729998 150.610814 
L 172.042305 150.212672 
L 172.343002 147.238034 
L 172.641277 142.523147 
L 172.947505 144.190778 
L 173.253733 149.788538 
L 173.57309 151.547901 
L 173.861819 148.674597 
L 174.174608 148.917998 
L 174.477676 149.36471 
L 174.774002 149.217625 
L 175.083299 152.826325 
L 175.392604 154.315855 
L 175.701901 151.23375 
L 175.987413 156.608335 
L 176.29671 159.129223 
L 176.908818 152.216302 
L 177.226226 151.56445 
L 177.511895 158.061865 
L 177.836095 158.842332 
L 178.135373 156.532078 
L 178.444612 156.155686 
L 178.746055 154.729022 
L 179.354788 158.083829 
L 179.953793 151.982167 
L 180.248411 149.403409 
L 180.558611 155.688012 
L 180.870363 157.757704 
L 181.182106 149.948358 
L 181.469865 146.864307 
L 181.781609 154.219825 
L 182.09336 152.87882 
L 182.38112 144.882518 
L 182.692664 146.74642 
L 182.994538 153.313123 
L 183.292639 152.455969 
L 183.603031 144.330166 
L 184.219153 152.421356 
L 184.832986 142.044211 
L 185.131866 145.35066 
L 185.43073 151.428395 
L 185.729603 143.971332 
L 186.051464 141.932323 
L 186.350328 143.26732 
L 186.6492 142.899676 
L 186.94808 141.020451 
L 187.269933 143.224584 
L 187.568805 146.902382 
L 187.867677 147.439907 
L 188.166541 137.636549 
L 188.488411 138.549316 
L 188.787266 145.580559 
L 189.086147 143.136097 
L 189.385019 138.187949 
L 189.683891 140.611577 
L 190.007112 140.015711 
L 190.303554 134.591956 
L 190.604757 137.318838 
L 190.916857 137.58646 
L 191.224951 137.34647 
L 191.511043 133.971007 
L 192.12724 139.905487 
L 193.051531 134.840507 
L 193.337624 134.72592 
L 193.645726 132.525016 
L 193.951415 132.458067 
L 194.263134 128.772386 
L 194.864726 140.944227 
L 195.17321 134.094099 
L 195.472 116.428986 
L 195.770789 136.165079 
L 196.090908 137.073424 
L 196.389689 128.656159 
L 196.686347 128.059878 
L 196.996938 134.310248 
L 197.300802 131.892855 
L 197.607221 121.46192 
L 197.911791 124.681715 
L 198.216369 134.038337 
L 198.520947 133.839311 
L 198.825517 115.841201 
L 199.130086 125.49711 
L 199.434672 123.768195 
L 199.73925 125.788953 
L 200.043837 130.9206 
L 200.348406 124.752258 
L 200.652976 123.38018 
L 200.957554 124.077493 
L 201.262132 123.085207 
L 201.558582 130.685008 
L 201.871288 132.308063 
L 202.183985 122.513553 
L 202.786241 116.079129 
L 203.086547 105.908289 
L 203.381638 110.812524 
L 203.692494 130.187589 
L 203.995173 131.632172 
L 204.297851 123.732373 
L 204.60053 124.900838 
L 204.920227 114.694895 
L 205.21156 109.115092 
L 205.523693 111.989535 
L 205.81501 117.127194 
L 206.12716 118.05075 
L 206.439293 121.951836 
L 206.729117 117.876633 
L 207.038323 116.228346 
L 207.341823 99.8861 
L 207.659761 95.063346 
L 208.256635 121.787018 
L 208.864646 116.131488 
L 209.174548 116.337402 
L 209.484451 108.801421 
L 209.782079 98.029306 
L 210.094253 109.144894 
L 210.387403 125.767606 
L 210.701469 117.009882 
L 211.302066 92.85518 
L 211.609148 105.184188 
L 211.902248 106.98454 
L 212.222816 100.263209 
L 212.522998 105.029282 
L 212.830147 95.601099 
L 213.137296 108.238842 
L 213.438706 96.581378 
L 213.734344 92.778427 
L 214.35312 113.461063 
L 214.644445 118.800032 
L 215.268728 85.617061 
L 215.557515 92.927677 
L 216.18072 100.409031 
L 216.482262 88.889166 
L 216.783838 87.63758 
L 217.079211 97.727088 
L 217.394271 103.630027 
L 217.696975 94.883904 
L 217.99671 94.811531 
L 218.3022 90.454199 
L 218.608221 101.343965 
L 219.213379 77.366138 
L 219.515967 87.140112 
L 219.829253 107.080223 
L 220.737911 85.950366 
L 221.045242 93.06574 
L 221.354365 91.986193 
L 221.652657 97.940977 
L 221.950948 82.498464 
L 222.265279 83.484986 
L 222.564765 86.337983 
L 222.873008 81.689586 
L 223.181252 71.729918 
L 223.470222 89.669434 
L 223.778466 88.547838 
L 224.086709 84.614623 
L 224.394953 85.59472 
L 224.703196 75.271466 
L 225.300426 90.788116 
L 225.60867 80.760075 
L 225.916914 84.652126 
L 226.225157 84.413892 
L 226.514127 86.548799 
L 226.822371 82.389408 
L 227.130614 50.934888 
L 227.436303 68.105712 
L 227.73695 95.774454 
L 228.050966 83.788174 
L 228.344929 67.799097 
L 228.657286 84.130769 
L 228.951248 90.526166 
L 229.258082 61.228771 
L 229.561233 44.234606 
L 229.874154 86.81532 
L 230.177621 83.310936 
L 230.481104 62.688466 
L 230.77573 73.710085 
L 231.085384 98.221956 
L 231.694606 59.707286 
L 231.996049 29.421182 
L 232.614211 88.91491 
L 232.904658 73.393715 
L 233.210015 63.493792 
L 233.834497 75.528746 
L 234.126469 61.027154 
L 234.433684 78.901228 
L 234.730052 66.136625 
L 235.037947 73.101424 
L 235.352775 77.196857 
L 235.647916 58.963435 
L 235.962744 66.562764 
L 236.257901 69.585314 
L 236.572713 66.805287 
L 236.867869 56.242184 
L 237.477838 85.2364 
L 237.77321 63.946346 
L 238.077357 57.107793 
L 238.381504 64.912879 
L 238.685651 58.102431 
L 238.997908 77.641461 
L 239.301375 85.849201 
L 239.612388 71.050127 
L 239.908275 72.37185 
L 240.222655 53.626147 
L 240.518542 45.927915 
L 240.832922 61.960929 
L 241.733271 82.434968 
L 242.040221 56.856558 
L 242.34392 76.228974 
L 242.655182 65.443287 
L 242.954203 32.466421 
L 243.252777 36.121812 
L 243.56117 77.426735 
L 243.866179 67.211767 
L 244.181372 81.278584 
L 244.479598 76.228518 
L 244.77784 61.438056 
L 245.090993 33.068573 
L 245.39854 35.209103 
L 246.005622 86.037014 
L 246.608575 41.868247 
L 246.905456 53.819119 
L 247.218825 77.381738 
L 247.515707 83.42294 
L 247.82415 54.235536 
L 248.132576 44.120499 
L 248.42614 53.884884 
L 248.731663 57.33667 
L 249.041997 59.540513 
L 249.342694 37.638113 
L 249.64339 53.791793 
L 249.961188 90.63552 
L 250.264837 77.804093 
L 250.568038 55.566169 
L 250.869514 21.823046 
L 251.175452 39.197623 
L 251.478786 70.922903 
L 251.78212 60.723834 
L 252.085454 28.864921 
L 252.388805 73.085741 
L 252.692139 68.051524 
L 253.306785 44.426999 
L 253.605342 52.369328 
L 253.919225 82.390434 
L 254.221879 63.699334 
L 254.516637 17.083636 
L 254.830835 23.262172 
L 255.123156 95.01011 
L 255.426672 78.378571 
L 255.744569 43.69335 
L 256.043309 60.467068 
L 256.342048 53.435278 
L 256.644287 41.742248 
L 256.957706 56.467534 
L 257.256263 52.598287 
L 257.55827 54.438197 
L 257.864789 40.2229 
L 258.470461 24.797552 
L 258.774343 51.445274 
L 259.087794 64.392225 
L 259.397779 56.541496 
L 259.689536 41.807417 
L 259.99914 54.60997 
L 260.304414 54.321837 
L 260.603253 46.840839 
L 260.921366 71.792503 
L 261.211215 63.267714 
L 261.522261 34.813569 
L 261.817534 62.393228 
L 262.129493 61.406192 
L 262.440855 27.901087 
L 262.733889 72.633071 
L 263.045251 53.766405 
L 263.34744 51.921477 
L 263.656098 72.586269 
L 263.949331 30.749976 
L 264.264226 25.701318 
L 264.868373 94.240001 
L 265.174311 92.623943 
L 265.471756 30.220065 
L 265.789587 37.69048 
L 266.387962 87.376292 
L 266.997333 33.330639 
L 267.30284 42.89869 
L 267.912079 102.02889 
L 268.529047 44.558992 
L 268.822197 51.385918 
L 269.434371 89.096066 
L 270.050609 48.125829 
L 270.342548 63.209269 
L 270.647508 71.469277 
L 270.949449 60.298789 
L 271.257427 43.625548 
L 271.564327 46.460443 
L 272.166583 89.936005 
L 272.480731 72.452172 
L 273.084977 63.257876 
L 273.389605 76.715677 
L 273.694249 65.426295 
L 273.996074 47.321646 
L 274.299458 75.123773 
L 274.612959 90.76623 
L 274.909592 88.927042 
L 275.521418 57.361313 
L 275.82306 60.946219 
L 276.128965 83.843911 
L 276.43361 69.928978 
L 276.74459 67.538836 
L 277.043479 91.539692 
L 277.347542 84.038498 
L 277.651606 80.40722 
L 277.955687 67.402669 
L 278.25975 75.14984 
L 278.867894 64.826015 
L 279.171958 79.15421 
L 279.476038 102.553361 
L 279.780102 83.961256 
L 280.084166 84.010666 
L 280.397734 82.524192 
L 280.700023 74.182479 
L 280.998397 75.996354 
L 281.296772 95.685851 
L 281.908449 74.646096 
L 282.224107 77.083437 
L 282.53172 84.258133 
L 282.834473 78.080807 
L 283.137957 82.94017 
L 283.427855 76.112622 
L 283.731554 86.178116 
L 284.054245 87.26712 
L 284.357944 82.730462 
L 284.965341 111.206575 
L 285.26904 85.413242 
L 285.578428 89.314013 
L 285.870749 77.693273 
L 286.18153 73.579102 
L 286.477184 87.05531 
L 286.793174 108.289893 
L 287.098067 94.042483 
L 287.40082 85.187296 
L 287.691598 86.029156 
L 288.000538 96.963025 
L 288.31676 94.637447 
L 288.616627 91.374634 
L 288.916495 92.180258 
L 289.216346 85.255189 
L 289.516213 89.79241 
L 289.836067 97.061291 
L 290.123942 80.017252 
L 290.436001 75.570547 
L 290.749353 96.061387 
L 291.036897 104.594233 
L 291.341027 90.240915 
L 291.645173 95.028352 
L 291.949303 109.058502 
L 292.570335 82.269148 
L 292.872591 90.085735 
L 293.17624 108.93233 
L 293.479906 103.194962 
L 293.78178 82.944277 
L 294.096144 80.723789 
L 294.70525 108.502763 
L 294.999976 87.589941 
L 295.308452 77.524662 
L 295.913627 121.480286 
L 296.533365 80.72533 
L 296.822318 93.03949 
L 297.130529 95.683549 
L 297.438739 92.568877 
L 297.746966 109.379526 
L 298.055176 94.195394 
L 298.34413 91.920453 
L 298.65234 103.395246 
L 298.966339 97.318173 
L 299.262989 97.997509 
L 299.559638 86.148116 
L 300.175263 108.333581 
L 300.484435 111.615929 
L 300.789727 97.351942 
L 301.088234 101.294381 
L 301.394736 95.780433 
L 301.705301 96.128593 
L 301.996477 106.603258 
L 302.307043 112.113065 
L 302.617625 104.294143 
L 302.908785 100.323053 
L 303.217426 80.923196 
L 303.828772 107.674508 
L 304.432736 118.191761 
L 304.732902 101.151291 
L 305.04307 74.290343 
L 305.358893 105.367289 
L 305.650534 100.443619 
L 305.964931 106.491933 
L 306.254647 97.5483 
L 306.562459 98.262738 
L 306.87752 98.351465 
L 307.176293 102.676345 
L 307.475049 110.991411 
L 307.793725 112.960266 
L 308.092498 98.298527 
L 308.391254 95.331059 
L 308.704109 107.178059 
L 309.008288 97.27778 
L 309.314193 108.267361 
L 309.603976 106.660742 
L 309.925356 100.845222 
L 310.515454 126.276004 
L 310.824544 119.684571 
L 311.43564 84.296771 
L 311.747201 93.022548 
L 312.04113 97.721556 
L 312.354665 109.417666 
L 312.648594 109.662053 
L 312.956788 112.999955 
L 313.263439 118.832931 
L 313.863738 104.782568 
L 314.174503 96.324413 
L 314.795999 120.193822 
L 315.086047 119.902136 
L 315.70756 107.743511 
L 316.009401 91.030325 
L 316.305205 118.122982 
L 316.619519 125.438814 
L 316.92272 111.510202 
L 317.213548 105.438122 
L 317.526751 130.78368 
L 317.839937 124.257415 
L 318.130765 121.382103 
L 318.447235 106.613642 
L 319.354451 127.1514 
L 319.66218 126.530435 
L 319.969909 120.850353 
L 320.272978 121.294154 
L 320.56767 129.753344 
L 320.882018 125.525447 
L 321.176694 117.635608 
L 321.489084 122.545434 
L 321.791622 136.108953 
L 322.089051 129.625483 
L 322.399185 126.129536 
L 323.007794 138.587507 
L 323.300711 136.591615 
L 323.61194 138.698318 
L 324.219239 118.995596 
L 324.534017 130.740595 
L 324.840486 136.463795 
L 325.141067 147.317449 
L 325.447685 139.255912 
L 325.755082 135.269461 
L 326.060324 135.096694 
L 326.351715 144.844468 
L 326.660257 138.473391 
L 326.951616 136.064569 
L 327.569546 144.949665 
L 328.175235 143.889238 
L 328.493779 141.526423 
L 328.789898 143.533998 
L 329.086365 151.836858 
L 329.399966 153.229369 
L 329.692651 145.346023 
L 329.997893 143.017394 
L 330.319853 150.119449 
L 330.618825 152.318755 
L 330.91778 153.167417 
L 331.216752 151.39155 
L 331.538713 147.481402 
L 331.837668 151.538863 
L 332.131033 157.395161 
L 332.437917 158.275062 
L 332.748831 155.142711 
L 333.041997 154.341459 
L 333.359579 154.982472 
L 333.652745 156.627608 
L 333.970327 159.726113 
L 334.26837 163.727493 
L 334.563974 161.380391 
L 334.886449 160.322894 
L 335.182054 161.148023 
L 335.47605 160.472203 
L 335.781142 161.545312 
L 336.098276 163.742742 
L 336.388954 167.074136 
L 336.706088 167.831057 
L 336.995605 164.517653 
L 337.30569 164.988966 
L 337.615775 169.030715 
L 337.925859 170.203279 
L 338.212673 168.793558 
L 338.525345 170.440234 
L 338.838017 168.769212 
L 339.45472 173.280465 
L 339.740854 173.520438 
L 340.346709 177.073323 
L 340.971672 172.83659 
L 341.27416 175.834903 
L 341.576631 177.186089 
L 341.879119 177.336221 
L 342.181607 178.331032 
L 342.484079 178.722599 
L 342.786567 178.15369 
L 343.089055 177.873498 
L 343.391526 178.270252 
L 343.694014 180.067142 
L 343.996502 180.635225 
L 344.329228 180.815964 
L 344.631716 181.270296 
L 344.934187 181.20614 
L 345.236675 182.064205 
L 346.444305 183.832404 
L 346.736078 184.085003 
L 347.048269 184.828412 
L 347.369218 185.212818 
L 347.658056 185.277987 
L 347.979004 185.789666 
L 348.267875 186.634956 
L 348.588791 187.092354 
L 348.877661 187.256949 
L 349.19861 187.641247 
L 349.808396 188.728406 
L 350.418182 189.494521 
L 350.99589 190.675525 
L 351.612012 190.683909 
L 352.230423 192.50924 
L 352.539629 192.711443 
L 353.45799 193.870278 
L 353.764111 194.140786 
L 354.64847 195.75979 
L 354.95459 196.086021 
L 355.872952 197.37364 
L 358.021468 200.653878 
L 360.744208 204.583565 
L 361.069204 204.939314 
L 362.29707 206.768793 
L 363.782524 208.933273 
L 366.242767 212.446721 
L 367.474148 214.25144 
L 367.786738 214.603866 
L 368.349385 214.745724 
L 372.909943 214.756364 
L 372.909943 214.756364 
" style="fill:none;stroke:#1f77b4;stroke-linecap:square;"/>
   </g>
   <g id="line2d_30">
    <path clip-path="url(#p9270faf6e3)" d="M 68.546307 214.756364 
L 95.721631 190.558253 
L 122.896956 117.96392 
L 150.072281 103.445053 
L 177.247606 156.680897 
L 204.42293 117.96392 
L 231.598255 69.567698 
L 258.77358 50.209209 
L 285.948904 88.926187 
L 313.124229 108.284675 
L 340.299554 176.039386 
L 367.474878 214.756364 
" style="fill:none;stroke:#ff7f0e;stroke-linecap:square;"/>
   </g>
   <g id="patch_3">
    <path d="M 53.328125 224.64 
L 53.328125 7.2 
" style="fill:none;stroke:#000000;stroke-linecap:square;stroke-linejoin:miter;stroke-width:0.8;"/>
   </g>
   <g id="patch_4">
    <path d="M 388.128125 224.64 
L 388.128125 7.2 
" style="fill:none;stroke:#000000;stroke-linecap:square;stroke-linejoin:miter;stroke-width:0.8;"/>
   </g>
   <g id="patch_5">
    <path d="M 53.328125 224.64 
L 388.128125 224.64 
" style="fill:none;stroke:#000000;stroke-linecap:square;stroke-linejoin:miter;stroke-width:0.8;"/>
   </g>
   <g id="patch_6">
    <path d="M 53.328125 7.2 
L 388.128125 7.2 
" style="fill:none;stroke:#000000;stroke-linecap:square;stroke-linejoin:miter;stroke-width:0.8;"/>
   </g>
   <g id="legend_1">
    <g id="patch_7">
     <path d="M 296.29375 44.55625 
L 381.128125 44.55625 
Q 383.128125 44.55625 383.128125 42.55625 
L 383.128125 14.2 
Q 383.128125 12.2 381.128125 12.2 
L 296.29375 12.2 
Q 294.29375 12.2 294.29375 14.2 
L 294.29375 42.55625 
Q 294.29375 44.55625 296.29375 44.55625 
z
" style="fill:#ffffff;opacity:0.8;stroke:#cccccc;stroke-linejoin:miter;"/>
    </g>
    <g id="line2d_31">
     <path d="M 298.29375 20.298437 
L 318.29375 20.298437 
" style="fill:none;stroke:#1f77b4;stroke-linecap:square;"/>
    </g>
    <g id="line2d_32"/>
    <g id="text_17">
     <!-- simulation -->
     <g transform="translate(326.29375 23.798437)scale(0.1 -0.1)">
      <defs>
       <path d="M 544 1381 
L 544 3500 
L 1119 3500 
L 1119 1403 
Q 1119 906 1312 657 
Q 1506 409 1894 409 
Q 2359 409 2629 706 
Q 2900 1003 2900 1516 
L 2900 3500 
L 3475 3500 
L 3475 0 
L 2900 0 
L 2900 538 
Q 2691 219 2414 64 
Q 2138 -91 1772 -91 
Q 1169 -91 856 284 
Q 544 659 544 1381 
z
M 1991 3584 
L 1991 3584 
z
" id="DejaVuSans-75" transform="scale(0.015625)"/>
       <path d="M 603 4863 
L 1178 4863 
L 1178 0 
L 603 0 
L 603 4863 
z
" id="DejaVuSans-6c" transform="scale(0.015625)"/>
       <path d="M 2194 1759 
Q 1497 1759 1228 1600 
Q 959 1441 959 1056 
Q 959 750 1161 570 
Q 1363 391 1709 391 
Q 2188 391 2477 730 
Q 2766 1069 2766 1631 
L 2766 1759 
L 2194 1759 
z
M 3341 1997 
L 3341 0 
L 2766 0 
L 2766 531 
Q 2569 213 2275 61 
Q 1981 -91 1556 -91 
Q 1019 -91 701 211 
Q 384 513 384 1019 
Q 384 1609 779 1909 
Q 1175 2209 1959 2209 
L 2766 2209 
L 2766 2266 
Q 2766 2663 2505 2880 
Q 2244 3097 1772 3097 
Q 1472 3097 1187 3025 
Q 903 2953 641 2809 
L 641 3341 
Q 956 3463 1253 3523 
Q 1550 3584 1831 3584 
Q 2591 3584 2966 3190 
Q 3341 2797 3341 1997 
z
" id="DejaVuSans-61" transform="scale(0.015625)"/>
       <path d="M 1172 4494 
L 1172 3500 
L 2356 3500 
L 2356 3053 
L 1172 3053 
L 1172 1153 
Q 1172 725 1289 603 
Q 1406 481 1766 481 
L 2356 481 
L 2356 0 
L 1766 0 
Q 1100 0 847 248 
Q 594 497 594 1153 
L 594 3053 
L 172 3053 
L 172 3500 
L 594 3500 
L 594 4494 
L 1172 4494 
z
" id="DejaVuSans-74" transform="scale(0.015625)"/>
       <path d="M 1959 3097 
Q 1497 3097 1228 2736 
Q 959 2375 959 1747 
Q 959 1119 1226 758 
Q 1494 397 1959 397 
Q 2419 397 2687 759 
Q 2956 1122 2956 1747 
Q 2956 2369 2687 2733 
Q 2419 3097 1959 3097 
z
M 1959 3584 
Q 2709 3584 3137 3096 
Q 3566 2609 3566 1747 
Q 3566 888 3137 398 
Q 2709 -91 1959 -91 
Q 1206 -91 779 398 
Q 353 888 353 1747 
Q 353 2609 779 3096 
Q 1206 3584 1959 3584 
z
" id="DejaVuSans-6f" transform="scale(0.015625)"/>
       <path d="M 3513 2113 
L 3513 0 
L 2938 0 
L 2938 2094 
Q 2938 2591 2744 2837 
Q 2550 3084 2163 3084 
Q 1697 3084 1428 2787 
Q 1159 2491 1159 1978 
L 1159 0 
L 581 0 
L 581 3500 
L 1159 3500 
L 1159 2956 
Q 1366 3272 1645 3428 
Q 1925 3584 2291 3584 
Q 2894 3584 3203 3211 
Q 3513 2838 3513 2113 
z
" id="DejaVuSans-6e" transform="scale(0.015625)"/>
      </defs>
      <use xlink:href="#DejaVuSans-73"/>
      <use x="52.099609" xlink:href="#DejaVuSans-69"/>
      <use x="79.882812" xlink:href="#DejaVuSans-6d"/>
      <use x="177.294922" xlink:href="#DejaVuSans-75"/>
      <use x="240.673828" xlink:href="#DejaVuSans-6c"/>
      <use x="268.457031" xlink:href="#DejaVuSans-61"/>
      <use x="329.736328" xlink:href="#DejaVuSans-74"/>
      <use x="368.945312" xlink:href="#DejaVuSans-69"/>
      <use x="396.728516" xlink:href="#DejaVuSans-6f"/>
      <use x="457.910156" xlink:href="#DejaVuSans-6e"/>
     </g>
    </g>
    <g id="line2d_33">
     <path d="M 298.29375 34.976562 
L 318.29375 34.976562 
" style="fill:none;stroke:#ff7f0e;stroke-linecap:square;"/>
    </g>
    <g id="line2d_34"/>
    <g id="text_18">
     <!-- prescribed -->
     <g transform="translate(326.29375 38.476562)scale(0.1 -0.1)">
      <defs>
       <path d="M 1159 525 
L 1159 -1331 
L 581 -1331 
L 581 3500 
L 1159 3500 
L 1159 2969 
Q 1341 3281 1617 3432 
Q 1894 3584 2278 3584 
Q 2916 3584 3314 3078 
Q 3713 2572 3713 1747 
Q 3713 922 3314 415 
Q 2916 -91 2278 -91 
Q 1894 -91 1617 61 
Q 1341 213 1159 525 
z
M 3116 1747 
Q 3116 2381 2855 2742 
Q 2594 3103 2138 3103 
Q 1681 3103 1420 2742 
Q 1159 2381 1159 1747 
Q 1159 1113 1420 752 
Q 1681 391 2138 391 
Q 2594 391 2855 752 
Q 3116 1113 3116 1747 
z
" id="DejaVuSans-70" transform="scale(0.015625)"/>
       <path d="M 2631 2963 
Q 2534 3019 2420 3045 
Q 2306 3072 2169 3072 
Q 1681 3072 1420 2755 
Q 1159 2438 1159 1844 
L 1159 0 
L 581 0 
L 581 3500 
L 1159 3500 
L 1159 2956 
Q 1341 3275 1631 3429 
Q 1922 3584 2338 3584 
Q 2397 3584 2469 3576 
Q 2541 3569 2628 3553 
L 2631 2963 
z
" id="DejaVuSans-72" transform="scale(0.015625)"/>
       <path d="M 3122 3366 
L 3122 2828 
Q 2878 2963 2633 3030 
Q 2388 3097 2138 3097 
Q 1578 3097 1268 2742 
Q 959 2388 959 1747 
Q 959 1106 1268 751 
Q 1578 397 2138 397 
Q 2388 397 2633 464 
Q 2878 531 3122 666 
L 3122 134 
Q 2881 22 2623 -34 
Q 2366 -91 2075 -91 
Q 1284 -91 818 406 
Q 353 903 353 1747 
Q 353 2603 823 3093 
Q 1294 3584 2113 3584 
Q 2378 3584 2631 3529 
Q 2884 3475 3122 3366 
z
" id="DejaVuSans-63" transform="scale(0.015625)"/>
       <path d="M 3116 1747 
Q 3116 2381 2855 2742 
Q 2594 3103 2138 3103 
Q 1681 3103 1420 2742 
Q 1159 2381 1159 1747 
Q 1159 1113 1420 752 
Q 1681 391 2138 391 
Q 2594 391 2855 752 
Q 3116 1113 3116 1747 
z
M 1159 2969 
Q 1341 3281 1617 3432 
Q 1894 3584 2278 3584 
Q 2916 3584 3314 3078 
Q 3713 2572 3713 1747 
Q 3713 922 3314 415 
Q 2916 -91 2278 -91 
Q 1894 -91 1617 61 
Q 1341 213 1159 525 
L 1159 0 
L 581 0 
L 581 4863 
L 1159 4863 
L 1159 2969 
z
" id="DejaVuSans-62" transform="scale(0.015625)"/>
       <path d="M 2906 2969 
L 2906 4863 
L 3481 4863 
L 3481 0 
L 2906 0 
L 2906 525 
Q 2725 213 2448 61 
Q 2172 -91 1784 -91 
Q 1150 -91 751 415 
Q 353 922 353 1747 
Q 353 2572 751 3078 
Q 1150 3584 1784 3584 
Q 2172 3584 2448 3432 
Q 2725 3281 2906 2969 
z
M 947 1747 
Q 947 1113 1208 752 
Q 1469 391 1925 391 
Q 2381 391 2643 752 
Q 2906 1113 2906 1747 
Q 2906 2381 2643 2742 
Q 2381 3103 1925 3103 
Q 1469 3103 1208 2742 
Q 947 2381 947 1747 
z
" id="DejaVuSans-64" transform="scale(0.015625)"/>
      </defs>
      <use xlink:href="#DejaVuSans-70"/>
      <use x="63.476562" xlink:href="#DejaVuSans-72"/>
      <use x="102.339844" xlink:href="#DejaVuSans-65"/>
      <use x="163.863281" xlink:href="#DejaVuSans-73"/>
      <use x="215.962891" xlink:href="#DejaVuSans-63"/>
      <use x="270.943359" xlink:href="#DejaVuSans-72"/>
      <use x="312.056641" xlink:href="#DejaVuSans-69"/>
      <use x="339.839844" xlink:href="#DejaVuSans-62"/>
      <use x="403.316406" xlink:href="#DejaVuSans-65"/>
      <use x="464.839844" xlink:href="#DejaVuSans-64"/>
     </g>
    </g>
   </g>
  </g>
 </g>
 <defs>
  <clipPath id="p9270faf6e3">
   <rect height="217.44" width="334.8" x="53.328125" y="7.2"/>
  </clipPath>
 </defs>
</svg>
