<?xml version="1.0" encoding="utf-8" standalone="no"?>
<!DOCTYPE svg PUBLIC "-//W3C//DTD SVG 1.1//EN"
  "http://www.w3.org/Graphics/SVG/1.1/DTD/svg11.dtd">
<svg xmlns:xlink="http://www.w3.org/1999/xlink" width="417.63pt" height="316.271687pt" viewBox="0 0 417.63 316.271687" xmlns="http://www.w3.org/2000/svg" version="1.1">
 <metadata>
  <rdf:RDF xmlns:dc="http://purl.org/dc/elements/1.1/" xmlns:cc="http://creativecommons.org/ns#" xmlns:rdf="http://www.w3.org/1999/02/22-rdf-syntax-ns#">
   <cc:Work>
    <dc:type rdf:resource="http://purl.org/dc/dcmitype/StillImage"/>
    <dc:date>2023-05-26T11:49:49.794370</dc:date>
    <dc:format>image/svg+xml</dc:format>
    <dc:creator>
     <cc:Agent>
      <dc:title>Matplotlib v3.7.1, https://matplotlib.org/</dc:title>
     </cc:Agent>
    </dc:creator>
   </cc:Work>
  </rdf:RDF>
 </metadata>
 <defs>
  <style type="text/css">*{stroke-linejoin: round; stroke-linecap: butt}</style>
 </defs>
 <g id="figure_1">
  <g id="patch_1">
   <path d="M 0 316.271687 
L 417.63 316.271687 
L 417.63 0 
L 0 0 
z
" style="fill: #ffffff"/>
  </g>
  <g id="axes_1">
   <g id="patch_2">
    <path d="M 53.31 273.312 
L 410.43 273.312 
L 410.43 7.2 
L 53.31 7.2 
z
" style="fill: #ffffff"/>
   </g>
   <g id="matplotlib.axis_1">
    <g id="xtick_1">
     <g id="line2d_1">
      <path d="M 69.542727 273.312 
L 69.542727 7.2 
" clip-path="url(#pe3960bbd21)" style="fill: none; stroke-dasharray: 3.7,1.6; stroke-dashoffset: 0; stroke: #cccccc; stroke-opacity: 0.5"/>
     </g>
     <g id="line2d_2">
      <defs>
       <path id="m800317ec4b" d="M 0 0 
L 0 6 
" style="stroke: #262626; stroke-width: 1.25"/>
      </defs>
      <g>
       <use xlink:href="#m800317ec4b" x="69.542727" y="273.312" style="fill: #262626; stroke: #262626; stroke-width: 1.25"/>
      </g>
     </g>
     <g id="text_1">
      <!-- 0 -->
      <g style="fill: #262626" transform="translate(66.043352 291.170281) scale(0.11 -0.11)">
       <defs>
        <path id="DejaVuSans-30" d="M 2034 4250 
Q 1547 4250 1301 3770 
Q 1056 3291 1056 2328 
Q 1056 1369 1301 889 
Q 1547 409 2034 409 
Q 2525 409 2770 889 
Q 3016 1369 3016 2328 
Q 3016 3291 2770 3770 
Q 2525 4250 2034 4250 
z
M 2034 4750 
Q 2819 4750 3233 4129 
Q 3647 3509 3647 2328 
Q 3647 1150 3233 529 
Q 2819 -91 2034 -91 
Q 1250 -91 836 529 
Q 422 1150 422 2328 
Q 422 3509 836 4129 
Q 1250 4750 2034 4750 
z
" transform="scale(0.015625)"/>
       </defs>
       <use xlink:href="#DejaVuSans-30"/>
      </g>
     </g>
    </g>
    <g id="xtick_2">
     <g id="line2d_3">
      <path d="M 123.651818 273.312 
L 123.651818 7.2 
" clip-path="url(#pe3960bbd21)" style="fill: none; stroke-dasharray: 3.7,1.6; stroke-dashoffset: 0; stroke: #cccccc; stroke-opacity: 0.5"/>
     </g>
     <g id="line2d_4">
      <g>
       <use xlink:href="#m800317ec4b" x="123.651818" y="273.312" style="fill: #262626; stroke: #262626; stroke-width: 1.25"/>
      </g>
     </g>
     <g id="text_2">
      <!-- 5 -->
      <g style="fill: #262626" transform="translate(120.152443 291.170281) scale(0.11 -0.11)">
       <defs>
        <path id="DejaVuSans-35" d="M 691 4666 
L 3169 4666 
L 3169 4134 
L 1269 4134 
L 1269 2991 
Q 1406 3038 1543 3061 
Q 1681 3084 1819 3084 
Q 2600 3084 3056 2656 
Q 3513 2228 3513 1497 
Q 3513 744 3044 326 
Q 2575 -91 1722 -91 
Q 1428 -91 1123 -41 
Q 819 9 494 109 
L 494 744 
Q 775 591 1075 516 
Q 1375 441 1709 441 
Q 2250 441 2565 725 
Q 2881 1009 2881 1497 
Q 2881 1984 2565 2268 
Q 2250 2553 1709 2553 
Q 1456 2553 1204 2497 
Q 953 2441 691 2322 
L 691 4666 
z
" transform="scale(0.015625)"/>
       </defs>
       <use xlink:href="#DejaVuSans-35"/>
      </g>
     </g>
    </g>
    <g id="xtick_3">
     <g id="line2d_5">
      <path d="M 177.760909 273.312 
L 177.760909 7.2 
" clip-path="url(#pe3960bbd21)" style="fill: none; stroke-dasharray: 3.7,1.6; stroke-dashoffset: 0; stroke: #cccccc; stroke-opacity: 0.5"/>
     </g>
     <g id="line2d_6">
      <g>
       <use xlink:href="#m800317ec4b" x="177.760909" y="273.312" style="fill: #262626; stroke: #262626; stroke-width: 1.25"/>
      </g>
     </g>
     <g id="text_3">
      <!-- 10 -->
      <g style="fill: #262626" transform="translate(170.762159 291.170281) scale(0.11 -0.11)">
       <defs>
        <path id="DejaVuSans-31" d="M 794 531 
L 1825 531 
L 1825 4091 
L 703 3866 
L 703 4441 
L 1819 4666 
L 2450 4666 
L 2450 531 
L 3481 531 
L 3481 0 
L 794 0 
L 794 531 
z
" transform="scale(0.015625)"/>
       </defs>
       <use xlink:href="#DejaVuSans-31"/>
       <use xlink:href="#DejaVuSans-30" x="63.623047"/>
      </g>
     </g>
    </g>
    <g id="xtick_4">
     <g id="line2d_7">
      <path d="M 231.87 273.312 
L 231.87 7.2 
" clip-path="url(#pe3960bbd21)" style="fill: none; stroke-dasharray: 3.7,1.6; stroke-dashoffset: 0; stroke: #cccccc; stroke-opacity: 0.5"/>
     </g>
     <g id="line2d_8">
      <g>
       <use xlink:href="#m800317ec4b" x="231.87" y="273.312" style="fill: #262626; stroke: #262626; stroke-width: 1.25"/>
      </g>
     </g>
     <g id="text_4">
      <!-- 15 -->
      <g style="fill: #262626" transform="translate(224.87125 291.170281) scale(0.11 -0.11)">
       <use xlink:href="#DejaVuSans-31"/>
       <use xlink:href="#DejaVuSans-35" x="63.623047"/>
      </g>
     </g>
    </g>
    <g id="xtick_5">
     <g id="line2d_9">
      <path d="M 285.979091 273.312 
L 285.979091 7.2 
" clip-path="url(#pe3960bbd21)" style="fill: none; stroke-dasharray: 3.7,1.6; stroke-dashoffset: 0; stroke: #cccccc; stroke-opacity: 0.5"/>
     </g>
     <g id="line2d_10">
      <g>
       <use xlink:href="#m800317ec4b" x="285.979091" y="273.312" style="fill: #262626; stroke: #262626; stroke-width: 1.25"/>
      </g>
     </g>
     <g id="text_5">
      <!-- 20 -->
      <g style="fill: #262626" transform="translate(278.980341 291.170281) scale(0.11 -0.11)">
       <defs>
        <path id="DejaVuSans-32" d="M 1228 531 
L 3431 531 
L 3431 0 
L 469 0 
L 469 531 
Q 828 903 1448 1529 
Q 2069 2156 2228 2338 
Q 2531 2678 2651 2914 
Q 2772 3150 2772 3378 
Q 2772 3750 2511 3984 
Q 2250 4219 1831 4219 
Q 1534 4219 1204 4116 
Q 875 4013 500 3803 
L 500 4441 
Q 881 4594 1212 4672 
Q 1544 4750 1819 4750 
Q 2544 4750 2975 4387 
Q 3406 4025 3406 3419 
Q 3406 3131 3298 2873 
Q 3191 2616 2906 2266 
Q 2828 2175 2409 1742 
Q 1991 1309 1228 531 
z
" transform="scale(0.015625)"/>
       </defs>
       <use xlink:href="#DejaVuSans-32"/>
       <use xlink:href="#DejaVuSans-30" x="63.623047"/>
      </g>
     </g>
    </g>
    <g id="xtick_6">
     <g id="line2d_11">
      <path d="M 340.088182 273.312 
L 340.088182 7.2 
" clip-path="url(#pe3960bbd21)" style="fill: none; stroke-dasharray: 3.7,1.6; stroke-dashoffset: 0; stroke: #cccccc; stroke-opacity: 0.5"/>
     </g>
     <g id="line2d_12">
      <g>
       <use xlink:href="#m800317ec4b" x="340.088182" y="273.312" style="fill: #262626; stroke: #262626; stroke-width: 1.25"/>
      </g>
     </g>
     <g id="text_6">
      <!-- 25 -->
      <g style="fill: #262626" transform="translate(333.089432 291.170281) scale(0.11 -0.11)">
       <use xlink:href="#DejaVuSans-32"/>
       <use xlink:href="#DejaVuSans-35" x="63.623047"/>
      </g>
     </g>
    </g>
    <g id="xtick_7">
     <g id="line2d_13">
      <path d="M 394.197273 273.312 
L 394.197273 7.2 
" clip-path="url(#pe3960bbd21)" style="fill: none; stroke-dasharray: 3.7,1.6; stroke-dashoffset: 0; stroke: #cccccc; stroke-opacity: 0.5"/>
     </g>
     <g id="line2d_14">
      <g>
       <use xlink:href="#m800317ec4b" x="394.197273" y="273.312" style="fill: #262626; stroke: #262626; stroke-width: 1.25"/>
      </g>
     </g>
     <g id="text_7">
      <!-- 30 -->
      <g style="fill: #262626" transform="translate(387.198523 291.170281) scale(0.11 -0.11)">
       <defs>
        <path id="DejaVuSans-33" d="M 2597 2516 
Q 3050 2419 3304 2112 
Q 3559 1806 3559 1356 
Q 3559 666 3084 287 
Q 2609 -91 1734 -91 
Q 1441 -91 1130 -33 
Q 819 25 488 141 
L 488 750 
Q 750 597 1062 519 
Q 1375 441 1716 441 
Q 2309 441 2620 675 
Q 2931 909 2931 1356 
Q 2931 1769 2642 2001 
Q 2353 2234 1838 2234 
L 1294 2234 
L 1294 2753 
L 1863 2753 
Q 2328 2753 2575 2939 
Q 2822 3125 2822 3475 
Q 2822 3834 2567 4026 
Q 2313 4219 1838 4219 
Q 1578 4219 1281 4162 
Q 984 4106 628 3988 
L 628 4550 
Q 988 4650 1302 4700 
Q 1616 4750 1894 4750 
Q 2613 4750 3031 4423 
Q 3450 4097 3450 3541 
Q 3450 3153 3228 2886 
Q 3006 2619 2597 2516 
z
" transform="scale(0.015625)"/>
       </defs>
       <use xlink:href="#DejaVuSans-33"/>
       <use xlink:href="#DejaVuSans-30" x="63.623047"/>
      </g>
     </g>
    </g>
    <g id="text_8">
     <!-- Time / s -->
     <g style="fill: #262626" transform="translate(208.229062 306.576062) scale(0.12 -0.12)">
      <defs>
       <path id="DejaVuSans-54" d="M -19 4666 
L 3928 4666 
L 3928 4134 
L 2272 4134 
L 2272 0 
L 1638 0 
L 1638 4134 
L -19 4134 
L -19 4666 
z
" transform="scale(0.015625)"/>
       <path id="DejaVuSans-69" d="M 603 3500 
L 1178 3500 
L 1178 0 
L 603 0 
L 603 3500 
z
M 603 4863 
L 1178 4863 
L 1178 4134 
L 603 4134 
L 603 4863 
z
" transform="scale(0.015625)"/>
       <path id="DejaVuSans-6d" d="M 3328 2828 
Q 3544 3216 3844 3400 
Q 4144 3584 4550 3584 
Q 5097 3584 5394 3201 
Q 5691 2819 5691 2113 
L 5691 0 
L 5113 0 
L 5113 2094 
Q 5113 2597 4934 2840 
Q 4756 3084 4391 3084 
Q 3944 3084 3684 2787 
Q 3425 2491 3425 1978 
L 3425 0 
L 2847 0 
L 2847 2094 
Q 2847 2600 2669 2842 
Q 2491 3084 2119 3084 
Q 1678 3084 1418 2786 
Q 1159 2488 1159 1978 
L 1159 0 
L 581 0 
L 581 3500 
L 1159 3500 
L 1159 2956 
Q 1356 3278 1631 3431 
Q 1906 3584 2284 3584 
Q 2666 3584 2933 3390 
Q 3200 3197 3328 2828 
z
" transform="scale(0.015625)"/>
       <path id="DejaVuSans-65" d="M 3597 1894 
L 3597 1613 
L 953 1613 
Q 991 1019 1311 708 
Q 1631 397 2203 397 
Q 2534 397 2845 478 
Q 3156 559 3463 722 
L 3463 178 
Q 3153 47 2828 -22 
Q 2503 -91 2169 -91 
Q 1331 -91 842 396 
Q 353 884 353 1716 
Q 353 2575 817 3079 
Q 1281 3584 2069 3584 
Q 2775 3584 3186 3129 
Q 3597 2675 3597 1894 
z
M 3022 2063 
Q 3016 2534 2758 2815 
Q 2500 3097 2075 3097 
Q 1594 3097 1305 2825 
Q 1016 2553 972 2059 
L 3022 2063 
z
" transform="scale(0.015625)"/>
       <path id="DejaVuSans-20" transform="scale(0.015625)"/>
       <path id="DejaVuSans-2f" d="M 1625 4666 
L 2156 4666 
L 531 -594 
L 0 -594 
L 1625 4666 
z
" transform="scale(0.015625)"/>
       <path id="DejaVuSans-73" d="M 2834 3397 
L 2834 2853 
Q 2591 2978 2328 3040 
Q 2066 3103 1784 3103 
Q 1356 3103 1142 2972 
Q 928 2841 928 2578 
Q 928 2378 1081 2264 
Q 1234 2150 1697 2047 
L 1894 2003 
Q 2506 1872 2764 1633 
Q 3022 1394 3022 966 
Q 3022 478 2636 193 
Q 2250 -91 1575 -91 
Q 1294 -91 989 -36 
Q 684 19 347 128 
L 347 722 
Q 666 556 975 473 
Q 1284 391 1588 391 
Q 1994 391 2212 530 
Q 2431 669 2431 922 
Q 2431 1156 2273 1281 
Q 2116 1406 1581 1522 
L 1381 1569 
Q 847 1681 609 1914 
Q 372 2147 372 2553 
Q 372 3047 722 3315 
Q 1072 3584 1716 3584 
Q 2034 3584 2315 3537 
Q 2597 3491 2834 3397 
z
" transform="scale(0.015625)"/>
      </defs>
      <use xlink:href="#DejaVuSans-54"/>
      <use xlink:href="#DejaVuSans-69" x="57.958984"/>
      <use xlink:href="#DejaVuSans-6d" x="85.742188"/>
      <use xlink:href="#DejaVuSans-65" x="183.154297"/>
      <use xlink:href="#DejaVuSans-20" x="244.677734"/>
      <use xlink:href="#DejaVuSans-2f" x="276.464844"/>
      <use xlink:href="#DejaVuSans-20" x="310.15625"/>
      <use xlink:href="#DejaVuSans-73" x="341.943359"/>
     </g>
    </g>
   </g>
   <g id="matplotlib.axis_2">
    <g id="ytick_1">
     <g id="line2d_15">
      <path d="M 53.31 261.216 
L 410.43 261.216 
" clip-path="url(#pe3960bbd21)" style="fill: none; stroke-dasharray: 3.7,1.6; stroke-dashoffset: 0; stroke: #cccccc; stroke-opacity: 0.5"/>
     </g>
     <g id="line2d_16">
      <defs>
       <path id="m65cc3fd30d" d="M 0 0 
L -6 0 
" style="stroke: #262626; stroke-width: 1.25"/>
      </defs>
      <g>
       <use xlink:href="#m65cc3fd30d" x="53.31" y="261.216" style="fill: #262626; stroke: #262626; stroke-width: 1.25"/>
      </g>
     </g>
     <g id="text_9">
      <!-- 0 -->
      <g style="fill: #262626" transform="translate(36.81125 265.395141) scale(0.11 -0.11)">
       <use xlink:href="#DejaVuSans-30"/>
      </g>
     </g>
    </g>
    <g id="ytick_2">
     <g id="line2d_17">
      <path d="M 53.31 214.962324 
L 410.43 214.962324 
" clip-path="url(#pe3960bbd21)" style="fill: none; stroke-dasharray: 3.7,1.6; stroke-dashoffset: 0; stroke: #cccccc; stroke-opacity: 0.5"/>
     </g>
     <g id="line2d_18">
      <g>
       <use xlink:href="#m65cc3fd30d" x="53.31" y="214.962324" style="fill: #262626; stroke: #262626; stroke-width: 1.25"/>
      </g>
     </g>
     <g id="text_10">
      <!-- 20 -->
      <g style="fill: #262626" transform="translate(29.8125 219.141465) scale(0.11 -0.11)">
       <use xlink:href="#DejaVuSans-32"/>
       <use xlink:href="#DejaVuSans-30" x="63.623047"/>
      </g>
     </g>
    </g>
    <g id="ytick_3">
     <g id="line2d_19">
      <path d="M 53.31 168.708648 
L 410.43 168.708648 
" clip-path="url(#pe3960bbd21)" style="fill: none; stroke-dasharray: 3.7,1.6; stroke-dashoffset: 0; stroke: #cccccc; stroke-opacity: 0.5"/>
     </g>
     <g id="line2d_20">
      <g>
       <use xlink:href="#m65cc3fd30d" x="53.31" y="168.708648" style="fill: #262626; stroke: #262626; stroke-width: 1.25"/>
      </g>
     </g>
     <g id="text_11">
      <!-- 40 -->
      <g style="fill: #262626" transform="translate(29.8125 172.887789) scale(0.11 -0.11)">
       <defs>
        <path id="DejaVuSans-34" d="M 2419 4116 
L 825 1625 
L 2419 1625 
L 2419 4116 
z
M 2253 4666 
L 3047 4666 
L 3047 1625 
L 3713 1625 
L 3713 1100 
L 3047 1100 
L 3047 0 
L 2419 0 
L 2419 1100 
L 313 1100 
L 313 1709 
L 2253 4666 
z
" transform="scale(0.015625)"/>
       </defs>
       <use xlink:href="#DejaVuSans-34"/>
       <use xlink:href="#DejaVuSans-30" x="63.623047"/>
      </g>
     </g>
    </g>
    <g id="ytick_4">
     <g id="line2d_21">
      <path d="M 53.31 122.454972 
L 410.43 122.454972 
" clip-path="url(#pe3960bbd21)" style="fill: none; stroke-dasharray: 3.7,1.6; stroke-dashoffset: 0; stroke: #cccccc; stroke-opacity: 0.5"/>
     </g>
     <g id="line2d_22">
      <g>
       <use xlink:href="#m65cc3fd30d" x="53.31" y="122.454972" style="fill: #262626; stroke: #262626; stroke-width: 1.25"/>
      </g>
     </g>
     <g id="text_12">
      <!-- 60 -->
      <g style="fill: #262626" transform="translate(29.8125 126.634113) scale(0.11 -0.11)">
       <defs>
        <path id="DejaVuSans-36" d="M 2113 2584 
Q 1688 2584 1439 2293 
Q 1191 2003 1191 1497 
Q 1191 994 1439 701 
Q 1688 409 2113 409 
Q 2538 409 2786 701 
Q 3034 994 3034 1497 
Q 3034 2003 2786 2293 
Q 2538 2584 2113 2584 
z
M 3366 4563 
L 3366 3988 
Q 3128 4100 2886 4159 
Q 2644 4219 2406 4219 
Q 1781 4219 1451 3797 
Q 1122 3375 1075 2522 
Q 1259 2794 1537 2939 
Q 1816 3084 2150 3084 
Q 2853 3084 3261 2657 
Q 3669 2231 3669 1497 
Q 3669 778 3244 343 
Q 2819 -91 2113 -91 
Q 1303 -91 875 529 
Q 447 1150 447 2328 
Q 447 3434 972 4092 
Q 1497 4750 2381 4750 
Q 2619 4750 2861 4703 
Q 3103 4656 3366 4563 
z
" transform="scale(0.015625)"/>
       </defs>
       <use xlink:href="#DejaVuSans-36"/>
       <use xlink:href="#DejaVuSans-30" x="63.623047"/>
      </g>
     </g>
    </g>
    <g id="ytick_5">
     <g id="line2d_23">
      <path d="M 53.31 76.201296 
L 410.43 76.201296 
" clip-path="url(#pe3960bbd21)" style="fill: none; stroke-dasharray: 3.7,1.6; stroke-dashoffset: 0; stroke: #cccccc; stroke-opacity: 0.5"/>
     </g>
     <g id="line2d_24">
      <g>
       <use xlink:href="#m65cc3fd30d" x="53.31" y="76.201296" style="fill: #262626; stroke: #262626; stroke-width: 1.25"/>
      </g>
     </g>
     <g id="text_13">
      <!-- 80 -->
      <g style="fill: #262626" transform="translate(29.8125 80.380437) scale(0.11 -0.11)">
       <defs>
        <path id="DejaVuSans-38" d="M 2034 2216 
Q 1584 2216 1326 1975 
Q 1069 1734 1069 1313 
Q 1069 891 1326 650 
Q 1584 409 2034 409 
Q 2484 409 2743 651 
Q 3003 894 3003 1313 
Q 3003 1734 2745 1975 
Q 2488 2216 2034 2216 
z
M 1403 2484 
Q 997 2584 770 2862 
Q 544 3141 544 3541 
Q 544 4100 942 4425 
Q 1341 4750 2034 4750 
Q 2731 4750 3128 4425 
Q 3525 4100 3525 3541 
Q 3525 3141 3298 2862 
Q 3072 2584 2669 2484 
Q 3125 2378 3379 2068 
Q 3634 1759 3634 1313 
Q 3634 634 3220 271 
Q 2806 -91 2034 -91 
Q 1263 -91 848 271 
Q 434 634 434 1313 
Q 434 1759 690 2068 
Q 947 2378 1403 2484 
z
M 1172 3481 
Q 1172 3119 1398 2916 
Q 1625 2713 2034 2713 
Q 2441 2713 2670 2916 
Q 2900 3119 2900 3481 
Q 2900 3844 2670 4047 
Q 2441 4250 2034 4250 
Q 1625 4250 1398 4047 
Q 1172 3844 1172 3481 
z
" transform="scale(0.015625)"/>
       </defs>
       <use xlink:href="#DejaVuSans-38"/>
       <use xlink:href="#DejaVuSans-30" x="63.623047"/>
      </g>
     </g>
    </g>
    <g id="ytick_6">
     <g id="line2d_25">
      <path d="M 53.31 29.94762 
L 410.43 29.94762 
" clip-path="url(#pe3960bbd21)" style="fill: none; stroke-dasharray: 3.7,1.6; stroke-dashoffset: 0; stroke: #cccccc; stroke-opacity: 0.5"/>
     </g>
     <g id="line2d_26">
      <g>
       <use xlink:href="#m65cc3fd30d" x="53.31" y="29.94762" style="fill: #262626; stroke: #262626; stroke-width: 1.25"/>
      </g>
     </g>
     <g id="text_14">
      <!-- 100 -->
      <g style="fill: #262626" transform="translate(22.81375 34.126761) scale(0.11 -0.11)">
       <use xlink:href="#DejaVuSans-31"/>
       <use xlink:href="#DejaVuSans-30" x="63.623047"/>
       <use xlink:href="#DejaVuSans-30" x="127.246094"/>
      </g>
     </g>
    </g>
    <g id="text_15">
     <!-- HRR / kW -->
     <g style="fill: #262626" transform="translate(16.318125 168.348187) rotate(-90) scale(0.12 -0.12)">
      <defs>
       <path id="DejaVuSans-48" d="M 628 4666 
L 1259 4666 
L 1259 2753 
L 3553 2753 
L 3553 4666 
L 4184 4666 
L 4184 0 
L 3553 0 
L 3553 2222 
L 1259 2222 
L 1259 0 
L 628 0 
L 628 4666 
z
" transform="scale(0.015625)"/>
       <path id="DejaVuSans-52" d="M 2841 2188 
Q 3044 2119 3236 1894 
Q 3428 1669 3622 1275 
L 4263 0 
L 3584 0 
L 2988 1197 
Q 2756 1666 2539 1819 
Q 2322 1972 1947 1972 
L 1259 1972 
L 1259 0 
L 628 0 
L 628 4666 
L 2053 4666 
Q 2853 4666 3247 4331 
Q 3641 3997 3641 3322 
Q 3641 2881 3436 2590 
Q 3231 2300 2841 2188 
z
M 1259 4147 
L 1259 2491 
L 2053 2491 
Q 2509 2491 2742 2702 
Q 2975 2913 2975 3322 
Q 2975 3731 2742 3939 
Q 2509 4147 2053 4147 
L 1259 4147 
z
" transform="scale(0.015625)"/>
       <path id="DejaVuSans-6b" d="M 581 4863 
L 1159 4863 
L 1159 1991 
L 2875 3500 
L 3609 3500 
L 1753 1863 
L 3688 0 
L 2938 0 
L 1159 1709 
L 1159 0 
L 581 0 
L 581 4863 
z
" transform="scale(0.015625)"/>
       <path id="DejaVuSans-57" d="M 213 4666 
L 850 4666 
L 1831 722 
L 2809 4666 
L 3519 4666 
L 4500 722 
L 5478 4666 
L 6119 4666 
L 4947 0 
L 4153 0 
L 3169 4050 
L 2175 0 
L 1381 0 
L 213 4666 
z
" transform="scale(0.015625)"/>
      </defs>
      <use xlink:href="#DejaVuSans-48"/>
      <use xlink:href="#DejaVuSans-52" x="75.195312"/>
      <use xlink:href="#DejaVuSans-52" x="144.677734"/>
      <use xlink:href="#DejaVuSans-20" x="214.160156"/>
      <use xlink:href="#DejaVuSans-2f" x="245.947266"/>
      <use xlink:href="#DejaVuSans-20" x="279.638672"/>
      <use xlink:href="#DejaVuSans-6b" x="311.425781"/>
      <use xlink:href="#DejaVuSans-57" x="369.335938"/>
     </g>
    </g>
   </g>
   <g id="line2d_27">
    <path d="M 69.542727 261.216 
L 70.635525 261.216 
L 71.728323 247.572843 
L 73.913919 211.768057 
L 77.192313 155.852538 
L 79.377909 124.014604 
L 80.470707 110.376535 
L 81.563506 98.293243 
L 82.656304 87.710071 
L 83.749102 78.532592 
L 84.8419 70.642407 
L 85.934698 63.909363 
L 87.027496 58.200698 
L 88.120294 53.38739 
L 89.213091 49.348371 
L 90.305889 45.973 
L 91.258517 36.921988 
L 92.675817 20.188973 
L 93.235631 19.296 
L 93.795443 23.506888 
L 94.290302 22.952954 
L 95.280025 27.074388 
L 95.717451 25.669155 
L 96.592303 28.68175 
L 97.467153 30.481503 
L 98.342005 31.500939 
L 98.779432 31.509868 
L 99.216858 31.722774 
L 100.529137 31.845237 
L 100.966563 31.967181 
L 101.841415 31.85175 
L 103.153692 31.193983 
L 104.46597 30.878991 
L 105.340822 30.52096 
L 105.730212 27.914632 
L 106.508991 28.506379 
L 107.677158 29.097131 
L 109.624105 29.739294 
L 110.402882 29.902685 
L 110.752305 27.861001 
L 111.800575 28.732513 
L 112.848845 29.282122 
L 114.246539 29.724886 
L 114.945385 29.850488 
L 115.258143 27.966113 
L 116.19641 28.739081 
L 117.134677 29.248982 
L 118.385706 29.682055 
L 119.949487 29.967526 
L 122.138778 30.098363 
L 124.015317 30.084934 
L 124.293459 28.267779 
L 125.127886 28.809225 
L 126.240456 29.22234 
L 127.90931 29.531684 
L 131.247018 29.848846 
L 134.584721 29.928194 
L 136.80986 29.901112 
L 137.115816 31.346197 
L 138.03369 30.832481 
L 138.951558 30.497338 
L 139.288109 31.994352 
L 140.297763 31.203121 
L 141.307421 30.709744 
L 142.653631 30.332738 
L 144.336393 30.103995 
L 147.365358 29.954459 
L 153.759851 29.897319 
L 173.952979 29.971082 
L 177.3185 30.032345 
L 181.020571 29.91663 
L 181.390785 31.67288 
L 182.501396 30.997253 
L 183.612017 30.621199 
L 185.092853 30.363184 
L 189.905543 30.011522 
L 195.088447 29.71989 
L 198.420312 30.195276 
L 199.530944 30.306142 
L 201.011769 30.347562 
L 202.492595 30.199576 
L 203.973431 29.999982 
L 206.564866 29.753609 
L 208.415917 29.276086 
L 209.526527 29.196946 
L 210.266945 29.33469 
L 211.377578 29.743757 
L 213.228607 30.583005 
L 214.709443 30.848353 
L 215.079646 30.760577 
L 216.560471 29.965914 
L 217.671093 29.67366 
L 218.781714 29.653424 
L 219.151929 29.679557 
L 219.892336 29.361817 
L 221.373161 28.883393 
L 222.11359 28.959781 
L 222.853997 29.345721 
L 223.964619 29.951351 
L 225.07524 30.190644 
L 226.556076 30.19678 
L 227.296483 30.388335 
L 227.628421 28.424047 
L 227.960358 28.765261 
L 231.279746 30.142765 
L 232.939434 29.744821 
L 233.935247 29.797296 
L 234.599122 30.012038 
L 236.590748 29.966748 
L 236.922685 29.915728 
L 237.287813 31.587641 
L 238.748348 30.426843 
L 239.843732 29.728748 
L 240.208871 29.49667 
L 240.939127 29.487119 
L 241.304266 29.62803 
L 241.669394 29.596879 
L 242.034523 29.886774 
L 242.764779 29.894012 
L 243.860185 30.467535 
L 244.590463 30.652716 
L 244.95558 30.624934 
L 245.320719 30.468254 
L 246.050975 30.764349 
L 246.781253 30.623789 
L 248.241766 30.646779 
L 248.567438 28.590907 
L 249.544453 28.969633 
L 250.195808 29.053652 
L 250.84713 29.230203 
L 251.824156 29.370698 
L 252.182401 30.918124 
L 252.898871 30.163983 
L 253.61534 29.745006 
L 254.009416 31.519156 
L 254.797526 31.058085 
L 255.585657 30.908154 
L 256.373778 30.853862 
L 257.161909 30.821477 
L 257.505167 28.099925 
L 258.534971 28.823772 
L 259.221507 29.228144 
L 259.599091 31.12004 
L 260.731886 30.843233 
L 261.864671 30.915793 
L 263.752635 30.443425 
L 264.507824 30.188315 
L 267.528573 29.899979 
L 268.661347 29.564755 
L 268.995384 27.296036 
L 269.997484 28.08251 
L 270.999584 28.663572 
L 273.003796 29.433372 
L 273.337833 29.511749 
L 273.705266 31.342816 
L 274.807576 30.860973 
L 275.909909 29.889664 
L 277.012219 29.489825 
L 278.481952 29.34172 
L 279.584273 29.616883 
L 280.31915 29.901158 
L 281.788915 30.671527 
L 283.258648 30.720052 
L 283.993536 30.387238 
L 284.728413 30.358496 
L 286.198157 30.368543 
L 287.667911 29.865081 
L 288.402778 29.814872 
L 289.872532 30.035713 
L 290.60742 30.169529 
L 292.444586 28.78885 
L 293.179474 28.628396 
L 294.281785 28.762786 
L 295.384117 29.178075 
L 297.221283 30.234585 
L 298.323615 30.814708 
L 299.425925 31.016554 
L 299.793358 31.035588 
L 300.197542 32.92119 
L 301.410084 31.087098 
L 302.218441 30.386713 
L 303.026809 30.097827 
L 303.835167 30.058763 
L 305.047719 30.467234 
L 305.409687 28.355083 
L 305.771666 28.788873 
L 306.133645 28.7586 
L 306.857581 27.928139 
L 307.581529 27.1264 
L 308.305465 26.747768 
L 308.667455 26.712222 
L 309.391391 27.00066 
L 310.477317 27.934128 
L 313.011138 30.363908 
L 313.735074 30.805284 
L 314.097064 30.929119 
L 314.49522 32.980025 
L 315.291576 32.608402 
L 316.884256 32.459186 
L 317.282412 32.457539 
L 317.680601 32.264504 
L 318.476935 31.504436 
L 319.27328 31.016617 
L 320.069615 30.921272 
L 322.458639 30.85468 
L 322.856828 30.349123 
L 324.051319 25.824082 
L 324.449497 25.198802 
L 324.847664 25.045286 
L 325.245831 25.267673 
L 326.042176 26.325171 
L 326.440343 26.949943 
L 327.634856 28.06535 
L 328.829379 29.641513 
L 330.820236 32.421015 
L 331.61657 33.08741 
L 332.412915 32.838482 
L 334.403762 32.50231 
L 335.200107 31.58047 
L 335.996463 31.073703 
L 336.792787 30.801613 
L 337.149192 28.598932 
L 337.861993 29.162557 
L 338.931167 29.671856 
L 339.287562 29.754557 
L 340.356747 27.89509 
L 341.069537 26.511666 
L 341.425943 26.124106 
L 341.782327 25.930743 
L 342.138743 25.877297 
L 342.851511 26.116336 
L 343.564312 26.647004 
L 344.633486 27.767777 
L 348.197468 32.016732 
L 348.553852 32.284437 
L 349.266653 32.233308 
L 350.335827 31.998434 
L 351.405012 32.073083 
L 352.474218 32.223389 
L 353.186986 31.634626 
L 354.612577 31.077806 
L 355.004608 32.800575 
L 355.788681 32.128671 
L 357.356838 31.129277 
L 358.532943 30.577306 
L 358.924974 30.096483 
L 359.277278 27.351887 
L 359.981854 26.710603 
L 360.686452 26.29957 
L 361.391039 26.170129 
L 362.095637 26.343834 
L 362.800213 26.825913 
L 363.857115 27.997658 
L 364.561691 28.912024 
L 364.949231 31.32428 
L 367.274396 31.980236 
L 369.21201 31.966142 
L 369.59954 32.046496 
L 369.947093 30.084425 
L 370.294647 30.475275 
L 370.989754 30.445472 
L 372.727532 29.928425 
L 373.770193 29.996212 
L 374.812853 30.112034 
L 375.855514 30.128597 
L 376.237827 31.967745 
L 377.002453 31.598155 
L 377.384756 31.147057 
L 377.767069 30.240108 
L 378.531695 28.025341 
L 379.2963 26.82515 
L 379.678613 26.520038 
L 380.060926 26.429635 
L 380.44324 26.47538 
L 381.207866 26.910928 
L 381.972492 27.691528 
L 383.1194 29.28499 
L 385.030965 32.157589 
L 385.413279 32.615109 
L 386.560197 32.700905 
L 387.324812 32.667292 
L 388.471752 32.20946 
L 389.618691 31.07658 
L 390.383296 30.698556 
L 393.824082 29.90546 
L 394.197273 29.298288 
L 394.197273 29.298288 
" clip-path="url(#pe3960bbd21)" style="fill: none; stroke: #4c72b0; stroke-width: 1.5; stroke-linecap: round"/>
   </g>
   <g id="line2d_28">
    <path d="M 69.542727 29.94762 
L 394.197273 29.94762 
" clip-path="url(#pe3960bbd21)" style="fill: none; stroke: #dd8452; stroke-width: 1.5; stroke-linecap: round"/>
   </g>
   <g id="patch_3">
    <path d="M 53.31 273.312 
L 53.31 7.2 
" style="fill: none; stroke: #262626; stroke-width: 1.25; stroke-linejoin: miter; stroke-linecap: square"/>
   </g>
   <g id="patch_4">
    <path d="M 410.43 273.312 
L 410.43 7.2 
" style="fill: none; stroke: #262626; stroke-width: 1.25; stroke-linejoin: miter; stroke-linecap: square"/>
   </g>
   <g id="patch_5">
    <path d="M 53.31 273.312 
L 410.43 273.312 
" style="fill: none; stroke: #262626; stroke-width: 1.25; stroke-linejoin: miter; stroke-linecap: square"/>
   </g>
   <g id="patch_6">
    <path d="M 53.31 7.2 
L 410.43 7.2 
" style="fill: none; stroke: #262626; stroke-width: 1.25; stroke-linejoin: miter; stroke-linecap: square"/>
   </g>
   <g id="legend_1">
    <g id="patch_7">
     <path d="M 309.412188 267.812 
L 402.73 267.812 
Q 404.93 267.812 404.93 265.612 
L 404.93 234.420125 
Q 404.93 232.220125 402.73 232.220125 
L 309.412188 232.220125 
Q 307.212188 232.220125 307.212188 234.420125 
L 307.212188 265.612 
Q 307.212188 267.812 309.412188 267.812 
z
" style="fill: #ffffff; opacity: 0.8; stroke: #cccccc; stroke-linejoin: miter"/>
    </g>
    <g id="line2d_29">
     <path d="M 311.612188 241.128406 
L 322.612188 241.128406 
L 333.612188 241.128406 
" style="fill: none; stroke: #4c72b0; stroke-width: 1.5; stroke-linecap: round"/>
    </g>
    <g id="text_16">
     <!-- simulation -->
     <g style="fill: #262626" transform="translate(342.412188 244.978406) scale(0.11 -0.11)">
      <defs>
       <path id="DejaVuSans-75" d="M 544 1381 
L 544 3500 
L 1119 3500 
L 1119 1403 
Q 1119 906 1312 657 
Q 1506 409 1894 409 
Q 2359 409 2629 706 
Q 2900 1003 2900 1516 
L 2900 3500 
L 3475 3500 
L 3475 0 
L 2900 0 
L 2900 538 
Q 2691 219 2414 64 
Q 2138 -91 1772 -91 
Q 1169 -91 856 284 
Q 544 659 544 1381 
z
M 1991 3584 
L 1991 3584 
z
" transform="scale(0.015625)"/>
       <path id="DejaVuSans-6c" d="M 603 4863 
L 1178 4863 
L 1178 0 
L 603 0 
L 603 4863 
z
" transform="scale(0.015625)"/>
       <path id="DejaVuSans-61" d="M 2194 1759 
Q 1497 1759 1228 1600 
Q 959 1441 959 1056 
Q 959 750 1161 570 
Q 1363 391 1709 391 
Q 2188 391 2477 730 
Q 2766 1069 2766 1631 
L 2766 1759 
L 2194 1759 
z
M 3341 1997 
L 3341 0 
L 2766 0 
L 2766 531 
Q 2569 213 2275 61 
Q 1981 -91 1556 -91 
Q 1019 -91 701 211 
Q 384 513 384 1019 
Q 384 1609 779 1909 
Q 1175 2209 1959 2209 
L 2766 2209 
L 2766 2266 
Q 2766 2663 2505 2880 
Q 2244 3097 1772 3097 
Q 1472 3097 1187 3025 
Q 903 2953 641 2809 
L 641 3341 
Q 956 3463 1253 3523 
Q 1550 3584 1831 3584 
Q 2591 3584 2966 3190 
Q 3341 2797 3341 1997 
z
" transform="scale(0.015625)"/>
       <path id="DejaVuSans-74" d="M 1172 4494 
L 1172 3500 
L 2356 3500 
L 2356 3053 
L 1172 3053 
L 1172 1153 
Q 1172 725 1289 603 
Q 1406 481 1766 481 
L 2356 481 
L 2356 0 
L 1766 0 
Q 1100 0 847 248 
Q 594 497 594 1153 
L 594 3053 
L 172 3053 
L 172 3500 
L 594 3500 
L 594 4494 
L 1172 4494 
z
" transform="scale(0.015625)"/>
       <path id="DejaVuSans-6f" d="M 1959 3097 
Q 1497 3097 1228 2736 
Q 959 2375 959 1747 
Q 959 1119 1226 758 
Q 1494 397 1959 397 
Q 2419 397 2687 759 
Q 2956 1122 2956 1747 
Q 2956 2369 2687 2733 
Q 2419 3097 1959 3097 
z
M 1959 3584 
Q 2709 3584 3137 3096 
Q 3566 2609 3566 1747 
Q 3566 888 3137 398 
Q 2709 -91 1959 -91 
Q 1206 -91 779 398 
Q 353 888 353 1747 
Q 353 2609 779 3096 
Q 1206 3584 1959 3584 
z
" transform="scale(0.015625)"/>
       <path id="DejaVuSans-6e" d="M 3513 2113 
L 3513 0 
L 2938 0 
L 2938 2094 
Q 2938 2591 2744 2837 
Q 2550 3084 2163 3084 
Q 1697 3084 1428 2787 
Q 1159 2491 1159 1978 
L 1159 0 
L 581 0 
L 581 3500 
L 1159 3500 
L 1159 2956 
Q 1366 3272 1645 3428 
Q 1925 3584 2291 3584 
Q 2894 3584 3203 3211 
Q 3513 2838 3513 2113 
z
" transform="scale(0.015625)"/>
      </defs>
      <use xlink:href="#DejaVuSans-73"/>
      <use xlink:href="#DejaVuSans-69" x="52.099609"/>
      <use xlink:href="#DejaVuSans-6d" x="79.882812"/>
      <use xlink:href="#DejaVuSans-75" x="177.294922"/>
      <use xlink:href="#DejaVuSans-6c" x="240.673828"/>
      <use xlink:href="#DejaVuSans-61" x="268.457031"/>
      <use xlink:href="#DejaVuSans-74" x="329.736328"/>
      <use xlink:href="#DejaVuSans-69" x="368.945312"/>
      <use xlink:href="#DejaVuSans-6f" x="396.728516"/>
      <use xlink:href="#DejaVuSans-6e" x="457.910156"/>
     </g>
    </g>
    <g id="line2d_30">
     <path d="M 311.612188 257.274344 
L 322.612188 257.274344 
L 333.612188 257.274344 
" style="fill: none; stroke: #dd8452; stroke-width: 1.5; stroke-linecap: round"/>
    </g>
    <g id="text_17">
     <!-- prescribed -->
     <g style="fill: #262626" transform="translate(342.412188 261.124344) scale(0.11 -0.11)">
      <defs>
       <path id="DejaVuSans-70" d="M 1159 525 
L 1159 -1331 
L 581 -1331 
L 581 3500 
L 1159 3500 
L 1159 2969 
Q 1341 3281 1617 3432 
Q 1894 3584 2278 3584 
Q 2916 3584 3314 3078 
Q 3713 2572 3713 1747 
Q 3713 922 3314 415 
Q 2916 -91 2278 -91 
Q 1894 -91 1617 61 
Q 1341 213 1159 525 
z
M 3116 1747 
Q 3116 2381 2855 2742 
Q 2594 3103 2138 3103 
Q 1681 3103 1420 2742 
Q 1159 2381 1159 1747 
Q 1159 1113 1420 752 
Q 1681 391 2138 391 
Q 2594 391 2855 752 
Q 3116 1113 3116 1747 
z
" transform="scale(0.015625)"/>
       <path id="DejaVuSans-72" d="M 2631 2963 
Q 2534 3019 2420 3045 
Q 2306 3072 2169 3072 
Q 1681 3072 1420 2755 
Q 1159 2438 1159 1844 
L 1159 0 
L 581 0 
L 581 3500 
L 1159 3500 
L 1159 2956 
Q 1341 3275 1631 3429 
Q 1922 3584 2338 3584 
Q 2397 3584 2469 3576 
Q 2541 3569 2628 3553 
L 2631 2963 
z
" transform="scale(0.015625)"/>
       <path id="DejaVuSans-63" d="M 3122 3366 
L 3122 2828 
Q 2878 2963 2633 3030 
Q 2388 3097 2138 3097 
Q 1578 3097 1268 2742 
Q 959 2388 959 1747 
Q 959 1106 1268 751 
Q 1578 397 2138 397 
Q 2388 397 2633 464 
Q 2878 531 3122 666 
L 3122 134 
Q 2881 22 2623 -34 
Q 2366 -91 2075 -91 
Q 1284 -91 818 406 
Q 353 903 353 1747 
Q 353 2603 823 3093 
Q 1294 3584 2113 3584 
Q 2378 3584 2631 3529 
Q 2884 3475 3122 3366 
z
" transform="scale(0.015625)"/>
       <path id="DejaVuSans-62" d="M 3116 1747 
Q 3116 2381 2855 2742 
Q 2594 3103 2138 3103 
Q 1681 3103 1420 2742 
Q 1159 2381 1159 1747 
Q 1159 1113 1420 752 
Q 1681 391 2138 391 
Q 2594 391 2855 752 
Q 3116 1113 3116 1747 
z
M 1159 2969 
Q 1341 3281 1617 3432 
Q 1894 3584 2278 3584 
Q 2916 3584 3314 3078 
Q 3713 2572 3713 1747 
Q 3713 922 3314 415 
Q 2916 -91 2278 -91 
Q 1894 -91 1617 61 
Q 1341 213 1159 525 
L 1159 0 
L 581 0 
L 581 4863 
L 1159 4863 
L 1159 2969 
z
" transform="scale(0.015625)"/>
       <path id="DejaVuSans-64" d="M 2906 2969 
L 2906 4863 
L 3481 4863 
L 3481 0 
L 2906 0 
L 2906 525 
Q 2725 213 2448 61 
Q 2172 -91 1784 -91 
Q 1150 -91 751 415 
Q 353 922 353 1747 
Q 353 2572 751 3078 
Q 1150 3584 1784 3584 
Q 2172 3584 2448 3432 
Q 2725 3281 2906 2969 
z
M 947 1747 
Q 947 1113 1208 752 
Q 1469 391 1925 391 
Q 2381 391 2643 752 
Q 2906 1113 2906 1747 
Q 2906 2381 2643 2742 
Q 2381 3103 1925 3103 
Q 1469 3103 1208 2742 
Q 947 2381 947 1747 
z
" transform="scale(0.015625)"/>
      </defs>
      <use xlink:href="#DejaVuSans-70"/>
      <use xlink:href="#DejaVuSans-72" x="63.476562"/>
      <use xlink:href="#DejaVuSans-65" x="102.339844"/>
      <use xlink:href="#DejaVuSans-73" x="163.863281"/>
      <use xlink:href="#DejaVuSans-63" x="215.962891"/>
      <use xlink:href="#DejaVuSans-72" x="270.943359"/>
      <use xlink:href="#DejaVuSans-69" x="312.056641"/>
      <use xlink:href="#DejaVuSans-62" x="339.839844"/>
      <use xlink:href="#DejaVuSans-65" x="403.316406"/>
      <use xlink:href="#DejaVuSans-64" x="464.839844"/>
     </g>
    </g>
   </g>
  </g>
 </g>
 <defs>
  <clipPath id="pe3960bbd21">
   <rect x="53.31" y="7.2" width="357.12" height="266.112"/>
  </clipPath>
 </defs>
</svg>
