<?xml version="1.0" encoding="utf-8" standalone="no"?>
<!DOCTYPE svg PUBLIC "-//W3C//DTD SVG 1.1//EN"
  "http://www.w3.org/Graphics/SVG/1.1/DTD/svg11.dtd">
<svg height="262.19625pt" version="1.1" viewBox="0 0 388.965625 262.19625" width="388.965625pt" xmlns="http://www.w3.org/2000/svg" xmlns:xlink="http://www.w3.org/1999/xlink">
 <metadata>
  <rdf:RDF xmlns:cc="http://creativecommons.org/ns#" xmlns:dc="http://purl.org/dc/elements/1.1/" xmlns:rdf="http://www.w3.org/1999/02/22-rdf-syntax-ns#">
   <cc:Work>
    <dc:type rdf:resource="http://purl.org/dc/dcmitype/StillImage"/>
    <dc:date>2021-06-03T19:51:26.857413</dc:date>
    <dc:format>image/svg+xml</dc:format>
    <dc:creator>
     <cc:Agent>
      <dc:title>Matplotlib v3.4.1, https://matplotlib.org/</dc:title>
     </cc:Agent>
    </dc:creator>
   </cc:Work>
  </rdf:RDF>
 </metadata>
 <defs>
  <style type="text/css">*{stroke-linecap:butt;stroke-linejoin:round;}</style>
 </defs>
 <g id="figure_1">
  <g id="patch_1">
   <path d="M 0 262.19625 
L 388.965625 262.19625 
L 388.965625 0 
L 0 0 
z
" style="fill:none;"/>
  </g>
  <g id="axes_1">
   <g id="patch_2">
    <path d="M 46.965625 224.64 
L 381.765625 224.64 
L 381.765625 7.2 
L 46.965625 7.2 
z
" style="fill:#ffffff;"/>
   </g>
   <g id="matplotlib.axis_1">
    <g id="xtick_1">
     <g id="line2d_1">
      <path clip-path="url(#p39a8958f94)" d="M 62.183807 224.64 
L 62.183807 7.2 
" style="fill:none;stroke:#b0b0b0;stroke-dasharray:2.96,1.28;stroke-dashoffset:0;stroke-opacity:0.5;stroke-width:0.8;"/>
     </g>
     <g id="line2d_2">
      <defs>
       <path d="M 0 0 
L 0 3.5 
" id="m41fc7b61df" style="stroke:#000000;stroke-width:0.8;"/>
      </defs>
      <g>
       <use style="stroke:#000000;stroke-width:0.8;" x="62.183807" xlink:href="#m41fc7b61df" y="224.64"/>
      </g>
     </g>
     <g id="text_1">
      <!-- 0 -->
      <g transform="translate(59.002557 239.238438)scale(0.1 -0.1)">
       <defs>
        <path d="M 2034 4250 
Q 1547 4250 1301 3770 
Q 1056 3291 1056 2328 
Q 1056 1369 1301 889 
Q 1547 409 2034 409 
Q 2525 409 2770 889 
Q 3016 1369 3016 2328 
Q 3016 3291 2770 3770 
Q 2525 4250 2034 4250 
z
M 2034 4750 
Q 2819 4750 3233 4129 
Q 3647 3509 3647 2328 
Q 3647 1150 3233 529 
Q 2819 -91 2034 -91 
Q 1250 -91 836 529 
Q 422 1150 422 2328 
Q 422 3509 836 4129 
Q 1250 4750 2034 4750 
z
" id="DejaVuSans-30" transform="scale(0.015625)"/>
       </defs>
       <use xlink:href="#DejaVuSans-30"/>
      </g>
     </g>
    </g>
    <g id="xtick_2">
     <g id="line2d_3">
      <path clip-path="url(#p39a8958f94)" d="M 100.229261 224.64 
L 100.229261 7.2 
" style="fill:none;stroke:#b0b0b0;stroke-dasharray:2.96,1.28;stroke-dashoffset:0;stroke-opacity:0.5;stroke-width:0.8;"/>
     </g>
     <g id="line2d_4">
      <g>
       <use style="stroke:#000000;stroke-width:0.8;" x="100.229261" xlink:href="#m41fc7b61df" y="224.64"/>
      </g>
     </g>
     <g id="text_2">
      <!-- 10 -->
      <g transform="translate(93.866761 239.238438)scale(0.1 -0.1)">
       <defs>
        <path d="M 794 531 
L 1825 531 
L 1825 4091 
L 703 3866 
L 703 4441 
L 1819 4666 
L 2450 4666 
L 2450 531 
L 3481 531 
L 3481 0 
L 794 0 
L 794 531 
z
" id="DejaVuSans-31" transform="scale(0.015625)"/>
       </defs>
       <use xlink:href="#DejaVuSans-31"/>
       <use x="63.623047" xlink:href="#DejaVuSans-30"/>
      </g>
     </g>
    </g>
    <g id="xtick_3">
     <g id="line2d_5">
      <path clip-path="url(#p39a8958f94)" d="M 138.274716 224.64 
L 138.274716 7.2 
" style="fill:none;stroke:#b0b0b0;stroke-dasharray:2.96,1.28;stroke-dashoffset:0;stroke-opacity:0.5;stroke-width:0.8;"/>
     </g>
     <g id="line2d_6">
      <g>
       <use style="stroke:#000000;stroke-width:0.8;" x="138.274716" xlink:href="#m41fc7b61df" y="224.64"/>
      </g>
     </g>
     <g id="text_3">
      <!-- 20 -->
      <g transform="translate(131.912216 239.238438)scale(0.1 -0.1)">
       <defs>
        <path d="M 1228 531 
L 3431 531 
L 3431 0 
L 469 0 
L 469 531 
Q 828 903 1448 1529 
Q 2069 2156 2228 2338 
Q 2531 2678 2651 2914 
Q 2772 3150 2772 3378 
Q 2772 3750 2511 3984 
Q 2250 4219 1831 4219 
Q 1534 4219 1204 4116 
Q 875 4013 500 3803 
L 500 4441 
Q 881 4594 1212 4672 
Q 1544 4750 1819 4750 
Q 2544 4750 2975 4387 
Q 3406 4025 3406 3419 
Q 3406 3131 3298 2873 
Q 3191 2616 2906 2266 
Q 2828 2175 2409 1742 
Q 1991 1309 1228 531 
z
" id="DejaVuSans-32" transform="scale(0.015625)"/>
       </defs>
       <use xlink:href="#DejaVuSans-32"/>
       <use x="63.623047" xlink:href="#DejaVuSans-30"/>
      </g>
     </g>
    </g>
    <g id="xtick_4">
     <g id="line2d_7">
      <path clip-path="url(#p39a8958f94)" d="M 176.32017 224.64 
L 176.32017 7.2 
" style="fill:none;stroke:#b0b0b0;stroke-dasharray:2.96,1.28;stroke-dashoffset:0;stroke-opacity:0.5;stroke-width:0.8;"/>
     </g>
     <g id="line2d_8">
      <g>
       <use style="stroke:#000000;stroke-width:0.8;" x="176.32017" xlink:href="#m41fc7b61df" y="224.64"/>
      </g>
     </g>
     <g id="text_4">
      <!-- 30 -->
      <g transform="translate(169.95767 239.238438)scale(0.1 -0.1)">
       <defs>
        <path d="M 2597 2516 
Q 3050 2419 3304 2112 
Q 3559 1806 3559 1356 
Q 3559 666 3084 287 
Q 2609 -91 1734 -91 
Q 1441 -91 1130 -33 
Q 819 25 488 141 
L 488 750 
Q 750 597 1062 519 
Q 1375 441 1716 441 
Q 2309 441 2620 675 
Q 2931 909 2931 1356 
Q 2931 1769 2642 2001 
Q 2353 2234 1838 2234 
L 1294 2234 
L 1294 2753 
L 1863 2753 
Q 2328 2753 2575 2939 
Q 2822 3125 2822 3475 
Q 2822 3834 2567 4026 
Q 2313 4219 1838 4219 
Q 1578 4219 1281 4162 
Q 984 4106 628 3988 
L 628 4550 
Q 988 4650 1302 4700 
Q 1616 4750 1894 4750 
Q 2613 4750 3031 4423 
Q 3450 4097 3450 3541 
Q 3450 3153 3228 2886 
Q 3006 2619 2597 2516 
z
" id="DejaVuSans-33" transform="scale(0.015625)"/>
       </defs>
       <use xlink:href="#DejaVuSans-33"/>
       <use x="63.623047" xlink:href="#DejaVuSans-30"/>
      </g>
     </g>
    </g>
    <g id="xtick_5">
     <g id="line2d_9">
      <path clip-path="url(#p39a8958f94)" d="M 214.365625 224.64 
L 214.365625 7.2 
" style="fill:none;stroke:#b0b0b0;stroke-dasharray:2.96,1.28;stroke-dashoffset:0;stroke-opacity:0.5;stroke-width:0.8;"/>
     </g>
     <g id="line2d_10">
      <g>
       <use style="stroke:#000000;stroke-width:0.8;" x="214.365625" xlink:href="#m41fc7b61df" y="224.64"/>
      </g>
     </g>
     <g id="text_5">
      <!-- 40 -->
      <g transform="translate(208.003125 239.238438)scale(0.1 -0.1)">
       <defs>
        <path d="M 2419 4116 
L 825 1625 
L 2419 1625 
L 2419 4116 
z
M 2253 4666 
L 3047 4666 
L 3047 1625 
L 3713 1625 
L 3713 1100 
L 3047 1100 
L 3047 0 
L 2419 0 
L 2419 1100 
L 313 1100 
L 313 1709 
L 2253 4666 
z
" id="DejaVuSans-34" transform="scale(0.015625)"/>
       </defs>
       <use xlink:href="#DejaVuSans-34"/>
       <use x="63.623047" xlink:href="#DejaVuSans-30"/>
      </g>
     </g>
    </g>
    <g id="xtick_6">
     <g id="line2d_11">
      <path clip-path="url(#p39a8958f94)" d="M 252.41108 224.64 
L 252.41108 7.2 
" style="fill:none;stroke:#b0b0b0;stroke-dasharray:2.96,1.28;stroke-dashoffset:0;stroke-opacity:0.5;stroke-width:0.8;"/>
     </g>
     <g id="line2d_12">
      <g>
       <use style="stroke:#000000;stroke-width:0.8;" x="252.41108" xlink:href="#m41fc7b61df" y="224.64"/>
      </g>
     </g>
     <g id="text_6">
      <!-- 50 -->
      <g transform="translate(246.04858 239.238438)scale(0.1 -0.1)">
       <defs>
        <path d="M 691 4666 
L 3169 4666 
L 3169 4134 
L 1269 4134 
L 1269 2991 
Q 1406 3038 1543 3061 
Q 1681 3084 1819 3084 
Q 2600 3084 3056 2656 
Q 3513 2228 3513 1497 
Q 3513 744 3044 326 
Q 2575 -91 1722 -91 
Q 1428 -91 1123 -41 
Q 819 9 494 109 
L 494 744 
Q 775 591 1075 516 
Q 1375 441 1709 441 
Q 2250 441 2565 725 
Q 2881 1009 2881 1497 
Q 2881 1984 2565 2268 
Q 2250 2553 1709 2553 
Q 1456 2553 1204 2497 
Q 953 2441 691 2322 
L 691 4666 
z
" id="DejaVuSans-35" transform="scale(0.015625)"/>
       </defs>
       <use xlink:href="#DejaVuSans-35"/>
       <use x="63.623047" xlink:href="#DejaVuSans-30"/>
      </g>
     </g>
    </g>
    <g id="xtick_7">
     <g id="line2d_13">
      <path clip-path="url(#p39a8958f94)" d="M 290.456534 224.64 
L 290.456534 7.2 
" style="fill:none;stroke:#b0b0b0;stroke-dasharray:2.96,1.28;stroke-dashoffset:0;stroke-opacity:0.5;stroke-width:0.8;"/>
     </g>
     <g id="line2d_14">
      <g>
       <use style="stroke:#000000;stroke-width:0.8;" x="290.456534" xlink:href="#m41fc7b61df" y="224.64"/>
      </g>
     </g>
     <g id="text_7">
      <!-- 60 -->
      <g transform="translate(284.094034 239.238438)scale(0.1 -0.1)">
       <defs>
        <path d="M 2113 2584 
Q 1688 2584 1439 2293 
Q 1191 2003 1191 1497 
Q 1191 994 1439 701 
Q 1688 409 2113 409 
Q 2538 409 2786 701 
Q 3034 994 3034 1497 
Q 3034 2003 2786 2293 
Q 2538 2584 2113 2584 
z
M 3366 4563 
L 3366 3988 
Q 3128 4100 2886 4159 
Q 2644 4219 2406 4219 
Q 1781 4219 1451 3797 
Q 1122 3375 1075 2522 
Q 1259 2794 1537 2939 
Q 1816 3084 2150 3084 
Q 2853 3084 3261 2657 
Q 3669 2231 3669 1497 
Q 3669 778 3244 343 
Q 2819 -91 2113 -91 
Q 1303 -91 875 529 
Q 447 1150 447 2328 
Q 447 3434 972 4092 
Q 1497 4750 2381 4750 
Q 2619 4750 2861 4703 
Q 3103 4656 3366 4563 
z
" id="DejaVuSans-36" transform="scale(0.015625)"/>
       </defs>
       <use xlink:href="#DejaVuSans-36"/>
       <use x="63.623047" xlink:href="#DejaVuSans-30"/>
      </g>
     </g>
    </g>
    <g id="xtick_8">
     <g id="line2d_15">
      <path clip-path="url(#p39a8958f94)" d="M 328.501989 224.64 
L 328.501989 7.2 
" style="fill:none;stroke:#b0b0b0;stroke-dasharray:2.96,1.28;stroke-dashoffset:0;stroke-opacity:0.5;stroke-width:0.8;"/>
     </g>
     <g id="line2d_16">
      <g>
       <use style="stroke:#000000;stroke-width:0.8;" x="328.501989" xlink:href="#m41fc7b61df" y="224.64"/>
      </g>
     </g>
     <g id="text_8">
      <!-- 70 -->
      <g transform="translate(322.139489 239.238438)scale(0.1 -0.1)">
       <defs>
        <path d="M 525 4666 
L 3525 4666 
L 3525 4397 
L 1831 0 
L 1172 0 
L 2766 4134 
L 525 4134 
L 525 4666 
z
" id="DejaVuSans-37" transform="scale(0.015625)"/>
       </defs>
       <use xlink:href="#DejaVuSans-37"/>
       <use x="63.623047" xlink:href="#DejaVuSans-30"/>
      </g>
     </g>
    </g>
    <g id="xtick_9">
     <g id="line2d_17">
      <path clip-path="url(#p39a8958f94)" d="M 366.547443 224.64 
L 366.547443 7.2 
" style="fill:none;stroke:#b0b0b0;stroke-dasharray:2.96,1.28;stroke-dashoffset:0;stroke-opacity:0.5;stroke-width:0.8;"/>
     </g>
     <g id="line2d_18">
      <g>
       <use style="stroke:#000000;stroke-width:0.8;" x="366.547443" xlink:href="#m41fc7b61df" y="224.64"/>
      </g>
     </g>
     <g id="text_9">
      <!-- 80 -->
      <g transform="translate(360.184943 239.238438)scale(0.1 -0.1)">
       <defs>
        <path d="M 2034 2216 
Q 1584 2216 1326 1975 
Q 1069 1734 1069 1313 
Q 1069 891 1326 650 
Q 1584 409 2034 409 
Q 2484 409 2743 651 
Q 3003 894 3003 1313 
Q 3003 1734 2745 1975 
Q 2488 2216 2034 2216 
z
M 1403 2484 
Q 997 2584 770 2862 
Q 544 3141 544 3541 
Q 544 4100 942 4425 
Q 1341 4750 2034 4750 
Q 2731 4750 3128 4425 
Q 3525 4100 3525 3541 
Q 3525 3141 3298 2862 
Q 3072 2584 2669 2484 
Q 3125 2378 3379 2068 
Q 3634 1759 3634 1313 
Q 3634 634 3220 271 
Q 2806 -91 2034 -91 
Q 1263 -91 848 271 
Q 434 634 434 1313 
Q 434 1759 690 2068 
Q 947 2378 1403 2484 
z
M 1172 3481 
Q 1172 3119 1398 2916 
Q 1625 2713 2034 2713 
Q 2441 2713 2670 2916 
Q 2900 3119 2900 3481 
Q 2900 3844 2670 4047 
Q 2441 4250 2034 4250 
Q 1625 4250 1398 4047 
Q 1172 3844 1172 3481 
z
" id="DejaVuSans-38" transform="scale(0.015625)"/>
       </defs>
       <use xlink:href="#DejaVuSans-38"/>
       <use x="63.623047" xlink:href="#DejaVuSans-30"/>
      </g>
     </g>
    </g>
    <g id="text_10">
     <!-- Time / s -->
     <g transform="translate(194.664844 252.916563)scale(0.1 -0.1)">
      <defs>
       <path d="M -19 4666 
L 3928 4666 
L 3928 4134 
L 2272 4134 
L 2272 0 
L 1638 0 
L 1638 4134 
L -19 4134 
L -19 4666 
z
" id="DejaVuSans-54" transform="scale(0.015625)"/>
       <path d="M 603 3500 
L 1178 3500 
L 1178 0 
L 603 0 
L 603 3500 
z
M 603 4863 
L 1178 4863 
L 1178 4134 
L 603 4134 
L 603 4863 
z
" id="DejaVuSans-69" transform="scale(0.015625)"/>
       <path d="M 3328 2828 
Q 3544 3216 3844 3400 
Q 4144 3584 4550 3584 
Q 5097 3584 5394 3201 
Q 5691 2819 5691 2113 
L 5691 0 
L 5113 0 
L 5113 2094 
Q 5113 2597 4934 2840 
Q 4756 3084 4391 3084 
Q 3944 3084 3684 2787 
Q 3425 2491 3425 1978 
L 3425 0 
L 2847 0 
L 2847 2094 
Q 2847 2600 2669 2842 
Q 2491 3084 2119 3084 
Q 1678 3084 1418 2786 
Q 1159 2488 1159 1978 
L 1159 0 
L 581 0 
L 581 3500 
L 1159 3500 
L 1159 2956 
Q 1356 3278 1631 3431 
Q 1906 3584 2284 3584 
Q 2666 3584 2933 3390 
Q 3200 3197 3328 2828 
z
" id="DejaVuSans-6d" transform="scale(0.015625)"/>
       <path d="M 3597 1894 
L 3597 1613 
L 953 1613 
Q 991 1019 1311 708 
Q 1631 397 2203 397 
Q 2534 397 2845 478 
Q 3156 559 3463 722 
L 3463 178 
Q 3153 47 2828 -22 
Q 2503 -91 2169 -91 
Q 1331 -91 842 396 
Q 353 884 353 1716 
Q 353 2575 817 3079 
Q 1281 3584 2069 3584 
Q 2775 3584 3186 3129 
Q 3597 2675 3597 1894 
z
M 3022 2063 
Q 3016 2534 2758 2815 
Q 2500 3097 2075 3097 
Q 1594 3097 1305 2825 
Q 1016 2553 972 2059 
L 3022 2063 
z
" id="DejaVuSans-65" transform="scale(0.015625)"/>
       <path id="DejaVuSans-20" transform="scale(0.015625)"/>
       <path d="M 1625 4666 
L 2156 4666 
L 531 -594 
L 0 -594 
L 1625 4666 
z
" id="DejaVuSans-2f" transform="scale(0.015625)"/>
       <path d="M 2834 3397 
L 2834 2853 
Q 2591 2978 2328 3040 
Q 2066 3103 1784 3103 
Q 1356 3103 1142 2972 
Q 928 2841 928 2578 
Q 928 2378 1081 2264 
Q 1234 2150 1697 2047 
L 1894 2003 
Q 2506 1872 2764 1633 
Q 3022 1394 3022 966 
Q 3022 478 2636 193 
Q 2250 -91 1575 -91 
Q 1294 -91 989 -36 
Q 684 19 347 128 
L 347 722 
Q 666 556 975 473 
Q 1284 391 1588 391 
Q 1994 391 2212 530 
Q 2431 669 2431 922 
Q 2431 1156 2273 1281 
Q 2116 1406 1581 1522 
L 1381 1569 
Q 847 1681 609 1914 
Q 372 2147 372 2553 
Q 372 3047 722 3315 
Q 1072 3584 1716 3584 
Q 2034 3584 2315 3537 
Q 2597 3491 2834 3397 
z
" id="DejaVuSans-73" transform="scale(0.015625)"/>
      </defs>
      <use xlink:href="#DejaVuSans-54"/>
      <use x="57.958984" xlink:href="#DejaVuSans-69"/>
      <use x="85.742188" xlink:href="#DejaVuSans-6d"/>
      <use x="183.154297" xlink:href="#DejaVuSans-65"/>
      <use x="244.677734" xlink:href="#DejaVuSans-20"/>
      <use x="276.464844" xlink:href="#DejaVuSans-2f"/>
      <use x="310.15625" xlink:href="#DejaVuSans-20"/>
      <use x="341.943359" xlink:href="#DejaVuSans-73"/>
     </g>
    </g>
   </g>
   <g id="matplotlib.axis_2">
    <g id="ytick_1">
     <g id="line2d_19">
      <path clip-path="url(#p39a8958f94)" d="M 46.965625 214.756364 
L 381.765625 214.756364 
" style="fill:none;stroke:#b0b0b0;stroke-dasharray:2.96,1.28;stroke-dashoffset:0;stroke-opacity:0.5;stroke-width:0.8;"/>
     </g>
     <g id="line2d_20">
      <defs>
       <path d="M 0 0 
L -3.5 0 
" id="m9916bb5268" style="stroke:#000000;stroke-width:0.8;"/>
      </defs>
      <g>
       <use style="stroke:#000000;stroke-width:0.8;" x="46.965625" xlink:href="#m9916bb5268" y="214.756364"/>
      </g>
     </g>
     <g id="text_11">
      <!-- 0 -->
      <g transform="translate(33.603125 218.555582)scale(0.1 -0.1)">
       <use xlink:href="#DejaVuSans-30"/>
      </g>
     </g>
    </g>
    <g id="ytick_2">
     <g id="line2d_21">
      <path clip-path="url(#p39a8958f94)" d="M 46.965625 176.421918 
L 381.765625 176.421918 
" style="fill:none;stroke:#b0b0b0;stroke-dasharray:2.96,1.28;stroke-dashoffset:0;stroke-opacity:0.5;stroke-width:0.8;"/>
     </g>
     <g id="line2d_22">
      <g>
       <use style="stroke:#000000;stroke-width:0.8;" x="46.965625" xlink:href="#m9916bb5268" y="176.421918"/>
      </g>
     </g>
     <g id="text_12">
      <!-- 50 -->
      <g transform="translate(27.240625 180.221136)scale(0.1 -0.1)">
       <use xlink:href="#DejaVuSans-35"/>
       <use x="63.623047" xlink:href="#DejaVuSans-30"/>
      </g>
     </g>
    </g>
    <g id="ytick_3">
     <g id="line2d_23">
      <path clip-path="url(#p39a8958f94)" d="M 46.965625 138.087471 
L 381.765625 138.087471 
" style="fill:none;stroke:#b0b0b0;stroke-dasharray:2.96,1.28;stroke-dashoffset:0;stroke-opacity:0.5;stroke-width:0.8;"/>
     </g>
     <g id="line2d_24">
      <g>
       <use style="stroke:#000000;stroke-width:0.8;" x="46.965625" xlink:href="#m9916bb5268" y="138.087471"/>
      </g>
     </g>
     <g id="text_13">
      <!-- 100 -->
      <g transform="translate(20.878125 141.88669)scale(0.1 -0.1)">
       <use xlink:href="#DejaVuSans-31"/>
       <use x="63.623047" xlink:href="#DejaVuSans-30"/>
       <use x="127.246094" xlink:href="#DejaVuSans-30"/>
      </g>
     </g>
    </g>
    <g id="ytick_4">
     <g id="line2d_25">
      <path clip-path="url(#p39a8958f94)" d="M 46.965625 99.753025 
L 381.765625 99.753025 
" style="fill:none;stroke:#b0b0b0;stroke-dasharray:2.96,1.28;stroke-dashoffset:0;stroke-opacity:0.5;stroke-width:0.8;"/>
     </g>
     <g id="line2d_26">
      <g>
       <use style="stroke:#000000;stroke-width:0.8;" x="46.965625" xlink:href="#m9916bb5268" y="99.753025"/>
      </g>
     </g>
     <g id="text_14">
      <!-- 150 -->
      <g transform="translate(20.878125 103.552244)scale(0.1 -0.1)">
       <use xlink:href="#DejaVuSans-31"/>
       <use x="63.623047" xlink:href="#DejaVuSans-35"/>
       <use x="127.246094" xlink:href="#DejaVuSans-30"/>
      </g>
     </g>
    </g>
    <g id="ytick_5">
     <g id="line2d_27">
      <path clip-path="url(#p39a8958f94)" d="M 46.965625 61.418579 
L 381.765625 61.418579 
" style="fill:none;stroke:#b0b0b0;stroke-dasharray:2.96,1.28;stroke-dashoffset:0;stroke-opacity:0.5;stroke-width:0.8;"/>
     </g>
     <g id="line2d_28">
      <g>
       <use style="stroke:#000000;stroke-width:0.8;" x="46.965625" xlink:href="#m9916bb5268" y="61.418579"/>
      </g>
     </g>
     <g id="text_15">
      <!-- 200 -->
      <g transform="translate(20.878125 65.217798)scale(0.1 -0.1)">
       <use xlink:href="#DejaVuSans-32"/>
       <use x="63.623047" xlink:href="#DejaVuSans-30"/>
       <use x="127.246094" xlink:href="#DejaVuSans-30"/>
      </g>
     </g>
    </g>
    <g id="ytick_6">
     <g id="line2d_29">
      <path clip-path="url(#p39a8958f94)" d="M 46.965625 23.084133 
L 381.765625 23.084133 
" style="fill:none;stroke:#b0b0b0;stroke-dasharray:2.96,1.28;stroke-dashoffset:0;stroke-opacity:0.5;stroke-width:0.8;"/>
     </g>
     <g id="line2d_30">
      <g>
       <use style="stroke:#000000;stroke-width:0.8;" x="46.965625" xlink:href="#m9916bb5268" y="23.084133"/>
      </g>
     </g>
     <g id="text_16">
      <!-- 250 -->
      <g transform="translate(20.878125 26.883352)scale(0.1 -0.1)">
       <use xlink:href="#DejaVuSans-32"/>
       <use x="63.623047" xlink:href="#DejaVuSans-35"/>
       <use x="127.246094" xlink:href="#DejaVuSans-30"/>
      </g>
     </g>
    </g>
    <g id="text_17">
     <!-- HRR / kW -->
     <g transform="translate(14.798438 139.330156)rotate(-90)scale(0.1 -0.1)">
      <defs>
       <path d="M 628 4666 
L 1259 4666 
L 1259 2753 
L 3553 2753 
L 3553 4666 
L 4184 4666 
L 4184 0 
L 3553 0 
L 3553 2222 
L 1259 2222 
L 1259 0 
L 628 0 
L 628 4666 
z
" id="DejaVuSans-48" transform="scale(0.015625)"/>
       <path d="M 2841 2188 
Q 3044 2119 3236 1894 
Q 3428 1669 3622 1275 
L 4263 0 
L 3584 0 
L 2988 1197 
Q 2756 1666 2539 1819 
Q 2322 1972 1947 1972 
L 1259 1972 
L 1259 0 
L 628 0 
L 628 4666 
L 2053 4666 
Q 2853 4666 3247 4331 
Q 3641 3997 3641 3322 
Q 3641 2881 3436 2590 
Q 3231 2300 2841 2188 
z
M 1259 4147 
L 1259 2491 
L 2053 2491 
Q 2509 2491 2742 2702 
Q 2975 2913 2975 3322 
Q 2975 3731 2742 3939 
Q 2509 4147 2053 4147 
L 1259 4147 
z
" id="DejaVuSans-52" transform="scale(0.015625)"/>
       <path d="M 581 4863 
L 1159 4863 
L 1159 1991 
L 2875 3500 
L 3609 3500 
L 1753 1863 
L 3688 0 
L 2938 0 
L 1159 1709 
L 1159 0 
L 581 0 
L 581 4863 
z
" id="DejaVuSans-6b" transform="scale(0.015625)"/>
       <path d="M 213 4666 
L 850 4666 
L 1831 722 
L 2809 4666 
L 3519 4666 
L 4500 722 
L 5478 4666 
L 6119 4666 
L 4947 0 
L 4153 0 
L 3169 4050 
L 2175 0 
L 1381 0 
L 213 4666 
z
" id="DejaVuSans-57" transform="scale(0.015625)"/>
      </defs>
      <use xlink:href="#DejaVuSans-48"/>
      <use x="75.195312" xlink:href="#DejaVuSans-52"/>
      <use x="144.677734" xlink:href="#DejaVuSans-52"/>
      <use x="214.160156" xlink:href="#DejaVuSans-20"/>
      <use x="245.947266" xlink:href="#DejaVuSans-2f"/>
      <use x="279.638672" xlink:href="#DejaVuSans-20"/>
      <use x="311.425781" xlink:href="#DejaVuSans-6b"/>
      <use x="369.335938" xlink:href="#DejaVuSans-57"/>
     </g>
    </g>
   </g>
   <g id="line2d_31">
    <path clip-path="url(#p39a8958f94)" d="M 62.183807 214.756364 
L 62.564261 214.756364 
L 63.32517 213.754177 
L 65.607898 210.248978 
L 67.129716 208.577468 
L 67.890625 208.049545 
L 68.216174 207.76727 
L 68.867271 207.821858 
L 69.518369 207.597294 
L 69.803296 207.271138 
L 70.37315 207.216265 
L 71.797785 207.288988 
L 72.937493 207.12386 
L 75.786763 207.110262 
L 77.496324 207.094248 
L 77.752593 206.950928 
L 79.033928 207.068888 
L 81.596598 207.085171 
L 81.82427 206.938997 
L 83.190307 207.06994 
L 89.337474 207.091742 
L 98.216717 207.089947 
L 98.467157 207.203903 
L 99.969798 207.100969 
L 109.236081 207.091911 
L 160.676484 207.091661 
L 160.951973 206.619191 
L 161.502937 204.27395 
L 162.880362 196.448893 
L 163.431326 192.065588 
L 164.533262 186.252969 
L 165.518729 182.309024 
L 166.594563 179.866996 
L 167.223935 179.096672 
L 167.8082 178.140065 
L 168.182669 178.111936 
L 168.557131 177.959451 
L 169.118835 177.438992 
L 169.680539 177.041615 
L 170.991174 176.92656 
L 171.552871 176.757177 
L 172.676279 176.498261 
L 173.35559 175.972191 
L 174.503787 176.417881 
L 175.487955 176.480689 
L 176.636152 176.48152 
L 177.62032 176.471275 
L 178.768516 176.44848 
L 180.900881 176.401769 
L 184.345471 176.459628 
L 185.165611 176.658899 
L 185.821723 176.554148 
L 186.477835 176.365957 
L 189.266313 176.404279 
L 189.758397 176.483166 
L 191.562705 176.468625 
L 192.546874 176.362751 
L 195.007295 176.520322 
L 196.155491 176.416024 
L 197.13966 176.355606 
L 198.615912 176.276017 
L 199.272024 176.372312 
L 200.420221 176.379243 
L 200.712502 175.979679 
L 201.29705 176.328041 
L 201.589316 176.314505 
L 202.027731 175.415431 
L 202.90456 170.381475 
L 204.073655 161.347219 
L 204.658203 157.195335 
L 205.24275 154.650759 
L 206.265713 152.698724 
L 206.85026 151.846622 
L 207.434808 150.425728 
L 208.603918 146.797836 
L 208.896185 146.294392 
L 209.334599 146.07514 
L 209.62688 146.059522 
L 210.211428 146.20788 
L 210.795976 146.069847 
L 211.965071 145.546626 
L 212.549619 145.446859 
L 212.988033 145.483102 
L 213.26538 145.262136 
L 213.527808 145.266418 
L 213.790235 145.690801 
L 214.446304 146.303552 
L 214.708731 146.404635 
L 215.88967 146.365831 
L 216.808166 146.18464 
L 217.726662 145.654524 
L 218.078694 144.926756 
L 218.665419 145.080618 
L 220.190914 145.044557 
L 221.129685 145.429317 
L 221.387832 146.101813 
L 222.033233 145.852671 
L 225.13116 146.271539 
L 225.647482 146.391047 
L 226.034723 146.339883 
L 226.938285 145.841785 
L 228.745409 144.922305 
L 229.00357 144.875668 
L 229.648971 145.098482 
L 230.810694 145.67571 
L 232.746884 146.137097 
L 233.650446 146.11436 
L 234.812169 146.426927 
L 235.45757 146.190496 
L 236.102972 145.844739 
L 237.910096 144.900873 
L 238.426417 144.967281 
L 240.620782 145.910948 
L 240.865751 145.660782 
L 241.213428 145.583185 
L 241.792897 145.951525 
L 243.067721 146.207219 
L 243.647189 146.382373 
L 244.226657 146.290368 
L 246.080949 145.262738 
L 247.008095 144.907781 
L 247.587549 145.027728 
L 248.514695 145.528481 
L 248.769662 146.222182 
L 249.407082 146.013137 
L 250.044486 146.015874 
L 250.385212 145.379053 
L 250.612358 145.602762 
L 251.861654 146.062792 
L 252.770237 146.571845 
L 253.110964 146.622443 
L 254.246693 145.971928 
L 254.928131 145.46894 
L 255.155277 145.220336 
L 255.882141 145.156923 
L 256.132 144.947393 
L 256.381859 144.949089 
L 257.006521 145.254789 
L 258.255817 145.807748 
L 259.130338 145.930438 
L 259.505126 145.399532 
L 260.129774 142.508292 
L 260.354148 140.122369 
L 261.027284 136.344844 
L 261.251658 134.599491 
L 261.924794 130.784735 
L 262.822304 125.300153 
L 263.181303 124.026013 
L 263.67494 121.572716 
L 264.662199 118.080308 
L 264.991707 116.145973 
L 265.211379 115.933149 
L 265.870379 115.782739 
L 266.419558 115.7291 
L 267.078558 115.890016 
L 267.957245 116.179747 
L 269.165424 116.294793 
L 269.472683 115.830095 
L 269.76881 115.956594 
L 270.064923 116.222682 
L 270.459769 116.234404 
L 271.052008 115.553221 
L 271.367873 115.613107 
L 272.236517 114.304637 
L 272.887985 113.962905 
L 273.43088 114.001394 
L 273.756614 114.157818 
L 274.950991 115.118133 
L 275.928193 115.442516 
L 277.448305 116.555733 
L 277.774039 116.583401 
L 278.316933 116.2299 
L 278.968416 115.175293 
L 279.511311 113.950446 
L 279.837045 113.615242 
L 280.162779 113.453472 
L 280.814261 113.650561 
L 281.357156 114.048704 
L 282.334358 114.846933 
L 282.551519 114.627183 
L 282.877253 113.017331 
L 283.528736 106.054367 
L 286.564866 68.923569 
L 287.208018 64.266896 
L 287.422392 63.280516 
L 288.387113 60.794954 
L 289.566223 56.191884 
L 289.887791 55.410958 
L 290.186371 53.871099 
L 290.473442 53.863132 
L 290.856213 54.583202 
L 291.71744 57.667131 
L 292.004525 58.069849 
L 292.291596 57.832083 
L 292.674367 57.148257 
L 293.82268 52.472959 
L 294.109751 52.07457 
L 294.492521 52.404486 
L 295.066678 53.891712 
L 295.353749 54.589636 
L 295.640819 54.978268 
L 296.02359 54.841112 
L 296.597747 52.382165 
L 296.884832 52.493303 
L 297.458974 54.355509 
L 298.12883 54.498596 
L 298.415901 54.680874 
L 298.702986 54.689859 
L 298.990057 54.488664 
L 299.946984 53.084007 
L 300.262762 53.578291 
L 300.566901 52.755904 
L 300.847745 53.20847 
L 301.12859 55.238706 
L 301.503045 56.750768 
L 301.78389 56.960316 
L 302.373662 54.425081 
L 302.68259 51.480835 
L 302.991518 50.41653 
L 303.300445 51.374739 
L 303.609373 53.159932 
L 303.918301 53.962958 
L 304.227228 54.132472 
L 304.536156 54.725447 
L 304.845084 55.045162 
L 305.154012 54.872523 
L 305.462939 54.942716 
L 305.771867 55.349586 
L 306.286737 61.043997 
L 306.595665 62.204255 
L 306.904593 56.763848 
L 307.21352 57.735978 
L 307.522448 52.446438 
L 307.808967 50.17102 
L 308.176035 44.188399 
L 308.45135 43.934279 
L 309.369019 53.01488 
L 309.644305 54.895675 
L 310.029747 56.625498 
L 310.332579 56.732565 
L 310.635411 55.977821 
L 310.938243 55.645202 
L 311.241075 54.895067 
L 311.543908 53.692728 
L 311.84674 53.088523 
L 312.452404 52.956807 
L 312.755236 52.684729 
L 313.058069 52.742638 
L 313.360901 53.202937 
L 313.643502 52.752114 
L 313.916001 53.03644 
L 314.279325 53.645512 
L 314.551795 53.792507 
L 315.133106 54.959398 
L 315.432833 54.949641 
L 315.732559 54.755126 
L 316.332012 54.122353 
L 316.731676 53.996767 
L 317.031403 54.180449 
L 317.630855 54.78945 
L 317.930611 54.781823 
L 318.82979 53.037692 
L 319.429272 53.497968 
L 319.728998 53.459525 
L 320.328451 53.086265 
L 320.927933 53.371609 
L 321.527385 54.090579 
L 322.72632 53.002877 
L 323.026046 52.958714 
L 323.725437 53.607959 
L 324.32489 53.450377 
L 324.624616 53.751386 
L 324.924371 53.744928 
L 325.224098 53.503045 
L 325.523824 53.627274 
L 326.423032 55.612153 
L 326.722759 55.798783 
L 327.022485 55.800163 
L 327.322211 55.487877 
L 327.921693 53.314192 
L 328.22142 52.761075 
L 328.521146 52.860655 
L 328.820872 53.58682 
L 329.120599 53.616686 
L 329.420354 52.92274 
L 329.720081 52.517706 
L 330.119716 52.611717 
L 330.419442 52.565075 
L 330.719198 52.652078 
L 331.31865 54.225548 
L 331.918103 54.680582 
L 332.217859 54.173898 
L 332.817311 52.789129 
L 333.117038 52.553469 
L 333.416793 52.636109 
L 333.716519 53.122578 
L 334.315972 54.389002 
L 334.915454 55.477723 
L 335.21518 55.68809 
L 335.514907 55.701017 
L 335.814633 55.443387 
L 336.81375 53.071373 
L 337.113476 52.8569 
L 337.413203 52.893435 
L 338.312411 53.792706 
L 338.612137 53.893432 
L 338.911864 53.605034 
L 339.191127 52.212743 
L 339.460114 51.980289 
L 339.818764 52.420267 
L 340.087751 53.218461 
L 340.446401 53.530876 
L 340.715418 53.191636 
L 340.984405 52.39556 
L 341.369963 51.892081 
L 342.257618 48.381405 
L 342.849408 42.639567 
L 343.441198 38.053215 
L 343.737093 39.63554 
L 344.032988 38.779707 
L 344.427514 35.34719 
L 344.723409 29.567928 
L 345.27552 26.773917 
L 345.630396 26.263559 
L 345.896568 26.679321 
L 346.162711 26.778199 
L 346.535323 27.459428 
L 346.828112 26.600741 
L 347.455024 22.03162 
L 347.714084 21.759929 
L 348.059498 22.826468 
L 348.672593 26.507817 
L 348.957545 27.94612 
L 349.527478 26.723039 
L 349.81243 33.067959 
L 350.192385 27.472157 
L 350.477337 27.09527 
L 350.762289 21.434867 
L 351.332193 18.415562 
L 351.712148 17.504791 
L 351.9971 18.572723 
L 352.567033 24.345187 
L 352.851985 25.533604 
L 353.23194 26.069173 
L 353.516892 29.136233 
L 353.801844 24.101807 
L 354.086825 25.568946 
L 354.466752 20.312443 
L 354.751704 18.515387 
L 355.036685 18.68778 
L 355.606588 22.063031 
L 356.271496 24.647343 
L 356.556448 24.847029 
L 356.841429 25.407667 
L 357.126381 25.717275 
L 357.506336 25.448239 
L 357.791288 27.273465 
L 358.07624 22.802439 
L 358.361192 22.534105 
L 359.026099 23.68608 
L 359.298976 22.936436 
L 359.547703 21.457458 
L 359.8793 21.193522 
L 360.210927 23.594573 
L 360.550855 21.863509 
L 360.824428 22.144806 
L 361.098002 21.99443 
L 362.009953 30.201731 
L 362.921903 17.083636 
L 363.286707 21.056436 
L 363.560281 25.839492 
L 363.833854 27.891638 
L 364.472231 20.071531 
L 364.754948 19.305333 
L 365.356839 20.485818 
L 365.95873 24.262126 
L 366.259647 28.964425 
L 366.547443 24.818039 
L 366.547443 24.818039 
" style="fill:none;stroke:#1f77b4;stroke-linecap:square;"/>
   </g>
   <g id="line2d_32">
    <path clip-path="url(#p39a8958f94)" d="M 62.183807 214.756364 
L 78.162897 214.68613 
L 80.445626 214.185477 
L 86.152444 212.88387 
L 89.196079 212.840482 
L 93.381079 212.774294 
L 95.663808 212.269514 
L 116.96926 206.905073 
L 117.302454 206.594472 
L 118.302028 206.508192 
L 118.968412 206.377765 
L 119.257591 206.085101 
L 120.125113 206.029477 
L 121.281814 205.79934 
L 121.537696 205.555089 
L 122.561228 205.442441 
L 122.81711 205.391898 
L 123.098579 205.477213 
L 124.787406 204.945261 
L 131.261239 203.253503 
L 131.511374 202.931321 
L 132.261786 202.732084 
L 134.012744 201.947176 
L 134.262886 201.823862 
L 134.538034 201.882878 
L 135.913783 201.028726 
L 138.665295 199.63894 
L 140.316199 199.119155 
L 147.194965 197.192595 
L 151.322218 195.156591 
L 164.804601 188.366584 
L 165.051231 187.774397 
L 165.791113 187.687718 
L 167.024255 187.207072 
L 170.723689 185.379702 
L 177.875912 181.776921 
L 178.097303 181.146628 
L 178.761492 181.110698 
L 179.868464 180.719197 
L 182.303806 179.545181 
L 184.96054 178.08931 
L 188.060078 175.885562 
L 188.502861 175.45826 
L 189.60984 174.703515 
L 190.052623 174.29458 
L 190.49542 174.045996 
L 190.938203 173.624677 
L 192.045182 172.903096 
L 192.266581 172.69606 
L 192.465397 171.978565 
L 193.459492 171.880073 
L 194.453588 171.494541 
L 194.652404 171.342554 
L 196.242962 170.634709 
L 196.441778 170.486978 
L 197.435888 170.032961 
L 197.634704 169.882533 
L 198.429984 169.504725 
L 198.6288 169.342352 
L 199.622895 168.876698 
L 200.418174 168.286002 
L 201.41227 167.662556 
L 201.611086 167.463265 
L 202.207549 167.021432 
L 202.605196 166.778739 
L 202.804012 166.525277 
L 203.599291 165.960119 
L 203.798108 165.730376 
L 204.792203 165.087174 
L 204.991019 164.886739 
L 205.985129 164.261488 
L 206.56168 163.536499 
L 207.098436 163.011372 
L 207.814096 162.674155 
L 208.350851 162.346877 
L 209.961104 161.131951 
L 210.140023 160.934979 
L 210.855683 160.476382 
L 211.034601 160.263231 
L 212.108113 159.529164 
L 212.287017 159.335755 
L 213.002691 158.844466 
L 213.18161 158.619996 
L 213.89727 158.144975 
L 214.076188 157.957666 
L 214.791863 157.49749 
L 218.370206 154.595921 
L 219.031282 153.660752 
L 219.674158 153.56057 
L 220.477753 153.169505 
L 223.531444 151.205549 
L 224.17432 150.546254 
L 225.460087 149.099576 
L 226.585121 148.238302 
L 228.192326 147.131777 
L 229.96025 146.36424 
L 230.603126 145.694018 
L 233.013927 142.826797 
L 236.389056 139.706075 
L 238.478418 137.529231 
L 239.442732 136.885367 
L 239.725609 135.760217 
L 240.291362 135.884943 
L 241.281423 135.468754 
L 243.685866 133.445392 
L 245.24168 132.668262 
L 247.928986 130.057155 
L 249.767676 127.856182 
L 250.616291 126.765906 
L 251.889229 125.659351 
L 253.727919 124.309755 
L 254.576549 123.461385 
L 255.849486 121.770642 
L 256.698116 120.684975 
L 257.4053 120.202372 
L 258.253915 119.559813 
L 259.809729 117.975095 
L 260.075538 117.13316 
L 260.448614 116.532745 
L 260.946068 116.357241 
L 261.567886 115.892192 
L 262.562794 115.066857 
L 263.433324 114.146295 
L 264.676959 112.926783 
L 264.925672 112.568403 
L 265.92058 111.685944 
L 266.418034 111.108306 
L 268.034745 109.850995 
L 269.154017 108.563268 
L 270.148911 107.561072 
L 271.019455 106.615895 
L 272.014349 105.713068 
L 272.511803 105.065355 
L 273.133621 104.461735 
L 275.869589 101.481187 
L 276.778173 100.006186 
L 278.317819 99.462347 
L 278.680736 100.138791 
L 279.527537 98.545949 
L 281.342121 96.559303 
L 281.705037 96.205603 
L 282.914755 93.665701 
L 283.15669 92.963062 
L 283.761556 92.310717 
L 284.48739 92.457817 
L 285.092242 92.639896 
L 285.334191 92.64805 
L 285.697108 92.465737 
L 286.301974 91.344763 
L 286.543909 90.625267 
L 287.148775 89.704365 
L 287.511692 89.562752 
L 287.753627 89.235889 
L 288.116544 88.553256 
L 288.358493 87.796698 
L 288.72141 87.078407 
L 288.963359 86.337818 
L 289.568211 85.133291 
L 289.931128 85.07185 
L 290.173077 85.206654 
L 290.535994 85.211708 
L 291.140845 84.76567 
L 292.943151 82.253599 
L 293.269248 81.383937 
L 293.595331 81.43767 
L 293.823594 81.961937 
L 294.182302 82.025555 
L 294.780129 81.151238 
L 296.573611 78.388755 
L 296.932319 78.081019 
L 297.245789 76.497734 
L 297.76825 77.035046 
L 299.02216 77.150478 
L 299.335645 76.905225 
L 299.9626 75.908749 
L 301.425501 72.595864 
L 302.052456 72.316521 
L 302.365926 72.212215 
L 302.679411 71.96839 
L 302.992882 71.476083 
L 303.337715 71.783456 
L 303.56759 70.855161 
L 304.487131 69.486548 
L 305.176783 68.59783 
L 305.751491 67.880615 
L 305.98138 67.580846 
L 306.671017 67.100753 
L 308.165266 65.146431 
L 309.429626 62.692315 
L 309.659515 62.327455 
L 311.843402 60.401081 
L 315.751426 55.364561 
L 316.670953 53.896169 
L 317.245675 53.235635 
L 317.935313 52.329848 
L 318.165202 51.871924 
L 319.084729 50.80694 
L 319.392118 49.180885 
L 319.699507 49.305056 
L 320.314257 49.143086 
L 320.929007 48.666468 
L 321.543756 47.820204 
L 322.465895 46.206374 
L 323.080645 45.691501 
L 323.388034 45.657995 
L 323.695424 45.785149 
L 324.310173 46.188159 
L 324.924923 45.307747 
L 325.847062 43.757066 
L 326.461812 41.987011 
L 327.076561 39.594922 
L 327.383951 38.975286 
L 327.896237 38.572311 
L 328.203626 38.67395 
L 329.125766 39.372365 
L 329.740515 38.451066 
L 330.047905 40.935388 
L 330.355265 39.990036 
L 330.662654 34.803058 
L 330.970044 37.463785 
L 331.277404 33.226886 
L 331.584793 33.709295 
L 331.892183 33.936754 
L 332.199543 33.683886 
L 332.506932 33.037039 
L 332.814293 32.992642 
L 333.429071 31.903688 
L 333.736432 31.889567 
L 334.043821 32.289337 
L 334.351181 35.347623 
L 334.658571 30.953387 
L 334.96596 33.490775 
L 335.27332 27.712004 
L 335.58071 26.91966 
L 335.888099 26.889805 
L 336.502849 28.126807 
L 336.810209 31.320353 
L 337.424988 30.062937 
L 337.732348 29.367798 
L 337.937274 25.192914 
L 338.244663 26.210096 
L 338.859413 29.888298 
L 339.166802 33.955811 
L 339.474163 33.613225 
L 339.781552 28.631268 
L 340.088912 27.390663 
L 340.396302 27.393354 
L 340.703691 30.857142 
L 341.318441 32.909827 
L 341.625801 32.668154 
L 341.933191 31.572274 
L 342.24058 29.901927 
L 342.54794 23.518215 
L 342.875822 23.574884 
L 343.21395 26.907657 
L 343.43934 25.083004 
L 343.777469 30.363548 
L 344.115568 27.536944 
L 344.412508 26.659246 
L 344.709418 27.88421 
L 345.303269 29.587009 
L 345.600209 33.648696 
L 345.89712 33.686062 
L 346.19406 33.010062 
L 346.78791 30.520265 
L 347.084821 28.842665 
L 347.381761 23.085525 
L 347.678672 26.373832 
L 348.074592 23.119229 
L 349.262293 29.263878 
L 349.559204 30.126964 
L 349.856144 30.645581 
L 350.153054 34.376697 
L 350.449994 30.960102 
L 350.746905 33.270429 
L 351.340756 30.241671 
L 351.637696 29.942791 
L 352.033586 28.579302 
L 352.330497 24.915841 
L 352.627437 28.745588 
L 352.924348 24.611264 
L 353.221288 25.026031 
L 353.518199 25.199383 
L 353.834934 26.522254 
L 354.7059 28.949638 
L 355.032534 32.31367 
L 355.359139 28.861804 
L 355.685772 31.95632 
L 355.903499 28.717933 
L 356.230133 32.396638 
L 356.556738 29.117796 
L 356.883372 32.640358 
L 357.186988 27.854998 
L 357.771231 34.748448 
L 358.063352 29.375226 
L 358.647595 27.630066 
L 358.959193 27.716461 
L 359.280544 28.177848 
L 359.601866 25.16224 
L 359.923217 29.659775 
L 360.244539 26.847643 
L 360.780105 26.135283 
L 361.101456 26.146081 
L 361.422778 26.577343 
L 361.7441 27.587881 
L 362.601017 31.802529 
L 362.922339 31.770381 
L 363.232515 30.108012 
L 363.520369 27.912965 
L 363.808195 30.939852 
L 364.192011 26.197754 
L 364.489444 29.998138 
L 364.806064 27.03515 
L 365.122683 29.931104 
L 365.333792 26.294269 
L 365.967032 28.34817 
L 366.283651 29.404169 
L 366.547443 28.313109 
L 366.547443 28.313109 
" style="fill:none;stroke:#ff7f0e;stroke-linecap:square;"/>
   </g>
   <g id="patch_3">
    <path d="M 46.965625 224.64 
L 46.965625 7.2 
" style="fill:none;stroke:#000000;stroke-linecap:square;stroke-linejoin:miter;stroke-width:0.8;"/>
   </g>
   <g id="patch_4">
    <path d="M 381.765625 224.64 
L 381.765625 7.2 
" style="fill:none;stroke:#000000;stroke-linecap:square;stroke-linejoin:miter;stroke-width:0.8;"/>
   </g>
   <g id="patch_5">
    <path d="M 46.965625 224.64 
L 381.765625 224.64 
" style="fill:none;stroke:#000000;stroke-linecap:square;stroke-linejoin:miter;stroke-width:0.8;"/>
   </g>
   <g id="patch_6">
    <path d="M 46.965625 7.2 
L 381.765625 7.2 
" style="fill:none;stroke:#000000;stroke-linecap:square;stroke-linejoin:miter;stroke-width:0.8;"/>
   </g>
   <g id="legend_1">
    <g id="patch_7">
     <path d="M 53.965625 44.55625 
L 149.129688 44.55625 
Q 151.129688 44.55625 151.129688 42.55625 
L 151.129688 14.2 
Q 151.129688 12.2 149.129688 12.2 
L 53.965625 12.2 
Q 51.965625 12.2 51.965625 14.2 
L 51.965625 42.55625 
Q 51.965625 44.55625 53.965625 44.55625 
z
" style="fill:#ffffff;opacity:0.8;stroke:#cccccc;stroke-linejoin:miter;"/>
    </g>
    <g id="line2d_33">
     <path d="M 55.965625 20.298438 
L 75.965625 20.298438 
" style="fill:none;stroke:#1f77b4;stroke-linecap:square;"/>
    </g>
    <g id="line2d_34"/>
    <g id="text_18">
     <!-- FDS SPREAD -->
     <g transform="translate(83.965625 23.798438)scale(0.1 -0.1)">
      <defs>
       <path d="M 628 4666 
L 3309 4666 
L 3309 4134 
L 1259 4134 
L 1259 2759 
L 3109 2759 
L 3109 2228 
L 1259 2228 
L 1259 0 
L 628 0 
L 628 4666 
z
" id="DejaVuSans-46" transform="scale(0.015625)"/>
       <path d="M 1259 4147 
L 1259 519 
L 2022 519 
Q 2988 519 3436 956 
Q 3884 1394 3884 2338 
Q 3884 3275 3436 3711 
Q 2988 4147 2022 4147 
L 1259 4147 
z
M 628 4666 
L 1925 4666 
Q 3281 4666 3915 4102 
Q 4550 3538 4550 2338 
Q 4550 1131 3912 565 
Q 3275 0 1925 0 
L 628 0 
L 628 4666 
z
" id="DejaVuSans-44" transform="scale(0.015625)"/>
       <path d="M 3425 4513 
L 3425 3897 
Q 3066 4069 2747 4153 
Q 2428 4238 2131 4238 
Q 1616 4238 1336 4038 
Q 1056 3838 1056 3469 
Q 1056 3159 1242 3001 
Q 1428 2844 1947 2747 
L 2328 2669 
Q 3034 2534 3370 2195 
Q 3706 1856 3706 1288 
Q 3706 609 3251 259 
Q 2797 -91 1919 -91 
Q 1588 -91 1214 -16 
Q 841 59 441 206 
L 441 856 
Q 825 641 1194 531 
Q 1563 422 1919 422 
Q 2459 422 2753 634 
Q 3047 847 3047 1241 
Q 3047 1584 2836 1778 
Q 2625 1972 2144 2069 
L 1759 2144 
Q 1053 2284 737 2584 
Q 422 2884 422 3419 
Q 422 4038 858 4394 
Q 1294 4750 2059 4750 
Q 2388 4750 2728 4690 
Q 3069 4631 3425 4513 
z
" id="DejaVuSans-53" transform="scale(0.015625)"/>
       <path d="M 1259 4147 
L 1259 2394 
L 2053 2394 
Q 2494 2394 2734 2622 
Q 2975 2850 2975 3272 
Q 2975 3691 2734 3919 
Q 2494 4147 2053 4147 
L 1259 4147 
z
M 628 4666 
L 2053 4666 
Q 2838 4666 3239 4311 
Q 3641 3956 3641 3272 
Q 3641 2581 3239 2228 
Q 2838 1875 2053 1875 
L 1259 1875 
L 1259 0 
L 628 0 
L 628 4666 
z
" id="DejaVuSans-50" transform="scale(0.015625)"/>
       <path d="M 628 4666 
L 3578 4666 
L 3578 4134 
L 1259 4134 
L 1259 2753 
L 3481 2753 
L 3481 2222 
L 1259 2222 
L 1259 531 
L 3634 531 
L 3634 0 
L 628 0 
L 628 4666 
z
" id="DejaVuSans-45" transform="scale(0.015625)"/>
       <path d="M 2188 4044 
L 1331 1722 
L 3047 1722 
L 2188 4044 
z
M 1831 4666 
L 2547 4666 
L 4325 0 
L 3669 0 
L 3244 1197 
L 1141 1197 
L 716 0 
L 50 0 
L 1831 4666 
z
" id="DejaVuSans-41" transform="scale(0.015625)"/>
      </defs>
      <use xlink:href="#DejaVuSans-46"/>
      <use x="57.519531" xlink:href="#DejaVuSans-44"/>
      <use x="134.521484" xlink:href="#DejaVuSans-53"/>
      <use x="197.998047" xlink:href="#DejaVuSans-20"/>
      <use x="229.785156" xlink:href="#DejaVuSans-53"/>
      <use x="293.261719" xlink:href="#DejaVuSans-50"/>
      <use x="353.564453" xlink:href="#DejaVuSans-52"/>
      <use x="423.046875" xlink:href="#DejaVuSans-45"/>
      <use x="486.230469" xlink:href="#DejaVuSans-41"/>
      <use x="554.638672" xlink:href="#DejaVuSans-44"/>
     </g>
    </g>
    <g id="line2d_35">
     <path d="M 55.965625 34.976562 
L 75.965625 34.976562 
" style="fill:none;stroke:#ff7f0e;stroke-linecap:square;"/>
    </g>
    <g id="line2d_36"/>
    <g id="text_19">
     <!-- FDS RAMP -->
     <g transform="translate(83.965625 38.476562)scale(0.1 -0.1)">
      <defs>
       <path d="M 628 4666 
L 1569 4666 
L 2759 1491 
L 3956 4666 
L 4897 4666 
L 4897 0 
L 4281 0 
L 4281 4097 
L 3078 897 
L 2444 897 
L 1241 4097 
L 1241 0 
L 628 0 
L 628 4666 
z
" id="DejaVuSans-4d" transform="scale(0.015625)"/>
      </defs>
      <use xlink:href="#DejaVuSans-46"/>
      <use x="57.519531" xlink:href="#DejaVuSans-44"/>
      <use x="134.521484" xlink:href="#DejaVuSans-53"/>
      <use x="197.998047" xlink:href="#DejaVuSans-20"/>
      <use x="229.785156" xlink:href="#DejaVuSans-52"/>
      <use x="295.267578" xlink:href="#DejaVuSans-41"/>
      <use x="363.675781" xlink:href="#DejaVuSans-4d"/>
      <use x="449.955078" xlink:href="#DejaVuSans-50"/>
     </g>
    </g>
   </g>
  </g>
 </g>
 <defs>
  <clipPath id="p39a8958f94">
   <rect height="217.44" width="334.8" x="46.965625" y="7.2"/>
  </clipPath>
 </defs>
</svg>
