<?xml version="1.0" encoding="utf-8" standalone="no"?>
<!DOCTYPE svg PUBLIC "-//W3C//DTD SVG 1.1//EN"
  "http://www.w3.org/Graphics/SVG/1.1/DTD/svg11.dtd">
<svg height="262.19625pt" version="1.1" viewBox="0 0 395.328125 262.19625" width="395.328125pt" xmlns="http://www.w3.org/2000/svg" xmlns:xlink="http://www.w3.org/1999/xlink">
 <metadata>
  <rdf:RDF xmlns:cc="http://creativecommons.org/ns#" xmlns:dc="http://purl.org/dc/elements/1.1/" xmlns:rdf="http://www.w3.org/1999/02/22-rdf-syntax-ns#">
   <cc:Work>
    <dc:type rdf:resource="http://purl.org/dc/dcmitype/StillImage"/>
    <dc:date>2021-05-18T15:07:59.886584</dc:date>
    <dc:format>image/svg+xml</dc:format>
    <dc:creator>
     <cc:Agent>
      <dc:title>Matplotlib v3.4.1, https://matplotlib.org/</dc:title>
     </cc:Agent>
    </dc:creator>
   </cc:Work>
  </rdf:RDF>
 </metadata>
 <defs>
  <style type="text/css">*{stroke-linecap:butt;stroke-linejoin:round;}</style>
 </defs>
 <g id="figure_1">
  <g id="patch_1">
   <path d="M 0 262.19625 
L 395.328125 262.19625 
L 395.328125 0 
L 0 0 
z
" style="fill:none;"/>
  </g>
  <g id="axes_1">
   <g id="patch_2">
    <path d="M 53.328125 224.64 
L 388.128125 224.64 
L 388.128125 7.2 
L 53.328125 7.2 
z
" style="fill:#ffffff;"/>
   </g>
   <g id="matplotlib.axis_1">
    <g id="xtick_1">
     <g id="line2d_1">
      <path clip-path="url(#p25379934ac)" d="M 68.546307 224.64 
L 68.546307 7.2 
" style="fill:none;stroke:#b0b0b0;stroke-dasharray:2.96,1.28;stroke-dashoffset:0;stroke-opacity:0.5;stroke-width:0.8;"/>
     </g>
     <g id="line2d_2">
      <defs>
       <path d="M 0 0 
L 0 3.5 
" id="mf2cb02b7b7" style="stroke:#000000;stroke-width:0.8;"/>
      </defs>
      <g>
       <use style="stroke:#000000;stroke-width:0.8;" x="68.546307" xlink:href="#mf2cb02b7b7" y="224.64"/>
      </g>
     </g>
     <g id="text_1">
      <!-- 0 -->
      <g transform="translate(65.365057 239.238437)scale(0.1 -0.1)">
       <defs>
        <path d="M 2034 4250 
Q 1547 4250 1301 3770 
Q 1056 3291 1056 2328 
Q 1056 1369 1301 889 
Q 1547 409 2034 409 
Q 2525 409 2770 889 
Q 3016 1369 3016 2328 
Q 3016 3291 2770 3770 
Q 2525 4250 2034 4250 
z
M 2034 4750 
Q 2819 4750 3233 4129 
Q 3647 3509 3647 2328 
Q 3647 1150 3233 529 
Q 2819 -91 2034 -91 
Q 1250 -91 836 529 
Q 422 1150 422 2328 
Q 422 3509 836 4129 
Q 1250 4750 2034 4750 
z
" id="DejaVuSans-30" transform="scale(0.015625)"/>
       </defs>
       <use xlink:href="#DejaVuSans-30"/>
      </g>
     </g>
    </g>
    <g id="xtick_2">
     <g id="line2d_3">
      <path clip-path="url(#p25379934ac)" d="M 123.88515 224.64 
L 123.88515 7.2 
" style="fill:none;stroke:#b0b0b0;stroke-dasharray:2.96,1.28;stroke-dashoffset:0;stroke-opacity:0.5;stroke-width:0.8;"/>
     </g>
     <g id="line2d_4">
      <g>
       <use style="stroke:#000000;stroke-width:0.8;" x="123.88515" xlink:href="#mf2cb02b7b7" y="224.64"/>
      </g>
     </g>
     <g id="text_2">
      <!-- 50 -->
      <g transform="translate(117.52265 239.238437)scale(0.1 -0.1)">
       <defs>
        <path d="M 691 4666 
L 3169 4666 
L 3169 4134 
L 1269 4134 
L 1269 2991 
Q 1406 3038 1543 3061 
Q 1681 3084 1819 3084 
Q 2600 3084 3056 2656 
Q 3513 2228 3513 1497 
Q 3513 744 3044 326 
Q 2575 -91 1722 -91 
Q 1428 -91 1123 -41 
Q 819 9 494 109 
L 494 744 
Q 775 591 1075 516 
Q 1375 441 1709 441 
Q 2250 441 2565 725 
Q 2881 1009 2881 1497 
Q 2881 1984 2565 2268 
Q 2250 2553 1709 2553 
Q 1456 2553 1204 2497 
Q 953 2441 691 2322 
L 691 4666 
z
" id="DejaVuSans-35" transform="scale(0.015625)"/>
       </defs>
       <use xlink:href="#DejaVuSans-35"/>
       <use x="63.623047" xlink:href="#DejaVuSans-30"/>
      </g>
     </g>
    </g>
    <g id="xtick_3">
     <g id="line2d_5">
      <path clip-path="url(#p25379934ac)" d="M 179.223993 224.64 
L 179.223993 7.2 
" style="fill:none;stroke:#b0b0b0;stroke-dasharray:2.96,1.28;stroke-dashoffset:0;stroke-opacity:0.5;stroke-width:0.8;"/>
     </g>
     <g id="line2d_6">
      <g>
       <use style="stroke:#000000;stroke-width:0.8;" x="179.223993" xlink:href="#mf2cb02b7b7" y="224.64"/>
      </g>
     </g>
     <g id="text_3">
      <!-- 100 -->
      <g transform="translate(169.680243 239.238437)scale(0.1 -0.1)">
       <defs>
        <path d="M 794 531 
L 1825 531 
L 1825 4091 
L 703 3866 
L 703 4441 
L 1819 4666 
L 2450 4666 
L 2450 531 
L 3481 531 
L 3481 0 
L 794 0 
L 794 531 
z
" id="DejaVuSans-31" transform="scale(0.015625)"/>
       </defs>
       <use xlink:href="#DejaVuSans-31"/>
       <use x="63.623047" xlink:href="#DejaVuSans-30"/>
       <use x="127.246094" xlink:href="#DejaVuSans-30"/>
      </g>
     </g>
    </g>
    <g id="xtick_4">
     <g id="line2d_7">
      <path clip-path="url(#p25379934ac)" d="M 234.562836 224.64 
L 234.562836 7.2 
" style="fill:none;stroke:#b0b0b0;stroke-dasharray:2.96,1.28;stroke-dashoffset:0;stroke-opacity:0.5;stroke-width:0.8;"/>
     </g>
     <g id="line2d_8">
      <g>
       <use style="stroke:#000000;stroke-width:0.8;" x="234.562836" xlink:href="#mf2cb02b7b7" y="224.64"/>
      </g>
     </g>
     <g id="text_4">
      <!-- 150 -->
      <g transform="translate(225.019086 239.238437)scale(0.1 -0.1)">
       <use xlink:href="#DejaVuSans-31"/>
       <use x="63.623047" xlink:href="#DejaVuSans-35"/>
       <use x="127.246094" xlink:href="#DejaVuSans-30"/>
      </g>
     </g>
    </g>
    <g id="xtick_5">
     <g id="line2d_9">
      <path clip-path="url(#p25379934ac)" d="M 289.901679 224.64 
L 289.901679 7.2 
" style="fill:none;stroke:#b0b0b0;stroke-dasharray:2.96,1.28;stroke-dashoffset:0;stroke-opacity:0.5;stroke-width:0.8;"/>
     </g>
     <g id="line2d_10">
      <g>
       <use style="stroke:#000000;stroke-width:0.8;" x="289.901679" xlink:href="#mf2cb02b7b7" y="224.64"/>
      </g>
     </g>
     <g id="text_5">
      <!-- 200 -->
      <g transform="translate(280.357929 239.238437)scale(0.1 -0.1)">
       <defs>
        <path d="M 1228 531 
L 3431 531 
L 3431 0 
L 469 0 
L 469 531 
Q 828 903 1448 1529 
Q 2069 2156 2228 2338 
Q 2531 2678 2651 2914 
Q 2772 3150 2772 3378 
Q 2772 3750 2511 3984 
Q 2250 4219 1831 4219 
Q 1534 4219 1204 4116 
Q 875 4013 500 3803 
L 500 4441 
Q 881 4594 1212 4672 
Q 1544 4750 1819 4750 
Q 2544 4750 2975 4387 
Q 3406 4025 3406 3419 
Q 3406 3131 3298 2873 
Q 3191 2616 2906 2266 
Q 2828 2175 2409 1742 
Q 1991 1309 1228 531 
z
" id="DejaVuSans-32" transform="scale(0.015625)"/>
       </defs>
       <use xlink:href="#DejaVuSans-32"/>
       <use x="63.623047" xlink:href="#DejaVuSans-30"/>
       <use x="127.246094" xlink:href="#DejaVuSans-30"/>
      </g>
     </g>
    </g>
    <g id="xtick_6">
     <g id="line2d_11">
      <path clip-path="url(#p25379934ac)" d="M 345.240522 224.64 
L 345.240522 7.2 
" style="fill:none;stroke:#b0b0b0;stroke-dasharray:2.96,1.28;stroke-dashoffset:0;stroke-opacity:0.5;stroke-width:0.8;"/>
     </g>
     <g id="line2d_12">
      <g>
       <use style="stroke:#000000;stroke-width:0.8;" x="345.240522" xlink:href="#mf2cb02b7b7" y="224.64"/>
      </g>
     </g>
     <g id="text_6">
      <!-- 250 -->
      <g transform="translate(335.696772 239.238437)scale(0.1 -0.1)">
       <use xlink:href="#DejaVuSans-32"/>
       <use x="63.623047" xlink:href="#DejaVuSans-35"/>
       <use x="127.246094" xlink:href="#DejaVuSans-30"/>
      </g>
     </g>
    </g>
    <g id="text_7">
     <!-- Time / s -->
     <g transform="translate(201.027344 252.916562)scale(0.1 -0.1)">
      <defs>
       <path d="M -19 4666 
L 3928 4666 
L 3928 4134 
L 2272 4134 
L 2272 0 
L 1638 0 
L 1638 4134 
L -19 4134 
L -19 4666 
z
" id="DejaVuSans-54" transform="scale(0.015625)"/>
       <path d="M 603 3500 
L 1178 3500 
L 1178 0 
L 603 0 
L 603 3500 
z
M 603 4863 
L 1178 4863 
L 1178 4134 
L 603 4134 
L 603 4863 
z
" id="DejaVuSans-69" transform="scale(0.015625)"/>
       <path d="M 3328 2828 
Q 3544 3216 3844 3400 
Q 4144 3584 4550 3584 
Q 5097 3584 5394 3201 
Q 5691 2819 5691 2113 
L 5691 0 
L 5113 0 
L 5113 2094 
Q 5113 2597 4934 2840 
Q 4756 3084 4391 3084 
Q 3944 3084 3684 2787 
Q 3425 2491 3425 1978 
L 3425 0 
L 2847 0 
L 2847 2094 
Q 2847 2600 2669 2842 
Q 2491 3084 2119 3084 
Q 1678 3084 1418 2786 
Q 1159 2488 1159 1978 
L 1159 0 
L 581 0 
L 581 3500 
L 1159 3500 
L 1159 2956 
Q 1356 3278 1631 3431 
Q 1906 3584 2284 3584 
Q 2666 3584 2933 3390 
Q 3200 3197 3328 2828 
z
" id="DejaVuSans-6d" transform="scale(0.015625)"/>
       <path d="M 3597 1894 
L 3597 1613 
L 953 1613 
Q 991 1019 1311 708 
Q 1631 397 2203 397 
Q 2534 397 2845 478 
Q 3156 559 3463 722 
L 3463 178 
Q 3153 47 2828 -22 
Q 2503 -91 2169 -91 
Q 1331 -91 842 396 
Q 353 884 353 1716 
Q 353 2575 817 3079 
Q 1281 3584 2069 3584 
Q 2775 3584 3186 3129 
Q 3597 2675 3597 1894 
z
M 3022 2063 
Q 3016 2534 2758 2815 
Q 2500 3097 2075 3097 
Q 1594 3097 1305 2825 
Q 1016 2553 972 2059 
L 3022 2063 
z
" id="DejaVuSans-65" transform="scale(0.015625)"/>
       <path id="DejaVuSans-20" transform="scale(0.015625)"/>
       <path d="M 1625 4666 
L 2156 4666 
L 531 -594 
L 0 -594 
L 1625 4666 
z
" id="DejaVuSans-2f" transform="scale(0.015625)"/>
       <path d="M 2834 3397 
L 2834 2853 
Q 2591 2978 2328 3040 
Q 2066 3103 1784 3103 
Q 1356 3103 1142 2972 
Q 928 2841 928 2578 
Q 928 2378 1081 2264 
Q 1234 2150 1697 2047 
L 1894 2003 
Q 2506 1872 2764 1633 
Q 3022 1394 3022 966 
Q 3022 478 2636 193 
Q 2250 -91 1575 -91 
Q 1294 -91 989 -36 
Q 684 19 347 128 
L 347 722 
Q 666 556 975 473 
Q 1284 391 1588 391 
Q 1994 391 2212 530 
Q 2431 669 2431 922 
Q 2431 1156 2273 1281 
Q 2116 1406 1581 1522 
L 1381 1569 
Q 847 1681 609 1914 
Q 372 2147 372 2553 
Q 372 3047 722 3315 
Q 1072 3584 1716 3584 
Q 2034 3584 2315 3537 
Q 2597 3491 2834 3397 
z
" id="DejaVuSans-73" transform="scale(0.015625)"/>
      </defs>
      <use xlink:href="#DejaVuSans-54"/>
      <use x="57.958984" xlink:href="#DejaVuSans-69"/>
      <use x="85.742188" xlink:href="#DejaVuSans-6d"/>
      <use x="183.154297" xlink:href="#DejaVuSans-65"/>
      <use x="244.677734" xlink:href="#DejaVuSans-20"/>
      <use x="276.464844" xlink:href="#DejaVuSans-2f"/>
      <use x="310.15625" xlink:href="#DejaVuSans-20"/>
      <use x="341.943359" xlink:href="#DejaVuSans-73"/>
     </g>
    </g>
   </g>
   <g id="matplotlib.axis_2">
    <g id="ytick_1">
     <g id="line2d_13">
      <path clip-path="url(#p25379934ac)" d="M 53.328125 214.756364 
L 388.128125 214.756364 
" style="fill:none;stroke:#b0b0b0;stroke-dasharray:2.96,1.28;stroke-dashoffset:0;stroke-opacity:0.5;stroke-width:0.8;"/>
     </g>
     <g id="line2d_14">
      <defs>
       <path d="M 0 0 
L -3.5 0 
" id="m53bcb9a7b1" style="stroke:#000000;stroke-width:0.8;"/>
      </defs>
      <g>
       <use style="stroke:#000000;stroke-width:0.8;" x="53.328125" xlink:href="#m53bcb9a7b1" y="214.756364"/>
      </g>
     </g>
     <g id="text_8">
      <!-- 0 -->
      <g transform="translate(39.965625 218.555582)scale(0.1 -0.1)">
       <use xlink:href="#DejaVuSans-30"/>
      </g>
     </g>
    </g>
    <g id="ytick_2">
     <g id="line2d_15">
      <path clip-path="url(#p25379934ac)" d="M 53.328125 187.520387 
L 388.128125 187.520387 
" style="fill:none;stroke:#b0b0b0;stroke-dasharray:2.96,1.28;stroke-dashoffset:0;stroke-opacity:0.5;stroke-width:0.8;"/>
     </g>
     <g id="line2d_16">
      <g>
       <use style="stroke:#000000;stroke-width:0.8;" x="53.328125" xlink:href="#m53bcb9a7b1" y="187.520387"/>
      </g>
     </g>
     <g id="text_9">
      <!-- 200 -->
      <g transform="translate(27.240625 191.319606)scale(0.1 -0.1)">
       <use xlink:href="#DejaVuSans-32"/>
       <use x="63.623047" xlink:href="#DejaVuSans-30"/>
       <use x="127.246094" xlink:href="#DejaVuSans-30"/>
      </g>
     </g>
    </g>
    <g id="ytick_3">
     <g id="line2d_17">
      <path clip-path="url(#p25379934ac)" d="M 53.328125 160.284411 
L 388.128125 160.284411 
" style="fill:none;stroke:#b0b0b0;stroke-dasharray:2.96,1.28;stroke-dashoffset:0;stroke-opacity:0.5;stroke-width:0.8;"/>
     </g>
     <g id="line2d_18">
      <g>
       <use style="stroke:#000000;stroke-width:0.8;" x="53.328125" xlink:href="#m53bcb9a7b1" y="160.284411"/>
      </g>
     </g>
     <g id="text_10">
      <!-- 400 -->
      <g transform="translate(27.240625 164.08363)scale(0.1 -0.1)">
       <defs>
        <path d="M 2419 4116 
L 825 1625 
L 2419 1625 
L 2419 4116 
z
M 2253 4666 
L 3047 4666 
L 3047 1625 
L 3713 1625 
L 3713 1100 
L 3047 1100 
L 3047 0 
L 2419 0 
L 2419 1100 
L 313 1100 
L 313 1709 
L 2253 4666 
z
" id="DejaVuSans-34" transform="scale(0.015625)"/>
       </defs>
       <use xlink:href="#DejaVuSans-34"/>
       <use x="63.623047" xlink:href="#DejaVuSans-30"/>
       <use x="127.246094" xlink:href="#DejaVuSans-30"/>
      </g>
     </g>
    </g>
    <g id="ytick_4">
     <g id="line2d_19">
      <path clip-path="url(#p25379934ac)" d="M 53.328125 133.048435 
L 388.128125 133.048435 
" style="fill:none;stroke:#b0b0b0;stroke-dasharray:2.96,1.28;stroke-dashoffset:0;stroke-opacity:0.5;stroke-width:0.8;"/>
     </g>
     <g id="line2d_20">
      <g>
       <use style="stroke:#000000;stroke-width:0.8;" x="53.328125" xlink:href="#m53bcb9a7b1" y="133.048435"/>
      </g>
     </g>
     <g id="text_11">
      <!-- 600 -->
      <g transform="translate(27.240625 136.847654)scale(0.1 -0.1)">
       <defs>
        <path d="M 2113 2584 
Q 1688 2584 1439 2293 
Q 1191 2003 1191 1497 
Q 1191 994 1439 701 
Q 1688 409 2113 409 
Q 2538 409 2786 701 
Q 3034 994 3034 1497 
Q 3034 2003 2786 2293 
Q 2538 2584 2113 2584 
z
M 3366 4563 
L 3366 3988 
Q 3128 4100 2886 4159 
Q 2644 4219 2406 4219 
Q 1781 4219 1451 3797 
Q 1122 3375 1075 2522 
Q 1259 2794 1537 2939 
Q 1816 3084 2150 3084 
Q 2853 3084 3261 2657 
Q 3669 2231 3669 1497 
Q 3669 778 3244 343 
Q 2819 -91 2113 -91 
Q 1303 -91 875 529 
Q 447 1150 447 2328 
Q 447 3434 972 4092 
Q 1497 4750 2381 4750 
Q 2619 4750 2861 4703 
Q 3103 4656 3366 4563 
z
" id="DejaVuSans-36" transform="scale(0.015625)"/>
       </defs>
       <use xlink:href="#DejaVuSans-36"/>
       <use x="63.623047" xlink:href="#DejaVuSans-30"/>
       <use x="127.246094" xlink:href="#DejaVuSans-30"/>
      </g>
     </g>
    </g>
    <g id="ytick_5">
     <g id="line2d_21">
      <path clip-path="url(#p25379934ac)" d="M 53.328125 105.812459 
L 388.128125 105.812459 
" style="fill:none;stroke:#b0b0b0;stroke-dasharray:2.96,1.28;stroke-dashoffset:0;stroke-opacity:0.5;stroke-width:0.8;"/>
     </g>
     <g id="line2d_22">
      <g>
       <use style="stroke:#000000;stroke-width:0.8;" x="53.328125" xlink:href="#m53bcb9a7b1" y="105.812459"/>
      </g>
     </g>
     <g id="text_12">
      <!-- 800 -->
      <g transform="translate(27.240625 109.611678)scale(0.1 -0.1)">
       <defs>
        <path d="M 2034 2216 
Q 1584 2216 1326 1975 
Q 1069 1734 1069 1313 
Q 1069 891 1326 650 
Q 1584 409 2034 409 
Q 2484 409 2743 651 
Q 3003 894 3003 1313 
Q 3003 1734 2745 1975 
Q 2488 2216 2034 2216 
z
M 1403 2484 
Q 997 2584 770 2862 
Q 544 3141 544 3541 
Q 544 4100 942 4425 
Q 1341 4750 2034 4750 
Q 2731 4750 3128 4425 
Q 3525 4100 3525 3541 
Q 3525 3141 3298 2862 
Q 3072 2584 2669 2484 
Q 3125 2378 3379 2068 
Q 3634 1759 3634 1313 
Q 3634 634 3220 271 
Q 2806 -91 2034 -91 
Q 1263 -91 848 271 
Q 434 634 434 1313 
Q 434 1759 690 2068 
Q 947 2378 1403 2484 
z
M 1172 3481 
Q 1172 3119 1398 2916 
Q 1625 2713 2034 2713 
Q 2441 2713 2670 2916 
Q 2900 3119 2900 3481 
Q 2900 3844 2670 4047 
Q 2441 4250 2034 4250 
Q 1625 4250 1398 4047 
Q 1172 3844 1172 3481 
z
" id="DejaVuSans-38" transform="scale(0.015625)"/>
       </defs>
       <use xlink:href="#DejaVuSans-38"/>
       <use x="63.623047" xlink:href="#DejaVuSans-30"/>
       <use x="127.246094" xlink:href="#DejaVuSans-30"/>
      </g>
     </g>
    </g>
    <g id="ytick_6">
     <g id="line2d_23">
      <path clip-path="url(#p25379934ac)" d="M 53.328125 78.576483 
L 388.128125 78.576483 
" style="fill:none;stroke:#b0b0b0;stroke-dasharray:2.96,1.28;stroke-dashoffset:0;stroke-opacity:0.5;stroke-width:0.8;"/>
     </g>
     <g id="line2d_24">
      <g>
       <use style="stroke:#000000;stroke-width:0.8;" x="53.328125" xlink:href="#m53bcb9a7b1" y="78.576483"/>
      </g>
     </g>
     <g id="text_13">
      <!-- 1000 -->
      <g transform="translate(20.878125 82.375702)scale(0.1 -0.1)">
       <use xlink:href="#DejaVuSans-31"/>
       <use x="63.623047" xlink:href="#DejaVuSans-30"/>
       <use x="127.246094" xlink:href="#DejaVuSans-30"/>
       <use x="190.869141" xlink:href="#DejaVuSans-30"/>
      </g>
     </g>
    </g>
    <g id="ytick_7">
     <g id="line2d_25">
      <path clip-path="url(#p25379934ac)" d="M 53.328125 51.340507 
L 388.128125 51.340507 
" style="fill:none;stroke:#b0b0b0;stroke-dasharray:2.96,1.28;stroke-dashoffset:0;stroke-opacity:0.5;stroke-width:0.8;"/>
     </g>
     <g id="line2d_26">
      <g>
       <use style="stroke:#000000;stroke-width:0.8;" x="53.328125" xlink:href="#m53bcb9a7b1" y="51.340507"/>
      </g>
     </g>
     <g id="text_14">
      <!-- 1200 -->
      <g transform="translate(20.878125 55.139725)scale(0.1 -0.1)">
       <use xlink:href="#DejaVuSans-31"/>
       <use x="63.623047" xlink:href="#DejaVuSans-32"/>
       <use x="127.246094" xlink:href="#DejaVuSans-30"/>
       <use x="190.869141" xlink:href="#DejaVuSans-30"/>
      </g>
     </g>
    </g>
    <g id="ytick_8">
     <g id="line2d_27">
      <path clip-path="url(#p25379934ac)" d="M 53.328125 24.10453 
L 388.128125 24.10453 
" style="fill:none;stroke:#b0b0b0;stroke-dasharray:2.96,1.28;stroke-dashoffset:0;stroke-opacity:0.5;stroke-width:0.8;"/>
     </g>
     <g id="line2d_28">
      <g>
       <use style="stroke:#000000;stroke-width:0.8;" x="53.328125" xlink:href="#m53bcb9a7b1" y="24.10453"/>
      </g>
     </g>
     <g id="text_15">
      <!-- 1400 -->
      <g transform="translate(20.878125 27.903749)scale(0.1 -0.1)">
       <use xlink:href="#DejaVuSans-31"/>
       <use x="63.623047" xlink:href="#DejaVuSans-34"/>
       <use x="127.246094" xlink:href="#DejaVuSans-30"/>
       <use x="190.869141" xlink:href="#DejaVuSans-30"/>
      </g>
     </g>
    </g>
    <g id="text_16">
     <!-- HRR / kW -->
     <g transform="translate(14.798438 139.330156)rotate(-90)scale(0.1 -0.1)">
      <defs>
       <path d="M 628 4666 
L 1259 4666 
L 1259 2753 
L 3553 2753 
L 3553 4666 
L 4184 4666 
L 4184 0 
L 3553 0 
L 3553 2222 
L 1259 2222 
L 1259 0 
L 628 0 
L 628 4666 
z
" id="DejaVuSans-48" transform="scale(0.015625)"/>
       <path d="M 2841 2188 
Q 3044 2119 3236 1894 
Q 3428 1669 3622 1275 
L 4263 0 
L 3584 0 
L 2988 1197 
Q 2756 1666 2539 1819 
Q 2322 1972 1947 1972 
L 1259 1972 
L 1259 0 
L 628 0 
L 628 4666 
L 2053 4666 
Q 2853 4666 3247 4331 
Q 3641 3997 3641 3322 
Q 3641 2881 3436 2590 
Q 3231 2300 2841 2188 
z
M 1259 4147 
L 1259 2491 
L 2053 2491 
Q 2509 2491 2742 2702 
Q 2975 2913 2975 3322 
Q 2975 3731 2742 3939 
Q 2509 4147 2053 4147 
L 1259 4147 
z
" id="DejaVuSans-52" transform="scale(0.015625)"/>
       <path d="M 581 4863 
L 1159 4863 
L 1159 1991 
L 2875 3500 
L 3609 3500 
L 1753 1863 
L 3688 0 
L 2938 0 
L 1159 1709 
L 1159 0 
L 581 0 
L 581 4863 
z
" id="DejaVuSans-6b" transform="scale(0.015625)"/>
       <path d="M 213 4666 
L 850 4666 
L 1831 722 
L 2809 4666 
L 3519 4666 
L 4500 722 
L 5478 4666 
L 6119 4666 
L 4947 0 
L 4153 0 
L 3169 4050 
L 2175 0 
L 1381 0 
L 213 4666 
z
" id="DejaVuSans-57" transform="scale(0.015625)"/>
      </defs>
      <use xlink:href="#DejaVuSans-48"/>
      <use x="75.195312" xlink:href="#DejaVuSans-52"/>
      <use x="144.677734" xlink:href="#DejaVuSans-52"/>
      <use x="214.160156" xlink:href="#DejaVuSans-20"/>
      <use x="245.947266" xlink:href="#DejaVuSans-2f"/>
      <use x="279.638672" xlink:href="#DejaVuSans-20"/>
      <use x="311.425781" xlink:href="#DejaVuSans-6b"/>
      <use x="369.335938" xlink:href="#DejaVuSans-57"/>
     </g>
    </g>
   </g>
   <g id="line2d_29">
    <path clip-path="url(#p25379934ac)" d="M 68.546307 214.756364 
L 68.87834 214.627681 
L 69.542406 213.594969 
L 71.977315 209.290412 
L 72.510278 208.16915 
L 72.841576 207.900122 
L 75.264393 203.551001 
L 81.032834 193.578464 
L 82.281246 191.330885 
L 82.885318 190.298606 
L 83.799142 188.619425 
L 84.378341 187.712674 
L 84.684395 187.286571 
L 85.293248 185.919756 
L 85.915363 185.418283 
L 86.521914 183.115071 
L 86.809227 183.813841 
L 87.128464 184.197377 
L 87.447702 182.053699 
L 87.735014 181.201848 
L 88.03992 181.606807 
L 88.35167 181.297537 
L 88.635077 179.857921 
L 88.963829 180.328851 
L 89.244403 178.799094 
L 89.556153 179.373404 
L 89.8679 178.126822 
L 90.179648 177.867874 
L 90.771971 176.534746 
L 91.083719 176.235839 
L 91.707216 174.365776 
L 91.98779 175.174722 
L 92.310338 174.609182 
L 92.90194 171.390777 
L 93.219778 172.58789 
L 93.515574 173.079082 
L 93.811371 171.697942 
L 94.13406 170.830473 
L 94.429857 170.3702 
L 94.725653 169.549314 
L 95.034648 167.992484 
L 95.353451 167.573027 
L 95.645688 169.48117 
L 96.25673 166.425111 
L 96.853988 166.232864 
L 97.164477 164.194887 
L 97.468066 163.683144 
L 97.771654 163.638572 
L 98.075243 163.999427 
L 98.682419 159.609521 
L 98.994942 161.085719 
L 99.287156 160.798477 
L 99.611293 159.50274 
L 99.908418 156.876307 
L 100.205544 157.176715 
L 100.529679 156.364041 
L 100.815284 157.853708 
L 101.128982 155.469662 
L 101.418551 152.199325 
L 101.744316 153.115709 
L 102.036298 155.047878 
L 102.354824 152.220582 
L 102.646806 150.743678 
L 102.954089 150.232326 
L 103.250443 148.490888 
L 103.569592 152.396505 
L 103.865946 149.890705 
L 104.162298 145.70228 
L 104.481449 146.723388 
L 104.78236 149.528108 
L 105.083272 144.688307 
L 105.384184 143.490732 
L 105.682182 144.471021 
L 106.302633 145.458097 
L 106.612859 141.223326 
L 106.900927 147.030827 
L 107.525811 137.23078 
L 107.818313 130.581538 
L 108.135184 140.339561 
L 108.427685 140.488923 
L 108.73091 133.203208 
L 109.02961 133.681708 
L 109.339134 141.228579 
L 109.95397 131.957957 
L 110.245378 132.076134 
L 110.561823 129.661202 
L 110.858487 130.825954 
L 111.464718 131.754352 
L 111.77738 137.353769 
L 112.078317 137.137397 
L 113.002626 115.792473 
L 113.604501 131.656465 
L 113.905438 133.107665 
L 114.507312 123.839653 
L 115.116013 113.931852 
L 115.429954 114.287254 
L 115.735201 126.701001 
L 116.031764 118.53926 
L 116.335746 124.167037 
L 116.641576 124.958075 
L 116.947406 112.129804 
L 117.253241 109.958481 
L 117.559071 116.815783 
L 117.859253 120.721272 
L 118.160308 115.321719 
L 118.469389 117.209395 
L 118.778703 122.102262 
L 119.085086 115.67388 
L 119.391474 99.938513 
L 119.699774 105.89802 
L 119.994669 108.501397 
L 120.289565 109.486972 
L 120.605528 104.201141 
L 120.900423 115.416166 
L 121.509694 100.908628 
L 121.823302 113.284848 
L 122.124142 120.310272 
L 122.424986 112.278826 
L 122.72583 95.679924 
L 123.034692 94.292035 
L 123.339095 92.100224 
L 123.636241 92.78035 
L 123.947374 86.825248 
L 124.255007 114.370023 
L 124.56264 110.919961 
L 124.872777 83.925175 
L 125.164134 79.471169 
L 125.472443 102.400215 
L 125.78619 113.720584 
L 126.07745 111.402459 
L 126.384665 102.460634 
L 126.682647 116.711745 
L 127.000092 91.456403 
L 127.303731 77.946992 
L 127.600986 108.177678 
L 127.899086 98.565061 
L 128.205905 84.810295 
L 128.517815 96.88316 
L 128.818093 116.720797 
L 129.437417 93.462272 
L 129.726435 108.632539 
L 130.036095 103.861789 
L 130.339565 102.912428 
L 130.657487 94.128036 
L 131.264609 117.116686 
L 131.86574 106.550867 
L 132.166302 104.441875 
L 132.466867 105.293315 
L 132.777004 107.912475 
L 133.080267 113.254319 
L 133.376349 108.562114 
L 133.692173 108.657816 
L 133.988255 110.239785 
L 134.304074 100.904182 
L 134.60016 96.268538 
L 135.212066 118.78838 
L 135.508148 116.513086 
L 136.131896 103.513734 
L 136.434779 120.19665 
L 136.739626 117.144854 
L 137.048441 99.05474 
L 137.3402 114.276757 
L 137.652802 117.515767 
L 137.944561 111.056772 
L 138.257163 109.2609 
L 138.569761 112.090373 
L 138.861524 112.673933 
L 139.174122 105.33499 
L 139.769879 125.622625 
L 140.082291 128.06989 
L 140.390794 108.825397 
L 140.691486 103.639449 
L 140.992187 114.762612 
L 141.292879 111.507045 
L 141.605477 112.213337 
L 142.212308 126.210616 
L 143.117213 112.866243 
L 143.422398 109.499464 
L 143.745889 119.43196 
L 144.046176 121.152544 
L 144.345922 117.714451 
L 144.651613 120.662765 
L 144.957312 128.142552 
L 145.260141 119.570392 
L 145.55971 119.771404 
L 145.859288 129.710482 
L 146.180254 129.706293 
L 146.479823 112.097272 
L 146.779401 103.538145 
L 147.07897 119.097761 
L 147.385277 120.81 
L 147.694236 117.792939 
L 147.986138 119.527321 
L 148.298888 128.630809 
L 148.90354 122.483797 
L 149.203169 124.763996 
L 149.811992 132.468557 
L 150.120461 132.550702 
L 150.745523 119.036628 
L 151.043665 120.569964 
L 151.335356 129.287896 
L 151.646493 131.162763 
L 151.955688 131.018338 
L 152.255156 131.135583 
L 152.554624 124.289377 
L 152.87548 121.768869 
L 153.174957 127.583852 
L 153.474424 125.818492 
L 153.773892 133.274307 
L 154.07336 135.615265 
L 154.394225 133.050131 
L 154.693693 123.444678 
L 154.993161 117.931321 
L 155.292628 123.214958 
L 155.600447 133.963203 
L 155.913696 128.530977 
L 156.526724 124.68185 
L 156.82268 137.084343 
L 157.118626 134.903096 
L 158.048745 122.402757 
L 158.340132 127.46954 
L 158.650239 129.242563 
L 158.95664 138.342835 
L 159.263032 134.489894 
L 159.569424 126.112919 
L 159.875824 130.118531 
L 160.16179 126.534143 
L 160.468182 132.865934 
L 160.782747 132.932652 
L 161.074843 127.264497 
L 161.396147 128.24521 
L 161.6951 127.240044 
L 162.006339 130.830675 
L 162.306161 136.191602 
L 162.601399 138.077067 
L 162.90861 126.16604 
L 163.215812 128.662677 
L 163.523015 132.404274 
L 163.830226 132.323849 
L 164.137428 129.011155 
L 164.422693 132.372614 
L 164.729896 138.184413 
L 165.037107 141.314556 
L 165.344309 137.394148 
L 165.638347 125.038974 
L 165.959989 123.970331 
L 166.259913 138.948189 
L 166.559837 136.047293 
L 166.85976 126.337769 
L 167.163965 124.086172 
L 167.48255 126.573208 
L 167.772797 135.146348 
L 168.092066 135.760164 
L 168.388537 132.562954 
L 168.684998 139.264136 
L 168.998838 139.113784 
L 169.297959 136.263358 
L 169.616029 135.505965 
L 169.914712 127.688264 
L 170.213386 126.397772 
L 170.51206 139.255442 
L 170.832072 143.070207 
L 171.42942 130.747931 
L 171.738767 130.406392 
L 172.044442 127.661808 
L 172.347388 133.637814 
L 172.648748 133.311868 
L 172.950402 133.214812 
L 173.555739 140.380264 
L 173.869612 138.110804 
L 174.161075 133.67958 
L 174.47841 131.04068 
L 174.772761 134.120843 
L 175.088112 132.334496 
L 175.383746 133.266353 
L 175.691219 137.511052 
L 175.99474 134.608129 
L 176.29826 135.092048 
L 176.60179 135.113932 
L 176.905311 139.515874 
L 177.208832 141.59029 
L 177.512353 139.388538 
L 177.815882 134.016888 
L 178.122907 134.963066 
L 178.435649 141.703288 
L 178.727542 137.540867 
L 179.05279 136.681979 
L 179.350932 134.278759 
L 179.654782 132.924798 
L 179.944463 134.602576 
L 180.25642 133.361938 
L 180.858041 137.369046 
L 181.165159 142.319381 
L 181.78713 133.925475 
L 182.09125 134.264354 
L 182.388691 133.195911 
L 182.701002 126.757987 
L 183.004819 129.285028 
L 183.308627 121.3334 
L 183.612443 126.884001 
L 183.918354 135.984456 
L 184.208322 126.906418 
L 184.525185 125.179916 
L 184.821359 132.952601 
L 185.436474 127.58903 
L 186.051596 116.23022 
L 186.342004 125.155313 
L 186.644824 123.783731 
L 186.961754 127.291344 
L 187.250447 125.756328 
L 187.561331 116.986898 
L 187.872224 127.162204 
L 188.169657 127.729997 
L 188.473135 125.606858 
L 188.780591 126.397423 
L 189.088055 119.410283 
L 189.392801 107.078057 
L 190.002967 125.984253 
L 190.904241 107.445745 
L 191.519178 123.362841 
L 192.13409 100.156048 
L 193.038894 120.512763 
L 193.335904 118.010748 
L 193.660451 109.455129 
L 193.963364 115.780146 
L 194.266277 105.909133 
L 194.56919 113.06811 
L 194.859563 108.333316 
L 195.16669 112.678555 
L 195.780951 104.944113 
L 196.088069 103.191171 
L 196.379845 102.852317 
L 196.696572 103.830403 
L 196.992189 92.673885 
L 197.604737 104.806379 
L 197.914912 96.014963 
L 198.212319 104.662469 
L 198.513366 104.792215 
L 198.814421 98.88124 
L 199.122704 97.728665 
L 199.439314 102.123816 
L 199.736147 98.414834 
L 200.349598 110.007712 
L 200.646423 95.439823 
L 200.96304 96.752033 
L 201.259873 96.08056 
L 201.556698 83.308675 
L 202.181219 108.04873 
L 202.783347 72.114372 
L 203.685347 108.496626 
L 204.006102 89.193169 
L 204.298612 86.045522 
L 204.609395 88.062022 
L 204.911033 85.313688 
L 205.212671 99.502046 
L 205.514317 101.613399 
L 205.815964 85.725694 
L 206.137715 80.137415 
L 206.43378 78.45794 
L 206.729946 76.096212 
L 207.034776 84.960314 
L 207.337664 105.689112 
L 207.657735 85.471304 
L 207.960867 95.102955 
L 208.250819 88.368169 
L 208.561475 48.996723 
L 208.865266 97.939875 
L 209.178447 105.354689 
L 209.476867 80.479103 
L 209.780827 77.141649 
L 210.076369 71.106704 
L 210.385074 56.611177 
L 210.693788 96.554829 
L 211.002502 90.978784 
L 211.605407 71.590299 
L 211.905035 84.728199 
L 212.218663 88.593018 
L 212.52628 69.463153 
L 212.815927 79.289524 
L 213.432798 88.622176 
L 213.735516 83.631762 
L 214.04347 59.866777 
L 214.351441 59.511998 
L 214.656001 99.524995 
L 214.959716 104.149558 
L 215.255865 81.908177 
L 215.573699 71.426507 
L 215.860441 55.52995 
L 216.177616 61.281605 
L 216.477143 69.648272 
L 216.776687 97.097819 
L 217.086448 103.600641 
L 217.393592 98.932549 
L 218.004889 39.949339 
L 218.311408 61.150595 
L 218.598775 60.551217 
L 218.905294 63.884532 
L 219.211812 74.452137 
L 219.518331 90.844333 
L 220.131368 74.67988 
L 220.432128 81.406072 
L 220.748222 64.950399 
L 221.033816 75.355967 
L 221.351987 69.653725 
L 221.651447 84.080356 
L 221.950906 79.816714 
L 222.250348 87.522971 
L 222.555854 78.250022 
L 223.180713 30.656957 
L 223.468215 80.264551 
L 223.778905 107.601416 
L 224.395826 37.364514 
L 224.69738 82.57601 
L 224.989949 74.411942 
L 225.300757 46.872669 
L 225.602125 64.194561 
L 225.911683 70.462293 
L 226.214723 83.262296 
L 226.519384 56.763199 
L 226.824061 58.987143 
L 227.128722 49.656145 
L 227.738061 92.102701 
L 228.042739 75.363522 
L 228.347399 67.846682 
L 228.963915 60.531335 
L 229.259626 53.776268 
L 229.555319 65.273893 
L 229.870754 64.157042 
L 230.166465 46.455419 
L 230.481883 45.894874 
L 230.777593 68.763402 
L 231.093012 69.25875 
L 231.394025 75.294036 
L 231.69573 87.38507 
L 232.002654 54.729627 
L 232.29421 36.512609 
L 232.6049 52.70711 
L 232.91559 84.668471 
L 233.20902 55.233918 
L 233.519727 57.392183 
L 233.817852 74.861242 
L 234.12307 67.455298 
L 234.428508 50.071168 
L 234.745818 46.632925 
L 235.034739 70.345795 
L 235.343267 67.130191 
L 235.658298 65.933813 
L 235.961945 50.442787 
L 236.265593 17.083636 
L 236.873327 89.783138 
L 237.164123 86.376829 
L 237.790045 29.40381 
L 238.394216 79.664592 
L 238.691615 58.483268 
L 239.007591 62.869699 
L 239.304973 52.442962 
L 239.602372 80.842609 
L 239.909431 65.003179 
L 240.213687 62.715732 
L 240.519597 65.677013 
L 240.825491 47.700853 
L 241.428277 68.735425 
L 241.732431 24.802053 
L 242.043138 45.849292 
L 242.355466 74.72345 
L 242.648187 81.544022 
L 242.956682 57.395873 
L 243.265176 52.216899 
L 243.573671 53.278776 
L 243.862896 59.538778 
L 244.179057 56.871933 
L 244.471812 64.357006 
L 244.773619 76.279278 
L 245.090524 66.157001 
L 245.699879 62.159144 
L 245.99439 84.358559 
L 246.304236 83.981695 
L 246.60101 68.194479 
L 246.907748 43.82611 
L 247.21018 57.581392 
L 247.516327 65.663731 
L 247.822491 42.642881 
L 248.138855 56.319434 
L 248.425766 80.281865 
L 248.741827 85.11591 
L 249.041252 78.933639 
L 249.347349 67.31438 
L 249.652516 28.688815 
L 249.962784 48.5432 
L 250.256721 80.700653 
L 250.566989 65.096437 
L 250.865823 66.664218 
L 251.171193 78.342066 
L 251.476563 61.310613 
L 251.781934 62.342052 
L 252.087287 77.14184 
L 252.698027 54.885323 
L 253.003397 56.095665 
L 253.308767 80.364982 
L 253.614138 79.989557 
L 253.919508 43.360801 
L 254.209577 52.325251 
L 254.52736 69.790952 
L 254.827495 76.390498 
L 255.427748 65.679573 
L 255.745548 67.714525 
L 256.042136 56.494812 
L 256.35286 63.748203 
L 256.659665 79.262078 
L 256.95676 69.471398 
L 257.253839 35.321401 
L 258.47922 98.924046 
L 259.085046 44.519111 
L 259.399739 39.736541 
L 259.687157 60.368242 
L 260.008706 55.524015 
L 260.295972 64.866483 
L 260.60119 80.64661 
L 260.904601 74.291222 
L 261.218061 79.772819 
L 261.527298 80.793986 
L 261.820543 74.038494 
L 262.133344 42.946476 
L 262.426588 55.244025 
L 262.731452 82.680265 
L 263.048002 99.452873 
L 263.644185 31.485024 
L 263.953709 57.982401 
L 264.255888 115.924513 
L 264.564061 85.327004 
L 264.877369 27.999288 
L 265.178703 61.326621 
L 265.48458 81.171763 
L 266.086403 61.035144 
L 266.399879 62.074281 
L 267.008391 81.651269 
L 267.602141 60.814317 
L 267.906414 83.431831 
L 268.524669 64.134151 
L 268.833704 81.59445 
L 269.124551 81.608738 
L 269.433569 72.092229 
L 269.742587 84.709781 
L 270.049612 88.676967 
L 270.340543 67.281565 
L 271.254306 91.602516 
L 271.558916 84.076832 
L 271.879046 60.370669 
L 272.178438 73.327257 
L 272.480819 76.316906 
L 272.780076 74.015471 
L 273.089263 82.899596 
L 273.386628 83.030722 
L 273.696997 82.650268 
L 274.003651 91.728846 
L 274.310304 84.701577 
L 274.616958 85.272104 
L 274.923628 89.956629 
L 275.209831 84.331986 
L 275.827056 48.879261 
L 276.139485 105.251482 
L 276.433541 110.227915 
L 277.040025 64.939394 
L 277.343267 61.399233 
L 277.949735 114.506319 
L 278.26512 76.826774 
L 278.870439 92.857342 
L 279.178984 55.215865 
L 279.478258 103.003259 
L 279.784202 107.614947 
L 280.099722 81.34011 
L 280.394182 81.637929 
L 280.695094 72.781789 
L 281.002204 59.375951 
L 281.309313 95.787487 
L 281.616423 114.805983 
L 281.919919 109.262995 
L 282.516068 75.064664 
L 282.834019 89.476733 
L 283.140876 85.451539 
L 283.434863 83.531314 
L 283.748458 80.721515 
L 284.046262 106.915272 
L 284.345806 106.420888 
L 284.654115 83.102619 
L 284.962424 75.265144 
L 285.270732 104.338584 
L 285.877723 85.980133 
L 286.183735 80.889371 
L 286.484715 116.871971 
L 286.776287 106.424587 
L 287.092331 83.673661 
L 287.394441 81.208651 
L 287.694103 94.582489 
L 288.003628 89.202653 
L 288.314926 88.857839 
L 288.911311 111.065051 
L 289.216867 113.272821 
L 289.522406 98.469285 
L 289.822963 92.582547 
L 290.129448 91.359746 
L 290.437689 87.602822 
L 290.745947 85.256229 
L 291.054188 104.157056 
L 291.341894 110.620596 
L 291.650135 109.925849 
L 291.958393 103.033713 
L 292.266634 83.7261 
L 292.569927 103.51759 
L 292.877087 111.018547 
L 293.184264 106.815913 
L 293.480583 90.130977 
L 293.78575 101.676003 
L 294.094363 103.13633 
L 294.387033 105.921867 
L 294.708954 117.887144 
L 295.602671 86.582129 
L 296.2304 113.981415 
L 296.521584 116.46053 
L 297.137222 109.142749 
L 297.430619 94.642234 
L 297.743977 100.909659 
L 298.053535 120.138742 
L 298.349313 117.969198 
L 298.664698 108.471408 
L 298.962452 110.868129 
L 299.267822 117.252167 
L 299.874729 102.803194 
L 300.168649 107.304794 
L 300.486685 121.077339 
L 300.786887 119.643253 
L 301.092696 110.694089 
L 301.402272 117.573849 
L 301.701528 132.176374 
L 302.005345 110.937432 
L 302.31085 102.662917 
L 302.620409 120.954142 
L 303.225289 109.587611 
L 303.516541 109.947859 
L 303.830169 122.811347 
L 304.143814 125.182268 
L 304.447665 128.535158 
L 304.748661 130.536638 
L 305.350636 112.844898 
L 305.966088 123.909089 
L 306.272641 118.981363 
L 306.567709 131.512239 
L 306.883837 131.161233 
L 307.178905 115.714916 
L 307.480273 115.456553 
L 307.782097 121.591688 
L 308.094002 124.210175 
L 308.389375 135.355921 
L 308.707479 122.722669 
L 309.009657 125.927817 
L 309.299186 130.304241 
L 309.602327 131.198985 
L 309.927119 127.600475 
L 310.533384 135.523553 
L 310.836524 134.525751 
L 311.139649 126.786862 
L 311.442789 130.578654 
L 311.74593 132.290951 
L 312.049071 129.860975 
L 312.352195 136.876217 
L 312.655336 133.482974 
L 312.958477 132.746261 
L 313.261618 130.820833 
L 313.867883 140.096575 
L 314.171024 139.070447 
L 314.474148 134.978077 
L 314.777289 136.918515 
L 315.104242 133.61612 
L 315.390056 139.353437 
L 315.699699 139.342499 
L 316.009325 130.220334 
L 316.318951 131.182628 
L 316.603397 142.542676 
L 316.918697 143.239742 
L 317.217177 139.957503 
L 317.517751 140.885128 
L 317.841445 140.339087 
L 318.142018 143.219561 
L 318.442609 144.116034 
L 319.050816 139.953239 
L 319.353873 149.951135 
L 319.65465 146.840484 
L 319.955426 140.246245 
L 320.256203 143.980669 
L 320.575894 144.661053 
L 320.870506 147.823757 
L 321.189691 148.704999 
L 321.48432 148.520361 
L 321.77895 149.164199 
L 322.098134 150.235817 
L 322.392747 152.236628 
L 322.70776 155.355974 
L 323.014937 152.941395 
L 323.30016 148.797064 
L 323.609533 149.983215 
L 323.923279 153.138442 
L 324.526656 156.633745 
L 324.823498 154.592597 
L 325.146668 154.02817 
L 325.748154 160.007571 
L 326.054689 158.810603 
L 326.361242 153.665561 
L 326.667777 160.796777 
L 326.952071 161.987267 
L 327.274735 160.11653 
L 327.572573 156.807631 
L 328.183144 164.523945 
L 328.483465 165.04503 
L 328.783161 162.681161 
L 329.101805 162.043383 
L 329.398376 162.078954 
L 329.694948 162.896702 
L 330.0104 166.426424 
L 330.306971 167.94807 
L 330.60356 167.658347 
L 330.929787 168.165028 
L 331.223386 167.056775 
L 331.516951 166.942015 
L 331.844445 169.568839 
L 332.131373 169.497553 
L 332.444613 171.085585 
L 332.752348 170.352613 
L 333.353107 173.75834 
L 333.667496 172.089725 
L 333.953309 171.92674 
L 334.267698 174.960175 
L 334.582086 174.151303 
L 334.870754 174.595313 
L 335.185143 176.571962 
L 335.499531 176.635979 
L 335.779197 176.225304 
L 336.092404 176.312881 
L 336.704917 179.265966 
L 337.605727 180.840134 
L 337.937037 180.620968 
L 339.153941 183.934644 
L 339.451746 183.934212 
L 339.74955 184.288093 
L 340.345142 186.354765 
L 340.663786 186.961983 
L 340.958618 187.043249 
L 341.875843 188.613236 
L 342.478595 190.453398 
L 343.09116 191.43718 
L 344.024276 193.034087 
L 344.605108 194.110229 
L 344.927788 194.645405 
L 345.540876 196.208307 
L 346.150738 196.598692 
L 346.754149 196.950917 
L 347.357577 197.267427 
L 348.283989 198.068284 
L 348.572877 198.078223 
L 349.170579 198.554359 
L 350.115231 199.182393 
L 350.719824 199.482492 
L 351.928976 200.482498 
L 352.231273 200.547212 
L 353.14002 201.125363 
L 353.437419 201.448524 
L 354.344477 202.082508 
L 360.459683 206.139628 
L 361.660324 206.984745 
L 363.172246 207.997332 
L 372.619975 214.345223 
L 372.619975 214.345223 
" style="fill:none;stroke:#1f77b4;stroke-linecap:square;stroke-width:1.5;"/>
   </g>
   <g id="line2d_30">
    <path clip-path="url(#p25379934ac)" d="M 68.546307 214.756364 
L 96.215728 166.178277 
L 123.88515 98.168955 
L 151.554571 127.315807 
L 179.223993 137.031424 
L 206.893414 83.595528 
L 234.562836 59.306485 
L 262.232257 69.022102 
L 289.901679 98.168955 
L 317.5711 141.889233 
L 345.240522 195.325129 
L 372.909943 214.756364 
" style="fill:none;stroke:#ff7f0e;stroke-linecap:square;stroke-width:1.5;"/>
   </g>
   <g id="patch_3">
    <path d="M 53.328125 224.64 
L 53.328125 7.2 
" style="fill:none;stroke:#000000;stroke-linecap:square;stroke-linejoin:miter;stroke-width:0.8;"/>
   </g>
   <g id="patch_4">
    <path d="M 388.128125 224.64 
L 388.128125 7.2 
" style="fill:none;stroke:#000000;stroke-linecap:square;stroke-linejoin:miter;stroke-width:0.8;"/>
   </g>
   <g id="patch_5">
    <path d="M 53.328125 224.64 
L 388.128125 224.64 
" style="fill:none;stroke:#000000;stroke-linecap:square;stroke-linejoin:miter;stroke-width:0.8;"/>
   </g>
   <g id="patch_6">
    <path d="M 53.328125 7.2 
L 388.128125 7.2 
" style="fill:none;stroke:#000000;stroke-linecap:square;stroke-linejoin:miter;stroke-width:0.8;"/>
   </g>
   <g id="legend_1">
    <g id="patch_7">
     <path d="M 296.29375 44.55625 
L 381.128125 44.55625 
Q 383.128125 44.55625 383.128125 42.55625 
L 383.128125 14.2 
Q 383.128125 12.2 381.128125 12.2 
L 296.29375 12.2 
Q 294.29375 12.2 294.29375 14.2 
L 294.29375 42.55625 
Q 294.29375 44.55625 296.29375 44.55625 
z
" style="fill:#ffffff;opacity:0.8;stroke:#cccccc;stroke-linejoin:miter;"/>
    </g>
    <g id="line2d_31">
     <path d="M 298.29375 20.298437 
L 318.29375 20.298437 
" style="fill:none;stroke:#1f77b4;stroke-linecap:square;stroke-width:1.5;"/>
    </g>
    <g id="line2d_32"/>
    <g id="text_17">
     <!-- simulation -->
     <g transform="translate(326.29375 23.798437)scale(0.1 -0.1)">
      <defs>
       <path d="M 544 1381 
L 544 3500 
L 1119 3500 
L 1119 1403 
Q 1119 906 1312 657 
Q 1506 409 1894 409 
Q 2359 409 2629 706 
Q 2900 1003 2900 1516 
L 2900 3500 
L 3475 3500 
L 3475 0 
L 2900 0 
L 2900 538 
Q 2691 219 2414 64 
Q 2138 -91 1772 -91 
Q 1169 -91 856 284 
Q 544 659 544 1381 
z
M 1991 3584 
L 1991 3584 
z
" id="DejaVuSans-75" transform="scale(0.015625)"/>
       <path d="M 603 4863 
L 1178 4863 
L 1178 0 
L 603 0 
L 603 4863 
z
" id="DejaVuSans-6c" transform="scale(0.015625)"/>
       <path d="M 2194 1759 
Q 1497 1759 1228 1600 
Q 959 1441 959 1056 
Q 959 750 1161 570 
Q 1363 391 1709 391 
Q 2188 391 2477 730 
Q 2766 1069 2766 1631 
L 2766 1759 
L 2194 1759 
z
M 3341 1997 
L 3341 0 
L 2766 0 
L 2766 531 
Q 2569 213 2275 61 
Q 1981 -91 1556 -91 
Q 1019 -91 701 211 
Q 384 513 384 1019 
Q 384 1609 779 1909 
Q 1175 2209 1959 2209 
L 2766 2209 
L 2766 2266 
Q 2766 2663 2505 2880 
Q 2244 3097 1772 3097 
Q 1472 3097 1187 3025 
Q 903 2953 641 2809 
L 641 3341 
Q 956 3463 1253 3523 
Q 1550 3584 1831 3584 
Q 2591 3584 2966 3190 
Q 3341 2797 3341 1997 
z
" id="DejaVuSans-61" transform="scale(0.015625)"/>
       <path d="M 1172 4494 
L 1172 3500 
L 2356 3500 
L 2356 3053 
L 1172 3053 
L 1172 1153 
Q 1172 725 1289 603 
Q 1406 481 1766 481 
L 2356 481 
L 2356 0 
L 1766 0 
Q 1100 0 847 248 
Q 594 497 594 1153 
L 594 3053 
L 172 3053 
L 172 3500 
L 594 3500 
L 594 4494 
L 1172 4494 
z
" id="DejaVuSans-74" transform="scale(0.015625)"/>
       <path d="M 1959 3097 
Q 1497 3097 1228 2736 
Q 959 2375 959 1747 
Q 959 1119 1226 758 
Q 1494 397 1959 397 
Q 2419 397 2687 759 
Q 2956 1122 2956 1747 
Q 2956 2369 2687 2733 
Q 2419 3097 1959 3097 
z
M 1959 3584 
Q 2709 3584 3137 3096 
Q 3566 2609 3566 1747 
Q 3566 888 3137 398 
Q 2709 -91 1959 -91 
Q 1206 -91 779 398 
Q 353 888 353 1747 
Q 353 2609 779 3096 
Q 1206 3584 1959 3584 
z
" id="DejaVuSans-6f" transform="scale(0.015625)"/>
       <path d="M 3513 2113 
L 3513 0 
L 2938 0 
L 2938 2094 
Q 2938 2591 2744 2837 
Q 2550 3084 2163 3084 
Q 1697 3084 1428 2787 
Q 1159 2491 1159 1978 
L 1159 0 
L 581 0 
L 581 3500 
L 1159 3500 
L 1159 2956 
Q 1366 3272 1645 3428 
Q 1925 3584 2291 3584 
Q 2894 3584 3203 3211 
Q 3513 2838 3513 2113 
z
" id="DejaVuSans-6e" transform="scale(0.015625)"/>
      </defs>
      <use xlink:href="#DejaVuSans-73"/>
      <use x="52.099609" xlink:href="#DejaVuSans-69"/>
      <use x="79.882812" xlink:href="#DejaVuSans-6d"/>
      <use x="177.294922" xlink:href="#DejaVuSans-75"/>
      <use x="240.673828" xlink:href="#DejaVuSans-6c"/>
      <use x="268.457031" xlink:href="#DejaVuSans-61"/>
      <use x="329.736328" xlink:href="#DejaVuSans-74"/>
      <use x="368.945312" xlink:href="#DejaVuSans-69"/>
      <use x="396.728516" xlink:href="#DejaVuSans-6f"/>
      <use x="457.910156" xlink:href="#DejaVuSans-6e"/>
     </g>
    </g>
    <g id="line2d_33">
     <path d="M 298.29375 34.976562 
L 318.29375 34.976562 
" style="fill:none;stroke:#ff7f0e;stroke-linecap:square;stroke-width:1.5;"/>
    </g>
    <g id="line2d_34"/>
    <g id="text_18">
     <!-- prescribed -->
     <g transform="translate(326.29375 38.476562)scale(0.1 -0.1)">
      <defs>
       <path d="M 1159 525 
L 1159 -1331 
L 581 -1331 
L 581 3500 
L 1159 3500 
L 1159 2969 
Q 1341 3281 1617 3432 
Q 1894 3584 2278 3584 
Q 2916 3584 3314 3078 
Q 3713 2572 3713 1747 
Q 3713 922 3314 415 
Q 2916 -91 2278 -91 
Q 1894 -91 1617 61 
Q 1341 213 1159 525 
z
M 3116 1747 
Q 3116 2381 2855 2742 
Q 2594 3103 2138 3103 
Q 1681 3103 1420 2742 
Q 1159 2381 1159 1747 
Q 1159 1113 1420 752 
Q 1681 391 2138 391 
Q 2594 391 2855 752 
Q 3116 1113 3116 1747 
z
" id="DejaVuSans-70" transform="scale(0.015625)"/>
       <path d="M 2631 2963 
Q 2534 3019 2420 3045 
Q 2306 3072 2169 3072 
Q 1681 3072 1420 2755 
Q 1159 2438 1159 1844 
L 1159 0 
L 581 0 
L 581 3500 
L 1159 3500 
L 1159 2956 
Q 1341 3275 1631 3429 
Q 1922 3584 2338 3584 
Q 2397 3584 2469 3576 
Q 2541 3569 2628 3553 
L 2631 2963 
z
" id="DejaVuSans-72" transform="scale(0.015625)"/>
       <path d="M 3122 3366 
L 3122 2828 
Q 2878 2963 2633 3030 
Q 2388 3097 2138 3097 
Q 1578 3097 1268 2742 
Q 959 2388 959 1747 
Q 959 1106 1268 751 
Q 1578 397 2138 397 
Q 2388 397 2633 464 
Q 2878 531 3122 666 
L 3122 134 
Q 2881 22 2623 -34 
Q 2366 -91 2075 -91 
Q 1284 -91 818 406 
Q 353 903 353 1747 
Q 353 2603 823 3093 
Q 1294 3584 2113 3584 
Q 2378 3584 2631 3529 
Q 2884 3475 3122 3366 
z
" id="DejaVuSans-63" transform="scale(0.015625)"/>
       <path d="M 3116 1747 
Q 3116 2381 2855 2742 
Q 2594 3103 2138 3103 
Q 1681 3103 1420 2742 
Q 1159 2381 1159 1747 
Q 1159 1113 1420 752 
Q 1681 391 2138 391 
Q 2594 391 2855 752 
Q 3116 1113 3116 1747 
z
M 1159 2969 
Q 1341 3281 1617 3432 
Q 1894 3584 2278 3584 
Q 2916 3584 3314 3078 
Q 3713 2572 3713 1747 
Q 3713 922 3314 415 
Q 2916 -91 2278 -91 
Q 1894 -91 1617 61 
Q 1341 213 1159 525 
L 1159 0 
L 581 0 
L 581 4863 
L 1159 4863 
L 1159 2969 
z
" id="DejaVuSans-62" transform="scale(0.015625)"/>
       <path d="M 2906 2969 
L 2906 4863 
L 3481 4863 
L 3481 0 
L 2906 0 
L 2906 525 
Q 2725 213 2448 61 
Q 2172 -91 1784 -91 
Q 1150 -91 751 415 
Q 353 922 353 1747 
Q 353 2572 751 3078 
Q 1150 3584 1784 3584 
Q 2172 3584 2448 3432 
Q 2725 3281 2906 2969 
z
M 947 1747 
Q 947 1113 1208 752 
Q 1469 391 1925 391 
Q 2381 391 2643 752 
Q 2906 1113 2906 1747 
Q 2906 2381 2643 2742 
Q 2381 3103 1925 3103 
Q 1469 3103 1208 2742 
Q 947 2381 947 1747 
z
" id="DejaVuSans-64" transform="scale(0.015625)"/>
      </defs>
      <use xlink:href="#DejaVuSans-70"/>
      <use x="63.476562" xlink:href="#DejaVuSans-72"/>
      <use x="102.339844" xlink:href="#DejaVuSans-65"/>
      <use x="163.863281" xlink:href="#DejaVuSans-73"/>
      <use x="215.962891" xlink:href="#DejaVuSans-63"/>
      <use x="270.943359" xlink:href="#DejaVuSans-72"/>
      <use x="312.056641" xlink:href="#DejaVuSans-69"/>
      <use x="339.839844" xlink:href="#DejaVuSans-62"/>
      <use x="403.316406" xlink:href="#DejaVuSans-65"/>
      <use x="464.839844" xlink:href="#DejaVuSans-64"/>
     </g>
    </g>
   </g>
  </g>
 </g>
 <defs>
  <clipPath id="p25379934ac">
   <rect height="217.44" width="334.8" x="53.328125" y="7.2"/>
  </clipPath>
 </defs>
</svg>
