<?xml version="1.0" encoding="UTF-8" standalone="no"?>
<!DOCTYPE svg PUBLIC "-//W3C//DTD SVG 1.1//EN" "http://www.w3.org/Graphics/SVG/1.1/DTD/svg11.dtd">
<svg width="100%" height="100%" viewBox="0 0 1274 1260" version="1.1" xmlns="http://www.w3.org/2000/svg" xmlns:xlink="http://www.w3.org/1999/xlink" xml:space="preserve" xmlns:serif="http://www.serif.com/" style="fill-rule:evenodd;clip-rule:evenodd;stroke-linecap:round;stroke-linejoin:round;stroke-miterlimit:1.5;">
    <g id="ArtBoard1" transform="matrix(0.969226,0,0,0.97867,-154.097,-117.794)">
        <rect x="158.99" y="120.362" width="1313.9" height="1286.65" style="fill:none;"/>
        <g transform="matrix(1.83508,0,0,1.81738,-1103.75,-1619.23)">
            <rect x="714.159" y="976.571" width="664.058" height="664.058" style="fill:white;stroke:black;stroke-width:4.69px;"/>
        </g>
        <g transform="matrix(1.94186,0,0,1.92312,-419.421,-2138.24)">
            <circle cx="636.255" cy="1506.53" r="313.773" style="fill:rgb(255,165,72);"/>
        </g>
        <g transform="matrix(1.03175,0,0,1.0218,-1011.81,-1051.27)">
            <g transform="matrix(1.77381,0,0,2.7287,-913.95,-1676.14)">
                <rect x="1181.1" y="1047.11" width="133.171" height="86.569" style="fill:none;stroke:rgb(179,179,179);stroke-width:0.91px;stroke-linejoin:miter;"/>
            </g>
            <g transform="matrix(1.77381,0,0,2.7287,-913.95,-1439.92)">
                <rect x="1181.1" y="1047.11" width="133.171" height="86.569" style="fill:none;stroke:rgb(179,179,179);stroke-width:0.91px;stroke-linejoin:miter;"/>
            </g>
            <g transform="matrix(1.77381,0,0,2.7287,-913.95,-1203.7)">
                <rect x="1181.1" y="1047.11" width="133.171" height="86.569" style="fill:none;stroke:rgb(179,179,179);stroke-width:0.91px;stroke-linejoin:miter;"/>
            </g>
            <g transform="matrix(1.77381,0,0,2.7287,-913.95,-965.483)">
                <rect x="1181.1" y="1047.11" width="133.171" height="86.569" style="fill:none;stroke:rgb(179,179,179);stroke-width:0.91px;stroke-linejoin:miter;"/>
            </g>
            <g transform="matrix(1.77381,0,0,2.7287,-913.95,-731.262)">
                <rect x="1181.1" y="1047.11" width="133.171" height="86.569" style="fill:none;stroke:rgb(179,179,179);stroke-width:0.91px;stroke-linejoin:miter;"/>
            </g>
            <g transform="matrix(1.77381,0,0,2.7287,-677.729,-1676.14)">
                <rect x="1181.1" y="1047.11" width="133.171" height="86.569" style="fill:none;stroke:rgb(179,179,179);stroke-width:0.91px;stroke-linejoin:miter;"/>
            </g>
            <g transform="matrix(1.77381,0,0,2.7287,-677.729,-1439.92)">
                <rect x="1181.1" y="1047.11" width="133.171" height="86.569" style="fill:none;stroke:rgb(179,179,179);stroke-width:0.91px;stroke-linejoin:miter;"/>
            </g>
            <g transform="matrix(1.77381,0,0,2.7287,-677.729,-1203.7)">
                <rect x="1181.1" y="1047.11" width="133.171" height="86.569" style="fill:none;stroke:rgb(179,179,179);stroke-width:0.91px;stroke-linejoin:miter;"/>
            </g>
            <g transform="matrix(1.77381,0,0,2.7287,-677.729,-967.483)">
                <rect x="1181.1" y="1047.11" width="133.171" height="86.569" style="fill:none;stroke:rgb(179,179,179);stroke-width:0.91px;stroke-linejoin:miter;"/>
            </g>
            <g transform="matrix(1.77381,0,0,2.7287,-677.729,-731.262)">
                <rect x="1181.1" y="1047.11" width="133.171" height="86.569" style="fill:none;stroke:rgb(179,179,179);stroke-width:0.91px;stroke-linejoin:miter;"/>
            </g>
            <g transform="matrix(1.77381,0,0,2.7287,-441.509,-1676.14)">
                <rect x="1181.1" y="1047.11" width="133.171" height="86.569" style="fill:none;stroke:rgb(179,179,179);stroke-width:0.91px;stroke-linejoin:miter;"/>
            </g>
            <g transform="matrix(1.77381,0,0,2.7287,-441.509,-1439.92)">
                <rect x="1181.1" y="1047.11" width="133.171" height="86.569" style="fill:none;stroke:rgb(179,179,179);stroke-width:0.91px;stroke-linejoin:miter;"/>
            </g>
            <g transform="matrix(1.77381,0,0,2.7287,-441.509,-1203.7)">
                <rect x="1181.1" y="1047.11" width="133.171" height="86.569" style="fill:none;stroke:rgb(179,179,179);stroke-width:0.91px;stroke-linejoin:miter;"/>
            </g>
            <g transform="matrix(1.77381,0,0,2.7287,-441.509,-967.483)">
                <rect x="1181.1" y="1047.11" width="133.171" height="86.569" style="fill:none;stroke:rgb(179,179,179);stroke-width:0.91px;stroke-linejoin:miter;"/>
            </g>
            <g transform="matrix(1.77381,0,0,2.7287,-441.509,-731.262)">
                <rect x="1181.1" y="1047.11" width="133.171" height="86.569" style="fill:none;stroke:rgb(179,179,179);stroke-width:0.91px;stroke-linejoin:miter;"/>
            </g>
            <g transform="matrix(1.77381,0,0,2.7287,-205.288,-1676.14)">
                <rect x="1181.1" y="1047.11" width="133.171" height="86.569" style="fill:none;stroke:rgb(179,179,179);stroke-width:0.91px;stroke-linejoin:miter;"/>
            </g>
            <g transform="matrix(1.77381,0,0,2.7287,-205.288,-1439.92)">
                <rect x="1181.1" y="1047.11" width="133.171" height="86.569" style="fill:none;stroke:rgb(179,179,179);stroke-width:0.91px;stroke-linejoin:miter;"/>
            </g>
            <g transform="matrix(1.77381,0,0,2.7287,-205.288,-1203.7)">
                <rect x="1181.1" y="1047.11" width="133.171" height="86.569" style="fill:none;stroke:rgb(179,179,179);stroke-width:0.91px;stroke-linejoin:miter;"/>
            </g>
            <g transform="matrix(1.77381,0,0,2.7287,-205.288,-967.483)">
                <rect x="1181.1" y="1047.11" width="133.171" height="86.569" style="fill:none;stroke:rgb(179,179,179);stroke-width:0.91px;stroke-linejoin:miter;"/>
            </g>
            <g transform="matrix(1.77381,0,0,2.7287,-205.288,-731.262)">
                <rect x="1181.1" y="1047.11" width="133.171" height="86.569" style="fill:none;stroke:rgb(179,179,179);stroke-width:0.91px;stroke-linejoin:miter;"/>
            </g>
            <g transform="matrix(1.77381,0,0,2.7287,30.9323,-1676.14)">
                <rect x="1181.1" y="1047.11" width="133.171" height="86.569" style="fill:none;stroke:rgb(179,179,179);stroke-width:0.91px;stroke-linejoin:miter;"/>
            </g>
            <g transform="matrix(1.77381,0,0,2.7287,30.9323,-1439.92)">
                <rect x="1181.1" y="1047.11" width="133.171" height="86.569" style="fill:none;stroke:rgb(179,179,179);stroke-width:0.91px;stroke-linejoin:miter;"/>
            </g>
            <g transform="matrix(1.77381,0,0,2.7287,30.9323,-1203.7)">
                <rect x="1181.1" y="1047.11" width="133.171" height="86.569" style="fill:none;stroke:rgb(179,179,179);stroke-width:0.91px;stroke-linejoin:miter;"/>
            </g>
            <g transform="matrix(1.77381,0,0,2.7287,30.9323,-967.483)">
                <rect x="1181.1" y="1047.11" width="133.171" height="86.569" style="fill:none;stroke:rgb(179,179,179);stroke-width:0.91px;stroke-linejoin:miter;"/>
            </g>
            <g transform="matrix(1.77381,0,0,2.7287,30.9323,-731.262)">
                <rect x="1181.1" y="1047.11" width="133.171" height="86.569" style="fill:none;stroke:rgb(179,179,179);stroke-width:0.91px;stroke-linejoin:miter;"/>
            </g>
            <g transform="matrix(1,0,0,1,560.243,1183.7)">
                <text x="1500.69px" y="1162.13px" style="font-family:'ArialMT', 'Arial', sans-serif;font-size:83.333px;">Surface</text>
            </g>
        </g>
        <g transform="matrix(1.3044,0,0,1.0218,-548.548,-569.546)">
            <g transform="matrix(0.79098,-0,-0,1,542.425,675.192)">
                <path d="M1019.15,620.908L1056.65,633.408L1019.15,645.908L1019.15,620.908Z"/>
                <path d="M636.884,633.408L1026.65,633.408" style="fill:none;stroke:black;stroke-width:8.33px;stroke-dasharray:16.67,25,0,0;"/>
            </g>
        </g>
        <g transform="matrix(1.77008,0,0,1.753,-1174.48,-1327.56)">
            <text x="1124.35px" y="1268.96px" style="font-family:'ArialMT', 'Arial', sans-serif;font-size:48.574px;">XYZ</text>
        </g>
        <g transform="matrix(1.03175,0,0,1.0218,-254.646,-560.228)">
            <circle cx="1037.79" cy="1299.48" r="8.397" style="fill:rgb(255,165,72);stroke:black;stroke-width:41.67px;stroke-linejoin:miter;stroke-dasharray:41.67,2.08,0,0;"/>
        </g>
        <g transform="matrix(1.03175,0,0,1.0218,-740.778,-652.941)">
            <text x="1500.69px" y="1162.13px" style="font-family:'ArialMT', 'Arial', sans-serif;font-size:83.333px;">A</text>
            <text x="1556.27px" y="1189.88px" style="font-family:'ArialMT', 'Arial', sans-serif;font-size:48.583px;">Fire</text>
        </g>
        <g transform="matrix(1.03175,0,0,1.0218,-585.983,-468.077)">
            <text x="1500.69px" y="1162.13px" style="font-family:'ArialMT', 'Arial', sans-serif;font-size:83.333px;">v</text>
            <text x="1542.35px" y="1189.88px" style="font-family:'ArialMT', 'Arial', sans-serif;font-size:48.583px;">spread</text>
        </g>
    </g>
</svg>
