<?xml version="1.0" encoding="utf-8" standalone="no"?>
<!DOCTYPE svg PUBLIC "-//W3C//DTD SVG 1.1//EN"
  "http://www.w3.org/Graphics/SVG/1.1/DTD/svg11.dtd">
<svg height="211.757344pt" version="1.1" viewBox="0 0 238.734625 211.757344" width="238.734625pt" xmlns="http://www.w3.org/2000/svg" xmlns:xlink="http://www.w3.org/1999/xlink">
 <metadata>
  <rdf:RDF xmlns:cc="http://creativecommons.org/ns#" xmlns:dc="http://purl.org/dc/elements/1.1/" xmlns:rdf="http://www.w3.org/1999/02/22-rdf-syntax-ns#">
   <cc:Work>
    <dc:type rdf:resource="http://purl.org/dc/dcmitype/StillImage"/>
    <dc:date>2021-06-03T18:43:17.705646</dc:date>
    <dc:format>image/svg+xml</dc:format>
    <dc:creator>
     <cc:Agent>
      <dc:title>Matplotlib v3.4.1, https://matplotlib.org/</dc:title>
     </cc:Agent>
    </dc:creator>
   </cc:Work>
  </rdf:RDF>
 </metadata>
 <defs>
  <style type="text/css">*{stroke-linecap:butt;stroke-linejoin:round;}</style>
 </defs>
 <g id="figure_1">
  <g id="patch_1">
   <path d="M 0 211.757344 
L 238.734625 211.757344 
L 238.734625 0 
L 0 0 
z
" style="fill:none;"/>
  </g>
  <g id="axes_1">
   <g id="patch_2">
    <path d="M 41.325 174.079219 
L 175.245 174.079219 
L 175.245 10.999219 
L 41.325 10.999219 
z
" style="fill:#ffffff;"/>
   </g>
   <g id="PathCollection_1">
    <path clip-path="url(#p20d40cfef2)" d="M 46.905 174.079219 
L 52.485 174.079219 
L 58.065 174.079219 
L 63.645 174.079219 
L 69.225 174.079219 
L 74.805 174.079219 
L 80.385 174.079219 
L 85.965 174.079219 
L 91.545 174.079219 
L 97.125 174.079219 
L 102.705 174.079219 
L 108.285 174.079219 
L 113.865 174.079219 
L 119.445 174.079219 
L 125.025 174.079219 
L 130.605 174.079219 
L 136.185 174.079219 
L 141.765 174.079219 
L 147.345 174.079219 
L 152.925 174.079219 
L 158.505 174.079219 
L 164.085 174.079219 
L 169.665 174.079219 
L 175.245 174.079219 
L 175.245 167.284219 
L 175.245 160.489219 
L 175.245 153.694219 
L 175.245 146.899219 
L 175.245 140.104219 
L 175.245 133.309219 
L 175.245 126.514219 
L 175.245 119.719219 
L 175.245 112.924219 
L 175.245 106.129219 
L 175.245 99.334219 
L 175.245 92.539219 
L 175.245 85.744219 
L 175.245 78.949219 
L 175.245 72.154219 
L 175.245 65.359219 
L 175.245 58.564219 
L 175.245 51.769219 
L 175.245 44.974219 
L 175.245 38.179219 
L 175.245 31.384219 
L 175.245 24.589219 
L 175.245 17.794219 
L 175.245 10.999219 
L 169.665 10.999219 
L 164.085 10.999219 
L 158.505 10.999219 
L 152.925 10.999219 
L 147.345 10.999219 
L 141.765 10.999219 
L 136.185 10.999219 
L 130.605 10.999219 
L 125.025 10.999219 
L 119.445 10.999219 
L 113.865 10.999219 
L 108.285 10.999219 
L 102.705 10.999219 
L 97.125 10.999219 
L 91.545 10.999219 
L 85.965 10.999219 
L 80.385 10.999219 
L 74.805 10.999219 
L 69.225 10.999219 
L 63.645 10.999219 
L 58.065 10.999219 
L 52.485 10.999219 
L 46.905 10.999219 
L 41.325 10.999219 
L 41.325 17.794219 
L 41.325 24.589219 
L 41.325 31.384219 
L 41.325 38.179219 
L 41.325 44.974219 
L 41.325 51.769219 
L 41.325 58.564219 
L 41.325 65.359219 
L 41.325 72.154219 
L 41.325 78.949219 
L 41.325 85.744219 
L 41.325 92.539219 
L 41.325 99.334219 
L 41.325 106.129219 
L 41.325 112.924219 
L 41.325 119.719219 
L 41.325 126.514219 
L 41.325 133.309219 
L 41.325 140.104219 
L 41.325 146.899219 
L 41.325 153.694219 
L 41.325 160.489219 
L 41.325 167.284219 
L 41.325 174.079219 
z
M 105.2639 99.334219 
L 102.705 97.443876 
L 97.125 97.990631 
L 95.151358 92.539219 
L 97.125 87.479999 
L 97.587224 85.744219 
L 100.590591 78.949219 
L 99.55116 72.154219 
L 98.39156 65.359219 
L 102.705 60.903803 
L 108.285 60.588252 
L 113.865 60.718074 
L 119.445 62.217167 
L 123.472679 65.359219 
L 125.025 66.708614 
L 128.674859 72.154219 
L 128.887179 78.949219 
L 130.605 85.087149 
L 130.90721 85.744219 
L 132.477228 92.539219 
L 130.605 95.241787 
L 128.127512 99.334219 
L 125.025 102.717263 
L 119.445 105.19178 
L 113.865 104.074518 
L 108.285 102.002833 
z
" style="fill:#0000d1;"/>
   </g>
   <g id="PathCollection_2">
    <path clip-path="url(#p20d40cfef2)" d="M 108.285 102.002833 
L 113.865 104.074518 
L 119.445 105.19178 
L 125.025 102.717263 
L 128.127512 99.334219 
L 130.605 95.241787 
L 132.477228 92.539219 
L 130.90721 85.744219 
L 130.605 85.087149 
L 128.887179 78.949219 
L 128.674859 72.154219 
L 125.025 66.708614 
L 123.472679 65.359219 
L 119.445 62.217167 
L 113.865 60.718074 
L 108.285 60.588252 
L 102.705 60.903803 
L 98.39156 65.359219 
L 99.55116 72.154219 
L 100.590591 78.949219 
L 97.587224 85.744219 
L 97.125 87.479999 
L 95.151358 92.539219 
L 97.125 97.990631 
L 102.705 97.443876 
L 105.2639 99.334219 
z
M 116.166926 99.334219 
L 113.865 98.809588 
L 108.285 96.818157 
L 104.231328 92.539219 
L 103.519877 85.744219 
L 105.175973 78.949219 
L 108.285 72.942189 
L 109.877308 72.154219 
L 113.865 68.363756 
L 118.797425 72.154219 
L 119.445 72.634329 
L 122.254762 78.949219 
L 125.025 83.176475 
L 126.535082 85.744219 
L 127.208495 92.539219 
L 125.025 95.56078 
L 121.391714 99.334219 
L 119.445 100.86117 
z
" style="fill:#0058ff;"/>
   </g>
   <g id="PathCollection_3">
    <path clip-path="url(#p20d40cfef2)" d="M 119.445 100.86117 
L 121.391714 99.334219 
L 125.025 95.56078 
L 127.208495 92.539219 
L 126.535082 85.744219 
L 125.025 83.176475 
L 122.254762 78.949219 
L 119.445 72.634329 
L 118.797425 72.154219 
L 113.865 68.363756 
L 109.877308 72.154219 
L 108.285 72.942189 
L 105.175973 78.949219 
L 103.519877 85.744219 
L 104.231328 92.539219 
L 108.285 96.818157 
L 113.865 98.809588 
L 116.166926 99.334219 
z
M 107.330735 92.539219 
L 105.134491 85.744219 
L 108.078113 78.949219 
L 108.285 78.549487 
L 113.865 76.178838 
L 116.834137 78.949219 
L 119.445 80.315317 
L 123.408055 85.744219 
L 123.296588 92.539219 
L 119.445 96.748864 
L 113.865 96.690714 
L 108.285 93.546513 
z
" style="fill:#06ecf1;"/>
   </g>
   <g id="PathCollection_4">
    <path clip-path="url(#p20d40cfef2)" d="M 108.285 93.546513 
L 113.865 96.690714 
L 119.445 96.748864 
L 123.296588 92.539219 
L 123.408055 85.744219 
L 119.445 80.315317 
L 116.834137 78.949219 
L 113.865 76.178838 
L 108.285 78.549487 
L 108.078113 78.949219 
L 105.134491 85.744219 
L 107.330735 92.539219 
z
M 110.623608 92.539219 
L 108.285 89.677454 
L 106.749104 85.744219 
L 108.285 82.305993 
L 113.865 80.020683 
L 119.445 83.797796 
L 120.865873 85.744219 
L 119.642841 92.539219 
L 119.445 92.755451 
L 113.865 94.57184 
z
" style="fill:#7dff7a;"/>
   </g>
   <g id="PathCollection_5">
    <path clip-path="url(#p20d40cfef2)" d="M 113.865 94.57184 
L 119.445 92.755451 
L 119.642841 92.539219 
L 120.865873 85.744219 
L 119.445 83.797796 
L 113.865 80.020683 
L 108.285 82.305993 
L 106.749104 85.744219 
L 108.285 89.677454 
L 110.623608 92.539219 
z
M 108.420511 85.744219 
L 113.865 81.95511 
L 118.419425 85.744219 
L 113.865 92.400883 
z
" style="fill:#f1fc06;"/>
   </g>
   <g id="PathCollection_6">
    <path clip-path="url(#p20d40cfef2)" d="M 113.865 92.400883 
L 118.419425 85.744219 
L 113.865 81.95511 
L 108.420511 85.744219 
z
M 111.200047 85.744219 
L 113.865 83.889536 
L 116.094287 85.744219 
L 113.865 89.002504 
z
" style="fill:#ff7300;"/>
   </g>
   <g id="PathCollection_7">
    <path clip-path="url(#p20d40cfef2)" d="M 113.865 89.002504 
L 116.094287 85.744219 
L 113.865 83.889536 
L 111.200047 85.744219 
z
" style="fill:#d10000;"/>
   </g>
   <g id="matplotlib.axis_1">
    <g id="xtick_1">
     <g id="line2d_1">
      <defs>
       <path d="M 0 0 
L 0 3.5 
" id="mc8065cdd3a" style="stroke:#000000;stroke-width:0.8;"/>
      </defs>
      <g>
       <use style="stroke:#000000;stroke-width:0.8;" x="41.325" xlink:href="#mc8065cdd3a" y="174.079219"/>
      </g>
     </g>
     <g id="text_1">
      <!-- 0 -->
      <g transform="translate(38.14375 188.677656)scale(0.1 -0.1)">
       <defs>
        <path d="M 2034 4250 
Q 1547 4250 1301 3770 
Q 1056 3291 1056 2328 
Q 1056 1369 1301 889 
Q 1547 409 2034 409 
Q 2525 409 2770 889 
Q 3016 1369 3016 2328 
Q 3016 3291 2770 3770 
Q 2525 4250 2034 4250 
z
M 2034 4750 
Q 2819 4750 3233 4129 
Q 3647 3509 3647 2328 
Q 3647 1150 3233 529 
Q 2819 -91 2034 -91 
Q 1250 -91 836 529 
Q 422 1150 422 2328 
Q 422 3509 836 4129 
Q 1250 4750 2034 4750 
z
" id="DejaVuSans-30" transform="scale(0.015625)"/>
       </defs>
       <use xlink:href="#DejaVuSans-30"/>
      </g>
     </g>
    </g>
    <g id="xtick_2">
     <g id="line2d_2">
      <g>
       <use style="stroke:#000000;stroke-width:0.8;" x="97.125" xlink:href="#mc8065cdd3a" y="174.079219"/>
      </g>
     </g>
     <g id="text_2">
      <!-- 10 -->
      <g transform="translate(90.7625 188.677656)scale(0.1 -0.1)">
       <defs>
        <path d="M 794 531 
L 1825 531 
L 1825 4091 
L 703 3866 
L 703 4441 
L 1819 4666 
L 2450 4666 
L 2450 531 
L 3481 531 
L 3481 0 
L 794 0 
L 794 531 
z
" id="DejaVuSans-31" transform="scale(0.015625)"/>
       </defs>
       <use xlink:href="#DejaVuSans-31"/>
       <use x="63.623047" xlink:href="#DejaVuSans-30"/>
      </g>
     </g>
    </g>
    <g id="xtick_3">
     <g id="line2d_3">
      <g>
       <use style="stroke:#000000;stroke-width:0.8;" x="152.925" xlink:href="#mc8065cdd3a" y="174.079219"/>
      </g>
     </g>
     <g id="text_3">
      <!-- 20 -->
      <g transform="translate(146.5625 188.677656)scale(0.1 -0.1)">
       <defs>
        <path d="M 1228 531 
L 3431 531 
L 3431 0 
L 469 0 
L 469 531 
Q 828 903 1448 1529 
Q 2069 2156 2228 2338 
Q 2531 2678 2651 2914 
Q 2772 3150 2772 3378 
Q 2772 3750 2511 3984 
Q 2250 4219 1831 4219 
Q 1534 4219 1204 4116 
Q 875 4013 500 3803 
L 500 4441 
Q 881 4594 1212 4672 
Q 1544 4750 1819 4750 
Q 2544 4750 2975 4387 
Q 3406 4025 3406 3419 
Q 3406 3131 3298 2873 
Q 3191 2616 2906 2266 
Q 2828 2175 2409 1742 
Q 1991 1309 1228 531 
z
" id="DejaVuSans-32" transform="scale(0.015625)"/>
       </defs>
       <use xlink:href="#DejaVuSans-32"/>
       <use x="63.623047" xlink:href="#DejaVuSans-30"/>
      </g>
     </g>
    </g>
    <g id="text_4">
     <!-- $\sf N_{cells,x}$ / - -->
     <g transform="translate(85.935 202.057344)scale(0.1 -0.1)">
      <defs>
       <path d="M 628 4666 
L 1478 4666 
L 3547 763 
L 3547 4666 
L 4159 4666 
L 4159 0 
L 3309 0 
L 1241 3903 
L 1241 0 
L 628 0 
L 628 4666 
z
" id="DejaVuSans-4e" transform="scale(0.015625)"/>
       <path d="M 3122 3366 
L 3122 2828 
Q 2878 2963 2633 3030 
Q 2388 3097 2138 3097 
Q 1578 3097 1268 2742 
Q 959 2388 959 1747 
Q 959 1106 1268 751 
Q 1578 397 2138 397 
Q 2388 397 2633 464 
Q 2878 531 3122 666 
L 3122 134 
Q 2881 22 2623 -34 
Q 2366 -91 2075 -91 
Q 1284 -91 818 406 
Q 353 903 353 1747 
Q 353 2603 823 3093 
Q 1294 3584 2113 3584 
Q 2378 3584 2631 3529 
Q 2884 3475 3122 3366 
z
" id="DejaVuSans-63" transform="scale(0.015625)"/>
       <path d="M 3597 1894 
L 3597 1613 
L 953 1613 
Q 991 1019 1311 708 
Q 1631 397 2203 397 
Q 2534 397 2845 478 
Q 3156 559 3463 722 
L 3463 178 
Q 3153 47 2828 -22 
Q 2503 -91 2169 -91 
Q 1331 -91 842 396 
Q 353 884 353 1716 
Q 353 2575 817 3079 
Q 1281 3584 2069 3584 
Q 2775 3584 3186 3129 
Q 3597 2675 3597 1894 
z
M 3022 2063 
Q 3016 2534 2758 2815 
Q 2500 3097 2075 3097 
Q 1594 3097 1305 2825 
Q 1016 2553 972 2059 
L 3022 2063 
z
" id="DejaVuSans-65" transform="scale(0.015625)"/>
       <path d="M 603 4863 
L 1178 4863 
L 1178 0 
L 603 0 
L 603 4863 
z
" id="DejaVuSans-6c" transform="scale(0.015625)"/>
       <path d="M 2834 3397 
L 2834 2853 
Q 2591 2978 2328 3040 
Q 2066 3103 1784 3103 
Q 1356 3103 1142 2972 
Q 928 2841 928 2578 
Q 928 2378 1081 2264 
Q 1234 2150 1697 2047 
L 1894 2003 
Q 2506 1872 2764 1633 
Q 3022 1394 3022 966 
Q 3022 478 2636 193 
Q 2250 -91 1575 -91 
Q 1294 -91 989 -36 
Q 684 19 347 128 
L 347 722 
Q 666 556 975 473 
Q 1284 391 1588 391 
Q 1994 391 2212 530 
Q 2431 669 2431 922 
Q 2431 1156 2273 1281 
Q 2116 1406 1581 1522 
L 1381 1569 
Q 847 1681 609 1914 
Q 372 2147 372 2553 
Q 372 3047 722 3315 
Q 1072 3584 1716 3584 
Q 2034 3584 2315 3537 
Q 2597 3491 2834 3397 
z
" id="DejaVuSans-73" transform="scale(0.015625)"/>
       <path d="M 750 794 
L 1409 794 
L 1409 256 
L 897 -744 
L 494 -744 
L 750 256 
L 750 794 
z
" id="DejaVuSans-2c" transform="scale(0.015625)"/>
       <path d="M 3513 3500 
L 2247 1797 
L 3578 0 
L 2900 0 
L 1881 1375 
L 863 0 
L 184 0 
L 1544 1831 
L 300 3500 
L 978 3500 
L 1906 2253 
L 2834 3500 
L 3513 3500 
z
" id="DejaVuSans-78" transform="scale(0.015625)"/>
       <path id="DejaVuSans-20" transform="scale(0.015625)"/>
       <path d="M 1625 4666 
L 2156 4666 
L 531 -594 
L 0 -594 
L 1625 4666 
z
" id="DejaVuSans-2f" transform="scale(0.015625)"/>
       <path d="M 313 2009 
L 1997 2009 
L 1997 1497 
L 313 1497 
L 313 2009 
z
" id="DejaVuSans-2d" transform="scale(0.015625)"/>
      </defs>
      <use transform="translate(0 0.09375)" xlink:href="#DejaVuSans-4e"/>
      <use transform="translate(75.761719 -16.3125)scale(0.7)" xlink:href="#DejaVuSans-63"/>
      <use transform="translate(114.248047 -16.3125)scale(0.7)" xlink:href="#DejaVuSans-65"/>
      <use transform="translate(157.314453 -16.3125)scale(0.7)" xlink:href="#DejaVuSans-6c"/>
      <use transform="translate(176.762695 -16.3125)scale(0.7)" xlink:href="#DejaVuSans-6c"/>
      <use transform="translate(196.210938 -16.3125)scale(0.7)" xlink:href="#DejaVuSans-73"/>
      <use transform="translate(232.680664 -16.3125)scale(0.7)" xlink:href="#DejaVuSans-2c"/>
      <use transform="translate(268.569336 -16.3125)scale(0.7)" xlink:href="#DejaVuSans-78"/>
      <use transform="translate(312.729492 0.09375)" xlink:href="#DejaVuSans-20"/>
      <use transform="translate(344.516602 0.09375)" xlink:href="#DejaVuSans-2f"/>
      <use transform="translate(378.208008 0.09375)" xlink:href="#DejaVuSans-20"/>
      <use transform="translate(409.995117 0.09375)" xlink:href="#DejaVuSans-2d"/>
     </g>
    </g>
   </g>
   <g id="matplotlib.axis_2">
    <g id="ytick_1">
     <g id="line2d_4">
      <defs>
       <path d="M 0 0 
L -3.5 0 
" id="maa9590f090" style="stroke:#000000;stroke-width:0.8;"/>
      </defs>
      <g>
       <use style="stroke:#000000;stroke-width:0.8;" x="41.325" xlink:href="#maa9590f090" y="174.079219"/>
      </g>
     </g>
     <g id="text_5">
      <!-- 0 -->
      <g transform="translate(27.9625 177.878438)scale(0.1 -0.1)">
       <use xlink:href="#DejaVuSans-30"/>
      </g>
     </g>
    </g>
    <g id="ytick_2">
     <g id="line2d_5">
      <g>
       <use style="stroke:#000000;stroke-width:0.8;" x="41.325" xlink:href="#maa9590f090" y="140.104219"/>
      </g>
     </g>
     <g id="text_6">
      <!-- 5 -->
      <g transform="translate(27.9625 143.903437)scale(0.1 -0.1)">
       <defs>
        <path d="M 691 4666 
L 3169 4666 
L 3169 4134 
L 1269 4134 
L 1269 2991 
Q 1406 3038 1543 3061 
Q 1681 3084 1819 3084 
Q 2600 3084 3056 2656 
Q 3513 2228 3513 1497 
Q 3513 744 3044 326 
Q 2575 -91 1722 -91 
Q 1428 -91 1123 -41 
Q 819 9 494 109 
L 494 744 
Q 775 591 1075 516 
Q 1375 441 1709 441 
Q 2250 441 2565 725 
Q 2881 1009 2881 1497 
Q 2881 1984 2565 2268 
Q 2250 2553 1709 2553 
Q 1456 2553 1204 2497 
Q 953 2441 691 2322 
L 691 4666 
z
" id="DejaVuSans-35" transform="scale(0.015625)"/>
       </defs>
       <use xlink:href="#DejaVuSans-35"/>
      </g>
     </g>
    </g>
    <g id="ytick_3">
     <g id="line2d_6">
      <g>
       <use style="stroke:#000000;stroke-width:0.8;" x="41.325" xlink:href="#maa9590f090" y="106.129219"/>
      </g>
     </g>
     <g id="text_7">
      <!-- 10 -->
      <g transform="translate(21.6 109.928438)scale(0.1 -0.1)">
       <use xlink:href="#DejaVuSans-31"/>
       <use x="63.623047" xlink:href="#DejaVuSans-30"/>
      </g>
     </g>
    </g>
    <g id="ytick_4">
     <g id="line2d_7">
      <g>
       <use style="stroke:#000000;stroke-width:0.8;" x="41.325" xlink:href="#maa9590f090" y="72.154219"/>
      </g>
     </g>
     <g id="text_8">
      <!-- 15 -->
      <g transform="translate(21.6 75.953438)scale(0.1 -0.1)">
       <use xlink:href="#DejaVuSans-31"/>
       <use x="63.623047" xlink:href="#DejaVuSans-35"/>
      </g>
     </g>
    </g>
    <g id="ytick_5">
     <g id="line2d_8">
      <g>
       <use style="stroke:#000000;stroke-width:0.8;" x="41.325" xlink:href="#maa9590f090" y="38.179219"/>
      </g>
     </g>
     <g id="text_9">
      <!-- 20 -->
      <g transform="translate(21.6 41.978438)scale(0.1 -0.1)">
       <use xlink:href="#DejaVuSans-32"/>
       <use x="63.623047" xlink:href="#DejaVuSans-30"/>
      </g>
     </g>
    </g>
    <g id="text_10">
     <!-- $\sf N_{cells,y}$ / - -->
     <g transform="translate(14.5 114.889219)rotate(-90)scale(0.1 -0.1)">
      <defs>
       <path d="M 2059 -325 
Q 1816 -950 1584 -1140 
Q 1353 -1331 966 -1331 
L 506 -1331 
L 506 -850 
L 844 -850 
Q 1081 -850 1212 -737 
Q 1344 -625 1503 -206 
L 1606 56 
L 191 3500 
L 800 3500 
L 1894 763 
L 2988 3500 
L 3597 3500 
L 2059 -325 
z
" id="DejaVuSans-79" transform="scale(0.015625)"/>
      </defs>
      <use transform="translate(0 0.09375)" xlink:href="#DejaVuSans-4e"/>
      <use transform="translate(75.761719 -16.3125)scale(0.7)" xlink:href="#DejaVuSans-63"/>
      <use transform="translate(114.248047 -16.3125)scale(0.7)" xlink:href="#DejaVuSans-65"/>
      <use transform="translate(157.314453 -16.3125)scale(0.7)" xlink:href="#DejaVuSans-6c"/>
      <use transform="translate(176.762695 -16.3125)scale(0.7)" xlink:href="#DejaVuSans-6c"/>
      <use transform="translate(196.210938 -16.3125)scale(0.7)" xlink:href="#DejaVuSans-73"/>
      <use transform="translate(232.680664 -16.3125)scale(0.7)" xlink:href="#DejaVuSans-2c"/>
      <use transform="translate(268.569336 -16.3125)scale(0.7)" xlink:href="#DejaVuSans-79"/>
      <use transform="translate(312.729492 0.09375)" xlink:href="#DejaVuSans-20"/>
      <use transform="translate(344.516602 0.09375)" xlink:href="#DejaVuSans-2f"/>
      <use transform="translate(378.208008 0.09375)" xlink:href="#DejaVuSans-20"/>
      <use transform="translate(409.995117 0.09375)" xlink:href="#DejaVuSans-2d"/>
     </g>
    </g>
   </g>
   <g id="patch_3">
    <path d="M 41.325 174.079219 
L 41.325 10.999219 
" style="fill:none;stroke:#000000;stroke-linecap:square;stroke-linejoin:miter;stroke-width:0.8;"/>
   </g>
   <g id="patch_4">
    <path d="M 175.245 174.079219 
L 175.245 10.999219 
" style="fill:none;stroke:#000000;stroke-linecap:square;stroke-linejoin:miter;stroke-width:0.8;"/>
   </g>
   <g id="patch_5">
    <path d="M 41.325 174.079219 
L 175.245 174.079219 
" style="fill:none;stroke:#000000;stroke-linecap:square;stroke-linejoin:miter;stroke-width:0.8;"/>
   </g>
   <g id="patch_6">
    <path d="M 41.325 10.999219 
L 175.245 10.999219 
" style="fill:none;stroke:#000000;stroke-linecap:square;stroke-linejoin:miter;stroke-width:0.8;"/>
   </g>
  </g>
  <g id="axes_2">
   <g id="patch_7">
    <path d="M 183.615 174.079219 
L 191.769 174.079219 
L 191.769 10.999219 
L 183.615 10.999219 
z
" style="fill:#ffffff;"/>
   </g>
   <g id="patch_8">
    <path clip-path="url(#pe56794e35f)" d="M 183.615 174.079219 
L 183.615 150.782076 
L 183.615 34.296362 
L 183.615 10.999219 
L 191.769 10.999219 
L 191.769 34.296362 
L 191.769 150.782076 
L 191.769 174.079219 
L 191.769 174.079219 
z
" style="fill:#ffffff;stroke:#ffffff;stroke-linejoin:miter;stroke-width:0.01;"/>
   </g>
   <g id="QuadMesh_1">
    <path clip-path="url(#pe56794e35f)" d="M 183.615 174.079219 
L 191.769 174.079219 
L 191.769 150.782076 
L 183.615 150.782076 
L 183.615 174.079219 
" style="fill:#0000d1;"/>
    <path clip-path="url(#pe56794e35f)" d="M 183.615 150.782076 
L 191.769 150.782076 
L 191.769 127.484933 
L 183.615 127.484933 
L 183.615 150.782076 
" style="fill:#0058ff;"/>
    <path clip-path="url(#pe56794e35f)" d="M 183.615 127.484933 
L 191.769 127.484933 
L 191.769 104.18779 
L 183.615 104.18779 
L 183.615 127.484933 
" style="fill:#06ecf1;"/>
    <path clip-path="url(#pe56794e35f)" d="M 183.615 104.18779 
L 191.769 104.18779 
L 191.769 80.890647 
L 183.615 80.890647 
L 183.615 104.18779 
" style="fill:#7dff7a;"/>
    <path clip-path="url(#pe56794e35f)" d="M 183.615 80.890647 
L 191.769 80.890647 
L 191.769 57.593504 
L 183.615 57.593504 
L 183.615 80.890647 
" style="fill:#f1fc06;"/>
    <path clip-path="url(#pe56794e35f)" d="M 183.615 57.593504 
L 191.769 57.593504 
L 191.769 34.296362 
L 183.615 34.296362 
L 183.615 57.593504 
" style="fill:#ff7300;"/>
    <path clip-path="url(#pe56794e35f)" d="M 183.615 34.296362 
L 191.769 34.296362 
L 191.769 10.999219 
L 183.615 10.999219 
L 183.615 34.296362 
" style="fill:#d10000;"/>
   </g>
   <g id="matplotlib.axis_3"/>
   <g id="matplotlib.axis_4">
    <g id="ytick_6">
     <g id="line2d_9">
      <defs>
       <path d="M 0 0 
L 3.5 0 
" id="m8a4dcdd618" style="stroke:#000000;stroke-width:0.8;"/>
      </defs>
      <g>
       <use style="stroke:#000000;stroke-width:0.8;" x="191.769" xlink:href="#m8a4dcdd618" y="174.079219"/>
      </g>
     </g>
     <g id="text_11">
      <!-- 0 -->
      <g transform="translate(198.769 177.878437)scale(0.1 -0.1)">
       <use xlink:href="#DejaVuSans-30"/>
      </g>
     </g>
    </g>
    <g id="ytick_7">
     <g id="line2d_10">
      <g>
       <use style="stroke:#000000;stroke-width:0.8;" x="191.769" xlink:href="#m8a4dcdd618" y="150.782076"/>
      </g>
     </g>
     <g id="text_12">
      <!-- 100 -->
      <g transform="translate(198.769 154.581295)scale(0.1 -0.1)">
       <use xlink:href="#DejaVuSans-31"/>
       <use x="63.623047" xlink:href="#DejaVuSans-30"/>
       <use x="127.246094" xlink:href="#DejaVuSans-30"/>
      </g>
     </g>
    </g>
    <g id="ytick_8">
     <g id="line2d_11">
      <g>
       <use style="stroke:#000000;stroke-width:0.8;" x="191.769" xlink:href="#m8a4dcdd618" y="127.484933"/>
      </g>
     </g>
     <g id="text_13">
      <!-- 200 -->
      <g transform="translate(198.769 131.284152)scale(0.1 -0.1)">
       <use xlink:href="#DejaVuSans-32"/>
       <use x="63.623047" xlink:href="#DejaVuSans-30"/>
       <use x="127.246094" xlink:href="#DejaVuSans-30"/>
      </g>
     </g>
    </g>
    <g id="ytick_9">
     <g id="line2d_12">
      <g>
       <use style="stroke:#000000;stroke-width:0.8;" x="191.769" xlink:href="#m8a4dcdd618" y="104.18779"/>
      </g>
     </g>
     <g id="text_14">
      <!-- 300 -->
      <g transform="translate(198.769 107.987009)scale(0.1 -0.1)">
       <defs>
        <path d="M 2597 2516 
Q 3050 2419 3304 2112 
Q 3559 1806 3559 1356 
Q 3559 666 3084 287 
Q 2609 -91 1734 -91 
Q 1441 -91 1130 -33 
Q 819 25 488 141 
L 488 750 
Q 750 597 1062 519 
Q 1375 441 1716 441 
Q 2309 441 2620 675 
Q 2931 909 2931 1356 
Q 2931 1769 2642 2001 
Q 2353 2234 1838 2234 
L 1294 2234 
L 1294 2753 
L 1863 2753 
Q 2328 2753 2575 2939 
Q 2822 3125 2822 3475 
Q 2822 3834 2567 4026 
Q 2313 4219 1838 4219 
Q 1578 4219 1281 4162 
Q 984 4106 628 3988 
L 628 4550 
Q 988 4650 1302 4700 
Q 1616 4750 1894 4750 
Q 2613 4750 3031 4423 
Q 3450 4097 3450 3541 
Q 3450 3153 3228 2886 
Q 3006 2619 2597 2516 
z
" id="DejaVuSans-33" transform="scale(0.015625)"/>
       </defs>
       <use xlink:href="#DejaVuSans-33"/>
       <use x="63.623047" xlink:href="#DejaVuSans-30"/>
       <use x="127.246094" xlink:href="#DejaVuSans-30"/>
      </g>
     </g>
    </g>
    <g id="ytick_10">
     <g id="line2d_13">
      <g>
       <use style="stroke:#000000;stroke-width:0.8;" x="191.769" xlink:href="#m8a4dcdd618" y="80.890647"/>
      </g>
     </g>
     <g id="text_15">
      <!-- 400 -->
      <g transform="translate(198.769 84.689866)scale(0.1 -0.1)">
       <defs>
        <path d="M 2419 4116 
L 825 1625 
L 2419 1625 
L 2419 4116 
z
M 2253 4666 
L 3047 4666 
L 3047 1625 
L 3713 1625 
L 3713 1100 
L 3047 1100 
L 3047 0 
L 2419 0 
L 2419 1100 
L 313 1100 
L 313 1709 
L 2253 4666 
z
" id="DejaVuSans-34" transform="scale(0.015625)"/>
       </defs>
       <use xlink:href="#DejaVuSans-34"/>
       <use x="63.623047" xlink:href="#DejaVuSans-30"/>
       <use x="127.246094" xlink:href="#DejaVuSans-30"/>
      </g>
     </g>
    </g>
    <g id="ytick_11">
     <g id="line2d_14">
      <g>
       <use style="stroke:#000000;stroke-width:0.8;" x="191.769" xlink:href="#m8a4dcdd618" y="57.593504"/>
      </g>
     </g>
     <g id="text_16">
      <!-- 500 -->
      <g transform="translate(198.769 61.392723)scale(0.1 -0.1)">
       <use xlink:href="#DejaVuSans-35"/>
       <use x="63.623047" xlink:href="#DejaVuSans-30"/>
       <use x="127.246094" xlink:href="#DejaVuSans-30"/>
      </g>
     </g>
    </g>
    <g id="ytick_12">
     <g id="line2d_15">
      <g>
       <use style="stroke:#000000;stroke-width:0.8;" x="191.769" xlink:href="#m8a4dcdd618" y="34.296362"/>
      </g>
     </g>
     <g id="text_17">
      <!-- 600 -->
      <g transform="translate(198.769 38.09558)scale(0.1 -0.1)">
       <defs>
        <path d="M 2113 2584 
Q 1688 2584 1439 2293 
Q 1191 2003 1191 1497 
Q 1191 994 1439 701 
Q 1688 409 2113 409 
Q 2538 409 2786 701 
Q 3034 994 3034 1497 
Q 3034 2003 2786 2293 
Q 2538 2584 2113 2584 
z
M 3366 4563 
L 3366 3988 
Q 3128 4100 2886 4159 
Q 2644 4219 2406 4219 
Q 1781 4219 1451 3797 
Q 1122 3375 1075 2522 
Q 1259 2794 1537 2939 
Q 1816 3084 2150 3084 
Q 2853 3084 3261 2657 
Q 3669 2231 3669 1497 
Q 3669 778 3244 343 
Q 2819 -91 2113 -91 
Q 1303 -91 875 529 
Q 447 1150 447 2328 
Q 447 3434 972 4092 
Q 1497 4750 2381 4750 
Q 2619 4750 2861 4703 
Q 3103 4656 3366 4563 
z
" id="DejaVuSans-36" transform="scale(0.015625)"/>
       </defs>
       <use xlink:href="#DejaVuSans-36"/>
       <use x="63.623047" xlink:href="#DejaVuSans-30"/>
       <use x="127.246094" xlink:href="#DejaVuSans-30"/>
      </g>
     </g>
    </g>
    <g id="ytick_13">
     <g id="line2d_16">
      <g>
       <use style="stroke:#000000;stroke-width:0.8;" x="191.769" xlink:href="#m8a4dcdd618" y="10.999219"/>
      </g>
     </g>
     <g id="text_18">
      <!-- 700 -->
      <g transform="translate(198.769 14.798438)scale(0.1 -0.1)">
       <defs>
        <path d="M 525 4666 
L 3525 4666 
L 3525 4397 
L 1831 0 
L 1172 0 
L 2766 4134 
L 525 4134 
L 525 4666 
z
" id="DejaVuSans-37" transform="scale(0.015625)"/>
       </defs>
       <use xlink:href="#DejaVuSans-37"/>
       <use x="63.623047" xlink:href="#DejaVuSans-30"/>
       <use x="127.246094" xlink:href="#DejaVuSans-30"/>
      </g>
     </g>
    </g>
    <g id="text_19">
     <!-- Temperature / $\sf ^\circ C$ -->
     <g transform="translate(229.434625 137.289219)rotate(-90)scale(0.1 -0.1)">
      <defs>
       <path d="M -19 4666 
L 3928 4666 
L 3928 4134 
L 2272 4134 
L 2272 0 
L 1638 0 
L 1638 4134 
L -19 4134 
L -19 4666 
z
" id="DejaVuSans-54" transform="scale(0.015625)"/>
       <path d="M 3328 2828 
Q 3544 3216 3844 3400 
Q 4144 3584 4550 3584 
Q 5097 3584 5394 3201 
Q 5691 2819 5691 2113 
L 5691 0 
L 5113 0 
L 5113 2094 
Q 5113 2597 4934 2840 
Q 4756 3084 4391 3084 
Q 3944 3084 3684 2787 
Q 3425 2491 3425 1978 
L 3425 0 
L 2847 0 
L 2847 2094 
Q 2847 2600 2669 2842 
Q 2491 3084 2119 3084 
Q 1678 3084 1418 2786 
Q 1159 2488 1159 1978 
L 1159 0 
L 581 0 
L 581 3500 
L 1159 3500 
L 1159 2956 
Q 1356 3278 1631 3431 
Q 1906 3584 2284 3584 
Q 2666 3584 2933 3390 
Q 3200 3197 3328 2828 
z
" id="DejaVuSans-6d" transform="scale(0.015625)"/>
       <path d="M 1159 525 
L 1159 -1331 
L 581 -1331 
L 581 3500 
L 1159 3500 
L 1159 2969 
Q 1341 3281 1617 3432 
Q 1894 3584 2278 3584 
Q 2916 3584 3314 3078 
Q 3713 2572 3713 1747 
Q 3713 922 3314 415 
Q 2916 -91 2278 -91 
Q 1894 -91 1617 61 
Q 1341 213 1159 525 
z
M 3116 1747 
Q 3116 2381 2855 2742 
Q 2594 3103 2138 3103 
Q 1681 3103 1420 2742 
Q 1159 2381 1159 1747 
Q 1159 1113 1420 752 
Q 1681 391 2138 391 
Q 2594 391 2855 752 
Q 3116 1113 3116 1747 
z
" id="DejaVuSans-70" transform="scale(0.015625)"/>
       <path d="M 2631 2963 
Q 2534 3019 2420 3045 
Q 2306 3072 2169 3072 
Q 1681 3072 1420 2755 
Q 1159 2438 1159 1844 
L 1159 0 
L 581 0 
L 581 3500 
L 1159 3500 
L 1159 2956 
Q 1341 3275 1631 3429 
Q 1922 3584 2338 3584 
Q 2397 3584 2469 3576 
Q 2541 3569 2628 3553 
L 2631 2963 
z
" id="DejaVuSans-72" transform="scale(0.015625)"/>
       <path d="M 2194 1759 
Q 1497 1759 1228 1600 
Q 959 1441 959 1056 
Q 959 750 1161 570 
Q 1363 391 1709 391 
Q 2188 391 2477 730 
Q 2766 1069 2766 1631 
L 2766 1759 
L 2194 1759 
z
M 3341 1997 
L 3341 0 
L 2766 0 
L 2766 531 
Q 2569 213 2275 61 
Q 1981 -91 1556 -91 
Q 1019 -91 701 211 
Q 384 513 384 1019 
Q 384 1609 779 1909 
Q 1175 2209 1959 2209 
L 2766 2209 
L 2766 2266 
Q 2766 2663 2505 2880 
Q 2244 3097 1772 3097 
Q 1472 3097 1187 3025 
Q 903 2953 641 2809 
L 641 3341 
Q 956 3463 1253 3523 
Q 1550 3584 1831 3584 
Q 2591 3584 2966 3190 
Q 3341 2797 3341 1997 
z
" id="DejaVuSans-61" transform="scale(0.015625)"/>
       <path d="M 1172 4494 
L 1172 3500 
L 2356 3500 
L 2356 3053 
L 1172 3053 
L 1172 1153 
Q 1172 725 1289 603 
Q 1406 481 1766 481 
L 2356 481 
L 2356 0 
L 1766 0 
Q 1100 0 847 248 
Q 594 497 594 1153 
L 594 3053 
L 172 3053 
L 172 3500 
L 594 3500 
L 594 4494 
L 1172 4494 
z
" id="DejaVuSans-74" transform="scale(0.015625)"/>
       <path d="M 544 1381 
L 544 3500 
L 1119 3500 
L 1119 1403 
Q 1119 906 1312 657 
Q 1506 409 1894 409 
Q 2359 409 2629 706 
Q 2900 1003 2900 1516 
L 2900 3500 
L 3475 3500 
L 3475 0 
L 2900 0 
L 2900 538 
Q 2691 219 2414 64 
Q 2138 -91 1772 -91 
Q 1169 -91 856 284 
Q 544 659 544 1381 
z
M 1991 3584 
L 1991 3584 
z
" id="DejaVuSans-75" transform="scale(0.015625)"/>
       <path d="M 2000 2619 
Q 1750 2619 1578 2445 
Q 1406 2272 1406 2022 
Q 1406 1775 1578 1605 
Q 1750 1435 2000 1435 
Q 2250 1435 2422 1605 
Q 2594 1775 2594 2022 
Q 2594 2269 2420 2444 
Q 2247 2619 2000 2619 
z
M 2000 3022 
Q 2200 3022 2384 2945 
Q 2569 2869 2703 2725 
Q 2847 2585 2919 2406 
Q 2991 2228 2991 2022 
Q 2991 1610 2702 1324 
Q 2413 1038 1994 1038 
Q 1572 1038 1290 1319 
Q 1009 1600 1009 2022 
Q 1009 2441 1296 2731 
Q 1584 3022 2000 3022 
z
" id="DejaVuSans-2218" transform="scale(0.015625)"/>
       <path d="M 4122 4306 
L 4122 3641 
Q 3803 3938 3442 4084 
Q 3081 4231 2675 4231 
Q 1875 4231 1450 3742 
Q 1025 3253 1025 2328 
Q 1025 1406 1450 917 
Q 1875 428 2675 428 
Q 3081 428 3442 575 
Q 3803 722 4122 1019 
L 4122 359 
Q 3791 134 3420 21 
Q 3050 -91 2638 -91 
Q 1578 -91 968 557 
Q 359 1206 359 2328 
Q 359 3453 968 4101 
Q 1578 4750 2638 4750 
Q 3056 4750 3426 4639 
Q 3797 4528 4122 4306 
z
" id="DejaVuSans-43" transform="scale(0.015625)"/>
      </defs>
      <use transform="translate(0 0.78125)" xlink:href="#DejaVuSans-54"/>
      <use transform="translate(61.083984 0.78125)" xlink:href="#DejaVuSans-65"/>
      <use transform="translate(122.607422 0.78125)" xlink:href="#DejaVuSans-6d"/>
      <use transform="translate(220.019531 0.78125)" xlink:href="#DejaVuSans-70"/>
      <use transform="translate(283.496094 0.78125)" xlink:href="#DejaVuSans-65"/>
      <use transform="translate(345.019531 0.78125)" xlink:href="#DejaVuSans-72"/>
      <use transform="translate(386.132812 0.78125)" xlink:href="#DejaVuSans-61"/>
      <use transform="translate(447.412109 0.78125)" xlink:href="#DejaVuSans-74"/>
      <use transform="translate(486.621094 0.78125)" xlink:href="#DejaVuSans-75"/>
      <use transform="translate(550 0.78125)" xlink:href="#DejaVuSans-72"/>
      <use transform="translate(591.113281 0.78125)" xlink:href="#DejaVuSans-65"/>
      <use transform="translate(652.636719 0.78125)" xlink:href="#DejaVuSans-20"/>
      <use transform="translate(684.423828 0.78125)" xlink:href="#DejaVuSans-2f"/>
      <use transform="translate(718.115234 0.78125)" xlink:href="#DejaVuSans-20"/>
      <use transform="translate(764.49707 39.0625)scale(0.7)" xlink:href="#DejaVuSans-2218"/>
      <use transform="translate(824.6875 0.78125)" xlink:href="#DejaVuSans-43"/>
     </g>
    </g>
   </g>
   <g id="LineCollection_1"/>
   <g id="patch_9">
    <path d="M 183.615 174.079219 
L 183.615 150.782076 
L 183.615 34.296362 
L 183.615 10.999219 
L 191.769 10.999219 
L 191.769 34.296362 
L 191.769 150.782076 
L 191.769 174.079219 
z
" style="fill:none;stroke:#000000;stroke-linecap:square;stroke-linejoin:miter;stroke-width:0.8;"/>
   </g>
  </g>
 </g>
 <defs>
  <clipPath id="p20d40cfef2">
   <rect height="163.08" width="133.92" x="41.325" y="10.999219"/>
  </clipPath>
  <clipPath id="pe56794e35f">
   <rect height="163.08" width="8.154" x="183.615" y="10.999219"/>
  </clipPath>
 </defs>
</svg>
