<?xml version="1.0" encoding="utf-8" standalone="no"?>
<!DOCTYPE svg PUBLIC "-//W3C//DTD SVG 1.1//EN"
  "http://www.w3.org/Graphics/SVG/1.1/DTD/svg11.dtd">
<svg height="262.19625pt" version="1.1" viewBox="0 0 425.96875 262.19625" width="425.96875pt" xmlns="http://www.w3.org/2000/svg" xmlns:xlink="http://www.w3.org/1999/xlink">
 <metadata>
  <rdf:RDF xmlns:cc="http://creativecommons.org/ns#" xmlns:dc="http://purl.org/dc/elements/1.1/" xmlns:rdf="http://www.w3.org/1999/02/22-rdf-syntax-ns#">
   <cc:Work>
    <dc:type rdf:resource="http://purl.org/dc/dcmitype/StillImage"/>
    <dc:date>2021-06-03T18:43:19.108093</dc:date>
    <dc:format>image/svg+xml</dc:format>
    <dc:creator>
     <cc:Agent>
      <dc:title>Matplotlib v3.4.1, https://matplotlib.org/</dc:title>
     </cc:Agent>
    </dc:creator>
   </cc:Work>
  </rdf:RDF>
 </metadata>
 <defs>
  <style type="text/css">*{stroke-linecap:butt;stroke-linejoin:round;}</style>
 </defs>
 <g id="figure_1">
  <g id="patch_1">
   <path d="M 0 262.19625 
L 425.96875 262.19625 
L 425.96875 0 
L 0 0 
z
" style="fill:none;"/>
  </g>
  <g id="axes_1">
   <g id="patch_2">
    <path d="M 46.965625 224.64 
L 381.765625 224.64 
L 381.765625 7.2 
L 46.965625 7.2 
z
" style="fill:#ffffff;"/>
   </g>
   <g id="matplotlib.axis_1">
    <g id="xtick_1">
     <g id="line2d_1">
      <defs>
       <path d="M 0 0 
L 0 3.5 
" id="mefeb1f7b28" style="stroke:#000000;stroke-width:0.8;"/>
      </defs>
      <g>
       <use style="stroke:#000000;stroke-width:0.8;" x="62.183807" xlink:href="#mefeb1f7b28" y="224.64"/>
      </g>
     </g>
     <g id="text_1">
      <!-- 0 -->
      <g transform="translate(59.002557 239.238438)scale(0.1 -0.1)">
       <defs>
        <path d="M 2034 4250 
Q 1547 4250 1301 3770 
Q 1056 3291 1056 2328 
Q 1056 1369 1301 889 
Q 1547 409 2034 409 
Q 2525 409 2770 889 
Q 3016 1369 3016 2328 
Q 3016 3291 2770 3770 
Q 2525 4250 2034 4250 
z
M 2034 4750 
Q 2819 4750 3233 4129 
Q 3647 3509 3647 2328 
Q 3647 1150 3233 529 
Q 2819 -91 2034 -91 
Q 1250 -91 836 529 
Q 422 1150 422 2328 
Q 422 3509 836 4129 
Q 1250 4750 2034 4750 
z
" id="DejaVuSans-30" transform="scale(0.015625)"/>
       </defs>
       <use xlink:href="#DejaVuSans-30"/>
      </g>
     </g>
    </g>
    <g id="xtick_2">
     <g id="line2d_2">
      <g>
       <use style="stroke:#000000;stroke-width:0.8;" x="123.056534" xlink:href="#mefeb1f7b28" y="224.64"/>
      </g>
     </g>
     <g id="text_2">
      <!-- 200 -->
      <g transform="translate(113.512784 239.238438)scale(0.1 -0.1)">
       <defs>
        <path d="M 1228 531 
L 3431 531 
L 3431 0 
L 469 0 
L 469 531 
Q 828 903 1448 1529 
Q 2069 2156 2228 2338 
Q 2531 2678 2651 2914 
Q 2772 3150 2772 3378 
Q 2772 3750 2511 3984 
Q 2250 4219 1831 4219 
Q 1534 4219 1204 4116 
Q 875 4013 500 3803 
L 500 4441 
Q 881 4594 1212 4672 
Q 1544 4750 1819 4750 
Q 2544 4750 2975 4387 
Q 3406 4025 3406 3419 
Q 3406 3131 3298 2873 
Q 3191 2616 2906 2266 
Q 2828 2175 2409 1742 
Q 1991 1309 1228 531 
z
" id="DejaVuSans-32" transform="scale(0.015625)"/>
       </defs>
       <use xlink:href="#DejaVuSans-32"/>
       <use x="63.623047" xlink:href="#DejaVuSans-30"/>
       <use x="127.246094" xlink:href="#DejaVuSans-30"/>
      </g>
     </g>
    </g>
    <g id="xtick_3">
     <g id="line2d_3">
      <g>
       <use style="stroke:#000000;stroke-width:0.8;" x="183.929261" xlink:href="#mefeb1f7b28" y="224.64"/>
      </g>
     </g>
     <g id="text_3">
      <!-- 400 -->
      <g transform="translate(174.385511 239.238438)scale(0.1 -0.1)">
       <defs>
        <path d="M 2419 4116 
L 825 1625 
L 2419 1625 
L 2419 4116 
z
M 2253 4666 
L 3047 4666 
L 3047 1625 
L 3713 1625 
L 3713 1100 
L 3047 1100 
L 3047 0 
L 2419 0 
L 2419 1100 
L 313 1100 
L 313 1709 
L 2253 4666 
z
" id="DejaVuSans-34" transform="scale(0.015625)"/>
       </defs>
       <use xlink:href="#DejaVuSans-34"/>
       <use x="63.623047" xlink:href="#DejaVuSans-30"/>
       <use x="127.246094" xlink:href="#DejaVuSans-30"/>
      </g>
     </g>
    </g>
    <g id="xtick_4">
     <g id="line2d_4">
      <g>
       <use style="stroke:#000000;stroke-width:0.8;" x="244.801989" xlink:href="#mefeb1f7b28" y="224.64"/>
      </g>
     </g>
     <g id="text_4">
      <!-- 600 -->
      <g transform="translate(235.258239 239.238438)scale(0.1 -0.1)">
       <defs>
        <path d="M 2113 2584 
Q 1688 2584 1439 2293 
Q 1191 2003 1191 1497 
Q 1191 994 1439 701 
Q 1688 409 2113 409 
Q 2538 409 2786 701 
Q 3034 994 3034 1497 
Q 3034 2003 2786 2293 
Q 2538 2584 2113 2584 
z
M 3366 4563 
L 3366 3988 
Q 3128 4100 2886 4159 
Q 2644 4219 2406 4219 
Q 1781 4219 1451 3797 
Q 1122 3375 1075 2522 
Q 1259 2794 1537 2939 
Q 1816 3084 2150 3084 
Q 2853 3084 3261 2657 
Q 3669 2231 3669 1497 
Q 3669 778 3244 343 
Q 2819 -91 2113 -91 
Q 1303 -91 875 529 
Q 447 1150 447 2328 
Q 447 3434 972 4092 
Q 1497 4750 2381 4750 
Q 2619 4750 2861 4703 
Q 3103 4656 3366 4563 
z
" id="DejaVuSans-36" transform="scale(0.015625)"/>
       </defs>
       <use xlink:href="#DejaVuSans-36"/>
       <use x="63.623047" xlink:href="#DejaVuSans-30"/>
       <use x="127.246094" xlink:href="#DejaVuSans-30"/>
      </g>
     </g>
    </g>
    <g id="xtick_5">
     <g id="line2d_5">
      <g>
       <use style="stroke:#000000;stroke-width:0.8;" x="305.674716" xlink:href="#mefeb1f7b28" y="224.64"/>
      </g>
     </g>
     <g id="text_5">
      <!-- 800 -->
      <g transform="translate(296.130966 239.238438)scale(0.1 -0.1)">
       <defs>
        <path d="M 2034 2216 
Q 1584 2216 1326 1975 
Q 1069 1734 1069 1313 
Q 1069 891 1326 650 
Q 1584 409 2034 409 
Q 2484 409 2743 651 
Q 3003 894 3003 1313 
Q 3003 1734 2745 1975 
Q 2488 2216 2034 2216 
z
M 1403 2484 
Q 997 2584 770 2862 
Q 544 3141 544 3541 
Q 544 4100 942 4425 
Q 1341 4750 2034 4750 
Q 2731 4750 3128 4425 
Q 3525 4100 3525 3541 
Q 3525 3141 3298 2862 
Q 3072 2584 2669 2484 
Q 3125 2378 3379 2068 
Q 3634 1759 3634 1313 
Q 3634 634 3220 271 
Q 2806 -91 2034 -91 
Q 1263 -91 848 271 
Q 434 634 434 1313 
Q 434 1759 690 2068 
Q 947 2378 1403 2484 
z
M 1172 3481 
Q 1172 3119 1398 2916 
Q 1625 2713 2034 2713 
Q 2441 2713 2670 2916 
Q 2900 3119 2900 3481 
Q 2900 3844 2670 4047 
Q 2441 4250 2034 4250 
Q 1625 4250 1398 4047 
Q 1172 3844 1172 3481 
z
" id="DejaVuSans-38" transform="scale(0.015625)"/>
       </defs>
       <use xlink:href="#DejaVuSans-38"/>
       <use x="63.623047" xlink:href="#DejaVuSans-30"/>
       <use x="127.246094" xlink:href="#DejaVuSans-30"/>
      </g>
     </g>
    </g>
    <g id="xtick_6">
     <g id="line2d_6">
      <g>
       <use style="stroke:#000000;stroke-width:0.8;" x="366.547443" xlink:href="#mefeb1f7b28" y="224.64"/>
      </g>
     </g>
     <g id="text_6">
      <!-- 1000 -->
      <g transform="translate(353.822443 239.238438)scale(0.1 -0.1)">
       <defs>
        <path d="M 794 531 
L 1825 531 
L 1825 4091 
L 703 3866 
L 703 4441 
L 1819 4666 
L 2450 4666 
L 2450 531 
L 3481 531 
L 3481 0 
L 794 0 
L 794 531 
z
" id="DejaVuSans-31" transform="scale(0.015625)"/>
       </defs>
       <use xlink:href="#DejaVuSans-31"/>
       <use x="63.623047" xlink:href="#DejaVuSans-30"/>
       <use x="127.246094" xlink:href="#DejaVuSans-30"/>
       <use x="190.869141" xlink:href="#DejaVuSans-30"/>
      </g>
     </g>
    </g>
    <g id="text_7">
     <!-- Time / s -->
     <g transform="translate(194.664844 252.916563)scale(0.1 -0.1)">
      <defs>
       <path d="M -19 4666 
L 3928 4666 
L 3928 4134 
L 2272 4134 
L 2272 0 
L 1638 0 
L 1638 4134 
L -19 4134 
L -19 4666 
z
" id="DejaVuSans-54" transform="scale(0.015625)"/>
       <path d="M 603 3500 
L 1178 3500 
L 1178 0 
L 603 0 
L 603 3500 
z
M 603 4863 
L 1178 4863 
L 1178 4134 
L 603 4134 
L 603 4863 
z
" id="DejaVuSans-69" transform="scale(0.015625)"/>
       <path d="M 3328 2828 
Q 3544 3216 3844 3400 
Q 4144 3584 4550 3584 
Q 5097 3584 5394 3201 
Q 5691 2819 5691 2113 
L 5691 0 
L 5113 0 
L 5113 2094 
Q 5113 2597 4934 2840 
Q 4756 3084 4391 3084 
Q 3944 3084 3684 2787 
Q 3425 2491 3425 1978 
L 3425 0 
L 2847 0 
L 2847 2094 
Q 2847 2600 2669 2842 
Q 2491 3084 2119 3084 
Q 1678 3084 1418 2786 
Q 1159 2488 1159 1978 
L 1159 0 
L 581 0 
L 581 3500 
L 1159 3500 
L 1159 2956 
Q 1356 3278 1631 3431 
Q 1906 3584 2284 3584 
Q 2666 3584 2933 3390 
Q 3200 3197 3328 2828 
z
" id="DejaVuSans-6d" transform="scale(0.015625)"/>
       <path d="M 3597 1894 
L 3597 1613 
L 953 1613 
Q 991 1019 1311 708 
Q 1631 397 2203 397 
Q 2534 397 2845 478 
Q 3156 559 3463 722 
L 3463 178 
Q 3153 47 2828 -22 
Q 2503 -91 2169 -91 
Q 1331 -91 842 396 
Q 353 884 353 1716 
Q 353 2575 817 3079 
Q 1281 3584 2069 3584 
Q 2775 3584 3186 3129 
Q 3597 2675 3597 1894 
z
M 3022 2063 
Q 3016 2534 2758 2815 
Q 2500 3097 2075 3097 
Q 1594 3097 1305 2825 
Q 1016 2553 972 2059 
L 3022 2063 
z
" id="DejaVuSans-65" transform="scale(0.015625)"/>
       <path id="DejaVuSans-20" transform="scale(0.015625)"/>
       <path d="M 1625 4666 
L 2156 4666 
L 531 -594 
L 0 -594 
L 1625 4666 
z
" id="DejaVuSans-2f" transform="scale(0.015625)"/>
       <path d="M 2834 3397 
L 2834 2853 
Q 2591 2978 2328 3040 
Q 2066 3103 1784 3103 
Q 1356 3103 1142 2972 
Q 928 2841 928 2578 
Q 928 2378 1081 2264 
Q 1234 2150 1697 2047 
L 1894 2003 
Q 2506 1872 2764 1633 
Q 3022 1394 3022 966 
Q 3022 478 2636 193 
Q 2250 -91 1575 -91 
Q 1294 -91 989 -36 
Q 684 19 347 128 
L 347 722 
Q 666 556 975 473 
Q 1284 391 1588 391 
Q 1994 391 2212 530 
Q 2431 669 2431 922 
Q 2431 1156 2273 1281 
Q 2116 1406 1581 1522 
L 1381 1569 
Q 847 1681 609 1914 
Q 372 2147 372 2553 
Q 372 3047 722 3315 
Q 1072 3584 1716 3584 
Q 2034 3584 2315 3537 
Q 2597 3491 2834 3397 
z
" id="DejaVuSans-73" transform="scale(0.015625)"/>
      </defs>
      <use xlink:href="#DejaVuSans-54"/>
      <use x="57.958984" xlink:href="#DejaVuSans-69"/>
      <use x="85.742188" xlink:href="#DejaVuSans-6d"/>
      <use x="183.154297" xlink:href="#DejaVuSans-65"/>
      <use x="244.677734" xlink:href="#DejaVuSans-20"/>
      <use x="276.464844" xlink:href="#DejaVuSans-2f"/>
      <use x="310.15625" xlink:href="#DejaVuSans-20"/>
      <use x="341.943359" xlink:href="#DejaVuSans-73"/>
     </g>
    </g>
   </g>
   <g id="matplotlib.axis_2">
    <g id="ytick_1">
     <g id="line2d_7">
      <defs>
       <path d="M 0 0 
L -3.5 0 
" id="m49e5322fa0" style="stroke:#000000;stroke-width:0.8;"/>
      </defs>
      <g>
       <use style="stroke:#000000;stroke-width:0.8;" x="46.965625" xlink:href="#m49e5322fa0" y="214.75435"/>
      </g>
     </g>
     <g id="text_8">
      <!-- 20 -->
      <g style="fill:#1f77b4;" transform="translate(27.240625 218.553568)scale(0.1 -0.1)">
       <use xlink:href="#DejaVuSans-32"/>
       <use x="63.623047" xlink:href="#DejaVuSans-30"/>
      </g>
     </g>
    </g>
    <g id="ytick_2">
     <g id="line2d_8">
      <g>
       <use style="stroke:#000000;stroke-width:0.8;" x="46.965625" xlink:href="#m49e5322fa0" y="175.79062"/>
      </g>
     </g>
     <g id="text_9">
      <!-- 40 -->
      <g style="fill:#1f77b4;" transform="translate(27.240625 179.589839)scale(0.1 -0.1)">
       <use xlink:href="#DejaVuSans-34"/>
       <use x="63.623047" xlink:href="#DejaVuSans-30"/>
      </g>
     </g>
    </g>
    <g id="ytick_3">
     <g id="line2d_9">
      <g>
       <use style="stroke:#000000;stroke-width:0.8;" x="46.965625" xlink:href="#m49e5322fa0" y="136.82689"/>
      </g>
     </g>
     <g id="text_10">
      <!-- 60 -->
      <g style="fill:#1f77b4;" transform="translate(27.240625 140.626109)scale(0.1 -0.1)">
       <use xlink:href="#DejaVuSans-36"/>
       <use x="63.623047" xlink:href="#DejaVuSans-30"/>
      </g>
     </g>
    </g>
    <g id="ytick_4">
     <g id="line2d_10">
      <g>
       <use style="stroke:#000000;stroke-width:0.8;" x="46.965625" xlink:href="#m49e5322fa0" y="97.86316"/>
      </g>
     </g>
     <g id="text_11">
      <!-- 80 -->
      <g style="fill:#1f77b4;" transform="translate(27.240625 101.662379)scale(0.1 -0.1)">
       <use xlink:href="#DejaVuSans-38"/>
       <use x="63.623047" xlink:href="#DejaVuSans-30"/>
      </g>
     </g>
    </g>
    <g id="ytick_5">
     <g id="line2d_11">
      <g>
       <use style="stroke:#000000;stroke-width:0.8;" x="46.965625" xlink:href="#m49e5322fa0" y="58.899431"/>
      </g>
     </g>
     <g id="text_12">
      <!-- 100 -->
      <g style="fill:#1f77b4;" transform="translate(20.878125 62.698649)scale(0.1 -0.1)">
       <use xlink:href="#DejaVuSans-31"/>
       <use x="63.623047" xlink:href="#DejaVuSans-30"/>
       <use x="127.246094" xlink:href="#DejaVuSans-30"/>
      </g>
     </g>
    </g>
    <g id="ytick_6">
     <g id="line2d_12">
      <g>
       <use style="stroke:#000000;stroke-width:0.8;" x="46.965625" xlink:href="#m49e5322fa0" y="19.935701"/>
      </g>
     </g>
     <g id="text_13">
      <!-- 120 -->
      <g style="fill:#1f77b4;" transform="translate(20.878125 23.73492)scale(0.1 -0.1)">
       <use xlink:href="#DejaVuSans-31"/>
       <use x="63.623047" xlink:href="#DejaVuSans-32"/>
       <use x="127.246094" xlink:href="#DejaVuSans-30"/>
      </g>
     </g>
    </g>
    <g id="text_14">
     <!-- AST / $\sf ^\circ C$ -->
     <g style="fill:#1f77b4;" transform="translate(14.798438 137.67)rotate(-90)scale(0.1 -0.1)">
      <defs>
       <path d="M 2188 4044 
L 1331 1722 
L 3047 1722 
L 2188 4044 
z
M 1831 4666 
L 2547 4666 
L 4325 0 
L 3669 0 
L 3244 1197 
L 1141 1197 
L 716 0 
L 50 0 
L 1831 4666 
z
" id="DejaVuSans-41" transform="scale(0.015625)"/>
       <path d="M 3425 4513 
L 3425 3897 
Q 3066 4069 2747 4153 
Q 2428 4238 2131 4238 
Q 1616 4238 1336 4038 
Q 1056 3838 1056 3469 
Q 1056 3159 1242 3001 
Q 1428 2844 1947 2747 
L 2328 2669 
Q 3034 2534 3370 2195 
Q 3706 1856 3706 1288 
Q 3706 609 3251 259 
Q 2797 -91 1919 -91 
Q 1588 -91 1214 -16 
Q 841 59 441 206 
L 441 856 
Q 825 641 1194 531 
Q 1563 422 1919 422 
Q 2459 422 2753 634 
Q 3047 847 3047 1241 
Q 3047 1584 2836 1778 
Q 2625 1972 2144 2069 
L 1759 2144 
Q 1053 2284 737 2584 
Q 422 2884 422 3419 
Q 422 4038 858 4394 
Q 1294 4750 2059 4750 
Q 2388 4750 2728 4690 
Q 3069 4631 3425 4513 
z
" id="DejaVuSans-53" transform="scale(0.015625)"/>
       <path d="M 2000 2619 
Q 1750 2619 1578 2445 
Q 1406 2272 1406 2022 
Q 1406 1775 1578 1605 
Q 1750 1435 2000 1435 
Q 2250 1435 2422 1605 
Q 2594 1775 2594 2022 
Q 2594 2269 2420 2444 
Q 2247 2619 2000 2619 
z
M 2000 3022 
Q 2200 3022 2384 2945 
Q 2569 2869 2703 2725 
Q 2847 2585 2919 2406 
Q 2991 2228 2991 2022 
Q 2991 1610 2702 1324 
Q 2413 1038 1994 1038 
Q 1572 1038 1290 1319 
Q 1009 1600 1009 2022 
Q 1009 2441 1296 2731 
Q 1584 3022 2000 3022 
z
" id="DejaVuSans-2218" transform="scale(0.015625)"/>
       <path d="M 4122 4306 
L 4122 3641 
Q 3803 3938 3442 4084 
Q 3081 4231 2675 4231 
Q 1875 4231 1450 3742 
Q 1025 3253 1025 2328 
Q 1025 1406 1450 917 
Q 1875 428 2675 428 
Q 3081 428 3442 575 
Q 3803 722 4122 1019 
L 4122 359 
Q 3791 134 3420 21 
Q 3050 -91 2638 -91 
Q 1578 -91 968 557 
Q 359 1206 359 2328 
Q 359 3453 968 4101 
Q 1578 4750 2638 4750 
Q 3056 4750 3426 4639 
Q 3797 4528 4122 4306 
z
" id="DejaVuSans-43" transform="scale(0.015625)"/>
      </defs>
      <use transform="translate(0 0.78125)" xlink:href="#DejaVuSans-41"/>
      <use transform="translate(68.408203 0.78125)" xlink:href="#DejaVuSans-53"/>
      <use transform="translate(131.884766 0.78125)" xlink:href="#DejaVuSans-54"/>
      <use transform="translate(192.96875 0.78125)" xlink:href="#DejaVuSans-20"/>
      <use transform="translate(224.755859 0.78125)" xlink:href="#DejaVuSans-2f"/>
      <use transform="translate(258.447266 0.78125)" xlink:href="#DejaVuSans-20"/>
      <use transform="translate(304.829102 39.0625)scale(0.7)" xlink:href="#DejaVuSans-2218"/>
      <use transform="translate(365.019531 0.78125)" xlink:href="#DejaVuSans-43"/>
     </g>
    </g>
   </g>
   <g id="line2d_13">
    <path clip-path="url(#pebd93747de)" d="M 62.183807 214.756364 
L 64.92308 214.629664 
L 65.227443 214.074475 
L 65.83617 214.065762 
L 66.140534 211.581446 
L 66.749261 211.593225 
L 67.053625 170.946462 
L 67.357989 170.940502 
L 67.662352 171.253571 
L 67.966716 170.764667 
L 68.27108 170.940123 
L 68.575443 170.931851 
L 68.879807 170.712191 
L 69.18417 170.702961 
L 69.488534 170.931903 
L 69.792898 168.817543 
L 70.097261 169.012656 
L 70.401625 169.005432 
L 70.705989 163.526396 
L 71.010352 163.519135 
L 71.314716 163.675521 
L 71.61908 161.682462 
L 71.923443 161.801697 
L 72.227807 161.796242 
L 72.53217 161.499537 
L 73.140898 161.593392 
L 73.445261 161.065196 
L 74.053989 161.168861 
L 74.96708 161.332174 
L 75.271443 163.634007 
L 75.88017 163.716544 
L 76.184534 183.173862 
L 76.793261 183.215257 
L 77.097625 183.47299 
L 77.706352 183.53306 
L 78.010716 183.880502 
L 78.619443 183.90953 
L 78.923807 182.548065 
L 79.532534 182.577242 
L 79.836898 183.597917 
L 80.445625 183.625125 
L 80.749989 169.66546 
L 81.358716 169.70791 
L 81.967443 169.61352 
L 82.271807 169.660607 
L 82.57617 168.579809 
L 83.184898 168.622921 
L 83.489261 164.862006 
L 84.097989 164.911323 
L 84.402352 164.121373 
L 85.01108 164.165875 
L 85.315443 154.655393 
L 85.92417 154.715791 
L 86.228534 153.984106 
L 86.837261 154.026244 
L 87.141625 151.319299 
L 87.750352 151.381614 
L 88.054716 147.522229 
L 88.35908 147.591493 
L 88.967807 147.002594 
L 89.27217 136.239106 
L 89.880898 133.812658 
L 90.185261 129.654093 
L 90.489625 122.10238 
L 90.793989 122.808961 
L 91.098352 120.672825 
L 91.402716 115.651435 
L 91.70708 114.434205 
L 92.011443 110.410185 
L 92.62017 93.400593 
L 93.228898 94.102937 
L 93.533261 90.877829 
L 94.141989 71.576615 
L 94.446352 58.286907 
L 94.750716 58.616073 
L 95.05508 67.130471 
L 95.359443 64.99716 
L 95.663807 61.778443 
L 95.96817 72.859972 
L 96.272534 95.194065 
L 96.576898 96.388881 
L 96.881261 102.146638 
L 97.794352 140.572926 
L 98.098716 143.542509 
L 98.40308 140.195907 
L 98.707443 134.050183 
L 99.31617 144.773547 
L 99.924898 141.476396 
L 100.229261 137.873049 
L 100.533625 131.63408 
L 100.837989 133.169596 
L 101.446716 130.545969 
L 101.75108 103.789053 
L 102.359807 104.455457 
L 102.66417 116.804946 
L 102.968534 111.325612 
L 103.272898 101.63584 
L 103.577261 107.247622 
L 103.881625 118.06418 
L 104.185989 118.901306 
L 104.490352 117.103925 
L 104.794716 118.542071 
L 105.403443 131.665895 
L 105.707807 132.844138 
L 106.01217 132.52169 
L 106.316534 131.408771 
L 106.620898 133.21736 
L 107.533989 141.613281 
L 107.838352 140.963962 
L 108.142716 135.774652 
L 108.44708 126.607354 
L 108.751443 127.00137 
L 109.36017 126.261822 
L 109.664534 120.453277 
L 109.968898 119.655257 
L 110.577625 112.350479 
L 110.881989 112.200476 
L 111.490716 106.07629 
L 111.79508 82.714046 
L 112.403807 83.961627 
L 112.70817 106.35336 
L 113.316898 102.241393 
L 113.621261 102.247516 
L 113.925625 131.197338 
L 114.534352 132.508238 
L 114.838716 136.523199 
L 115.14308 138.603337 
L 115.751807 145.594658 
L 116.05617 152.081922 
L 116.664898 151.29227 
L 116.969261 142.174013 
L 117.577989 145.069918 
L 117.882352 147.9919 
L 118.49108 142.420777 
L 119.099807 140.247721 
L 119.40417 130.42498 
L 120.012898 130.993909 
L 120.317261 129.310018 
L 120.621625 129.237811 
L 120.925989 125.846536 
L 121.534716 126.683559 
L 121.83908 135.701665 
L 123.056534 133.904105 
L 123.360898 137.764479 
L 123.969625 137.044261 
L 124.273989 137.53674 
L 124.882716 136.992707 
L 125.491443 138.560678 
L 125.795807 140.638913 
L 126.404534 140.004146 
L 126.708898 137.959272 
L 127.013261 137.979449 
L 127.317625 138.767846 
L 127.926352 138.500243 
L 128.230716 136.305397 
L 128.839443 134.791396 
L 129.143807 116.68149 
L 129.752534 115.645624 
L 130.665625 106.692932 
L 130.969989 107.064578 
L 131.274352 123.367129 
L 131.578716 122.736962 
L 131.88308 122.375869 
L 132.187443 123.924911 
L 132.79617 131.332254 
L 133.100534 132.530444 
L 133.709261 133.283176 
L 134.013625 132.785606 
L 134.317989 132.786185 
L 134.622352 133.743148 
L 135.23108 134.380725 
L 135.535443 134.11229 
L 136.14417 139.402806 
L 137.057261 142.083012 
L 137.361625 144.541157 
L 137.665989 144.69107 
L 137.970352 145.688737 
L 138.57908 141.709032 
L 139.187807 143.113051 
L 139.49217 142.847114 
L 139.796534 143.158645 
L 140.100898 141.548959 
L 140.709625 141.871898 
L 141.013989 144.072177 
L 141.318352 144.237511 
L 141.622716 144.703674 
L 142.231443 144.677284 
L 142.84017 144.864936 
L 143.144534 144.098411 
L 143.753261 135.842757 
L 144.057625 135.574939 
L 144.666352 135.726442 
L 144.970716 134.996831 
L 145.579443 135.259974 
L 146.796898 136.240674 
L 147.101261 136.793462 
L 147.709989 137.03292 
L 148.014352 136.881038 
L 148.318716 137.007221 
L 148.62308 145.491171 
L 149.231807 145.59937 
L 149.53617 144.776676 
L 149.840534 144.658318 
L 150.144898 143.960567 
L 150.753625 144.256365 
L 151.666716 141.890032 
L 151.97108 139.409272 
L 152.579807 140.068341 
L 152.88417 138.585077 
L 153.492898 130.651306 
L 154.101625 129.753529 
L 154.405989 129.630586 
L 155.31908 122.266042 
L 155.623443 110.362309 
L 156.23217 109.945641 
L 156.536534 108.302305 
L 157.145261 99.73966 
L 157.449625 100.299642 
L 157.753989 113.655062 
L 158.362716 112.496914 
L 158.66708 109.103581 
L 158.971443 115.316799 
L 159.275807 115.749965 
L 159.58017 118.74362 
L 159.884534 123.762676 
L 160.188898 122.764935 
L 160.493261 123.249901 
L 160.797625 125.647574 
L 161.101989 129.102219 
L 161.406352 129.10103 
L 162.319443 131.538649 
L 162.92817 135.099233 
L 163.232534 136.090501 
L 163.841261 135.170199 
L 164.145625 128.716853 
L 164.754352 128.996138 
L 165.058716 130.503786 
L 165.667443 130.237663 
L 165.971807 128.726158 
L 166.580534 124.312461 
L 167.189261 124.636857 
L 167.493625 124.492399 
L 167.797989 124.49442 
L 168.102352 121.238574 
L 168.71108 119.182925 
L 169.015443 108.49663 
L 169.62417 108.217851 
L 170.232898 99.389878 
L 170.537261 94.335194 
L 170.841625 96.397948 
L 171.450352 115.096492 
L 172.05908 112.884301 
L 172.667807 125.750206 
L 172.97217 126.781583 
L 173.580898 122.539174 
L 173.885261 121.640899 
L 174.189625 124.403248 
L 174.798352 125.192558 
L 175.102716 123.315538 
L 175.711443 106.461002 
L 176.015807 108.694746 
L 176.624534 109.744791 
L 176.928898 101.916715 
L 177.537625 101.672939 
L 177.841989 111.401787 
L 178.450716 112.061815 
L 178.75508 111.325998 
L 179.363807 115.760608 
L 179.66817 116.991914 
L 180.276898 123.672425 
L 180.885625 123.376508 
L 181.189989 122.051309 
L 181.798716 123.041381 
L 182.10308 123.198904 
L 182.711807 117.258728 
L 183.01617 117.138943 
L 183.624898 117.422717 
L 183.929261 118.540614 
L 184.537989 118.452117 
L 184.842352 118.716464 
L 185.45108 118.464275 
L 185.755443 119.340879 
L 186.059807 119.294386 
L 186.36417 117.387327 
L 186.972898 116.557796 
L 187.581625 120.856241 
L 187.885989 120.541804 
L 188.494716 120.621145 
L 189.103443 122.826187 
L 189.71217 122.80685 
L 190.016534 123.507039 
L 190.625261 123.251402 
L 190.929625 123.585801 
L 191.233989 123.567771 
L 191.538352 124.761874 
L 192.14708 123.907134 
L 192.451443 115.551969 
L 193.364534 115.59809 
L 193.668898 115.154445 
L 194.277625 109.308801 
L 194.581989 109.340445 
L 195.190716 119.446008 
L 195.49508 119.610547 
L 196.103807 118.930483 
L 196.40817 122.558838 
L 196.712534 122.550351 
L 197.016898 123.601378 
L 197.625625 122.631223 
L 197.929989 120.699416 
L 198.538716 120.56022 
L 198.84308 121.502996 
L 199.147443 121.488132 
L 199.451807 120.577759 
L 200.060534 114.061266 
L 200.364898 114.561853 
L 200.669261 114.546142 
L 200.973625 115.545429 
L 201.582352 113.310481 
L 201.886716 113.371228 
L 202.19108 113.690674 
L 202.495443 115.23939 
L 202.799807 115.616343 
L 203.10417 116.530313 
L 203.712898 115.602549 
L 204.017261 115.888166 
L 204.625989 115.782918 
L 204.930352 118.143432 
L 205.843443 118.262786 
L 206.45217 119.573507 
L 206.756534 119.525825 
L 207.365261 116.854664 
L 207.669625 116.275925 
L 208.278352 116.413679 
L 208.88708 115.27967 
L 209.191443 114.835505 
L 209.80017 107.62297 
L 210.408898 106.619134 
L 210.713261 105.837821 
L 211.017625 105.702399 
L 211.321989 101.645278 
L 211.930716 101.50082 
L 212.23508 109.893069 
L 212.843807 109.503081 
L 213.452534 109.472775 
L 213.756898 112.580595 
L 214.365625 112.613503 
L 214.669989 106.791967 
L 214.974352 106.75295 
L 215.278716 106.579137 
L 215.58308 106.558328 
L 215.887443 106.422193 
L 216.49617 105.121624 
L 217.104898 105.229503 
L 217.409261 111.668349 
L 217.713625 111.683525 
L 218.017989 111.006671 
L 218.626716 110.941926 
L 219.235443 112.684045 
L 219.539807 112.457986 
L 219.84417 112.464184 
L 220.148534 109.404046 
L 220.452898 109.405458 
L 221.365989 108.656517 
L 222.27908 108.513471 
L 222.583443 108.500792 
L 222.887807 110.592768 
L 223.800898 111.419594 
L 224.105261 111.750916 
L 224.409625 111.048348 
L 224.713989 111.015277 
L 225.018352 110.738891 
L 225.62708 109.028817 
L 225.931443 109.408416 
L 226.54017 109.047174 
L 226.844534 107.053104 
L 227.148898 106.967416 
L 227.453261 107.069424 
L 228.061989 110.261238 
L 228.366352 109.474395 
L 228.670716 109.3573 
L 228.97508 107.91902 
L 229.583807 108.647078 
L 230.192534 107.889412 
L 230.496898 105.012704 
L 230.801261 104.877565 
L 232.018716 102.836021 
L 232.32308 102.494042 
L 232.627443 101.684265 
L 232.931807 101.382967 
L 233.23617 93.160756 
L 233.844898 92.562069 
L 234.149261 92.033152 
L 234.453625 91.755086 
L 234.757989 88.903661 
L 235.366716 87.517537 
L 235.975443 80.7173 
L 236.279807 80.403933 
L 236.58417 79.8338 
L 236.888534 79.502017 
L 237.192898 77.119267 
L 237.801625 77.491597 
L 238.105989 90.789049 
L 238.714716 90.909191 
L 239.01908 90.371801 
L 239.627807 93.653926 
L 239.93217 94.35734 
L 240.236534 98.059358 
L 240.845261 97.376381 
L 241.149625 97.669861 
L 241.758352 99.175576 
L 242.062716 99.260075 
L 242.671443 96.62472 
L 243.28017 95.873222 
L 243.584534 97.023389 
L 244.193261 97.084448 
L 244.801989 96.790552 
L 245.106352 89.851728 
L 245.410716 89.824052 
L 245.71508 90.075617 
L 246.019443 90.051285 
L 246.323807 90.576799 
L 246.932534 88.851104 
L 247.541261 88.615101 
L 247.845625 92.407028 
L 248.149989 92.384822 
L 248.454352 92.584038 
L 248.758716 92.562099 
L 249.06308 91.856886 
L 249.671807 91.180925 
L 250.889261 88.80519 
L 251.193625 88.537989 
L 251.497989 87.520227 
L 252.106716 88.838366 
L 252.41108 88.892692 
L 253.019807 87.880637 
L 253.32417 87.601813 
L 253.932898 87.898072 
L 254.237261 86.618995 
L 254.541625 86.611266 
L 254.845989 85.810525 
L 255.454716 82.06897 
L 255.75908 81.851339 
L 256.063443 81.860688 
L 256.367807 80.873188 
L 256.976534 78.142023 
L 257.585261 78.233344 
L 257.889625 82.645688 
L 258.498352 81.609079 
L 258.802716 80.979804 
L 259.411443 82.833221 
L 259.715807 82.65969 
L 260.324534 81.274725 
L 260.628898 81.047061 
L 261.237625 81.234757 
L 261.541989 81.2013 
L 262.150716 81.532295 
L 262.45508 82.40059 
L 262.759443 82.491524 
L 263.063807 82.820364 
L 263.36817 82.939346 
L 263.976898 84.357798 
L 264.585625 85.288995 
L 264.889989 85.437942 
L 265.194352 90.071277 
L 265.498716 90.222973 
L 265.80308 90.520109 
L 266.411807 91.657849 
L 266.71617 94.31275 
L 267.020534 94.381003 
L 267.324898 94.633355 
L 267.629261 94.671094 
L 267.933625 89.851579 
L 268.846716 90.223895 
L 269.15108 90.299892 
L 269.455443 86.627006 
L 269.759807 86.594455 
L 270.06417 85.483722 
L 270.672898 82.133597 
L 270.977261 82.42018 
L 271.281625 82.47562 
L 272.194716 78.556239 
L 272.49908 76.454171 
L 272.803443 76.156604 
L 273.107807 76.218555 
L 273.716534 72.160779 
L 274.020898 69.237325 
L 274.325261 68.846639 
L 274.629625 68.669748 
L 274.933989 68.220143 
L 275.542716 69.103004 
L 275.84708 68.375139 
L 276.455807 67.724564 
L 276.76017 68.958204 
L 277.368898 69.153911 
L 278.281989 70.124021 
L 278.586352 70.203154 
L 279.19508 71.633319 
L 279.803807 72.923588 
L 280.10817 73.120158 
L 280.412534 75.884037 
L 281.629989 79.210752 
L 281.934352 80.207096 
L 282.238716 80.501349 
L 282.54308 80.308212 
L 283.45617 81.473569 
L 283.760534 81.608158 
L 284.064898 82.553743 
L 284.673625 82.453147 
L 285.282352 81.668682 
L 285.586716 80.936715 
L 285.89108 80.971183 
L 287.108534 81.537259 
L 287.412898 81.487347 
L 288.021625 82.074856 
L 288.325989 80.992914 
L 289.23908 80.24259 
L 289.543443 80.420224 
L 289.847807 80.087371 
L 290.456534 79.14516 
L 290.760898 79.06298 
L 291.065261 78.816647 
L 291.369625 81.497351 
L 292.282716 80.932494 
L 292.58708 79.992497 
L 292.891443 79.807804 
L 293.195807 79.372556 
L 293.804534 77.99538 
L 294.413261 66.629631 
L 294.717625 65.638415 
L 295.021989 65.534207 
L 295.630716 63.132506 
L 295.93508 61.817861 
L 296.239443 61.995583 
L 296.84817 71.2429 
L 297.152534 70.451271 
L 297.761261 70.270843 
L 298.065625 71.801544 
L 298.369989 71.75728 
L 298.674352 71.937708 
L 299.28308 73.075359 
L 299.891807 72.822323 
L 300.19617 73.13077 
L 300.500534 73.110541 
L 300.804898 72.710579 
L 301.109261 72.68546 
L 301.413625 72.262104 
L 301.717989 72.2374 
L 302.022352 69.244757 
L 302.326716 69.215045 
L 302.63108 70.02885 
L 302.935443 69.993059 
L 303.239807 69.798006 
L 303.54417 69.758796 
L 303.848534 68.511304 
L 304.152898 68.463086 
L 304.457261 67.650946 
L 304.761625 67.590332 
L 305.065989 62.454642 
L 305.370352 62.377887 
L 305.674716 62.089476 
L 305.97908 62.003833 
L 306.587807 58.866122 
L 306.89217 57.524588 
L 307.500898 56.943783 
L 307.805261 63.21161 
L 308.109625 63.120229 
L 309.022716 60.835385 
L 309.32708 62.396571 
L 309.631443 62.109631 
L 309.935807 62.223025 
L 310.544534 58.435571 
L 311.153261 56.810368 
L 311.457625 56.910072 
L 311.761989 56.599485 
L 312.066352 56.528215 
L 312.67508 55.660247 
L 313.283807 53.425938 
L 313.58817 53.192477 
L 313.892534 53.165158 
L 314.196898 54.053995 
L 315.109989 53.637579 
L 315.414352 53.642469 
L 315.718716 49.663559 
L 316.631807 49.185877 
L 316.93617 49.105257 
L 317.240534 47.553138 
L 317.849261 48.146652 
L 318.457989 53.380099 
L 318.762352 52.795697 
L 319.066716 52.850305 
L 319.37108 53.329816 
L 319.979807 55.230276 
L 320.588534 55.24783 
L 320.892898 56.908437 
L 321.197261 56.934954 
L 321.501625 57.367214 
L 321.805989 57.396287 
L 322.110352 57.761527 
L 322.414716 57.790645 
L 322.71908 57.957502 
L 323.327807 57.728277 
L 324.240898 59.091422 
L 324.545261 59.404522 
L 325.153989 58.20868 
L 326.371443 57.442096 
L 326.98017 57.767324 
L 327.284534 56.811914 
L 327.588898 56.774473 
L 327.893261 55.267895 
L 328.197625 55.223216 
L 328.501989 54.543345 
L 328.806352 54.484679 
L 329.110716 54.018664 
L 329.41508 53.955435 
L 329.719443 48.327927 
L 330.632534 47.810276 
L 331.241261 47.247248 
L 331.545625 45.011081 
L 333.067443 41.78899 
L 333.371807 41.476738 
L 333.67617 41.371207 
L 334.589261 39.630441 
L 334.893625 39.348614 
L 335.197989 37.02948 
L 335.502352 36.666766 
L 336.11108 34.927635 
L 336.415443 34.221485 
L 336.719807 33.198863 
L 337.328534 32.759781 
L 337.632898 32.765577 
L 337.937261 34.154674 
L 338.545989 33.8628 
L 338.850352 31.899438 
L 339.154716 31.975554 
L 339.45908 31.599136 
L 340.067807 31.714774 
L 340.676534 36.330807 
L 340.980898 36.196233 
L 341.285261 36.343233 
L 341.589625 35.503178 
L 342.198352 36.340409 
L 342.80708 36.389116 
L 343.111443 38.487617 
L 343.415807 38.182024 
L 344.024534 37.374179 
L 344.633261 36.831156 
L 344.937625 36.172867 
L 345.241989 34.824601 
L 345.546352 34.227401 
L 345.850716 25.632547 
L 346.15508 25.37853 
L 346.763807 25.590112 
L 347.06817 27.269032 
L 347.372534 27.550992 
L 347.676898 27.465824 
L 348.589989 28.584866 
L 348.894352 26.341372 
L 349.198716 26.707593 
L 349.50308 27.460399 
L 350.41617 28.495626 
L 350.720534 27.507799 
L 351.024898 27.690411 
L 351.329261 28.39827 
L 351.633625 28.542178 
L 351.937989 37.005475 
L 352.546716 37.431775 
L 352.85108 35.826994 
L 353.155443 36.026165 
L 353.459807 36.573082 
L 353.76417 36.803852 
L 354.068534 36.612009 
L 354.981625 35.277105 
L 355.590352 34.573661 
L 355.894716 34.117352 
L 356.503443 33.716142 
L 357.11217 32.99122 
L 357.720898 32.70156 
L 358.025261 32.128157 
L 358.329625 31.928511 
L 358.633989 33.047107 
L 358.938352 32.789448 
L 359.242716 33.195816 
L 360.764534 31.530377 
L 362.590716 33.649063 
L 363.503807 33.202876 
L 363.80817 32.870885 
L 364.112534 30.817153 
L 364.416898 30.167262 
L 365.329989 24.49882 
L 365.634352 21.623539 
L 366.547443 17.083636 
L 366.547443 17.083636 
" style="fill:none;stroke:#1f77b4;stroke-linecap:square;"/>
   </g>
   <g id="patch_3">
    <path d="M 46.965625 224.64 
L 46.965625 7.2 
" style="fill:none;stroke:#000000;stroke-linecap:square;stroke-linejoin:miter;stroke-width:0.8;"/>
   </g>
   <g id="patch_4">
    <path d="M 381.765625 224.64 
L 381.765625 7.2 
" style="fill:none;stroke:#000000;stroke-linecap:square;stroke-linejoin:miter;stroke-width:0.8;"/>
   </g>
   <g id="patch_5">
    <path d="M 46.965625 224.64 
L 381.765625 224.64 
" style="fill:none;stroke:#000000;stroke-linecap:square;stroke-linejoin:miter;stroke-width:0.8;"/>
   </g>
   <g id="patch_6">
    <path d="M 46.965625 7.2 
L 381.765625 7.2 
" style="fill:none;stroke:#000000;stroke-linecap:square;stroke-linejoin:miter;stroke-width:0.8;"/>
   </g>
  </g>
  <g id="axes_2">
   <g id="matplotlib.axis_3">
    <g id="ytick_7">
     <g id="line2d_14">
      <defs>
       <path d="M 0 0 
L 3.5 0 
" id="m57816270b9" style="stroke:#000000;stroke-width:0.8;"/>
      </defs>
      <g>
       <use style="stroke:#000000;stroke-width:0.8;" x="381.765625" xlink:href="#m57816270b9" y="214.75569"/>
      </g>
     </g>
     <g id="text_15">
      <!-- 0.0 -->
      <g style="fill:#ff7f0e;" transform="translate(388.765625 218.554908)scale(0.1 -0.1)">
       <defs>
        <path d="M 684 794 
L 1344 794 
L 1344 0 
L 684 0 
L 684 794 
z
" id="DejaVuSans-2e" transform="scale(0.015625)"/>
       </defs>
       <use xlink:href="#DejaVuSans-30"/>
       <use x="63.623047" xlink:href="#DejaVuSans-2e"/>
       <use x="95.410156" xlink:href="#DejaVuSans-30"/>
      </g>
     </g>
    </g>
    <g id="ytick_8">
     <g id="line2d_15">
      <g>
       <use style="stroke:#000000;stroke-width:0.8;" x="381.765625" xlink:href="#m57816270b9" y="189.36974"/>
      </g>
     </g>
     <g id="text_16">
      <!-- 0.2 -->
      <g style="fill:#ff7f0e;" transform="translate(388.765625 193.168958)scale(0.1 -0.1)">
       <use xlink:href="#DejaVuSans-30"/>
       <use x="63.623047" xlink:href="#DejaVuSans-2e"/>
       <use x="95.410156" xlink:href="#DejaVuSans-32"/>
      </g>
     </g>
    </g>
    <g id="ytick_9">
     <g id="line2d_16">
      <g>
       <use style="stroke:#000000;stroke-width:0.8;" x="381.765625" xlink:href="#m57816270b9" y="163.98379"/>
      </g>
     </g>
     <g id="text_17">
      <!-- 0.4 -->
      <g style="fill:#ff7f0e;" transform="translate(388.765625 167.783008)scale(0.1 -0.1)">
       <use xlink:href="#DejaVuSans-30"/>
       <use x="63.623047" xlink:href="#DejaVuSans-2e"/>
       <use x="95.410156" xlink:href="#DejaVuSans-34"/>
      </g>
     </g>
    </g>
    <g id="ytick_10">
     <g id="line2d_17">
      <g>
       <use style="stroke:#000000;stroke-width:0.8;" x="381.765625" xlink:href="#m57816270b9" y="138.59784"/>
      </g>
     </g>
     <g id="text_18">
      <!-- 0.6 -->
      <g style="fill:#ff7f0e;" transform="translate(388.765625 142.397059)scale(0.1 -0.1)">
       <use xlink:href="#DejaVuSans-30"/>
       <use x="63.623047" xlink:href="#DejaVuSans-2e"/>
       <use x="95.410156" xlink:href="#DejaVuSans-36"/>
      </g>
     </g>
    </g>
    <g id="ytick_11">
     <g id="line2d_18">
      <g>
       <use style="stroke:#000000;stroke-width:0.8;" x="381.765625" xlink:href="#m57816270b9" y="113.21189"/>
      </g>
     </g>
     <g id="text_19">
      <!-- 0.8 -->
      <g style="fill:#ff7f0e;" transform="translate(388.765625 117.011109)scale(0.1 -0.1)">
       <use xlink:href="#DejaVuSans-30"/>
       <use x="63.623047" xlink:href="#DejaVuSans-2e"/>
       <use x="95.410156" xlink:href="#DejaVuSans-38"/>
      </g>
     </g>
    </g>
    <g id="ytick_12">
     <g id="line2d_19">
      <g>
       <use style="stroke:#000000;stroke-width:0.8;" x="381.765625" xlink:href="#m57816270b9" y="87.82594"/>
      </g>
     </g>
     <g id="text_20">
      <!-- 1.0 -->
      <g style="fill:#ff7f0e;" transform="translate(388.765625 91.625159)scale(0.1 -0.1)">
       <use xlink:href="#DejaVuSans-31"/>
       <use x="63.623047" xlink:href="#DejaVuSans-2e"/>
       <use x="95.410156" xlink:href="#DejaVuSans-30"/>
      </g>
     </g>
    </g>
    <g id="ytick_13">
     <g id="line2d_20">
      <g>
       <use style="stroke:#000000;stroke-width:0.8;" x="381.765625" xlink:href="#m57816270b9" y="62.43999"/>
      </g>
     </g>
     <g id="text_21">
      <!-- 1.2 -->
      <g style="fill:#ff7f0e;" transform="translate(388.765625 66.239209)scale(0.1 -0.1)">
       <use xlink:href="#DejaVuSans-31"/>
       <use x="63.623047" xlink:href="#DejaVuSans-2e"/>
       <use x="95.410156" xlink:href="#DejaVuSans-32"/>
      </g>
     </g>
    </g>
    <g id="ytick_14">
     <g id="line2d_21">
      <g>
       <use style="stroke:#000000;stroke-width:0.8;" x="381.765625" xlink:href="#m57816270b9" y="37.05404"/>
      </g>
     </g>
     <g id="text_22">
      <!-- 1.4 -->
      <g style="fill:#ff7f0e;" transform="translate(388.765625 40.853259)scale(0.1 -0.1)">
       <use xlink:href="#DejaVuSans-31"/>
       <use x="63.623047" xlink:href="#DejaVuSans-2e"/>
       <use x="95.410156" xlink:href="#DejaVuSans-34"/>
      </g>
     </g>
    </g>
    <g id="ytick_15">
     <g id="line2d_22">
      <g>
       <use style="stroke:#000000;stroke-width:0.8;" x="381.765625" xlink:href="#m57816270b9" y="11.66809"/>
      </g>
     </g>
     <g id="text_23">
      <!-- 1.6 -->
      <g style="fill:#ff7f0e;" transform="translate(388.765625 15.467309)scale(0.1 -0.1)">
       <use xlink:href="#DejaVuSans-31"/>
       <use x="63.623047" xlink:href="#DejaVuSans-2e"/>
       <use x="95.410156" xlink:href="#DejaVuSans-36"/>
      </g>
     </g>
    </g>
    <g id="text_24">
     <!-- NHF / $\sf kW~m^{-2}$ -->
     <g style="fill:#ff7f0e;" transform="translate(416.689062 150.67)rotate(-90)scale(0.1 -0.1)">
      <defs>
       <path d="M 628 4666 
L 1478 4666 
L 3547 763 
L 3547 4666 
L 4159 4666 
L 4159 0 
L 3309 0 
L 1241 3903 
L 1241 0 
L 628 0 
L 628 4666 
z
" id="DejaVuSans-4e" transform="scale(0.015625)"/>
       <path d="M 628 4666 
L 1259 4666 
L 1259 2753 
L 3553 2753 
L 3553 4666 
L 4184 4666 
L 4184 0 
L 3553 0 
L 3553 2222 
L 1259 2222 
L 1259 0 
L 628 0 
L 628 4666 
z
" id="DejaVuSans-48" transform="scale(0.015625)"/>
       <path d="M 628 4666 
L 3309 4666 
L 3309 4134 
L 1259 4134 
L 1259 2759 
L 3109 2759 
L 3109 2228 
L 1259 2228 
L 1259 0 
L 628 0 
L 628 4666 
z
" id="DejaVuSans-46" transform="scale(0.015625)"/>
       <path d="M 581 4863 
L 1159 4863 
L 1159 1991 
L 2875 3500 
L 3609 3500 
L 1753 1863 
L 3688 0 
L 2938 0 
L 1159 1709 
L 1159 0 
L 581 0 
L 581 4863 
z
" id="DejaVuSans-6b" transform="scale(0.015625)"/>
       <path d="M 213 4666 
L 850 4666 
L 1831 722 
L 2809 4666 
L 3519 4666 
L 4500 722 
L 5478 4666 
L 6119 4666 
L 4947 0 
L 4153 0 
L 3169 4050 
L 2175 0 
L 1381 0 
L 213 4666 
z
" id="DejaVuSans-57" transform="scale(0.015625)"/>
       <path d="M 678 2272 
L 4684 2272 
L 4684 1741 
L 678 1741 
L 678 2272 
z
" id="DejaVuSans-2212" transform="scale(0.015625)"/>
      </defs>
      <use transform="translate(0 0.765625)" xlink:href="#DejaVuSans-4e"/>
      <use transform="translate(71.179688 0.765625)" xlink:href="#DejaVuSans-48"/>
      <use transform="translate(146.375 0.765625)" xlink:href="#DejaVuSans-46"/>
      <use transform="translate(203.894531 0.765625)" xlink:href="#DejaVuSans-20"/>
      <use transform="translate(235.681641 0.765625)" xlink:href="#DejaVuSans-2f"/>
      <use transform="translate(269.373047 0.765625)" xlink:href="#DejaVuSans-20"/>
      <use transform="translate(301.160156 0.765625)" xlink:href="#DejaVuSans-6b"/>
      <use transform="translate(359.070312 0.765625)" xlink:href="#DejaVuSans-57"/>
      <use transform="translate(490.417644 0.765625)" xlink:href="#DejaVuSans-6d"/>
      <use transform="translate(588.786785 39.046875)scale(0.7)" xlink:href="#DejaVuSans-2212"/>
      <use transform="translate(647.439128 39.046875)scale(0.7)" xlink:href="#DejaVuSans-32"/>
     </g>
    </g>
   </g>
   <g id="line2d_23">
    <path clip-path="url(#pebd93747de)" d="M 62.183807 214.756364 
L 64.92308 214.710533 
L 65.227443 214.495658 
L 65.83617 214.489445 
L 66.140534 213.524355 
L 66.749261 213.517163 
L 67.053625 195.744682 
L 67.662352 195.736453 
L 67.966716 195.522394 
L 68.575443 195.514622 
L 68.879807 195.282778 
L 69.488534 195.271984 
L 69.792898 194.242341 
L 70.401625 194.232407 
L 70.705989 191.402768 
L 71.314716 191.394412 
L 71.61908 190.383984 
L 72.227807 190.376948 
L 72.53217 190.167008 
L 73.140898 190.160778 
L 73.445261 189.892568 
L 74.96708 189.866707 
L 75.271443 191.062855 
L 75.88017 191.055889 
L 76.184534 200.680233 
L 77.706352 200.783049 
L 78.010716 200.927134 
L 78.619443 200.922009 
L 78.923807 200.26947 
L 79.532534 200.264491 
L 79.836898 200.737746 
L 80.445625 200.732522 
L 80.749989 193.814892 
L 82.271807 193.748441 
L 82.57617 193.197692 
L 83.184898 193.191944 
L 83.489261 191.212699 
L 84.097989 191.206567 
L 84.402352 190.798046 
L 85.01108 190.791944 
L 85.315443 185.664094 
L 85.92417 185.65776 
L 86.228534 185.265706 
L 86.837261 185.259871 
L 87.141625 183.727434 
L 87.750352 183.720247 
L 88.054716 181.565761 
L 88.35908 181.558427 
L 88.967807 181.165662 
L 89.27217 174.882815 
L 89.880898 173.342439 
L 90.185261 170.176375 
L 90.489625 164.172184 
L 90.793989 163.799192 
L 91.098352 161.305774 
L 91.402716 157.046638 
L 91.70708 155.531566 
L 92.011443 151.925327 
L 92.62017 138.047696 
L 92.924534 137.987376 
L 93.228898 138.182152 
L 93.533261 135.577096 
L 94.141989 120.02168 
L 94.446352 109.047266 
L 94.750716 109.325121 
L 95.05508 116.524563 
L 95.359443 114.842442 
L 95.663807 112.167101 
L 95.96817 121.273855 
L 96.272534 139.547562 
L 96.576898 140.594808 
L 96.881261 145.111367 
L 97.794352 172.264246 
L 98.098716 174.266525 
L 98.40308 172.139225 
L 98.707443 168.124118 
L 99.31617 175.045146 
L 99.924898 172.853603 
L 100.229261 170.387239 
L 100.533625 166.073756 
L 100.837989 167.170046 
L 101.446716 165.070879 
L 101.75108 145.511133 
L 102.359807 145.337616 
L 102.66417 154.136181 
L 102.968534 149.715936 
L 103.272898 141.863416 
L 103.577261 145.612595 
L 103.881625 153.40593 
L 104.185989 153.650375 
L 104.490352 152.036197 
L 104.794716 152.873062 
L 105.403443 162.316803 
L 105.707807 163.240344 
L 106.01217 163.083785 
L 106.316534 162.43923 
L 106.620898 163.736795 
L 107.229625 168.759742 
L 107.533989 170.23578 
L 107.838352 169.852438 
L 108.142716 166.295387 
L 108.44708 159.940141 
L 108.751443 160.261592 
L 109.36017 159.858599 
L 109.664534 155.623049 
L 109.968898 154.983082 
L 110.577625 149.329538 
L 110.881989 149.1109 
L 111.490716 144.456957 
L 111.79508 125.668146 
L 112.403807 126.742416 
L 112.70817 144.628863 
L 113.316898 141.306201 
L 113.621261 141.302063 
L 113.925625 163.126822 
L 114.534352 163.9409 
L 114.838716 166.834988 
L 115.14308 168.307077 
L 115.751807 173.226716 
L 116.05617 177.66488 
L 116.664898 177.340611 
L 116.969261 171.378348 
L 117.577989 173.647984 
L 117.882352 175.727658 
L 118.49108 172.214007 
L 119.099807 170.983068 
L 119.40417 164.428015 
L 120.012898 164.963788 
L 120.317261 163.959481 
L 120.621625 163.955013 
L 120.925989 161.722831 
L 121.534716 162.536973 
L 121.83908 168.806615 
L 123.056534 168.135516 
L 123.360898 170.855989 
L 123.969625 170.707832 
L 124.273989 171.15138 
L 124.578352 171.171872 
L 124.882716 171.0487 
L 125.491443 172.379607 
L 125.795807 173.923546 
L 126.404534 173.73169 
L 126.708898 172.426037 
L 127.013261 172.413981 
L 127.317625 172.895562 
L 127.926352 172.672906 
L 128.230716 171.242716 
L 128.839443 170.222691 
L 129.143807 158.107986 
L 129.752534 157.365596 
L 130.665625 150.991285 
L 130.969989 151.238657 
L 131.274352 162.537794 
L 131.88308 161.582576 
L 132.187443 162.201632 
L 132.79617 166.468518 
L 133.100534 166.992478 
L 133.709261 167.247586 
L 134.013625 166.800421 
L 134.317989 166.794471 
L 134.622352 167.391858 
L 135.23108 167.598161 
L 135.535443 167.504896 
L 136.14417 170.878043 
L 137.057261 172.299139 
L 137.361625 173.674441 
L 137.665989 173.646599 
L 137.970352 173.995374 
L 138.57908 170.775907 
L 139.187807 170.879862 
L 139.49217 170.291243 
L 139.796534 170.229606 
L 140.100898 168.894909 
L 140.709625 168.475109 
L 141.013989 169.927576 
L 141.318352 169.887172 
L 141.622716 170.105413 
L 142.535807 170.106166 
L 142.84017 170.181811 
L 143.144534 169.675517 
L 143.753261 163.536253 
L 144.057625 163.26054 
L 144.666352 163.227524 
L 144.970716 162.537753 
L 145.579443 162.55493 
L 146.492534 162.924101 
L 146.796898 162.900936 
L 147.101261 163.182107 
L 148.014352 162.679275 
L 148.318716 162.490804 
L 148.62308 168.522458 
L 149.231807 167.952038 
L 149.53617 166.891522 
L 149.840534 166.680677 
L 150.144898 165.805541 
L 150.753625 165.35255 
L 151.666716 162.813992 
L 151.97108 160.783369 
L 152.579807 161.51592 
L 152.88417 160.592795 
L 153.492898 155.131054 
L 154.405989 155.974755 
L 155.014716 153.178187 
L 155.31908 152.541246 
L 155.623443 143.674583 
L 156.23217 144.032111 
L 156.536534 142.893964 
L 157.145261 136.018693 
L 157.449625 136.337469 
L 157.753989 146.877973 
L 158.362716 145.633227 
L 158.66708 142.729095 
L 158.971443 147.596728 
L 159.275807 147.885454 
L 159.58017 150.260728 
L 159.884534 154.202967 
L 160.188898 153.565209 
L 160.493261 154.057858 
L 160.797625 156.1425 
L 161.101989 159.098494 
L 161.406352 159.322474 
L 162.319443 160.991915 
L 162.92817 163.483033 
L 163.232534 164.14752 
L 163.841261 163.356041 
L 164.145625 158.486637 
L 164.754352 158.600795 
L 165.058716 159.691251 
L 165.667443 159.401886 
L 165.971807 158.224198 
L 166.580534 154.819998 
L 167.189261 155.033231 
L 167.797989 154.921771 
L 168.102352 152.414231 
L 168.71108 150.848401 
L 169.015443 142.399817 
L 169.62417 142.26241 
L 169.928534 139.243629 
L 170.537261 130.985728 
L 170.841625 132.781772 
L 171.450352 148.038975 
L 172.05908 146.395666 
L 172.667807 156.454849 
L 172.97217 157.259867 
L 173.580898 154.12181 
L 173.885261 153.471199 
L 174.189625 155.615915 
L 174.798352 156.273967 
L 175.102716 154.877746 
L 175.711443 141.777834 
L 176.015807 143.621904 
L 176.624534 144.539014 
L 176.928898 138.298466 
L 177.537625 138.196421 
L 177.841989 146.01442 
L 178.450716 146.590268 
L 178.75508 146.044334 
L 179.363807 149.565419 
L 179.66817 150.535805 
L 180.276898 155.660245 
L 180.885625 155.441399 
L 181.189989 154.435457 
L 181.798716 155.167827 
L 182.10308 155.268862 
L 182.711807 150.677138 
L 183.01617 150.563064 
L 183.624898 150.713998 
L 183.929261 151.540922 
L 184.537989 151.393215 
L 184.842352 151.558516 
L 185.45108 151.28051 
L 185.755443 151.897183 
L 186.059807 151.854324 
L 186.36417 150.331307 
L 186.972898 149.635983 
L 187.581625 152.863919 
L 187.885989 152.576022 
L 188.494716 152.54313 
L 189.103443 154.200909 
L 189.71217 154.144401 
L 190.016534 154.640047 
L 190.625261 154.388123 
L 190.929625 154.622854 
L 191.233989 154.580925 
L 191.538352 155.495164 
L 192.14708 154.807746 
L 192.451443 148.310913 
L 193.364534 148.337196 
L 193.668898 147.984767 
L 194.277625 143.331884 
L 194.581989 143.366292 
L 195.190716 151.364383 
L 195.49508 151.483809 
L 196.103807 150.950998 
L 196.40817 153.762501 
L 196.712534 153.756679 
L 197.016898 154.554007 
L 197.625625 153.790028 
L 197.929989 152.286683 
L 198.538716 152.157538 
L 198.84308 152.873713 
L 199.147443 152.839951 
L 199.451807 152.132148 
L 200.060534 146.986471 
L 200.364898 147.388015 
L 200.669261 147.354341 
L 200.973625 148.129165 
L 201.582352 146.317528 
L 201.886716 146.086891 
L 202.19108 145.643577 
L 202.495443 146.485991 
L 202.799807 146.148777 
L 203.10417 146.231817 
L 203.712898 144.565032 
L 204.017261 144.353339 
L 204.625989 143.671421 
L 204.930352 145.396181 
L 205.53908 145.092657 
L 205.843443 145.122609 
L 206.45217 146.161805 
L 206.756534 146.238475 
L 207.365261 144.107797 
L 207.669625 143.851331 
L 208.278352 144.455618 
L 208.582716 144.239998 
L 209.191443 144.156489 
L 209.80017 139.229792 
L 210.408898 139.298472 
L 210.713261 138.511309 
L 211.017625 138.203752 
L 211.321989 134.794866 
L 211.930716 134.464688 
L 212.23508 141.39714 
L 212.843807 140.918941 
L 213.14817 140.938642 
L 213.452534 140.805994 
L 213.756898 143.328328 
L 214.365625 143.268484 
L 214.669989 138.383738 
L 214.974352 138.352537 
L 215.278716 138.190293 
L 215.887443 138.038663 
L 216.49617 136.9511 
L 217.104898 137.059114 
L 217.409261 142.43306 
L 217.713625 142.46103 
L 218.017989 141.907977 
L 218.626716 141.890576 
L 219.235443 143.344049 
L 219.539807 143.160009 
L 219.84417 143.176335 
L 220.148534 140.652844 
L 220.452898 140.658919 
L 221.670352 139.978045 
L 222.27908 139.913654 
L 222.583443 139.889981 
L 222.887807 141.629934 
L 223.800898 142.287021 
L 224.105261 142.545886 
L 224.409625 141.937634 
L 224.713989 141.910209 
L 225.018352 141.662382 
L 225.62708 140.193838 
L 225.931443 140.483631 
L 226.54017 140.112924 
L 226.844534 138.397984 
L 227.453261 138.344162 
L 228.061989 140.895503 
L 228.366352 140.132466 
L 228.670716 140.035059 
L 228.97508 138.757766 
L 229.583807 139.304063 
L 230.192534 138.473148 
L 230.496898 135.951972 
L 230.801261 135.69692 
L 231.409989 134.576553 
L 232.018716 133.68596 
L 232.32308 133.250741 
L 232.931807 131.827636 
L 233.23617 124.58802 
L 234.453625 122.628106 
L 234.757989 119.856508 
L 235.366716 118.155647 
L 235.975443 111.721502 
L 236.279807 111.328424 
L 236.58417 110.676806 
L 236.888534 109.601658 
L 237.192898 106.089615 
L 237.801625 104.065468 
L 238.105989 115.97732 
L 239.01908 113.932724 
L 239.93217 117.48258 
L 240.236534 121.520236 
L 240.540898 121.501133 
L 240.845261 121.677737 
L 241.149625 122.573777 
L 242.062716 126.600047 
L 242.36708 126.269619 
L 242.671443 125.596038 
L 243.28017 124.912925 
L 243.584534 125.940637 
L 244.193261 125.9892 
L 244.801989 125.690775 
L 245.106352 119.351125 
L 245.410716 119.329329 
L 245.71508 119.559013 
L 246.019443 119.54053 
L 246.323807 120.00819 
L 246.932534 118.396815 
L 247.541261 118.179856 
L 247.845625 121.669703 
L 248.149989 121.632888 
L 248.454352 121.795481 
L 248.758716 121.777596 
L 249.06308 121.124276 
L 249.671807 120.489196 
L 250.889261 118.278262 
L 251.193625 118.025949 
L 251.497989 117.080612 
L 252.106716 118.292107 
L 252.41108 118.337773 
L 253.019807 117.391596 
L 253.32417 117.132414 
L 253.932898 117.399124 
L 254.237261 116.208896 
L 254.541625 116.196541 
L 254.845989 115.455082 
L 255.454716 111.952874 
L 255.75908 111.758619 
L 256.063443 111.766699 
L 256.367807 110.85049 
L 256.976534 108.286749 
L 257.585261 108.428574 
L 257.889625 112.607503 
L 258.498352 111.668021 
L 258.802716 111.095706 
L 259.411443 112.882482 
L 259.715807 112.737185 
L 260.324534 111.477837 
L 260.628898 111.290301 
L 262.150716 111.922914 
L 262.45508 112.731329 
L 262.759443 112.896501 
L 263.36817 113.506947 
L 264.281261 115.562113 
L 264.889989 116.171355 
L 265.194352 120.536353 
L 265.80308 121.089958 
L 266.411807 122.2959 
L 266.71617 124.70279 
L 267.629261 125.193042 
L 267.933625 120.838538 
L 268.846716 121.215698 
L 269.15108 121.284243 
L 269.455443 117.926136 
L 269.759807 117.843195 
L 270.06417 116.196602 
L 270.672898 111.105201 
L 271.281625 108.626641 
L 272.49908 98.308831 
L 273.107807 96.131504 
L 273.41217 94.250589 
L 274.020898 87.836244 
L 274.933989 84.954567 
L 275.542716 83.840441 
L 276.151443 80.244162 
L 276.455807 78.753557 
L 276.76017 79.140674 
L 277.064534 78.515951 
L 277.368898 78.344091 
L 277.673261 78.480242 
L 277.977625 78.977559 
L 278.586352 80.996349 
L 278.890716 82.460884 
L 280.10817 90.14659 
L 280.412534 94.615667 
L 281.021261 98.605766 
L 281.325625 99.773298 
L 281.934352 102.927904 
L 282.238716 103.341485 
L 282.54308 103.254685 
L 283.151807 103.78893 
L 283.45617 103.9414 
L 283.760534 103.961033 
L 284.064898 104.682837 
L 284.673625 104.197132 
L 285.586716 102.307071 
L 285.89108 102.365114 
L 286.195443 102.631053 
L 286.499807 102.732174 
L 287.108534 103.87371 
L 287.412898 104.213035 
L 288.021625 105.66548 
L 288.325989 104.947602 
L 289.23908 106.016524 
L 289.543443 106.562768 
L 290.15217 106.744645 
L 290.456534 106.895155 
L 290.760898 106.842574 
L 291.065261 106.609705 
L 291.369625 109.014848 
L 291.673989 108.623487 
L 292.282716 108.322935 
L 292.58708 107.252841 
L 293.195807 106.523464 
L 293.804534 105.095858 
L 294.413261 93.60597 
L 294.717625 92.561478 
L 295.021989 92.362495 
L 295.630716 89.878783 
L 295.93508 88.496487 
L 296.239443 88.649357 
L 296.84817 97.969877 
L 297.152534 97.139984 
L 297.761261 96.909823 
L 298.065625 98.424926 
L 298.369989 98.385501 
L 298.674352 98.531094 
L 299.28308 99.630247 
L 299.891807 99.372767 
L 300.19617 99.68447 
L 300.500534 99.651506 
L 300.804898 99.247269 
L 301.109261 99.205378 
L 301.413625 98.788771 
L 301.717989 98.767693 
L 302.022352 95.748919 
L 302.326716 95.696421 
L 302.63108 96.526247 
L 302.935443 96.499518 
L 303.239807 96.279888 
L 303.54417 96.211245 
L 303.848534 94.959668 
L 304.152898 94.919911 
L 304.457261 94.068175 
L 304.761625 93.960214 
L 305.065989 88.724908 
L 305.370352 88.662287 
L 305.674716 88.315843 
L 305.97908 88.154559 
L 307.196534 79.941039 
L 307.500898 78.254333 
L 307.805261 83.66908 
L 309.022716 78.214311 
L 309.32708 79.915906 
L 309.631443 79.594716 
L 309.935807 80.099931 
L 310.544534 77.931524 
L 310.848898 77.865567 
L 311.153261 78.242137 
L 311.457625 79.835196 
L 312.066352 80.764206 
L 312.67508 79.604263 
L 313.283807 77.192334 
L 313.58817 76.938069 
L 313.892534 76.875184 
L 314.196898 77.820506 
L 315.109989 77.388692 
L 315.414352 77.395561 
L 315.718716 73.129 
L 316.631807 72.651248 
L 316.93617 72.586547 
L 317.240534 70.926336 
L 317.849261 71.630481 
L 318.457989 77.291428 
L 318.762352 76.690129 
L 319.066716 76.737536 
L 319.37108 77.307135 
L 319.979807 79.420798 
L 320.588534 79.464088 
L 320.892898 81.23229 
L 321.197261 81.287867 
L 321.501625 81.771082 
L 321.805989 81.800089 
L 322.110352 82.203789 
L 322.414716 82.233916 
L 322.71908 82.440018 
L 323.327807 82.239832 
L 324.240898 83.70025 
L 324.545261 84.041338 
L 325.153989 82.795707 
L 326.371443 82.000683 
L 326.98017 82.272833 
L 327.284534 81.230172 
L 327.588898 81.195007 
L 327.893261 79.613266 
L 328.197625 79.532178 
L 328.501989 78.777797 
L 328.806352 78.722795 
L 329.110716 78.239353 
L 329.41508 78.128108 
L 329.719443 72.014511 
L 330.023807 71.851654 
L 330.32817 71.826748 
L 331.241261 70.384744 
L 331.545625 67.974313 
L 333.371807 62.940903 
L 333.67617 62.86564 
L 334.284898 61.167283 
L 334.893625 60.141781 
L 335.197989 57.406921 
L 335.502352 56.680987 
L 336.719807 52.347909 
L 337.328534 51.428537 
L 337.632898 51.429369 
L 337.937261 53.023578 
L 338.545989 52.771053 
L 338.850352 50.51095 
L 339.154716 50.666181 
L 339.45908 50.28607 
L 340.067807 50.600345 
L 340.676534 55.95018 
L 340.980898 55.779863 
L 341.285261 56.074785 
L 341.589625 55.220099 
L 342.198352 56.302162 
L 342.80708 56.385141 
L 343.111443 58.76929 
L 343.415807 58.630476 
L 344.328898 56.400031 
L 344.633261 56.137232 
L 344.937625 55.045455 
L 345.546352 52.184689 
L 345.850716 41.718056 
L 346.15508 41.475033 
L 346.763807 41.534242 
L 347.06817 43.536615 
L 347.372534 44.113522 
L 347.676898 43.976085 
L 347.981261 44.349524 
L 348.589989 45.941463 
L 348.894352 43.270366 
L 349.198716 43.671388 
L 349.50308 44.907804 
L 350.111807 46.093259 
L 350.41617 46.407019 
L 350.720534 45.505003 
L 351.024898 45.90312 
L 351.329261 46.712004 
L 351.633625 46.88624 
L 351.937989 56.753617 
L 352.546716 57.326983 
L 352.85108 55.660463 
L 353.155443 55.866065 
L 353.459807 56.595965 
L 353.76417 56.818514 
L 354.068534 56.826867 
L 355.285989 55.256762 
L 356.19908 54.191949 
L 356.503443 53.992716 
L 357.11217 52.854623 
L 357.416534 52.741351 
L 357.720898 52.464283 
L 358.329625 51.466335 
L 358.633989 52.556765 
L 358.938352 52.291061 
L 359.242716 52.826342 
L 360.46017 50.31889 
L 360.764534 50.077547 
L 361.373261 50.778016 
L 361.981989 51.845069 
L 362.286352 52.000179 
L 362.590716 52.699513 
L 362.89508 52.619015 
L 363.199443 52.401337 
L 363.503807 52.404696 
L 363.80817 52.065954 
L 364.112534 49.638061 
L 364.416898 48.343753 
L 364.721261 45.95564 
L 365.025625 41.789868 
L 365.634352 29.059637 
L 365.938716 26.188567 
L 366.547443 17.083636 
L 366.547443 17.083636 
" style="fill:none;stroke:#ff7f0e;stroke-linecap:square;"/>
   </g>
   <g id="patch_7">
    <path d="M 46.965625 224.64 
L 46.965625 7.2 
" style="fill:none;stroke:#000000;stroke-linecap:square;stroke-linejoin:miter;stroke-width:0.8;"/>
   </g>
   <g id="patch_8">
    <path d="M 381.765625 224.64 
L 381.765625 7.2 
" style="fill:none;stroke:#000000;stroke-linecap:square;stroke-linejoin:miter;stroke-width:0.8;"/>
   </g>
   <g id="patch_9">
    <path d="M 46.965625 224.64 
L 381.765625 224.64 
" style="fill:none;stroke:#000000;stroke-linecap:square;stroke-linejoin:miter;stroke-width:0.8;"/>
   </g>
   <g id="patch_10">
    <path d="M 46.965625 7.2 
L 381.765625 7.2 
" style="fill:none;stroke:#000000;stroke-linecap:square;stroke-linejoin:miter;stroke-width:0.8;"/>
   </g>
  </g>
 </g>
 <defs>
  <clipPath id="pebd93747de">
   <rect height="217.44" width="334.8" x="46.965625" y="7.2"/>
  </clipPath>
 </defs>
</svg>
