<?xml version="1.0" encoding="utf-8" standalone="no"?>
<!DOCTYPE svg PUBLIC "-//W3C//DTD SVG 1.1//EN"
  "http://www.w3.org/Graphics/SVG/1.1/DTD/svg11.dtd">
<svg height="262.19625pt" version="1.1" viewBox="0 0 437.152638 262.19625" width="437.152638pt" xmlns="http://www.w3.org/2000/svg" xmlns:xlink="http://www.w3.org/1999/xlink">
 <metadata>
  <rdf:RDF xmlns:cc="http://creativecommons.org/ns#" xmlns:dc="http://purl.org/dc/elements/1.1/" xmlns:rdf="http://www.w3.org/1999/02/22-rdf-syntax-ns#">
   <cc:Work>
    <dc:type rdf:resource="http://purl.org/dc/dcmitype/StillImage"/>
    <dc:date>2021-06-06T20:08:20.275383</dc:date>
    <dc:format>image/svg+xml</dc:format>
    <dc:creator>
     <cc:Agent>
      <dc:title>Matplotlib v3.4.1, https://matplotlib.org/</dc:title>
     </cc:Agent>
    </dc:creator>
   </cc:Work>
  </rdf:RDF>
 </metadata>
 <defs>
  <style type="text/css">*{stroke-linecap:butt;stroke-linejoin:round;}</style>
 </defs>
 <g id="figure_1">
  <g id="patch_1">
   <path d="M 0 262.19625 
L 437.152638 262.19625 
L 437.152638 0 
L 0 0 
z
" style="fill:none;"/>
  </g>
  <g id="axes_1">
   <g id="patch_2">
    <path d="M 46.965625 224.64 
L 381.765625 224.64 
L 381.765625 7.2 
L 46.965625 7.2 
z
" style="fill:#ffffff;"/>
   </g>
   <g id="matplotlib.axis_1">
    <g id="xtick_1">
     <g id="line2d_1">
      <path clip-path="url(#pa70901ceac)" d="M 97.398756 224.64 
L 97.398756 7.2 
" style="fill:none;stroke:#b0b0b0;stroke-dasharray:2.96,1.28;stroke-dashoffset:0;stroke-opacity:0.5;stroke-width:0.8;"/>
     </g>
     <g id="line2d_2">
      <defs>
       <path d="M 0 0 
L 0 3.5 
" id="m186ee48ff3" style="stroke:#000000;stroke-width:0.8;"/>
      </defs>
      <g>
       <use style="stroke:#000000;stroke-width:0.8;" x="97.398756" xlink:href="#m186ee48ff3" y="224.64"/>
      </g>
     </g>
     <g id="text_1">
      <!-- 5 -->
      <g transform="translate(94.217506 239.238437)scale(0.1 -0.1)">
       <defs>
        <path d="M 691 4666 
L 3169 4666 
L 3169 4134 
L 1269 4134 
L 1269 2991 
Q 1406 3038 1543 3061 
Q 1681 3084 1819 3084 
Q 2600 3084 3056 2656 
Q 3513 2228 3513 1497 
Q 3513 744 3044 326 
Q 2575 -91 1722 -91 
Q 1428 -91 1123 -41 
Q 819 9 494 109 
L 494 744 
Q 775 591 1075 516 
Q 1375 441 1709 441 
Q 2250 441 2565 725 
Q 2881 1009 2881 1497 
Q 2881 1984 2565 2268 
Q 2250 2553 1709 2553 
Q 1456 2553 1204 2497 
Q 953 2441 691 2322 
L 691 4666 
z
" id="DejaVuSans-35" transform="scale(0.015625)"/>
       </defs>
       <use xlink:href="#DejaVuSans-35"/>
      </g>
     </g>
    </g>
    <g id="xtick_2">
     <g id="line2d_3">
      <path clip-path="url(#pa70901ceac)" d="M 154.609532 224.64 
L 154.609532 7.2 
" style="fill:none;stroke:#b0b0b0;stroke-dasharray:2.96,1.28;stroke-dashoffset:0;stroke-opacity:0.5;stroke-width:0.8;"/>
     </g>
     <g id="line2d_4">
      <g>
       <use style="stroke:#000000;stroke-width:0.8;" x="154.609532" xlink:href="#m186ee48ff3" y="224.64"/>
      </g>
     </g>
     <g id="text_2">
      <!-- 10 -->
      <g transform="translate(148.247032 239.238437)scale(0.1 -0.1)">
       <defs>
        <path d="M 794 531 
L 1825 531 
L 1825 4091 
L 703 3866 
L 703 4441 
L 1819 4666 
L 2450 4666 
L 2450 531 
L 3481 531 
L 3481 0 
L 794 0 
L 794 531 
z
" id="DejaVuSans-31" transform="scale(0.015625)"/>
        <path d="M 2034 4250 
Q 1547 4250 1301 3770 
Q 1056 3291 1056 2328 
Q 1056 1369 1301 889 
Q 1547 409 2034 409 
Q 2525 409 2770 889 
Q 3016 1369 3016 2328 
Q 3016 3291 2770 3770 
Q 2525 4250 2034 4250 
z
M 2034 4750 
Q 2819 4750 3233 4129 
Q 3647 3509 3647 2328 
Q 3647 1150 3233 529 
Q 2819 -91 2034 -91 
Q 1250 -91 836 529 
Q 422 1150 422 2328 
Q 422 3509 836 4129 
Q 1250 4750 2034 4750 
z
" id="DejaVuSans-30" transform="scale(0.015625)"/>
       </defs>
       <use xlink:href="#DejaVuSans-31"/>
       <use x="63.623047" xlink:href="#DejaVuSans-30"/>
      </g>
     </g>
    </g>
    <g id="xtick_3">
     <g id="line2d_5">
      <path clip-path="url(#pa70901ceac)" d="M 211.820309 224.64 
L 211.820309 7.2 
" style="fill:none;stroke:#b0b0b0;stroke-dasharray:2.96,1.28;stroke-dashoffset:0;stroke-opacity:0.5;stroke-width:0.8;"/>
     </g>
     <g id="line2d_6">
      <g>
       <use style="stroke:#000000;stroke-width:0.8;" x="211.820309" xlink:href="#m186ee48ff3" y="224.64"/>
      </g>
     </g>
     <g id="text_3">
      <!-- 15 -->
      <g transform="translate(205.457809 239.238437)scale(0.1 -0.1)">
       <use xlink:href="#DejaVuSans-31"/>
       <use x="63.623047" xlink:href="#DejaVuSans-35"/>
      </g>
     </g>
    </g>
    <g id="xtick_4">
     <g id="line2d_7">
      <path clip-path="url(#pa70901ceac)" d="M 269.031085 224.64 
L 269.031085 7.2 
" style="fill:none;stroke:#b0b0b0;stroke-dasharray:2.96,1.28;stroke-dashoffset:0;stroke-opacity:0.5;stroke-width:0.8;"/>
     </g>
     <g id="line2d_8">
      <g>
       <use style="stroke:#000000;stroke-width:0.8;" x="269.031085" xlink:href="#m186ee48ff3" y="224.64"/>
      </g>
     </g>
     <g id="text_4">
      <!-- 20 -->
      <g transform="translate(262.668585 239.238437)scale(0.1 -0.1)">
       <defs>
        <path d="M 1228 531 
L 3431 531 
L 3431 0 
L 469 0 
L 469 531 
Q 828 903 1448 1529 
Q 2069 2156 2228 2338 
Q 2531 2678 2651 2914 
Q 2772 3150 2772 3378 
Q 2772 3750 2511 3984 
Q 2250 4219 1831 4219 
Q 1534 4219 1204 4116 
Q 875 4013 500 3803 
L 500 4441 
Q 881 4594 1212 4672 
Q 1544 4750 1819 4750 
Q 2544 4750 2975 4387 
Q 3406 4025 3406 3419 
Q 3406 3131 3298 2873 
Q 3191 2616 2906 2266 
Q 2828 2175 2409 1742 
Q 1991 1309 1228 531 
z
" id="DejaVuSans-32" transform="scale(0.015625)"/>
       </defs>
       <use xlink:href="#DejaVuSans-32"/>
       <use x="63.623047" xlink:href="#DejaVuSans-30"/>
      </g>
     </g>
    </g>
    <g id="xtick_5">
     <g id="line2d_9">
      <path clip-path="url(#pa70901ceac)" d="M 326.241861 224.64 
L 326.241861 7.2 
" style="fill:none;stroke:#b0b0b0;stroke-dasharray:2.96,1.28;stroke-dashoffset:0;stroke-opacity:0.5;stroke-width:0.8;"/>
     </g>
     <g id="line2d_10">
      <g>
       <use style="stroke:#000000;stroke-width:0.8;" x="326.241861" xlink:href="#m186ee48ff3" y="224.64"/>
      </g>
     </g>
     <g id="text_5">
      <!-- 25 -->
      <g transform="translate(319.879361 239.238437)scale(0.1 -0.1)">
       <use xlink:href="#DejaVuSans-32"/>
       <use x="63.623047" xlink:href="#DejaVuSans-35"/>
      </g>
     </g>
    </g>
    <g id="text_6">
     <!-- Time / s -->
     <g transform="translate(194.664844 252.916562)scale(0.1 -0.1)">
      <defs>
       <path d="M -19 4666 
L 3928 4666 
L 3928 4134 
L 2272 4134 
L 2272 0 
L 1638 0 
L 1638 4134 
L -19 4134 
L -19 4666 
z
" id="DejaVuSans-54" transform="scale(0.015625)"/>
       <path d="M 603 3500 
L 1178 3500 
L 1178 0 
L 603 0 
L 603 3500 
z
M 603 4863 
L 1178 4863 
L 1178 4134 
L 603 4134 
L 603 4863 
z
" id="DejaVuSans-69" transform="scale(0.015625)"/>
       <path d="M 3328 2828 
Q 3544 3216 3844 3400 
Q 4144 3584 4550 3584 
Q 5097 3584 5394 3201 
Q 5691 2819 5691 2113 
L 5691 0 
L 5113 0 
L 5113 2094 
Q 5113 2597 4934 2840 
Q 4756 3084 4391 3084 
Q 3944 3084 3684 2787 
Q 3425 2491 3425 1978 
L 3425 0 
L 2847 0 
L 2847 2094 
Q 2847 2600 2669 2842 
Q 2491 3084 2119 3084 
Q 1678 3084 1418 2786 
Q 1159 2488 1159 1978 
L 1159 0 
L 581 0 
L 581 3500 
L 1159 3500 
L 1159 2956 
Q 1356 3278 1631 3431 
Q 1906 3584 2284 3584 
Q 2666 3584 2933 3390 
Q 3200 3197 3328 2828 
z
" id="DejaVuSans-6d" transform="scale(0.015625)"/>
       <path d="M 3597 1894 
L 3597 1613 
L 953 1613 
Q 991 1019 1311 708 
Q 1631 397 2203 397 
Q 2534 397 2845 478 
Q 3156 559 3463 722 
L 3463 178 
Q 3153 47 2828 -22 
Q 2503 -91 2169 -91 
Q 1331 -91 842 396 
Q 353 884 353 1716 
Q 353 2575 817 3079 
Q 1281 3584 2069 3584 
Q 2775 3584 3186 3129 
Q 3597 2675 3597 1894 
z
M 3022 2063 
Q 3016 2534 2758 2815 
Q 2500 3097 2075 3097 
Q 1594 3097 1305 2825 
Q 1016 2553 972 2059 
L 3022 2063 
z
" id="DejaVuSans-65" transform="scale(0.015625)"/>
       <path id="DejaVuSans-20" transform="scale(0.015625)"/>
       <path d="M 1625 4666 
L 2156 4666 
L 531 -594 
L 0 -594 
L 1625 4666 
z
" id="DejaVuSans-2f" transform="scale(0.015625)"/>
       <path d="M 2834 3397 
L 2834 2853 
Q 2591 2978 2328 3040 
Q 2066 3103 1784 3103 
Q 1356 3103 1142 2972 
Q 928 2841 928 2578 
Q 928 2378 1081 2264 
Q 1234 2150 1697 2047 
L 1894 2003 
Q 2506 1872 2764 1633 
Q 3022 1394 3022 966 
Q 3022 478 2636 193 
Q 2250 -91 1575 -91 
Q 1294 -91 989 -36 
Q 684 19 347 128 
L 347 722 
Q 666 556 975 473 
Q 1284 391 1588 391 
Q 1994 391 2212 530 
Q 2431 669 2431 922 
Q 2431 1156 2273 1281 
Q 2116 1406 1581 1522 
L 1381 1569 
Q 847 1681 609 1914 
Q 372 2147 372 2553 
Q 372 3047 722 3315 
Q 1072 3584 1716 3584 
Q 2034 3584 2315 3537 
Q 2597 3491 2834 3397 
z
" id="DejaVuSans-73" transform="scale(0.015625)"/>
      </defs>
      <use xlink:href="#DejaVuSans-54"/>
      <use x="57.958984" xlink:href="#DejaVuSans-69"/>
      <use x="85.742188" xlink:href="#DejaVuSans-6d"/>
      <use x="183.154297" xlink:href="#DejaVuSans-65"/>
      <use x="244.677734" xlink:href="#DejaVuSans-20"/>
      <use x="276.464844" xlink:href="#DejaVuSans-2f"/>
      <use x="310.15625" xlink:href="#DejaVuSans-20"/>
      <use x="341.943359" xlink:href="#DejaVuSans-73"/>
     </g>
    </g>
   </g>
   <g id="matplotlib.axis_2">
    <g id="ytick_1">
     <g id="line2d_11">
      <path clip-path="url(#pa70901ceac)" d="M 46.965625 223.321498 
L 381.765625 223.321498 
" style="fill:none;stroke:#b0b0b0;stroke-dasharray:2.96,1.28;stroke-dashoffset:0;stroke-opacity:0.5;stroke-width:0.8;"/>
     </g>
     <g id="line2d_12">
      <defs>
       <path d="M 0 0 
L -3.5 0 
" id="m1a9970b1d0" style="stroke:#000000;stroke-width:0.8;"/>
      </defs>
      <g>
       <use style="stroke:#000000;stroke-width:0.8;" x="46.965625" xlink:href="#m1a9970b1d0" y="223.321498"/>
      </g>
     </g>
     <g id="text_7">
      <!-- 0 -->
      <g transform="translate(33.603125 227.120717)scale(0.1 -0.1)">
       <use xlink:href="#DejaVuSans-30"/>
      </g>
     </g>
    </g>
    <g id="ytick_2">
     <g id="line2d_13">
      <path clip-path="url(#pa70901ceac)" d="M 46.965625 179.432105 
L 381.765625 179.432105 
" style="fill:none;stroke:#b0b0b0;stroke-dasharray:2.96,1.28;stroke-dashoffset:0;stroke-opacity:0.5;stroke-width:0.8;"/>
     </g>
     <g id="line2d_14">
      <g>
       <use style="stroke:#000000;stroke-width:0.8;" x="46.965625" xlink:href="#m1a9970b1d0" y="179.432105"/>
      </g>
     </g>
     <g id="text_8">
      <!-- 200 -->
      <g transform="translate(20.878125 183.231324)scale(0.1 -0.1)">
       <use xlink:href="#DejaVuSans-32"/>
       <use x="63.623047" xlink:href="#DejaVuSans-30"/>
       <use x="127.246094" xlink:href="#DejaVuSans-30"/>
      </g>
     </g>
    </g>
    <g id="ytick_3">
     <g id="line2d_15">
      <path clip-path="url(#pa70901ceac)" d="M 46.965625 135.542713 
L 381.765625 135.542713 
" style="fill:none;stroke:#b0b0b0;stroke-dasharray:2.96,1.28;stroke-dashoffset:0;stroke-opacity:0.5;stroke-width:0.8;"/>
     </g>
     <g id="line2d_16">
      <g>
       <use style="stroke:#000000;stroke-width:0.8;" x="46.965625" xlink:href="#m1a9970b1d0" y="135.542713"/>
      </g>
     </g>
     <g id="text_9">
      <!-- 400 -->
      <g transform="translate(20.878125 139.341931)scale(0.1 -0.1)">
       <defs>
        <path d="M 2419 4116 
L 825 1625 
L 2419 1625 
L 2419 4116 
z
M 2253 4666 
L 3047 4666 
L 3047 1625 
L 3713 1625 
L 3713 1100 
L 3047 1100 
L 3047 0 
L 2419 0 
L 2419 1100 
L 313 1100 
L 313 1709 
L 2253 4666 
z
" id="DejaVuSans-34" transform="scale(0.015625)"/>
       </defs>
       <use xlink:href="#DejaVuSans-34"/>
       <use x="63.623047" xlink:href="#DejaVuSans-30"/>
       <use x="127.246094" xlink:href="#DejaVuSans-30"/>
      </g>
     </g>
    </g>
    <g id="ytick_4">
     <g id="line2d_17">
      <path clip-path="url(#pa70901ceac)" d="M 46.965625 91.65332 
L 381.765625 91.65332 
" style="fill:none;stroke:#b0b0b0;stroke-dasharray:2.96,1.28;stroke-dashoffset:0;stroke-opacity:0.5;stroke-width:0.8;"/>
     </g>
     <g id="line2d_18">
      <g>
       <use style="stroke:#000000;stroke-width:0.8;" x="46.965625" xlink:href="#m1a9970b1d0" y="91.65332"/>
      </g>
     </g>
     <g id="text_10">
      <!-- 600 -->
      <g transform="translate(20.878125 95.452539)scale(0.1 -0.1)">
       <defs>
        <path d="M 2113 2584 
Q 1688 2584 1439 2293 
Q 1191 2003 1191 1497 
Q 1191 994 1439 701 
Q 1688 409 2113 409 
Q 2538 409 2786 701 
Q 3034 994 3034 1497 
Q 3034 2003 2786 2293 
Q 2538 2584 2113 2584 
z
M 3366 4563 
L 3366 3988 
Q 3128 4100 2886 4159 
Q 2644 4219 2406 4219 
Q 1781 4219 1451 3797 
Q 1122 3375 1075 2522 
Q 1259 2794 1537 2939 
Q 1816 3084 2150 3084 
Q 2853 3084 3261 2657 
Q 3669 2231 3669 1497 
Q 3669 778 3244 343 
Q 2819 -91 2113 -91 
Q 1303 -91 875 529 
Q 447 1150 447 2328 
Q 447 3434 972 4092 
Q 1497 4750 2381 4750 
Q 2619 4750 2861 4703 
Q 3103 4656 3366 4563 
z
" id="DejaVuSans-36" transform="scale(0.015625)"/>
       </defs>
       <use xlink:href="#DejaVuSans-36"/>
       <use x="63.623047" xlink:href="#DejaVuSans-30"/>
       <use x="127.246094" xlink:href="#DejaVuSans-30"/>
      </g>
     </g>
    </g>
    <g id="ytick_5">
     <g id="line2d_19">
      <path clip-path="url(#pa70901ceac)" d="M 46.965625 47.763927 
L 381.765625 47.763927 
" style="fill:none;stroke:#b0b0b0;stroke-dasharray:2.96,1.28;stroke-dashoffset:0;stroke-opacity:0.5;stroke-width:0.8;"/>
     </g>
     <g id="line2d_20">
      <g>
       <use style="stroke:#000000;stroke-width:0.8;" x="46.965625" xlink:href="#m1a9970b1d0" y="47.763927"/>
      </g>
     </g>
     <g id="text_11">
      <!-- 800 -->
      <g transform="translate(20.878125 51.563146)scale(0.1 -0.1)">
       <defs>
        <path d="M 2034 2216 
Q 1584 2216 1326 1975 
Q 1069 1734 1069 1313 
Q 1069 891 1326 650 
Q 1584 409 2034 409 
Q 2484 409 2743 651 
Q 3003 894 3003 1313 
Q 3003 1734 2745 1975 
Q 2488 2216 2034 2216 
z
M 1403 2484 
Q 997 2584 770 2862 
Q 544 3141 544 3541 
Q 544 4100 942 4425 
Q 1341 4750 2034 4750 
Q 2731 4750 3128 4425 
Q 3525 4100 3525 3541 
Q 3525 3141 3298 2862 
Q 3072 2584 2669 2484 
Q 3125 2378 3379 2068 
Q 3634 1759 3634 1313 
Q 3634 634 3220 271 
Q 2806 -91 2034 -91 
Q 1263 -91 848 271 
Q 434 634 434 1313 
Q 434 1759 690 2068 
Q 947 2378 1403 2484 
z
M 1172 3481 
Q 1172 3119 1398 2916 
Q 1625 2713 2034 2713 
Q 2441 2713 2670 2916 
Q 2900 3119 2900 3481 
Q 2900 3844 2670 4047 
Q 2441 4250 2034 4250 
Q 1625 4250 1398 4047 
Q 1172 3844 1172 3481 
z
" id="DejaVuSans-38" transform="scale(0.015625)"/>
       </defs>
       <use xlink:href="#DejaVuSans-38"/>
       <use x="63.623047" xlink:href="#DejaVuSans-30"/>
       <use x="127.246094" xlink:href="#DejaVuSans-30"/>
      </g>
     </g>
    </g>
    <g id="text_12">
     <!-- Temperature / $\sf ^\circ C$ -->
     <g transform="translate(14.778125 160.67)rotate(-90)scale(0.1 -0.1)">
      <defs>
       <path d="M 1159 525 
L 1159 -1331 
L 581 -1331 
L 581 3500 
L 1159 3500 
L 1159 2969 
Q 1341 3281 1617 3432 
Q 1894 3584 2278 3584 
Q 2916 3584 3314 3078 
Q 3713 2572 3713 1747 
Q 3713 922 3314 415 
Q 2916 -91 2278 -91 
Q 1894 -91 1617 61 
Q 1341 213 1159 525 
z
M 3116 1747 
Q 3116 2381 2855 2742 
Q 2594 3103 2138 3103 
Q 1681 3103 1420 2742 
Q 1159 2381 1159 1747 
Q 1159 1113 1420 752 
Q 1681 391 2138 391 
Q 2594 391 2855 752 
Q 3116 1113 3116 1747 
z
" id="DejaVuSans-70" transform="scale(0.015625)"/>
       <path d="M 2631 2963 
Q 2534 3019 2420 3045 
Q 2306 3072 2169 3072 
Q 1681 3072 1420 2755 
Q 1159 2438 1159 1844 
L 1159 0 
L 581 0 
L 581 3500 
L 1159 3500 
L 1159 2956 
Q 1341 3275 1631 3429 
Q 1922 3584 2338 3584 
Q 2397 3584 2469 3576 
Q 2541 3569 2628 3553 
L 2631 2963 
z
" id="DejaVuSans-72" transform="scale(0.015625)"/>
       <path d="M 2194 1759 
Q 1497 1759 1228 1600 
Q 959 1441 959 1056 
Q 959 750 1161 570 
Q 1363 391 1709 391 
Q 2188 391 2477 730 
Q 2766 1069 2766 1631 
L 2766 1759 
L 2194 1759 
z
M 3341 1997 
L 3341 0 
L 2766 0 
L 2766 531 
Q 2569 213 2275 61 
Q 1981 -91 1556 -91 
Q 1019 -91 701 211 
Q 384 513 384 1019 
Q 384 1609 779 1909 
Q 1175 2209 1959 2209 
L 2766 2209 
L 2766 2266 
Q 2766 2663 2505 2880 
Q 2244 3097 1772 3097 
Q 1472 3097 1187 3025 
Q 903 2953 641 2809 
L 641 3341 
Q 956 3463 1253 3523 
Q 1550 3584 1831 3584 
Q 2591 3584 2966 3190 
Q 3341 2797 3341 1997 
z
" id="DejaVuSans-61" transform="scale(0.015625)"/>
       <path d="M 1172 4494 
L 1172 3500 
L 2356 3500 
L 2356 3053 
L 1172 3053 
L 1172 1153 
Q 1172 725 1289 603 
Q 1406 481 1766 481 
L 2356 481 
L 2356 0 
L 1766 0 
Q 1100 0 847 248 
Q 594 497 594 1153 
L 594 3053 
L 172 3053 
L 172 3500 
L 594 3500 
L 594 4494 
L 1172 4494 
z
" id="DejaVuSans-74" transform="scale(0.015625)"/>
       <path d="M 544 1381 
L 544 3500 
L 1119 3500 
L 1119 1403 
Q 1119 906 1312 657 
Q 1506 409 1894 409 
Q 2359 409 2629 706 
Q 2900 1003 2900 1516 
L 2900 3500 
L 3475 3500 
L 3475 0 
L 2900 0 
L 2900 538 
Q 2691 219 2414 64 
Q 2138 -91 1772 -91 
Q 1169 -91 856 284 
Q 544 659 544 1381 
z
M 1991 3584 
L 1991 3584 
z
" id="DejaVuSans-75" transform="scale(0.015625)"/>
       <path d="M 2000 2619 
Q 1750 2619 1578 2445 
Q 1406 2272 1406 2022 
Q 1406 1775 1578 1605 
Q 1750 1435 2000 1435 
Q 2250 1435 2422 1605 
Q 2594 1775 2594 2022 
Q 2594 2269 2420 2444 
Q 2247 2619 2000 2619 
z
M 2000 3022 
Q 2200 3022 2384 2945 
Q 2569 2869 2703 2725 
Q 2847 2585 2919 2406 
Q 2991 2228 2991 2022 
Q 2991 1610 2702 1324 
Q 2413 1038 1994 1038 
Q 1572 1038 1290 1319 
Q 1009 1600 1009 2022 
Q 1009 2441 1296 2731 
Q 1584 3022 2000 3022 
z
" id="DejaVuSans-2218" transform="scale(0.015625)"/>
       <path d="M 4122 4306 
L 4122 3641 
Q 3803 3938 3442 4084 
Q 3081 4231 2675 4231 
Q 1875 4231 1450 3742 
Q 1025 3253 1025 2328 
Q 1025 1406 1450 917 
Q 1875 428 2675 428 
Q 3081 428 3442 575 
Q 3803 722 4122 1019 
L 4122 359 
Q 3791 134 3420 21 
Q 3050 -91 2638 -91 
Q 1578 -91 968 557 
Q 359 1206 359 2328 
Q 359 3453 968 4101 
Q 1578 4750 2638 4750 
Q 3056 4750 3426 4639 
Q 3797 4528 4122 4306 
z
" id="DejaVuSans-43" transform="scale(0.015625)"/>
      </defs>
      <use transform="translate(0 0.78125)" xlink:href="#DejaVuSans-54"/>
      <use transform="translate(61.083984 0.78125)" xlink:href="#DejaVuSans-65"/>
      <use transform="translate(122.607422 0.78125)" xlink:href="#DejaVuSans-6d"/>
      <use transform="translate(220.019531 0.78125)" xlink:href="#DejaVuSans-70"/>
      <use transform="translate(283.496094 0.78125)" xlink:href="#DejaVuSans-65"/>
      <use transform="translate(345.019531 0.78125)" xlink:href="#DejaVuSans-72"/>
      <use transform="translate(386.132812 0.78125)" xlink:href="#DejaVuSans-61"/>
      <use transform="translate(447.412109 0.78125)" xlink:href="#DejaVuSans-74"/>
      <use transform="translate(486.621094 0.78125)" xlink:href="#DejaVuSans-75"/>
      <use transform="translate(550 0.78125)" xlink:href="#DejaVuSans-72"/>
      <use transform="translate(591.113281 0.78125)" xlink:href="#DejaVuSans-65"/>
      <use transform="translate(652.636719 0.78125)" xlink:href="#DejaVuSans-20"/>
      <use transform="translate(684.423828 0.78125)" xlink:href="#DejaVuSans-2f"/>
      <use transform="translate(718.115234 0.78125)" xlink:href="#DejaVuSans-20"/>
      <use transform="translate(764.49707 39.0625)scale(0.7)" xlink:href="#DejaVuSans-2218"/>
      <use transform="translate(824.6875 0.78125)" xlink:href="#DejaVuSans-43"/>
     </g>
    </g>
   </g>
   <g id="line2d_21">
    <path clip-path="url(#pa70901ceac)" d="M 62.183807 116.496436 
L 62.863926 112.734214 
L 67.547485 79.513349 
L 69.779609 67.905979 
L 70.031672 67.505072 
L 70.284474 67.338592 
L 70.537809 67.350464 
L 70.793393 67.071521 
L 71.306983 65.140375 
L 72.879469 56.850061 
L 73.950499 51.476977 
L 74.765115 48.620385 
L 75.039775 47.969924 
L 75.315035 47.644481 
L 75.590895 47.750639 
L 75.869232 48.132123 
L 76.711994 49.957802 
L 76.997548 50.287318 
L 77.284665 50.430429 
L 77.863908 50.192637 
L 78.15635 49.941383 
L 78.450846 49.512122 
L 79.045996 48.344108 
L 79.649359 47.720694 
L 79.95372 47.674324 
L 80.259734 47.823685 
L 81.190353 48.709319 
L 81.504093 48.702583 
L 81.819342 48.510729 
L 82.777237 47.41769 
L 85.411737 43.484607 
L 86.776027 40.631202 
L 87.806124 38.866244 
L 88.835792 36.900722 
L 89.865972 35.535686 
L 90.894741 34.211175 
L 91.581991 33.267372 
L 91.924374 33.030386 
L 92.268344 33.19547 
L 93.298026 34.248319 
L 93.640659 34.182603 
L 94.327532 33.890327 
L 97.075108 33.509544 
L 97.418765 33.354605 
L 97.763185 33.022802 
L 98.450603 31.700872 
L 99.822839 28.758724 
L 100.166759 28.29187 
L 100.510921 28.120021 
L 100.855178 28.227991 
L 101.540229 28.589958 
L 102.567791 29.009885 
L 102.911678 29.001213 
L 103.600044 29.32615 
L 104.286119 29.665675 
L 104.628733 29.696588 
L 105.657758 29.174365 
L 106.344762 28.788966 
L 107.033036 28.131803 
L 108.750932 26.260544 
L 109.781779 24.379455 
L 110.468575 22.882567 
L 111.1541 21.426045 
L 111.839939 20.801218 
L 112.182857 20.768605 
L 112.868692 21.29287 
L 113.554525 22.499634 
L 114.241554 23.668604 
L 114.585668 23.999896 
L 115.61647 24.333085 
L 116.303459 24.840255 
L 117.334921 25.752319 
L 117.67832 25.847794 
L 118.020922 25.756765 
L 118.708371 25.327356 
L 119.394496 25.496168 
L 119.73933 25.702146 
L 120.084122 25.773019 
L 121.113159 25.247147 
L 122.487864 25.60616 
L 123.174431 25.583081 
L 123.517398 25.825333 
L 124.547709 26.901277 
L 125.234153 27.428643 
L 126.264518 28.544463 
L 126.608 28.670456 
L 126.952084 28.928454 
L 127.637923 29.916935 
L 128.325581 30.943692 
L 128.668474 31.144414 
L 129.011822 31.182363 
L 129.698035 30.977158 
L 130.383451 30.463174 
L 131.072454 29.866226 
L 131.415442 29.814121 
L 131.7585 29.948269 
L 132.444826 30.539885 
L 133.131431 31.128307 
L 134.160245 31.810304 
L 135.188105 33.454851 
L 135.531967 33.687716 
L 136.219902 33.644413 
L 136.563974 33.611928 
L 137.593379 34.044755 
L 138.280731 34.005936 
L 139.311369 33.56136 
L 139.654462 33.180349 
L 139.997633 33.015321 
L 140.34088 33.2562 
L 141.026735 34.253419 
L 142.398124 36.432054 
L 143.08538 37.330241 
L 143.772299 38.444454 
L 144.115846 38.774641 
L 144.801178 39.021182 
L 145.833506 39.108879 
L 146.863507 39.748236 
L 147.207615 39.72601 
L 147.550172 39.391807 
L 148.580168 37.606557 
L 149.607153 35.789677 
L 150.634937 34.252925 
L 151.319047 33.487133 
L 152.005219 33.120396 
L 153.376701 32.710741 
L 154.405005 31.91688 
L 154.747801 32.149114 
L 155.433544 32.878174 
L 156.462536 33.203127 
L 157.148296 33.740637 
L 157.492128 33.680224 
L 157.835815 33.290337 
L 159.209121 31.169826 
L 159.896179 30.161339 
L 160.582923 29.082541 
L 161.267747 28.511445 
L 162.298528 27.577591 
L 163.328201 27.116778 
L 164.357439 26.994668 
L 164.702293 27.159713 
L 166.416867 29.055986 
L 168.13388 28.929492 
L 168.822267 29.340113 
L 169.509905 29.786692 
L 170.540577 30.204309 
L 171.225289 30.528904 
L 171.567984 30.531755 
L 171.910574 30.361613 
L 172.595441 29.764874 
L 172.937717 29.683675 
L 173.625593 29.879561 
L 173.969374 30.268005 
L 174.313051 30.459167 
L 174.656622 30.401897 
L 175.688669 29.669278 
L 176.376753 29.248725 
L 177.062793 28.947801 
L 178.090243 28.327569 
L 178.432395 28.379775 
L 178.776143 28.554325 
L 179.119549 28.871067 
L 179.805336 29.922494 
L 180.491694 30.441336 
L 180.835329 30.559064 
L 181.521575 30.426351 
L 181.865868 30.212724 
L 182.209312 29.831184 
L 183.239512 28.168385 
L 184.270497 27.552153 
L 185.301453 27.015177 
L 185.989151 26.65352 
L 186.676798 26.817633 
L 188.049688 27.404807 
L 189.078896 28.21658 
L 190.1076 28.587331 
L 190.45194 28.49539 
L 191.138924 27.937279 
L 191.483028 27.625159 
L 191.825934 27.48454 
L 193.885808 27.356207 
L 194.570149 26.974267 
L 195.254954 26.519016 
L 196.288024 26.301759 
L 197.31732 26.143486 
L 198.34766 26.29157 
L 198.691339 26.143236 
L 199.375833 25.421831 
L 200.060792 24.266127 
L 200.747878 23.17401 
L 201.437092 22.71295 
L 202.466966 22.31761 
L 202.810168 21.974238 
L 204.181258 19.952467 
L 205.555094 19.719413 
L 205.898382 19.744808 
L 207.272813 20.654701 
L 207.61674 20.514225 
L 208.303146 19.748609 
L 208.987813 19.148218 
L 210.01749 18.612346 
L 210.359969 18.339248 
L 211.388386 17.083636 
L 211.731621 17.101912 
L 212.075696 17.346407 
L 213.448741 18.842342 
L 214.135932 18.850052 
L 214.822113 18.854168 
L 215.165006 19.004107 
L 215.849816 19.782492 
L 216.535942 20.956708 
L 217.567318 23.105638 
L 218.596666 24.469714 
L 218.940399 24.722559 
L 219.284263 24.678614 
L 219.628259 24.869381 
L 220.313318 26.348186 
L 220.999272 28.055017 
L 221.686122 28.880906 
L 222.372289 29.485537 
L 223.06093 29.634626 
L 224.776846 29.860541 
L 225.461662 30.223342 
L 226.147057 30.608245 
L 226.833032 30.48839 
L 227.863082 30.248507 
L 228.207069 30.424868 
L 229.58442 31.695789 
L 230.271084 31.909656 
L 230.956869 32.466678 
L 231.299365 32.797867 
L 231.641597 32.932788 
L 232.673599 32.756801 
L 233.017685 32.994401 
L 234.050192 34.198342 
L 235.422494 35.404067 
L 235.764983 35.420294 
L 236.107123 35.214343 
L 236.450404 34.873963 
L 236.793485 34.758526 
L 237.136516 34.9337 
L 237.479495 35.344608 
L 238.165302 36.825488 
L 239.535108 40.358585 
L 240.221944 41.486985 
L 240.908555 41.778854 
L 241.594944 42.178821 
L 242.281109 43.031214 
L 242.970891 43.95045 
L 243.314585 44.103906 
L 243.657383 44.034416 
L 244.688598 43.388155 
L 245.720643 43.412236 
L 246.752711 42.96973 
L 249.503114 41.399027 
L 249.84602 41.26592 
L 250.533445 41.324187 
L 250.87636 41.404535 
L 251.219653 41.363027 
L 251.563161 40.952737 
L 252.591135 39.076857 
L 252.935402 39.074098 
L 253.278473 39.470217 
L 253.621723 40.145958 
L 253.96515 40.412919 
L 254.308755 40.107027 
L 254.652539 39.3752 
L 255.339062 37.319753 
L 255.681801 36.705484 
L 256.367813 36.099999 
L 257.738738 35.539851 
L 259.80166 33.500292 
L 260.145048 33.357141 
L 260.488632 33.515188 
L 261.520558 34.738273 
L 262.550231 36.56234 
L 263.236841 37.818418 
L 263.922544 38.63913 
L 264.265955 38.867996 
L 264.608144 38.828303 
L 264.951304 38.570414 
L 265.638522 37.861389 
L 266.325619 37.793123 
L 267.011675 37.780465 
L 267.354692 37.701372 
L 267.698375 37.868002 
L 268.040706 38.287496 
L 269.414179 40.678606 
L 269.757015 40.870981 
L 270.100454 41.194682 
L 270.787647 42.589331 
L 271.131252 43.241319 
L 271.475161 43.634338 
L 271.819374 43.764033 
L 272.163891 43.633956 
L 274.22456 42.106653 
L 275.599718 40.607642 
L 276.286348 40.352544 
L 277.314437 40.401157 
L 278.001898 40.029553 
L 278.344482 40.13665 
L 279.715251 41.132052 
L 280.400583 41.455495 
L 280.742845 41.438352 
L 281.427185 41.05828 
L 282.111699 40.544038 
L 283.48091 40.170839 
L 284.166462 39.658658 
L 285.539988 38.443964 
L 285.882068 38.68199 
L 286.91421 40.490845 
L 287.256457 40.392228 
L 287.941914 39.602109 
L 290.344384 38.585442 
L 291.031739 37.858945 
L 291.375528 37.841851 
L 292.06115 38.291339 
L 292.747186 38.624505 
L 293.431521 38.637357 
L 294.461719 39.140243 
L 294.804494 38.951466 
L 295.146857 38.548773 
L 296.516639 36.043606 
L 297.547023 33.540021 
L 298.232189 32.591212 
L 298.917169 32.183137 
L 299.259929 32.203966 
L 300.289287 32.916854 
L 300.632093 33.043473 
L 300.974407 33.04226 
L 302.004443 32.588822 
L 302.348821 32.108582 
L 303.036098 30.515162 
L 303.722124 28.848423 
L 305.778602 25.48522 
L 306.121215 25.483748 
L 306.808115 26.044858 
L 307.496654 26.604839 
L 309.89771 27.36554 
L 310.582912 28.170371 
L 311.268908 29.208574 
L 311.954957 29.640421 
L 312.641848 29.786003 
L 313.329487 29.687743 
L 314.35904 29.020404 
L 315.044891 28.563485 
L 315.731432 28.730583 
L 316.074726 28.907807 
L 316.418036 28.93316 
L 317.447876 28.182834 
L 317.792242 28.621363 
L 318.479566 30.401286 
L 319.50686 33.250621 
L 319.850822 33.840721 
L 320.194085 34.199753 
L 320.536649 34.353368 
L 321.222776 34.429895 
L 321.566688 34.725692 
L 322.252415 35.440377 
L 323.283082 35.684381 
L 323.970013 36.190259 
L 324.657134 36.212475 
L 325.001508 36.158545 
L 325.345101 35.884331 
L 326.374621 34.055287 
L 327.060399 33.518129 
L 328.090106 32.901541 
L 328.77532 32.377548 
L 329.462873 32.292969 
L 330.839583 32.883762 
L 331.526113 32.892875 
L 333.242339 32.462022 
L 333.586651 32.470786 
L 333.930561 32.362029 
L 334.959884 31.576232 
L 335.302503 31.785104 
L 335.987479 32.591952 
L 336.672105 32.859721 
L 338.387457 32.898542 
L 338.730973 33.058968 
L 339.074403 33.360821 
L 339.417745 33.911919 
L 339.761 34.23093 
L 340.104168 34.110523 
L 340.447248 33.647969 
L 341.475964 31.734162 
L 342.161338 30.828606 
L 343.190516 28.74602 
L 343.534582 28.568407 
L 344.566254 28.999873 
L 345.253599 29.474573 
L 345.597141 30.026206 
L 347.313184 34.310772 
L 348.344631 35.792263 
L 349.032003 36.429819 
L 349.376434 36.495433 
L 350.065272 36.282703 
L 350.754076 35.806858 
L 351.443191 35.885334 
L 351.78654 35.673889 
L 352.129048 35.021518 
L 353.160814 31.982022 
L 353.846844 30.045503 
L 354.190146 29.449805 
L 354.534155 29.08442 
L 355.563528 28.44912 
L 356.595816 27.33216 
L 356.937879 27.308012 
L 357.623814 27.541105 
L 358.311083 27.586306 
L 358.654672 27.7866 
L 358.997974 28.28096 
L 360.370363 31.458527 
L 360.713255 31.786788 
L 361.398853 32.124485 
L 362.77308 33.400114 
L 363.116851 33.381635 
L 363.460888 33.18209 
L 363.803517 33.136924 
L 364.48913 33.257522 
L 365.517207 33.121808 
L 365.860607 33.212793 
L 366.547443 33.666783 
L 366.547443 33.666783 
" style="fill:none;stroke:#0000ff;stroke-linecap:square;"/>
   </g>
   <g id="line2d_22">
    <path clip-path="url(#pa70901ceac)" d="M 46.965625 31.963746 
L 381.765625 31.963746 
" style="fill:none;stroke:#0000ff;stroke-dasharray:1,1.65;stroke-dashoffset:0;"/>
   </g>
   <g id="line2d_23">
    <path clip-path="url(#pa70901ceac)" d="M 62.183807 144.983722 
L 63.192478 139.324436 
L 64.127861 131.981462 
L 64.9919 125.979973 
L 66.303619 119.073974 
L 67.794989 111.0692 
L 68.536398 105.122138 
L 69.279962 99.981217 
L 69.779609 96.381058 
L 70.284474 91.571276 
L 72.08754 78.514076 
L 72.613932 75.481868 
L 73.412343 72.199701 
L 75.315035 65.032939 
L 76.148749 61.074715 
L 77.863908 52.799219 
L 78.747395 49.497018 
L 79.649359 44.650354 
L 79.95372 43.867192 
L 80.567401 43.110268 
L 80.878122 43.000488 
L 81.190353 43.049359 
L 81.504093 43.287787 
L 82.136102 44.468243 
L 84.411127 50.102279 
L 84.743051 50.492014 
L 85.076485 50.60423 
L 85.411737 50.460267 
L 85.748808 50.088651 
L 87.120148 47.476448 
L 87.806124 47.242237 
L 88.492606 47.049572 
L 89.522311 46.386349 
L 90.551346 45.335504 
L 91.924374 43.703071 
L 92.268344 43.709396 
L 92.611162 43.932757 
L 92.95439 44.470311 
L 94.327532 48.093659 
L 94.67089 48.282536 
L 95.015011 48.227025 
L 95.70183 47.811639 
L 96.387989 47.18846 
L 97.075108 46.227685 
L 98.107131 44.186497 
L 98.450603 43.783245 
L 98.793601 43.598181 
L 99.822839 43.8659 
L 100.510921 43.471439 
L 100.855178 43.436232 
L 101.197731 44.182456 
L 101.540229 45.433428 
L 102.225877 46.810022 
L 103.942743 49.040371 
L 104.286119 49.373757 
L 104.628733 49.381852 
L 105.314552 48.777309 
L 106.68856 47.069966 
L 107.376749 47.209445 
L 108.063986 47.451531 
L 108.407315 47.747479 
L 109.437588 49.28052 
L 110.811179 50.525267 
L 111.839939 52.597219 
L 112.525775 54.279884 
L 113.554525 58.303201 
L 113.89784 58.896455 
L 114.241554 59.152616 
L 114.585668 59.053601 
L 115.27218 58.448754 
L 115.959591 58.261715 
L 116.646532 58.477368 
L 117.334921 58.889176 
L 118.020922 59.721947 
L 118.708371 60.948118 
L 119.394496 61.649576 
L 119.73933 61.960374 
L 120.084122 62.737623 
L 121.800008 69.309623 
L 122.487864 71.595289 
L 123.861046 76.777955 
L 126.608 85.455515 
L 127.294776 86.964829 
L 127.637923 87.166083 
L 127.981525 86.966706 
L 128.325581 86.5297 
L 129.011822 85.227708 
L 130.040708 82.586696 
L 130.727918 80.886222 
L 131.072454 80.332289 
L 131.415442 80.167543 
L 131.7585 80.394349 
L 132.444826 81.558211 
L 133.131431 83.257893 
L 134.502244 87.156089 
L 134.844313 87.766614 
L 135.188105 88.048707 
L 135.8759 87.839852 
L 136.908116 87.436014 
L 137.250709 87.61563 
L 137.936127 88.657767 
L 138.625413 89.800076 
L 139.311369 91.785718 
L 140.34088 95.329706 
L 140.683987 95.965792 
L 141.369124 96.418377 
L 142.054624 96.915472 
L 143.429456 98.21479 
L 145.48901 103.28742 
L 146.176452 104.240396 
L 146.519786 104.421736 
L 146.863507 104.399349 
L 147.550172 104.013216 
L 147.893117 103.55751 
L 148.580168 101.469453 
L 149.607153 98.173469 
L 151.319047 91.718189 
L 152.005219 90.188136 
L 152.691104 88.945601 
L 153.033402 88.568354 
L 153.376701 88.497321 
L 154.063233 88.949603 
L 154.405005 88.868072 
L 155.090161 87.844522 
L 155.776491 86.790804 
L 158.179358 83.603643 
L 159.209121 81.453944 
L 160.239791 79.279758 
L 161.611285 75.434666 
L 162.298528 74.581718 
L 162.642232 74.378419 
L 162.985456 74.319741 
L 163.328201 74.3853 
L 164.702293 75.225566 
L 166.074142 76.780795 
L 166.759496 77.0679 
L 167.790025 77.169075 
L 168.822267 77.470939 
L 169.509905 77.419247 
L 169.853236 77.234322 
L 170.540577 76.348879 
L 171.225289 74.960193 
L 171.910574 73.041732 
L 172.595441 71.878972 
L 173.625593 71.016711 
L 174.656622 69.13435 
L 175.000307 69.052407 
L 176.033346 69.395648 
L 177.062793 69.457747 
L 177.405266 69.097603 
L 177.747749 68.320152 
L 179.805336 61.480314 
L 180.491694 58.837057 
L 182.551907 53.721622 
L 183.239512 52.820743 
L 183.583009 52.66486 
L 183.926166 52.739949 
L 184.270497 53.019151 
L 184.614488 53.503914 
L 185.645939 55.457722 
L 186.33277 56.21774 
L 186.676798 56.54051 
L 187.019773 56.688501 
L 187.363157 56.588571 
L 189.078896 55.084824 
L 189.421808 54.936409 
L 189.763668 55.088769 
L 190.45194 56.172129 
L 191.483028 57.976215 
L 192.855349 59.986217 
L 193.198719 60.247695 
L 193.542206 60.243644 
L 194.227921 59.945409 
L 194.570149 60.12923 
L 199.375833 66.467315 
L 199.718254 66.567706 
L 201.437092 65.866174 
L 202.810168 64.568102 
L 203.153165 64.578509 
L 203.838543 64.970904 
L 204.181258 65.432285 
L 204.867069 67.036357 
L 205.898382 69.837273 
L 206.241799 70.198941 
L 206.585343 70.064984 
L 206.929014 69.639751 
L 207.61674 68.055603 
L 208.303146 66.638381 
L 209.33133 64.980538 
L 210.01749 63.778369 
L 210.701831 63.119437 
L 211.731621 62.443052 
L 212.075696 62.650239 
L 212.419154 63.151778 
L 213.105677 64.769689 
L 213.792645 67.192487 
L 215.849816 76.330464 
L 216.535942 78.413454 
L 217.223528 79.996602 
L 217.567318 80.477755 
L 217.911612 80.561461 
L 218.254644 80.410168 
L 218.596666 80.08241 
L 218.940399 79.58388 
L 219.284263 78.775503 
L 219.970874 76.394603 
L 220.655591 73.868655 
L 220.999272 72.959594 
L 221.342783 72.604362 
L 221.686122 72.762104 
L 222.372289 74.055847 
L 223.748887 77.265317 
L 224.09261 77.483981 
L 224.434655 77.386871 
L 226.147057 76.350852 
L 226.489972 76.252318 
L 226.833032 76.321592 
L 227.176237 76.594323 
L 228.207069 77.83278 
L 228.894609 78.135296 
L 229.23947 77.987157 
L 230.956869 75.093135 
L 231.299365 74.697232 
L 231.641597 74.555935 
L 231.985556 74.793848 
L 232.329556 75.351116 
L 233.017685 77.098893 
L 233.705981 78.764019 
L 234.39425 80.009642 
L 234.73796 80.39927 
L 235.079657 80.464777 
L 235.764983 79.717626 
L 236.450404 79.047937 
L 237.136516 78.703508 
L 237.822424 78.041701 
L 238.165302 77.944359 
L 238.849907 78.226547 
L 239.535108 78.783479 
L 240.221944 79.714964 
L 240.908555 81.480978 
L 242.625938 87.24747 
L 244.000904 90.110834 
L 244.344588 90.346565 
L 245.033096 90.212596 
L 245.376625 90.131184 
L 245.720643 90.348455 
L 246.752711 91.448618 
L 247.44077 91.831266 
L 248.127867 91.84867 
L 248.815461 91.679899 
L 250.189464 92.043547 
L 250.533445 92.227133 
L 251.219653 93.164124 
L 252.591135 93.979836 
L 252.935402 94.079008 
L 253.278473 94.47971 
L 253.621723 95.350006 
L 255.339062 101.156626 
L 255.681801 101.624443 
L 256.367813 102.09952 
L 256.711086 102.256045 
L 257.053125 102.276205 
L 257.738738 101.779 
L 259.115471 100.21177 
L 259.80166 99.884895 
L 260.145048 99.994923 
L 262.207654 102.005458 
L 263.579567 105.095498 
L 264.608144 108.585947 
L 265.638522 112.168109 
L 265.98258 112.69419 
L 266.325619 112.516478 
L 267.011675 110.972368 
L 268.040706 107.996476 
L 268.383702 107.32717 
L 268.727559 106.973443 
L 269.070454 106.929226 
L 269.414179 107.174499 
L 269.757015 107.859094 
L 270.787647 110.819565 
L 271.475161 111.649447 
L 272.850254 112.961886 
L 273.880128 113.28428 
L 275.943851 114.714819 
L 276.286348 114.55629 
L 276.62918 114.003925 
L 277.314437 112.520307 
L 278.001898 111.314329 
L 279.028839 108.785506 
L 280.058052 107.5396 
L 280.742845 106.843577 
L 281.084993 106.723444 
L 281.427185 106.802828 
L 282.454022 107.491333 
L 283.138797 107.653967 
L 284.854078 106.91438 
L 285.882068 105.555959 
L 286.226067 105.564085 
L 286.570115 105.821626 
L 286.91421 106.233412 
L 287.256457 106.435457 
L 287.598957 106.07255 
L 287.941914 105.228815 
L 290.000985 98.541469 
L 291.031739 96.032101 
L 291.718665 94.830983 
L 292.06115 94.42055 
L 292.404494 94.223367 
L 293.089528 94.496237 
L 293.774641 94.886427 
L 294.118534 94.862652 
L 294.461719 94.516444 
L 295.146857 92.995168 
L 297.203768 87.526477 
L 297.88983 86.365327 
L 299.259929 83.332358 
L 300.289287 80.702081 
L 300.632093 80.527063 
L 303.036098 81.887798 
L 303.379244 81.975612 
L 303.722124 81.824139 
L 304.064966 81.188079 
L 304.750535 78.861238 
L 305.435952 76.263256 
L 306.463789 73.391989 
L 307.152404 72.263814 
L 307.840865 71.967224 
L 308.18486 71.822621 
L 308.869888 71.156911 
L 309.89771 69.897246 
L 310.239524 69.733879 
L 310.582912 69.938489 
L 310.925903 70.738565 
L 312.986261 78.066767 
L 313.329487 78.967706 
L 313.671909 79.395381 
L 314.015093 79.552071 
L 314.701801 79.429643 
L 315.731432 78.982607 
L 316.074726 78.561507 
L 316.418036 77.860335 
L 317.104704 75.571836 
L 318.136253 71.713341 
L 318.479566 71.12637 
L 318.82218 70.894221 
L 319.164096 70.984814 
L 319.50686 71.40707 
L 320.194085 73.080198 
L 321.566688 77.639716 
L 323.970013 89.011691 
L 324.657134 90.839632 
L 325.001508 91.291698 
L 326.374621 92.241862 
L 327.060399 92.394906 
L 327.403485 92.25686 
L 328.432519 91.35567 
L 328.77532 91.333916 
L 329.118213 91.482618 
L 329.807462 91.459832 
L 330.151819 91.396912 
L 330.495941 91.530069 
L 331.869181 93.07517 
L 332.899196 94.643875 
L 333.930561 95.926778 
L 334.959884 97.829158 
L 335.302503 98.175764 
L 335.645035 98.278669 
L 336.672105 98.086379 
L 337.014287 97.877827 
L 337.356382 97.484806 
L 338.730973 94.979813 
L 339.074403 94.942099 
L 339.761 95.498549 
L 340.447248 95.94715 
L 340.79024 95.916974 
L 341.133146 95.599844 
L 341.818695 93.910877 
L 342.503895 92.114786 
L 343.190516 90.951316 
L 343.87856 90.03784 
L 344.566254 88.496839 
L 345.253599 86.656162 
L 345.940595 85.563999 
L 346.627241 84.977007 
L 346.970433 84.926667 
L 347.313184 85.389837 
L 349.032003 89.682683 
L 349.376434 89.935207 
L 349.720857 89.803625 
L 350.754076 88.691269 
L 351.443191 88.453656 
L 351.78654 88.55151 
L 352.472263 89.51599 
L 352.816185 89.81124 
L 353.160814 89.934904 
L 353.504249 89.733037 
L 353.846844 89.266637 
L 354.534155 87.536488 
L 355.906917 82.562169 
L 356.595816 79.4139 
L 357.623814 74.635558 
L 358.311083 72.860691 
L 358.654672 72.395787 
L 358.997974 72.222072 
L 359.68321 72.303567 
L 360.370363 72.125719 
L 360.713255 72.202215 
L 361.398853 72.859347 
L 362.086337 74.123727 
L 362.77308 75.390148 
L 363.116851 75.613978 
L 363.460888 75.540135 
L 363.803517 75.649609 
L 364.146413 75.940375 
L 365.517207 77.995027 
L 365.860607 78.089781 
L 366.204325 77.904006 
L 366.547443 77.517275 
L 366.547443 77.517275 
" style="fill:none;stroke:#00bfbf;stroke-linecap:square;"/>
   </g>
   <g id="line2d_24">
    <path clip-path="url(#pa70901ceac)" d="M 46.965625 103.284009 
L 381.765625 103.284009 
" style="fill:none;stroke:#00bfbf;stroke-dasharray:1,1.65;stroke-dashoffset:0;"/>
   </g>
   <g id="line2d_25">
    <path clip-path="url(#pa70901ceac)" d="M 62.183807 174.727014 
L 63.512415 164.889901 
L 64.9919 153.532807 
L 65.791196 149.280273 
L 67.052551 144.260748 
L 68.536398 138.43627 
L 69.031846 135.897468 
L 69.779609 130.506349 
L 71.306983 118.926514 
L 74.220477 105.282765 
L 75.590895 100.197182 
L 76.997548 95.480004 
L 78.15635 90.265435 
L 79.95372 81.080429 
L 80.259734 79.87998 
L 80.567401 79.186293 
L 80.878122 78.954453 
L 82.777237 78.762603 
L 83.424411 78.795935 
L 83.751807 78.915329 
L 84.080712 79.204567 
L 84.743051 80.240868 
L 86.776027 83.947535 
L 87.120148 84.24665 
L 87.464166 84.395321 
L 87.806124 84.359668 
L 88.492606 83.979486 
L 88.835792 83.935782 
L 89.179835 84.080951 
L 89.865972 84.664163 
L 90.208067 85.113765 
L 92.268344 89.219733 
L 92.95439 91.37649 
L 94.327532 96.483125 
L 95.015011 98.412595 
L 95.70183 99.898966 
L 96.044528 100.435625 
L 96.387989 100.765082 
L 96.730976 100.905911 
L 97.418765 100.664092 
L 98.107131 100.195785 
L 99.479163 98.90928 
L 99.822839 98.752925 
L 100.166759 98.928921 
L 100.510921 99.444754 
L 100.855178 100.337321 
L 101.882876 104.198982 
L 102.567791 106.890127 
L 103.256243 108.215546 
L 104.286119 110.046094 
L 104.972024 111.632476 
L 105.657758 112.609817 
L 106.001641 112.74731 
L 106.68856 112.443255 
L 107.720944 111.661755 
L 108.407315 111.597629 
L 109.093396 111.864504 
L 109.437588 112.117384 
L 109.781779 112.534561 
L 110.12597 113.142124 
L 111.1541 115.944803 
L 112.182857 118.66496 
L 112.868692 120.351621 
L 113.89784 123.867689 
L 114.585668 126.134542 
L 114.928637 126.69119 
L 115.61647 127.31245 
L 116.646532 127.897798 
L 118.020922 128.18103 
L 118.708371 128.149458 
L 119.394496 127.718678 
L 120.427176 126.798638 
L 120.770188 126.790541 
L 121.113159 127.01121 
L 121.800008 127.776348 
L 122.487864 129.238728 
L 125.576859 138.028207 
L 126.608 141.289918 
L 127.294776 142.764845 
L 127.981525 143.686926 
L 128.325581 143.919708 
L 128.668474 143.897307 
L 130.383451 142.888941 
L 131.072454 142.980734 
L 131.415442 143.035958 
L 131.7585 142.955726 
L 132.444826 142.49564 
L 132.788093 142.498904 
L 133.131431 142.740795 
L 133.474839 143.14743 
L 134.844313 145.277507 
L 135.531967 145.801429 
L 136.219902 145.797219 
L 136.908116 145.653139 
L 137.593379 145.231444 
L 139.311369 143.965209 
L 139.654462 144.085184 
L 139.997633 144.456684 
L 140.683987 145.881467 
L 141.711155 148.245728 
L 142.398124 149.302415 
L 144.115846 151.577232 
L 144.801178 152.054364 
L 145.833506 152.623111 
L 146.519786 153.585599 
L 147.550172 155.106441 
L 147.893117 155.392302 
L 148.580168 155.518777 
L 149.264894 155.367564 
L 149.607153 154.819337 
L 150.292174 152.59302 
L 151.661632 147.347388 
L 152.34789 145.748496 
L 153.033402 144.730738 
L 153.376701 144.447211 
L 153.721024 144.319181 
L 154.747801 144.308742 
L 155.433544 143.91983 
L 155.776491 143.694219 
L 156.462536 143.478387 
L 157.835815 142.330018 
L 158.179358 141.993778 
L 159.896179 139.421135 
L 160.582923 138.463376 
L 162.298528 135.325503 
L 162.642232 134.977862 
L 163.328201 134.747381 
L 164.014096 134.074781 
L 164.357439 133.598253 
L 164.702293 132.920927 
L 165.388408 131.12507 
L 165.731322 130.572056 
L 166.074142 130.393864 
L 166.416867 130.52565 
L 167.10203 131.098462 
L 167.790025 131.234934 
L 169.1668 131.250566 
L 169.853236 131.338715 
L 170.88282 131.642272 
L 171.567984 131.547638 
L 171.910574 131.284614 
L 172.937717 129.756174 
L 174.656622 127.521052 
L 175.688669 126.518158 
L 177.062793 125.298777 
L 179.119549 123.158691 
L 180.491694 122.050989 
L 181.178623 120.569427 
L 182.209312 118.366495 
L 182.895166 116.954566 
L 183.583009 114.883387 
L 183.926166 114.286756 
L 184.270497 114.181607 
L 184.614488 114.402427 
L 185.301453 115.243975 
L 185.989151 116.344462 
L 186.676798 116.931422 
L 187.363157 117.021166 
L 189.078896 117.088082 
L 190.1076 117.638071 
L 191.483028 118.512079 
L 192.168957 118.944864 
L 192.512095 119.301726 
L 193.198719 120.591239 
L 193.885808 121.890064 
L 194.227921 122.165085 
L 194.912494 122.416753 
L 196.288024 123.690867 
L 196.974105 124.371289 
L 197.660651 124.662157 
L 199.033528 125.846254 
L 200.403445 127.82543 
L 200.747878 128.090236 
L 201.092427 128.159883 
L 201.780267 127.901409 
L 202.466966 127.687176 
L 203.495957 127.616023 
L 204.524099 127.130359 
L 204.867069 127.182028 
L 205.211933 127.38727 
L 205.555094 127.751693 
L 206.241799 129.063313 
L 206.929014 130.579038 
L 207.61674 131.611104 
L 207.960794 131.861826 
L 208.303146 131.866007 
L 208.645626 131.533891 
L 209.674556 129.885514 
L 211.388386 128.578309 
L 212.075696 128.229744 
L 213.105677 128.098431 
L 214.478602 127.918581 
L 214.822113 128.182583 
L 215.165006 128.76896 
L 217.223528 133.938172 
L 218.254644 136.839565 
L 219.970874 140.018506 
L 220.313318 140.112107 
L 220.655591 139.653794 
L 221.686122 136.796111 
L 222.029291 136.158986 
L 222.372289 135.784579 
L 223.06093 135.540323 
L 224.434655 135.277672 
L 225.119181 135.387595 
L 225.804287 135.657596 
L 226.489972 135.946157 
L 226.833032 135.950358 
L 227.519587 135.617409 
L 228.207069 135.031699 
L 228.551548 134.89832 
L 229.23947 135.02713 
L 230.614109 134.690429 
L 231.985556 134.239759 
L 232.673599 133.785364 
L 233.017685 133.806646 
L 233.705981 134.384849 
L 234.73796 135.766166 
L 235.422494 137.041485 
L 236.450404 139.171605 
L 237.136516 140.107795 
L 237.822424 140.62307 
L 238.507796 140.858952 
L 239.193437 141.051022 
L 240.908555 141.894472 
L 241.938054 142.979882 
L 242.625938 143.957659 
L 243.314585 145.769463 
L 244.000904 147.541871 
L 244.688598 148.205318 
L 245.376625 148.941723 
L 246.408686 150.327885 
L 247.784803 151.238893 
L 249.503114 152.898831 
L 250.189464 152.889768 
L 250.87636 152.862826 
L 251.563161 153.202758 
L 252.247084 153.789836 
L 254.652539 156.729844 
L 255.339062 158.735235 
L 256.024718 160.975657 
L 256.367813 161.819976 
L 256.711086 162.367811 
L 257.053125 162.621493 
L 258.426397 162.89033 
L 259.458468 162.816411 
L 259.80166 162.658362 
L 260.488632 161.865405 
L 261.176387 161.140009 
L 261.864925 160.816829 
L 262.207654 160.831853 
L 262.550231 160.963087 
L 263.236841 161.641754 
L 264.265955 163.173316 
L 266.325619 166.588324 
L 267.011675 168.031903 
L 267.354692 168.503596 
L 267.698375 168.617808 
L 268.040706 168.443264 
L 268.727559 167.515868 
L 269.757015 165.836281 
L 270.444494 165.123178 
L 271.131252 164.815969 
L 271.819374 164.820108 
L 272.506921 165.159197 
L 273.193892 165.468458 
L 273.880128 165.359791 
L 275.255919 164.556238 
L 275.943851 164.481413 
L 276.62918 164.677834 
L 278.001898 165.679418 
L 278.686795 166.077062 
L 279.028839 165.91123 
L 279.715251 165.261423 
L 281.76942 162.538288 
L 282.796388 161.538279 
L 283.48091 161.1744 
L 283.822726 161.185725 
L 284.854078 161.685578 
L 286.226067 162.170275 
L 286.570115 162.172731 
L 286.91421 161.954011 
L 287.598957 161.060074 
L 288.284935 160.093345 
L 288.971165 159.482626 
L 290.000985 159.350405 
L 290.687466 158.634794 
L 292.06115 156.938664 
L 292.747186 156.295167 
L 293.089528 156.088158 
L 293.774641 156.042129 
L 294.461719 156.191366 
L 295.488972 156.609501 
L 296.172946 156.607372 
L 297.203768 156.247969 
L 297.88983 155.935296 
L 298.573917 155.761129 
L 299.259929 155.071456 
L 300.289287 153.714829 
L 301.318245 151.799709 
L 302.004443 150.628648 
L 302.692706 150.134466 
L 303.036098 150.055904 
L 303.722124 150.201382 
L 304.40777 150.36897 
L 304.750535 150.310508 
L 305.093262 150.106164 
L 305.435952 149.721715 
L 306.808115 147.424991 
L 308.18486 146.459529 
L 309.212892 145.878894 
L 312.641848 144.59068 
L 312.986261 144.969645 
L 314.015093 147.255193 
L 314.701801 147.463074 
L 315.731432 147.27164 
L 317.792242 146.088302 
L 318.479566 144.78357 
L 319.164096 143.264312 
L 319.850822 142.25968 
L 320.536649 141.749048 
L 320.880062 141.819428 
L 321.222776 142.235396 
L 322.596171 144.727972 
L 322.939624 144.980618 
L 324.313486 145.473152 
L 325.001508 146.342831 
L 326.374621 148.223742 
L 327.060399 148.515912 
L 327.746602 148.543451 
L 328.432519 148.57405 
L 329.118213 149.02136 
L 329.807462 149.757305 
L 330.151819 149.923576 
L 330.495941 149.835013 
L 331.182498 149.293118 
L 332.555652 147.696073 
L 332.899196 147.530853 
L 333.242339 147.754046 
L 333.930561 148.760575 
L 335.302503 151.168596 
L 336.329836 152.473698 
L 337.014287 153.670023 
L 337.700161 154.854294 
L 338.387457 155.696224 
L 338.730973 155.852953 
L 339.074403 155.744656 
L 339.761 155.19151 
L 341.133146 154.718009 
L 343.534582 152.371967 
L 344.222451 151.958242 
L 346.627241 149.683676 
L 347.657441 147.967757 
L 348.001257 147.57184 
L 348.344631 147.417966 
L 348.687564 147.75377 
L 349.376434 148.935789 
L 350.409678 151.185985 
L 351.098465 152.603115 
L 351.443191 152.872905 
L 351.78654 152.893909 
L 352.472263 152.470823 
L 353.160814 152.129063 
L 353.846844 152.047988 
L 354.878871 151.576103 
L 355.563528 150.95095 
L 356.937879 149.473171 
L 357.623814 148.740773 
L 358.311083 147.119221 
L 358.997974 145.577137 
L 359.68321 144.579315 
L 360.370363 144.038239 
L 361.056085 143.788681 
L 361.743366 143.506421 
L 362.77308 142.79782 
L 363.460888 142.501965 
L 364.146413 142.070019 
L 364.48913 142.146235 
L 365.517207 143.084376 
L 366.204325 143.359879 
L 366.547443 143.758012 
L 366.547443 143.758012 
" style="fill:none;stroke:#008000;stroke-linecap:square;"/>
   </g>
   <g id="line2d_26">
    <path clip-path="url(#pa70901ceac)" d="M 46.965625 135.76216 
L 381.765625 135.76216 
" style="fill:none;stroke:#008000;stroke-dasharray:3.7,1.6;stroke-dashoffset:0;"/>
   </g>
   <g id="line2d_27">
    <path clip-path="url(#pa70901ceac)" d="M 46.965625 141.687228 
L 381.765625 141.687228 
" style="fill:none;stroke:#008000;stroke-dasharray:1,1.65;stroke-dashoffset:0;"/>
   </g>
   <g id="line2d_28">
    <path clip-path="url(#pa70901ceac)" d="M 62.183807 197.452899 
L 63.192478 192.045603 
L 64.127861 186.017739 
L 65.263332 178.356947 
L 66.049683 174.433218 
L 66.803884 171.601415 
L 68.536398 166.630455 
L 69.779609 162.628321 
L 70.284474 160.412864 
L 70.793393 157.029053 
L 71.56643 151.21025 
L 72.350436 147.758418 
L 75.315035 138.192977 
L 77.284665 132.618032 
L 78.15635 129.636352 
L 79.045996 125.552758 
L 79.95372 121.129909 
L 81.190353 116.004452 
L 81.819342 114.679961 
L 82.455915 114.196973 
L 83.100069 114.215644 
L 83.751807 114.505136 
L 86.776027 116.526294 
L 87.806124 117.597924 
L 88.835792 119.119611 
L 89.865972 121.317839 
L 90.208067 121.98961 
L 91.238309 123.238103 
L 91.924374 125.094523 
L 95.015011 134.803041 
L 96.044528 136.695378 
L 98.107131 139.217132 
L 98.793601 139.939451 
L 99.479163 140.418904 
L 99.822839 140.434188 
L 100.855178 139.92816 
L 101.197731 139.956129 
L 101.540229 140.136128 
L 101.882876 140.52469 
L 102.225877 141.318819 
L 103.942743 148.440225 
L 104.628733 149.848508 
L 106.344762 152.202215 
L 107.033036 153.034745 
L 107.376749 153.189371 
L 107.720944 153.075834 
L 108.750932 152.378913 
L 109.437588 152.301509 
L 110.468575 152.595189 
L 111.1541 153.11864 
L 111.839939 154.240013 
L 112.525775 156.004867 
L 113.554525 159.333738 
L 115.61647 163.435991 
L 116.303459 163.996427 
L 118.364273 164.862279 
L 119.73933 165.072688 
L 120.427176 165.101399 
L 122.830807 164.536783 
L 123.517398 164.158875 
L 124.204037 163.69297 
L 124.547709 163.638048 
L 124.890724 163.889353 
L 126.952084 166.719471 
L 127.637923 168.067728 
L 128.325581 169.635418 
L 129.011822 170.597595 
L 130.040708 171.48 
L 130.383451 171.541352 
L 130.727918 171.339408 
L 132.101628 169.995588 
L 132.788093 169.613517 
L 133.474839 169.466455 
L 133.818316 169.302252 
L 134.160245 169.290058 
L 134.844313 169.873901 
L 136.563974 171.612109 
L 136.908116 171.710809 
L 137.250709 171.662876 
L 137.936127 171.204362 
L 139.311369 169.865315 
L 140.683987 168.906171 
L 141.026735 168.841162 
L 141.369124 168.955756 
L 141.711155 169.266916 
L 142.741656 171.035948 
L 143.429456 172.115882 
L 144.115846 172.833967 
L 145.1449 173.498077 
L 148.236449 175.20978 
L 148.922337 175.881158 
L 149.264894 176.018546 
L 150.292174 175.883915 
L 150.634937 175.78343 
L 150.977228 175.430929 
L 152.005219 173.530468 
L 153.033402 171.147551 
L 153.721024 170.111839 
L 154.405005 169.490866 
L 155.090161 169.267096 
L 156.119002 169.375989 
L 158.179358 169.711544 
L 158.866011 169.589201 
L 160.239791 168.948549 
L 161.267747 167.947601 
L 161.954343 167.046874 
L 163.670465 164.450022 
L 164.357439 163.746741 
L 164.702293 163.663962 
L 165.731322 164.046769 
L 166.416867 163.960093 
L 167.10203 163.543077 
L 167.790025 163.030067 
L 168.47796 163.135868 
L 169.853236 163.270412 
L 171.225289 163.158443 
L 172.595441 163.605198 
L 172.937717 163.454172 
L 173.969374 162.487609 
L 175.344323 161.897083 
L 176.720491 160.545754 
L 178.090243 159.141812 
L 179.119549 158.566174 
L 179.805336 158.15051 
L 180.491694 157.459957 
L 181.865868 155.88888 
L 183.926166 154.28571 
L 185.301453 152.524891 
L 185.645939 152.43472 
L 185.989151 152.499562 
L 186.33277 152.699195 
L 187.706949 153.928792 
L 188.392836 154.129359 
L 189.078896 154.117886 
L 189.763668 153.897164 
L 191.483028 153.033263 
L 192.168957 152.998244 
L 192.855349 153.143012 
L 196.288024 154.711841 
L 197.660651 155.859597 
L 198.691339 156.37018 
L 200.060792 156.64502 
L 200.747878 156.457445 
L 201.437092 156.230609 
L 202.466966 156.012492 
L 204.181258 155.46147 
L 206.585343 155.882663 
L 206.929014 156.111129 
L 207.272813 156.550435 
L 208.645626 159.001879 
L 209.674556 159.785711 
L 210.359969 160.246798 
L 210.701831 160.130922 
L 211.731621 159.421882 
L 212.075696 159.394232 
L 213.105677 159.774633 
L 213.792645 159.922203 
L 214.478602 160.083778 
L 216.88024 161.11673 
L 217.567318 161.787324 
L 218.254644 162.727176 
L 218.940399 163.830608 
L 219.628259 164.59308 
L 221.342783 166.027374 
L 222.029291 166.739997 
L 222.372289 166.958954 
L 223.748887 167.080689 
L 225.119181 166.951235 
L 227.519587 167.185109 
L 228.207069 167.350095 
L 230.271084 168.356179 
L 231.985556 168.478544 
L 232.673599 168.252209 
L 233.361812 167.686503 
L 234.050192 167.090193 
L 234.73796 166.786687 
L 235.079657 166.831747 
L 235.764983 167.292662 
L 236.793485 168.438949 
L 238.507796 170.776449 
L 239.193437 171.273743 
L 240.221944 171.671537 
L 241.251778 171.888772 
L 242.970891 172.636506 
L 244.344588 173.789797 
L 244.688598 174.127411 
L 245.376625 175.475211 
L 246.065149 176.843417 
L 246.408686 177.1376 
L 247.44077 177.244536 
L 248.127867 177.797403 
L 248.815461 178.436034 
L 249.84602 178.964067 
L 250.87636 179.440481 
L 251.563161 179.464445 
L 252.591135 179.303923 
L 253.278473 179.518604 
L 253.96515 180.231005 
L 254.996501 181.642044 
L 255.681801 182.073552 
L 257.395676 182.588588 
L 258.426397 182.705151 
L 260.488632 183.554808 
L 261.864925 183.864216 
L 262.550231 183.662087 
L 264.608144 182.335394 
L 264.951304 182.395715 
L 266.325619 183.223116 
L 267.354692 184.525947 
L 269.414179 187.377959 
L 270.100454 187.746091 
L 270.787647 187.653033 
L 272.850254 186.611234 
L 273.880128 186.210846 
L 274.569325 186.190285 
L 275.943851 186.749634 
L 276.62918 186.565181 
L 278.001898 185.933775 
L 279.028839 185.724373 
L 280.400583 185.676695 
L 281.76942 185.251968 
L 282.454022 184.648654 
L 283.822726 183.21252 
L 284.510246 182.726566 
L 285.197957 182.507633 
L 285.882068 182.663001 
L 288.628018 184.070603 
L 289.314375 184.084661 
L 290.000985 183.869496 
L 291.031739 183.40187 
L 291.718665 183.42883 
L 292.404494 183.739588 
L 293.431521 184.23853 
L 294.118534 184.268388 
L 295.146857 183.808208 
L 295.831002 183.579656 
L 296.516639 183.720815 
L 297.203768 184.242205 
L 298.232189 185.10289 
L 298.917169 185.406087 
L 301.318245 185.769931 
L 302.004443 185.6456 
L 302.692706 185.241503 
L 303.722124 184.25575 
L 304.750535 183.21925 
L 305.435952 182.988553 
L 306.463789 182.789941 
L 307.152404 182.304686 
L 308.528458 181.035403 
L 309.212892 180.676154 
L 309.89771 180.572203 
L 310.582912 180.732586 
L 311.268908 180.869826 
L 312.298198 180.664845 
L 313.671909 180.331336 
L 314.35904 180.376332 
L 314.701801 180.544403 
L 315.388154 181.409009 
L 316.074726 182.145505 
L 316.761362 181.995933 
L 318.136253 181.660189 
L 318.82218 181.328224 
L 319.50686 180.50478 
L 320.536649 179.177137 
L 321.222776 178.488378 
L 321.9099 178.02082 
L 322.596171 177.74925 
L 323.283082 177.749165 
L 323.970013 178.031516 
L 324.657134 178.600698 
L 325.687548 179.635574 
L 326.030721 179.878163 
L 326.374621 179.949861 
L 327.060399 179.595994 
L 328.090106 178.872847 
L 329.118213 178.433805 
L 330.495941 177.99675 
L 331.526113 177.647386 
L 332.211885 177.745916 
L 332.899196 177.940917 
L 333.242339 177.742399 
L 334.27407 176.700277 
L 334.959884 176.172479 
L 335.302503 176.010743 
L 335.645035 176.009541 
L 335.987479 176.163648 
L 336.672105 176.81649 
L 337.356382 177.451994 
L 338.387457 178.097125 
L 339.761 179.037755 
L 342.503895 180.037879 
L 342.846363 179.94008 
L 343.534582 179.204526 
L 345.253599 176.792984 
L 345.940595 176.393845 
L 346.627241 176.08332 
L 348.001257 175.106687 
L 348.687564 174.207284 
L 350.065272 172.227824 
L 350.409678 171.946611 
L 350.754076 171.985089 
L 351.78654 172.683421 
L 352.816185 174.029557 
L 353.846844 175.498888 
L 354.190146 175.561325 
L 354.878871 175.382899 
L 355.563528 175.021905 
L 356.595816 174.298018 
L 357.967378 173.178336 
L 358.997974 172.593495 
L 360.370363 171.968808 
L 360.713255 171.936468 
L 362.086337 172.181831 
L 363.803517 172.21976 
L 364.831671 172.029937 
L 365.860607 171.756202 
L 366.547443 171.414881 
L 366.547443 171.414881 
" style="fill:none;stroke:#ff0000;stroke-linecap:square;"/>
   </g>
   <g id="line2d_29">
    <path clip-path="url(#pa70901ceac)" d="M 46.965625 168.679204 
L 381.765625 168.679204 
" style="fill:none;stroke:#ff0000;stroke-dasharray:3.7,1.6;stroke-dashoffset:0;"/>
   </g>
   <g id="line2d_30">
    <path clip-path="url(#pa70901ceac)" d="M 46.965625 170.43478 
L 381.765625 170.43478 
" style="fill:none;stroke:#ff0000;stroke-dasharray:1,1.65;stroke-dashoffset:0;"/>
   </g>
   <g id="line2d_31">
    <path clip-path="url(#pa70901ceac)" d="M 62.183807 209.956073 
L 62.863926 208.300048 
L 63.512415 205.928256 
L 64.7115 199.987292 
L 66.049683 192.685894 
L 67.052551 188.991337 
L 68.042151 186.337103 
L 70.537809 180.572116 
L 71.049784 178.964301 
L 71.56643 176.629586 
L 72.613932 171.620144 
L 73.412343 169.166302 
L 76.42959 162.172559 
L 77.573346 159.984477 
L 78.747395 157.378444 
L 79.95372 153.981365 
L 82.455915 146.49117 
L 83.100069 145.312675 
L 84.080712 144.025237 
L 85.076485 143.007142 
L 85.748808 142.464303 
L 86.431802 142.214427 
L 86.776027 142.27868 
L 87.464166 142.72723 
L 89.179835 144.491859 
L 90.208067 145.66592 
L 91.238309 147.091352 
L 92.268344 148.563651 
L 92.611162 149.176398 
L 93.298026 151.138882 
L 95.70183 158.691589 
L 96.387989 160.066466 
L 97.418765 161.717163 
L 98.450603 162.909407 
L 100.510921 165.006625 
L 101.540229 166.351622 
L 102.225877 167.230404 
L 102.911678 167.787789 
L 103.256243 168.302427 
L 104.286119 170.97943 
L 104.972024 172.706277 
L 105.657758 173.905057 
L 107.376749 175.947948 
L 108.063986 176.646702 
L 108.750932 176.892746 
L 109.437588 176.741903 
L 110.12597 176.452324 
L 110.468575 176.498152 
L 111.1541 176.938177 
L 111.839939 177.648122 
L 113.211609 179.536045 
L 114.241554 181.435629 
L 115.27218 183.610441 
L 116.990353 186.039149 
L 118.020922 186.822184 
L 119.0513 187.147971 
L 121.113159 187.39969 
L 121.800008 187.19148 
L 124.890724 185.328134 
L 125.576859 185.332575 
L 126.952084 185.538038 
L 127.981525 185.954665 
L 128.668474 186.238962 
L 129.355624 186.815325 
L 130.383451 187.828374 
L 131.072454 188.278538 
L 131.7585 188.35741 
L 132.101628 188.266434 
L 132.788093 187.706135 
L 134.160245 186.391207 
L 136.219902 185.040904 
L 136.563974 185.029653 
L 137.250709 185.485817 
L 137.936127 185.865269 
L 138.625413 185.997933 
L 139.997633 185.883007 
L 140.683987 185.657096 
L 142.398124 184.74306 
L 142.741656 184.778395 
L 143.429456 185.214628 
L 144.801178 186.33675 
L 145.48901 186.483758 
L 147.550172 186.554841 
L 148.922337 187.065502 
L 149.94894 187.279852 
L 150.634937 187.50576 
L 151.319047 187.45695 
L 151.661632 187.326727 
L 152.34789 186.607519 
L 153.033402 185.552154 
L 154.063233 183.821855 
L 154.747801 183.073601 
L 155.776491 182.570234 
L 156.119002 182.530132 
L 156.805635 182.773649 
L 157.835815 183.468825 
L 158.866011 184.192523 
L 160.239791 184.933812 
L 161.267747 185.070997 
L 162.298528 185.247314 
L 162.642232 185.297493 
L 162.985456 185.171454 
L 163.670465 184.434725 
L 165.045398 182.766625 
L 165.731322 182.146886 
L 166.416867 181.976375 
L 167.790025 182.204394 
L 168.47796 182.258341 
L 170.196794 181.838384 
L 171.225289 181.517796 
L 171.910574 181.338563 
L 172.937717 181.416236 
L 173.625593 181.482357 
L 173.969374 181.376976 
L 175.688669 179.745758 
L 176.720491 179.502672 
L 177.405266 179.322299 
L 179.119549 178.467579 
L 180.835329 177.346447 
L 181.521575 176.825991 
L 182.551907 175.698906 
L 183.926166 174.008179 
L 184.614488 173.565898 
L 185.645939 173.053007 
L 185.989151 172.755152 
L 186.33277 172.629359 
L 186.676798 172.653572 
L 187.363157 173.052197 
L 188.392836 173.757564 
L 189.078896 173.889665 
L 190.1076 173.712796 
L 192.855349 174.111689 
L 193.542206 173.735848 
L 194.570149 173.001823 
L 196.288024 172.411061 
L 196.974105 172.063504 
L 197.31732 172.010688 
L 198.004098 172.298038 
L 199.033528 172.989442 
L 199.718254 173.226205 
L 201.092427 173.329514 
L 201.437092 173.476929 
L 202.123558 173.384233 
L 203.838543 172.640453 
L 204.524099 172.331663 
L 205.555094 172.185211 
L 207.61674 172.283622 
L 207.960794 172.355621 
L 208.303146 172.544279 
L 208.987813 173.50498 
L 209.674556 174.638622 
L 210.359969 175.261887 
L 211.044534 175.465293 
L 211.731621 175.374511 
L 212.419154 175.044519 
L 213.105677 174.63735 
L 213.448741 174.574041 
L 215.165006 175.083388 
L 215.849816 175.457592 
L 216.88024 176.572711 
L 218.596666 178.451977 
L 220.313318 180.116304 
L 220.999272 180.73998 
L 221.686122 180.917479 
L 223.06093 181.009048 
L 224.09261 180.85502 
L 226.147057 181.11783 
L 226.833032 180.945577 
L 227.519587 180.736019 
L 228.207069 180.893599 
L 231.299365 182.58359 
L 234.39425 184.632478 
L 235.079657 184.465779 
L 236.107123 184.115598 
L 236.793485 184.073822 
L 237.479495 184.283652 
L 238.507796 185.02867 
L 239.535108 185.75706 
L 241.594944 186.849363 
L 242.281109 186.929288 
L 244.344588 186.898564 
L 245.033096 187.299851 
L 245.720643 187.959777 
L 246.408686 188.859327 
L 247.44077 190.253452 
L 248.127867 190.782339 
L 249.84602 191.689508 
L 250.533445 191.828107 
L 251.905014 191.752956 
L 252.935402 191.584843 
L 254.308755 191.2659 
L 255.681801 191.232003 
L 256.367813 191.555449 
L 257.053125 192.087761 
L 258.426397 193.478488 
L 259.115471 193.464031 
L 261.176387 192.848964 
L 263.579567 193.263106 
L 264.265955 193.042442 
L 265.295436 192.658578 
L 265.98258 192.380573 
L 266.669323 192.019278 
L 268.040706 191.743391 
L 268.383702 191.699161 
L 269.070454 192.026745 
L 271.475161 193.289431 
L 272.163891 193.274283 
L 275.599718 192.623257 
L 276.286348 192.485445 
L 277.314437 192.552715 
L 279.028839 192.68423 
L 280.742845 192.568014 
L 281.76942 192.784897 
L 282.454022 192.41415 
L 283.138797 192.067981 
L 283.822726 191.886954 
L 284.510246 191.380952 
L 285.882068 190.286731 
L 286.91421 189.904667 
L 287.598957 189.876756 
L 288.628018 190.087278 
L 289.314375 190.401345 
L 291.718665 192.227607 
L 296.516639 193.979285 
L 297.203768 193.881697 
L 297.88983 193.685731 
L 298.232189 193.682417 
L 299.945988 194.329908 
L 301.318245 194.981166 
L 302.692706 195.346521 
L 303.722124 195.859666 
L 304.40777 196.162041 
L 305.093262 196.1934 
L 306.463789 195.972783 
L 308.18486 195.750202 
L 309.212892 195.127393 
L 309.89771 194.710754 
L 311.611926 194.109805 
L 312.298198 194.077736 
L 313.329487 194.337535 
L 314.015093 194.432835 
L 315.044891 194.216583 
L 316.074726 194.010647 
L 316.761362 194.554618 
L 317.447876 195.016023 
L 317.792242 194.978298 
L 318.479566 194.699223 
L 319.164096 194.62821 
L 319.850822 194.420405 
L 320.880062 194.264821 
L 322.252415 193.297433 
L 323.626545 192.32003 
L 325.001508 191.644813 
L 326.374621 191.295515 
L 327.060399 191.266797 
L 328.432519 191.583137 
L 328.77532 191.3916 
L 329.462873 190.654033 
L 330.495941 189.466666 
L 331.182498 188.950401 
L 332.211885 188.711169 
L 334.27407 188.27016 
L 334.617178 188.111217 
L 337.014287 185.914626 
L 337.700161 185.567554 
L 338.387457 185.488679 
L 339.074403 185.664934 
L 341.475964 186.763332 
L 343.190516 186.83156 
L 344.222451 187.143552 
L 345.253599 186.861883 
L 345.940595 186.561263 
L 348.001257 184.997817 
L 349.032003 184.545194 
L 350.065272 183.803946 
L 351.78654 182.225674 
L 352.129048 182.081238 
L 353.160814 182.161251 
L 353.846844 182.435208 
L 355.220846 183.193669 
L 355.906917 183.77231 
L 356.595816 183.913679 
L 357.623814 183.855414 
L 358.654672 183.467665 
L 360.027015 182.781859 
L 361.398853 181.927081 
L 362.77308 181.425448 
L 363.460888 181.780909 
L 364.831671 182.91913 
L 365.860607 183.803729 
L 366.547443 184.125914 
L 366.547443 184.125914 
" style="fill:none;stroke:#bfbf00;stroke-linecap:square;"/>
   </g>
   <g id="line2d_32">
    <path clip-path="url(#pa70901ceac)" d="M 46.965625 184.698832 
L 381.765625 184.698832 
" style="fill:none;stroke:#bfbf00;stroke-dasharray:3.7,1.6;stroke-dashoffset:0;"/>
   </g>
   <g id="line2d_33">
    <path clip-path="url(#pa70901ceac)" d="M 46.965625 185.57662 
L 381.765625 185.57662 
" style="fill:none;stroke:#bfbf00;stroke-dasharray:1,1.65;stroke-dashoffset:0;"/>
   </g>
   <g id="line2d_34">
    <path clip-path="url(#pa70901ceac)" d="M 62.183807 214.756364 
L 63.192478 212.871878 
L 64.127861 210.780826 
L 64.7115 209.035057 
L 67.547485 197.676906 
L 68.289616 195.822998 
L 69.779609 193.001827 
L 71.56643 189.777244 
L 72.08754 188.300306 
L 73.950499 181.824492 
L 74.765115 180.17871 
L 76.997548 176.182274 
L 77.863908 175.103679 
L 79.346651 173.116491 
L 80.259734 171.219365 
L 81.819342 167.663348 
L 84.080712 163.530964 
L 85.076485 162.39842 
L 86.089396 161.619635 
L 88.492606 159.931297 
L 88.835792 159.907061 
L 89.522311 160.405984 
L 90.894741 161.734393 
L 91.581991 162.450523 
L 93.9837 166.00377 
L 94.327532 166.589778 
L 97.075108 173.318814 
L 97.763185 174.501496 
L 98.793601 175.766039 
L 101.540229 178.387767 
L 102.911678 179.286023 
L 103.600044 180.077573 
L 104.286119 181.325637 
L 106.001641 185.133028 
L 106.68856 186.103026 
L 107.376749 186.75055 
L 109.781779 188.440864 
L 110.468575 188.587474 
L 111.1541 188.507739 
L 111.49702 188.431561 
L 112.182857 188.625411 
L 113.554525 189.493396 
L 114.585668 190.645327 
L 118.020922 194.620646 
L 119.394496 195.375542 
L 120.084122 195.640453 
L 122.144264 195.881726 
L 123.174431 195.845909 
L 123.861046 195.608585 
L 126.952084 193.945411 
L 127.637923 193.761935 
L 128.325581 193.818936 
L 130.727918 194.625572 
L 132.788093 195.115551 
L 133.818316 194.942625 
L 134.502244 194.621022 
L 135.188105 194.290499 
L 135.8759 194.255693 
L 136.908116 194.251694 
L 139.654462 193.758769 
L 140.34088 193.811664 
L 142.398124 193.586532 
L 144.115846 193.178242 
L 144.801178 193.27415 
L 146.176452 193.667129 
L 148.236449 193.633908 
L 149.607153 194.133849 
L 152.691104 195.175015 
L 153.033402 195.106402 
L 153.721024 194.521899 
L 154.747801 193.128825 
L 155.776491 192.298246 
L 156.462536 192.133923 
L 158.522757 192.256996 
L 160.582923 193.049771 
L 162.642232 193.825431 
L 163.670465 193.94017 
L 165.045398 193.891547 
L 165.731322 193.570167 
L 167.10203 192.672791 
L 169.853236 191.806608 
L 170.88282 191.434736 
L 171.567984 191.423761 
L 172.937717 191.544637 
L 175.688669 191.471925 
L 178.090243 190.208459 
L 179.119549 190.126353 
L 180.147717 190.045154 
L 182.209312 189.411181 
L 183.239512 188.900429 
L 183.926166 188.48799 
L 184.614488 187.735276 
L 185.989151 186.064409 
L 187.363157 184.821223 
L 187.706949 184.742714 
L 188.049688 184.801541 
L 189.078896 185.366577 
L 190.1076 185.500439 
L 190.795228 185.430033 
L 192.168957 185.029612 
L 193.198719 185.193764 
L 195.599195 185.605806 
L 196.974105 184.837745 
L 198.691339 183.771383 
L 199.375833 183.55642 
L 200.060792 183.769971 
L 200.747878 184.209422 
L 201.780267 184.494001 
L 202.810168 184.639277 
L 203.495957 184.762002 
L 204.181258 184.728536 
L 205.211933 184.398148 
L 207.960794 183.149669 
L 208.987813 182.978233 
L 209.674556 183.15779 
L 210.359969 183.679442 
L 211.731621 185.068089 
L 212.419154 185.312516 
L 212.761995 185.313464 
L 213.105677 185.1845 
L 214.478602 184.239704 
L 215.165006 184.179812 
L 217.567318 184.83125 
L 218.254644 185.219141 
L 218.940399 185.97012 
L 220.655591 188.055004 
L 222.372289 189.944534 
L 223.06093 190.167492 
L 223.748887 190.270664 
L 224.434655 190.179214 
L 225.461662 189.967978 
L 227.519587 190.142742 
L 229.23947 189.828067 
L 229.927796 189.679445 
L 230.614109 189.884749 
L 231.641597 190.459901 
L 233.361812 191.545145 
L 234.050192 191.732923 
L 235.079657 191.69201 
L 236.107123 192.148351 
L 238.507796 193.241868 
L 241.594944 194.187783 
L 244.000904 195.023604 
L 245.033096 195.063158 
L 246.065149 194.971584 
L 246.752711 195.244175 
L 247.44077 195.779442 
L 248.47142 196.891074 
L 249.158873 197.203169 
L 250.533445 197.209212 
L 252.935402 198.061117 
L 254.308755 198.188549 
L 254.996501 198.079205 
L 256.711086 197.47328 
L 257.738738 197.550301 
L 258.426397 197.832592 
L 259.80166 198.731492 
L 260.488632 198.881194 
L 262.892657 198.42385 
L 263.922544 198.526569 
L 265.295436 198.728717 
L 265.98258 198.686783 
L 267.698375 198.421016 
L 269.757015 198.397572 
L 271.819374 198.352819 
L 272.850254 197.879577 
L 278.344482 197.108124 
L 279.715251 197.176971 
L 282.796388 197.562523 
L 284.166462 198.370853 
L 284.854078 198.325435 
L 288.628018 197.03614 
L 289.657648 197.022983 
L 290.687466 197.180182 
L 291.375528 197.51316 
L 293.431521 198.864092 
L 294.804494 199.466647 
L 297.203768 201.182236 
L 299.259929 202.088139 
L 300.289287 202.31897 
L 301.661591 202.371518 
L 302.692706 202.469013 
L 304.064966 202.755005 
L 305.778602 202.932791 
L 306.808115 203.728274 
L 307.496654 204.262235 
L 308.18486 204.514556 
L 309.212892 204.603963 
L 310.239524 204.465473 
L 315.044891 203.33255 
L 317.104704 203.416271 
L 318.479566 203.245051 
L 319.50686 203.484729 
L 320.194085 203.254575 
L 321.566688 202.553386 
L 322.596171 202.298274 
L 323.970013 201.553178 
L 325.345101 201.097181 
L 326.717344 200.405821 
L 328.77532 199.749085 
L 330.495941 199.261012 
L 331.526113 198.563251 
L 333.242339 197.975087 
L 334.27407 197.393223 
L 334.959884 197.313179 
L 335.987479 197.322908 
L 336.672105 196.835934 
L 338.043853 195.851841 
L 339.074403 195.347332 
L 342.161338 194.442251 
L 343.190516 194.835765 
L 343.87856 195.026897 
L 345.253599 195.033765 
L 345.940595 195.030229 
L 348.001257 194.340581 
L 349.376434 194.003591 
L 350.409678 193.676139 
L 353.504249 192.228897 
L 354.190146 192.111426 
L 356.937879 192.329796 
L 358.311083 192.699371 
L 360.370363 192.755678 
L 361.398853 192.40419 
L 362.77308 191.845536 
L 364.831671 191.367009 
L 365.517207 191.346693 
L 366.547443 190.990766 
L 366.547443 190.990766 
" style="fill:none;stroke:#bf00bf;stroke-linecap:square;"/>
   </g>
   <g id="line2d_35">
    <path clip-path="url(#pa70901ceac)" d="M 46.965625 193.915605 
L 381.765625 193.915605 
" style="fill:none;stroke:#bf00bf;stroke-dasharray:3.7,1.6;stroke-dashoffset:0;"/>
   </g>
   <g id="line2d_36">
    <path clip-path="url(#pa70901ceac)" d="M 46.965625 194.354499 
L 381.765625 194.354499 
" style="fill:none;stroke:#bf00bf;stroke-dasharray:1,1.65;stroke-dashoffset:0;"/>
   </g>
   <g id="patch_3">
    <path d="M 46.965625 224.64 
L 46.965625 7.2 
" style="fill:none;stroke:#000000;stroke-linecap:square;stroke-linejoin:miter;stroke-width:0.8;"/>
   </g>
   <g id="patch_4">
    <path d="M 381.765625 224.64 
L 381.765625 7.2 
" style="fill:none;stroke:#000000;stroke-linecap:square;stroke-linejoin:miter;stroke-width:0.8;"/>
   </g>
   <g id="patch_5">
    <path d="M 46.965625 224.64 
L 381.765625 224.64 
" style="fill:none;stroke:#000000;stroke-linecap:square;stroke-linejoin:miter;stroke-width:0.8;"/>
   </g>
   <g id="patch_6">
    <path d="M 46.965625 7.2 
L 381.765625 7.2 
" style="fill:none;stroke:#000000;stroke-linecap:square;stroke-linejoin:miter;stroke-width:0.8;"/>
   </g>
   <g id="text_13">
    <!-- $\sf z=1.0~m$ -->
    <g style="fill:#0000ff;" transform="translate(383.452638 47.325033)scale(0.1 -0.1)">
     <defs>
      <path d="M 353 3500 
L 3084 3500 
L 3084 2975 
L 922 459 
L 3084 459 
L 3084 0 
L 275 0 
L 275 525 
L 2438 3041 
L 353 3041 
L 353 3500 
z
" id="DejaVuSans-7a" transform="scale(0.015625)"/>
      <path d="M 678 2906 
L 4684 2906 
L 4684 2381 
L 678 2381 
L 678 2906 
z
M 678 1631 
L 4684 1631 
L 4684 1100 
L 678 1100 
L 678 1631 
z
" id="DejaVuSans-3d" transform="scale(0.015625)"/>
      <path d="M 684 794 
L 1344 794 
L 1344 0 
L 684 0 
L 684 794 
z
" id="DejaVuSans-2e" transform="scale(0.015625)"/>
     </defs>
     <use transform="translate(0 0.78125)" xlink:href="#DejaVuSans-7a"/>
     <use transform="translate(71.972656 0.78125)" xlink:href="#DejaVuSans-3d"/>
     <use transform="translate(175.244141 0.78125)" xlink:href="#DejaVuSans-31"/>
     <use transform="translate(238.867188 0.78125)" xlink:href="#DejaVuSans-2e"/>
     <use transform="translate(270.654297 0.78125)" xlink:href="#DejaVuSans-30"/>
     <use transform="translate(366.747722 0.78125)" xlink:href="#DejaVuSans-6d"/>
    </g>
   </g>
   <g id="text_14">
    <!-- $\sf z=2.0~m$ -->
    <g style="fill:#00bfbf;" transform="translate(383.452638 118.645297)scale(0.1 -0.1)">
     <use transform="translate(0 0.78125)" xlink:href="#DejaVuSans-7a"/>
     <use transform="translate(71.972656 0.78125)" xlink:href="#DejaVuSans-3d"/>
     <use transform="translate(175.244141 0.78125)" xlink:href="#DejaVuSans-32"/>
     <use transform="translate(238.867188 0.78125)" xlink:href="#DejaVuSans-2e"/>
     <use transform="translate(270.654297 0.78125)" xlink:href="#DejaVuSans-30"/>
     <use transform="translate(366.747722 0.78125)" xlink:href="#DejaVuSans-6d"/>
    </g>
   </g>
   <g id="text_15">
    <!-- $\sf z=3.0~m$ -->
    <g style="fill:#008000;" transform="translate(383.452638 157.048515)scale(0.1 -0.1)">
     <defs>
      <path d="M 2597 2516 
Q 3050 2419 3304 2112 
Q 3559 1806 3559 1356 
Q 3559 666 3084 287 
Q 2609 -91 1734 -91 
Q 1441 -91 1130 -33 
Q 819 25 488 141 
L 488 750 
Q 750 597 1062 519 
Q 1375 441 1716 441 
Q 2309 441 2620 675 
Q 2931 909 2931 1356 
Q 2931 1769 2642 2001 
Q 2353 2234 1838 2234 
L 1294 2234 
L 1294 2753 
L 1863 2753 
Q 2328 2753 2575 2939 
Q 2822 3125 2822 3475 
Q 2822 3834 2567 4026 
Q 2313 4219 1838 4219 
Q 1578 4219 1281 4162 
Q 984 4106 628 3988 
L 628 4550 
Q 988 4650 1302 4700 
Q 1616 4750 1894 4750 
Q 2613 4750 3031 4423 
Q 3450 4097 3450 3541 
Q 3450 3153 3228 2886 
Q 3006 2619 2597 2516 
z
" id="DejaVuSans-33" transform="scale(0.015625)"/>
     </defs>
     <use transform="translate(0 0.78125)" xlink:href="#DejaVuSans-7a"/>
     <use transform="translate(71.972656 0.78125)" xlink:href="#DejaVuSans-3d"/>
     <use transform="translate(175.244141 0.78125)" xlink:href="#DejaVuSans-33"/>
     <use transform="translate(238.867188 0.78125)" xlink:href="#DejaVuSans-2e"/>
     <use transform="translate(270.654297 0.78125)" xlink:href="#DejaVuSans-30"/>
     <use transform="translate(366.747722 0.78125)" xlink:href="#DejaVuSans-6d"/>
    </g>
   </g>
   <g id="text_16">
    <!-- $\sf z=4.0~m$ -->
    <g style="fill:#ff0000;" transform="translate(383.452638 185.796067)scale(0.1 -0.1)">
     <use transform="translate(0 0.78125)" xlink:href="#DejaVuSans-7a"/>
     <use transform="translate(71.972656 0.78125)" xlink:href="#DejaVuSans-3d"/>
     <use transform="translate(175.244141 0.78125)" xlink:href="#DejaVuSans-34"/>
     <use transform="translate(238.867188 0.78125)" xlink:href="#DejaVuSans-2e"/>
     <use transform="translate(270.654297 0.78125)" xlink:href="#DejaVuSans-30"/>
     <use transform="translate(366.747722 0.78125)" xlink:href="#DejaVuSans-6d"/>
    </g>
   </g>
   <g id="text_17">
    <!-- $\sf z=5.0~m$ -->
    <g style="fill:#bfbf00;" transform="translate(383.452638 200.937908)scale(0.1 -0.1)">
     <use transform="translate(0 0.78125)" xlink:href="#DejaVuSans-7a"/>
     <use transform="translate(71.972656 0.78125)" xlink:href="#DejaVuSans-3d"/>
     <use transform="translate(175.244141 0.78125)" xlink:href="#DejaVuSans-35"/>
     <use transform="translate(238.867188 0.78125)" xlink:href="#DejaVuSans-2e"/>
     <use transform="translate(270.654297 0.78125)" xlink:href="#DejaVuSans-30"/>
     <use transform="translate(366.747722 0.78125)" xlink:href="#DejaVuSans-6d"/>
    </g>
   </g>
   <g id="text_18">
    <!-- $\sf z=6.0~m$ -->
    <g style="fill:#bf00bf;" transform="translate(383.452638 209.715786)scale(0.1 -0.1)">
     <use transform="translate(0 0.78125)" xlink:href="#DejaVuSans-7a"/>
     <use transform="translate(71.972656 0.78125)" xlink:href="#DejaVuSans-3d"/>
     <use transform="translate(175.244141 0.78125)" xlink:href="#DejaVuSans-36"/>
     <use transform="translate(238.867188 0.78125)" xlink:href="#DejaVuSans-2e"/>
     <use transform="translate(270.654297 0.78125)" xlink:href="#DejaVuSans-30"/>
     <use transform="translate(366.747722 0.78125)" xlink:href="#DejaVuSans-6d"/>
    </g>
   </g>
   <g id="legend_1">
    <g id="patch_7">
     <path d="M 290.695312 139.437187 
L 374.765625 139.437187 
Q 376.765625 139.437187 376.765625 137.437187 
L 376.765625 94.402812 
Q 376.765625 92.402812 374.765625 92.402812 
L 290.695312 92.402812 
Q 288.695312 92.402812 288.695312 94.402812 
L 288.695312 137.437187 
Q 288.695312 139.437187 290.695312 139.437187 
z
" style="fill:#ffffff;opacity:0.8;stroke:#cccccc;stroke-linejoin:miter;"/>
    </g>
    <g id="line2d_37">
     <path d="M 292.695312 100.50125 
L 312.695312 100.50125 
" style="fill:none;stroke:#000000;stroke-linecap:square;"/>
    </g>
    <g id="line2d_38"/>
    <g id="text_19">
     <!-- FDS -->
     <g transform="translate(320.695312 104.00125)scale(0.1 -0.1)">
      <defs>
       <path d="M 628 4666 
L 3309 4666 
L 3309 4134 
L 1259 4134 
L 1259 2759 
L 3109 2759 
L 3109 2228 
L 1259 2228 
L 1259 0 
L 628 0 
L 628 4666 
z
" id="DejaVuSans-46" transform="scale(0.015625)"/>
       <path d="M 1259 4147 
L 1259 519 
L 2022 519 
Q 2988 519 3436 956 
Q 3884 1394 3884 2338 
Q 3884 3275 3436 3711 
Q 2988 4147 2022 4147 
L 1259 4147 
z
M 628 4666 
L 1925 4666 
Q 3281 4666 3915 4102 
Q 4550 3538 4550 2338 
Q 4550 1131 3912 565 
Q 3275 0 1925 0 
L 628 0 
L 628 4666 
z
" id="DejaVuSans-44" transform="scale(0.015625)"/>
       <path d="M 3425 4513 
L 3425 3897 
Q 3066 4069 2747 4153 
Q 2428 4238 2131 4238 
Q 1616 4238 1336 4038 
Q 1056 3838 1056 3469 
Q 1056 3159 1242 3001 
Q 1428 2844 1947 2747 
L 2328 2669 
Q 3034 2534 3370 2195 
Q 3706 1856 3706 1288 
Q 3706 609 3251 259 
Q 2797 -91 1919 -91 
Q 1588 -91 1214 -16 
Q 841 59 441 206 
L 441 856 
Q 825 641 1194 531 
Q 1563 422 1919 422 
Q 2459 422 2753 634 
Q 3047 847 3047 1241 
Q 3047 1584 2836 1778 
Q 2625 1972 2144 2069 
L 1759 2144 
Q 1053 2284 737 2584 
Q 422 2884 422 3419 
Q 422 4038 858 4394 
Q 1294 4750 2059 4750 
Q 2388 4750 2728 4690 
Q 3069 4631 3425 4513 
z
" id="DejaVuSans-53" transform="scale(0.015625)"/>
      </defs>
      <use xlink:href="#DejaVuSans-46"/>
      <use x="57.519531" xlink:href="#DejaVuSans-44"/>
      <use x="134.521484" xlink:href="#DejaVuSans-53"/>
     </g>
    </g>
    <g id="line2d_39">
     <path d="M 292.695312 115.179375 
L 312.695312 115.179375 
" style="fill:none;stroke:#000000;stroke-dasharray:3.7,1.6;stroke-dashoffset:0;"/>
    </g>
    <g id="line2d_40"/>
    <g id="text_20">
     <!-- Heskestad -->
     <g transform="translate(320.695312 118.679375)scale(0.1 -0.1)">
      <defs>
       <path d="M 628 4666 
L 1259 4666 
L 1259 2753 
L 3553 2753 
L 3553 4666 
L 4184 4666 
L 4184 0 
L 3553 0 
L 3553 2222 
L 1259 2222 
L 1259 0 
L 628 0 
L 628 4666 
z
" id="DejaVuSans-48" transform="scale(0.015625)"/>
       <path d="M 581 4863 
L 1159 4863 
L 1159 1991 
L 2875 3500 
L 3609 3500 
L 1753 1863 
L 3688 0 
L 2938 0 
L 1159 1709 
L 1159 0 
L 581 0 
L 581 4863 
z
" id="DejaVuSans-6b" transform="scale(0.015625)"/>
       <path d="M 2906 2969 
L 2906 4863 
L 3481 4863 
L 3481 0 
L 2906 0 
L 2906 525 
Q 2725 213 2448 61 
Q 2172 -91 1784 -91 
Q 1150 -91 751 415 
Q 353 922 353 1747 
Q 353 2572 751 3078 
Q 1150 3584 1784 3584 
Q 2172 3584 2448 3432 
Q 2725 3281 2906 2969 
z
M 947 1747 
Q 947 1113 1208 752 
Q 1469 391 1925 391 
Q 2381 391 2643 752 
Q 2906 1113 2906 1747 
Q 2906 2381 2643 2742 
Q 2381 3103 1925 3103 
Q 1469 3103 1208 2742 
Q 947 2381 947 1747 
z
" id="DejaVuSans-64" transform="scale(0.015625)"/>
      </defs>
      <use xlink:href="#DejaVuSans-48"/>
      <use x="75.195312" xlink:href="#DejaVuSans-65"/>
      <use x="136.71875" xlink:href="#DejaVuSans-73"/>
      <use x="188.818359" xlink:href="#DejaVuSans-6b"/>
      <use x="243.103516" xlink:href="#DejaVuSans-65"/>
      <use x="304.626953" xlink:href="#DejaVuSans-73"/>
      <use x="356.726562" xlink:href="#DejaVuSans-74"/>
      <use x="395.935547" xlink:href="#DejaVuSans-61"/>
      <use x="457.214844" xlink:href="#DejaVuSans-64"/>
     </g>
    </g>
    <g id="line2d_41">
     <path d="M 292.695312 129.8575 
L 312.695312 129.8575 
" style="fill:none;stroke:#000000;stroke-dasharray:1,1.65;stroke-dashoffset:0;"/>
    </g>
    <g id="line2d_42"/>
    <g id="text_21">
     <!-- MCCaffrey -->
     <g transform="translate(320.695312 133.3575)scale(0.1 -0.1)">
      <defs>
       <path d="M 628 4666 
L 1569 4666 
L 2759 1491 
L 3956 4666 
L 4897 4666 
L 4897 0 
L 4281 0 
L 4281 4097 
L 3078 897 
L 2444 897 
L 1241 4097 
L 1241 0 
L 628 0 
L 628 4666 
z
" id="DejaVuSans-4d" transform="scale(0.015625)"/>
       <path d="M 2375 4863 
L 2375 4384 
L 1825 4384 
Q 1516 4384 1395 4259 
Q 1275 4134 1275 3809 
L 1275 3500 
L 2222 3500 
L 2222 3053 
L 1275 3053 
L 1275 0 
L 697 0 
L 697 3053 
L 147 3053 
L 147 3500 
L 697 3500 
L 697 3744 
Q 697 4328 969 4595 
Q 1241 4863 1831 4863 
L 2375 4863 
z
" id="DejaVuSans-66" transform="scale(0.015625)"/>
       <path d="M 2059 -325 
Q 1816 -950 1584 -1140 
Q 1353 -1331 966 -1331 
L 506 -1331 
L 506 -850 
L 844 -850 
Q 1081 -850 1212 -737 
Q 1344 -625 1503 -206 
L 1606 56 
L 191 3500 
L 800 3500 
L 1894 763 
L 2988 3500 
L 3597 3500 
L 2059 -325 
z
" id="DejaVuSans-79" transform="scale(0.015625)"/>
      </defs>
      <use xlink:href="#DejaVuSans-4d"/>
      <use x="86.279297" xlink:href="#DejaVuSans-43"/>
      <use x="156.103516" xlink:href="#DejaVuSans-43"/>
      <use x="225.927734" xlink:href="#DejaVuSans-61"/>
      <use x="287.207031" xlink:href="#DejaVuSans-66"/>
      <use x="322.412109" xlink:href="#DejaVuSans-66"/>
      <use x="357.617188" xlink:href="#DejaVuSans-72"/>
      <use x="396.480469" xlink:href="#DejaVuSans-65"/>
      <use x="458.003906" xlink:href="#DejaVuSans-79"/>
     </g>
    </g>
   </g>
  </g>
 </g>
 <defs>
  <clipPath id="pa70901ceac">
   <rect height="217.44" width="334.8" x="46.965625" y="7.2"/>
  </clipPath>
 </defs>
</svg>
