<?xml version="1.0" encoding="utf-8" standalone="no"?>
<!DOCTYPE svg PUBLIC "-//W3C//DTD SVG 1.1//EN"
  "http://www.w3.org/Graphics/SVG/1.1/DTD/svg11.dtd">
<svg height="288pt" version="1.1" viewBox="0 0 432 288" width="432pt" xmlns="http://www.w3.org/2000/svg" xmlns:xlink="http://www.w3.org/1999/xlink">
 <metadata>
  <rdf:RDF xmlns:cc="http://creativecommons.org/ns#" xmlns:dc="http://purl.org/dc/elements/1.1/" xmlns:rdf="http://www.w3.org/1999/02/22-rdf-syntax-ns#">
   <cc:Work>
    <dc:type rdf:resource="http://purl.org/dc/dcmitype/StillImage"/>
    <dc:date>2021-06-03T23:46:13.576292</dc:date>
    <dc:format>image/svg+xml</dc:format>
    <dc:creator>
     <cc:Agent>
      <dc:title>Matplotlib v3.4.1, https://matplotlib.org/</dc:title>
     </cc:Agent>
    </dc:creator>
   </cc:Work>
  </rdf:RDF>
 </metadata>
 <defs>
  <style type="text/css">*{stroke-linecap:butt;stroke-linejoin:round;}</style>
 </defs>
 <g id="figure_1">
  <g id="patch_1">
   <path d="M 0 288 
L 432 288 
L 432 0 
L 0 0 
z
" style="fill:none;"/>
  </g>
  <g id="axes_1">
   <g id="patch_2">
    <path d="M 54 252 
L 388.8 252 
L 388.8 34.56 
L 54 34.56 
z
" style="fill:#ffffff;"/>
   </g>
   <g id="matplotlib.axis_1">
    <g id="xtick_1">
     <g id="line2d_1">
      <path clip-path="url(#pdb98730b69)" d="M 69.218182 252 
L 69.218182 34.56 
" style="fill:none;stroke:#b0b0b0;stroke-linecap:square;stroke-width:0.8;"/>
     </g>
     <g id="line2d_2">
      <defs>
       <path d="M 0 0 
L 0 3.5 
" id="m77f1e8b626" style="stroke:#000000;stroke-width:0.8;"/>
      </defs>
      <g>
       <use style="stroke:#000000;stroke-width:0.8;" x="69.218182" xlink:href="#m77f1e8b626" y="252"/>
      </g>
     </g>
     <g id="text_1">
      <!-- 0 -->
      <g transform="translate(66.036932 266.598437)scale(0.1 -0.1)">
       <defs>
        <path d="M 2034 4250 
Q 1547 4250 1301 3770 
Q 1056 3291 1056 2328 
Q 1056 1369 1301 889 
Q 1547 409 2034 409 
Q 2525 409 2770 889 
Q 3016 1369 3016 2328 
Q 3016 3291 2770 3770 
Q 2525 4250 2034 4250 
z
M 2034 4750 
Q 2819 4750 3233 4129 
Q 3647 3509 3647 2328 
Q 3647 1150 3233 529 
Q 2819 -91 2034 -91 
Q 1250 -91 836 529 
Q 422 1150 422 2328 
Q 422 3509 836 4129 
Q 1250 4750 2034 4750 
z
" id="DejaVuSans-30" transform="scale(0.015625)"/>
       </defs>
       <use xlink:href="#DejaVuSans-30"/>
      </g>
     </g>
    </g>
    <g id="xtick_2">
     <g id="line2d_3">
      <path clip-path="url(#pdb98730b69)" d="M 111.490909 252 
L 111.490909 34.56 
" style="fill:none;stroke:#b0b0b0;stroke-linecap:square;stroke-width:0.8;"/>
     </g>
     <g id="line2d_4">
      <g>
       <use style="stroke:#000000;stroke-width:0.8;" x="111.490909" xlink:href="#m77f1e8b626" y="252"/>
      </g>
     </g>
     <g id="text_2">
      <!-- 250 -->
      <g transform="translate(101.947159 266.598437)scale(0.1 -0.1)">
       <defs>
        <path d="M 1228 531 
L 3431 531 
L 3431 0 
L 469 0 
L 469 531 
Q 828 903 1448 1529 
Q 2069 2156 2228 2338 
Q 2531 2678 2651 2914 
Q 2772 3150 2772 3378 
Q 2772 3750 2511 3984 
Q 2250 4219 1831 4219 
Q 1534 4219 1204 4116 
Q 875 4013 500 3803 
L 500 4441 
Q 881 4594 1212 4672 
Q 1544 4750 1819 4750 
Q 2544 4750 2975 4387 
Q 3406 4025 3406 3419 
Q 3406 3131 3298 2873 
Q 3191 2616 2906 2266 
Q 2828 2175 2409 1742 
Q 1991 1309 1228 531 
z
" id="DejaVuSans-32" transform="scale(0.015625)"/>
        <path d="M 691 4666 
L 3169 4666 
L 3169 4134 
L 1269 4134 
L 1269 2991 
Q 1406 3038 1543 3061 
Q 1681 3084 1819 3084 
Q 2600 3084 3056 2656 
Q 3513 2228 3513 1497 
Q 3513 744 3044 326 
Q 2575 -91 1722 -91 
Q 1428 -91 1123 -41 
Q 819 9 494 109 
L 494 744 
Q 775 591 1075 516 
Q 1375 441 1709 441 
Q 2250 441 2565 725 
Q 2881 1009 2881 1497 
Q 2881 1984 2565 2268 
Q 2250 2553 1709 2553 
Q 1456 2553 1204 2497 
Q 953 2441 691 2322 
L 691 4666 
z
" id="DejaVuSans-35" transform="scale(0.015625)"/>
       </defs>
       <use xlink:href="#DejaVuSans-32"/>
       <use x="63.623047" xlink:href="#DejaVuSans-35"/>
       <use x="127.246094" xlink:href="#DejaVuSans-30"/>
      </g>
     </g>
    </g>
    <g id="xtick_3">
     <g id="line2d_5">
      <path clip-path="url(#pdb98730b69)" d="M 153.763636 252 
L 153.763636 34.56 
" style="fill:none;stroke:#b0b0b0;stroke-linecap:square;stroke-width:0.8;"/>
     </g>
     <g id="line2d_6">
      <g>
       <use style="stroke:#000000;stroke-width:0.8;" x="153.763636" xlink:href="#m77f1e8b626" y="252"/>
      </g>
     </g>
     <g id="text_3">
      <!-- 500 -->
      <g transform="translate(144.219886 266.598437)scale(0.1 -0.1)">
       <use xlink:href="#DejaVuSans-35"/>
       <use x="63.623047" xlink:href="#DejaVuSans-30"/>
       <use x="127.246094" xlink:href="#DejaVuSans-30"/>
      </g>
     </g>
    </g>
    <g id="xtick_4">
     <g id="line2d_7">
      <path clip-path="url(#pdb98730b69)" d="M 196.036364 252 
L 196.036364 34.56 
" style="fill:none;stroke:#b0b0b0;stroke-linecap:square;stroke-width:0.8;"/>
     </g>
     <g id="line2d_8">
      <g>
       <use style="stroke:#000000;stroke-width:0.8;" x="196.036364" xlink:href="#m77f1e8b626" y="252"/>
      </g>
     </g>
     <g id="text_4">
      <!-- 750 -->
      <g transform="translate(186.492614 266.598437)scale(0.1 -0.1)">
       <defs>
        <path d="M 525 4666 
L 3525 4666 
L 3525 4397 
L 1831 0 
L 1172 0 
L 2766 4134 
L 525 4134 
L 525 4666 
z
" id="DejaVuSans-37" transform="scale(0.015625)"/>
       </defs>
       <use xlink:href="#DejaVuSans-37"/>
       <use x="63.623047" xlink:href="#DejaVuSans-35"/>
       <use x="127.246094" xlink:href="#DejaVuSans-30"/>
      </g>
     </g>
    </g>
    <g id="xtick_5">
     <g id="line2d_9">
      <path clip-path="url(#pdb98730b69)" d="M 238.309091 252 
L 238.309091 34.56 
" style="fill:none;stroke:#b0b0b0;stroke-linecap:square;stroke-width:0.8;"/>
     </g>
     <g id="line2d_10">
      <g>
       <use style="stroke:#000000;stroke-width:0.8;" x="238.309091" xlink:href="#m77f1e8b626" y="252"/>
      </g>
     </g>
     <g id="text_5">
      <!-- 1000 -->
      <g transform="translate(225.584091 266.598437)scale(0.1 -0.1)">
       <defs>
        <path d="M 794 531 
L 1825 531 
L 1825 4091 
L 703 3866 
L 703 4441 
L 1819 4666 
L 2450 4666 
L 2450 531 
L 3481 531 
L 3481 0 
L 794 0 
L 794 531 
z
" id="DejaVuSans-31" transform="scale(0.015625)"/>
       </defs>
       <use xlink:href="#DejaVuSans-31"/>
       <use x="63.623047" xlink:href="#DejaVuSans-30"/>
       <use x="127.246094" xlink:href="#DejaVuSans-30"/>
       <use x="190.869141" xlink:href="#DejaVuSans-30"/>
      </g>
     </g>
    </g>
    <g id="xtick_6">
     <g id="line2d_11">
      <path clip-path="url(#pdb98730b69)" d="M 280.581818 252 
L 280.581818 34.56 
" style="fill:none;stroke:#b0b0b0;stroke-linecap:square;stroke-width:0.8;"/>
     </g>
     <g id="line2d_12">
      <g>
       <use style="stroke:#000000;stroke-width:0.8;" x="280.581818" xlink:href="#m77f1e8b626" y="252"/>
      </g>
     </g>
     <g id="text_6">
      <!-- 1250 -->
      <g transform="translate(267.856818 266.598437)scale(0.1 -0.1)">
       <use xlink:href="#DejaVuSans-31"/>
       <use x="63.623047" xlink:href="#DejaVuSans-32"/>
       <use x="127.246094" xlink:href="#DejaVuSans-35"/>
       <use x="190.869141" xlink:href="#DejaVuSans-30"/>
      </g>
     </g>
    </g>
    <g id="xtick_7">
     <g id="line2d_13">
      <path clip-path="url(#pdb98730b69)" d="M 322.854545 252 
L 322.854545 34.56 
" style="fill:none;stroke:#b0b0b0;stroke-linecap:square;stroke-width:0.8;"/>
     </g>
     <g id="line2d_14">
      <g>
       <use style="stroke:#000000;stroke-width:0.8;" x="322.854545" xlink:href="#m77f1e8b626" y="252"/>
      </g>
     </g>
     <g id="text_7">
      <!-- 1500 -->
      <g transform="translate(310.129545 266.598437)scale(0.1 -0.1)">
       <use xlink:href="#DejaVuSans-31"/>
       <use x="63.623047" xlink:href="#DejaVuSans-35"/>
       <use x="127.246094" xlink:href="#DejaVuSans-30"/>
       <use x="190.869141" xlink:href="#DejaVuSans-30"/>
      </g>
     </g>
    </g>
    <g id="xtick_8">
     <g id="line2d_15">
      <path clip-path="url(#pdb98730b69)" d="M 365.127273 252 
L 365.127273 34.56 
" style="fill:none;stroke:#b0b0b0;stroke-linecap:square;stroke-width:0.8;"/>
     </g>
     <g id="line2d_16">
      <g>
       <use style="stroke:#000000;stroke-width:0.8;" x="365.127273" xlink:href="#m77f1e8b626" y="252"/>
      </g>
     </g>
     <g id="text_8">
      <!-- 1750 -->
      <g transform="translate(352.402273 266.598437)scale(0.1 -0.1)">
       <use xlink:href="#DejaVuSans-31"/>
       <use x="63.623047" xlink:href="#DejaVuSans-37"/>
       <use x="127.246094" xlink:href="#DejaVuSans-35"/>
       <use x="190.869141" xlink:href="#DejaVuSans-30"/>
      </g>
     </g>
    </g>
    <g id="text_9">
     <!-- Time / s -->
     <g transform="translate(201.699219 280.276563)scale(0.1 -0.1)">
      <defs>
       <path d="M -19 4666 
L 3928 4666 
L 3928 4134 
L 2272 4134 
L 2272 0 
L 1638 0 
L 1638 4134 
L -19 4134 
L -19 4666 
z
" id="DejaVuSans-54" transform="scale(0.015625)"/>
       <path d="M 603 3500 
L 1178 3500 
L 1178 0 
L 603 0 
L 603 3500 
z
M 603 4863 
L 1178 4863 
L 1178 4134 
L 603 4134 
L 603 4863 
z
" id="DejaVuSans-69" transform="scale(0.015625)"/>
       <path d="M 3328 2828 
Q 3544 3216 3844 3400 
Q 4144 3584 4550 3584 
Q 5097 3584 5394 3201 
Q 5691 2819 5691 2113 
L 5691 0 
L 5113 0 
L 5113 2094 
Q 5113 2597 4934 2840 
Q 4756 3084 4391 3084 
Q 3944 3084 3684 2787 
Q 3425 2491 3425 1978 
L 3425 0 
L 2847 0 
L 2847 2094 
Q 2847 2600 2669 2842 
Q 2491 3084 2119 3084 
Q 1678 3084 1418 2786 
Q 1159 2488 1159 1978 
L 1159 0 
L 581 0 
L 581 3500 
L 1159 3500 
L 1159 2956 
Q 1356 3278 1631 3431 
Q 1906 3584 2284 3584 
Q 2666 3584 2933 3390 
Q 3200 3197 3328 2828 
z
" id="DejaVuSans-6d" transform="scale(0.015625)"/>
       <path d="M 3597 1894 
L 3597 1613 
L 953 1613 
Q 991 1019 1311 708 
Q 1631 397 2203 397 
Q 2534 397 2845 478 
Q 3156 559 3463 722 
L 3463 178 
Q 3153 47 2828 -22 
Q 2503 -91 2169 -91 
Q 1331 -91 842 396 
Q 353 884 353 1716 
Q 353 2575 817 3079 
Q 1281 3584 2069 3584 
Q 2775 3584 3186 3129 
Q 3597 2675 3597 1894 
z
M 3022 2063 
Q 3016 2534 2758 2815 
Q 2500 3097 2075 3097 
Q 1594 3097 1305 2825 
Q 1016 2553 972 2059 
L 3022 2063 
z
" id="DejaVuSans-65" transform="scale(0.015625)"/>
       <path id="DejaVuSans-20" transform="scale(0.015625)"/>
       <path d="M 1625 4666 
L 2156 4666 
L 531 -594 
L 0 -594 
L 1625 4666 
z
" id="DejaVuSans-2f" transform="scale(0.015625)"/>
       <path d="M 2834 3397 
L 2834 2853 
Q 2591 2978 2328 3040 
Q 2066 3103 1784 3103 
Q 1356 3103 1142 2972 
Q 928 2841 928 2578 
Q 928 2378 1081 2264 
Q 1234 2150 1697 2047 
L 1894 2003 
Q 2506 1872 2764 1633 
Q 3022 1394 3022 966 
Q 3022 478 2636 193 
Q 2250 -91 1575 -91 
Q 1294 -91 989 -36 
Q 684 19 347 128 
L 347 722 
Q 666 556 975 473 
Q 1284 391 1588 391 
Q 1994 391 2212 530 
Q 2431 669 2431 922 
Q 2431 1156 2273 1281 
Q 2116 1406 1581 1522 
L 1381 1569 
Q 847 1681 609 1914 
Q 372 2147 372 2553 
Q 372 3047 722 3315 
Q 1072 3584 1716 3584 
Q 2034 3584 2315 3537 
Q 2597 3491 2834 3397 
z
" id="DejaVuSans-73" transform="scale(0.015625)"/>
      </defs>
      <use xlink:href="#DejaVuSans-54"/>
      <use x="57.958984" xlink:href="#DejaVuSans-69"/>
      <use x="85.742188" xlink:href="#DejaVuSans-6d"/>
      <use x="183.154297" xlink:href="#DejaVuSans-65"/>
      <use x="244.677734" xlink:href="#DejaVuSans-20"/>
      <use x="276.464844" xlink:href="#DejaVuSans-2f"/>
      <use x="310.15625" xlink:href="#DejaVuSans-20"/>
      <use x="341.943359" xlink:href="#DejaVuSans-73"/>
     </g>
    </g>
   </g>
   <g id="matplotlib.axis_2">
    <g id="ytick_1">
     <g id="line2d_17">
      <path clip-path="url(#pdb98730b69)" d="M 54 242.116364 
L 388.8 242.116364 
" style="fill:none;stroke:#b0b0b0;stroke-linecap:square;stroke-width:0.8;"/>
     </g>
     <g id="line2d_18">
      <defs>
       <path d="M 0 0 
L -3.5 0 
" id="m6979f69a96" style="stroke:#000000;stroke-width:0.8;"/>
      </defs>
      <g>
       <use style="stroke:#000000;stroke-width:0.8;" x="54" xlink:href="#m6979f69a96" y="242.116364"/>
      </g>
     </g>
     <g id="text_10">
      <!-- 0 -->
      <g transform="translate(40.6375 245.915582)scale(0.1 -0.1)">
       <use xlink:href="#DejaVuSans-30"/>
      </g>
     </g>
    </g>
    <g id="ytick_2">
     <g id="line2d_19">
      <path clip-path="url(#pdb98730b69)" d="M 54 195.634318 
L 388.8 195.634318 
" style="fill:none;stroke:#b0b0b0;stroke-linecap:square;stroke-width:0.8;"/>
     </g>
     <g id="line2d_20">
      <g>
       <use style="stroke:#000000;stroke-width:0.8;" x="54" xlink:href="#m6979f69a96" y="195.634318"/>
      </g>
     </g>
     <g id="text_11">
      <!-- 20 -->
      <g transform="translate(34.275 199.433536)scale(0.1 -0.1)">
       <use xlink:href="#DejaVuSans-32"/>
       <use x="63.623047" xlink:href="#DejaVuSans-30"/>
      </g>
     </g>
    </g>
    <g id="ytick_3">
     <g id="line2d_21">
      <path clip-path="url(#pdb98730b69)" d="M 54 149.152272 
L 388.8 149.152272 
" style="fill:none;stroke:#b0b0b0;stroke-linecap:square;stroke-width:0.8;"/>
     </g>
     <g id="line2d_22">
      <g>
       <use style="stroke:#000000;stroke-width:0.8;" x="54" xlink:href="#m6979f69a96" y="149.152272"/>
      </g>
     </g>
     <g id="text_12">
      <!-- 40 -->
      <g transform="translate(34.275 152.95149)scale(0.1 -0.1)">
       <defs>
        <path d="M 2419 4116 
L 825 1625 
L 2419 1625 
L 2419 4116 
z
M 2253 4666 
L 3047 4666 
L 3047 1625 
L 3713 1625 
L 3713 1100 
L 3047 1100 
L 3047 0 
L 2419 0 
L 2419 1100 
L 313 1100 
L 313 1709 
L 2253 4666 
z
" id="DejaVuSans-34" transform="scale(0.015625)"/>
       </defs>
       <use xlink:href="#DejaVuSans-34"/>
       <use x="63.623047" xlink:href="#DejaVuSans-30"/>
      </g>
     </g>
    </g>
    <g id="ytick_4">
     <g id="line2d_23">
      <path clip-path="url(#pdb98730b69)" d="M 54 102.670226 
L 388.8 102.670226 
" style="fill:none;stroke:#b0b0b0;stroke-linecap:square;stroke-width:0.8;"/>
     </g>
     <g id="line2d_24">
      <g>
       <use style="stroke:#000000;stroke-width:0.8;" x="54" xlink:href="#m6979f69a96" y="102.670226"/>
      </g>
     </g>
     <g id="text_13">
      <!-- 60 -->
      <g transform="translate(34.275 106.469444)scale(0.1 -0.1)">
       <defs>
        <path d="M 2113 2584 
Q 1688 2584 1439 2293 
Q 1191 2003 1191 1497 
Q 1191 994 1439 701 
Q 1688 409 2113 409 
Q 2538 409 2786 701 
Q 3034 994 3034 1497 
Q 3034 2003 2786 2293 
Q 2538 2584 2113 2584 
z
M 3366 4563 
L 3366 3988 
Q 3128 4100 2886 4159 
Q 2644 4219 2406 4219 
Q 1781 4219 1451 3797 
Q 1122 3375 1075 2522 
Q 1259 2794 1537 2939 
Q 1816 3084 2150 3084 
Q 2853 3084 3261 2657 
Q 3669 2231 3669 1497 
Q 3669 778 3244 343 
Q 2819 -91 2113 -91 
Q 1303 -91 875 529 
Q 447 1150 447 2328 
Q 447 3434 972 4092 
Q 1497 4750 2381 4750 
Q 2619 4750 2861 4703 
Q 3103 4656 3366 4563 
z
" id="DejaVuSans-36" transform="scale(0.015625)"/>
       </defs>
       <use xlink:href="#DejaVuSans-36"/>
       <use x="63.623047" xlink:href="#DejaVuSans-30"/>
      </g>
     </g>
    </g>
    <g id="ytick_5">
     <g id="line2d_25">
      <path clip-path="url(#pdb98730b69)" d="M 54 56.18818 
L 388.8 56.18818 
" style="fill:none;stroke:#b0b0b0;stroke-linecap:square;stroke-width:0.8;"/>
     </g>
     <g id="line2d_26">
      <g>
       <use style="stroke:#000000;stroke-width:0.8;" x="54" xlink:href="#m6979f69a96" y="56.18818"/>
      </g>
     </g>
     <g id="text_14">
      <!-- 80 -->
      <g transform="translate(34.275 59.987398)scale(0.1 -0.1)">
       <defs>
        <path d="M 2034 2216 
Q 1584 2216 1326 1975 
Q 1069 1734 1069 1313 
Q 1069 891 1326 650 
Q 1584 409 2034 409 
Q 2484 409 2743 651 
Q 3003 894 3003 1313 
Q 3003 1734 2745 1975 
Q 2488 2216 2034 2216 
z
M 1403 2484 
Q 997 2584 770 2862 
Q 544 3141 544 3541 
Q 544 4100 942 4425 
Q 1341 4750 2034 4750 
Q 2731 4750 3128 4425 
Q 3525 4100 3525 3541 
Q 3525 3141 3298 2862 
Q 3072 2584 2669 2484 
Q 3125 2378 3379 2068 
Q 3634 1759 3634 1313 
Q 3634 634 3220 271 
Q 2806 -91 2034 -91 
Q 1263 -91 848 271 
Q 434 634 434 1313 
Q 434 1759 690 2068 
Q 947 2378 1403 2484 
z
M 1172 3481 
Q 1172 3119 1398 2916 
Q 1625 2713 2034 2713 
Q 2441 2713 2670 2916 
Q 2900 3119 2900 3481 
Q 2900 3844 2670 4047 
Q 2441 4250 2034 4250 
Q 1625 4250 1398 4047 
Q 1172 3844 1172 3481 
z
" id="DejaVuSans-38" transform="scale(0.015625)"/>
       </defs>
       <use xlink:href="#DejaVuSans-38"/>
       <use x="63.623047" xlink:href="#DejaVuSans-30"/>
      </g>
     </g>
    </g>
    <g id="text_15">
     <!-- HRR / kW -->
     <g transform="translate(28.195312 166.690156)rotate(-90)scale(0.1 -0.1)">
      <defs>
       <path d="M 628 4666 
L 1259 4666 
L 1259 2753 
L 3553 2753 
L 3553 4666 
L 4184 4666 
L 4184 0 
L 3553 0 
L 3553 2222 
L 1259 2222 
L 1259 0 
L 628 0 
L 628 4666 
z
" id="DejaVuSans-48" transform="scale(0.015625)"/>
       <path d="M 2841 2188 
Q 3044 2119 3236 1894 
Q 3428 1669 3622 1275 
L 4263 0 
L 3584 0 
L 2988 1197 
Q 2756 1666 2539 1819 
Q 2322 1972 1947 1972 
L 1259 1972 
L 1259 0 
L 628 0 
L 628 4666 
L 2053 4666 
Q 2853 4666 3247 4331 
Q 3641 3997 3641 3322 
Q 3641 2881 3436 2590 
Q 3231 2300 2841 2188 
z
M 1259 4147 
L 1259 2491 
L 2053 2491 
Q 2509 2491 2742 2702 
Q 2975 2913 2975 3322 
Q 2975 3731 2742 3939 
Q 2509 4147 2053 4147 
L 1259 4147 
z
" id="DejaVuSans-52" transform="scale(0.015625)"/>
       <path d="M 581 4863 
L 1159 4863 
L 1159 1991 
L 2875 3500 
L 3609 3500 
L 1753 1863 
L 3688 0 
L 2938 0 
L 1159 1709 
L 1159 0 
L 581 0 
L 581 4863 
z
" id="DejaVuSans-6b" transform="scale(0.015625)"/>
       <path d="M 213 4666 
L 850 4666 
L 1831 722 
L 2809 4666 
L 3519 4666 
L 4500 722 
L 5478 4666 
L 6119 4666 
L 4947 0 
L 4153 0 
L 3169 4050 
L 2175 0 
L 1381 0 
L 213 4666 
z
" id="DejaVuSans-57" transform="scale(0.015625)"/>
      </defs>
      <use xlink:href="#DejaVuSans-48"/>
      <use x="75.195312" xlink:href="#DejaVuSans-52"/>
      <use x="144.677734" xlink:href="#DejaVuSans-52"/>
      <use x="214.160156" xlink:href="#DejaVuSans-20"/>
      <use x="245.947266" xlink:href="#DejaVuSans-2f"/>
      <use x="279.638672" xlink:href="#DejaVuSans-20"/>
      <use x="311.425781" xlink:href="#DejaVuSans-6b"/>
      <use x="369.335938" xlink:href="#DejaVuSans-57"/>
     </g>
    </g>
   </g>
   <g id="line2d_27">
    <path clip-path="url(#pdb98730b69)" d="M 69.218182 242.116364 
L 69.578685 242.116364 
L 69.939188 148.169442 
L 70.299691 114.925737 
L 70.455023 69.761904 
L 70.800702 70.136074 
L 71.05249 44.443636 
L 71.400195 86.735305 
L 71.710305 95.340443 
L 72.312926 100.485449 
L 72.57288 96.26311 
L 73.48272 96.491953 
L 73.797265 98.377289 
L 74.11181 96.920452 
L 74.426354 94.796184 
L 75.055444 96.762979 
L 75.369989 96.723455 
L 76.234986 96.254865 
L 76.549531 96.684605 
L 76.864076 96.883216 
L 77.17862 96.429157 
L 77.493165 96.54247 
L 77.80771 97.1856 
L 78.130118 96.999065 
L 78.389617 95.92974 
L 78.735616 95.47874 
L 78.995116 95.979646 
L 79.341114 89.929651 
L 79.600614 88.229662 
L 79.946613 91.581322 
L 80.552112 102.522106 
L 80.797933 97.754355 
L 81.089224 94.716844 
L 81.453336 99.63541 
L 81.782493 97.351753 
L 82.046839 91.359288 
L 82.663645 94.820157 
L 82.92799 96.646243 
L 83.280452 96.660801 
L 83.544797 96.42014 
L 83.897259 98.98172 
L 84.161604 98.990028 
L 84.813656 94.534972 
L 85.104436 93.723012 
L 85.685997 96.024364 
L 85.976777 94.697623 
L 86.267558 92.754828 
L 86.655264 92.407964 
L 87.818384 99.397214 
L 88.109165 99.878668 
L 88.399945 94.11298 
L 88.787653 90.901461 
L 89.078431 92.908365 
L 89.631728 99.35222 
L 89.937273 94.961441 
L 90.234278 95.314803 
L 90.531284 98.180071 
L 90.866898 99.74429 
L 91.188121 95.559622 
L 91.512053 94.01786 
L 91.792022 93.52605 
L 92.071989 92.751583 
L 92.734582 103.918549 
L 93.042548 101.645665 
L 93.350514 94.265914 
L 93.65848 90.292774 
L 93.966446 88.665254 
L 94.274409 89.716146 
L 94.582375 94.793471 
L 94.787686 102.250025 
L 95.095652 109.016655 
L 95.403618 104.216749 
L 95.711584 103.587494 
L 96.01955 100.972843 
L 96.327516 99.37536 
L 96.953712 92.526021 
L 97.292474 93.953964 
L 97.590267 92.474262 
L 97.888057 97.505077 
L 98.175573 97.249522 
L 98.442533 95.59661 
L 98.816277 95.374833 
L 99.119722 96.394758 
L 99.453513 92.716953 
L 99.690396 103.450438 
L 100.282604 94.000057 
L 100.673459 98.423595 
L 101.501271 98.404746 
L 101.850034 97.143692 
L 102.21042 96.820659 
L 102.46618 93.927988 
L 102.721937 93.144158 
L 103.105575 93.861424 
L 103.320525 93.029825 
L 103.64295 95.625823 
L 103.919875 94.421358 
L 104.289109 96.81979 
L 104.575265 97.512365 
L 104.90019 98.825187 
L 105.235268 96.481163 
L 105.458652 90.432055 
L 105.793733 90.624477 
L 106.352195 98.652012 
L 106.687276 100.10869 
L 107.022354 99.459504 
L 107.580819 96.738341 
L 107.915896 96.451011 
L 108.586055 92.983138 
L 108.809439 95.370303 
L 109.109753 94.624889 
L 109.410069 96.604964 
L 109.710382 96.861628 
L 110.010695 96.748652 
L 110.684401 98.07815 
L 110.926654 92.427398 
L 111.532289 97.276341 
L 111.869545 96.178699 
L 112.517937 96.290886 
L 112.842135 94.880311 
L 113.079878 96.021722 
L 113.436492 95.845223 
L 113.67424 97.414948 
L 114.005749 95.949032 
L 114.324704 96.040731 
L 114.664924 97.173126 
L 114.898828 96.99519 
L 115.249678 96.383321 
L 115.483582 95.473341 
L 116.185287 96.807919 
L 117.003945 96.139894 
L 117.378186 96.93555 
L 117.635476 96.262906 
L 118.021416 96.712497 
L 118.536001 96.482644 
L 118.921935 94.570878 
L 119.164632 94.013471 
L 119.506777 93.691964 
L 119.848917 94.55664 
L 120.077015 96.040092 
L 120.761305 96.598776 
L 121.012206 98.715074 
L 121.63947 95.513361 
L 122.266734 95.382697 
L 122.488944 93.422117 
L 122.798152 93.957466 
L 123.719322 97.332222 
L 124.046188 95.484086 
L 124.383952 97.240293 
L 124.635643 99.695546 
L 125.017748 97.891695 
L 125.254614 95.90934 
L 125.846783 92.873203 
L 126.438947 96.478025 
L 126.79425 96.730681 
L 127.149549 96.058453 
L 127.386414 94.608381 
L 127.741718 93.521874 
L 128.333887 95.463757 
L 128.570753 96.658123 
L 128.926051 96.765426 
L 129.51822 94.306794 
L 129.873518 94.527472 
L 130.110384 96.534092 
L 130.465687 98.55245 
L 130.702553 97.7161 
L 131.057851 96.877586 
L 131.413155 95.568692 
L 131.65002 91.843358 
L 132.005319 93.043035 
L 132.242189 95.64953 
L 132.597488 97.370743 
L 132.834353 97.500502 
L 133.189657 98.399835 
L 133.568641 100.980166 
L 133.829197 98.249126 
L 134.115807 99.108323 
L 134.402412 97.617264 
L 134.661003 94.206443 
L 135.006847 92.232724 
L 135.352697 92.946913 
L 135.952168 98.273737 
L 136.276097 95.275927 
L 136.492054 95.929031 
L 136.815983 95.92005 
L 137.172308 97.423069 
L 137.409855 93.710529 
L 137.76618 95.110058 
L 138.095548 94.273566 
L 138.622027 96.286374 
L 138.937917 96.580646 
L 139.253807 95.977491 
L 139.569696 95.872725 
L 140.222529 97.813224 
L 140.801658 96.58991 
L 141.172303 97.517941 
L 141.681939 96.377186 
L 142.064164 94.375708 
L 142.318982 94.530947 
L 142.673011 94.277715 
L 142.899638 95.065906 
L 143.239575 95.434792 
L 143.579511 95.404072 
L 143.806133 95.85822 
L 144.14607 96.089182 
L 144.486006 95.881652 
L 144.723966 96.058551 
L 145.097892 95.337473 
L 145.347179 95.650585 
L 145.74604 98.290653 
L 145.988437 95.221083 
L 146.23084 95.727575 
L 146.594436 95.716705 
L 146.836838 95.832572 
L 147.200434 96.228046 
L 147.442837 96.3043 
L 147.806433 96.215474 
L 148.04883 95.999496 
L 148.412431 95.879853 
L 148.776032 95.456744 
L 149.01843 95.360453 
L 149.624428 95.628793 
L 150.230427 96.229482 
L 150.594023 96.124813 
L 150.836425 95.569286 
L 151.200021 95.712485 
L 151.442424 96.757517 
L 151.80602 97.393466 
L 152.048423 97.495272 
L 152.412019 97.12565 
L 153.018017 94.188729 
L 153.26042 95.400828 
L 153.866418 97.715036 
L 154.230014 97.153905 
L 154.836013 95.186826 
L 155.07841 94.843092 
L 155.442011 94.947708 
L 156.048005 96.288005 
L 156.290412 96.294974 
L 156.654003 96.071282 
L 156.896411 95.714205 
L 157.260002 95.76099 
L 157.866 96.257214 
L 158.108408 95.890589 
L 158.471999 95.675001 
L 159.320405 96.887569 
L 159.926403 96.542869 
L 160.289994 96.106603 
L 160.532402 95.623624 
L 161.13839 95.320291 
L 161.865593 96.819001 
L 162.10799 96.366724 
L 162.471591 95.994487 
L 162.713988 95.386864 
L 163.07759 95.106831 
L 163.319987 95.654264 
L 163.925986 95.932719 
L 164.289587 95.912594 
L 164.531984 95.625778 
L 164.895585 95.455183 
L 165.501584 94.493126 
L 165.743981 94.70812 
L 166.107582 95.276344 
L 166.713581 94.700974 
L 167.319579 96.694464 
L 167.561977 97.075789 
L 167.877443 94.491255 
L 168.19291 96.280425 
L 168.750226 97.47449 
L 169.097243 96.846645 
L 169.444248 94.950944 
L 169.675592 95.963989 
L 170.022598 98.759625 
L 170.600948 96.023363 
L 170.971103 97.524413 
L 171.225575 97.799721 
L 171.607289 96.689411 
L 171.861761 94.377251 
L 172.116234 93.65236 
L 172.497947 94.605579 
L 172.75242 97.257873 
L 173.006892 98.129093 
L 173.643088 96.976865 
L 174.279274 95.25941 
L 174.533746 95.082804 
L 174.91546 95.179264 
L 175.169932 95.993716 
L 175.551646 96.071991 
L 176.060591 96.575911 
L 176.442304 96.538888 
L 176.696777 94.916722 
L 177.07849 95.222041 
L 177.332973 95.995888 
L 177.969159 96.169319 
L 178.223631 95.507669 
L 178.605345 94.883529 
L 178.859817 96.505491 
L 179.11429 96.814772 
L 179.750476 96.580956 
L 180.386661 94.436554 
L 180.641144 95.656463 
L 181.022847 95.987527 
L 181.27733 96.622758 
L 181.531802 96.735823 
L 181.887632 95.291132 
L 182.23051 95.514619 
L 182.470534 96.627111 
L 182.847706 96.489524 
L 183.412712 93.026155 
L 183.714555 94.022488 
L 184.016398 95.703132 
L 184.318252 95.051127 
L 184.620096 96.016128 
L 184.974264 99.736382 
L 185.582987 96.778884 
L 185.826478 93.762349 
L 186.19171 94.177656 
L 186.435201 96.855555 
L 186.800433 97.384875 
L 187.043925 97.353296 
L 187.409167 96.998719 
L 188.01789 95.923756 
L 188.261381 94.837064 
L 188.626613 94.741659 
L 189.478827 96.777421 
L 189.803582 94.715567 
L 190.377309 97.403281 
L 190.734542 94.839803 
L 190.972698 94.243732 
L 191.699064 97.753087 
L 191.961029 98.530791 
L 192.877912 94.122103 
L 193.139887 95.397467 
L 193.491692 93.303139 
L 193.802772 92.370285 
L 194.020524 94.390132 
L 194.3627 95.412983 
L 194.739109 98.306727 
L 194.990041 97.160935 
L 195.240974 96.98589 
L 195.617372 97.059059 
L 196.244714 94.832861 
L 196.495646 95.245189 
L 197.122977 97.800679 
L 197.373909 97.146963 
L 197.750318 96.675013 
L 198.001251 96.826386 
L 198.364501 95.741733 
L 198.589137 94.444497 
L 199.263034 96.174586 
L 199.48767 96.330827 
L 199.824623 96.047371 
L 200.161577 95.983724 
L 200.756853 96.849269 
L 201.127503 96.441072 
L 201.374596 96.380129 
L 202.610082 95.521916 
L 202.857186 95.031481 
L 203.227836 95.67016 
L 203.474929 96.47204 
L 203.845579 96.574271 
L 204.092672 97.057419 
L 204.710416 95.50875 
L 205.081066 96.836875 
L 205.328159 94.429949 
L 205.575262 95.020354 
L 205.945902 96.259519 
L 206.193006 95.633154 
L 206.810749 96.702142 
L 207.181399 96.034285 
L 207.428492 95.291495 
L 207.799142 94.903619 
L 208.046235 95.102708 
L 208.416885 95.643793 
L 208.663979 95.630619 
L 209.034629 95.047182 
L 209.281722 95.395384 
L 209.899465 96.658868 
L 210.146569 96.745362 
L 210.517219 96.278758 
L 210.764312 95.496524 
L 211.134962 94.777441 
L 211.382055 95.206978 
L 211.999798 97.496265 
L 212.370448 97.311245 
L 212.988192 96.663868 
L 213.235285 96.143653 
L 213.605935 95.960797 
L 214.100132 96.270061 
L 214.470782 96.241992 
L 214.811915 94.513925 
L 215.029512 95.189903 
L 215.355898 95.773987 
L 215.714927 97.249806 
L 215.95428 95.680453 
L 216.313309 95.869905 
L 216.552652 96.471198 
L 216.911681 96.428403 
L 217.510063 94.794623 
L 217.749416 95.117585 
L 218.132378 96.874022 
L 218.790588 95.494024 
L 219.053874 96.031164 
L 219.31716 96.291959 
L 219.580446 96.240414 
L 219.97538 95.985657 
L 220.238666 95.549905 
L 220.501952 95.728896 
L 220.896876 96.273687 
L 221.160162 96.070883 
L 221.423458 96.110043 
L 221.818382 95.15436 
L 222.081668 96.72076 
L 222.344954 96.560015 
L 223.003175 96.697408 
L 223.266461 97.131971 
L 223.661384 95.19594 
L 223.924671 92.178838 
L 224.451243 98.607949 
L 224.846177 97.198961 
L 225.109463 96.831422 
L 225.463198 94.738122 
L 225.69901 94.897351 
L 226.052745 93.216308 
L 226.288568 93.402391 
L 226.642303 95.007552 
L 226.97967 94.944924 
L 227.284341 93.486376 
L 227.487448 94.346806 
L 227.856715 93.555077 
L 228.181625 98.221039 
L 228.419172 97.497798 
L 228.775497 97.505698 
L 229.013044 97.86406 
L 229.381237 98.125608 
L 230.034494 96.197025 
L 230.949054 96.274112 
L 231.553742 91.117307 
L 231.782661 95.164981 
L 232.366419 100.274249 
L 232.995948 97.19936 
L 234.003207 95.453162 
L 234.255027 94.576951 
L 234.506837 94.504314 
L 234.884556 93.991998 
L 235.136376 94.434621 
L 235.514096 94.466529 
L 235.765916 95.094915 
L 236.017725 96.146561 
L 236.395445 96.79072 
L 236.647265 96.715441 
L 237.024985 95.356419 
L 237.243562 91.658667 
L 237.542784 92.380498 
L 237.922671 95.433489 
L 238.207579 96.373834 
L 238.492507 96.508558 
L 238.805899 98.121743 
L 239.672975 94.500387 
L 240.01772 94.655014 
L 240.362466 95.51024 
L 240.578309 94.626263 
L 240.881112 94.428291 
L 241.194039 96.197894 
L 241.527123 96.693365 
L 241.893531 98.077698 
L 242.137797 97.130287 
L 242.516424 98.516313 
L 242.785108 98.762488 
L 243.030571 95.566644 
L 243.363943 94.960501 
L 243.662804 94.012345 
L 244.311343 98.732877 
L 244.55243 98.327331 
L 244.914039 96.70849 
L 245.155126 96.314709 
L 245.516756 96.763466 
L 245.757843 96.235715 
L 246.119473 94.744931 
L 246.360559 95.934528 
L 246.722189 96.6204 
L 247.324885 95.526553 
L 247.927602 95.570287 
L 248.289232 96.152492 
L 248.530318 95.957206 
L 249.133035 96.89835 
L 249.494665 96.814214 
L 249.735731 95.98508 
L 250.097361 94.190299 
L 250.338448 94.173844 
L 250.941164 96.288014 
L 251.302794 96.620949 
L 251.543881 96.596063 
L 251.905511 95.901893 
L 252.146577 94.881375 
L 252.508207 94.9799 
L 253.110924 97.218935 
L 253.484608 98.071545 
L 253.749803 98.075668 
L 254.014998 96.51597 
L 254.280194 96.220874 
L 254.677966 95.169857 
L 254.943161 95.565225 
L 255.208357 97.180272 
L 255.871345 96.48705 
L 256.13654 95.91083 
L 256.534333 95.941931 
L 256.799508 94.600658 
L 257.329899 94.151201 
L 257.727692 96.779673 
L 257.992887 97.183587 
L 258.593106 92.408603 
L 259.528369 96.553543 
L 259.76219 95.811055 
L 260.112922 95.485841 
L 260.697454 95.732717 
L 261.281986 95.005477 
L 261.656104 97.261978 
L 261.91329 97.050158 
L 262.299091 96.877161 
L 262.556298 96.308405 
L 262.813485 96.296055 
L 263.199285 97.457397 
L 263.456472 97.286785 
L 263.713679 96.547594 
L 264.356666 95.728045 
L 264.954511 93.813052 
L 265.29515 95.852502 
L 265.635808 97.043092 
L 265.8629 97.232872 
L 266.203538 96.595345 
L 266.544197 93.971572 
L 266.782642 94.923336 
L 267.157358 97.036567 
L 267.407155 97.788231 
L 268.031689 95.427584 
L 268.656203 96.472457 
L 268.906 96.186333 
L 269.280716 96.084199 
L 269.530514 94.480235 
L 269.90523 95.505754 
L 270.141074 95.209141 
L 270.47391 95.480513 
L 270.806745 96.303733 
L 271.028636 96.099386 
L 271.694308 94.141032 
L 271.927282 96.545466 
L 272.293412 97.1405 
L 272.537492 96.817139 
L 273.14768 97.063155 
L 273.513789 96.74976 
L 273.757869 95.575164 
L 274.368078 96.430229 
L 274.734187 96.387204 
L 274.978267 96.565849 
L 275.344376 96.557923 
L 275.588455 96.079119 
L 275.954585 95.990045 
L 276.198665 96.124494 
L 276.564774 95.454785 
L 276.808853 95.489414 
L 277.419042 95.837625 
L 277.785172 95.627844 
L 278.029251 94.513561 
L 278.39536 94.806929 
L 278.63944 96.546096 
L 279.005549 96.695368 
L 279.249629 96.477714 
L 279.859838 96.316092 
L 280.225947 95.722707 
L 281.080215 96.222576 
L 281.690425 95.92888 
L 282.056534 96.165197 
L 282.300613 96.535581 
L 282.910802 96.437898 
L 283.88712 95.980195 
L 284.1312 95.708194 
L 284.497309 95.533743 
L 284.741388 96.050767 
L 285.107518 95.732141 
L 285.351598 94.97654 
L 285.717707 95.263958 
L 285.961786 95.772976 
L 286.571975 96.274893 
L 286.938105 96.287402 
L 287.548293 95.598126 
L 288.158482 96.445088 
L 288.402562 96.281657 
L 288.768691 95.558345 
L 289.012771 94.335759 
L 289.37888 94.333117 
L 289.989069 96.56467 
L 290.233148 96.923307 
L 290.843358 95.373512 
L 291.172003 93.751604 
L 291.50261 95.909606 
L 291.729908 96.4593 
L 292.070835 96.811182 
L 292.411762 96.590726 
L 292.661787 98.075224 
L 293.036813 96.830314 
L 293.286816 96.781756 
L 293.63053 94.87993 
L 293.849221 95.039238 
L 294.177268 95.758933 
L 294.505295 96.153982 
L 294.833342 95.84251 
L 295.38008 94.517462 
L 295.708127 95.006541 
L 296.068973 98.168891 
L 296.309523 96.816217 
L 296.670368 96.084891 
L 296.910939 96.072851 
L 297.271784 94.518491 
L 297.512334 95.135414 
L 297.87318 96.774025 
L 298.113751 97.171388 
L 298.715167 96.499178 
L 299.076013 95.41902 
L 299.436858 93.957378 
L 300.038254 97.037959 
L 300.278824 97.174332 
L 300.63967 96.60359 
L 300.88022 96.445727 
L 301.241066 96.559678 
L 301.481636 95.796914 
L 301.866529 97.055885 
L 302.395784 96.621978 
L 302.79271 96.863348 
L 303.321945 96.04777 
L 303.952692 93.983673 
L 304.303423 95.049044 
L 304.548948 97.690611 
L 304.806155 98.214638 
L 305.449163 96.189631 
L 305.834963 93.333672 
L 306.092171 93.224251 
L 306.349378 95.451194 
L 306.735178 96.618033 
L 306.992386 96.97714 
L 307.249593 97.113982 
L 307.635394 95.889162 
L 307.892601 94.634472 
L 308.149787 94.511673 
L 308.501014 92.93154 
L 308.834923 94.023463 
L 309.079808 97.975972 
L 309.447114 98.220357 
L 309.691978 96.899183 
L 310.304169 96.011607 
L 310.671475 95.774448 
L 310.916339 96.42694 
L 311.283645 97.053208 
L 311.52853 96.838036 
L 311.895836 96.91703 
L 312.508006 96.337387 
L 312.752891 95.990932 
L 313.120197 95.846846 
L 313.389541 97.687694 
L 314.332298 95.436229 
L 314.573426 90.737498 
L 315.176204 96.748802 
L 315.537875 96.524747 
L 315.76441 93.95931 
L 316.082384 92.254002 
L 316.443829 96.087311 
L 316.700313 96.736133 
L 317.085082 96.582215 
L 317.341567 96.160143 
L 317.598072 96.272268 
L 318.239326 96.809754 
L 318.880579 95.691473 
L 319.137064 95.672518 
L 319.521832 97.194235 
L 319.778317 97.08758 
L 320.034822 96.322067 
L 320.41957 96.670199 
L 320.676076 97.098432 
L 320.932581 94.904452 
L 321.317329 96.285682 
L 321.538766 94.418822 
L 321.870941 95.607603 
L 322.203116 96.185012 
L 322.535291 96.231832 
L 323.088924 94.615056 
L 323.432163 96.210226 
L 323.675747 96.180029 
L 324.041154 95.993325 
L 324.284738 96.511245 
L 324.650125 96.207761 
L 324.89373 94.741083 
L 325.259116 95.159715 
L 325.502721 96.435558 
L 325.868108 97.236968 
L 326.111692 96.782705 
L 326.477079 96.412923 
L 326.720684 95.877131 
L 327.08607 94.292396 
L 327.938646 96.602172 
L 328.304053 96.112277 
L 328.547637 96.39716 
L 328.913024 96.155382 
L 329.156629 96.264812 
L 329.522015 96.63322 
L 329.7656 96.465621 
L 330.131007 96.552213 
L 330.374591 96.121976 
L 330.739978 96.093943 
L 330.971384 94.644668 
L 331.300174 94.720727 
L 331.661866 97.536143 
L 331.902973 97.000377 
L 332.264665 96.476943 
L 332.867464 94.25899 
L 333.108592 94.282227 
L 333.470263 96.165906 
L 334.073063 96.506129 
L 334.675862 96.018548 
L 334.929044 97.551374 
L 335.326878 96.959151 
L 335.592115 94.255018 
L 335.857352 94.790066 
L 336.255206 97.27158 
L 336.491112 95.022721 
L 336.844981 96.532939 
L 337.080887 96.473459 
L 337.434756 96.265061 
L 338.024531 93.673736 
L 338.614305 96.092001 
L 339.20408 96.500154 
L 339.557949 95.406431 
L 339.911818 95.819291 
L 340.130819 94.916226 
L 340.433973 94.732758 
L 341.070582 97.633879 
L 341.626361 94.670902 
L 341.993172 96.481296 
L 342.237726 96.39865 
L 342.604537 96.997043 
L 342.849071 97.077278 
L 343.460415 95.890137 
L 343.827247 95.939475 
L 344.07178 96.26827 
L 345.049936 96.48963 
L 345.661301 95.568408 
L 345.905835 95.841819 
L 346.272646 95.139731 
L 346.5172 96.086699 
L 346.884011 96.5273 
L 347.128544 96.383046 
L 347.495355 95.481657 
L 347.73991 95.545428 
L 348.351254 96.288599 
L 348.718065 96.181829 
L 349.32943 95.700082 
L 349.940775 94.021849 
L 350.185309 94.073049 
L 350.552119 94.992427 
L 350.796674 96.097259 
L 351.774829 96.782767 
L 352.019383 96.636473 
L 352.349804 94.549547 
L 352.66202 95.009804 
L 352.974235 96.210554 
L 353.286451 96.599769 
L 353.5154 98.228593 
L 354.431241 95.551279 
L 355.118111 96.079829 
L 355.358516 97.713192 
L 355.736308 97.449125 
L 355.988169 96.002439 
L 356.24001 95.466124 
L 356.617802 95.422797 
L 356.869663 95.16913 
L 357.247434 95.806586 
L 357.499295 95.348023 
L 357.877067 95.324192 
L 358.128928 96.370129 
L 358.380789 96.683302 
L 358.75856 96.916835 
L 359.010421 96.664932 
L 359.388213 96.05215 
L 359.640054 96.388153 
L 359.891915 94.04318 
L 360.269686 94.712996 
L 360.521548 96.102826 
L 360.86877 95.080012 
L 361.222825 98.283578 
L 361.466244 97.820379 
L 361.831362 96.409838 
L 362.43992 93.141959 
L 362.683319 93.391379 
L 363.291877 97.58212 
L 363.656995 97.553236 
L 364.265532 94.512249 
L 364.886248 97.818047 
L 365.154003 99.340748 
L 366.047179 93.899396 
L 366.285603 93.219694 
L 366.64325 93.0763 
L 367.23934 95.980257 
L 367.596987 96.380643 
L 367.835431 96.00705 
L 368.193078 95.166878 
L 368.431501 95.037181 
L 369.027592 96.070998 
L 369.385239 97.181566 
L 369.742885 97.031017 
L 369.967273 95.394267 
L 370.303845 96.64729 
L 370.650943 96.575849 
L 370.882329 96.013132 
L 371.229428 96.350757 
L 371.483952 98.641072 
L 371.865748 97.295269 
L 372.10733 95.559028 
L 372.4503 95.118099 
L 372.67894 95.733426 
L 373.021911 95.453517 
L 373.364881 94.983127 
L 373.364881 94.983127 
" style="fill:none;stroke:#1f77b4;stroke-linecap:square;stroke-width:1.5;"/>
   </g>
   <g id="line2d_28">
    <path clip-path="url(#pdb98730b69)" d="M 69.218182 95.930329 
L 373.581818 95.930329 
" style="fill:none;stroke:#ff7f0e;stroke-linecap:square;stroke-width:1.5;"/>
   </g>
   <g id="patch_3">
    <path d="M 54 252 
L 54 34.56 
" style="fill:none;stroke:#000000;stroke-linecap:square;stroke-linejoin:miter;stroke-width:0.8;"/>
   </g>
   <g id="patch_4">
    <path d="M 388.8 252 
L 388.8 34.56 
" style="fill:none;stroke:#000000;stroke-linecap:square;stroke-linejoin:miter;stroke-width:0.8;"/>
   </g>
   <g id="patch_5">
    <path d="M 54 252 
L 388.8 252 
" style="fill:none;stroke:#000000;stroke-linecap:square;stroke-linejoin:miter;stroke-width:0.8;"/>
   </g>
   <g id="patch_6">
    <path d="M 54 34.56 
L 388.8 34.56 
" style="fill:none;stroke:#000000;stroke-linecap:square;stroke-linejoin:miter;stroke-width:0.8;"/>
   </g>
   <g id="legend_1">
    <g id="patch_7">
     <path d="M 297.673437 71.91625 
L 381.8 71.91625 
Q 383.8 71.91625 383.8 69.91625 
L 383.8 41.56 
Q 383.8 39.56 381.8 39.56 
L 297.673437 39.56 
Q 295.673437 39.56 295.673437 41.56 
L 295.673437 69.91625 
Q 295.673437 71.91625 297.673437 71.91625 
z
" style="fill:#ffffff;opacity:0.8;stroke:#cccccc;stroke-linejoin:miter;"/>
    </g>
    <g id="line2d_29">
     <path d="M 299.673437 47.658437 
L 319.673437 47.658437 
" style="fill:none;stroke:#1f77b4;stroke-linecap:square;stroke-width:1.5;"/>
    </g>
    <g id="line2d_30"/>
    <g id="text_16">
     <!-- simulation -->
     <g transform="translate(327.673437 51.158437)scale(0.1 -0.1)">
      <defs>
       <path d="M 544 1381 
L 544 3500 
L 1119 3500 
L 1119 1403 
Q 1119 906 1312 657 
Q 1506 409 1894 409 
Q 2359 409 2629 706 
Q 2900 1003 2900 1516 
L 2900 3500 
L 3475 3500 
L 3475 0 
L 2900 0 
L 2900 538 
Q 2691 219 2414 64 
Q 2138 -91 1772 -91 
Q 1169 -91 856 284 
Q 544 659 544 1381 
z
M 1991 3584 
L 1991 3584 
z
" id="DejaVuSans-75" transform="scale(0.015625)"/>
       <path d="M 603 4863 
L 1178 4863 
L 1178 0 
L 603 0 
L 603 4863 
z
" id="DejaVuSans-6c" transform="scale(0.015625)"/>
       <path d="M 2194 1759 
Q 1497 1759 1228 1600 
Q 959 1441 959 1056 
Q 959 750 1161 570 
Q 1363 391 1709 391 
Q 2188 391 2477 730 
Q 2766 1069 2766 1631 
L 2766 1759 
L 2194 1759 
z
M 3341 1997 
L 3341 0 
L 2766 0 
L 2766 531 
Q 2569 213 2275 61 
Q 1981 -91 1556 -91 
Q 1019 -91 701 211 
Q 384 513 384 1019 
Q 384 1609 779 1909 
Q 1175 2209 1959 2209 
L 2766 2209 
L 2766 2266 
Q 2766 2663 2505 2880 
Q 2244 3097 1772 3097 
Q 1472 3097 1187 3025 
Q 903 2953 641 2809 
L 641 3341 
Q 956 3463 1253 3523 
Q 1550 3584 1831 3584 
Q 2591 3584 2966 3190 
Q 3341 2797 3341 1997 
z
" id="DejaVuSans-61" transform="scale(0.015625)"/>
       <path d="M 1172 4494 
L 1172 3500 
L 2356 3500 
L 2356 3053 
L 1172 3053 
L 1172 1153 
Q 1172 725 1289 603 
Q 1406 481 1766 481 
L 2356 481 
L 2356 0 
L 1766 0 
Q 1100 0 847 248 
Q 594 497 594 1153 
L 594 3053 
L 172 3053 
L 172 3500 
L 594 3500 
L 594 4494 
L 1172 4494 
z
" id="DejaVuSans-74" transform="scale(0.015625)"/>
       <path d="M 1959 3097 
Q 1497 3097 1228 2736 
Q 959 2375 959 1747 
Q 959 1119 1226 758 
Q 1494 397 1959 397 
Q 2419 397 2687 759 
Q 2956 1122 2956 1747 
Q 2956 2369 2687 2733 
Q 2419 3097 1959 3097 
z
M 1959 3584 
Q 2709 3584 3137 3096 
Q 3566 2609 3566 1747 
Q 3566 888 3137 398 
Q 2709 -91 1959 -91 
Q 1206 -91 779 398 
Q 353 888 353 1747 
Q 353 2609 779 3096 
Q 1206 3584 1959 3584 
z
" id="DejaVuSans-6f" transform="scale(0.015625)"/>
       <path d="M 3513 2113 
L 3513 0 
L 2938 0 
L 2938 2094 
Q 2938 2591 2744 2837 
Q 2550 3084 2163 3084 
Q 1697 3084 1428 2787 
Q 1159 2491 1159 1978 
L 1159 0 
L 581 0 
L 581 3500 
L 1159 3500 
L 1159 2956 
Q 1366 3272 1645 3428 
Q 1925 3584 2291 3584 
Q 2894 3584 3203 3211 
Q 3513 2838 3513 2113 
z
" id="DejaVuSans-6e" transform="scale(0.015625)"/>
      </defs>
      <use xlink:href="#DejaVuSans-73"/>
      <use x="52.099609" xlink:href="#DejaVuSans-69"/>
      <use x="79.882812" xlink:href="#DejaVuSans-6d"/>
      <use x="177.294922" xlink:href="#DejaVuSans-75"/>
      <use x="240.673828" xlink:href="#DejaVuSans-6c"/>
      <use x="268.457031" xlink:href="#DejaVuSans-61"/>
      <use x="329.736328" xlink:href="#DejaVuSans-74"/>
      <use x="368.945312" xlink:href="#DejaVuSans-69"/>
      <use x="396.728516" xlink:href="#DejaVuSans-6f"/>
      <use x="457.910156" xlink:href="#DejaVuSans-6e"/>
     </g>
    </g>
    <g id="line2d_31">
     <path d="M 299.673437 62.336562 
L 319.673437 62.336562 
" style="fill:none;stroke:#ff7f0e;stroke-linecap:square;stroke-width:1.5;"/>
    </g>
    <g id="line2d_32"/>
    <g id="text_17">
     <!-- target -->
     <g transform="translate(327.673437 65.836562)scale(0.1 -0.1)">
      <defs>
       <path d="M 2631 2963 
Q 2534 3019 2420 3045 
Q 2306 3072 2169 3072 
Q 1681 3072 1420 2755 
Q 1159 2438 1159 1844 
L 1159 0 
L 581 0 
L 581 3500 
L 1159 3500 
L 1159 2956 
Q 1341 3275 1631 3429 
Q 1922 3584 2338 3584 
Q 2397 3584 2469 3576 
Q 2541 3569 2628 3553 
L 2631 2963 
z
" id="DejaVuSans-72" transform="scale(0.015625)"/>
       <path d="M 2906 1791 
Q 2906 2416 2648 2759 
Q 2391 3103 1925 3103 
Q 1463 3103 1205 2759 
Q 947 2416 947 1791 
Q 947 1169 1205 825 
Q 1463 481 1925 481 
Q 2391 481 2648 825 
Q 2906 1169 2906 1791 
z
M 3481 434 
Q 3481 -459 3084 -895 
Q 2688 -1331 1869 -1331 
Q 1566 -1331 1297 -1286 
Q 1028 -1241 775 -1147 
L 775 -588 
Q 1028 -725 1275 -790 
Q 1522 -856 1778 -856 
Q 2344 -856 2625 -561 
Q 2906 -266 2906 331 
L 2906 616 
Q 2728 306 2450 153 
Q 2172 0 1784 0 
Q 1141 0 747 490 
Q 353 981 353 1791 
Q 353 2603 747 3093 
Q 1141 3584 1784 3584 
Q 2172 3584 2450 3431 
Q 2728 3278 2906 2969 
L 2906 3500 
L 3481 3500 
L 3481 434 
z
" id="DejaVuSans-67" transform="scale(0.015625)"/>
      </defs>
      <use xlink:href="#DejaVuSans-74"/>
      <use x="39.208984" xlink:href="#DejaVuSans-61"/>
      <use x="100.488281" xlink:href="#DejaVuSans-72"/>
      <use x="139.851562" xlink:href="#DejaVuSans-67"/>
      <use x="203.328125" xlink:href="#DejaVuSans-65"/>
      <use x="264.851562" xlink:href="#DejaVuSans-74"/>
     </g>
    </g>
   </g>
  </g>
 </g>
 <defs>
  <clipPath id="pdb98730b69">
   <rect height="217.44" width="334.8" x="54" y="34.56"/>
  </clipPath>
 </defs>
</svg>
