<?xml version="1.0" encoding="utf-8" standalone="no"?>
<!DOCTYPE svg PUBLIC "-//W3C//DTD SVG 1.1//EN"
  "http://www.w3.org/Graphics/SVG/1.1/DTD/svg11.dtd">
<svg height="288pt" version="1.1" viewBox="0 0 432 288" width="432pt" xmlns="http://www.w3.org/2000/svg" xmlns:xlink="http://www.w3.org/1999/xlink">
 <metadata>
  <rdf:RDF xmlns:cc="http://creativecommons.org/ns#" xmlns:dc="http://purl.org/dc/elements/1.1/" xmlns:rdf="http://www.w3.org/1999/02/22-rdf-syntax-ns#">
   <cc:Work>
    <dc:type rdf:resource="http://purl.org/dc/dcmitype/StillImage"/>
    <dc:date>2021-06-03T23:46:13.689211</dc:date>
    <dc:format>image/svg+xml</dc:format>
    <dc:creator>
     <cc:Agent>
      <dc:title>Matplotlib v3.4.1, https://matplotlib.org/</dc:title>
     </cc:Agent>
    </dc:creator>
   </cc:Work>
  </rdf:RDF>
 </metadata>
 <defs>
  <style type="text/css">*{stroke-linecap:butt;stroke-linejoin:round;}</style>
 </defs>
 <g id="figure_1">
  <g id="patch_1">
   <path d="M 0 288 
L 432 288 
L 432 0 
L 0 0 
z
" style="fill:none;"/>
  </g>
  <g id="axes_1">
   <g id="patch_2">
    <path d="M 54 252 
L 388.8 252 
L 388.8 34.56 
L 54 34.56 
z
" style="fill:#ffffff;"/>
   </g>
   <g id="matplotlib.axis_1">
    <g id="xtick_1">
     <g id="line2d_1">
      <path clip-path="url(#p510a0c6ed8)" d="M 69.218182 252 
L 69.218182 34.56 
" style="fill:none;stroke:#b0b0b0;stroke-linecap:square;stroke-width:0.8;"/>
     </g>
     <g id="line2d_2">
      <defs>
       <path d="M 0 0 
L 0 3.5 
" id="me8b5afc3ee" style="stroke:#000000;stroke-width:0.8;"/>
      </defs>
      <g>
       <use style="stroke:#000000;stroke-width:0.8;" x="69.218182" xlink:href="#me8b5afc3ee" y="252"/>
      </g>
     </g>
     <g id="text_1">
      <!-- 0 -->
      <g transform="translate(66.036932 266.598437)scale(0.1 -0.1)">
       <defs>
        <path d="M 2034 4250 
Q 1547 4250 1301 3770 
Q 1056 3291 1056 2328 
Q 1056 1369 1301 889 
Q 1547 409 2034 409 
Q 2525 409 2770 889 
Q 3016 1369 3016 2328 
Q 3016 3291 2770 3770 
Q 2525 4250 2034 4250 
z
M 2034 4750 
Q 2819 4750 3233 4129 
Q 3647 3509 3647 2328 
Q 3647 1150 3233 529 
Q 2819 -91 2034 -91 
Q 1250 -91 836 529 
Q 422 1150 422 2328 
Q 422 3509 836 4129 
Q 1250 4750 2034 4750 
z
" id="DejaVuSans-30" transform="scale(0.015625)"/>
       </defs>
       <use xlink:href="#DejaVuSans-30"/>
      </g>
     </g>
    </g>
    <g id="xtick_2">
     <g id="line2d_3">
      <path clip-path="url(#p510a0c6ed8)" d="M 111.490909 252 
L 111.490909 34.56 
" style="fill:none;stroke:#b0b0b0;stroke-linecap:square;stroke-width:0.8;"/>
     </g>
     <g id="line2d_4">
      <g>
       <use style="stroke:#000000;stroke-width:0.8;" x="111.490909" xlink:href="#me8b5afc3ee" y="252"/>
      </g>
     </g>
     <g id="text_2">
      <!-- 250 -->
      <g transform="translate(101.947159 266.598437)scale(0.1 -0.1)">
       <defs>
        <path d="M 1228 531 
L 3431 531 
L 3431 0 
L 469 0 
L 469 531 
Q 828 903 1448 1529 
Q 2069 2156 2228 2338 
Q 2531 2678 2651 2914 
Q 2772 3150 2772 3378 
Q 2772 3750 2511 3984 
Q 2250 4219 1831 4219 
Q 1534 4219 1204 4116 
Q 875 4013 500 3803 
L 500 4441 
Q 881 4594 1212 4672 
Q 1544 4750 1819 4750 
Q 2544 4750 2975 4387 
Q 3406 4025 3406 3419 
Q 3406 3131 3298 2873 
Q 3191 2616 2906 2266 
Q 2828 2175 2409 1742 
Q 1991 1309 1228 531 
z
" id="DejaVuSans-32" transform="scale(0.015625)"/>
        <path d="M 691 4666 
L 3169 4666 
L 3169 4134 
L 1269 4134 
L 1269 2991 
Q 1406 3038 1543 3061 
Q 1681 3084 1819 3084 
Q 2600 3084 3056 2656 
Q 3513 2228 3513 1497 
Q 3513 744 3044 326 
Q 2575 -91 1722 -91 
Q 1428 -91 1123 -41 
Q 819 9 494 109 
L 494 744 
Q 775 591 1075 516 
Q 1375 441 1709 441 
Q 2250 441 2565 725 
Q 2881 1009 2881 1497 
Q 2881 1984 2565 2268 
Q 2250 2553 1709 2553 
Q 1456 2553 1204 2497 
Q 953 2441 691 2322 
L 691 4666 
z
" id="DejaVuSans-35" transform="scale(0.015625)"/>
       </defs>
       <use xlink:href="#DejaVuSans-32"/>
       <use x="63.623047" xlink:href="#DejaVuSans-35"/>
       <use x="127.246094" xlink:href="#DejaVuSans-30"/>
      </g>
     </g>
    </g>
    <g id="xtick_3">
     <g id="line2d_5">
      <path clip-path="url(#p510a0c6ed8)" d="M 153.763636 252 
L 153.763636 34.56 
" style="fill:none;stroke:#b0b0b0;stroke-linecap:square;stroke-width:0.8;"/>
     </g>
     <g id="line2d_6">
      <g>
       <use style="stroke:#000000;stroke-width:0.8;" x="153.763636" xlink:href="#me8b5afc3ee" y="252"/>
      </g>
     </g>
     <g id="text_3">
      <!-- 500 -->
      <g transform="translate(144.219886 266.598437)scale(0.1 -0.1)">
       <use xlink:href="#DejaVuSans-35"/>
       <use x="63.623047" xlink:href="#DejaVuSans-30"/>
       <use x="127.246094" xlink:href="#DejaVuSans-30"/>
      </g>
     </g>
    </g>
    <g id="xtick_4">
     <g id="line2d_7">
      <path clip-path="url(#p510a0c6ed8)" d="M 196.036364 252 
L 196.036364 34.56 
" style="fill:none;stroke:#b0b0b0;stroke-linecap:square;stroke-width:0.8;"/>
     </g>
     <g id="line2d_8">
      <g>
       <use style="stroke:#000000;stroke-width:0.8;" x="196.036364" xlink:href="#me8b5afc3ee" y="252"/>
      </g>
     </g>
     <g id="text_4">
      <!-- 750 -->
      <g transform="translate(186.492614 266.598437)scale(0.1 -0.1)">
       <defs>
        <path d="M 525 4666 
L 3525 4666 
L 3525 4397 
L 1831 0 
L 1172 0 
L 2766 4134 
L 525 4134 
L 525 4666 
z
" id="DejaVuSans-37" transform="scale(0.015625)"/>
       </defs>
       <use xlink:href="#DejaVuSans-37"/>
       <use x="63.623047" xlink:href="#DejaVuSans-35"/>
       <use x="127.246094" xlink:href="#DejaVuSans-30"/>
      </g>
     </g>
    </g>
    <g id="xtick_5">
     <g id="line2d_9">
      <path clip-path="url(#p510a0c6ed8)" d="M 238.309091 252 
L 238.309091 34.56 
" style="fill:none;stroke:#b0b0b0;stroke-linecap:square;stroke-width:0.8;"/>
     </g>
     <g id="line2d_10">
      <g>
       <use style="stroke:#000000;stroke-width:0.8;" x="238.309091" xlink:href="#me8b5afc3ee" y="252"/>
      </g>
     </g>
     <g id="text_5">
      <!-- 1000 -->
      <g transform="translate(225.584091 266.598437)scale(0.1 -0.1)">
       <defs>
        <path d="M 794 531 
L 1825 531 
L 1825 4091 
L 703 3866 
L 703 4441 
L 1819 4666 
L 2450 4666 
L 2450 531 
L 3481 531 
L 3481 0 
L 794 0 
L 794 531 
z
" id="DejaVuSans-31" transform="scale(0.015625)"/>
       </defs>
       <use xlink:href="#DejaVuSans-31"/>
       <use x="63.623047" xlink:href="#DejaVuSans-30"/>
       <use x="127.246094" xlink:href="#DejaVuSans-30"/>
       <use x="190.869141" xlink:href="#DejaVuSans-30"/>
      </g>
     </g>
    </g>
    <g id="xtick_6">
     <g id="line2d_11">
      <path clip-path="url(#p510a0c6ed8)" d="M 280.581818 252 
L 280.581818 34.56 
" style="fill:none;stroke:#b0b0b0;stroke-linecap:square;stroke-width:0.8;"/>
     </g>
     <g id="line2d_12">
      <g>
       <use style="stroke:#000000;stroke-width:0.8;" x="280.581818" xlink:href="#me8b5afc3ee" y="252"/>
      </g>
     </g>
     <g id="text_6">
      <!-- 1250 -->
      <g transform="translate(267.856818 266.598437)scale(0.1 -0.1)">
       <use xlink:href="#DejaVuSans-31"/>
       <use x="63.623047" xlink:href="#DejaVuSans-32"/>
       <use x="127.246094" xlink:href="#DejaVuSans-35"/>
       <use x="190.869141" xlink:href="#DejaVuSans-30"/>
      </g>
     </g>
    </g>
    <g id="xtick_7">
     <g id="line2d_13">
      <path clip-path="url(#p510a0c6ed8)" d="M 322.854545 252 
L 322.854545 34.56 
" style="fill:none;stroke:#b0b0b0;stroke-linecap:square;stroke-width:0.8;"/>
     </g>
     <g id="line2d_14">
      <g>
       <use style="stroke:#000000;stroke-width:0.8;" x="322.854545" xlink:href="#me8b5afc3ee" y="252"/>
      </g>
     </g>
     <g id="text_7">
      <!-- 1500 -->
      <g transform="translate(310.129545 266.598437)scale(0.1 -0.1)">
       <use xlink:href="#DejaVuSans-31"/>
       <use x="63.623047" xlink:href="#DejaVuSans-35"/>
       <use x="127.246094" xlink:href="#DejaVuSans-30"/>
       <use x="190.869141" xlink:href="#DejaVuSans-30"/>
      </g>
     </g>
    </g>
    <g id="xtick_8">
     <g id="line2d_15">
      <path clip-path="url(#p510a0c6ed8)" d="M 365.127273 252 
L 365.127273 34.56 
" style="fill:none;stroke:#b0b0b0;stroke-linecap:square;stroke-width:0.8;"/>
     </g>
     <g id="line2d_16">
      <g>
       <use style="stroke:#000000;stroke-width:0.8;" x="365.127273" xlink:href="#me8b5afc3ee" y="252"/>
      </g>
     </g>
     <g id="text_8">
      <!-- 1750 -->
      <g transform="translate(352.402273 266.598437)scale(0.1 -0.1)">
       <use xlink:href="#DejaVuSans-31"/>
       <use x="63.623047" xlink:href="#DejaVuSans-37"/>
       <use x="127.246094" xlink:href="#DejaVuSans-35"/>
       <use x="190.869141" xlink:href="#DejaVuSans-30"/>
      </g>
     </g>
    </g>
    <g id="text_9">
     <!-- Time / s -->
     <g transform="translate(201.699219 280.276563)scale(0.1 -0.1)">
      <defs>
       <path d="M -19 4666 
L 3928 4666 
L 3928 4134 
L 2272 4134 
L 2272 0 
L 1638 0 
L 1638 4134 
L -19 4134 
L -19 4666 
z
" id="DejaVuSans-54" transform="scale(0.015625)"/>
       <path d="M 603 3500 
L 1178 3500 
L 1178 0 
L 603 0 
L 603 3500 
z
M 603 4863 
L 1178 4863 
L 1178 4134 
L 603 4134 
L 603 4863 
z
" id="DejaVuSans-69" transform="scale(0.015625)"/>
       <path d="M 3328 2828 
Q 3544 3216 3844 3400 
Q 4144 3584 4550 3584 
Q 5097 3584 5394 3201 
Q 5691 2819 5691 2113 
L 5691 0 
L 5113 0 
L 5113 2094 
Q 5113 2597 4934 2840 
Q 4756 3084 4391 3084 
Q 3944 3084 3684 2787 
Q 3425 2491 3425 1978 
L 3425 0 
L 2847 0 
L 2847 2094 
Q 2847 2600 2669 2842 
Q 2491 3084 2119 3084 
Q 1678 3084 1418 2786 
Q 1159 2488 1159 1978 
L 1159 0 
L 581 0 
L 581 3500 
L 1159 3500 
L 1159 2956 
Q 1356 3278 1631 3431 
Q 1906 3584 2284 3584 
Q 2666 3584 2933 3390 
Q 3200 3197 3328 2828 
z
" id="DejaVuSans-6d" transform="scale(0.015625)"/>
       <path d="M 3597 1894 
L 3597 1613 
L 953 1613 
Q 991 1019 1311 708 
Q 1631 397 2203 397 
Q 2534 397 2845 478 
Q 3156 559 3463 722 
L 3463 178 
Q 3153 47 2828 -22 
Q 2503 -91 2169 -91 
Q 1331 -91 842 396 
Q 353 884 353 1716 
Q 353 2575 817 3079 
Q 1281 3584 2069 3584 
Q 2775 3584 3186 3129 
Q 3597 2675 3597 1894 
z
M 3022 2063 
Q 3016 2534 2758 2815 
Q 2500 3097 2075 3097 
Q 1594 3097 1305 2825 
Q 1016 2553 972 2059 
L 3022 2063 
z
" id="DejaVuSans-65" transform="scale(0.015625)"/>
       <path id="DejaVuSans-20" transform="scale(0.015625)"/>
       <path d="M 1625 4666 
L 2156 4666 
L 531 -594 
L 0 -594 
L 1625 4666 
z
" id="DejaVuSans-2f" transform="scale(0.015625)"/>
       <path d="M 2834 3397 
L 2834 2853 
Q 2591 2978 2328 3040 
Q 2066 3103 1784 3103 
Q 1356 3103 1142 2972 
Q 928 2841 928 2578 
Q 928 2378 1081 2264 
Q 1234 2150 1697 2047 
L 1894 2003 
Q 2506 1872 2764 1633 
Q 3022 1394 3022 966 
Q 3022 478 2636 193 
Q 2250 -91 1575 -91 
Q 1294 -91 989 -36 
Q 684 19 347 128 
L 347 722 
Q 666 556 975 473 
Q 1284 391 1588 391 
Q 1994 391 2212 530 
Q 2431 669 2431 922 
Q 2431 1156 2273 1281 
Q 2116 1406 1581 1522 
L 1381 1569 
Q 847 1681 609 1914 
Q 372 2147 372 2553 
Q 372 3047 722 3315 
Q 1072 3584 1716 3584 
Q 2034 3584 2315 3537 
Q 2597 3491 2834 3397 
z
" id="DejaVuSans-73" transform="scale(0.015625)"/>
      </defs>
      <use xlink:href="#DejaVuSans-54"/>
      <use x="57.958984" xlink:href="#DejaVuSans-69"/>
      <use x="85.742188" xlink:href="#DejaVuSans-6d"/>
      <use x="183.154297" xlink:href="#DejaVuSans-65"/>
      <use x="244.677734" xlink:href="#DejaVuSans-20"/>
      <use x="276.464844" xlink:href="#DejaVuSans-2f"/>
      <use x="310.15625" xlink:href="#DejaVuSans-20"/>
      <use x="341.943359" xlink:href="#DejaVuSans-73"/>
     </g>
    </g>
   </g>
   <g id="matplotlib.axis_2">
    <g id="ytick_1">
     <g id="line2d_17">
      <path clip-path="url(#p510a0c6ed8)" d="M 54 242.116364 
L 388.8 242.116364 
" style="fill:none;stroke:#b0b0b0;stroke-linecap:square;stroke-width:0.8;"/>
     </g>
     <g id="line2d_18">
      <defs>
       <path d="M 0 0 
L -3.5 0 
" id="m47e4952b2b" style="stroke:#000000;stroke-width:0.8;"/>
      </defs>
      <g>
       <use style="stroke:#000000;stroke-width:0.8;" x="54" xlink:href="#m47e4952b2b" y="242.116364"/>
      </g>
     </g>
     <g id="text_10">
      <!-- 20 -->
      <g transform="translate(34.275 245.915582)scale(0.1 -0.1)">
       <use xlink:href="#DejaVuSans-32"/>
       <use x="63.623047" xlink:href="#DejaVuSans-30"/>
      </g>
     </g>
    </g>
    <g id="ytick_2">
     <g id="line2d_19">
      <path clip-path="url(#p510a0c6ed8)" d="M 54 197.896633 
L 388.8 197.896633 
" style="fill:none;stroke:#b0b0b0;stroke-linecap:square;stroke-width:0.8;"/>
     </g>
     <g id="line2d_20">
      <g>
       <use style="stroke:#000000;stroke-width:0.8;" x="54" xlink:href="#m47e4952b2b" y="197.896633"/>
      </g>
     </g>
     <g id="text_11">
      <!-- 40 -->
      <g transform="translate(34.275 201.695851)scale(0.1 -0.1)">
       <defs>
        <path d="M 2419 4116 
L 825 1625 
L 2419 1625 
L 2419 4116 
z
M 2253 4666 
L 3047 4666 
L 3047 1625 
L 3713 1625 
L 3713 1100 
L 3047 1100 
L 3047 0 
L 2419 0 
L 2419 1100 
L 313 1100 
L 313 1709 
L 2253 4666 
z
" id="DejaVuSans-34" transform="scale(0.015625)"/>
       </defs>
       <use xlink:href="#DejaVuSans-34"/>
       <use x="63.623047" xlink:href="#DejaVuSans-30"/>
      </g>
     </g>
    </g>
    <g id="ytick_3">
     <g id="line2d_21">
      <path clip-path="url(#p510a0c6ed8)" d="M 54 153.676901 
L 388.8 153.676901 
" style="fill:none;stroke:#b0b0b0;stroke-linecap:square;stroke-width:0.8;"/>
     </g>
     <g id="line2d_22">
      <g>
       <use style="stroke:#000000;stroke-width:0.8;" x="54" xlink:href="#m47e4952b2b" y="153.676901"/>
      </g>
     </g>
     <g id="text_12">
      <!-- 60 -->
      <g transform="translate(34.275 157.47612)scale(0.1 -0.1)">
       <defs>
        <path d="M 2113 2584 
Q 1688 2584 1439 2293 
Q 1191 2003 1191 1497 
Q 1191 994 1439 701 
Q 1688 409 2113 409 
Q 2538 409 2786 701 
Q 3034 994 3034 1497 
Q 3034 2003 2786 2293 
Q 2538 2584 2113 2584 
z
M 3366 4563 
L 3366 3988 
Q 3128 4100 2886 4159 
Q 2644 4219 2406 4219 
Q 1781 4219 1451 3797 
Q 1122 3375 1075 2522 
Q 1259 2794 1537 2939 
Q 1816 3084 2150 3084 
Q 2853 3084 3261 2657 
Q 3669 2231 3669 1497 
Q 3669 778 3244 343 
Q 2819 -91 2113 -91 
Q 1303 -91 875 529 
Q 447 1150 447 2328 
Q 447 3434 972 4092 
Q 1497 4750 2381 4750 
Q 2619 4750 2861 4703 
Q 3103 4656 3366 4563 
z
" id="DejaVuSans-36" transform="scale(0.015625)"/>
       </defs>
       <use xlink:href="#DejaVuSans-36"/>
       <use x="63.623047" xlink:href="#DejaVuSans-30"/>
      </g>
     </g>
    </g>
    <g id="ytick_4">
     <g id="line2d_23">
      <path clip-path="url(#p510a0c6ed8)" d="M 54 109.45717 
L 388.8 109.45717 
" style="fill:none;stroke:#b0b0b0;stroke-linecap:square;stroke-width:0.8;"/>
     </g>
     <g id="line2d_24">
      <g>
       <use style="stroke:#000000;stroke-width:0.8;" x="54" xlink:href="#m47e4952b2b" y="109.45717"/>
      </g>
     </g>
     <g id="text_13">
      <!-- 80 -->
      <g transform="translate(34.275 113.256389)scale(0.1 -0.1)">
       <defs>
        <path d="M 2034 2216 
Q 1584 2216 1326 1975 
Q 1069 1734 1069 1313 
Q 1069 891 1326 650 
Q 1584 409 2034 409 
Q 2484 409 2743 651 
Q 3003 894 3003 1313 
Q 3003 1734 2745 1975 
Q 2488 2216 2034 2216 
z
M 1403 2484 
Q 997 2584 770 2862 
Q 544 3141 544 3541 
Q 544 4100 942 4425 
Q 1341 4750 2034 4750 
Q 2731 4750 3128 4425 
Q 3525 4100 3525 3541 
Q 3525 3141 3298 2862 
Q 3072 2584 2669 2484 
Q 3125 2378 3379 2068 
Q 3634 1759 3634 1313 
Q 3634 634 3220 271 
Q 2806 -91 2034 -91 
Q 1263 -91 848 271 
Q 434 634 434 1313 
Q 434 1759 690 2068 
Q 947 2378 1403 2484 
z
M 1172 3481 
Q 1172 3119 1398 2916 
Q 1625 2713 2034 2713 
Q 2441 2713 2670 2916 
Q 2900 3119 2900 3481 
Q 2900 3844 2670 4047 
Q 2441 4250 2034 4250 
Q 1625 4250 1398 4047 
Q 1172 3844 1172 3481 
z
" id="DejaVuSans-38" transform="scale(0.015625)"/>
       </defs>
       <use xlink:href="#DejaVuSans-38"/>
       <use x="63.623047" xlink:href="#DejaVuSans-30"/>
      </g>
     </g>
    </g>
    <g id="ytick_5">
     <g id="line2d_25">
      <path clip-path="url(#p510a0c6ed8)" d="M 54 65.237439 
L 388.8 65.237439 
" style="fill:none;stroke:#b0b0b0;stroke-linecap:square;stroke-width:0.8;"/>
     </g>
     <g id="line2d_26">
      <g>
       <use style="stroke:#000000;stroke-width:0.8;" x="54" xlink:href="#m47e4952b2b" y="65.237439"/>
      </g>
     </g>
     <g id="text_14">
      <!-- 100 -->
      <g transform="translate(27.9125 69.036658)scale(0.1 -0.1)">
       <use xlink:href="#DejaVuSans-31"/>
       <use x="63.623047" xlink:href="#DejaVuSans-30"/>
       <use x="127.246094" xlink:href="#DejaVuSans-30"/>
      </g>
     </g>
    </g>
    <g id="text_15">
     <!-- Temperature / $\sf ^\circ$C -->
     <g transform="translate(21.8125 188.03)rotate(-90)scale(0.1 -0.1)">
      <defs>
       <path d="M 1159 525 
L 1159 -1331 
L 581 -1331 
L 581 3500 
L 1159 3500 
L 1159 2969 
Q 1341 3281 1617 3432 
Q 1894 3584 2278 3584 
Q 2916 3584 3314 3078 
Q 3713 2572 3713 1747 
Q 3713 922 3314 415 
Q 2916 -91 2278 -91 
Q 1894 -91 1617 61 
Q 1341 213 1159 525 
z
M 3116 1747 
Q 3116 2381 2855 2742 
Q 2594 3103 2138 3103 
Q 1681 3103 1420 2742 
Q 1159 2381 1159 1747 
Q 1159 1113 1420 752 
Q 1681 391 2138 391 
Q 2594 391 2855 752 
Q 3116 1113 3116 1747 
z
" id="DejaVuSans-70" transform="scale(0.015625)"/>
       <path d="M 2631 2963 
Q 2534 3019 2420 3045 
Q 2306 3072 2169 3072 
Q 1681 3072 1420 2755 
Q 1159 2438 1159 1844 
L 1159 0 
L 581 0 
L 581 3500 
L 1159 3500 
L 1159 2956 
Q 1341 3275 1631 3429 
Q 1922 3584 2338 3584 
Q 2397 3584 2469 3576 
Q 2541 3569 2628 3553 
L 2631 2963 
z
" id="DejaVuSans-72" transform="scale(0.015625)"/>
       <path d="M 2194 1759 
Q 1497 1759 1228 1600 
Q 959 1441 959 1056 
Q 959 750 1161 570 
Q 1363 391 1709 391 
Q 2188 391 2477 730 
Q 2766 1069 2766 1631 
L 2766 1759 
L 2194 1759 
z
M 3341 1997 
L 3341 0 
L 2766 0 
L 2766 531 
Q 2569 213 2275 61 
Q 1981 -91 1556 -91 
Q 1019 -91 701 211 
Q 384 513 384 1019 
Q 384 1609 779 1909 
Q 1175 2209 1959 2209 
L 2766 2209 
L 2766 2266 
Q 2766 2663 2505 2880 
Q 2244 3097 1772 3097 
Q 1472 3097 1187 3025 
Q 903 2953 641 2809 
L 641 3341 
Q 956 3463 1253 3523 
Q 1550 3584 1831 3584 
Q 2591 3584 2966 3190 
Q 3341 2797 3341 1997 
z
" id="DejaVuSans-61" transform="scale(0.015625)"/>
       <path d="M 1172 4494 
L 1172 3500 
L 2356 3500 
L 2356 3053 
L 1172 3053 
L 1172 1153 
Q 1172 725 1289 603 
Q 1406 481 1766 481 
L 2356 481 
L 2356 0 
L 1766 0 
Q 1100 0 847 248 
Q 594 497 594 1153 
L 594 3053 
L 172 3053 
L 172 3500 
L 594 3500 
L 594 4494 
L 1172 4494 
z
" id="DejaVuSans-74" transform="scale(0.015625)"/>
       <path d="M 544 1381 
L 544 3500 
L 1119 3500 
L 1119 1403 
Q 1119 906 1312 657 
Q 1506 409 1894 409 
Q 2359 409 2629 706 
Q 2900 1003 2900 1516 
L 2900 3500 
L 3475 3500 
L 3475 0 
L 2900 0 
L 2900 538 
Q 2691 219 2414 64 
Q 2138 -91 1772 -91 
Q 1169 -91 856 284 
Q 544 659 544 1381 
z
M 1991 3584 
L 1991 3584 
z
" id="DejaVuSans-75" transform="scale(0.015625)"/>
       <path d="M 2000 2619 
Q 1750 2619 1578 2445 
Q 1406 2272 1406 2022 
Q 1406 1775 1578 1605 
Q 1750 1435 2000 1435 
Q 2250 1435 2422 1605 
Q 2594 1775 2594 2022 
Q 2594 2269 2420 2444 
Q 2247 2619 2000 2619 
z
M 2000 3022 
Q 2200 3022 2384 2945 
Q 2569 2869 2703 2725 
Q 2847 2585 2919 2406 
Q 2991 2228 2991 2022 
Q 2991 1610 2702 1324 
Q 2413 1038 1994 1038 
Q 1572 1038 1290 1319 
Q 1009 1600 1009 2022 
Q 1009 2441 1296 2731 
Q 1584 3022 2000 3022 
z
" id="DejaVuSans-2218" transform="scale(0.015625)"/>
       <path d="M 4122 4306 
L 4122 3641 
Q 3803 3938 3442 4084 
Q 3081 4231 2675 4231 
Q 1875 4231 1450 3742 
Q 1025 3253 1025 2328 
Q 1025 1406 1450 917 
Q 1875 428 2675 428 
Q 3081 428 3442 575 
Q 3803 722 4122 1019 
L 4122 359 
Q 3791 134 3420 21 
Q 3050 -91 2638 -91 
Q 1578 -91 968 557 
Q 359 1206 359 2328 
Q 359 3453 968 4101 
Q 1578 4750 2638 4750 
Q 3056 4750 3426 4639 
Q 3797 4528 4122 4306 
z
" id="DejaVuSans-43" transform="scale(0.015625)"/>
      </defs>
      <use transform="translate(0 0.78125)" xlink:href="#DejaVuSans-54"/>
      <use transform="translate(61.083984 0.78125)" xlink:href="#DejaVuSans-65"/>
      <use transform="translate(122.607422 0.78125)" xlink:href="#DejaVuSans-6d"/>
      <use transform="translate(220.019531 0.78125)" xlink:href="#DejaVuSans-70"/>
      <use transform="translate(283.496094 0.78125)" xlink:href="#DejaVuSans-65"/>
      <use transform="translate(345.019531 0.78125)" xlink:href="#DejaVuSans-72"/>
      <use transform="translate(386.132812 0.78125)" xlink:href="#DejaVuSans-61"/>
      <use transform="translate(447.412109 0.78125)" xlink:href="#DejaVuSans-74"/>
      <use transform="translate(486.621094 0.78125)" xlink:href="#DejaVuSans-75"/>
      <use transform="translate(550 0.78125)" xlink:href="#DejaVuSans-72"/>
      <use transform="translate(591.113281 0.78125)" xlink:href="#DejaVuSans-65"/>
      <use transform="translate(652.636719 0.78125)" xlink:href="#DejaVuSans-20"/>
      <use transform="translate(684.423828 0.78125)" xlink:href="#DejaVuSans-2f"/>
      <use transform="translate(718.115234 0.78125)" xlink:href="#DejaVuSans-20"/>
      <use transform="translate(764.49707 39.0625)scale(0.7)" xlink:href="#DejaVuSans-2218"/>
      <use transform="translate(824.6875 0.78125)" xlink:href="#DejaVuSans-43"/>
     </g>
    </g>
   </g>
   <g id="line2d_27">
    <path clip-path="url(#p510a0c6ed8)" d="M 69.218182 242.116364 
L 72.910821 242.017287 
L 74.426354 241.80002 
L 74.740899 241.574447 
L 75.055444 241.069425 
L 75.684533 239.374863 
L 76.549531 236.234794 
L 77.17862 232.29278 
L 77.80771 225.86864 
L 78.389617 219.880541 
L 79.341114 213.964332 
L 79.946613 206.4672 
L 80.206112 201.313345 
L 80.552112 197.957705 
L 80.797933 197.916461 
L 81.089224 198.678521 
L 81.453336 197.52615 
L 82.311185 184.681167 
L 82.663645 184.890488 
L 83.544797 187.14136 
L 83.897259 187.641241 
L 84.161604 185.643092 
L 84.522876 181.407035 
L 85.395217 167.52475 
L 85.685997 166.654547 
L 86.267558 168.175511 
L 87.527605 170.075299 
L 87.818384 170.227951 
L 88.109165 169.241937 
L 89.369212 159.486417 
L 89.937275 159.284729 
L 90.234279 159.1813 
L 90.531283 158.626099 
L 91.188121 156.418318 
L 91.792022 155.200134 
L 92.734582 152.130904 
L 93.966446 146.765755 
L 95.095652 141.416428 
L 95.403618 140.826723 
L 95.711584 140.81257 
L 96.953712 142.311555 
L 97.590264 143.060954 
L 97.888057 142.516777 
L 98.442533 140.779879 
L 98.816277 139.895093 
L 99.119722 138.726545 
L 99.690396 137.672349 
L 100.282604 137.427469 
L 100.92 137.658517 
L 101.850031 137.937792 
L 103.105575 137.972743 
L 103.642953 137.804851 
L 104.575262 138.169076 
L 105.235268 138.654787 
L 105.458652 138.46333 
L 105.793733 137.904848 
L 106.687276 135.939247 
L 107.580816 134.846203 
L 107.915896 134.55146 
L 108.586055 133.557737 
L 110.321022 129.531195 
L 110.684401 127.235259 
L 111.532287 117.068755 
L 112.193742 114.220258 
L 113.079878 112.193442 
L 113.436497 111.909545 
L 114.324704 110.136886 
L 115.483582 107.175842 
L 115.834432 106.728321 
L 116.185287 105.734211 
L 116.419191 104.464857 
L 117.635476 101.074915 
L 118.021416 100.586386 
L 118.278706 100.534364 
L 118.536001 100.047995 
L 118.921935 98.322247 
L 119.164632 96.393319 
L 119.506777 95.322591 
L 120.077015 94.888649 
L 120.761305 94.555261 
L 121.012206 94.388111 
L 121.388564 94.549289 
L 121.639475 95.043637 
L 121.890377 95.249787 
L 122.266734 95.148272 
L 122.798152 94.645912 
L 123.50141 94.074779 
L 124.046188 93.130936 
L 124.383952 92.000562 
L 125.254614 86.830606 
L 125.846783 85.239064 
L 126.202081 84.090961 
L 126.79425 80.743123 
L 127.386414 77.179486 
L 127.978583 75.520436 
L 128.333882 75.645837 
L 128.926051 76.623349 
L 129.873518 78.976486 
L 130.110389 79.732245 
L 130.702553 80.62339 
L 131.057851 80.835613 
L 131.65002 81.546417 
L 132.005319 81.68565 
L 132.242189 81.573272 
L 132.834353 80.841736 
L 133.189657 80.248066 
L 134.115807 78.324823 
L 135.006853 73.844417 
L 135.583262 72.884043 
L 135.952168 72.780926 
L 136.276097 72.824987 
L 136.815983 73.544934 
L 137.409855 75.095097 
L 138.095548 76.996733 
L 139.569696 81.486635 
L 139.88558 81.691115 
L 140.222529 81.541947 
L 140.454183 81.281717 
L 141.427121 80.967254 
L 141.681939 80.472603 
L 142.064164 79.294052 
L 142.318977 78.061505 
L 142.899638 76.994843 
L 143.239575 76.702715 
L 144.14607 74.153987 
L 144.486006 73.697206 
L 145.097892 71.521744 
L 145.347179 70.417449 
L 145.74604 70.043575 
L 146.23084 70.355271 
L 146.594436 69.905186 
L 146.836838 68.433006 
L 147.200434 65.238063 
L 147.442832 61.483543 
L 148.04883 57.856362 
L 148.412431 58.1312 
L 149.01843 59.501411 
L 149.382031 59.438744 
L 149.624428 58.669153 
L 149.98803 58.232276 
L 150.230427 58.757544 
L 150.594028 59.23359 
L 150.836425 60.147795 
L 151.200021 60.523506 
L 151.442424 60.547156 
L 151.80602 60.900163 
L 152.048423 61.444711 
L 152.412019 61.901814 
L 153.018017 63.306571 
L 153.26042 63.958116 
L 153.624016 64.390894 
L 154.230014 65.681536 
L 154.472417 66.508851 
L 154.836013 67.228967 
L 155.078415 67.998743 
L 155.684409 69.381437 
L 156.048015 69.547709 
L 156.896411 69.160881 
L 157.260012 68.360269 
L 158.108408 63.667034 
L 158.714406 62.651078 
L 159.077997 62.582913 
L 159.320405 62.692895 
L 159.683996 62.720981 
L 159.926393 62.224575 
L 160.289994 61.061004 
L 160.532392 59.631366 
L 161.138401 58.126376 
L 162.10799 57.779914 
L 162.471591 58.040465 
L 162.713988 58.50229 
L 164.289587 59.720431 
L 164.895585 59.576256 
L 165.501584 59.081942 
L 165.743981 58.712438 
L 167.319579 58.112763 
L 167.561977 57.858201 
L 168.19291 56.913228 
L 168.750226 56.579974 
L 169.444248 56.51164 
L 169.675592 56.71811 
L 170.022598 56.865338 
L 170.369614 56.396141 
L 170.600948 55.807785 
L 170.971103 55.483674 
L 171.225575 55.48418 
L 171.607289 55.8842 
L 173.006902 59.834732 
L 173.643088 61.127769 
L 174.024791 61.097895 
L 174.533746 60.439316 
L 174.91546 59.75852 
L 176.060591 55.222618 
L 176.696777 51.899745 
L 177.07849 51.327076 
L 177.332973 51.571416 
L 177.969159 52.970506 
L 178.859817 56.799703 
L 179.11429 57.207482 
L 180.132189 57.281248 
L 180.386661 57.348941 
L 181.022858 56.909939 
L 181.531802 55.826425 
L 181.887632 55.531193 
L 182.470534 54.272871 
L 182.847706 54.253185 
L 183.412712 55.419237 
L 184.016398 56.180967 
L 185.826478 57.940232 
L 186.435201 58.218309 
L 187.409167 58.243275 
L 188.01789 58.229493 
L 189.478827 55.743837 
L 190.139163 53.167934 
L 190.377309 53.08258 
L 190.734542 53.4047 
L 190.972698 53.400129 
L 191.329921 53.133067 
L 191.699064 53.200676 
L 192.222994 54.452453 
L 192.615947 54.74281 
L 192.877912 54.416911 
L 193.139887 53.737752 
L 193.491692 53.275488 
L 193.802772 53.235982 
L 194.020524 52.674835 
L 194.3627 53.103294 
L 194.739109 53.348849 
L 194.990041 53.101692 
L 195.240974 53.107242 
L 195.617372 53.246457 
L 195.868305 53.207542 
L 196.244714 52.729843 
L 196.746578 50.02493 
L 197.122977 49.613761 
L 197.373909 49.877398 
L 197.750318 50.616525 
L 198.001251 50.48291 
L 198.364501 49.93244 
L 198.92608 48.78545 
L 199.48767 47.784019 
L 200.161577 46.231696 
L 200.756853 46.169451 
L 201.127503 46.761502 
L 201.621699 48.894893 
L 201.992339 49.591562 
L 202.857186 52.164259 
L 203.474929 53.392893 
L 203.845579 53.447715 
L 204.463322 51.870326 
L 204.710416 50.964134 
L 205.081066 50.554668 
L 205.328159 50.657043 
L 205.575262 50.901771 
L 206.563656 51.252602 
L 206.810749 51.278461 
L 207.428492 51.647746 
L 207.799142 51.653397 
L 208.046235 51.003623 
L 208.416885 49.513596 
L 208.663979 47.846044 
L 209.281722 45.304216 
L 209.652372 45.232019 
L 209.899465 45.441677 
L 210.146569 45.947783 
L 210.517219 47.140267 
L 210.764312 48.366656 
L 211.382055 50.224501 
L 211.752705 51.308184 
L 211.999798 52.478081 
L 212.617542 54.315801 
L 212.988192 54.714623 
L 213.235285 55.158703 
L 213.853028 55.646202 
L 214.100132 55.581815 
L 214.811915 54.923961 
L 215.029512 54.833647 
L 215.355898 54.415815 
L 216.552652 51.448951 
L 217.151034 50.919044 
L 217.749416 51.110603 
L 218.395664 51.381865 
L 218.790588 51.578332 
L 219.053874 51.836909 
L 219.31716 51.918199 
L 219.97538 51.309246 
L 220.501952 50.693681 
L 220.896876 50.752738 
L 221.423448 51.67757 
L 222.081668 53.146984 
L 222.739889 54.414482 
L 223.003175 54.799084 
L 223.266461 54.676922 
L 223.661384 54.291443 
L 224.187957 52.267613 
L 224.451243 51.258826 
L 225.109463 49.777402 
L 225.463198 49.593012 
L 226.052745 50.124218 
L 226.97968 51.450031 
L 227.487448 52.394531 
L 228.419172 53.136137 
L 229.381237 53.284293 
L 230.034494 53.696947 
L 230.295798 53.786316 
L 230.557102 53.741767 
L 230.949054 53.525715 
L 231.553742 52.67669 
L 231.782661 52.3543 
L 232.744138 52.600748 
L 232.995948 52.260157 
L 233.373678 51.401601 
L 233.625487 49.888447 
L 234.506837 46.453584 
L 234.884567 46.079846 
L 235.136376 46.228238 
L 235.514096 47.028445 
L 236.017725 48.845047 
L 236.647265 49.901419 
L 237.243562 50.233441 
L 237.542784 50.13584 
L 238.207579 49.749501 
L 238.805899 49.810295 
L 239.443148 49.899479 
L 240.01772 50.541882 
L 240.881132 51.84224 
L 241.527123 52.26876 
L 241.893531 52.291009 
L 242.785108 51.585923 
L 243.030591 51.56784 
L 243.662804 51.830921 
L 243.971634 51.608459 
L 245.155126 50.186311 
L 245.516756 50.234993 
L 246.119473 50.721818 
L 246.360559 51.226844 
L 247.083819 52.338038 
L 247.686515 53.544709 
L 248.289232 58.024119 
L 248.530318 58.599807 
L 248.891948 57.642352 
L 249.133014 56.223223 
L 250.338448 53.469357 
L 250.700078 53.135159 
L 250.941164 52.760527 
L 251.302794 52.421082 
L 251.905511 51.345918 
L 253.110924 47.252273 
L 253.484608 47.206509 
L 254.280194 48.160726 
L 254.943182 48.446917 
L 255.208357 48.30787 
L 255.60615 47.483001 
L 256.13654 45.029327 
L 256.534313 44.53783 
L 257.064703 44.95659 
L 257.329899 45.416341 
L 257.992887 46.157694 
L 258.593127 47.484502 
L 258.943837 47.630364 
L 259.528369 46.948472 
L 259.76219 46.906554 
L 260.112901 47.050729 
L 260.463633 46.393465 
L 260.697454 45.592313 
L 261.048185 44.89836 
L 261.282006 44.759617 
L 261.656104 45.359545 
L 261.913311 46.674258 
L 262.813485 49.599389 
L 264.356666 52.437748 
L 264.727419 52.932332 
L 264.954511 53.564057 
L 265.29515 53.979123 
L 266.544197 54.683433 
L 266.782642 55.012824 
L 267.157358 55.180058 
L 267.407176 54.789131 
L 267.781872 53.90227 
L 268.281487 51.543077 
L 268.906 50.224704 
L 269.530534 50.392528 
L 269.90523 50.315557 
L 270.806745 49.643787 
L 271.361472 48.479793 
L 271.927282 47.393547 
L 272.537492 46.92435 
L 272.903601 47.251616 
L 273.51381 50.557553 
L 273.757869 51.425757 
L 274.123999 51.1396 
L 274.368058 50.463916 
L 275.344376 49.456631 
L 275.588455 48.936676 
L 275.954585 48.603473 
L 276.198665 48.565401 
L 276.564774 49.063527 
L 276.808853 49.763536 
L 277.174983 49.956343 
L 277.419042 49.894166 
L 278.39536 49.228215 
L 279.005549 48.734879 
L 279.249629 48.295336 
L 279.615758 48.176802 
L 279.859838 48.36001 
L 280.836156 48.267807 
L 282.056534 48.141513 
L 282.300613 48.320555 
L 282.666722 48.773069 
L 282.910802 49.392058 
L 283.276932 49.658327 
L 283.521011 49.527799 
L 283.88712 48.858828 
L 284.1312 48.055045 
L 284.741388 46.834863 
L 285.717707 46.038097 
L 286.571975 45.654996 
L 287.182184 46.01077 
L 287.548293 46.402135 
L 287.792373 46.91347 
L 289.37888 48.830506 
L 289.989069 47.564425 
L 290.233148 46.631564 
L 290.599278 46.341139 
L 290.843358 46.444391 
L 291.172024 46.842555 
L 291.502631 47.436697 
L 291.729888 47.394475 
L 292.070835 47.729669 
L 292.661787 49.187814 
L 293.849221 50.056204 
L 294.177268 49.917933 
L 295.161368 48.071863 
L 295.708106 48.198494 
L 296.670389 49.146537 
L 297.512355 50.553082 
L 298.715167 51.900166 
L 299.436837 52.092653 
L 300.278804 51.576662 
L 300.63967 51.102506 
L 300.880241 50.542202 
L 301.241066 50.097802 
L 302.395784 47.103375 
L 303.321945 46.50758 
L 303.586562 46.983356 
L 304.303423 49.056662 
L 304.806134 50.44536 
L 305.449163 51.50929 
L 306.349357 51.986482 
L 306.735178 51.872249 
L 306.992386 51.968905 
L 307.249593 51.906914 
L 307.635373 50.485069 
L 307.89258 48.082321 
L 308.149787 46.800704 
L 308.501014 46.139004 
L 309.447114 49.125536 
L 309.691978 49.883893 
L 310.059284 50.090785 
L 310.671455 49.836475 
L 311.283645 50.462414 
L 311.528509 51.040025 
L 312.1407 52.022277 
L 312.752891 52.347772 
L 313.120177 51.745887 
L 313.928271 48.983352 
L 314.332318 48.521324 
L 314.935097 48.683885 
L 315.176204 48.808037 
L 315.537855 49.295975 
L 315.76441 49.902617 
L 316.700334 51.32269 
L 317.085082 51.689378 
L 317.98282 52.920136 
L 318.495831 53.498844 
L 319.137064 54.068104 
L 319.778317 54.255783 
L 320.41957 53.90868 
L 320.932581 52.9742 
L 321.538766 50.505176 
L 322.203116 47.927232 
L 322.535291 47.780173 
L 323.088924 48.040605 
L 323.432163 48.841116 
L 323.675747 50.101294 
L 324.284738 51.790707 
L 327.08607 53.421046 
L 327.329675 53.244635 
L 327.695062 52.589919 
L 327.938646 51.668815 
L 328.547637 50.419433 
L 328.913024 50.258761 
L 329.156608 50.283726 
L 329.522015 50.439035 
L 330.374591 51.526428 
L 330.739978 50.59463 
L 330.971384 49.368965 
L 331.300174 48.675822 
L 331.661866 48.505383 
L 331.902994 48.250466 
L 332.264665 48.068894 
L 332.505772 48.183296 
L 333.108592 48.968693 
L 333.470263 49.747933 
L 333.711391 50.641946 
L 334.675862 52.730669 
L 335.592115 54.868683 
L 335.857352 55.188374 
L 336.255206 55.389194 
L 336.491112 55.366894 
L 336.844981 54.883308 
L 337.434756 53.007802 
L 337.670662 51.519124 
L 338.024531 50.678685 
L 338.614305 51.415923 
L 338.968174 51.538455 
L 339.911818 51.404199 
L 340.130819 51.496824 
L 340.433973 51.49291 
L 340.737127 51.270432 
L 341.070582 50.764478 
L 342.237726 47.663325 
L 342.604537 47.64423 
L 343.215882 48.535696 
L 344.438591 51.990446 
L 344.683125 52.451243 
L 345.049936 52.584386 
L 345.661301 52.237907 
L 346.272646 51.531252 
L 346.5172 51.15883 
L 346.884011 51.129546 
L 347.128544 51.313969 
L 347.495376 51.774631 
L 348.106721 53.083086 
L 348.351254 53.39215 
L 348.718065 53.29632 
L 349.32943 52.022328 
L 349.573964 51.036635 
L 350.552119 48.459703 
L 350.796674 48.229431 
L 351.163485 48.09089 
L 351.77485 47.389887 
L 352.661999 45.278981 
L 352.974235 44.677029 
L 353.286451 44.443636 
L 353.515421 44.631113 
L 354.20227 45.867556 
L 354.774686 47.712007 
L 355.358516 49.256756 
L 356.617802 49.936995 
L 356.869642 50.291199 
L 357.247434 50.438309 
L 357.499295 50.287471 
L 357.877087 49.730103 
L 358.380789 48.45638 
L 358.75856 48.007678 
L 359.010421 47.954711 
L 359.640054 48.382108 
L 359.891915 48.584041 
L 360.86877 48.813992 
L 361.222825 48.396581 
L 361.466244 47.426491 
L 361.831362 45.4714 
L 362.074802 45.030609 
L 362.43992 46.353993 
L 362.683339 46.707894 
L 363.048458 46.791949 
L 363.291877 46.660594 
L 363.656995 46.595246 
L 364.265532 46.887138 
L 364.508952 47.2336 
L 364.886248 48.212597 
L 365.154003 49.302655 
L 365.421758 49.660402 
L 365.689533 50.232396 
L 366.285603 52.69641 
L 367.000896 53.73755 
L 367.23934 53.924942 
L 367.597007 53.876107 
L 367.835411 53.316596 
L 368.193078 52.147694 
L 368.431522 50.767498 
L 369.027592 49.305607 
L 369.385239 49.335161 
L 370.303865 50.11796 
L 370.650923 50.131843 
L 370.882329 49.803582 
L 371.483952 48.285671 
L 371.865748 47.255529 
L 372.10733 47.038482 
L 372.4503 47.567039 
L 373.581818 51.300745 
L 373.581818 51.300745 
" style="fill:none;stroke:#1f77b4;stroke-linecap:square;stroke-width:1.5;"/>
   </g>
   <g id="patch_3">
    <path d="M 54 252 
L 54 34.56 
" style="fill:none;stroke:#000000;stroke-linecap:square;stroke-linejoin:miter;stroke-width:0.8;"/>
   </g>
   <g id="patch_4">
    <path d="M 388.8 252 
L 388.8 34.56 
" style="fill:none;stroke:#000000;stroke-linecap:square;stroke-linejoin:miter;stroke-width:0.8;"/>
   </g>
   <g id="patch_5">
    <path d="M 54 252 
L 388.8 252 
" style="fill:none;stroke:#000000;stroke-linecap:square;stroke-linejoin:miter;stroke-width:0.8;"/>
   </g>
   <g id="patch_6">
    <path d="M 54 34.56 
L 388.8 34.56 
" style="fill:none;stroke:#000000;stroke-linecap:square;stroke-linejoin:miter;stroke-width:0.8;"/>
   </g>
  </g>
 </g>
 <defs>
  <clipPath id="p510a0c6ed8">
   <rect height="217.44" width="334.8" x="54" y="34.56"/>
  </clipPath>
 </defs>
</svg>
